<svg width="162" height="61" fill="none" xmlns="http://www.w3.org/2000/svg"><path d="M130.539.01a30 30 0 000 60v-60zm22.6 8.76a29.86 29.86 0 00-19.83-8.76v60a30 30 0 0019.83-51.24" fill="#3FCFD5"/><path d="M122.819 25.6v.65c0 1.66-.32 3-2.43 5.47l-4.24 5.12h6.92v2.14h-9.87v-1.91l5.86-7.4a4.476 4.476 0 001.31-3.4v-.52c0-1.87-.9-2.61-3-2.61a14.07 14.07 0 00-3.69.65v-2.14a15.476 15.476 0 013.69-.61c3.8 0 5.53 1.55 5.53 4.56h-.08zm18.61 7.55h5.33v-8.92l-5.33 8.92zm7.73 0h1.78v2.05h-1.87v3.78h-2.43V35.2h-8v-1.73l7.55-12.08h2.88v11.76h.09z" fill="#fff"/><path d="M3.38 39.99h10.13v2.93H.07V17.4h3.31v22.59zm24.9 2.93h3.31V17.4h-3.31v25.52zm29.79-13.17l10.8 13.17h-4.25l-10-12.51v12.51H51.3V17.4h3.32v12.31l9.5-12.31h3.7l-9.75 12.35zm23.64 13.17h3.31V17.4h-3.35l.04 25.52z" fill="#000"/></svg>