<svg width="271" height="60" fill="none" xmlns="http://www.w3.org/2000/svg"><path d="M78.59 19.9H70.8v-2.81h19v2.81h-7.82v22.8h-3.35l-.04-22.8zm15.32 14.74l-2.66 8.06h-3.42l8.7-25.61h4l8.74 25.61h-3.54L103 34.64h-9.09zm8.39-2.58l-2.5-7.37c-.57-1.67-1-3.19-1.33-4.68h-.08c-.38 1.52-.8 3.08-1.29 4.64l-2.51 7.41h7.71zm10.77-14.63a32.401 32.401 0 016-.53c3.31 0 5.44.57 7 1.86a5.382 5.382 0 012.13 4.52 6.058 6.058 0 01-4.33 5.62v.08a6.602 6.602 0 015.28 6.42 6.859 6.859 0 01-2.17 5.13c-1.78 1.63-4.67 2.39-8.85 2.39a39.133 39.133 0 01-5.13-.3l.07-25.19zm3.31 10.49h3c3.49 0 5.55-1.83 5.55-4.3 0-3-2.28-4.18-5.63-4.18a14.333 14.333 0 00-2.92.23v8.25zm0 12.27a18.1 18.1 0 002.77.15c3.42 0 6.57-1.25 6.57-5 0-3.49-3-4.94-6.61-4.94h-2.73v9.79zm17.24-23.1h3.3v22.83h10.94v2.78h-14.24V17.09zm31.19 13.6h-9.95v9.23h11.09v2.78h-14.4V17.09h13.83v2.75h-10.52v8.09h9.95v2.76zm10.91-10.79h-7.79v-2.81h19v2.81h-7.86v22.8h-3.34l-.01-22.8zm14.02-2.81h3.33v12.35h.11c.69-1 1.37-1.9 2-2.74l7.82-9.61h4.07l-9.27 10.86 10 14.75h-3.92l-8.43-12.58-2.38 2.81v9.77h-3.31l-.02-25.61zm23.9 0V42.7h-3.3V17.09h3.3zm7.07 26.02a2.389 2.389 0 112.32-2.39 2.21 2.21 0 01-.62 1.719 2.226 2.226 0 01-1.7.671zm9.879-26.02v15.16c0 5.74 2.55 8.17 6 8.17 3.8 0 6.23-2.51 6.23-8.17V17.09h3.34v14.93c0 7.87-4.14 11.09-9.69 11.09-5.24 0-9.19-3-9.19-10.94V17.09h3.31zm24.13 17.55l-2.65 8.06h-3.42l8.7-25.61h4l8.72 25.61h-3.53l-2.74-8.06h-9.08zm8.4-2.58l-2.51-7.37c-.57-1.67-.95-3.19-1.33-4.68h-.08c-.38 1.52-.79 3.08-1.29 4.64l-2.51 7.41h7.72z" fill="#010203"/><circle cx="30" cy="30" r="30" fill="#43B02A"/><path d="M20.648 44.269c8.023 0 14.527-6.504 14.527-14.526 0-8.023-6.504-14.526-14.526-14.526-8.024 0-14.528 6.503-14.528 14.526 0 8.02 6.504 14.524 14.527 14.524v.002z" fill="#327A3B"/><path d="M20.648 43.267c8.023 0 14.527-6.504 14.527-14.527S28.67 14.213 20.649 14.213c-8.024 0-14.528 6.504-14.528 14.527s6.504 14.527 14.526 14.527h.001z" fill="#fff" stroke="#707070" stroke-width=".25" stroke-miterlimit="10"/><path d="M9.114 19.923l23.084 17.6" stroke="#707070" stroke-width=".5" stroke-miterlimit="10"/><path d="M40.352 44.804c8.022 0 14.526-6.504 14.526-14.527S48.375 15.75 40.352 15.75s-14.527 6.504-14.527 14.527c0 8.022 6.504 14.525 14.527 14.525v.002z" fill="#327A3B"/><path d="M40.352 44.027c8.022 0 14.526-6.504 14.526-14.527s-6.504-14.526-14.526-14.526c-8.023 0-14.527 6.504-14.527 14.526 0 8.023 6.504 14.527 14.527 14.527v0z" fill="#fff" stroke="#707070" stroke-width=".25" stroke-miterlimit="10"/><path d="M40.352 14.99v29.02" stroke="#707070" stroke-width=".5" stroke-miterlimit="10"/></svg>