<svg width="1000" height="709" fill="none" xmlns="http://www.w3.org/2000/svg"><path d="M763.755 571.075L635.612 438.879" stroke="#F07E20" stroke-miterlimit="10"/><path d="M763.432 579.57a8.5 8.5 0 008.818-8.172 8.502 8.502 0 10-8.818 8.172zM635.397 444.543a5.668 5.668 0 10.43-11.328 5.668 5.668 0 00-.43 11.328zm145.96-289.19a8.584 8.584 0 00-.38-17.163 8.583 8.583 0 00-8.392 8.771 8.585 8.585 0 008.772 8.392zM537.124 342.781a5.721 5.721 0 10-.253-11.441 5.722 5.722 0 10.253 11.441z" fill="#F07E20"/><path d="M781.166 146.771L536.997 337.06" stroke="#F07E20" stroke-miterlimit="10"/><path d="M621.206 355.433a5.929 5.929 0 00-.278-11.855 5.929 5.929 0 10.278 11.855zm314.472 17.313a8.893 8.893 0 10-.417-17.782 8.893 8.893 0 00-8.683 9.1 8.893 8.893 0 009.1 8.682z" fill="#F07E20"/><path d="M935.467 363.855l-314.401-14.349" stroke="#F07E20" stroke-miterlimit="10"/><path d="M204.991 155.654a8.987 8.987 0 009.698-8.215 8.988 8.988 0 10-9.698 8.215zm160.202 159.637a5.992 5.992 0 10.987-11.941 5.992 5.992 0 00-.987 11.941z" fill="#F07E20"/><path d="M205.732 146.698L365.688 309.32" stroke="#F07E20" stroke-miterlimit="10"/><path d="M60.597 370.422c4.747 0 8.596-3.592 8.596-8.023 0-4.431-3.849-8.023-8.596-8.023-4.748 0-8.597 3.592-8.597 8.023 0 4.431 3.849 8.023 8.597 8.023zm228.672-2.674c3.165 0 5.731-2.395 5.731-5.349s-2.566-5.348-5.731-5.348-5.731 2.394-5.731 5.348c0 2.954 2.566 5.349 5.731 5.349z" fill="#F07E20"/><path d="M60.597 362.399h228.672" stroke="#F07E20" stroke-miterlimit="10"/><path d="M210.605 567a8 8 0 100-16.002 8 8 0 000 16.002zm153.864-147.612a5.334 5.334 0 100-10.668 5.334 5.334 0 000 10.668z" fill="#F07E20"/><path d="M210.605 558.999l153.864-144.945M504.703 595.64V454.324" stroke="#F07E20" stroke-miterlimit="10"/><path d="M504.703 602.743a8.023 8.023 0 100-16.046 8.023 8.023 0 000 16.046zm0-143.07a5.35 5.35 0 100-10.698 5.35 5.35 0 000 10.698z" fill="#F07E20"/></svg>