<svg xmlns="http://www.w3.org/2000/svg" width="1240.43" height="77.35"><path d="M22.3 60.81a11.17 11.17 0 01-8.1 3.17c-7.27 0-14.23-9.56-14.23-31.31 0-18.2 5.75-32 15.21-32a9.39 9.39 0 017 2.73l-.72 3.64a8.7 8.7 0 00-6.24-2.64C7.14 4.37 2.2 15.11 2.2 32.81c0 16.66 4.68 27.4 12.7 27.4a9.65 9.65 0 006.78-2.82zm8.65-19.31l-3.7 21.48h-2.19L35.94 1.64h2l10.89 61.34h-2.19L42.85 41.5zm11.25-3.64l-3.67-20.48c-.72-4.27-1.12-7.37-1.56-10.82h-.09c-.45 3.54-.94 6.73-1.56 10.64l-3.7 20.66zm36.59-4c-.31-9.2-.67-20.48-.62-27.12h-.14c-1.07 6.64-2.32 13.74-4 22.84l-6.33 33.4h-1.5L60.29 30.4c-1.7-9.56-3-16.93-3.88-23.66h-.14c0 7.19-.26 17.83-.62 28l-.94 28.21h-2.09L54.8 1.64h2.46l6.46 35.31c1.38 7.83 2.45 14 3.3 19.93h.09c.8-5.64 1.87-11.65 3.39-19.84l6.7-35.4h2.54l2 61.34h-2.1zm33.93-2.19c0 21.66-6.46 32.31-13.42 32.31-7.4 0-13.11-11.92-13.11-31C86.19 12.86 92.12.67 99.66.67s13.06 11.98 13.06 31zm-24.34 1.14c0 13.84 3.92 27.58 11.06 27.58s11.1-13.2 11.1-28.39c0-12.93-3.48-27.67-11-27.67S88.38 18.48 88.38 32.81zm47.66-31.17v61.34h-2.14V5.28h-11.81v21c0 11.92.09 28.31-3.93 34.4-.84 1.28-2.4 2.82-3.74 2.82l-.22-3.43a7.39 7.39 0 003-3.19c2.76-5.37 2.85-19.93 2.85-30V1.64zm9.41 0v61.34h-2.09V1.64zm9.41 0v28.3h1.56l11.55-28.3h2.45l-11.9 28.67c5.62 1 7.62 7.64 9.36 16.47 1.2 6.1 2 11.19 3.21 16.2h-2.23c-1.11-4.28-2.09-10.1-3-15.11-1.65-8.83-3.83-14.47-9.8-14.47h-1.21v29.58h-2.09V1.64zm20.11 0l7 28.85c.71 3.28 1.47 6.73 2.18 10.28h.05c.63-3.46 1.25-6.73 2-10.46l5.57-28.67H194l-6.69 32.49c-1.51 7.46-3.43 16.84-5.44 22.57-1.92 5-4 7.28-6.06 7.28a2.91 2.91 0 01-1.47-.27l.31-3.64a2.14 2.14 0 00.94.18c3.74-.09 5.79-8.19 7-13.56a7.45 7.45 0 00-.18-4.19l-9.9-40.86zm22.56.82a13.83 13.83 0 016-1.27c3.75 0 6.2 1.63 7.89 5a23.47 23.47 0 011.83 10.1c0 6.28-2.18 11.56-5.17 13.74v.19c2.5 1.18 6.33 5.64 6.33 15.65a27.26 27.26 0 01-2.21 11.74c-2 4.18-5.21 5.82-9.45 5.82a23.13 23.13 0 01-5.22-.54zm2.1 26.12h4.41c4.33 0 7-5.19 7-12 0-8.65-3.17-11.74-7.63-11.74a8.4 8.4 0 00-3.83.63zm0 30.76a10.49 10.49 0 003.7.45c4.59 0 8.92-3.36 8.92-13.83 0-9.65-4.06-13.83-8.83-13.83h-3.79zm23.99-17.84l-3.7 21.48h-2.19l10.88-61.34h2.05l10.84 61.34h-2.19l-3.79-21.48zm11.23-3.64l-3.65-20.48c-.72-4.27-1.12-7.37-1.56-10.82h-.09c-.45 3.54-.94 6.73-1.56 10.64l-3.7 20.66zM248.2 1.64v26.94h16.59V1.64h2.09v61.34h-2.09V32.31H248.2v30.67h-2.09V1.64zm28.12 0v26.94h16.59V1.64H295v61.34h-2.09V32.31h-16.59v30.67h-2.12V1.64zm23.19 61.34c.36-1.46.71-3 1-4.73 1.34-7.1 2.19-16.39 4.73-21.75a7 7 0 012.59-3.1v-.18c-4-1.27-6.87-7.19-6.87-15.2 0-5.19.94-9.37 2.54-12.1a8.66 8.66 0 017.85-4.73 16.36 16.36 0 016.29 1.27v60.52h-2.1V34.86h-3.64c-2.18 0-3.74.82-4.94 3.46-2.19 4.64-3.08 14.28-4.29 20.56-.26 1.46-.53 2.73-.89 4.1zm16.05-57.43a10.48 10.48 0 00-4.28-.81c-4.32 0-8.16 3.18-8.16 13 0 8.46 3.61 13.56 8.61 13.56 1.56 0 3 0 3.83-.09zm44.5 28.31c-.31-9.2-.67-20.48-.62-27.12h-.14c-1.07 6.64-2.32 13.74-4 22.84l-6.33 33.4h-1.47l-5.93-32.58c-1.7-9.56-3-16.93-3.88-23.66h-.14c0 7.19-.26 17.83-.62 28l-.94 28.21h-2.09l2.18-61.34h2.45L345 36.92c1.38 7.83 2.45 14 3.3 19.93h.09c.8-5.64 1.87-11.65 3.39-19.84l6.68-35.4h2.55l2.05 61.34h-2.1zm33.93-2.19c0 21.66-6.46 32.31-13.42 32.31-7.4 0-13.11-11.92-13.11-31 0-20.12 5.93-32.31 13.47-32.31s13.06 11.98 13.06 31zm-24.34 1.14c0 13.84 3.92 27.58 11.06 27.58s11.1-13.2 11.1-28.39c0-12.93-3.48-27.67-11-27.67s-11.16 14.15-11.16 28.48zm29.12-31.17l10.43 28.39h1.56V1.64h2.05v28.39h1.61L424.8 1.64h2.46L416.38 30.4c5.12.91 6.95 7 8.65 16.2 1 5.46 1.65 11 2.89 16.38h-2.22c-1.07-4.1-1.83-10.47-2.64-14.93-1.69-9.37-3.25-14.74-8.73-14.74h-1.52v29.67h-2.05V33.31h-1.56c-5.53 0-7.09 5.37-8.83 14.74-.8 4.46-1.56 10.83-2.58 14.93h-2.19c1.25-5.37 1.92-10.92 2.9-16.38 1.7-9.19 3.7-15.29 8.7-16.2L396.31 1.64zm47.66 30.85h-12v26.85h13.47v3.64h-15.6V1.64h14.84v3.64h-12.75v23.53h12zm31.39-30.85v3.64h-12.88v20.2a26.3 26.3 0 013.74-.36 9 9 0 017.27 3.55c2.45 2.91 4.1 7.73 4.1 15.11 0 5.64-.85 9.82-2.27 12.92-2.19 4.82-5.8 6.73-9.68 6.73a23.54 23.54 0 01-5.26-.54V1.64zm-12.88 57.79a13.42 13.42 0 003.65.45c2.9 0 5.8-1.91 7.49-5.64a25.57 25.57 0 001.79-10.28c0-5.64-1.16-9.47-3-11.92a7.74 7.74 0 00-6.41-3.23 16.45 16.45 0 00-3.52.46zm18.95-57.79l6.95 28.85c.72 3.28 1.47 6.73 2.19 10.28h.17c.63-3.46 1.25-6.73 2-10.46l5.58-28.67h2.23l-6.81 32.49c-1.52 7.46-3.44 16.84-5.44 22.57-1.92 5-4 7.28-6.07 7.28a3 3 0 01-1.47-.27l.31-3.64a2.17 2.17 0 00.94.18c3.75-.09 5.8-8.19 7.05-13.56a7.64 7.64 0 00-.18-4.19l-9.9-40.86zm30.5 3.64h-9.81V1.64h21.75v3.64h-9.8v57.7h-2.14zm17.12-3.64v30.49c0 9.64 0 16.65-.36 24.93l.09.09c1.47-5.91 3.26-11.55 5.71-19.29l11.68-36.22h2v61.34h-2.1v-31c0-10.2 0-16.84.31-24.39l-.13-.09c-1.52 6.27-3.66 12.74-5.89 19.74l-11.45 35.74h-1.91V1.64zm38.26 0v57.7h11.19V1.64h2.09v57.7h11.15V1.64h2.1v61.34h-28.63V1.64zm35.98 0v28.3h1.56l11.55-28.3h2.45l-11.9 28.67c5.61 1 7.62 7.64 9.36 16.47 1.2 6.1 2 11.19 3.21 16.2h-2.23c-1.11-4.28-2.1-10.1-3-15.11-1.65-8.83-3.83-14.47-9.81-14.47h-1.2v29.58h-2.1V1.64zm22.45 0v61.34h-2.1V1.64zm25.84 0v57.7h2.41l-.23 18h-1.74l-.22-14.38h-19.8l-.17 14.38h-1.79l-.22-18h2.14c1-4.19 2.27-8.56 3-13.47 1.16-7.65 1.56-16.75 1.56-29.12V1.64zm-13.06 17.29c0 11.56-.45 20.57-1.66 28a117.26 117.26 0 01-2.67 12.38h15.25V5.28h-10.92zm39.45-17.29v61.34h-2.14V5.28h-11.81v21c0 11.92.09 28.31-3.92 34.4-.85 1.28-2.41 2.82-3.75 2.82l-.27-3.45a7.39 7.39 0 003-3.19c2.76-5.37 2.85-19.93 2.85-30V1.64zm9.37 0v30.49c0 9.64-.05 16.65-.36 24.93l.09.09c1.47-5.91 3.26-11.55 5.71-19.29l11.68-36.22h2v61.34h-2.1v-31c0-10.2 0-16.84.31-24.39L707 7.5c-1.52 6.27-3.66 12.74-5.89 19.74l-11.44 35.74h-1.92V1.64zm26.4.82a13.83 13.83 0 016-1.27c3.74 0 6.19 1.63 7.89 5a23.62 23.62 0 011.83 10.1c0 6.28-2.19 11.56-5.18 13.74v.19c2.5 1.18 6.34 5.64 6.34 15.65a27.26 27.26 0 01-2.23 11.74c-2 4.18-5.22 5.82-9.46 5.82a23 23 0 01-5.21-.54zm2.09 26.12h4.42c4.32 0 7-5.19 7-12 0-8.65-3.16-11.74-7.62-11.74a8.42 8.42 0 00-3.84.63zm0 30.76a10.49 10.49 0 003.7.45c4.6 0 8.92-3.36 8.92-13.83 0-9.65-4.06-13.83-8.83-13.83h-3.79zm22.48-57.7v30.49c0 9.64-.05 16.65-.36 24.93l.09.09c1.47-5.91 3.25-11.55 5.7-19.29l11.69-36.22h2v61.34h-2.09v-31c0-10.2 0-16.84.31-24.39l-.13-.09c-1.52 6.27-3.66 12.74-5.89 19.74l-11.46 35.74h-1.92V1.64zm51.72 32.22c-.32-9.2-.67-20.48-.63-27.12h-.13c-1.07 6.64-2.32 13.74-4 22.84l-6.34 33.4h-1.47l-5.93-32.58c-1.69-9.56-3-16.93-3.88-23.66h-.13c0 7.19-.27 17.83-.62 28l-.94 28.21h-2.1l2.19-61.34h2.45l6.47 35.31c1.38 7.83 2.45 14 3.3 19.93h.09c.8-5.64 1.87-11.65 3.38-19.84l6.69-35.4h2.54l2 61.34h-2.09zM830.2 1.64v57.7h2.4l-.22 18h-1.74l-.22-14.38h-19.8l-.18 14.38h-1.78l-.22-18h2.14c1-4.19 2.27-8.56 3-13.47 1.16-7.65 1.57-16.75 1.57-29.12V1.64zm-13.1 17.29c0 11.56-.44 20.57-1.65 28a119.83 119.83 0 01-2.67 12.38h15.24V5.28H817.1zm39.46-17.29v61.34h-2.14V5.28h-11.81v21c0 11.92.09 28.31-3.93 34.4-.84 1.28-2.4 2.82-3.74 2.82l-.27-3.45a7.39 7.39 0 003-3.19c2.76-5.37 2.85-19.93 2.85-30V1.64zm4.51 61.34c.35-1.46.71-3 1-4.73 1.34-7.1 2.19-16.39 4.73-21.75a7.08 7.08 0 012.58-3.1v-.18c-4-1.27-6.86-7.19-6.86-15.2 0-5.19.94-9.37 2.54-12.1a8.66 8.66 0 017.85-4.73 16.27 16.27 0 016.29 1.27v60.52h-2.09V34.86h-3.66c-2.18 0-3.74.82-5 3.46-2.18 4.64-3.07 14.28-4.28 20.56-.26 1.46-.53 2.73-.89 4.1zm16-57.43a10.52 10.52 0 00-4.28-.81c-4.33 0-8.16 3.18-8.16 13 0 8.46 3.61 13.56 8.6 13.56 1.56 0 3 0 3.84-.09zm19.22-3.09a13.83 13.83 0 016-1.27c3.75 0 6.2 1.63 7.89 5a23.47 23.47 0 011.83 10.1c0 6.28-2.18 11.56-5.17 13.74v.19c2.5 1.18 6.33 5.64 6.33 15.65a27.26 27.26 0 01-2.23 11.74c-2 4.18-5.22 5.82-9.45 5.82a23.13 23.13 0 01-5.22-.54zm2.1 26.12h4.41c4.33 0 7-5.19 7-12 0-8.65-3.17-11.74-7.63-11.74a8.4 8.4 0 00-3.83.63zm0 30.76a10.49 10.49 0 003.7.45c4.59 0 8.92-3.36 8.92-13.83 0-9.65-4.06-13.83-8.83-13.83h-3.79zm23.99-17.84l-3.7 21.48h-2.19l10.88-61.34h2.05l10.84 61.34h-2.19l-3.79-21.48zm11.23-3.64l-3.65-20.48c-.72-4.27-1.12-7.37-1.56-10.82h-.09c-.45 3.54-.94 6.73-1.56 10.64l-3.7 20.66zm13.38-36.22v57.7h11.21V1.64h2.1v57.7h11.19V1.64h2.09v61.34h-28.69V1.64zm58.45 30.03c0 21.66-6.46 32.31-13.42 32.31-7.4 0-13.1-11.92-13.1-31 0-20.12 5.93-32.31 13.46-32.31s13.06 11.98 13.06 31zm-24.34 1.14c0 13.84 3.92 27.58 11.06 27.58s11.1-13.2 11.1-28.39c0-12.93-3.48-27.67-11-27.67S981.1 18.48 981.1 32.81zm44.32-31.17v3.64h-12.53v57.7h-2.09V1.64zm26.13 30.03c0 21.66-6.46 32.31-13.42 32.31-7.4 0-13.11-11.92-13.11-31 0-20.12 5.93-32.31 13.47-32.31s13.06 11.98 13.06 31zm-24.35 1.14c0 13.84 3.92 27.58 11 27.58s11.11-13.2 11.11-28.39c0-12.93-3.48-27.67-11-27.67s-11.11 14.15-11.11 28.48zm38.26-27.62c2.06-2.91 4.37-4.55 7.09-4.55 4.37 0 7.85 4.82 7.85 14.56 0 7.46-2.81 13.65-6.33 15.29v.18c4.5.82 7.49 6.64 7.49 15.84 0 12.1-4.59 17.47-9.94 17.47a9 9 0 01-7.18-3.82l.8-3.46c1.78 2.18 4.15 3.73 6.42 3.73 5.08 0 7.72-6.1 7.72-13.83 0-10.65-4.86-14-9.32-14h-1.12v-3.48h1.12c4.54 0 8.16-6.28 8.16-13.46 0-7.56-2.5-11.47-6-11.47-2.27 0-4.41 2-6 4.19zm40-3.55v57.7h2.41l-.23 18h-1.74l-.22-14.38h-19.79l-.18 14.38h-1.79l-.22-18h2.14a135.4 135.4 0 003-13.47c1.16-7.65 1.56-16.75 1.56-29.12V1.64zm-13.06 17.29c0 11.56-.45 20.57-1.65 28a119.66 119.66 0 01-2.68 12.38h15.25V5.28h-10.92zm45.12 12.74c0 21.66-6.47 32.31-13.42 32.31-7.4 0-13.11-11.92-13.11-31 0-20.12 5.93-32.31 13.47-32.31s13.06 11.98 13.06 31zm-24.32 1.14c0 13.84 3.92 27.58 11 27.58s11.1-13.2 11.1-28.39c0-12.93-3.47-27.67-11-27.67s-11.1 14.15-11.1 28.48zm29.67-30.44a16.54 16.54 0 016.42-1.18 8.48 8.48 0 017.94 5.18c1.43 2.82 2.32 6.83 2.32 12s-.76 9.19-2.1 12.19c-1.92 4.55-5.17 6.92-8.83 6.92a6.93 6.93 0 01-3.65-.73v26.23h-2.1zm2.1 30.58a7.44 7.44 0 003.83.91c5.35 0 8.61-5.37 8.61-15.11s-3.44-13.94-8.21-13.94a10.88 10.88 0 00-4.23.72zm44.32-1.28c0 21.66-6.47 32.31-13.42 32.31-7.4 0-13.11-11.92-13.11-31 0-20.12 5.93-32.31 13.46-32.31s13.07 11.98 13.07 31zm-24.35 1.14c0 13.84 3.93 27.58 11.06 27.58s11.1-13.2 11.1-28.39c0-12.93-3.47-27.67-11-27.67s-11.16 14.15-11.16 28.48zm29.7-30.35a13.83 13.83 0 016-1.27c3.74 0 6.2 1.63 7.89 5a23.62 23.62 0 011.83 10.1c0 6.28-2.19 11.56-5.17 13.74v.19c2.49 1.18 6.33 5.64 6.33 15.65a27.26 27.26 0 01-2.23 11.74c-2 4.18-5.22 5.82-9.45 5.82a23.13 23.13 0 01-5.22-.54zm2.1 26.12h4.46c4.32 0 7-5.19 7-12 0-8.65-3.16-11.74-7.62-11.74a8.34 8.34 0 00-3.83.63zm0 30.76a10.49 10.49 0 003.7.45c4.59 0 8.91-3.36 8.91-13.83 0-9.65-4.05-13.83-8.83-13.83h-3.78zM1218.76 0l-.56 20.11h-1.42L1216.2 0zm3.52 62.98c.36-1.46.72-3 1-4.73 1.34-7.1 2.19-16.39 4.73-21.75a7 7 0 012.58-3.1v-.18c-4-1.27-6.86-7.19-6.86-15.2 0-5.19.93-9.37 2.54-12.1a8.64 8.64 0 017.84-4.73 16.32 16.32 0 016.29 1.27v60.52h-2.09V34.86h-3.66c-2.18 0-3.74.82-5 3.46-2.18 4.64-3.08 14.28-4.28 20.56-.27 1.46-.53 2.73-.89 4.1zm16.06-57.43a10.52 10.52 0 00-4.28-.81c-4.33 0-8.16 3.18-8.16 13 0 8.46 3.61 13.56 8.6 13.56 1.56 0 3 0 3.84-.09z" fill="#00547f" data-name="Layer 2"/></svg>