<svg xmlns="http://www.w3.org/2000/svg" width="257.87" height="228.78"><g data-name="Layer 2"><path d="M13.53 155.33a83.54 83.54 0 018.47-1.62 15.15 15.15 0 018.22.88c3.49 1.63 5.78 5 7.66 8.21 2.09 3.6 3.76 7.5 6.26 10.85s6.11 5.86 9.45 8.32 6.81 4.9 9.6 8a19.82 19.82 0 014.27 7.11c1.15 3.56 1.26 7.47 1.56 11.17a63.52 63.52 0 00.91 7.49 6.17 6.17 0 01-.88-.55c-2.88-2.18-4.48-5.9-6.16-9s-3.78-7.31-7.56-8.33c-4-1.08-8.37 1-12 2.29-3.07 1.11-6.42 2.41-9.73 1.69a8.63 8.63 0 002 .28c3.66.08 7.3-1.62 10.73-2.71s8-2.43 11.15.22a16.49 16.49 0 013.53 4.74c1 1.83 1.93 3.74 2.92 5.6 1.52 2.83 3.3 5.85 6.35 7.16a21.82 21.82 0 001.07 3.23 12.88 12.88 0 008.14 7.44c7.78 2.48 16.21-.23 23.37-3.38 8-3.54 15.43-8.11 22.82-12.69s14.54-9.19 22.1-13.3 15.09-7.58 22.86-10.92c7.45-3.19 15-6.19 22.42-9.46 3.43-1.52 6.85-3.08 10.14-4.87a64.57 64.57 0 006.89-4.36 85.08 85.08 0 019.64 8.18 81 81 0 0114.41 19.66 121.44 121.44 0 017.81 18.93l5.44-2.08c-1.53-4.32-3.13-8.6-5.07-12.76a98.72 98.72 0 00-8.82-15.28 82.29 82.29 0 00-17.16-17.89 90.8 90.8 0 00-10.41-7c-.92-.53-1.85-1-2.78-1.54 3.17-6.42 6.73-12.62 10.3-18.83 8.28-14.45 16.67-29.44 19.85-46 .29-1.49.53-3 .73-4.49a21.94 21.94 0 016.06-5.72c3-2.13 6.21-4.06 9.17-6.29s6-5 7.48-8.58a15.24 15.24 0 001-8c-1.08-7.33-6.23-13.13-10.63-18.77 3.87 5.16 8.1 10.26 9.81 16.6a15.55 15.55 0 01-.5 9.44c-1 3.13-3.68 5.61-6.2 7.59-3.18 2.51-6.72 4.51-10.09 6.76a29.76 29.76 0 00-5.88 4.76 84.6 84.6 0 00-2.47-30.26 124.09 124.09 0 00-9-23.62 197.36 197.36 0 00-10.6-18.31 197 197 0 0110.35 18.71c6.69 14.11 11.44 29.81 10.88 45.57a78.61 78.61 0 01-1.8 15c-.48 2.12-1.05 4.22-1.69 6.29a20 20 0 01-4.92-3.1 6.31 6.31 0 00-3.55-1.34 14 14 0 00-4.13.27 14.16 14.16 0 00-4.16 1.82c-.43.25-.78.63-1 0a8 8 0 01-.27-1.83 38.23 38.23 0 01.08-6.68c.41-4.2 1.44-8.38 1.51-12.61a98.16 98.16 0 00-.92-12.81c-.24-2.06-.52-4.13-.65-6.2a19.63 19.63 0 010-3c0-.55.12-2 .71-2.3.38-.18 1 .27 1.29.44a5.69 5.69 0 001.19.51 1.61 1.61 0 001.56-.37c.54-.58-.38-1.86-.64-2.46a6.3 6.3 0 01-.28-.72v.21c.22.61.51 1.2.77 1.8s.37.84-.06 1.22a1.41 1.41 0 01-1.17.27 6 6 0 01-1.75-.78c-.63-.34-1.06-.41-1.39.28a9 9 0 00-.52 3.93c.05 3 .46 6 .76 9s.57 6 .6 9c.05 4.3-.91 8.54-1.53 12.78a56.47 56.47 0 00-.52 6.23 16.71 16.71 0 00.33 4.18 1.19 1.19 0 001.92.86 26.39 26.39 0 012.59-1.34 12.49 12.49 0 015.72-.69 5.2 5.2 0 012.62 1c.78.58 1.51 1.23 2.28 1.83a11.54 11.54 0 003.05 1.72 115.14 115.14 0 01-6.57 16c-6.75 13.64-15.43 26.19-22.43 39.7q-2.85-1.47-5.75-2.84c-14.82-7-31.75-14-38.79-30a44.76 44.76 0 01-3.22-12.25c-.92-6.74 3.52-12.91 6.72-18.42 1.9-3.28 4-6.93 3.93-10.84-.06-3.44-1.94-6.4-4.28-8.78-2.89-2.95-6.34-5.29-9.53-7.89a34 34 0 01-7-6.95 16.05 16.05 0 01-2-4.79c-.56-2.06-1-4.16-1.61-6.2-1.07-3.57-3-7.51-6.79-8.78a19 19 0 00-5.91-.68c-2.09 0-4.18.08-6.27 0-3.61-.12-8.53-.8-9.62-4.94a11.88 11.88 0 01.4-5.88c.53-2 1.25-4 1.93-5.93 1.22-3.51 3-8 .93-11.53-1.85-3.15-5.72-4.66-8.91-6S98.37 2.44 96 0c3.87 4.06 9.84 5 14.35 8.16 2 1.34 3.61 3.2 3.82 5.64.26 3-1 6.06-2 8.81-.72 1.93-1.46 3.85-2 5.84a12.75 12.75 0 00-.53 5.94c.81 3.94 4.77 5.45 8.34 5.89 4.07.5 8.23-.07 12.29.61s6.09 4.11 7.2 7.78c.6 2 1 4.06 1.48 6.09.45 1.86.89 4.09 2 5.67a31.32 31.32 0 005.87 6.57c3.11 2.77 6.55 5.19 9.58 8.07 2.41 2.28 4.62 5.06 4.61 8.54A12.84 12.84 0 01159.4 89c-.9 1.84-2 3.58-3.05 5.32-2.16 3.49-4.39 7-5.68 10.92a24.15 24.15 0 00-.12 13.09 55.84 55.84 0 001.64 5.82 41.31 41.31 0 005.94 11c5 6.68 12.05 11.61 19.25 15.66s14.82 7.34 22.08 11.31q4.15 2.28 8.06 4.92a60.35 60.35 0 01-6.77 4.22c-5.68 3.05-11.64 5.56-17.56 8.12q-6.06 2.61-12.11 5.24a28.85 28.85 0 01-6.76-3.75 22.56 22.56 0 01-5.84-6.76c-3.28-5.72-4.25-12.38-5.38-18.78a57.46 57.46 0 00-3.1-11.88 53.71 53.71 0 00-6.49-11.17c-5.14-7-11.17-13.35-16.36-20.33s-9-14.66-14.27-21.48c-4.55-5.91-10.17-11.26-17.12-14.18C88.26 73.12 80 72.55 72 72.31c-3.92-.12-7.84-.13-11.75-.43a37.48 37.48 0 01-9.44-1.83 36.09 36.09 0 008 1.84c3.21.39 6.47.48 9.7.61 6.68.28 13.43.52 20 2.1A37.89 37.89 0 0198 78.21a40.06 40.06 0 019.46 7.44c5.86 6.13 10 13.61 14.33 20.81 4.51 7.46 10.15 14.05 15.56 20.85 5.23 6.56 10.29 13.54 12.25 21.84 1.92 8.15 2.08 16.71 5.65 24.43a26.36 26.36 0 006.66 8.95 28.15 28.15 0 005.65 3.69c-2.33 1-4.66 2.09-7 3.18a232.38 232.38 0 00-22.9 12.47c-7.4 4.58-14.64 9.4-22.1 13.88s-15.2 8.86-23.67 10.83c-6.58 1.52-15.13 1.25-18.87-5.35-2.06-3.65-2.52-8.07-2.92-12.17s-.55-8-1.69-11.87c-1.94-6.49-7.57-10.82-12.83-14.62-2.16-1.56-4.35-3.1-6.42-4.78-.4-2.88 1.22-5.78 3.06-7.89 2.27-2.62 5-4.79 7.24-7.47a9.37 9.37 0 001.82-3.16c.22.46.36 1 .52 1.42s.46 1.46 1.16 1.4a1.46 1.46 0 001.35-1.09 5.2 5.2 0 00.19-1.52 3.43 3.43 0 01.07-1.06c1.81-.46 2.36-1.89 2.64-3.62.14-4.16-1.33-8.29-3.1-12s-5.42-6.55-8.28-9.6a29.63 29.63 0 01-2.12-2.49 8.75 8.75 0 01-1.57-2.39c-.27-.87 1-1.31 1.52-1.74a4.56 4.56 0 001.54-2.08 7.37 7.37 0 00.41-2.83 4.4 4.4 0 00-1.35-2.4c-1-1.23-2-2.42-2.19-4.06a6.71 6.71 0 001.82 3.79 7.21 7.21 0 011.52 2.29 5.39 5.39 0 01-.21 2.58 4.48 4.48 0 01-1.45 2.37c-.57.48-1.56.8-1.89 1.52s.65 2 1.1 2.59c.6.83 1.21 1.64 1.88 2.42 2.69 3.13 6.22 5.82 8.21 9.48a30.91 30.91 0 012.3 5.85 18.27 18.27 0 011 6 5.05 5.05 0 01-.71 2.66 2.12 2.12 0 01-.84.67 2.15 2.15 0 00-.87.26c-.61.49-.2 2.81-.79 3.28-.38-.9-.67-2.7-1.54-3.23a9.15 9.15 0 00-1.66-5.11c-2.31-3.62-5.73-6.45-7.78-10.25a28.62 28.62 0 01-2.06-5.85c-.59-2.09-1.1-4.21-1.56-6.33-.93-4.26-1.6-8.59-2.71-12.81A28.88 28.88 0 0040.4 106c-2.66-3.22-5.65-6.2-7.68-9.89a17.56 17.56 0 01-2.07-11.22 28.38 28.38 0 013.31-9 30.19 30.19 0 00-3.18 7.79 17.56 17.56 0 00.56 9.87c1.44 4 4.19 7.22 6.89 10.37a40.61 40.61 0 013.77 4.89 25.25 25.25 0 012.52 5.7 109.39 109.39 0 012.79 12.68 122.36 122.36 0 003 12.64c1.26 4.09 4.11 7.11 6.75 10.37 2.18 2.71 4.83 6.37 2.85 9.89a20.62 20.62 0 01-3.86 4.48c-1.45 1.39-2.94 2.74-4.29 4.21a19.74 19.74 0 00-1.76 2.28c0-1.21.57-2.51.6-3.68a3.47 3.47 0 00-3.88-3.1c-.7.18-1.39.69-2 .09a7.11 7.11 0 01-.76-1 52.4 52.4 0 01-2.86-5.39c-1.53-3.11-3.25-6-6.36-7.71-3.66-2-7.8-2.1-11.88-2.21-.14 0-1 .09-1.13-.11-.34-.26-.37-.92-.43-1.3-.15-.81-.46-1.85-1.47-1.81s-1 1.47-1.24 2.17a5.55 5.55 0 01-.45 1.13l.09-.12a9.44 9.44 0 00.56-1.45c.26-.8.59-2.24 1.71-1.42.88.65.39 2 1 2.76.29.62 1.87.39 2.4.42 3.95.16 8.1.52 11.45 2.86 2.81 2 4.22 5.06 5.62 8.11a34.31 34.31 0 002.85 5.31 2.12 2.12 0 001.23 1c.75.14 1.4-.31 2.11-.4a2.42 2.42 0 012 1.23 1.69 1.69 0 01.3 1.7c-.31 1.45-.85 3-.32 4.41a8.34 8.34 0 00-1 4.38 37.61 37.61 0 01-2.27-2.1c-2.9-3.06-4.68-7-6.72-10.68-1.86-3.3-4-6.8-7.22-8.94-3.43-2.27-7.55-2.13-11.45-1.48s-7.83 1.88-11.81 2.49c-2.95.45-5.92.59-8.64-.84 4.12 2.19 9.16.9 13.5-.05z" fill="#ea0000" data-name="1"/></g></svg>