<svg xmlns="http://www.w3.org/2000/svg" width="363.66" height="318.71"><g data-name="Layer 2"><path d="M48.79 252c-2.66-.56-5.3-1.22-7.95-1.85l5.24 1.33a54.74 54.74 0 007.53 1.47 13.78 13.78 0 003.63-.06 7.78 7.78 0 003.31-1.43 8.81 8.81 0 002.53-3.58c1.24-2.81 1.93-5.81 3.56-8.48a9.93 9.93 0 013-3.26 9.81 9.81 0 013.62-1.34 5.15 5.15 0 01.23.54c.78 2.18.6 4.57.86 6.83.21 1.73.62 3.7 2.37 4.77 2 1.24 4.86 1.11 7.22 1.11 2.52 0 5.18-.06 7.33 1.25s3.66 3.3 5.9 4.51a4 4 0 003 .49 6.79 6.79 0 002.68-1.78c.85-.85 1.63-1.76 2.45-2.64a10.89 10.89 0 012.72-2.31 3.12 3.12 0 012.14-.32 17.59 17.59 0 012.81.86 16.82 16.82 0 016 4.39c.86.95 1.64 1.93 2.44 2.91a14.24 14.24 0 002.49 2.54 5.44 5.44 0 005.21.62 52.65 52.65 0 006.79-3.43 38.81 38.81 0 017-2.85 18.87 18.87 0 013.33-.66 21.31 21.31 0 012.65 0c5 .18 10.12 1.36 15-.06a37.92 37.92 0 003.88-1.5c1.65-.69 3.3-1.4 5-2a11.42 11.42 0 015-.69 5.31 5.31 0 013.51 2.21 79.278 79.278 0 01-4.3 5.09 58 58 0 01-8.61 7.59 48 48 0 01-13.88 6.9 55.24 55.24 0 01-15.28 2.21c-2.66-.06-5.31-.14-8-.41-2.35-.25-4.68-.6-7-1l-2-.35a91 91 0 0013.59 1.87 62 62 0 007.95 0 57.13 57.13 0 007.72-1.08 49.83 49.83 0 0020.56-10.06c1.51-1.28 3-2.59 4.38-3.94a59.47 59.47 0 004.86-5.33c4.51 6.5 8.91 13.41 9.38 21.15a20.82 20.82 0 01-2.64 11.61 50.1 50.1 0 01-9.35 11.1c-2.69 2.52-5.48 4.94-8 7.55 6.56-6.55 14.68-12.16 18.62-20.36 3.7-7.71 1.74-16.23-2.27-23.54-1.54-2.79-3.31-5.47-5.12-8.14q1.47-1.84 2.86-3.74c2.93-4 5.65-8.05 8.55-12 5.39-7.4 11.55-14.66 20.34-19.29l1.14-.56a40.05 40.05 0 012.89 8 27.63 27.63 0 01.72 7 25 25 0 01-.94 6.7 28.2 28.2 0 01-7 11.88 40.49 40.49 0 01-5.06 4.31 54.54 54.54 0 01-4.69 2.95c1.58-.89 3.16-1.78 4.64-2.8a39.78 39.78 0 005.15-4.2 28.23 28.23 0 007.32-11.63 25.42 25.42 0 001.2-6.78 28.4 28.4 0 00-.46-7 40.37 40.37 0 00-2-6.55 60.17 60.17 0 00-3-6.17c-2.31-4.24-5-8.31-7.45-12.49a66.84 66.84 0 01-3.27-6.28 20 20 0 01-1.49-4.61A26.81 26.81 0 01201 184a22.28 22.28 0 019.16.11c5.23 1.17 9.59 4 14.48 5.82a49.07 49.07 0 0015.32 2.72c4.87.18 9.75 0 14.61-.29.84 0 1.67-.1 2.51-.15a20 20 0 00-2.35 3 8.38 8.38 0 00-1.41 5.9 16 16 0 003.08 6c2.32 3.23 5.31 6.5 5.7 10.4a9.38 9.38 0 01-.92 4.45 59.58 59.58 0 01-3.29 6.21 22.18 22.18 0 00-2.56 6.43c-.45 2.32-.82 4.64-1.14 7-1.19 8.75-1.48 18.09-6.5 26-4.27 6.71-12.51 10.63-20.13 14-4.76 2.12-9.57 4.16-14.15 6.57-1.16.61-2.34 1.24-3.44 1.94l-.23.16a7.41 7.41 0 00-2.46-.9 7.87 7.87 0 00-3.48.33 26.18 26.18 0 00-6.48 3.53 34.83 34.83 0 01-3.39 2 12.67 12.67 0 01-3.55 1c-2.58.41-5.22.46-7.81.87a16.44 16.44 0 00-3.35.84 10.54 10.54 0 00-2.25 1.27 10.67 10.67 0 012.67-1.36 17.24 17.24 0 013.73-.74c2.6-.31 5.25-.3 7.82-.75a12.28 12.28 0 003.61-1.2c1.15-.6 2.23-1.29 3.31-2a21.4 21.4 0 016.37-3.14 6.43 6.43 0 014.69.65 10.67 10.67 0 00-1.59 1.78 40.26 40.26 0 00-3.36 6.09c-2 4.17-4.06 8.53-7.67 11.9a31.13 31.13 0 01-12.35 7.08 21.5 21.5 0 01-9.56.86c4.31.75 8.88-.29 12.78-1.9a29 29 0 0011.58-8.35c3-3.83 4.79-8.25 7.05-12.42 1-1.92 2.25-4.16 4.36-5.37 2.29-1.26 4.58-2.48 7-3.62 4.15-2 8.46-3.7 12.68-5.58a4.28 4.28 0 00.7 1.88c.15.29.5.76.36 1.08a2.61 2.61 0 01-2.29 1.85c-.53.11-1 .31-1 .84a8 8 0 001.06 2.5c1 1.91 2.24 4.1 1.09 6.18a8.78 8.78 0 01-2.21 2.6c-.44.37-.9.73-1.35 1.1s-1.09.72-1.31 1.17.29.83.41 1.2a.87.87 0 01-.78 1c-.48 0-1.06-.44-1.47-.62-.06 0-1.24-.45-1.22-.22 0-.2 1 .15 1.08.18.47.21 1.07.71 1.62.71a1 1 0 00.89-.92c0-.4-.62-.92-.39-1.3a5.08 5.08 0 011.29-1.08c.5-.39 1-.77 1.49-1.18a8.72 8.72 0 002.29-2.65c1.08-2.1 0-4.23-.94-6.2a8.11 8.11 0 01-1-2.49c0-.39.85-.38 1.18-.47a3.08 3.08 0 001.53-1 3.29 3.29 0 00.66-1.16 2 2 0 00-.32-1.25 3.25 3.25 0 01-.63-2.13l.84-.38c4.78-2.2 9.47-4.74 13.17-8.19 5.61-5.23 7.69-12.33 8.87-19.2.8-4.62 1.27-9.28 2-13.9a31.8 31.8 0 011.52-6.78 48.79 48.79 0 013.25-6.14c1.7-3 3.26-6 3-9.36a13.19 13.19 0 00-2.37-5.62c-1.29-2-2.83-3.91-4.14-5.92-1.18-1.8-2.37-3.87-2.08-6a11.31 11.31 0 013.18-5.76c3.29-3.63 7.81-6.55 10.14-10.78 1.54-2.78 1.46-5.94 1-8.93-.61-4.13-1.92-8.19-1.49-12.38.2-2 2.26-3.26 3.93-4.37 1-.69 2.1-1.34 3.06-2.11a4.59 4.59 0 001.75-2.29 6.07 6.07 0 00-1.3-5.32 13.15 13.15 0 00-2.68-2.08c-.8-.52-1.7-1.11-1.91-2-.3-1.27.47-2.77 1.12-3.85a40.4 40.4 0 014.45-5.57 21.43 21.43 0 004-5.85 10.8 10.8 0 00.66-3.5 23 23 0 00-1.11-7.79c-.42-1.39-.94-2.75-1.48-4.1-.27-.68-.55-1.36-.82-2a7.77 7.77 0 01-.56-1.62l.31-.12a8.23 8.23 0 01.86-.19c.69-.13 1.39-.23 2.08-.32 1.34-.18 2.69-.35 4-.55a52.07 52.07 0 007.88-1.68 18 18 0 004.09-1.7 16.4 16.4 0 004.22-4.38A42.45 42.45 0 01304 95.4a9 9 0 011.84-1.52 12 12 0 011.44-.71h.14l.26-.08 1.41-.44a23 23 0 013.72-.82 19.5 19.5 0 017.14.47c2.55.6 5 1.29 7.66 1.65a45.76 45.76 0 007.85.32c4.56-.14 8.94-1.37 13.33-2.33 4.57-1 9.45-2 14.13-1q.39.09.78.21l-3.34-3.74h-.65a36.56 36.56 0 00-7.24.61c-2.55.45-5.05 1.06-7.55 1.65a59.19 59.19 0 01-7.94 1.53c-.32 0-.65.06-1 .09a47.87 47.87 0 01-7.07-.11 56.81 56.81 0 01-7.24-1.41 26.16 26.16 0 00-5.92-.9 23.32 23.32 0 00-6 .71 21.72 21.72 0 00-5.08 1.72 14.77 14.77 0 00-4 3.44c-1.6 1.86-2.82 3.94-4.41 5.81a7.91 7.91 0 01-2 1.86 13.43 13.43 0 01-1.63.76 46.48 46.48 0 01-10.65 2.46c-1.74.25-3.51.43-5.22.84a6.67 6.67 0 00-1.39.46c-1.34-.05-3.47-.16-7-.34-2.57-.13-5.18.09-7.75.09a35.61 35.61 0 01-14.13-3 41.86 41.86 0 01-11.14-7.43 27.21 27.21 0 01-4.64-5.46 48.12 48.12 0 01-3.09-6.07 61.19 61.19 0 00-3.15-6.2 62 62 0 00-4.18-6 20.92 20.92 0 00-1.56-1.85 19.24 19.24 0 00-5.92-3.72c-4.8-2.08-10.06-3.22-15-5a37.81 37.81 0 01-5-2.21 40.36 40.36 0 01-5.15-3.42c-4.06-3.06-7.76-6.6-12.41-9-3.19-1.65-7.56-2.69-11.18-1.44-2.78 1-4.4 3.36-6.76 4.85a16.24 16.24 0 01-4.1 1.81 15.9 15.9 0 01-2.67.63 15.66 15.66 0 01-4.63-.23c-2.45-.45-4.84-1.07-7.31-1.43a27.47 27.47 0 00-3.32-.31c-1.81-3.2-4.76-6-5.57-9.55-.48-2.1.25-4.05 1.19-6s2.2-4 3-6.11c.68-1.87 1-4.09-.52-5.73a4.09 4.09 0 00-1.09-.83 4.48 4.48 0 00-3.43-.11c-2.52.84-4.44 2.58-6.75 3.74a4.2 4.2 0 01-2.46.55 7.67 7.67 0 01-3.09-1.34c-1-.66-2-1.4-3-2.06a6.93 6.93 0 00-2.56-1.2 3 3 0 00-1.22.21c-.62.21-1.22.46-1.82.7a31 31 0 01-3.59 1.23 7.77 7.77 0 01-3.39.24 4.45 4.45 0 01-2.47-1.74c-1.52-1.89-2.29-4.14-3.3-6.24a5.13 5.13 0 00-.77-1.29 1.23 1.23 0 00-1.11-.38 8.6 8.6 0 00-2.26.36 34.31 34.31 0 00-7.2 3.29 65.07 65.07 0 01-7 3.42 19 19 0 01-6.55 1.48c-5.23.05-10.06-1.69-15.07-2.74a25.41 25.41 0 00-3.6-.54 1.78 1.78 0 00-.88-.78c-.51-.27-1-.49-1.55-.76a1 1 0 01.32-.95c.42-.31 1.13-.31 1.46-.72s0-1-.45-1.32c-1-.72-2.31-.93-3.39-1.47a5.24 5.24 0 01-2-2.44A2.78 2.78 0 0043 10.41a18.2 18.2 0 00-3.68.41 14.41 14.41 0 01-7.09-.26 13.25 13.25 0 01-3-1.53c-.83-.57-1.54-1.22-2.31-1.84a7.89 7.89 0 00-2.64-1.12 13.43 13.43 0 01-3.36-1.38 16.34 16.34 0 01-2.57-2.33c-.39-.41-.78-.81-1.2-1.21A5 5 0 0015.8.1c-.49-.22-.9-.07-.78.43s.43 1 .14 1.32-.75-.39-.91-.62-.52-.84-.75-.91c.21.07.63.73.67.8.16.27.58 1.28 1 .75.3-.35 0-1-.11-1.35-.15-.66.57-.47 1-.2a15.44 15.44 0 012.5 2.41 12.24 12.24 0 002.74 2.36 19 19 0 003.36 1.31 10.07 10.07 0 011.56.6 8.89 8.89 0 011.43 1.15 13.42 13.42 0 006.29 3.19 17.52 17.52 0 005.31-.11c1-.14 1.94-.32 2.92-.39a2.36 2.36 0 011.56.27 5.58 5.58 0 011.39 2A4.16 4.16 0 0046.93 15c.82.41 1.74.66 2.58 1.06a1.65 1.65 0 011 .83c.06.17-1.19.54-1.42.71a1.47 1.47 0 00-.55 1.44c0 .52.92.78 1.36 1a3.73 3.73 0 01.88.46h-.94a21 21 0 00-5.46 1.2c-5 1.73-9.15 4.74-14 6.66a16.8 16.8 0 01-7.17 1.34 28.69 28.69 0 01-7.31-1.55c-2.82-.95-5.59-2-8.45-2.91A36.28 36.28 0 000 23.83a34.14 34.14 0 015.61 1c2.24.6 4.4 1.4 6.56 2.19 4.52 1.67 9.63 3.74 14.67 2.7s9.46-4 14.08-6.14c3.3-1.52 7-2.87 10.85-2.54a44.63 44.63 0 017.63 1.62 61.19 61.19 0 007.74 1.65 19.31 19.31 0 006.48-.24A31.73 31.73 0 0081 21.28c2.39-1.19 4.67-2.52 7.09-3.64a13.7 13.7 0 015.46-1.51 8.58 8.58 0 011.16 2.25c.38.89.76 1.77 1.19 2.63.81 1.63 1.84 3.5 3.65 4.46s4 .51 5.85 0c1-.3 2-.67 3-1.05l1.39-.53c.15-.05.88-.37 1-.26h-.06c2 .64 3.51 2.14 5.17 3.21a9.91 9.91 0 002.7 1.3 4.75 4.75 0 002.64.09 10.58 10.58 0 002.76-1.3c1-.56 1.87-1.17 2.83-1.72 1.34-.79 3.65-2.16 5.11-.83s1 3.37.33 5c-.84 2-2 3.89-3 5.84a10.47 10.47 0 00-1.45 5.9 13.75 13.75 0 002.45 5.77c1 1.45 2 2.86 2.93 4.35a13.19 13.19 0 00-1.67.26c-1.88-2.23-4.36-4.11-7.79-4a13.86 13.86 0 00-5.13 1.42c-1.4.64-2.73 1.46-4.14 2.07-4.17 1.81-9.2 1.39-13.78 1.66-.71 0-1.43.07-2.13.16l-.72.08c-.16 0-1.6.3-1.64.25s-.58.21-.58.21a2.87 2.87 0 00-1.07 1.23 14 14 0 00-1 3c-.13.53-.26 1.05-.41 1.58a3.18 3.18 0 01-.51 1.2 2.54 2.54 0 01-2.12-.36c-.88-.77-1.06-2-1.41-3s-.9-2-2.2-1.89a15.52 15.52 0 00-1.92.25 34.48 34.48 0 00-4.71 1.4c-2.53.87-5 1.77-7.67 2.41a26.72 26.72 0 01-7.46.91 19.22 19.22 0 01-4-.59 27.73 27.73 0 01-6.6-3c-2.28-1.29-4.48-2.68-6.83-3.87A21.74 21.74 0 0042 50.48a9 9 0 00-3.69-.06 5.46 5.46 0 00-3 2c-.78.94-1.49 1.92-2.37 2.8a14.76 14.76 0 01-3 2.26 13.4 13.4 0 01-6.14 2.12c-3 .06-5.89-.67-8.83-.88a19.94 19.94 0 00-4.23.11 13.6 13.6 0 00-3.18 1A13.94 13.94 0 0110 59a16.79 16.79 0 013.54-.26 72.42 72.42 0 017.2.82 20.68 20.68 0 003.52.22 9.45 9.45 0 002.88-.67 16.89 16.89 0 006.43-4c1.61-1.66 2.77-4.18 5.57-4.44A13.06 13.06 0 0145 51.84c4.83 2 8.72 5.26 13.49 7.32a18.89 18.89 0 004.35 1.32 21.24 21.24 0 005 .17 37.66 37.66 0 007.62-1.5c2.52-.74 5-1.67 7.5-2.4a18 18 0 013.75-.75c.32 0 .58 0 .8.21a4.21 4.21 0 01.66 1.54 5.89 5.89 0 001.52 3 3.72 3.72 0 003 .74A1.91 1.91 0 0094.24 60c.39-1 .6-2.13.92-3.19a10.75 10.75 0 01.55-1.53 2.18 2.18 0 01.66-.9.61.61 0 01.18-.05h.23l1-.14 1-.11c.79-.08 1.59-.12 2.37-.15 2.59-.1 5.19 0 7.78-.24a19.54 19.54 0 006.32-1.38c1.92-.84 3.67-1.93 5.68-2.63a7.79 7.79 0 015.85 0 8.78 8.78 0 013 2.43 16.44 16.44 0 00-3.58 1.73c-4.18 2.76-6.14 7.05-7.94 11.16-1.34 3.05-2.67 6.2-5.61 8.38-3.4 2.53-7.81 3.78-12 5.1-2.59.82-5.19 1.66-7.71 2.65a16.7 16.7 0 00-5.47 3.52c-.91.85-1.75 1.77-2.66 2.62a5.52 5.52 0 01-3.06 1.77 7.14 7.14 0 01-3.06-.7c-1.07-.39-2.11-.84-3.19-1.22-2.12-.74-4.57-1.23-6.75-.36a5.91 5.91 0 00-2.2 1.43 4.25 4.25 0 00-1 3c0 2.19.71 4.34 1.15 6.48s.7 4.28-1 6-4.56 2.64-6.92 3.68a16.65 16.65 0 00-3.4 1.86 18.54 18.54 0 00-2.06 1.89c-3.52 3.58-6.82 7.35-11.36 10a29.71 29.71 0 01-3.58 1.76 23.17 23.17 0 01-3.62 1.05 24.19 24.19 0 01-6.19.44 57.48 57.48 0 01-7.75-1c-2.48-.51-4.93-1.14-7.41-1.64-.59-.11-1.18-.21-1.78-.3a6.06 6.06 0 00-1.47-.14c-.5 0-.9.68-1.13 1-.36.49-.68 1-1 1.54a17.83 17.83 0 01-1.9 2.87c-.25.28-.81.82-1.21.4a2.67 2.67 0 01-.55-1.46c-.2-1-.25-2.12-.39-3.19a8.07 8.07 0 00-.22-1.43 3.43 3.43 0 00-.49-.91 3.11 3.11 0 01.46.84 8.57 8.57 0 01.27 1.21c.13 1.06.18 2.13.34 3.19a4 4 0 00.42 1.42c.38.62 1 .33 1.41-.09a14.86 14.86 0 002-2.86c.29-.47.59-1 .91-1.41s.67-1.11 1.17-1.15a6.2 6.2 0 011.29.12c.63.11 1.27.22 1.9.35 2.46.51 4.87 1.16 7.33 1.69 4.48 1 9.44 1.69 14 .76a23.82 23.82 0 007.16-2.62 36.54 36.54 0 006.18-4.54c1.9-1.71 3.62-3.57 5.42-5.37a24.83 24.83 0 012.12-2 13.79 13.79 0 013.35-1.82c2.31-1 4.86-1.83 6.79-3.36a6.1 6.1 0 001.9-2.49 6.39 6.39 0 00.2-3c-.25-2.28-1-4.48-1.25-6.76a5.1 5.1 0 01.4-3 3.93 3.93 0 012-1.57 5.5 5.5 0 011.85-.44 14.32 14.32 0 00.2 4.81 36.47 36.47 0 002.31 6.11 19.68 19.68 0 011.9 5.79 6 6 0 01-.15 1.46 19.77 19.77 0 01-.82 3.2 10.81 10.81 0 01-3.92 5.34 18.86 18.86 0 00-2.87 2.27 6.59 6.59 0 00-1.49 2.85 17.14 17.14 0 000 6.58c.33 2.28.83 4.54 1.23 6.81a36.27 36.27 0 01.64 6.73 14 14 0 01-1.34 6.2 22.57 22.57 0 01-7.26 7.93c-2.08 1.52-4.29 2.89-6.49 4.28a37 37 0 00-6.21 4.45c-.87.85-.26 1.9.22 2.77s1.17 1.87.84 2.86a3.7 3.7 0 01-2.09 1.81c-.7.34-1.89-.47-2.45-.77-1.17-.64-2.28-1.35-3.5-1.91a8 8 0 00-1.44-.53 3.26 3.26 0 00-.88-.1h-.3a6.57 6.57 0 01.84 0 6 6 0 011.32.41 27.29 27.29 0 013 1.64c.51.3 1 .61 1.55.88a3.27 3.27 0 001.63.52 1.64 1.64 0 00.5-.17 4.91 4.91 0 001.44-.94 2.32 2.32 0 00.28-2.88c-.4-.84-1.29-1.85-1.12-2.81.08-.49.53-.79.93-1.12s1-.79 1.53-1.18c1-.75 2.11-1.43 3.19-2.1 4.39-2.72 9-5.29 12.42-9a15.4 15.4 0 004.09-8.81c.53-4.55-.58-9.07-1.28-13.56a23.53 23.53 0 01-.36-6.59 7.14 7.14 0 01.94-2.88 8.47 8.47 0 012.49-2.26 15.69 15.69 0 002.89-2.33 11.09 11.09 0 001.89-2.86 18 18 0 001.1-3.14 13.5 13.5 0 00.48-2.34c.18-2.23-.69-4.34-1.56-6.4a43.45 43.45 0 01-2.3-6.15 11 11 0 01-.43-2.84 18.37 18.37 0 01.15-2.1 17.11 17.11 0 013.22 1c1.17.46 2.31 1 3.52 1.37a5.6 5.6 0 003.41.21 8.13 8.13 0 003-1.93c.9-.83 1.72-1.71 2.61-2.54a16.89 16.89 0 013-2.27A21.86 21.86 0 0195 81.5c5.06-1.81 10.38-3 15.24-5.24a16.28 16.28 0 006.11-4.61 28.74 28.74 0 003.37-6.17 41.42 41.42 0 013.28-6.29 14.09 14.09 0 0110.31-6.32 25.92 25.92 0 017.45.73 51.59 51.59 0 007.56 1.4 10.31 10.31 0 003.18-.22 18.53 18.53 0 009.83-4.69A14 14 0 01164 48a8.89 8.89 0 015.38-.55c4.46.72 8 3.64 11.25 6.22 3.48 2.8 6.85 5.79 10.88 8a41 41 0 005.74 2.54c-2.82 0-5.65.09-8.47.27-2.67.17-5.34.36-8 .41-2.13 0-4.27 0-6.4-.17-4.31-.25-8.51-1-12.77-1.54a25.75 25.75 0 00-7.49 0 26.47 26.47 0 00-7.1 2.42 28.1 28.1 0 00-7.02 4.47c-3.7 3.53-6.12 7.88-9.38 11.69a28.71 28.71 0 01-5.15 4.8 25.6 25.6 0 01-4.69 2.49c-4.81 2.06-10.12 3-15.17 4.46-2.32.68-4.89 1.47-6.72 2.93-.91.73-.9 1.78-1.08 2.76-.08.46-.28.86-.88.89a5.18 5.18 0 01-1.83-.36 4.94 4.94 0 01-1.2-.45 1.87 1.87 0 01-.55-1.11 25.1 25.1 0 01-.42-2.85c-.17-1.26-.28-3.39-1.79-4a2.7 2.7 0 011.35 1.92 17.42 17.42 0 01.47 3c0 .51.1 1 .19 1.54a3.06 3.06 0 00.51 1.51 2.12 2.12 0 00.94.49 8.87 8.87 0 001.78.51 1.35 1.35 0 001.38-.35 3.5 3.5 0 00.37-1.55 3 3 0 01.49-1.39 4.67 4.67 0 011.43-1.07 30.09 30.09 0 017.15-2.54c5.07-1.31 10.4-2.26 15.07-4.47a26.2 26.2 0 004.13-2.37 30.08 30.08 0 005.49-5.31c1.61-1.94 3.07-4 4.6-5.94a30.7 30.7 0 014.94-5.4 16.91 16.91 0 012.49-1.67 44.65 44.65 0 015.28-2.61 22.63 22.63 0 017.12-1.71 37.58 37.58 0 017.56.68 108.63 108.63 0 0013 1.47c2.12.08 4.22.12 6.33 0 2.64-.1 5.27-.27 7.91-.39a66.91 66.91 0 0111.5.33l1.46.45a70 70 0 017.49 2.68 14.92 14.92 0 015.22 3.47l.26.3a42.6 42.6 0 012.69 3.63 39 39 0 012.32 3.72c1.18 2.13 2.17 4.32 3.14 6.52a46.49 46.49 0 003.41 6.42 33.2 33.2 0 004.9 5.46 51.56 51.56 0 004.67 3.73 44.49 44.49 0 006.32 3.7 40.14 40.14 0 006.68 2.38 41.34 41.34 0 006.29 1.08 45.48 45.48 0 006.5.06c3.53-.18 6.81 1.48 10 1-1.1.39-2.19.78-3.27 1.22a70.44 70.44 0 00-6.69 3.14 108.45 108.45 0 00-12.42 7.77c-4.34 3.07-8.5 6.34-12.59 9.67a.92.92 0 01-.43-.66c-.14-1 .53-2 .86-3s.46-1.9-.45-2.58a3.9 3.9 0 00-1.3-.57 10.25 10.25 0 00-3.27-.17 8.94 8.94 0 00-3.19-3.78 16.09 16.09 0 00-7-2.23c-2.62-.33-5.28-.37-7.91-.57a20.5 20.5 0 01-5.58-1.13 29.64 29.64 0 01-6.62-3.68c-2.15-1.47-4.21-3-6.45-4.42-.68-.42-1.38-.83-2.08-1.22a6.1 6.1 0 00-2.47-.67c-2.43-.24-5 .19-7.37-.32a4.92 4.92 0 001.16-1.91 6.46 6.46 0 00.1-3.06 32.45 32.45 0 00-2.31-6.42 13.29 13.29 0 01-1-3.3 21.3 21.3 0 01-.07-3.39 23.34 23.34 0 00-.25-6.73 5.4 5.4 0 00-2.37-3.34 6 6 0 012.6 5c.16 2.26-.18 4.51-.22 6.77a11.77 11.77 0 00.36 3.34c.31 1.12.76 2.2 1.18 3.29.78 2 1.68 4.06 1.65 6.18a4.63 4.63 0 01-1.51 3.37 2.31 2.31 0 01-1.18-.94 5.93 5.93 0 01-.47-3.19c.06-1.15.22-2.3.33-3.45a7.09 7.09 0 00-.14-3.27c-.4-1-1.64-1.39-2.79-1.53a13.17 13.17 0 00-3.76.19c-2.61.44-5.14 1.24-7.78 1.54a8 8 0 01-4.93-.72 11.07 11.07 0 01-3.45-3.64c-1.57-2.36-2.86-5-5.38-6.77 3.62 2.59 4.41 7 7.63 9.82a6.4 6.4 0 003.07 1.54 11.8 11.8 0 003.56 0c2.66-.32 5.21-1.09 7.85-1.43a10.06 10.06 0 013.79.06 2.6 2.6 0 011.36.66 2.54 2.54 0 01.42 1.6c.05 2.22-.63 4.4-.56 6.62a4.56 4.56 0 00.68 2.52 4.18 4.18 0 002.78 1.42c2.47.43 5 0 7.51.41a5.08 5.08 0 011.8.69c.92.54 1.82 1.11 2.69 1.7 2.15 1.47 4.18 3.06 6.33 4.53a26.54 26.54 0 006.81 3.6 25.33 25.33 0 005.36 1c3.52.31 7.2.29 10.59 1.3a9.34 9.34 0 014.06 2.27 7.35 7.35 0 011.35 2l-1.9.32a10 10 0 01-3.77.2 2.41 2.41 0 01-.83-.42l-1.41-.91c-2.18-1.41-4.32-2.91-6.57-4.23a1.53 1.53 0 00-.54 0 1 1 0 00-.5.34.44.44 0 00.05.45c.11 1.32-1 2.56-2 3.45a16.52 16.52 0 01-3 2.1 5.64 5.64 0 01-2.8.37c-1.32-.09-2.62-.33-3.93-.53-2.31-.36-5.06-.82-7.25.19a36 36 0 00-5.06 3.19 35.19 35.19 0 01-6.78 3.91 15.46 15.46 0 01-4.15 1.07 18.57 18.57 0 01-6.59-.76c-5.07-1.39-9.47-4-13.93-6.38-.55-.29-1.1-.59-1.69-.83a1.44 1.44 0 00-1.23-.05 23.49 23.49 0 01-2.63 1 10.92 10.92 0 01-6.76-.16 8.88 8.88 0 01-2.81-1.67 5.09 5.09 0 01-1.28-3c-.35-2.22-.19-4.48-.62-6.7a7.43 7.43 0 00-1-2.69c-.23-.35-.51-.73-1-.7a2.46 2.46 0 00-1.21.5c-1.7 1.12-3.32 2.83-5.65 2.82a4.6 4.6 0 01-1.43-.23c-.54-.18-.73-.38-.82-.88a15.74 15.74 0 010-2.83 15.64 15.64 0 000-2.37 3.43 3.43 0 00-.27-1.08c0-.07-.52-.83-.64-.72.11-.11.6.65.63.72a4 4 0 01.27 1.26 22.42 22.42 0 010 2.84c0 .52-.06 1 0 1.56s0 1.08.44 1.4a3.35 3.35 0 001.42.41 4.69 4.69 0 001.79-.12 9.7 9.7 0 003.21-1.7c.54-.39 2.13-1.91 2.88-1.22a5.42 5.42 0 011.29 3 23.58 23.58 0 01.31 3.35c0 1.12.07 2.25.22 3.36a5.74 5.74 0 001.15 3 7.51 7.51 0 002.69 1.83 10.25 10.25 0 003.15.83 14.16 14.16 0 006.76-1.21c.23-.09.48-.26.74-.2a7.28 7.28 0 011.69.8c1.14.61 2.25 1.27 3.37 1.9 4.34 2.42 9.05 4.77 14.21 5.55a15.65 15.65 0 005.29-.11 18.1 18.1 0 005-1.85c2.37-1.23 4.5-2.74 6.7-4.17 1.54-1 3.12-2.16 5.13-2.26 2.57-.13 5.11.6 7.63.9a10.34 10.34 0 003.64-.08 6.59 6.59 0 001.44-.69 13.65 13.65 0 004-3.26 5.3 5.3 0 001-1.95l.86.56 3.26 2.16 2.79 1.85a4.53 4.53 0 002.43.72 31.55 31.55 0 005.39-.61h.15a19.84 19.84 0 012.18-.2 5 5 0 012.25.35c.27.13.36.24.33.52a6.39 6.39 0 01-.55 1.61c-.48 1.19-1 2.6-.15 3.76a2.41 2.41 0 00.42.43c-3.24 2.66-6.45 5.36-9.68 8-7.89 6.55-16 13.15-21.87 21.19-.15.2-.29.41-.43.61a9.09 9.09 0 00-2.92 3c-.33.49-.64 1-.94 1.52a22.44 22.44 0 00-5-3.36c-2.33-1.12-4.82-2-7.27-2.88a22.64 22.64 0 01-6.69-3.48 18.53 18.53 0 01-3.46-4.28 37.26 37.26 0 00-4.93-6.61 16.17 16.17 0 00-3.07-2.34 16.67 16.67 0 00-3.35-1.44 28.12 28.12 0 012.83 1.18 12.51 12.51 0 012.82 2 27.83 27.83 0 014.44 5.66 42 42 0 003.44 5 15.32 15.32 0 005.43 3.7c2.72 1.21 5.6 2.13 8.31 3.36a27.22 27.22 0 013.72 2 18.68 18.68 0 012.48 2 13.71 13.71 0 01-2.72 3.54c-1.91 1.62-4.76 1.13-7.11.66s-4.81-1.26-7.2-.91a15.5 15.5 0 00-5.39 2.25c-2.22 1.32-4.26 2.89-6.63 4a12.35 12.35 0 01-3.81 1.29 9.22 9.22 0 01-3.66-.31 52.27 52.27 0 01-7-2.89c-2.64-1.16-5.52-2.23-8.52-1.58a11.19 11.19 0 016.19.7c2.36.87 4.52 2.07 6.82 3s4.75 1.68 7.27 1a23.17 23.17 0 006.73-3.35 24.66 24.66 0 016.54-3.41 8.21 8.21 0 012.15-.37 17 17 0 013.69.49c2.35.5 4.86 1.29 7.32 1 2.31-.29 3.64-1.87 4.76-3.51 1-1.42 1.77-2.92 2.84-4.29l.32-.4a34.41 34.41 0 00-4.5 10.1 25.58 25.58 0 00-.74 5.87c-.43 0-.86.11-1.28.18-2.47.46-4.8 1.37-7.19 2.06a13.34 13.34 0 01-4.86.72 17.69 17.69 0 01-6.35-2.32 25.27 25.27 0 00-7.15-3c4.78 1 8.14 4.71 13 5.54a10.92 10.92 0 004-.22c2.57-.54 5-1.47 7.57-2a15.77 15.77 0 012.3-.38c0 .5 0 1 .05 1.51a30 30 0 00-4.06 1.42 34.32 34.32 0 00-6.63 3.73 31.34 31.34 0 00-2.78 2.32 11.48 11.48 0 00-5.75-1.24 19.56 19.56 0 00-6.69 1.73c-4.75 2-8.91 4.92-13.34 7.4a39.51 39.51 0 01-13.09 4.94 21.31 21.31 0 01-7.43-.12 18.49 18.49 0 01-6.83-3 29.94 29.94 0 01-4.7-4.12 30.33 30.33 0 004.47 4.13 18.08 18.08 0 006.66 3.08 21.55 21.55 0 007.34.32 33.85 33.85 0 006.65-1.64c4.78-1.64 9-4.34 13.23-6.79a68.92 68.92 0 016.61-3.45 20.93 20.93 0 016.6-1.86 10.86 10.86 0 015.71 1.12c-1 1-2 2-3 3.09-6.63 7.25-12.94 15.58-23.14 19.38a31.66 31.66 0 01-14.16 2.1 26.92 26.92 0 01-12.82-4.82 38.78 38.78 0 01-4.41-3.73 36.69 36.69 0 004.13 3.61 28.3 28.3 0 005.91 3.35 27.75 27.75 0 0013.81 1.71 35.5 35.5 0 0013.93-4.89 56.44 56.44 0 0011.64-10c3.07-3.25 5.94-6.65 9.23-9.74a31.3 31.3 0 019-5.72 29.23 29.23 0 013.92-1.34 27.8 27.8 0 00.43 2.86c.75 3.75 2.76 7.29 4.76 10.64.87 1.45 1.78 2.89 2.7 4.32-.4-.12-.81-.24-1.22-.34a24.8 24.8 0 00-3.67-.56 25.41 25.41 0 00-7.53.91 41.85 41.85 0 00-12.89 6.86c-8.19 6-15 13.21-22.67 19.7a129.51 129.51 0 01-12.22 9.41 53.12 53.12 0 01-14.25 7.06 25.34 25.34 0 01-15.27.1c-.77-.26-1.52-.56-2.26-.89s-1.31-.67-2-1c-1.69-.79-3.44-1.46-5.08-2.33a32.25 32.25 0 01-3.89-2.4 5.83 5.83 0 00.76-2.31c.12-1-.1-2.19.36-3.14a6.41 6.41 0 011.63-1.9 4.79 4.79 0 011.57-.91c.53-.18 1.12-.2 1.64-.39 1.17-.42.37-2 .1-2.73a15.38 15.38 0 00-1.63-3.14 31.29 31.29 0 00-4.81-5.52 141.46 141.46 0 00-12.18-9.73c-4-2.94-8.17-5.88-13.07-7.59l-.26-.09c0-.1.09-.25.1-.34a1.79 1.79 0 000-.61 5.85 5.85 0 00-.56-1.49c-.14-.3-.46-.79-.3-1.13a3.45 3.45 0 01.93-1.26 3.85 3.85 0 011.57-.69c.48-.14 1-.29.92-.83a3.25 3.25 0 00-.76-1.21 13.76 13.76 0 00-1.29-1.36 11 11 0 01-2.38-2.7 4.29 4.29 0 01-.2-3 10.64 10.64 0 011.49-3c.14-.22.29-.44.42-.66 0 0 .15-.19.14-.23 0-.26-.88-.25-1.13-.28s-1-.08-1-.25c-.07.16.69.27.84.29l.78.13a1.42 1.42 0 01.41.08c-1 1.59-2.23 3.05-2.37 4.92a4.11 4.11 0 00.75 2.75A22.65 22.65 0 0079 193a11.35 11.35 0 011 1.19 4 4 0 01.4.69c.09.21 0 .27-.23.33a7.78 7.78 0 00-1.65.54 3.61 3.61 0 00-1.21 1.08 2.69 2.69 0 00-.43.82 1.8 1.8 0 00.23 1.17 10 10 0 01.51 1.28 1.65 1.65 0 010 .94 17.15 17.15 0 00-5-1 27.34 27.34 0 01-3 .1 10.61 10.61 0 01-3-.89 10.79 10.79 0 01-2.62-1.49 23.64 23.64 0 01-2.2-2.16 20.63 20.63 0 00-3.8-3.25 25.08 25.08 0 014.37 4 10.28 10.28 0 002.75 2.31 17.79 17.79 0 003.43 1.34 11 11 0 003.48.15 13.46 13.46 0 013.63.43 29.78 29.78 0 016.9 2.65c4.66 2.44 8.68 5.68 12.72 8.82s8.23 6.33 11.36 10.2a19.41 19.41 0 013 5c.16.42.28.86.42 1.29.07.28.25.82-.16 1s-1 .16-1.4.29a5.06 5.06 0 00-1.45.67 5.55 5.55 0 00-2.64 3.63c-.16 1.42-.06 2.81-.78 4.12a19.92 19.92 0 01-5.18-5.64c-2.41-4.06-2.33-8.87-2.94-13.3a14.48 14.48 0 00-.75-3.3 3.78 3.78 0 00-.83-1.36 7 7 0 00-.74-.58 17.8 17.8 0 00-6.48-2.81c-2.45-.58-5-.83-7.46-1.27a21.92 21.92 0 01-3.71-.94 24.59 24.59 0 01-3.32-1.68 32.21 32.21 0 00-4-1.93 16.48 16.48 0 00-3.89-.93 10.79 10.79 0 00-3.45.25 16.74 16.74 0 00-3.49 1.24 13.06 13.06 0 016.17-1.5 14.86 14.86 0 016 1.57c2.21 1 4.17 2.42 6.48 3.28a42.29 42.29 0 007.46 1.48 26.15 26.15 0 017.26 2.08 16.91 16.91 0 012.61 1.64 4.36 4.36 0 011.41 2.69 59.82 59.82 0 01.83 6.8 28.6 28.6 0 001.4 6.68c1.61 4.38 5.53 7.87 9.89 10.37a56.78 56.78 0 005.66 2.74c1.12.48 2.14 1.12 3.28 1.57a25.33 25.33 0 0015.07 1.08 49.39 49.39 0 0014.7-6.33c8.91-5.4 16.51-12.25 24-19 3.66-3.29 7.33-6.58 11.28-9.61a47.86 47.86 0 0112.53-7.35 21.58 21.58 0 017.49-1.44 22.55 22.55 0 014.1.43c1 .18 2.3.35 3.32.65 1.36 2.12 2.72 4.24 4 6.41.6 1 1.17 2.06 1.7 3.11a48.46 48.46 0 00-4.71 2.68 47.2 47.2 0 00-5.5 4.27 72.43 72.43 0 00-9.58 10.83c-4.13 5.55-7.69 11.46-11.84 17a7 7 0 00-4.61-2.35 15.32 15.32 0 00-6.76 1.28c-2.33.88-4.56 1.95-6.89 2.83a16.57 16.57 0 01-6.08.91c-4.54-.07-9.21-1.12-13.71-.21a32.62 32.62 0 00-7.3 2.58c-2.38 1.13-4.56 2.53-6.92 3.69-1.5.73-3.35 1.44-4.94.52a10.12 10.12 0 01-2.46-2.28c-.8-.94-1.56-1.89-2.38-2.81a19.5 19.5 0 00-5.78-4.59 16.75 16.75 0 00-3.56-1.27 7.15 7.15 0 00-1.46-.22c-2.57 0-4.41 2.42-5.8 4a19 19 0 01-2.55 2.6 2.94 2.94 0 01-2.23.75 6.77 6.77 0 01-3-1.67c-1-.78-1.87-1.6-2.87-2.35a9.56 9.56 0 00-3.11-1.69 13.16 13.16 0 00-3.2-.47c-2.52-.11-5.13.21-7.62-.26a5 5 0 01-2.78-1.36 4.88 4.88 0 01-1-2.19c-.56-2.19-.43-4.47-.8-6.69a6.29 6.29 0 00-1.17-3 4.09 4.09 0 00-1.87-1.21 20.32 20.32 0 00-7.54-.82c-2.69 0-5.36.26-8 .39a71.93 71.93 0 01-7.63.07 36.17 36.17 0 01-7.63-1.24c-4.16-1.15-8.08-2.83-12.13-4.21-3.27-1.11-6.81-2.15-10.35-1.51 4.21-.72 8.41.87 12.2 2.28 4.81 1.79 9.61 3.89 14.82 4.63s10.41.31 15.59.08a42.43 42.43 0 018 .13 10.29 10.29 0 013.22.91 2.78 2.78 0 011 .84 9.92 9.92 0 00-5.39 2.78 16.75 16.75 0 00-3.37 6.17 31.48 31.48 0 01-2.61 6.45 6.16 6.16 0 01-3.09 2.62c-3.01 1.21-6.78.38-9.85-.24zm154.89-69.4a4.67 4.67 0 00-2.26-1.2l-.52-.08a24.4 24.4 0 01.79-5.47 35.15 35.15 0 016.08-11.85c5.87-7.84 13.94-14.21 21.81-20.51s15.47-12.63 23.79-18.35a105.27 105.27 0 0112.23-7.42c2.15-1.08 4.32-2.12 6.59-3a74.9 74.9 0 013.46-1.22c.57 1.39 1.12 2.78 1.55 4.22a22.56 22.56 0 01.94 4.79 14.92 14.92 0 010 2.41 6.23 6.23 0 01-.15 1.29 9 9 0 01-.26 1 14.36 14.36 0 01-1.58 2.83c-1.38 1.93-3.06 3.68-4.55 5.53a14.74 14.74 0 00-3.26 5.68 4.42 4.42 0 00.65 4c1.08 1.36 2.94 2 4.18 3.24a3.75 3.75 0 011.06 2 5.23 5.23 0 01.07 1.12v.69c0 .17-.17.43-.27.56a6.33 6.33 0 01-1.36 1.21c-1 .73-2.07 1.4-3.09 2.12-1.82 1.28-3.73 2.89-3.92 5a22.54 22.54 0 00.12 5.06c.31 2.21.85 4.39 1.27 6.58a18.09 18.09 0 01.38 6.55 11.18 11.18 0 01-2.76 5.37c-1.78 2.06-3.94 3.88-5.94 5.8-4 .29-7.95.56-11.94.7a75.23 75.23 0 01-15.59-.81 34.9 34.9 0 01-7.17-2.06c-2.27-.92-4.44-2-6.69-3A35.73 35.73 0 00210 183a23.68 23.68 0 00-6.32-.4zm-2.78.38v-1.08a4.05 4.05 0 011.86.78h-.2c-.56.1-1.11.19-1.66.32z" fill="#ea0000" data-name="2"/></g></svg>