<svg xmlns="http://www.w3.org/2000/svg" width="257.87" height="228.78"><g data-name="Layer 2"><path d="M244.35 73.45a84.31 84.31 0 01-8.44 1.63 15.15 15.15 0 01-8.22-.89c-3.49-1.63-5.78-5-7.66-8.2-2.09-3.61-3.76-7.5-6.26-10.86s-6.11-5.86-9.45-8.32-6.81-4.9-9.6-8a20 20 0 01-4.27-7.12c-1.15-3.56-1.26-7.46-1.56-11.17A63.1 63.1 0 00188 13a5.33 5.33 0 01.88.54c2.88 2.18 4.48 5.91 6.16 9s3.78 7.31 7.56 8.34c4 1.08 8.37-1 12-2.29 3.07-1.12 6.42-2.41 9.73-1.7a8.62 8.62 0 00-2-.27c-3.66-.09-7.3 1.62-10.73 2.7s-8 2.44-11.15-.22a16.58 16.58 0 01-3.53-4.73c-1-1.84-1.93-3.75-2.92-5.6-1.52-2.84-3.3-5.85-6.35-7.16a22 22 0 00-1.07-3.24A12.84 12.84 0 00178.45 1c-7.78-2.48-16.21.23-23.37 3.38-8 3.53-15.43 8.11-22.82 12.69s-14.54 9.19-22.09 13.3-15.1 7.55-22.87 10.88c-7.45 3.2-15 6.2-22.42 9.47-3.43 1.51-6.85 3.07-10.14 4.86a66.19 66.19 0 00-6.89 4.36 86 86 0 01-9.64-8.17A81 81 0 0123.8 32.1 121.44 121.44 0 0116 13.17l-5.44 2.08c1.53 4.32 3.13 8.6 5.07 12.76a99.29 99.29 0 008.81 15.29A82.74 82.74 0 0041.6 61.19a92.12 92.12 0 0010.41 7c.92.52 1.85 1 2.78 1.54-3.17 6.42-6.73 12.61-10.3 18.83C36.21 103 27.82 118 24.64 134.5c-.29 1.49-.53 3-.73 4.5a22.09 22.09 0 01-6.13 5.78c-3 2.13-6.21 4.05-9.17 6.28s-6 5-7.48 8.59a15.23 15.23 0 00-1 7.95c1.08 7.32 6.23 13.13 10.63 18.76-3.84-5.15-8.07-10.26-9.76-16.59a15.58 15.58 0 01.5-9.45c1-3.13 3.68-5.61 6.2-7.59 3.18-2.5 6.72-4.51 10.09-6.75a30.16 30.16 0 005.89-4.77 84.44 84.44 0 002.46 30.27 124.26 124.26 0 009 23.61 196.06 196.06 0 0010.6 18.31 195.78 195.78 0 01-10.35-18.71c-6.69-14.1-11.39-29.81-10.88-45.56a78.61 78.61 0 011.8-15c.48-2.12 1.05-4.22 1.69-6.3a20.29 20.29 0 014.85 3.17 6.4 6.4 0 003.56 1.35 14.25 14.25 0 004.12-.28 14.14 14.14 0 004.16-1.81c.44-.26.78-.63 1-.05a8.09 8.09 0 01.27 1.83 38.22 38.22 0 01-.08 6.68c-.4 4.2-1.44 8.38-1.51 12.61a98.31 98.31 0 00.92 12.82c.24 2.06.52 4.12.65 6.2a19.63 19.63 0 010 3c0 .55-.12 2-.71 2.29-.38.18-1-.27-1.29-.43a5.24 5.24 0 00-1.19-.52 1.59 1.59 0 00-1.56.38c-.54.57.38 1.86.64 2.45a6.46 6.46 0 01.28.73v-.22c-.22-.61-.51-1.2-.76-1.79s-.38-.85.05-1.23a1.41 1.41 0 011.17-.27 6 6 0 011.75.79c.63.33 1.06.4 1.39-.29a9 9 0 00.52-3.93c-.05-3-.46-6-.76-9s-.57-6-.6-8.94c-.05-4.31.91-8.54 1.53-12.78a56.65 56.65 0 00.52-6.24 16.63 16.63 0 00-.33-4.17 1.19 1.19 0 00-1.92-.87 26.46 26.46 0 01-2.67 1.33 12.49 12.49 0 01-5.72.68 5.11 5.11 0 01-2.62-1c-.78-.58-1.51-1.23-2.28-1.82a11.3 11.3 0 00-3-1.73 115.64 115.64 0 016.57-16c6.72-13.68 15.4-26.23 22.4-39.77 1.9 1 3.82 1.92 5.75 2.84 14.82 7 31.75 14 38.79 30a44.86 44.86 0 013.22 12.25c.92 6.74-3.51 12.91-6.72 18.43-1.9 3.28-4 6.93-3.93 10.84.06 3.43 1.94 6.4 4.28 8.78 2.89 2.94 6.34 5.28 9.53 7.88a34 34 0 017 7 16.16 16.16 0 011.95 4.79c.56 2.06 1 4.16 1.61 6.21 1.07 3.56 3 7.51 6.79 8.78a19 19 0 005.91.67c2.09 0 4.18-.07 6.27 0 3.61.12 8.53.8 9.62 4.94a11.65 11.65 0 01-.4 5.88c-.53 2-1.25 4-1.93 5.93-1.22 3.52-3 8-.93 11.53 1.85 3.15 5.72 4.67 8.91 6s6.41 2.58 8.83 5c-3.87-4.06-9.84-5-14.35-8.15-1.95-1.35-3.61-3.21-3.82-5.65-.26-3 1-6.06 2-8.8.72-1.93 1.46-3.86 2-5.84a12.8 12.8 0 00.53-6c-.81-3.94-4.77-5.44-8.34-5.88-4.07-.51-8.23.07-12.29-.61s-6.09-4.11-7.2-7.79c-.6-2-1-4.06-1.48-6.09-.45-1.86-.89-4.09-2-5.67a31.25 31.25 0 00-5.94-6.53c-3.12-2.78-6.55-5.2-9.58-8.07-2.41-2.29-4.63-5.07-4.62-8.55a12.93 12.93 0 011.61-5.46c.9-1.83 2-3.57 3-5.31 2.16-3.49 4.39-7 5.68-10.93a24 24 0 00.12-13.08 56.67 56.67 0 00-1.63-5.83 41.94 41.94 0 00-6-11c-5-6.68-12-11.6-19.25-15.65s-14.67-7.25-21.93-11.22q-4.15-2.28-8.06-4.93a58.86 58.86 0 016.77-4.21c5.68-3 11.64-5.57 17.56-8.12 4-1.75 8.08-3.48 12.11-5.25a29.49 29.49 0 016.77 3.75 22.79 22.79 0 015.83 6.76c3.29 5.73 4.25 12.38 5.38 18.79a57.46 57.46 0 003.08 11.91 53.64 53.64 0 006.49 11.16c5.14 7 11.17 13.35 16.37 20.34s9 14.65 14.26 21.48c4.55 5.9 10.17 11.25 17.12 14.18 7.52 3.16 15.75 3.74 23.81 4 3.92.11 7.84.13 11.75.42a37.4 37.4 0 019.44 1.83 36 36 0 00-8-1.84c-3.21-.38-6.46-.48-9.7-.61-6.68-.28-13.43-.52-20-2.09a38.3 38.3 0 01-9.55-3.62 40.06 40.06 0 01-9.46-7.44c-5.86-6.13-10-13.6-14.33-20.81-4.51-7.46-10.15-14-15.56-20.84-5.23-6.56-10.29-13.54-12.25-21.84s-2.08-16.71-5.65-24.43a26.49 26.49 0 00-6.66-9 28.77 28.77 0 00-5.64-3.68c2.32-1 4.65-2.1 7-3.19a229.54 229.54 0 0022.91-12.47c7.39-4.58 14.63-9.4 22.09-13.87s15.2-8.87 23.67-10.83C172.52.68 181.07 1 184.81 7.55c2.07 3.66 2.52 8.07 2.92 12.18.38 4 .55 8 1.69 11.86 1.94 6.49 7.57 10.82 12.83 14.63 2.16 1.56 4.35 3.09 6.42 4.77.4 2.89-1.22 5.79-3.06 7.9-2.27 2.62-5 4.78-7.24 7.46a9.47 9.47 0 00-1.82 3.16c-.22-.46-.36-1-.52-1.42s-.46-1.46-1.16-1.4a1.49 1.49 0 00-1.31 1.07 5.26 5.26 0 00-.19 1.53 3.36 3.36 0 01-.07 1c-1.81.46-2.36 1.89-2.64 3.63-.14 4.16 1.33 8.29 3.1 12 1.85 3.85 5.42 6.56 8.28 9.61a29.49 29.49 0 012.12 2.48 9.07 9.07 0 011.57 2.39c.27.87-1 1.32-1.52 1.74a4.71 4.71 0 00-1.54 2.09 7.32 7.32 0 00-.41 2.83 4.43 4.43 0 001.35 2.4c1 1.22 2 2.41 2.19 4.06a6.73 6.73 0 00-1.82-3.75 7 7 0 01-1.52-2.29 5.39 5.39 0 01.21-2.58 4.52 4.52 0 011.45-2.37c.58-.48 1.56-.8 1.9-1.52s-.66-2-1.11-2.59c-.6-.83-1.21-1.64-1.88-2.41-2.69-3.13-6.22-5.82-8.21-9.49a30.4 30.4 0 01-2.3-5.85 18.16 18.16 0 01-1-6 5 5 0 01.71-2.66 2.15 2.15 0 01.84-.68 2 2 0 00.87-.26c.61-.49.2-2.81.79-3.27.38.89.67 2.69 1.54 3.22a9.15 9.15 0 001.66 5.11c2.31 3.63 5.73 6.45 7.78 10.25a28.83 28.83 0 012.06 5.85c.59 2.1 1.1 4.21 1.56 6.33.93 4.27 1.6 8.59 2.71 12.81a28.82 28.82 0 005.42 11.38c2.66 3.22 5.65 6.2 7.68 9.89a17.59 17.59 0 012.07 11.23 28.23 28.23 0 01-3.31 9 30.19 30.19 0 003.18-7.79 17.47 17.47 0 00-.56-9.87c-1.44-4-4.19-7.22-6.89-10.37a40.61 40.61 0 01-3.78-4.89 25.05 25.05 0 01-2.52-5.7 109.23 109.23 0 01-2.79-12.67A121.13 121.13 0 00207.5 89c-1.26-4.1-4.11-7.12-6.75-10.38-2.18-2.7-4.83-6.37-2.85-9.89a20.12 20.12 0 013.87-4.47c1.44-1.39 2.93-2.74 4.28-4.22a20 20 0 001.85-2.28c0 1.22-.58 2.52-.61 3.68a3.47 3.47 0 003.88 3.1c.7-.17 1.39-.69 2-.08a7.11 7.11 0 01.76 1 50.41 50.41 0 012.86 5.39c1.54 3.11 3.25 6 6.36 7.71 3.66 2 7.8 2.1 11.88 2.2.14 0 1-.08 1.13.12.34.25.37.91.43 1.3.15.8.46 1.85 1.47 1.81s1-1.48 1.24-2.18a5.79 5.79 0 01.45-1.13l-.09.12a9.44 9.44 0 00-.56 1.45c-.26.8-.59 2.24-1.71 1.42-.88-.64-.39-2-.95-2.76-.29-.61-1.87-.39-2.4-.41-3.95-.17-8.1-.52-11.45-2.87-2.81-2-4.22-5.06-5.62-8.1a34.41 34.41 0 00-2.85-5.32 2.06 2.06 0 00-1.23-1c-.75-.15-1.4.3-2.11.39-.86.11-1.54-.6-2-1.22a1.71 1.71 0 01-.3-1.71c.31-1.45.85-3 .32-4.41a8.34 8.34 0 001-4.38c.79.67 1.55 1.37 2.27 2.1 2.9 3.06 4.68 7 6.72 10.68 1.86 3.31 4 6.81 7.22 8.94 3.43 2.27 7.55 2.14 11.45 1.48s7.83-1.87 11.81-2.49c3-.45 5.92-.59 8.64.84-4.19-2.21-9.23-.93-13.56.02z" fill="#ea0000" data-name="3"/></g></svg>