<svg xmlns="http://www.w3.org/2000/svg" width="311.93" height="330.82"><g data-name="Layer 2"><path d="M285.67 77.23c2.24.77 4.44 1.65 6.65 2.5-1.46-.58-2.91-1.18-4.37-1.75a40.37 40.37 0 00-6.32-2.1 10.25 10.25 0 00-3.12-.25 6.19 6.19 0 00-3 1.16 8.86 8.86 0 00-2.51 3.34c-1.33 2.69-2.21 5.62-3.87 8.15a9.51 9.51 0 01-2.93 3 7.86 7.86 0 01-3.23 1 5.62 5.62 0 01-.15-.55c-.46-2.24-.07-4.61-.08-6.87 0-1.74-.17-3.74-1.57-5-1.61-1.4-4.05-1.5-6.08-1.7s-4.45-.38-6.17-1.86-2.82-3.59-4.62-5a3 3 0 00-2.5-.74 6 6 0 00-2.47 1.55c-.82.78-1.57 1.62-2.36 2.43a9.55 9.55 0 01-2.55 2.06 2.33 2.33 0 01-1.88.14 12.89 12.89 0 01-2.32-1.09 14.72 14.72 0 01-4.71-4.87c-.64-1-1.22-2-1.81-3.09a13.63 13.63 0 00-1.87-2.69 4.16 4.16 0 00-4.41-1 43.43 43.43 0 00-6.16 2.85 30.86 30.86 0 01-6.32 2.24 13.75 13.75 0 01-2.92.38 14.5 14.5 0 01-2.28-.18c-4.25-.6-8.55-2.2-12.86-1.19a26.84 26.84 0 00-3.48 1.17c-1.48.54-3 1.12-4.5 1.52a8.39 8.39 0 01-4.3.28 4.57 4.57 0 01-2.8-2.49c1.33-1.62 2.71-3.2 4.18-4.7A53.08 53.08 0 01184.1 57a39.44 39.44 0 0112.58-5.7 41.42 41.42 0 0113.32-.91c2.27.28 4.54.57 6.78 1.07 2 .45 3.95 1 5.9 1.59l1.64.51a67.91 67.91 0 00-11.47-3 48.85 48.85 0 00-6.83-.63 45.78 45.78 0 00-6.72.43 38.55 38.55 0 00-12.68 4.39 41.67 41.67 0 00-5.93 3.92 82.367 82.367 0 00-4.14 3.55 57.14 57.14 0 00-4.69 4.9c-3.24-6.85-6.34-14.09-6-21.84a23.45 23.45 0 013.51-11.38 48.86 48.86 0 019.09-10.27c2.55-2.28 5.18-4.46 7.63-6.84-6.26 6-13.77 10.88-17.94 18.71-3.93 7.37-3.07 16-.34 23.61 1.05 2.92 2.3 5.73 3.6 8.54-1 1.14-1.9 2.31-2.81 3.48-2.9 3.71-5.63 7.54-8.51 11.27-5.34 6.92-11.32 13.62-19.31 17.49-.34.17-.69.32-1 .47a43.26 43.26 0 01-1.78-8.15 32.67 32.67 0 01.05-7 29.09 29.09 0 011.46-6.59 29.45 29.45 0 017.16-11.24 36.81 36.81 0 014.75-3.87 47.73 47.73 0 014.35-2.51c-1.44.76-2.88 1.51-4.25 2.4a35.59 35.59 0 00-4.82 3.75 29.08 29.08 0 00-7.41 11 29.51 29.51 0 00-1.69 6.65 33 33 0 00-.28 7 44.42 44.42 0 001.05 6.68 65.32 65.32 0 001.95 6.39c1.57 4.41 3.48 8.69 5.18 13a68.42 68.42 0 012.2 6.52 22.24 22.24 0 01.83 4.72q.09 1.55 0 3.09a16.9 16.9 0 01-7.85-.87c-4.37-1.61-7.83-4.78-11.86-7a36.75 36.75 0 00-12.87-4 114.8 114.8 0 00-12.57-.94c-.72 0-1.44 0-2.16-.06a19.59 19.59 0 002.31-2.82 9.4 9.4 0 001.78-5.75 17.08 17.08 0 00-2-6.27c-1.68-3.42-3.93-6.91-3.89-10.83a10.86 10.86 0 011.22-4.35c1-2.07 2.26-4 3.42-5.91a24.07 24.07 0 002.83-6.19q.9-3.39 1.65-6.84c1.87-8.61 3-17.88 8.1-25.32 4.31-6.33 11.75-9.53 18.62-12.27 4.29-1.72 8.62-3.34 12.77-5.36 1.06-.51 2.13-1 3.14-1.64l.22-.15a5.22 5.22 0 005 1.07 21.81 21.81 0 005.9-3 28.62 28.62 0 013.13-1.7 9.88 9.88 0 013.13-.7c2.26-.19 4.53 0 6.78-.21a12.29 12.29 0 003-.56 8.34 8.34 0 002.05-1.07 8.91 8.91 0 01-2.42 1.13 14.37 14.37 0 01-3.27.43c-2.25.08-4.53-.15-6.78.09a9.42 9.42 0 00-3.21.89c-1 .5-2 1.09-3 1.68a17.54 17.54 0 01-5.77 2.59 4.85 4.85 0 01-4-1 9.89 9.89 0 001.53-1.64 42.4 42.4 0 003.48-5.78c2.15-4 4.3-8.15 7.73-11.21a26.3 26.3 0 0111.28-6 16.18 16.18 0 018.29-.06c-3.63-1.1-7.65-.45-11.15.83a25.51 25.51 0 00-10.84 7.39c-3 3.56-4.91 7.81-7.26 11.77-1.07 1.83-2.32 3.95-4.25 5-2.09 1.07-4.18 2.09-6.32 3-3.75 1.64-7.62 3-11.42 4.5a4.9 4.9 0 00-.42-1.93c-.1-.3-.35-.8-.21-1.11a3.12 3.12 0 01.81-1.15 2.62 2.62 0 011.34-.5c.47-.06.89-.21.91-.75a9 9 0 00-.66-2.58c-.67-2-1.53-4.26-.34-6.23a8.26 8.26 0 012.15-2.41c.41-.33.84-.65 1.26-1a4.39 4.39 0 001.24-1.06c.2-.38-.17-.85-.23-1.22a.84.84 0 01.75-.92c.42 0 .88.52 1.21.74.05 0 1 .54 1 .32 0 .2-.87-.24-.91-.28-.39-.24-.86-.79-1.33-.84s-.85.48-.85.85.45 1 .21 1.32a4.78 4.78 0 01-1.21 1c-.47.34-.94.68-1.4 1a8.94 8.94 0 00-2.22 2.45c-1.12 2-.43 4.21.21 6.25a9.13 9.13 0 01.63 2.57c-.05.38-.77.3-1.07.37a2.57 2.57 0 00-1.39.81 3.32 3.32 0 00-.68 1.1 2.26 2.26 0 00.15 1.28 3.57 3.57 0 01.33 2.17l-.76.3a42.16 42.16 0 00-12.09 7.06c-5.31 4.73-7.78 11.62-9.46 18.36-1.14 4.53-2 9.13-3.09 13.67a36 36 0 01-2 6.62 51.47 51.47 0 01-3.38 5.84c-1.74 2.79-3.38 5.71-3.44 9.07a14.6 14.6 0 001.49 5.79c.92 2.12 2 4.13 3 6.24.84 1.89 1.65 4 1.21 6.14a11.88 11.88 0 01-3.29 5.47c-3.17 3.34-7.34 5.87-9.75 9.89-1.59 2.63-1.82 5.79-1.74 8.8.13 4.16.85 8.31.08 12.44-.36 1.92-2.25 3.06-3.79 4-1 .6-1.93 1.17-2.83 1.85a4.49 4.49 0 00-1.68 2.14 6.75 6.75 0 00.6 5.4 11.7 11.7 0 002.09 2.3 3.69 3.69 0 011.45 2.16 6.43 6.43 0 01-1.34 3.73 40.59 40.59 0 01-4.35 5.18 21.75 21.75 0 00-4 5.49 12.25 12.25 0 00-.9 3.42 26.55 26.55 0 00.19 7.86c.23 1.41.54 2.81.88 4.2.17.7.33 1.39.5 2.09a8.32 8.32 0 01.33 1.65l-.28.1c-.25 0-.5.09-.76.12-.6.07-1.21.11-1.82.14l-3.5.21a39.33 39.33 0 00-6.91 1 14.14 14.14 0 00-3.68 1.35 15.67 15.67 0 00-4 4 43.59 43.59 0 01-3.6 4.3 8.21 8.21 0 01-1.74 1.37 10 10 0 01-1.29.58h-.14l-.22.06-1.25.32a16.6 16.6 0 01-3.27.51 14.47 14.47 0 01-6.09-1.07 62.55 62.55 0 00-6.41-2.28 34.49 34.49 0 00-6.7-1c-3.92-.24-7.8.62-11.66 1.21-4 .61-8.29 1.19-12.21-.24-.25.04-.47-.06-.68-.16l2.5 4 .56.09a27.39 27.39 0 006.27 0c2.23-.23 4.43-.63 6.64-1a45.2 45.2 0 017-.86h.84a34.35 34.35 0 016.06.7 42.31 42.31 0 016.07 2 19.77 19.77 0 005 1.39 17.25 17.25 0 005.17-.21 16.55 16.55 0 004.53-1.29 13.72 13.72 0 003.79-3.08c1.55-1.72 2.79-3.69 4.35-5.41a7.08 7.08 0 011.93-1.69 11 11 0 011.46-.62 35.9 35.9 0 019.38-1.56 40.89 40.89 0 004.55-.4 5.52 5.52 0 001.25-.34c1.14.16 3 .45 6 .92 2.19.35 4.44.35 6.65.56a27.17 27.17 0 0111.84 4.15 36.18 36.18 0 018.83 8.32 27.15 27.15 0 013.45 5.82 53.89 53.89 0 012.06 6.3 63.73 63.73 0 002.11 6.44 59.81 59.81 0 003 6.32 17.82 17.82 0 001.16 2 16.46 16.46 0 004.71 4.2c3.92 2.47 8.32 4 12.38 6.26a29.93 29.93 0 014.07 2.61 37.11 37.11 0 014.09 3.84c3.18 3.39 6 7.22 9.77 10 2.57 1.91 6.22 3.31 9.44 2.37 2.48-.73 4.11-3 6.27-4.26a13.28 13.28 0 013.7-1.46 12.1 12.1 0 012.34-.41 11.92 11.92 0 014 .62c2 .65 4 1.47 6.13 2a22.92 22.92 0 002.81.58c1.25 3.33 3.5 6.36 3.86 10a10.12 10.12 0 01-1.6 5.84c-1.06 1.94-2.28 3.81-3.17 5.84-.76 1.8-1.29 4-.1 5.74a3.87 3.87 0 00.84.92 3.39 3.39 0 002.94.4c2.25-.63 4.06-2.2 6.15-3.16a3.16 3.16 0 012.17-.34 6.19 6.19 0 012.52 1.58c.82.75 1.57 1.56 2.39 2.31a5.67 5.67 0 002.07 1.4 2.16 2.16 0 001.07-.1c.55-.16 1.09-.36 1.63-.54a22.49 22.49 0 013.2-.93 5.82 5.82 0 012.93 0 3.88 3.88 0 012 1.94 32.11 32.11 0 012.23 6.49 5.27 5.27 0 00.53 1.35 1 1 0 00.92.47 6.86 6.86 0 002-.17 28.08 28.08 0 006.5-2.67 52.2 52.2 0 016.3-2.82 14 14 0 015.76-.93c4.49.38 8.47 2.52 12.66 4a18.75 18.75 0 003 .84 1.58 1.58 0 00.68.85c.41.31.85.58 1.25.89a1.06 1.06 0 01-.36.91c-.39.28-1 .22-1.32.6a1 1 0 00.26 1.36c.74.79 1.89 1.11 2.75 1.74a5.1 5.1 0 011.48 2.6c.31.8.73 1.69 1.67 1.85a13.21 13.21 0 003.2-.1 9.34 9.34 0 018.47 2.63c.66.63 1.21 1.34 1.81 2a6.39 6.39 0 002.15 1.34 10.37 10.37 0 012.75 1.65 14.81 14.81 0 012 2.54c.3.43.6.87.91 1.3a4.55 4.55 0 001.07 1.16c.4.26.76.14.71-.36s-.27-1 0-1.34.6.46.72.71c0 .08.37.87.55 1-.17-.09-.46-.78-.49-.86-.12-.27-.38-1.32-.81-.83-.29.33-.07 1 0 1.36.06.67-.54.42-.85.12a14.51 14.51 0 01-1.92-2.61 11.14 11.14 0 00-2.11-2.58 15.14 15.14 0 00-2.77-1.58 8.47 8.47 0 01-1.28-.73 7.89 7.89 0 01-1.12-1.26 11 11 0 00-5.08-3.7 13 13 0 00-4.56-.34c-.85.06-1.7.16-2.55.14a1.78 1.78 0 01-1.31-.39 5.59 5.59 0 01-1-2.14 4 4 0 00-1.38-2c-.66-.48-1.42-.81-2.11-1.27a1.54 1.54 0 01-.75-.91c0-.17 1.07-.43 1.29-.59a1.6 1.6 0 00.61-1.38c0-.53-.71-.86-1.07-1.1a3.63 3.63 0 01-.71-.53q.4 0 .81.06a16.3 16.3 0 004.8-.74c4.44-1.31 8.31-4 12.67-5.46a12.59 12.59 0 016.28-.74 22 22 0 016.12 2.15c2.33 1.18 4.59 2.5 7 3.61a28.19 28.19 0 006.2 2.05 25.67 25.67 0 01-4.71-1.45c-1.87-.79-3.64-1.76-5.42-2.73-3.72-2-7.9-4.53-12.32-3.91s-8.5 3.2-12.67 4.93c-3 1.24-6.32 2.27-9.56 1.62a35.63 35.63 0 01-6.39-2.24 44.78 44.78 0 00-6.47-2.29 14.39 14.39 0 00-5.58-.31 24.78 24.78 0 00-6.6 2.15c-2.16 1-4.25 2.12-6.43 3a10.69 10.69 0 01-4.83 1.05 8.58 8.58 0 01-.77-2.34c-.24-.91-.49-1.82-.77-2.72-.54-1.68-1.24-3.63-2.7-4.74s-3.4-.84-5-.47c-.91.21-1.8.5-2.69.8-.41.13-.82.28-1.23.4-.15.05-.8.31-.89.18-1.64-.81-2.8-2.42-4.13-3.63a8.27 8.27 0 00-2.19-1.52 3.51 3.51 0 00-2.25-.3 8.41 8.41 0 00-2.5 1c-.87.47-1.72 1-2.59 1.48-1.23.66-3.34 1.83-4.46.39s-.53-3.43.2-5c.9-1.92 2.09-3.7 3.12-5.56a11.94 11.94 0 001.81-5.75 15.08 15.08 0 00-1.54-5.95c-.69-1.53-1.48-3-2.09-4.57a8.78 8.78 0 001.45-.12c1.4 2.37 3.35 4.45 6.3 4.6a11 11 0 004.54-1c1.27-.52 2.48-1.23 3.75-1.72 3.75-1.45 8-.61 12-.5.62 0 1.24.05 1.85 0h.62a11.28 11.28 0 011.43-.11c0 .05.52-.16.52-.16a2.58 2.58 0 001-1.14 15.65 15.65 0 00.97-2.81c.16-.52.32-1 .5-1.53a3.38 3.38 0 01.56-1.16 1.93 1.93 0 011.81.59c.69.84.72 2.12.92 3.14s.59 2.05 1.7 2.07a11.61 11.61 0 001.67-.09 27.06 27.06 0 004.18-1 66.71 66.71 0 016.81-1.76A19.94 19.94 0 01253 267a14.18 14.18 0 013.39.92 22.9 22.9 0 015.37 3.51c1.83 1.48 3.58 3.05 5.48 4.43a17.74 17.74 0 004.66 2.54 6.94 6.94 0 003.16.37 4.82 4.82 0 002.74-1.78c.76-.87 1.46-1.79 2.3-2.59a12.63 12.63 0 012.76-2 10.58 10.58 0 015.57-1.56c2.54.19 5 1.16 7.48 1.61a14.37 14.37 0 003.64.24 10.35 10.35 0 002.83-.68 11.26 11.26 0 01-2.21.59 12.45 12.45 0 01-3 0 55.6 55.6 0 01-6.1-1.42 15.18 15.18 0 00-3-.51 7.3 7.3 0 00-2.53.42 14.43 14.43 0 00-5.91 3.43c-1.53 1.52-2.77 3.93-5.2 3.95a9.91 9.91 0 01-4.89-1.64c-3.95-2.35-7-6-10.86-8.41a14.62 14.62 0 00-3.61-1.67 14.93 14.93 0 00-4.3-.59 27.8 27.8 0 00-6.68.85c-2.24.52-4.43 1.25-6.67 1.76a14.37 14.37 0 01-3.26.44c-.27 0-.5 0-.66-.28a4.57 4.57 0 01-.42-1.59 6.36 6.36 0 00-1-3.07 2.87 2.87 0 00-2.48-1c-.83.05-1.19.62-1.5 1.35-.44 1-.73 2.07-1.1 3.09a10.74 10.74 0 01-.62 1.48 2.12 2.12 0 01-.66.84.27.27 0 01-.16 0h-.19l-.84.06h-.86c-.68 0-1.37 0-2.05-.05-2.23-.11-4.46-.38-6.69-.4a14.8 14.8 0 00-5.56.84c-1.72.67-3.34 1.61-5.12 2.14a5.84 5.84 0 01-5-.44 7.9 7.9 0 01-2.35-2.66 13 13 0 003.24-1.43c3.86-2.4 6-6.5 7.9-10.44 1.44-2.93 2.89-6 5.62-7.88 3.16-2.23 7.06-3.1 10.75-4.07 2.31-.6 4.62-1.22 6.87-2a14.15 14.15 0 005-3c.86-.78 1.67-1.62 2.54-2.39a4.57 4.57 0 012.79-1.5 5.5 5.5 0 012.56.94c.87.49 1.72 1 2.61 1.49 1.75.91 3.8 1.61 5.76.93a5.06 5.06 0 002-1.25 4.69 4.69 0 001.14-2.85 35.11 35.11 0 00-.36-6.55c-.16-2.09-.18-4.31 1.45-5.86s4.16-2.25 6.29-3.09a14.3 14.3 0 003.1-1.56 18.64 18.64 0 001.95-1.71c3.36-3.27 6.56-6.75 10.71-9.05a24.08 24.08 0 013.24-1.45 18.7 18.7 0 013.21-.75 18.17 18.17 0 015.36.09 41 41 0 016.54 1.67c2.08.71 4.12 1.54 6.2 2.24.5.17 1 .32 1.5.46a4.88 4.88 0 001.25.26c.43 0 .84-.6 1.06-.9.36-.46.68-1 1-1.45a18.27 18.27 0 011.91-2.7c.24-.26.78-.75 1.08-.3a3.08 3.08 0 01.33 1.5c.06 1.07 0 2.14 0 3.21 0 .42 0 .86.07 1.28a3.72 3.72 0 00.33 1 3.69 3.69 0 01-.31-.87c-.05-.41-.06-.83-.07-1.25 0-1.07.06-2.14 0-3.21a4.42 4.42 0 00-.22-1.44c-.26-.65-.82-.41-1.22 0a15.67 15.67 0 00-2 2.68c-.29.45-.59.9-.91 1.33s-.69 1.05-1.12 1.05a4.08 4.08 0 01-1.09-.23c-.54-.16-1.07-.32-1.6-.51-2.06-.71-4.07-1.56-6.12-2.29-3.75-1.33-7.94-2.47-12-1.93a19 19 0 00-6.39 2 32.08 32.08 0 00-5.79 4c-1.81 1.55-3.46 3.25-5.17 4.89a24.26 24.26 0 01-2 1.78 11.27 11.27 0 01-3 1.54c-2.08.81-4.35 1.41-6.15 2.78A6 6 0 00255 225a7.32 7.32 0 00-.47 3c0 2.28.44 4.54.42 6.83a5.94 5.94 0 01-.64 3 3.56 3.56 0 01-1.82 1.39 4.24 4.24 0 01-1.63.28 16.5 16.5 0 00.22-4.91 39.77 39.77 0 00-1.38-6.28 21.82 21.82 0 01-1.07-5.93 7.07 7.07 0 01.27-1.43 24.81 24.81 0 011-3.13 10.89 10.89 0 013.88-5 16.09 16.09 0 002.68-2 7 7 0 001.56-2.71 19.8 19.8 0 00.65-6.55c-.06-2.29-.27-4.58-.39-6.88a42.27 42.27 0 01.1-6.75 16 16 0 011.75-6.06 21.78 21.78 0 017-7.29c1.93-1.33 4-2.51 6-3.71a32.65 32.65 0 005.74-3.91c.83-.78.41-1.87.08-2.78a4.11 4.11 0 01-.44-2.92 3.36 3.36 0 012-1.62c.64-.28 1.59.62 2 1 .94.73 1.83 1.53 2.82 2.19a5.71 5.71 0 001.19.65 2.28 2.28 0 00.74.17h.26a2.79 2.79 0 01-1.81-.59 20.9 20.9 0 01-2.42-1.88c-.41-.35-.82-.7-1.25-1a2.52 2.52 0 00-1.35-.65 1 1 0 00-.44.13 4 4 0 00-1.33.81 2.6 2.6 0 00-.52 2.84c.26.87.93 2 .69 2.89-.12.48-.53.74-.9 1s-.95.71-1.43 1c-.95.66-1.95 1.25-2.95 1.83-4 2.34-8.25 4.51-11.52 7.9a16.64 16.64 0 00-4.36 8.43c-.89 4.48-.38 9.07-.22 13.6a27.41 27.41 0 01-.33 6.59 6.38 6.38 0 01-3.44 4.82 15.17 15.17 0 00-2.7 2.08 11.79 11.79 0 00-1.9 2.69 21.12 21.12 0 00-1.25 3 17.62 17.62 0 00-.64 2.29 15.63 15.63 0 00.72 6.5 47 47 0 011.38 6.31 12.54 12.54 0 01.09 2.87 20.73 20.73 0 01-.33 2.07 12.66 12.66 0 01-2.67-1.22c-1-.55-1.89-1.16-2.89-1.65a4.15 4.15 0 00-2.9-.49 6.88 6.88 0 00-2.74 1.67c-.84.75-1.64 1.55-2.48 2.3a15.45 15.45 0 01-2.8 2 17.41 17.41 0 01-3.28 1.2c-4.51 1.38-9.2 2.17-13.59 3.94a14.54 14.54 0 00-5.68 4.08 31 31 0 00-3.49 5.86 43.77 43.77 0 01-3.43 6c-2.19 3-5.6 5.44-9.46 5.43a19.33 19.33 0 01-6.31-1.36 40.32 40.32 0 00-6.32-2 7.7 7.7 0 00-2.75-.05 16.66 16.66 0 00-6.09 1.86 18.15 18.15 0 00-2.79 2 12.8 12.8 0 01-2.54 1.85 6.67 6.67 0 01-4.66.1c-3.76-1.09-6.55-4.29-9-7.13-2.71-3.08-5.31-6.34-8.56-8.9a32.31 32.31 0 00-4.67-3c2.42.27 4.86.38 7.29.44s4.62.08 6.92.26c1.83.14 3.66.41 5.47.7 3.67.61 7.2 1.71 10.81 2.6a19.07 19.07 0 006.42.66 21 21 0 006.33-1.82 23.62 23.62 0 006.5-3.87c3.51-3.2 6-7.33 9.18-10.85a26.58 26.58 0 014.89-4.34 20.79 20.79 0 014.26-2.09c4.32-1.65 9-2.12 13.44-3.17a16.15 16.15 0 006-2.35c.85-.65 1-1.71 1.19-2.67.12-.44.33-.83.85-.81a4.19 4.19 0 011.53.51 4 4 0 011 .56 1.86 1.86 0 01.37 1.15 27.43 27.43 0 01.08 2.87c0 1.26-.08 3.39 1.15 4.18a2.73 2.73 0 01-1-2 21 21 0 01-.11-3v-1.55a3.54 3.54 0 00-.29-1.55 1.7 1.7 0 00-.76-.56 7.52 7.52 0 00-1.48-.66 1.07 1.07 0 00-1.22.23 4 4 0 00-.47 1.52 3.38 3.38 0 01-.58 1.26 4.05 4.05 0 01-1.33 1 23.72 23.72 0 01-6.39 1.93c-4.46.88-9.13 1.38-13.35 3.19a21.29 21.29 0 00-3.77 2 28.55 28.55 0 00-5.23 4.83c-1.57 1.79-3 3.69-4.52 5.53a29.86 29.86 0 01-4.76 5 16.17 16.17 0 01-2.3 1.45 36 36 0 01-4.78 2.15 17.45 17.45 0 01-6.27 1.11 27.74 27.74 0 01-6.42-1.31 81.36 81.36 0 00-11-2.55c-1.81-.25-3.61-.46-5.43-.56-2.27-.13-4.54-.17-6.82-.28a50.81 50.81 0 01-9.83-1.28l-1.21-.58a54.24 54.24 0 01-6.16-3.29 12.74 12.74 0 01-4.14-3.89c-.07-.11-.14-.21-.2-.32-.7-1.17-1.36-2.57-2-3.84s-1.15-2.57-1.63-3.89c-.8-2.22-1.44-4.48-2.06-6.76a48.63 48.63 0 00-2.3-6.67 32.28 32.28 0 00-3.67-5.85 52.5 52.5 0 00-3.64-4.1 37.68 37.68 0 00-5.07-4.2 30.08 30.08 0 00-10.79-4.53 34.65 34.65 0 00-5.61-.61c-3-.12-5.7-2-8.52-1.88 1-.29 2-.59 2.93-.93a61.48 61.48 0 006-2.57 95.09 95.09 0 0011.41-6.69c4-2.7 7.9-5.61 11.73-8.58a1 1 0 01.31.7 7.9 7.9 0 01-1 2.89 2.34 2.34 0 00.13 2.6 3 3 0 001.07.68 7.68 7.68 0 002.78.44 8.93 8.93 0 002.38 4 12.55 12.55 0 005.74 2.79c2.22.55 4.49.81 6.73 1.23a15.28 15.28 0 014.67 1.59 25.17 25.17 0 015.33 4.21c1.7 1.65 3.31 3.39 5.1 4.94.55.48 1.1.94 1.67 1.39a4.82 4.82 0 002 .88c2.07.43 4.29.22 6.29.93a5.07 5.07 0 00-1.18 1.8 7.48 7.48 0 00-.38 3 35.45 35.45 0 001.36 6.58 14.85 14.85 0 01.51 3.37 25.52 25.52 0 01-.27 3.38 27.09 27.09 0 00-.44 6.72 5.5 5.5 0 001.79 3.6 6.36 6.36 0 01-1.74-5.24c.08-2.27.59-4.48.84-6.73a13.41 13.41 0 000-3.35c-.16-1.14-.44-2.26-.7-3.37a19.2 19.2 0 01-.81-6.29 5 5 0 011.62-3.23 2 2 0 01.92 1 6.7 6.7 0 01.1 3.21c-.16 1.14-.41 2.27-.62 3.4a8.4 8.4 0 00-.19 3.27 2.69 2.69 0 002.24 1.76 9.79 9.79 0 003.24.12c2.29-.21 4.53-.8 6.83-.88a6 6 0 014.16 1.13 10.56 10.56 0 012.6 3.91c1.12 2.48 2 5.25 4 7.19-2.85-2.88-3.11-7.3-5.59-10.41a5.39 5.39 0 00-2.49-1.8 8.72 8.72 0 00-3-.31c-2.31.1-4.57.64-6.88.77a7.58 7.58 0 01-3.24-.38 2.12 2.12 0 01-1.1-.77 2.84 2.84 0 01-.2-1.63c.17-2.21 1-4.32 1.12-6.54a5.13 5.13 0 00-.34-2.57 3.44 3.44 0 00-2.25-1.64c-2.08-.63-4.31-.44-6.4-1a4.14 4.14 0 01-1.48-.83c-.74-.62-1.45-1.26-2.14-1.92-1.7-1.64-3.29-3.4-5-5a22 22 0 00-5.49-4.15 18.7 18.7 0 00-4.5-1.42c-3-.6-6.16-.89-9-2.18a7.84 7.84 0 01-3.26-2.6 7.49 7.49 0 01-1-2.06l1.66-.15a7.61 7.61 0 013.26.11 2.15 2.15 0 01.67.49l1.12 1c1.74 1.59 3.43 3.26 5.23 4.77a1.29 1.29 0 00.47 0 .85.85 0 00.46-.3.54.54 0 000-.45c0-1.32 1.14-2.47 2.08-3.27a14 14 0 012.79-1.83 4.11 4.11 0 012.43-.13c1.13.2 2.22.54 3.32.85 1.95.55 4.27 1.23 6.24.42a31.11 31.11 0 004.65-2.76 30.53 30.53 0 016.19-3.33 11.83 11.83 0 013.67-.71 13.82 13.82 0 015.57 1.31c4.22 1.8 7.75 4.73 11.34 7.51a13.94 13.94 0 001.36 1 1.1 1.1 0 001.06.16 21.13 21.13 0 012.34-.73 8.24 8.24 0 015.79.73 7.48 7.48 0 012.25 1.9 5.55 5.55 0 01.81 3.09c.08 2.25-.28 4.48-.12 6.73a7.8 7.8 0 00.62 2.77c.16.36.37.76.82.78a2 2 0 001.08-.4c1.56-1 3.12-2.54 5.12-2.34a3.33 3.33 0 011.2.35.92.92 0 01.62.95 17.8 17.8 0 01-.25 2.82 20.67 20.67 0 00-.19 2.35 4.48 4.48 0 00.13 1.1c0 .08.37.88.49.77-.12.11-.46-.7-.48-.77a4.56 4.56 0 01-.11-1.28 27 27 0 01.3-2.82c.07-.51.14-1 .18-1.54s.1-1.08-.24-1.43a2.59 2.59 0 00-1.18-.53 3.52 3.52 0 00-1.55 0 8 8 0 00-2.89 1.38c-.49.34-2 1.72-2.58 1a5.85 5.85 0 01-.82-3.12 29 29 0 01.06-3.36c.07-1.12.16-2.24.13-3.36a6.37 6.37 0 00-.68-3.1 6.55 6.55 0 00-2.14-2 7.84 7.84 0 00-2.62-1.09 10.77 10.77 0 00-5.91.64c-.21.07-.44.22-.65.14a6.43 6.43 0 01-1.38-.93c-.91-.71-1.8-1.46-2.71-2.18-3.49-2.77-7.3-5.51-11.65-6.71a11.62 11.62 0 00-4.54-.34 14.6 14.6 0 00-4.45 1.44 67.43 67.43 0 00-6.15 3.58c-1.42.88-2.88 1.89-4.62 1.82-2.21-.08-4.32-1-6.46-1.53a7.71 7.71 0 00-3.13-.22 5.32 5.32 0 00-1.3.56 12.54 12.54 0 00-3.75 2.91 5.68 5.68 0 00-1.07 1.86l-.68-.63-2.57-2.48-2.22-2a3.43 3.43 0 00-2-.92 22.91 22.91 0 00-4.68.16h-.13a13.25 13.25 0 01-1.89 0 3.83 3.83 0 01-1.9-.53.47.47 0 01-.23-.55 7.28 7.28 0 01.63-1.56c.53-1.14 1.14-2.5.49-3.73a2.76 2.76 0 00-.32-.46c3-2.38 6.06-4.79 9.08-7.19 7.41-5.86 15-11.75 20.82-19.27l.43-.57a8.71 8.71 0 002.8-2.77c.33-.46.64-.94 1-1.43a19.56 19.56 0 004 3.76 68 68 0 006 3.47 19.3 19.3 0 015.41 4 18.65 18.65 0 012.55 4.55 37.17 37.17 0 003.58 7 15.18 15.18 0 002.41 2.59 13.76 13.76 0 002.73 1.71 25.12 25.12 0 01-2.31-1.42 10.76 10.76 0 01-2.22-2.25 27.46 27.46 0 01-3.26-6 43 43 0 00-2.47-5.28 13.16 13.16 0 00-4.3-4.13c-2.21-1.44-4.59-2.59-6.8-4a22.42 22.42 0 01-3-2.33 17 17 0 01-1.93-2.22 13.38 13.38 0 012.67-3.29c1.8-1.46 4.2-.74 6.17-.07s4 1.66 6.08 1.5a12.22 12.22 0 004.84-1.78c2-1.13 3.94-2.53 6.08-3.47a9.51 9.51 0 013.13-.84 6.78 6.78 0 013.1.62 40.51 40.51 0 015.76 3.46c2.16 1.37 4.52 2.68 7.16 2.29a8.43 8.43 0 01-5.24-1.23c-1.94-1.05-3.68-2.42-5.56-3.57s-3.91-2.08-6.13-1.66a19 19 0 00-6.1 2.77 20.47 20.47 0 01-5.94 2.85 6 6 0 01-1.88.19 13 13 0 01-3.12-.8c-2-.69-4-1.69-6.18-1.59s-3.31 1.57-4.42 3.1c-1 1.34-1.81 2.76-2.86 4-.1.13-.21.25-.31.37a37.29 37.29 0 004.84-9.67 29.7 29.7 0 001.2-5.78 8.32 8.32 0 001.12-.08 60.84 60.84 0 006.36-1.44 10 10 0 014.24-.31 13.73 13.73 0 015.22 2.84 20.38 20.38 0 005.85 3.58c-4-1.38-6.53-5.37-10.6-6.6a8.19 8.19 0 00-3.45-.11c-2.25.32-4.43 1-6.68 1.4a12.31 12.31 0 01-2 .18q.06-.75.09-1.5a24 24 0 003.63-1.08 29 29 0 006.05-3.16 27.77 27.77 0 002.6-2.07 8.91 8.91 0 004.81 1.71 15.06 15.06 0 005.92-1.16c4.26-1.63 8.12-4.16 12.15-6.26a31.47 31.47 0 0111.71-3.82 15.77 15.77 0 016.36.74 14.9 14.9 0 015.58 3.53 27 27 0 013.57 4.54 27.64 27.64 0 00-3.43-4.49 14.61 14.61 0 00-5.41-3.62 16.1 16.1 0 00-6.27-.93 26 26 0 00-5.86 1.08c-4.26 1.23-8.12 3.57-12 5.65a58.12 58.12 0 01-6 2.88 16 16 0 01-5.84 1.3 8.26 8.26 0 01-4.79-1.59c1-.9 1.92-1.86 2.85-2.83C172 116.73 178.18 109 187.29 106a23.84 23.84 0 0112.36-.91 21.45 21.45 0 0110.53 5.91 34.94 34.94 0 013.41 4.08 32.51 32.51 0 00-3.19-3.94 23.23 23.23 0 00-4.74-3.82 20.89 20.89 0 00-11.66-2.88 27.91 27.91 0 00-12.42 3.71 51.23 51.23 0 00-11 9c-2.95 3-5.74 6.13-8.87 8.93a26.6 26.6 0 01-8.31 4.93 20.88 20.88 0 01-3.48 1c0-1 0-1.92-.1-2.88-.27-3.79-1.66-7.48-3-11-.61-1.53-1.25-3-1.89-4.53l1 .44a18.5 18.5 0 003.1.86 18.74 18.74 0 006.55-.28 34.78 34.78 0 0011.76-5.73C175 103.6 181.52 97 188.7 91.17a116.68 116.68 0 0111.43-8.33A43.71 43.71 0 01213 77a19 19 0 0113.11 1.17c.64.33 1.24.69 1.85 1.07s1.06.78 1.6 1.15c1.38.92 2.81 1.74 4.14 2.74a27.44 27.44 0 013.1 2.72 6.54 6.54 0 00-.88 2.23 10.66 10.66 0 01-.61 3.09 6.37 6.37 0 01-1.53 1.83 4.2 4.2 0 01-1.44.78c-.47.13-1 .1-1.44.24-1 .33-.51 2-.36 2.72a16.47 16.47 0 001.1 3.26 29.84 29.84 0 003.59 5.89 125.3 125.3 0 009.51 10.7c3.1 3.26 6.43 6.54 10.47 8.65l.22.11c0 .1-.1.25-.12.33a2.14 2.14 0 000 .62 6.68 6.68 0 00.34 1.52c.09.31.32.83.15 1.15a3.66 3.66 0 01-.92 1.18 3.18 3.18 0 01-1.42.55c-.42.1-.92.2-.86.75a3.29 3.29 0 00.52 1.27 14.4 14.4 0 001 1.46 10.75 10.75 0 011.77 2.89 4.78 4.78 0 01-.12 3 11.38 11.38 0 01-1.56 2.81l-.43.62s-.14.18-.14.22c0 .26.73.32.95.38s.82.15.84.33c.08-.16-.57-.33-.7-.37l-.65-.19a1.18 1.18 0 01-.35-.11c1-1.5 2.21-2.85 2.51-4.69a4.6 4.6 0 00-.37-2.81 23.27 23.27 0 00-1.77-2.74 9.18 9.18 0 01-.76-1.28 4.37 4.37 0 01-.28-.71c0-.22 0-.27.24-.31a6.2 6.2 0 001.46-.4 3.23 3.23 0 001.14-1 3 3 0 00.46-.79 2.08 2.08 0 00-.09-1.18 11.86 11.86 0 01-.31-1.31 1.79 1.79 0 01.05-.94 13.06 13.06 0 004.24 1.36 18.67 18.67 0 012.59.16 8.19 8.19 0 012.44 1.12 9.31 9.31 0 012.18 1.71 22.68 22.68 0 011.68 2.34 18.73 18.73 0 002.91 3.55 23.55 23.55 0 01-3.37-4.32 9.41 9.41 0 00-2.18-2.52 14.29 14.29 0 00-2.8-1.69 8.34 8.34 0 00-3-.44 9.9 9.9 0 01-3.08-.73 23.48 23.48 0 01-5.62-3.24c-3.76-2.82-6.9-6.38-10.06-9.84s-6.44-7-8.75-11.1a20.18 20.18 0 01-2.1-5.22c-.1-.44-.16-.88-.23-1.32s-.14-.84.22-.93.83-.08 1.23-.18a4.08 4.08 0 001.31-.54 5.51 5.51 0 002.61-3.39 12 12 0 011.08-4 19.45 19.45 0 013.9 6c1.66 4.24 1.13 9 1.23 13.48a16.39 16.39 0 00.31 3.35 4.12 4.12 0 00.59 1.42 7 7 0 00.58.64 14.43 14.43 0 005.28 3.34c2.05.78 4.19 1.24 6.28 1.88a17.27 17.27 0 013.09 1.26 20.29 20.29 0 012.68 1.94 27.75 27.75 0 003.25 2.26 12.71 12.71 0 003.25 1.25 8.12 8.12 0 003 0 13.13 13.13 0 003.12-1 10 10 0 01-5.44 1 11.36 11.36 0 01-5-2.06c-1.8-1.2-3.34-2.76-5.24-3.81a31.75 31.75 0 00-6.26-2.09 20.41 20.41 0 01-6-2.68 15.2 15.2 0 01-2.08-1.85 4.62 4.62 0 01-.94-2.79 67.86 67.86 0 01-.06-6.84 32.6 32.6 0 00-.55-6.76c-1-4.5-4-8.3-7.48-11.16a47 47 0 00-4.61-3.16c-.91-.58-1.72-1.29-2.66-1.84a19.06 19.06 0 00-12.82-2.34 39.88 39.88 0 00-13.23 5.08c-8.16 4.63-15.34 10.81-22.44 16.9-3.45 3-6.92 5.94-10.6 8.62A40.4 40.4 0 01157 112.7a16.13 16.13 0 01-6.57.81 17.38 17.38 0 01-3.47-.77 24 24 0 01-2.79-.93c-1-2.22-1.92-4.44-2.78-6.71-.42-1.07-.8-2.15-1.16-3.23a42.11 42.11 0 004.3-2.28 41.41 41.41 0 005.13-3.79 70.59 70.59 0 009.27-10c4.08-5.19 7.71-10.77 11.81-16a5.84 5.84 0 003.72 2.73 11.65 11.65 0 005.92-.71c2.09-.68 4.1-1.57 6.19-2.24a12.47 12.47 0 015.3-.4c3.89.44 7.79 1.88 11.74 1.35a25.21 25.21 0 006.51-2c2.15-.93 4.16-2.14 6.3-3.09 1.35-.6 3-1.16 4.28-.1a9.33 9.33 0 011.89 2.47c.6 1 1.16 2 1.77 3a17.46 17.46 0 004.52 5 12.84 12.84 0 002.93 1.55 4.73 4.73 0 001.22.35c2.22.19 4-2 5.36-3.49a18.3 18.3 0 012.45-2.22 2.28 2.28 0 012-.56 5.65 5.65 0 012.42 1.91c.76.86 1.45 1.75 2.23 2.58a8.06 8.06 0 002.51 2 9.72 9.72 0 002.7.72c2.15.32 4.42.23 6.51.91a4 4 0 012.25 1.58 5.46 5.46 0 01.69 2.26c.26 2.23-.07 4.49 0 6.73a7 7 0 00.71 3.12 3.51 3.51 0 001.48 1.35 15.32 15.32 0 006.4 1.45c2.31.17 4.62.19 6.93.28a55.31 55.31 0 016.55.57 27.24 27.24 0 016.43 1.87c3.45 1.49 6.65 3.49 10 5.2 2.69 1.38 5.63 2.71 8.72 2.37-3.67.37-7.13-1.57-10.24-3.29-3.95-2.18-7.86-4.67-12.27-5.84S278 96 273.51 95.8a31.93 31.93 0 01-6.82-.8 8 8 0 01-2.69-1.18 2.4 2.4 0 01-.78-.92 8.24 8.24 0 004.78-2.33 18.14 18.14 0 003.49-5.86 34.12 34.12 0 012.85-6.2 5.65 5.65 0 012.91-2.35c2.75-.96 5.86.18 8.42 1.07zm-139.58 56.13a3.85 3.85 0 001.82 1.37l.44.13a27.48 27.48 0 01-1.21 5.38 37.32 37.32 0 01-6.36 11.3c-5.8 7.31-13.33 13-20.7 18.6s-14.49 11.27-22.18 16.27a88.58 88.58 0 01-11.21 6.37 60.25 60.25 0 01-6 2.42c-1 .34-2 .64-3.08.93-.36-1.44-.69-2.87-.92-4.33a25.43 25.43 0 01-.35-4.85 19.28 19.28 0 01.22-2.4 6.81 6.81 0 01.26-1.27c.09-.24.17-.67.31-1a15.59 15.59 0 011.63-2.68c1.37-1.81 3-3.41 4.45-5.13a15.5 15.5 0 003.34-5.37 5 5 0 00-.17-4c-.8-1.44-2.33-2.24-3.27-3.56a3.94 3.94 0 01-.72-2.07 5.9 5.9 0 010-1.11c0-.18.05-.35.08-.52s0-.25 0-.16c0-.18.19-.42.29-.54a6 6 0 011.28-1.09c.94-.65 1.92-1.22 2.86-1.85 1.69-1.13 3.48-2.56 3.85-4.68a25 25 0 00.38-5c0-2.23-.29-4.44-.44-6.66a21.09 21.09 0 01.3-6.54 12 12 0 012.9-5.12c1.72-1.9 3.75-3.53 5.65-5.28 3.44 0 6.88.11 10.31.31a55.74 55.74 0 0113.29 2.1 27.64 27.64 0 016 2.65c1.85 1.11 3.61 2.37 5.44 3.51a28 28 0 006.06 3 17.82 17.82 0 005.45.87zm2.42-.15c0 .36-.06.71-.1 1.07a3.27 3.27 0 01-1.51-.93h.18c.48-.03.92-.08 1.43-.14z" fill="#ea0000" data-name="4"/></g></svg>