<svg width="536" height="146" fill="none" xmlns="http://www.w3.org/2000/svg"><path opacity=".7" d="M453.26 139.617c45.537-2.993 80.494-35.217 78.078-71.975-2.416-36.759-41.289-64.13-86.826-61.138-45.537 2.992-80.494 35.217-78.078 71.975 2.415 36.758 41.289 64.13 86.826 61.138z" fill="url(#paint0_radial)"/><path opacity=".7" d="M91.2 138.532c45.537-2.993 80.494-35.217 78.078-71.976-2.415-36.758-41.289-64.13-86.826-61.137C36.915 8.41 1.958 40.636 4.374 77.394c2.416 36.758 41.29 64.13 86.826 61.138z" fill="url(#paint1_radial)"/><path d="M154.48 116.69l-.15-.06.15.06zm7.49-37.4c-.367.265-.702.57-1 .91l-.45.45c-.11.1-.34.35-.54.33a2.905 2.905 0 01-.48-.14 8.797 8.797 0 01-.69-.27c-.9-.36-1.77-.78-2.66-1.15a13.93 13.93 0 00-5.27-1.32 9.792 9.792 0 00-2.92.44c-.947.305-1.859.71-2.72 1.21-.86.49-1.65 1-2.47 1.57-.32.21-.654.397-1 .56a5.43 5.43 0 01-1.4.43 12.2 12.2 0 00-2.84.73c-.364.175-.677.44-.91.77a2.497 2.497 0 00-.31 1.1c-.06.65 0 1.32 0 2 .01.193.01.387 0 .58a1.766 1.766 0 01-.38 1.08 1.57 1.57 0 01-.86.43c-.245.04-.495.04-.74 0 .115-.361.192-.733.23-1.11v-.05a4.993 4.993 0 000-.67 14.363 14.363 0 00-.41-2.41 6.993 6.993 0 01-.28-2.26 1.87 1.87 0 01.17-.52c.06-.15.13-.31.2-.46a24.886 24.886 0 003.83-2.53c.466-.359.95-.692 1.45-1a19.73 19.73 0 00-1 .6c-1.1.76-2.14 1.6-3.3 2.3a10.16 10.16 0 01-1 .53c.1-.19.2-.38.31-.57a4.19 4.19 0 011.9-1.66c.439-.172.864-.38 1.27-.62.333-.244.601-.567.78-.94.328-.762.502-1.58.51-2.41v-2.58c.01-.847.1-1.69.27-2.52a5.167 5.167 0 011-2.17 8.754 8.754 0 013.36-2.37c.91-.4 1.85-.74 2.79-1.09a14.259 14.259 0 002.7-1.18c.4-.24.24-.67.13-1a1.31 1.31 0 01-.1-1.11 1.41 1.41 0 01.93-.51c.29-.07.68.31.87.47.4.32.76.66 1.19.95.153.12.321.222.5.3h.11a3.202 3.202 0 01-.45-.24 11.789 11.789 0 01-1-.82c-.17-.15-.34-.3-.52-.44a1.417 1.417 0 00-.58-.31.49.49 0 00-.21 0 1.846 1.846 0 00-.62.23.848.848 0 00-.32 1c.09.33.35.77.21 1.11-.07.17-.26.25-.44.34-.18.09-.44.22-.67.32-.45.2-.91.37-1.38.54a22.625 22.625 0 00-5.4 2.37 5.752 5.752 0 00-2.23 2.93 18.315 18.315 0 00-.55 5.06 8.375 8.375 0 01-.37 2.44 2.489 2.489 0 01-.58 1c-.32.29-.699.508-1.11.64-.448.172-.877.39-1.28.65a4.06 4.06 0 00-.94.91 7.24 7.24 0 00-.66 1.06l-.22.48c-.15.06-.29.13-.44.18a23.61 23.61 0 01-2.32.65c-.83.2-1.66.38-2.48.6a9.06 9.06 0 00-1.66.58 2.805 2.805 0 000-.29c.029-.2.001-.405-.08-.59-.06-.11-.2-.17-.32-.25a4.248 4.248 0 00-.64-.32.561.561 0 00-.55 0c-.124.16-.213.343-.26.54a1.103 1.103 0 01-.3.45 1.81 1.81 0 01-.63.28c-.949.258-1.927.396-2.91.41-1 .05-2 .07-2.93.12l-.06-.44a15.985 15.985 0 01-.37-2.06c-.056-.315.008-.64.18-.91a4.69 4.69 0 01.64-.71 8.092 8.092 0 012-1.25 13.43 13.43 0 002.13-1.1c.62-.45 1.09-1 1.67-1.53a4.8 4.8 0 011.66-1c.154-.05.311-.09.47-.12a3.27 3.27 0 00-.7.18c-.39.163-.759.37-1.1.62-.353.284-.687.591-1 .92a8.93 8.93 0 01-.85.78c-.315.232-.65.436-1 .61-.71.35-1.46.64-2.15 1a5.704 5.704 0 00-1.71 1.39l-.17.24a1.328 1.328 0 00-.13.47 4 4 0 00.08 1c.1.61.24 1.22.34 1.85a17.717 17.717 0 00-3 .39l-.64.18c.06-.19.12-.37.2-.56a20.319 20.319 0 012.51-4 26.708 26.708 0 013-3.7 9.434 9.434 0 011.85-1.39 4.993 4.993 0 011.07-.45 3.453 3.453 0 001-.35 5.84 5.84 0 00.91-.71 3.02 3.02 0 00.62-.92l.3-.55c-.066.09-.126.183-.18.28-.133.29-.29.567-.47.83a3.652 3.652 0 01-.68.68 3.457 3.457 0 01-.82.52c-.302.093-.609.17-.92.23a5.574 5.574 0 00-1.44.73c-.07-.07-.07-.22-.08-.28-.01-.06 0-.28 0-.42a.555.555 0 000-.36 1.39 1.39 0 00-.21-.21 1.101 1.101 0 00-.47-.2 2.503 2.503 0 00-.55 0c-.08 0-.11 0-.1-.07.01-.082.031-.163.06-.24.052-.153.119-.3.2-.44a9.51 9.51 0 00.48-1c.11-.28.11-.59 0-.87a3.503 3.503 0 00-1.17-1.23l.12-.06.22-.1c.05 0 .27-.12.23-.16-.04-.04-.23.14-.28.16-.05.02-.33.1-.32.18l.06.06.19.15c.279.204.526.45.73.73.178.264.253.584.21.9a3.634 3.634 0 01-.47 1 3.074 3.074 0 00-.27.51.925.925 0 00-.12.42c0 .17.2.16.35.16a1.21 1.21 0 01.54.07c.153.061.29.157.4.28.08.09 0 .26 0 .36-.02.16-.02.32 0 .48.006.066.023.13.05.19a.774.774 0 01.06.09l-.07.05a15.359 15.359 0 00-3.27 3.37 44.008 44.008 0 00-2.81 3.93 9.785 9.785 0 00-.91 1.94 6.92 6.92 0 00-.9.33c-.896.404-1.736.922-2.5 1.54-.76.59-1.47 1.23-2.2 1.84a11.795 11.795 0 01-2.29 1.62 6.84 6.84 0 01-1.08.42c-.72.237-1.455.427-2.2.57a9.483 9.483 0 01-2.44.14c-.45-.18-.91-.35-1.36-.54-2.92-1.23-5.66-2.73-8.69-3.76a13.568 13.568 0 00-4.56-.86c-.803.008-1.6.143-2.36.4a7.056 7.056 0 00-1 .45l-.29-.15c.11-.37.22-.74.32-1.11a10.53 10.53 0 00.47-3.54 8.723 8.723 0 00-.14-.87c.44-.03.88-.03 1.32 0 1.128.113 2.229.41 3.26.88 1.29.61 2.47 1.35 3.7 2a18.207 18.207 0 004.45 1.9c1.531.38 3.123.444 4.68.19a8.9 8.9 0 004-1.72 9.168 9.168 0 001.49-1.5c.341-.45.649-.925.92-1.42a11.63 11.63 0 01-1 1.48 8.46 8.46 0 01-3.45 2.54 10.311 10.311 0 01-4.49.64c-3.44-.21-6.12-2.09-8.8-3.63-.39-.22-.78-.44-1.19-.64a3.62 3.62 0 011.63-.83 6.309 6.309 0 011.89-.06c-.087.38-.123.77-.11 1.16a2.002 2.002 0 00.68 1.43 2.201 2.201 0 01-.6-2c.023-.185.056-.369.1-.55h.22c.78.102 1.555.245 2.32.43 1.517.418 3.07.69 4.64.81.725.036 1.452.003 2.17-.1.18 0 .34-.09.52-.13.113.22.24.435.38.64a5.973 5.973 0 01-.36-.65 6.996 6.996 0 001.66-.61 5.551 5.551 0 001.73-1.49 8.618 8.618 0 001-1.6 8.554 8.554 0 01-1 1.63 5.659 5.659 0 01-1.8 1.47 6.726 6.726 0 01-1.56.55 13.208 13.208 0 00-1.35-2.94 2.52 2.52 0 00-1.05-.79 4.5 4.5 0 00-1.35-.27c-1-.08-2.07 0-3.1-.06a4.11 4.11 0 01-1.43-.3 1 1 0 01-.47-.34.921.921 0 010-.59c.334-.177.65-.388.94-.63.61-.48 1.16-1 1.79-1.48a5.64 5.64 0 01.75-.45 6.4 6.4 0 00-1.37.91 16 16 0 01-1.88 1.47l-.21.11c.15-.8.56-1.54.7-2.34a1.3 1.3 0 00-1-1.7c-.91-.34-1.91-.38-2.82-.71a1.94 1.94 0 01-.64-.38c-.31-.27-.6-.54-.89-.82-.44-.44-.86-.89-1.29-1.34a7.365 7.365 0 01.66-1.5c.183-.31.408-.593.67-.84.239-.214.489-.414.75-.6a5.07 5.07 0 00-.88.72 5.41 5.41 0 00-.72.95c-.212.39-.39.799-.53 1.22-.24-.25-.47-.5-.72-.74a9.88 9.88 0 00-2.31-1.82 9.67 9.67 0 00-2-.75 21.718 21.718 0 01-3.93-1.26l-.23-.13a3.62 3.62 0 011.7.21l1.36.38c.19.17.37.35.56.51a.67.67 0 00.2 0 .4.4 0 00.22-.09.17.17 0 000-.17 6.282 6.282 0 001.68.1 5.062 5.062 0 001.62-.44 9.215 9.215 0 001.37-.79h.16a5.24 5.24 0 002.77.47c.744-.208 1.47-.476 2.17-.8a13.845 13.845 0 012.88-.93 6.108 6.108 0 011.66-.09 7.398 7.398 0 012.44.77c1.726.933 3.34 2.06 4.81 3.36.185.154.379.298.58.43a.583.583 0 00.46.11 9.883 9.883 0 011.07-.16 4.36 4.36 0 012.56.56c.361.213.68.491.94.82.222.358.314.782.26 1.2 0 .84-.27 1.65-.28 2.5-.011.363.054.724.19 1.06.06.15.14.31.34.33a.92.92 0 00.49-.09 4.21 4.21 0 012.37-.62 1.9 1.9 0 01.52.19c.19.11.25.19.25.38-.037.34-.107.674-.21 1a5.35 5.35 0 00-.16.87v.12a1.082 1.082 0 010-.18c.055-.337.128-.671.22-1 0-.19.1-.38.14-.57a.607.607 0 00-.06-.54 1.375 1.375 0 00-.51-.26c-.223-.07-.456-.1-.69-.09-.469.05-.927.181-1.35.39-.23.1-.95.54-1.19.24a2.006 2.006 0 01-.26-1.21c.017-.42.064-.837.14-1.25.07-.41.14-.83.17-1.25a2.081 2.081 0 00-.2-1.19 3.072 3.072 0 00-.89-.87 4.005 4.005 0 00-1.13-.53 5.699 5.699 0 00-2.66-.06.511.511 0 01-.3 0 3.369 3.369 0 01-.58-.41l-1.14-.95a16.427 16.427 0 00-5-3.08 6.357 6.357 0 00-2-.35 7.61 7.61 0 00-2 .31c-1 .28-1.92.68-2.87 1a4.24 4.24 0 01-2.12.45 8.314 8.314 0 01-1.62-.46 18.092 18.092 0 002.06-1.82c.29-.28.56-.57.85-.85a1.97 1.97 0 01.44-.38.39.39 0 01.24 0 4.73 4.73 0 002.17-.24c.32-.13.616-.308.88-.53a2.27 2.27 0 00.65-.77c.12-.32.145-.667.07-1-.06-.34-.15-.68-.24-1a6.878 6.878 0 01-.22-1 1.64 1.64 0 01.12-1c.16-.27.79 0 1 .1.36.14.743.212 1.13.21.192-.01.38-.05.56-.12a1 1 0 00.39-.25c.1-.13 0-.31 0-.45s-.1-.3-.16-.45a5.728 5.728 0 01-.26-.83.132.132 0 010-.06c.392.287.744.623 1.05 1 .424.552.76 1.166 1 1.82.347.978.803 1.914 1.36 2.79.29.398.626.76 1 1.08.362.3.754.56 1.17.78a11.61 11.61 0 01-1-.64 4.585 4.585 0 01-.91-1c-.527-.74-.95-1.547-1.26-2.4-.26-.718-.57-1.416-.93-2.09a5.308 5.308 0 00-1.49-1.54v-.13c0-.05.08-.29.13-.27.05.02-.13.25-.13.27a.565.565 0 000 .13l-.28-.21c-.94-.65-2-1.19-2.9-1.84a11.468 11.468 0 01-1.26-1 7.542 7.542 0 01-.79-.92 5.152 5.152 0 011.31-1.1 3.309 3.309 0 012.75.28 8.351 8.351 0 002.67.86 6.132 6.132 0 002.22-.42c.94-.33 1.84-.75 2.83-1a4.8 4.8 0 011.42-.15 3.54 3.54 0 011.36.38c.858.464 1.681.992 2.46 1.58a9.09 9.09 0 001.62.89 6.633 6.633 0 01-.8-.4c-.83-.49-1.56-1.09-2.36-1.61a4.52 4.52 0 00-2.68-.92 9.157 9.157 0 00-2.82.73 10.1 10.1 0 01-2.75.77 3 3 0 01-.84 0 7.003 7.003 0 01-1.36-.45 9.199 9.199 0 00-2.71-.9 2.709 2.709 0 00-2.08.94c-.47.45-.89.94-1.41 1.36l-.15.12a12.71 12.71 0 002.48-3.36 8.588 8.588 0 00.73-2.1h1.01l.12.09a9.675 9.675 0 002.16 1.07c.477.148.965.255 1.46.32 1.069.128 2.147.152 3.22.07a8.233 8.233 0 002 1.28 7.535 7.535 0 01-2-1.29l1.69-.08a10.093 10.093 0 012.4.11c.191.025.375.09.54.19.114.09.209.202.28.33.049.16.135.307.25.43a.449.449 0 00.45 0 3.21 3.21 0 00.5-.31.76.76 0 00.24-.23.787.787 0 000-.48c0-.16-.05-.32-.08-.47a5.578 5.578 0 01-.13-.9 1.15 1.15 0 01.07-.45 1.995 1.995 0 000 1.11c.062.287.109.578.14.87a.539.539 0 01-.07.37 1.902 1.902 0 01-.32.24 1.994 1.994 0 01-.52.27.29.29 0 01-.35-.18c-.14-.28-.24-.59-.58-.72a6.568 6.568 0 00-2.31-.26c-.77 0-1.55 0-2.32.08a8.49 8.49 0 00-2.42-1.6 4.388 4.388 0 00-1.53-.21c-1 0-1.91.15-2.88.18l-.85-.59c.517-.04 1.031-.11 1.54-.21a13.633 13.633 0 002.8-.88c.425-.19.84-.403 1.24-.64a4.612 4.612 0 002.09.88 7.7 7.7 0 002.67-.15 26.328 26.328 0 003.55-1l.57.24c.35.17.68.35 1 .51.333.18.702.283 1.08.3a1.73 1.73 0 001-.36c.33-.22.62-.47.94-.71.278-.215.576-.403.89-.56.092.195.172.395.24.6.079.283.123.576.13.87a12.28 12.28 0 01-.14 2 3.129 3.129 0 00.48 2.66c.182.29.39.565.62.82.246.263.529.489.84.67.345.184.711.325 1.09.42a2.64 2.64 0 011 .45c.237.206.425.462.55.75.261.639.426 1.313.49 2a14.99 14.99 0 00.86 4.09 4.75 4.75 0 002.05 2.21c1.458.706 3 1.22 4.59 1.53.39.1.79.21 1.16.34.197.06.391.13.58.21.15.06.31.11.38.24s0 .64-.08.92a.713.713 0 00.35.82c.163.081.339.132.52.15a.331.331 0 00.17 0 .998.998 0 00.45-.29l.39-.4a7.64 7.64 0 01.76-.74c.106-.091.224-.169.35-.23h-.08a1.88 1.88 0 00-.39.29c-.32.27-.6.58-.89.87-.14.13-.43.47-.68.44a1.181 1.181 0 01-.79-.35c-.2-.26-.09-.61 0-.91.09-.3.15-.66-.19-.83a11.588 11.588 0 00-2.29-.75c-.79-.22-1.59-.42-2.36-.68a7.21 7.21 0 01-2.93-1.68 4.23 4.23 0 01-1-1.7 11.67 11.67 0 01-.42-2c-.09-.7-.14-1.41-.25-2.11a5.187 5.187 0 00-.61-1.92 2.07 2.07 0 00-.71-.7 5.863 5.863 0 00-1.08-.41 3.413 3.413 0 01-1.68-1.22 6.079 6.079 0 01-.55-.86 1.554 1.554 0 01-.17-.42 5.53 5.53 0 010-1.86c.112-.66.159-1.33.14-2a4.395 4.395 0 00-.36-1.47c.198-.035.402-.035.6 0 .269.017.527.114.74.28.216.239.353.54.39.86.14.68.11 1.4.24 2.09.043.314.164.613.35.87.212.254.488.447.8.56a9.698 9.698 0 002.37.38c.399.028.792.108 1.17.24.284.114.561.244.83.39.71.37 1.4.76 2.13 1.09.743.346 1.52.611 2.32.79a7.763 7.763 0 002.41.13 11.324 11.324 0 004.19-1.46c.69-.37 1.37-.78 2.07-1.14l.54-.27c.119-.067.247-.118.38-.15.16 0 .37.16.46.23l.41.33c.26.253.549.474.86.66.16.09.38.12.44-.09a1.42 1.42 0 000-.46c0-.32-.13-.64-.19-1a2.41 2.41 0 010-.38.94.94 0 010-.13v.15c0 .14 0 .27.05.4.06.32.14.64.18 1a.87.87 0 010 .48c-.08.16-.3.05-.4 0a5.607 5.607 0 01-.84-.67l-.44-.37c-.1-.07-.28-.22-.44-.19a2.25 2.25 0 00-.43.17c-.17.08-.35.16-.51.25-.71.36-1.4.77-2.11 1.13a17.39 17.39 0 01-2.25 1 7.66 7.66 0 01-3.12.43c-.42-.038-.837-.102-1.25-.19a18.441 18.441 0 01-4.36-1.94 5.774 5.774 0 00-.8-.37 4.805 4.805 0 00-1.21-.24 7.439 7.439 0 01-2.43-.47 1.83 1.83 0 01-.86-1.66 8.921 8.921 0 00-.24-2 1.309 1.309 0 00-.58-.77 1.772 1.772 0 00-.8-.23 3.17 3.17 0 00-2 .7l-.86.64a2.28 2.28 0 01-.86.48 1.77 1.77 0 01-1.09-.25c-.36-.17-.7-.36-1.05-.53-.09-.05-.19-.07-.28-.11.53-.18 1.06-.36 1.59-.52a15.91 15.91 0 015.35-.85 8.457 8.457 0 012.82.59c.886.37 1.691.91 2.37 1.59.546.57 1.028 1.197 1.44 1.87a10.89 10.89 0 00-1.38-1.84 6.995 6.995 0 00-2.29-1.62 8.993 8.993 0 00-2.77-.66c-.885-.05-1.773-.01-2.65.12-1.564.345-3.091.84-4.56 1.48a5.764 5.764 0 00-1.46-.35c-.86-.06-1.72-.08-2.59-.09-.936.01-1.871-.04-2.8-.15 3-2.14 6-4.67 10.15-5.3a12.708 12.708 0 015.55.27 10.468 10.468 0 014.5 2.72c.507.526.972 1.09 1.39 1.69a13.328 13.328 0 00-1.29-1.63 10.317 10.317 0 00-2-1.66 10.998 10.998 0 00-5.11-1.65 14.288 14.288 0 00-5.66.76 22.141 22.141 0 00-5.19 2.81c-.93.63-1.84 1.3-2.77 1.93a8.705 8.705 0 01-.88-.22 6.08 6.08 0 01-2.47-2 13.097 13.097 0 00-1.38-1.41h.87a16.9 16.9 0 005.44-1.56c.58-.26 1.14-.56 1.71-.84l.19.27a.598.598 0 00.62.29 1.157 1.157 0 00.83-.48 1.75 1.75 0 00.19-1l1.23-.69h.25c.83 0 1.66.05 2.49 0 .822.009 1.644-.069 2.45-.23a6.76 6.76 0 001.52-.5 6.01 6.01 0 001.2-.77c1.26-1 2.14-2.34 3.42-3.34a4.272 4.272 0 011.7-.87c.87-.17 1.45.46 2.09.81a5.61 5.61 0 002.32.59c.315.03.632.01.94-.06a6.56 6.56 0 001-.37 21.73 21.73 0 012.11-.88c.345-.112.7-.19 1.06-.23h-.2c-.44.073-.871.187-1.29.34-.87.32-1.7.8-2.6 1a4.34 4.34 0 01-2.09-.06 4.573 4.573 0 01-1.11-.4c-.34-.18-.65-.4-1-.61a1.83 1.83 0 00-1.09-.33 3.052 3.052 0 00-1.11.34 6.919 6.919 0 00-1.53 1.11c-.61.56-1.15 1.16-1.72 1.74a8.991 8.991 0 01-1.73 1.45 6.15 6.15 0 01-1.05.56 8.585 8.585 0 01-2.35.4h-3.1c1.6-.93 3.18-1.88 4.83-2.76a53.07 53.07 0 015.38-2.54 21.44 21.44 0 015.95-1.53c2.002-.23 4.027.15 5.81 1.09.121.062.238.132.35.21.15.09.29.17.43.27s.45.34.68.5c.59.42 1.2.79 1.76 1.23.446.346.867.724 1.26 1.13a2.116 2.116 0 00-.46.79 3.37 3.37 0 01-.38 1.12 2.625 2.625 0 01-.76.59c-.21.107-.436.178-.67.21h-.65c-.48.07-.3.71-.25 1 .078.436.205.862.38 1.27.373.847.846 1.646 1.41 2.38a52.316 52.316 0 003.88 4.46 18.939 18.939 0 004.39 3.74l.09.06s-.05.08-.06.11a.635.635 0 000 .23c.009.2.043.398.1.59 0 .12.12.32 0 .43a1.347 1.347 0 01-.45.4 1.58 1.58 0 01-.65.13c-.19 0-.42 0-.41.24.021.18.087.351.19.5.115.206.245.403.39.59a4 4 0 01.7 1.17c.091.376.038.772-.15 1.11a4.27 4.27 0 01-.79 1l-.22.21s-.07.06-.07.08c0 .02.32.15.41.18.09.03.36.1.37.17.01.07-.25-.15-.3-.17l-.29-.11a.47.47 0 01-.15-.06 4.227 4.227 0 001.28-1.62 1.525 1.525 0 00-.07-1.07 9.348 9.348 0 00-.7-1.11 3.258 3.258 0 01-.3-.51 1.549 1.549 0 01-.1-.28c0-.09 0-.1.12-.11.222.001.443-.023.66-.07.202-.059.387-.165.54-.31a1.01 1.01 0 00.23-.27.664.664 0 000-.44 4.414 4.414 0 01-.09-.51.55.55 0 01.05-.35 7.019 7.019 0 001.85.72c.386.043.77.106 1.15.19.358.13.695.312 1 .54.34.202.65.451.92.74.25.31.46.64.67 1 .07.11.17.22.24.33l-.42-.64a3.937 3.937 0 00-.87-1.05 6.918 6.918 0 00-1.19-.77 4.545 4.545 0 00-1.31-.31 5.186 5.186 0 01-1.35-.43 11.59 11.59 0 01-2.42-1.47 32.796 32.796 0 01-4.16-4.17 25.543 25.543 0 01-3.54-4.58 6.897 6.897 0 01-.76-2c0-.17 0-.33-.06-.5-.06-.17 0-.32.13-.34.13-.02.37 0 .56 0a2.39 2.39 0 00.6-.14 2.108 2.108 0 001.28-1.14 3.699 3.699 0 01.61-1.45 7.482 7.482 0 011.54 2.45c.6 1.67.21 3.42.1 5.09a4.832 4.832 0 000 1.26c.025.2.097.392.21.56.075.095.155.185.24.27a7.01 7.01 0 002.25 1.51c.88.39 1.83.67 2.74 1 .459.17.904.377 1.33.62.397.264.777.551 1.14.86.436.361.893.695 1.37 1 .446.257.919.465 1.41.62.285.087.582.134.88.14-.196-.01-.39-.04-.58-.09a5.783 5.783 0 01-2.15-1c-.76-.54-1.4-1.19-2.22-1.68a17.526 17.526 0 00-2.72-1.09 10.21 10.21 0 01-2.6-1.3 6.567 6.567 0 01-.87-.79 1.61 1.61 0 01-.32-1.09 19.96 19.96 0 01.2-2.55c.1-.847.1-1.703 0-2.55a7.937 7.937 0 00-3-4.53 22.93 22.93 0 00-1.94-1.42c-.31-.21-.59-.43-.88-.64a2.274 2.274 0 00-.25-.18 10.15 10.15 0 00-5.64-1.51 19.878 19.878 0 00-6.08 1.24 64.084 64.084 0 00-10.58 5.19l-1.43.8a4.53 4.53 0 00-.49.08.592.592 0 00-.44.45c-.47.26-1 .5-1.45.75a3.354 3.354 0 00-.48-.64.839.839 0 00-.43-.27h-.2c-.01 0-.47.06-.52.07h-.22l-.67.14a13.31 13.31 0 01-4.33.74c-.49-.06-1-.18-1.45-.24-.559-.1-1.131-.1-1.69 0a2.93 2.93 0 00-1.91 1.69 3.256 3.256 0 01-.33-.13 2.744 2.744 0 00-.1-.26c.1-.3.21-.6.3-.91a4 4 0 00.22-1.9 2.629 2.629 0 00-.63-1.2l.78-.28a18.006 18.006 0 002.42-1.16 27.543 27.543 0 004.47-3.26c1.56-1.35 3-2.8 4.51-4.2l.85.15a10.39 10.39 0 002.5.17 5.7 5.7 0 00.7-.12 9.01 9.01 0 001.48-.13c1-.15 1.88-.38 2.83-.53a6.589 6.589 0 012.38.12c1.72.36 3.42 1.08 5.2 1.08a13.366 13.366 0 003-.4c1-.24 1.93-.6 2.91-.85a2.132 2.132 0 011.92.18c.305.29.562.628.76 1 .23.4.45.8.69 1.2a7.383 7.383 0 001.85 2.11 6.67 6.67 0 001.25.72c.17.089.352.153.54.19a3.51 3.51 0 002.51-1 7.823 7.823 0 011.17-.77 1.124 1.124 0 01.9-.1c.4.184.745.47 1 .83.31.35.59.72.91 1.07a3.51 3.51 0 001 .85c.375.182.772.316 1.18.4.973.158 1.935.379 2.88.66.402.12.753.37 1 .71.153.264.232.565.23.87 0 .85-.18 1.68-.21 2.52-.036.41.04.82.22 1.19.146.246.357.447.61.58.876.458 1.828.75 2.81.86 1 .18 2.06.3 3.08.45.979.13 1.95.31 2.91.54.966.234 1.904.57 2.8 1 1.5.73 2.86 1.63 4.29 2.44a8.232 8.232 0 003.82 1.31 9.411 9.411 0 01-4.46-1.73 28.58 28.58 0 00-5.28-2.79 33.718 33.718 0 00-5.92-1.18 17.234 17.234 0 01-3-.63 4.115 4.115 0 01-1.15-.57 1 1 0 01-.32-.38 4 4 0 002.2-.64 6.581 6.581 0 001.76-2 10.54 10.54 0 011.48-2.17 2.401 2.401 0 011.37-.74 7.178 7.178 0 013.73.82c1 .4 1.92.84 2.88 1.26l-1.89-.87a21.75 21.75 0 00-2.75-1.09 5.073 5.073 0 00-1.39-.25 3.212 3.212 0 00-1.36.28 3.393 3.393 0 00-1.24 1.13 24.743 24.743 0 01-2 2.84 3.793 3.793 0 01-1.4 1 4.061 4.061 0 01-1.48.23 1.503 1.503 0 01-.05-.22c-.038-.858.029-1.718.2-2.56a2.214 2.214 0 00-.54-1.93 5.576 5.576 0 00-2.66-.93 5.63 5.63 0 01-2.69-1c-.71-.65-1.14-1.48-1.9-2.09a1.56 1.56 0 00-1.09-.4 2.65 2.65 0 00-1.15.46c-.39.24-.76.52-1.14.78a4.133 4.133 0 01-1.21.65 1.28 1.28 0 01-.84 0 7.293 7.293 0 01-1-.52 6.445 6.445 0 01-1.94-2.06c-.25-.4-.47-.82-.7-1.24a5.848 5.848 0 00-.75-1.11 2.154 2.154 0 00-1.94-.61c-.963.184-1.912.434-2.84.75-.948.268-1.919.446-2.9.53-.439.04-.881.04-1.32 0a7.154 7.154 0 01-1-.18c-1.87-.43-3.74-1.24-5.7-1.08a14.63 14.63 0 00-1.59.26l-.73.14c.44-.23.88-.47 1.3-.73a14.48 14.48 0 012.17-1.14 7.178 7.178 0 013.53-.22c1.584.364 3.204.549 4.83.55a8.78 8.78 0 004.21-2.09c.5-.36 1-.72 1.53-1.05l1.23.45.72.27c-.64-.25-1.28-.5-1.93-.73l.21-.13-.22.12a27.413 27.413 0 00-3.08-.95 26.067 26.067 0 00-3-.57 21.704 21.704 0 00-3-.17h-.32a4.327 4.327 0 001.47-1.41c.094-.164.205-.318.33-.46a2.16 2.16 0 01.42-.31 7.01 7.01 0 00.9-.68c.25-.283.459-.6.62-.94.141-.326.319-.635.53-.92.1-.12.3-.24.32 0 .02.24 0 .33.09.41.09.08.21-.22.24-.31s.07-.26.13-.3c.06-.04-.14.31-.15.33-.01.02-.06.37-.22.27-.16-.1-.07-.29-.08-.4-.01-.11-.14-.17-.27-.06-.129.125-.237.27-.32.43-.09.15-.17.3-.25.46-.16.321-.351.626-.57.91a4.104 4.104 0 01-.89.7 2.585 2.585 0 00-.7.56c-.18.25-.33.5-.53.74-.227.27-.485.511-.77.72a3.37 3.37 0 01-.56.3 19.36 19.36 0 00-5.23 1 19.7 19.7 0 00-2.78 1.17c-.67.36-1.32.73-2 1.12a22.86 22.86 0 00-2.26 1.6c-1.22-2.72-2.36-5.57-1.95-8.44a7.67 7.67 0 011.95-4.08 19.272 19.272 0 014.4-3.38c.81-.48 1.64-1 2.45-1.45-2.7 1.59-5.6 3-7.45 5.37-2 2.55-1.91 5.82-.94 8.79.37 1.14.84 2.25 1.32 3.36l-1.36 1.01-.55.5a11.736 11.736 0 00-2.45-.31c-.243 0-.484.03-.72.09a.4.4 0 00-.3.21 1.41 1.41 0 00-.11.45 9.841 9.841 0 01-.43 2.12c-.11.3-.318.553-.59.72a2.4 2.4 0 01-1.05.23 9.731 9.731 0 01-1.21 0h-.61a.859.859 0 00-.39 0 2.21 2.21 0 00-.67.58c-.25.28-.47.59-.73.87a2.379 2.379 0 01-.81.66 1.3 1.3 0 01-.8.06 19.128 19.128 0 00-2.39-.5c-.172 0-.343.02-.51.06.015-.656.095-1.31.24-1.95.174-.834.467-1.64.87-2.39a10.77 10.77 0 013.56-3.84 17.412 17.412 0 012.26-1.21c.64-.28 1.33-.5 2-.73-.66.21-1.33.42-2 .68a15.71 15.71 0 00-2.28 1.16 10.64 10.64 0 00-3.67 3.73 9.71 9.71 0 00-1 2.39c-.191.75-.308 1.517-.35 2.29a.996.996 0 00-.2.15 1.4 1.4 0 00-.26.34 1.58 1.58 0 00.37 1.72c.09.11.19.21.28.31.09.1 0 .23.05.34.167.84.388 1.668.66 2.48.26.81.55 1.61.86 2.41-.11.3-.21.61-.29.92a8.12 8.12 0 00-1 .38c-.72.32-1.39.72-2.09 1.06a4.26 4.26 0 01-2.25.53c-.475.014-.95-.04-1.41-.16a10.93 10.93 0 00-2.5-.82 4 4 0 00-1.93.47c-.27-.07-.53-.15-.8-.21-1.84-.43-3.71-.71-5.58-1l-1-.13a7.748 7.748 0 001.12-.94 3.08 3.08 0 001-2.06 5.849 5.849 0 00-.71-2.43l-.56.31a4.42 4.42 0 01.52 2.67 4.31 4.31 0 01-1.65 1.88c-1.53 1.08-3.47 1.82-4.68 3.2a5.06 5.06 0 00-1.07 3.2 17.546 17.546 0 01-.38 4.64c-.22.7-1.1 1-1.82 1.32a14.18 14.18 0 00-1.33.54 1.79 1.79 0 00-.84.71 2.22 2.22 0 00.09 2.05c.24.37.53.707.86 1 .295.21.498.525.57.88a2.11 2.11 0 01-.72 1.32 15.596 15.596 0 01-2.12 1.72 8.442 8.442 0 00-2 1.85c-.238.38-.414.795-.52 1.23a8.302 8.302 0 00-.17 2.94c0 .37.1.73.16 1.1l-.24.08c-.78.23-1.59.4-2.36.66-1.06.37-1.69.59-2.1.72h-.29c-.06.14-.13.27-.19.41l-.18.36-.32.65.69-.08v.6c0 .44-.08.89-.08 1.33a6.86 6.86 0 00.38 2.38c.116.36.292.698.52 1a7.002 7.002 0 001.75 1.36c.656.353 1.278.765 1.86 1.23.345.238.59.593.69 1a1.2 1.2 0 01-.39.76c-.245.25-.454.532-.62.84a1.81 1.81 0 00.09 1.68c.188.243.447.42.74.51.36.14.75.24 1.12.35.61.17 1.36.38 1.6.93.387 1.215.615 2.476.68 3.75a4.2 4.2 0 001.13 2.53c1.09 1 2.73 1.48 4.07 2.26a3.489 3.489 0 011.49 1.4l.65.39a2.5 2.5 0 00-1-1.6 5.78 5.78 0 00-1-.68l.78-.18c1.5-.35 3-.72 4.46-1.21a15.652 15.652 0 004.4-2.15c.42-.31.81-.64 1.2-1a7.41 7.41 0 001.95 1.78 26.64 26.64 0 002.76 1.57c-.24.89-.48 1.77-.67 2.66a18.615 18.615 0 00-.34 2.07c-.06.695-.06 1.394 0 2.09.08.716.251 1.418.51 2.09a7.82 7.82 0 001 1.88 8.88 8.88 0 003.29 2.75c.627.313 1.28.574 1.95.78.54.17 1.1.29 1.67.41a16.166 16.166 0 01-1.69-.45 13.887 13.887 0 01-1.93-.81 8.828 8.828 0 01-3.21-2.86 7.221 7.221 0 01-.9-1.88 8.432 8.432 0 01-.43-2.1c-.04-.863.01-1.728.15-2.58l.4.06a19.56 19.56 0 017.94 3.85c1.25.91 2.45 1.86 3.71 2.76.39.29.79.57 1.21.85a29.264 29.264 0 00-.81 2.83c-.55 2.5-.36 5.16 1.47 7.09 1.83 1.93 4.18 2.72 6.51 3.82l-2.12-1a16.199 16.199 0 01-3.86-2.43 6.23 6.23 0 01-1.91-3.17c-.57-2.3.14-4.71.91-7 .642.419 1.31.796 2 1.13.56.27 1.12.53 1.69.77.766.309 1.555.557 2.36.74a16.01 16.01 0 004.81.39c.82-.074 1.635-.197 2.44-.37.26-.05.52-.13.78-.2a3.676 3.676 0 01-.88 1.79c-.54.67-1.14 1.31-1.61 2a1.93 1.93 0 00-.24 2.14 1.575 1.575 0 001.65.68 21.482 21.482 0 002.85-.88 1.72 1.72 0 011 0c.404.161.769.407 1.07.72.34.32.65.66 1 1 .248.265.547.476.88.62.158.035.322.035.48 0 .25 0 .5-.08.74-.12.482-.098.969-.162 1.46-.19.443-.038.889.017 1.31.16.355.173.641.462.81.82.356.81.615 1.659.77 2.53.041.185.109.364.2.53a.48.48 0 00.39.22c.296.035.594.035.89 0a13.42 13.42 0 003-.68c.955-.303 1.927-.55 2.91-.74a7.602 7.602 0 012.61-.06 27.935 27.935 0 015.51 2.11c.432.188.876.345 1.33.47.05.145.149.269.28.35l.52.39a.345.345 0 01-.19.33c-.18.08-.45 0-.61.15-.16.15-.07.39.07.52.372.294.767.558 1.18.79.284.27.482.618.57 1a.999.999 0 00.68.77c.471.093.95.137 1.43.13a5.833 5.833 0 012.68.61c.366.219.702.485 1 .79.27.27.49.56.74.84.266.254.574.46.91.61.427.193.824.445 1.18.75.299.306.567.641.8 1 .111.183.231.36.36.53.116.188.265.354.44.49.17.12.33.09.32-.1-.01-.19-.08-.39 0-.5.08-.11.26.2.3.3.04.1.14.35.22.39-.08 0-.18-.32-.2-.35-.02-.03-.12-.51-.33-.35-.21.16-.06.36-.06.51 0 .15-.25.13-.38 0a5.708 5.708 0 01-.77-1.07 4.312 4.312 0 00-.86-1.06 7.024 7.024 0 00-1.18-.73 3.99 3.99 0 01-.55-.34 3.65 3.65 0 01-.45-.52 5.137 5.137 0 00-2.15-1.64 6.878 6.878 0 00-2-.35c-.38 0-.77 0-1.15-.07a.928.928 0 01-.57-.21 2.007 2.007 0 01-.37-.85 1.492 1.492 0 00-.55-.82c-.28-.21-.61-.37-.89-.58a.611.611 0 01-.31-.37c0-.07.49-.12.59-.16a.538.538 0 00.32-.49c0-.19-.29-.35-.44-.46a2.023 2.023 0 01-.3-.23l.36.06c.721.09 1.45.09 2.17 0 2-.27 3.84-1.06 5.83-1.41a6.75 6.75 0 012.83 0c.931.25 1.825.62 2.66 1.1 1 .56 2 1.16 3 1.69.2.11.4.19.6.28-.79-.38-1.53-.82-2.28-1.26-1.59-.95-3.37-2.09-5.37-2.07-2 .02-3.9.77-5.82 1.21a8.886 8.886 0 01-4.32.13 17.82 17.82 0 01-2.77-1.16 24.957 24.957 0 00-2.82-1.17 7.74 7.74 0 00-2.48-.39 12.593 12.593 0 00-3 .47c-1 .26-2 .58-3 .81a5.365 5.365 0 01-2.19.16 3.013 3.013 0 01-.26-.91c-.08-.36-.16-.71-.26-1.06a3.526 3.526 0 00-1-1.9 3.237 3.237 0 00-2.23-.42c-.41 0-.82.09-1.22.16l-.57.09c-.06 0-.33.07-.39 0a8.798 8.798 0 01-1.71-1.56 3.726 3.726 0 00-.93-.67 1.876 1.876 0 00-1-.23 4.37 4.37 0 00-1.15.26l-1.21.43c-.57.19-1.55.52-2-.07-.45-.59-.12-1.31.25-1.85s1.06-1.28 1.58-1.92a3.841 3.841 0 001-2.06v-.2l1-.3a30.48 30.48 0 004-1.75l-.56.27c-.67.33-1.34.63-2 .91-.66.28-1.54.56-2.32.81a5.411 5.411 0 00-.49-2c-.26-.61-.56-1.2-.78-1.81h.65a3.709 3.709 0 002.66 2c.689.08 1.388.032 2.06-.14.58-.13 1.15-.34 1.73-.46 1.72-.35 3.61.17 5.37.41.27 0 .55.08.82.1h1.16c.198-.08.37-.211.5-.38a5.23 5.23 0 00.6-1c.09-.18.18-.37.27-.54a1.33 1.33 0 01.29-.41 1.006 1.006 0 01.79.31c.21.372.317.793.31 1.22 0 .35.19.79.69.85.248.036.499.053.75.05a13.546 13.546 0 001.9-.16c1-.13 2-.28 3.09-.32.976-.062 1.955.012 2.91.22a6.813 6.813 0 011.48.51 10.76 10.76 0 012.28 1.58c.77.64 1.5 1.31 2.3 1.92a8.868 8.868 0 002 1.18c.44.186.912.284 1.39.29a2.141 2.141 0 001.29-.53c.355-.302.726-.586 1.11-.85a5.53 5.53 0 011.3-.61 5.407 5.407 0 012.53-.3c1.13.19 2.19.67 3.29 1a8.075 8.075 0 001.62.27h.16a6.762 6.762 0 01-1.33-.16c-.91-.2-1.78-.55-2.67-.83a7.526 7.526 0 00-1.32-.34 3.696 3.696 0 00-1.15 0 6.72 6.72 0 00-2.75 1c-.73.48-1.37 1.32-2.45 1.21a5.165 5.165 0 01-2.13-.85c-1.68-1.08-2.91-2.57-4.57-3.68a7.087 7.087 0 00-1.55-.8 8.193 8.193 0 00-1.9-.44c-.998-.1-2.002-.1-3 0-1 .08-2 .25-3 .33a7.912 7.912 0 01-1.46 0c-.13 0-.23 0-.29-.14a1.426 1.426 0 01-.13-.61 2.286 2.286 0 00-.35-1.2 1.548 1.548 0 00-1.08-.49.74.74 0 00-.71.43c-.23.36-.4.74-.59 1.1-.098.18-.208.354-.33.52a.807.807 0 01-.32.29h-.93c-.3 0-.61-.07-.91-.12-1-.15-2-.36-3-.48a7.817 7.817 0 00-2.51 0c-.79.16-1.54.43-2.36.54a3.1 3.1 0 01-2.23-.41 3.371 3.371 0 01-1-1.11 5.66 5.66 0 002.44-.85 1.56 1.56 0 00.81-.55l.05-.07a13.14 13.14 0 002.07-2.41 10.509 10.509 0 011.7-2c.354.093.692.241 1 .44.33.18.65.38 1 .55.305.177.648.276 1 .29.325-.023.629-.17.85-.41.57-.55.85-1.26 1.38-1.84a3.11 3.11 0 011.37-.78c.83-.1 1.67-.2 2.49-.34a6.65 6.65 0 002.35-.88c.41-.25.8-.52 1.21-.77.259-.16.538-.284.83-.37l.19.23c.29.359.665.64 1.09.82a2.56 2.56 0 001.14.13c.1 0 .19 0 .29-.06a3.93 3.93 0 002.52.63c.34-.052.665-.178.95-.37a1.57 1.57 0 00.6-1c.088-.427.122-.864.1-1.3v-1.16a2.236 2.236 0 01.84-2.11 9.006 9.006 0 012.91-.84 7.504 7.504 0 001.44-.43c.32-.156.628-.337.92-.54a22.748 22.748 0 015.09-2.85 12.49 12.49 0 011.49-.38 9.378 9.378 0 013.85.18c.973.255 1.928.572 2.86.95.91.37 1.79.78 2.7 1.14l.65.25c.177.073.361.126.55.16.19 0 .39-.19.5-.28.11-.09.34-.33.5-.5a6.75 6.75 0 01.94-.91c.11-.08.37-.24.49-.06.087.18.122.381.1.58 0 .4-.07.8-.1 1.2-.01.16-.01.32 0 .48v.18c-.003-.05-.003-.1 0-.15a3.685 3.685 0 010-.47c0-.4.09-.8.11-1.2.04-.181.04-.369 0-.55-.08-.16-.34-.1-.53.02zm-40.33 4.82a7.914 7.914 0 002.77-.57c.4-.2.48-.59.62-.94a.362.362 0 01.41-.26c.234.052.457.144.66.27.151.063.293.147.42.25.1.128.146.289.13.45.01.163.01.327 0 .49a2.99 2.99 0 00-.52.32 1.207 1.207 0 00-.46.52c-.119.32-.144.667-.07 1 .09.68.33 1.33.37 2a1.43 1.43 0 01-.12.73 1.513 1.513 0 01-.72.64 5.256 5.256 0 01-.78.31c-1.94.24-3.92.33-5.81.75a6.329 6.329 0 00-2.67 1.24 2.44 2.44 0 00-.24.22l-.23.1a5.588 5.588 0 00-1 .69 5.848 5.848 0 00-1.34 1.85c-.13.28-.25.56-.37.84-.12.12-.22.25-.35.37-.442.413-.949.75-1.5 1h-.33c-.82-.13-1.61-.34-2.44-.46a9.997 9.997 0 00-2.45-.11c-.29.03-.577.08-.86.15a16.214 16.214 0 00-2.35-.89 4.588 4.588 0 00-1.22-.16 8.551 8.551 0 00-2.78.4 8.314 8.314 0 00-1.32.6 5.688 5.688 0 01-1.19.57 3.54 3.54 0 01-2.08-.2 9.54 9.54 0 01-3.8-3.11 29.582 29.582 0 00-3.53-3.74 16.59 16.59 0 00-2-1.36c1.07.23 2.16.39 3.25.53 1.09.14 2.05.26 3.07.44.82.15 1.62.33 2.42.54 1.62.4 3.16 1 4.74 1.5.779.261 1.584.439 2.4.53 1.273.496 2.576.913 3.9 1.25 1.627.446 3.315.631 5 .55a8.21 8.21 0 004.48-1.64c.3-.24.55-.51.85-.76a15.088 15.088 0 001.46-1.3 6.366 6.366 0 002.05-3.91 6.76 6.76 0 00-.09-1.49c1.23-.07 2.44-.1 3.62-.2zm4.93.61a3.83 3.83 0 00-.76 0 .818.818 0 01.23-.33c.179-.158.377-.293.59-.4v.41c0 .13-.06.2-.06.32zm-22.78 11.54c-.77.27-1.52.6-2.28.83a5.57 5.57 0 01-1.93.27c-.79-.05-1.56-.17-2.35-.22h-.85c.83-.28 1.51-.83 2.33-1.13a6.35 6.35 0 011.7-.36c.353-.03.707-.03 1.06 0 .607.033 1.206.15 1.78.35l.54.26zm11.74-11.63a19.86 19.86 0 012.43-.3 5.417 5.417 0 010 2.16 6.164 6.164 0 01-1.06 2.11 3.431 3.431 0 01-.62-1.14 1.704 1.704 0 00-1.13-.83 1.68 1.68 0 00-.5-.07h-.45c-.15 0-.13-.18-.14-.26-.01-.08 0-.28 0-.42.038-.298.101-.593.19-.88a11.45 11.45 0 011.28-.37zm-11.79 6.66a10.84 10.84 0 003-1.12 55.896 55.896 0 004.46-3.59c.717-.554 1.5-1.018 2.33-1.38.14-.06.3-.11.46-.16a4.332 4.332 0 00-.18.93c0 .24-.11.77.28.79h.54c.193.011.382.055.56.13a2.1 2.1 0 01.67.42c.182.27.314.572.39.89.105.227.254.431.44.6a9.45 9.45 0 01-1 1.05c-.42.4-.88.75-1.32 1.13-.18.15-.34.32-.52.47a6.673 6.673 0 01-.6.45 8.23 8.23 0 01-4.64 1.33 17.543 17.543 0 01-5-.81c-.76-.22-1.52-.48-2.26-.75.808-.038 1.61-.165 2.39-.38zm-19.66-4.47a6.808 6.808 0 012.41-.24c1.535.109 3.045.446 4.48 1 1.48.54 2.89 1.18 4.3 1.82 1.06.47 2.12.94 3.2 1.4l-1.21-.41a42.82 42.82 0 00-4.83-1.5c-.8-.19-1.59-.35-2.4-.48-1-.16-2-.29-3-.44-1.3-.187-2.587-.46-3.85-.82.292-.13.593-.24.9-.33zm5.12-5.7a3.74 3.74 0 00-1.63.87 9.597 9.597 0 00-1.05-.43 10.892 10.892 0 00-2.36-.51c-.451-.05-.906-.07-1.36-.06l-.12-.44c.241-.048.485-.081.73-.1.83-.05 1.65 0 2.48-.07a3.26 3.26 0 001.23-.29c1.4-.67 2.07-2.06 3.44-2.77a8.058 8.058 0 00-1.9 1.51 5.449 5.449 0 01-1.71 1.24 4.08 4.08 0 01-1.55.22c-.79-.04-1.58-.04-2.37 0a2.7 2.7 0 00-.4.06 7.489 7.489 0 00-.77-1.65 10.28 10.28 0 00-2.29-2.56l.14.09c.45.3.83.67 1.25 1a2.222 2.222 0 001.77.61 7.252 7.252 0 002.13-.94 5.78 5.78 0 011.08-.47c.223-.051.451-.078.68-.08a8.347 8.347 0 012.3.42c.76.246 1.552.378 2.35.39.138-.014.275-.037.41-.07v.2c.094.42.134.85.12 1.28-.05.422-.13.84-.24 1.25-.09.39-.2.77-.28 1.17a6.3 6.3 0 00-2.03.13h-.05zm-11.67 2c-.21-.4-.41-.83-.59-1.23s-.43-1-.6-1.53c-.28-.87-.49-1.75-.69-2.63a16.59 16.59 0 00-.81-2.6c-.25-.523-.53-1.03-.84-1.52a25.992 25.992 0 014.44 2.43 11.069 11.069 0 012.93 2.94c.31.478.561.992.75 1.53l-.16.07a1.44 1.44 0 00-.57.55 7.651 7.651 0 00-1.88.67 11.2 11.2 0 00-1.98 1.35v-.03zm14.66-5.85c.07.41.51.63.94.77a5 5 0 001.44.2c1 0 2.05-.07 3.08 0a3.14 3.14 0 011.82.62c.45.447.793.99 1 1.59.23.55.43 1.12.7 1.66-.22 0-.43.11-.65.14a12.85 12.85 0 01-4.43-.28 46.483 46.483 0 00-4.72-1c.14-.59.33-1.17.46-1.76.1-.409.14-.83.12-1.25 0-.31-.08-.61-.13-.92a3.01 3.01 0 00.32-.12c.002.128.02.255.05.38v-.03zm.65-3.65a2.14 2.14 0 01-.07 1.2c-.11.42-.26.83-.39 1.24-.097.275-.164.56-.2.85-.11 0-.23.06-.34.09l-.06-.3a6.063 6.063 0 01-.15-2.39 1.75 1.75 0 01.83-1.12.93.93 0 01.38.46v-.03zm-5-2.26l.7.61c.265.199.568.342.89.42.9.27 1.9.3 2.77.66a1.94 1.94 0 00-.59.62 2.39 2.39 0 00-.27 1.11 9.82 9.82 0 00.34 2.27h-.08c-.388.06-.782.06-1.17 0-.82-.13-1.59-.41-2.38-.6a5.15 5.15 0 00-1.84-.18 7.13 7.13 0 00-2.1.9 2.72 2.72 0 01-2.22.44c-.428-.2-.82-.471-1.16-.8a6.25 6.25 0 01.52-.81c.29-.33.605-.637.94-.92.71-.6 1.51-1.12 2.22-1.72a4.62 4.62 0 001.31-1.56c.235-.576.43-1.167.58-1.77v-.09c.54.51 1.02 1 1.53 1.45l.01-.03zm-9.35-5.54c1 .31 2 .52 3 .79.7.186 1.372.461 2 .82.82.519 1.572 1.137 2.24 1.84l.6.61c-.08.23-.15.47-.22.7a5.468 5.468 0 01-.66 1.56 6.92 6.92 0 01-1.71 1.61c-.66.49-1.34 1-1.94 1.49a7.15 7.15 0 00-1.23 1.43l-.42-.36a3 3 0 00-1.17-.63l-.18-.14a28.996 28.996 0 00-5.61-3 15.859 15.859 0 00-1.27-1.45 16.9 16.9 0 00-2.12-1.82 14.835 14.835 0 00-2.36-1.37l-.67-.28.54-.11c.57-.054 1.136-.154 1.69-.3.263-.075.5-.224.68-.43.22-.26.45-.52.67-.79.22-.27.53-.61.79-.91l.21-.25c.132.189.299.352.49.48.467.288.982.491 1.52.6.164.04.332.063.5.07a3.33 3.33 0 001.11-.3c.53-.22 1-.51 1.58-.72.6.382 1.25.681 1.93.89l.01-.03zm-12.17 2.8a14.55 14.55 0 012.56 1.36c.645.447 1.254.946 1.82 1.49l-.49-.2-3.67-1.5a.645.645 0 00.09-.16 1 1 0 00-.32-.96l.01-.03zm-.72-.07c.18.25.48.5.53.8a.24.24 0 01-.07.23c-1.55-.61-3.11-1.2-4.71-1.72a35.675 35.675 0 00-4.33-1.13h.56c.188 0 .376-.02.56-.06.51.11 1.31.31 2.64.64 1 .24 2 .35 3 .54.582.12 1.156.273 1.72.46a.987.987 0 00.09.27l.01-.03zm9-8.67a.92.92 0 00-.13-.19l4.3-2.23.66-.35c.134.19.313.345.52.45-.722.292-1.46.542-2.21.75-.252.09-.483.23-.68.41-.18.18-.36.36-.52.55-.56.6-1 1.24-1.56 1.86-.264.327-.544.641-.84.94a.754.754 0 01-.13-.06c-.09-.07-.12-.12-.08-.21.083-.201.194-.39.33-.56.23-.37.55-.84.3-1.33l.04-.03zm5.83-3.29a.999.999 0 010 .46.69.69 0 01-.27.38 1.462 1.462 0 01-.52-.42l.79-.42zm-8.72 7.72a.35.35 0 00-.18-.06.577.577 0 00-.17 0c-.56.59-1.07 1.21-1.61 1.82l-.34.39a.8.8 0 01-.21.2c-.37.16-.767.252-1.17.27l-.6.08c.028-.244.106-.479.23-.69a2.87 2.87 0 011-1 18.52 18.52 0 013.1-1.32 7.533 7.533 0 001.53-.76 5.89 5.89 0 00.78-.62c.322.12.658.197 1 .23a3.35 3.35 0 00.92 1.63l.3.24-.54.25c-.38.17-.76.36-1.15.5-.278.116-.58.164-.88.14a4.933 4.933 0 01-1.11-.35c-.38-.17-.85-.43-.93-.83a.12.12 0 00-.01-.09l.04-.03zm1.77-3c-.19.31-.32.66 0 1 .075.074.159.138.25.19a4.12 4.12 0 01-.39.34 6.502 6.502 0 01-1.59.83c-.78.29-1.58.53-2.35.86a5.12 5.12 0 00-1.9 1.27 2.64 2.64 0 00-.62 1.39c-.231.05-.458.117-.68.2-.33-.11-.66-.23-1-.33a18.613 18.613 0 00-2.47-.5c-1.36-.19-2.48-1-3.74-1.12l1.34-.2c.94-.17 1.86-.41 2.78-.66a44.683 44.683 0 005.31-1.93c1.89-.81 3.72-1.7 5.53-2.62a.33.33 0 01.11.27c-.09.36-.43.7-.62 1.01h.04zm6.37 3.6a11.992 11.992 0 00-1.83-.49 2.76 2.76 0 00-1 .11 3.052 3.052 0 01-.79-.77 2.572 2.572 0 01-.36-.82h.74a3.92 3.92 0 011.45.2c.11.053.21.127.29.22l.46.43 1.17 1.12h-.13zm5.71-.32a5.87 5.87 0 01-1.93.81 4.792 4.792 0 01-1.36.05 6.324 6.324 0 01-.76-.11 2.32 2.32 0 01.93-.82c.415-.23.855-.415 1.31-.55a2.25 2.25 0 011.09.07c.34.095.673.209 1 .34-.11.07-.21.15-.32.21h.04zm4.69-14.35l.48-.48a8.722 8.722 0 001.66 1.6c.8.58 1.68 1.07 2.54 1.59.41.25.83.51 1.21.79a4.3 4.3 0 00.2.7c.109.268.193.546.25.83a.3.3 0 01-.17.33 1.38 1.38 0 01-.41.19 3.52 3.52 0 01-2-.32.71.71 0 00-.41 0c-.16 0-.21.17-.25.29-.08.286-.1.586-.06.88.07.69.33 1.34.42 2 .081.336.042.69-.11 1a2.72 2.72 0 01-.7.74 3.5 3.5 0 01-2 .64 8.553 8.553 0 01-.88 0 .46.46 0 00-.37.12 4.178 4.178 0 00-.44.4 26.331 26.331 0 01-2.94 2.61l-1-.35a4.138 4.138 0 00-1.39-.23 2.922 2.922 0 00-.6.14 5.48 5.48 0 00-1.77.9 1.93 1.93 0 00-.54.64l-.27-.26-1.07-1-.93-.89a1.729 1.729 0 00-.86-.44 13.433 13.433 0 00-2.1-.18h-.06a7.996 7.996 0 01-.84-.09l-.34-.08c.19-.2.38-.41.55-.62.52-.62 1-1.27 1.51-1.89.21-.25.43-.49.66-.73a1.44 1.44 0 01.48-.36c.72-.34 1.53-.44 2.24-.79a1.3 1.3 0 00.72-.66 1.24 1.24 0 000-.69 40.61 40.61 0 008.05-5.18l.21-.19a3.53 3.53 0 001.33-.96zm1.18-3.38a13.23 13.23 0 01-3.21 3.9 39.066 39.066 0 01-7.87 4.91 7.234 7.234 0 01-.49-1.15.75.75 0 010-.51.84.84 0 01.36-.31 3.45 3.45 0 011.14-.36c.84-.13 1.68-.13 2.52-.27.371-.05.732-.158 1.07-.32a2 2 0 00.8-.73c.61-1 .58-2.1 1.11-3.09-.303.641-.54 1.311-.71 2a3.34 3.34 0 01-.71 1.37 2.62 2.62 0 01-1.43.65c-.83.15-1.67.13-2.51.24-.397.04-.786.13-1.16.27-.33.15-.67.36-.7.7.002.348.088.691.25 1 .1.22.19.43.28.65l-.84.42a7.207 7.207 0 010-1.54c.04-.355.06-.713.06-1.07a3.48 3.48 0 00-.2-1c-.21-.66-.52-1.29-.68-2a1.79 1.79 0 01.32-1.71 1.63 1.63 0 00-.43 1.22 6.69 6.69 0 00.54 2c.124.325.22.66.29 1a4.1 4.1 0 010 1.05 9.12 9.12 0 00-.12 2.08l-.76.38c-3.44 1.71-6.85 3.49-10.45 5a42.731 42.731 0 01-5.21 1.82c-.9.23-1.81.46-2.74.61-.23 0-.47.06-.7.09.32-.15.64-.32.95-.49.639-.378 1.244-.81 1.81-1.29a13.75 13.75 0 002.65-3.15 9.528 9.528 0 001-2 13.57 13.57 0 00.44-2.18c.1-.73.2-1.46.36-2.19.097-.436.217-.867.36-1.29.136-.443.3-.877.49-1.3a.54.54 0 01.05-.11 4.53 4.53 0 011.26-1.48c.642-.514 1.31-.995 2-1.44l.4-.27a21.907 21.907 0 013.47-1.11c.81-.2 1.62-.38 2.43-.59.65-.16 1.28-.36 1.92-.57a33.547 33.547 0 003.81-1.58 11.652 11.652 0 012.24-.86 5.849 5.849 0 011.09-.16l.22.15a14.195 14.195 0 002.6 1.42 9.66 9.66 0 002.36.6c.194.27.461.478.77.6l.19.07a8.338 8.338 0 01-.73 1.92h.04zm-12.21-8.17c.719.182 1.427.406 2.12.67.9.335 1.76.764 2.57 1.28.59.38 1.16.78 1.73 1.18h-.13a8.13 8.13 0 00-2.27.67c-1.24.53-2.45 1.12-3.73 1.58-.64.22-1.28.43-1.93.61-.82.23-1.65.4-2.47.59-.82.19-1.75.41-2.6.67a14.119 14.119 0 001.51-1.25 23.71 23.71 0 002.57-3.31 8.16 8.16 0 012.59-2.69h.04zm7.62 3.39h.39c.62.055 1.234.152 1.84.29.31.067.614.158.91.27.707.304 1.378.686 2 1.14l.17.12a9 9 0 01-3.29-.7 13.195 13.195 0 01-2.06-1.12h.04zm5.36 2.62a1.581 1.581 0 01-.65-.43h.73c-.03.16-.09.3-.12.43h.04zm4 .14a5.34 5.34 0 011.91.1 6.74 6.74 0 012.23 1.31l.31.24c-.869.065-1.741.065-2.61 0a8.305 8.305 0 01-1.65-.32 9.192 9.192 0 01-2-.95c-.08 0-.15-.1-.22-.14.62-.08 1.3-.18 1.97-.24h.06zm-2.67 0a5.213 5.213 0 01-.68 0c0-.13 0-.26.07-.39l.61.39zm11.63-2.9c.416.004.831.044 1.24.12l.27.08-.29.1a27.8 27.8 0 01-2.78.77 8.37 8.37 0 01-2.65.2 4.302 4.302 0 01-2.08-.83c.34-.21.66-.43 1-.66h.2c1.6.28 3.33.16 5.03.28l.06-.06zm-10.55-4c.567.47 1.092.989 1.57 1.55A9.925 9.925 0 0097.77 41a5.13 5.13 0 001.66.7c-.32.21-.64.42-1 .62a12.262 12.262 0 01-3.88 1.42c-.524.11-1.055.18-1.59.21.04-.359.06-.72.06-1.08a12.79 12.79 0 00-1-4.25c-.21-.57-.43-1.13-.66-1.69h.15l.25.12c.44.194.894.35 1.36.47.373.08.75.14 1.13.18l.36.24zm10.09-3.35a1.22 1.22 0 01-.15.7.818.818 0 01-.62.31 1.15 1.15 0 01-.27-.31l-.07-.12 1.11-.58zm-12.1.86a2.56 2.56 0 011.78-.51c.68 0 1.31.2 2 .27.67.056 1.345.005 2-.15.81-.18 1.59-.42 2.39-.62l.73-.17.31-.05.31-.05h.13a.647.647 0 01.28.21c.115.12.219.25.31.39l.09.14c-.29.14-.56.3-.85.43a18.623 18.623 0 01-5.32 1.77c-.79.13-1.594.15-2.39.06a5.188 5.188 0 00-1.22-.54 5.257 5.257 0 00-1.25-.2c.138-.38.356-.724.64-1.01l.06.03zm29.9-19c1 .21 2 .44 3 .73.45.14.89.28 1.33.44l-.22.12c-.79.51-1.53 1.08-2.3 1.6a9.007 9.007 0 01-2.08 1.1 5.45 5.45 0 01-2.3.25c-1.65-.14-3.19-.65-4.86-.71a6.218 6.218 0 00-1.77.13l-.29.07c.069-.078.146-.148.23-.21.11-.1.36-.25.32-.41a.447.447 0 00-.3-.37c-.09 0-.5 0-.5-.08a.494.494 0 01.22-.33c.22-.19.48-.35.69-.54.202-.188.335-.438.38-.71a1.6 1.6 0 01.23-.72.711.711 0 01.45-.21c.3-.07.62-.1.92-.15a6.94 6.94 0 001.36-.34c1.818-.108 3.641.01 5.43.35l.06-.01zm-15.63 3.33a23.998 23.998 0 013.85-2.15 19.045 19.045 0 015.81-1.5h.12a7.826 7.826 0 01-1.07.22 5.756 5.756 0 00-1.16.2.874.874 0 00-.49.69c-.03.33-.163.64-.38.89-.32.213-.618.457-.89.73-.11.12-.16.33 0 .42.16.09.36 0 .51.09a.28.28 0 01.18.24c-.126.128-.26.248-.4.36a.574.574 0 00-.19.31 8.227 8.227 0 00-1 .48c-1 .54-2 1.18-3.06 1.66l-.69.1a4.511 4.511 0 01-1.93-.11 1.995 1.995 0 01-1.16-1.07c.51-.54 1.18-1.06 1.89-1.55l.06-.01zm-2.54 2a2.688 2.688 0 001.57 1.2c.121.036.245.063.37.08a8.34 8.34 0 01-1 0c-.68-.06-1.33-.18-2-.3.29-.34.64-.67.98-.98h.08zm-14 6.52l1 .25c.325.092.662.136 1 .13.283-.01.557-.1.79-.26a3 3 0 00.7-.62 7.26 7.26 0 011.27-1.39h.79c.333.02.667.02 1 0a2.6 2.6 0 001.78-.51 2.87 2.87 0 00.7-1.63c0-.29.08-.58.12-.87.006-.26.053-.516.14-.76a4.549 4.549 0 011.8 0c.38 0 .76.12 1.14.19-1.14 1-2.25 2.06-3.39 3.07a24.35 24.35 0 01-8.75 5.42c-.42-.42-.87-.82-1.26-1.26a14.01 14.01 0 01-.16-1.59 1.765 1.765 0 010-.23 2.27 2.27 0 011.25.06h.08zm-1.64.24c0 .33 0 .67.05 1a1 1 0 01-.1-1h.05zm.78 3.07c-.05-.2-.09-.41-.13-.62l.53.52-.4.1zm.57 1.86c-.14-.42-.28-.85-.41-1.27l.7-.2c.355.368.58.842.64 1.35a4.64 4.64 0 01-.31 1.74c-.27-.54-.47-1.09-.67-1.62h.05zm-8.92 4.79c.347.083.683.207 1 .37.363.16.742.285 1.13.37a6.752 6.752 0 002.29.11c.342-.019.68-.09 1-.21a16.61 16.61 0 002.15-1.08 8.42 8.42 0 012.2-.87c.18.49.37 1 .54 1.46.305.835.562 1.686.77 2.55.15.588.22 1.193.21 1.8a8.238 8.238 0 01-.07 1 13.133 13.133 0 00-1.9-1.18 8.997 8.997 0 00-2.56-.68 9.274 9.274 0 00-1.5-.13c-.86-.59-1.69-1.22-2.59-1.77a17.216 17.216 0 00-3.84-1.64 2.4 2.4 0 011.12-.1h.05zM58.25 62.6a8 8 0 010-1.83c.031-.299.091-.593.18-.88a1.9 1.9 0 01.15-.46c.05-.116.107-.23.17-.34.235-.339.51-.648.82-.92.67-.61 1.44-1.13 2.16-1.7a5.52 5.52 0 001.67-1.84 1.59 1.59 0 000-1.5c-.3-.58-1-1-1.34-1.5a1.38 1.38 0 01-.25-.8c.005-.142.025-.283.06-.42l.06-.19v-.05c0 .04.1-.15.15-.19.187-.14.392-.255.61-.34.44-.2.9-.36 1.34-.55.79-.34 1.64-.79 1.87-1.55a7.896 7.896 0 00.34-1.87c.05-.83 0-1.67 0-2.5a6.67 6.67 0 01.36-2.43A4.18 4.18 0 0168.15 39c.83-.63 1.79-1.13 2.7-1.69 1.53.18 3.06.38 4.59.62 1 .16 1.93.34 2.89.56-.25.168-.488.355-.71.56a27.46 27.46 0 00-2.94 3.74c-.386.512-.804 1-1.25 1.46-.415.392-.856.757-1.32 1.09-1.33 1-2.82 1.76-4.09 2.79a5.84 5.84 0 00-1.45 1.62c-.117.22-.221.447-.31.68-.28.691-.517 1.4-.71 2.12a15.365 15.365 0 00-.39 2.09 15.725 15.725 0 01-.38 2.05 8.24 8.24 0 01-.91 2 12.806 12.806 0 01-2.7 3.16 11.379 11.379 0 01-2.79 1.68c-.06-.32-.13-.62-.13-.93zm-1.86 2.53c.4-.09.79-.2 1.17-.32l.08.39c.05.206.08.418.09.63h-1.3l-1.48-.09a6.257 6.257 0 011.44-.61zm19.36 19.5a10.7 10.7 0 01-2 1.24 24.252 24.252 0 01-4.66 1.62c-1.22.31-2.45.58-3.69.85-.78-.39-1.6-.73-2.33-1.17a3.47 3.47 0 01-1.33-1.33 5.49 5.49 0 01-.49-1.95c-.07-.68-.11-1.36-.22-2a6.473 6.473 0 00-.42-1.49 2.44 2.44 0 00-1.65-1.12c-.38-.13-.76-.22-1.14-.35a2.225 2.225 0 01-.52-.23s-.13-.09-.13-.15a.952.952 0 01-.06-.15 1.325 1.325 0 01-.08-.33 1 1 0 01.14-.68c.26-.47.76-.82 1-1.32a1.33 1.33 0 00-.17-1.22 4.64 4.64 0 00-1.51-1.37c-.63-.41-1.3-.78-1.89-1.22a4.48 4.48 0 01-.74-.69 2.193 2.193 0 01-.33-.62 5.852 5.852 0 01-.22-.71 6.788 6.788 0 01-.15-1.49c.002-.458.029-.915.08-1.37.39 0 .78 0 1.16.05.77 0 1.53.17 2.28.29 1.486.264 2.953.628 4.39 1.09 3.05.94 6 2.13 8.91 3.27l1.95.76c.22.26.44.52.64.79a9.918 9.918 0 011.35 2.35c.294.799.532 1.617.71 2.45.194.847.438 1.681.73 2.5.32.86.698 1.7 1.13 2.51.08.16.17.32.26.48-.35.19-.67.46-1 .71zm3.73.6a5.62 5.62 0 01-1.71-1.65l-.06-.09a11.326 11.326 0 011.86-1.32 7.25 7.25 0 012.77-.85c.07.31.13.62.17.94.06.491.06.988 0 1.48a19.987 19.987 0 01-.42 2.13c-.06.25-.13.5-.2.75a22.439 22.439 0 01-2.41-1.39zm14.4 13.23c-1.77-1.25-3.4-2.67-5.16-3.93a22.931 22.931 0 00-3.9-2.32 14.471 14.471 0 00-2.06-.76 15.673 15.673 0 00-1.68-.37c.07-.36.15-.71.23-1.06.18-.75.4-1.49.62-2.23l.1-.05c.73.37 1.45.75 2.15 1.16.603.352 1.182.747 1.73 1.18.604.5 1.17 1.044 1.69 1.63a34.831 34.831 0 004 4.22 6.35 6.35 0 003.63 1.38 1.174 1.174 0 00-.2.06 2.19 2.19 0 00-1.15 1.09zm14.63 2.9c.005.076.005.153 0 .23a17.216 17.216 0 01-4.22.55 15.519 15.519 0 01-4.84-.79 18.264 18.264 0 01-3.31-1.46c-.62-.34-1.2-.72-1.78-1.11a1.681 1.681 0 01.87-.95 3.6 3.6 0 011.56-.24c.58 0 1.14.07 1.71.13.57.06.87.1 1.31.1 1.61 0 3.06-.82 4.56-1.31.5.21 1 .41 1.52.59.405.147.819.267 1.24.36.43 1.3 1.34 2.54 1.38 3.9zm-.54-4.4a9.572 9.572 0 01-2.52-.72c.25 0 .51-.05.77-.06.805 0 1.608.07 2.4.21.52.1 1 .23 1.58.32a5.191 5.191 0 01-2.23.29v-.04zm6.13-3.62l-.55.72a5.465 5.465 0 011.25-1.64l-.7.92zm7.8-3.14c-.306.21-.573.47-.79.77-.23.31-.43.63-.65.94a2.13 2.13 0 01-.76.76 1 1 0 01-.75 0 7.015 7.015 0 01-1-.54 5.432 5.432 0 00-1.3-.64c.24-.177.498-.328.77-.45a15.481 15.481 0 014.8-1l-.32.16zm6.83-2.54c-.4.23-.78.49-1.19.73-.406.25-.839.454-1.29.61-.355.112-.72.189-1.09.23.256-.11.487-.27.68-.47a1.747 1.747 0 00.28-1.6 8.694 8.694 0 01-.36-2.08 1.082 1.082 0 010-.18c.266-.03.534-.03.8 0-.032.32.046.64.22.91a1.203 1.203 0 01-.18-.62 2.615 2.615 0 010-.28c.128.007.255.024.38.05a3.26 3.26 0 011.22.69 9.967 9.967 0 011.39 1.6 3.554 3.554 0 00-.86.41zm3.08 1a1.942 1.942 0 01-1.18-.49 4.371 4.371 0 01-.63-.66c.113-.01.227-.01.34 0 .401.076.78.24 1.11.48.35.21.7.44 1.06.65a2.76 2.76 0 01-.7.07v-.05zm1.86.13a4.336 4.336 0 01-.58-.26h-.05a5.412 5.412 0 01-.52-.3c-.41-.25-.8-.52-1.23-.76a2.23 2.23 0 00-1.28-.32l-.28.05-.48-.66a5.434 5.434 0 00-1.59-1.5 2.68 2.68 0 00-1.06-.33v-.65a.482.482 0 010-.12l.27-.14c.78-.32 1.586-.572 2.41-.75 1.422-.3 2.822-.698 4.19-1.19 0 .08-.07.16-.1.25a5.148 5.148 0 00.11 2.46c.197.795.331 1.604.4 2.42.034.357.017.717-.05 1.07v.15c-.04.25-.09.44-.16.63v-.05zm-6.89-2.97z" fill="#EA0000"/><path d="M112.38 76.25a.272.272 0 000 .09s.14.35.19.31c.05-.04-.18-.28-.19-.31v-.09zm-2.87-25.35l.32.11-.32-.11zm.32.1zm36.5-.74zm-19.29-32.8l.1-.07-.1.07zM126.909 75h-.389c.129-.01.26-.01.389 0zm12.681 3c.2-.12.4-.23.6-.33-.2.113-.4.223-.6.33zm-13.75-5.87a5.85 5.85 0 01.32-.54c-.12.18-.22.41-.32.54zm4.54-10.49h-.1l.2-.06-.1.06zm228.71 58.74l.16-.07-.16.07zm-7.84-37.55a1.318 1.318 0 00-.07.55c0 .4.07.8.09 1.2a2.46 2.46 0 010 .47v.15c.005-.06.005-.12 0-.18.015-.16.015-.32 0-.48 0-.4-.08-.8-.07-1.2a.906.906 0 01.12-.58c.13-.18.41 0 .54.07.361.282.696.597 1 .94.17.18.35.35.53.51.18.16.34.31.55.3.208-.03.412-.08.61-.15l.72-.22c1-.34 2-.73 3-1.07a25.856 25.856 0 013.16-.87 12.247 12.247 0 012.63-.23 11.78 11.78 0 011.59.16c.55.111 1.094.252 1.63.42 1.95.77 3.797 1.777 5.5 3a8.21 8.21 0 001 .57 7.85 7.85 0 001.56.47c1.099.136 2.169.447 3.17.92a2.154 2.154 0 01.87 2.14c0 .38 0 .77-.07 1.16-.042.434-.018.873.07 1.3a1.542 1.542 0 00.63 1c.303.196.643.33 1 .39a4.63 4.63 0 002.79-.55l.31.07a2.759 2.759 0 002.47-.89l.21-.23c.315.095.618.229.9.4.45.26.87.54 1.31.8.786.466 1.65.788 2.55.95.9.17 1.81.29 2.73.4a3.63 3.63 0 011.48.83c.56.59.85 1.31 1.46 1.88.25.248.579.4.93.43a2.72 2.72 0 001.08-.26c.37-.16.73-.35 1.09-.53.36-.193.748-.328 1.15-.4a10.417 10.417 0 011.81 2 14.19 14.19 0 002.21 2.46.596.596 0 01.05.08c.23.271.537.466.88.56.32.195.654.365 1 .51a7.391 7.391 0 001.63.41 3.376 3.376 0 01-1.08 1.08 3.647 3.647 0 01-2.46.35c-.89-.13-1.7-.42-2.57-.61a9.716 9.716 0 00-2.75-.11c-1.09.1-2.18.28-3.27.4-.33 0-.67.08-1 .1h-1.02a1 1 0 01-.34-.3 3.558 3.558 0 01-.35-.52c-.21-.38-.38-.76-.62-1.12a.811.811 0 00-.77-.45 1.68 1.68 0 00-1.19.46 1.999 1.999 0 00-.41 1.18 1.334 1.334 0 01-.17.61c-.07.11-.18.12-.31.13a8.66 8.66 0 01-1.61 0c-1.12-.11-2.21-.3-3.32-.41a18.102 18.102 0 00-3.3-.08c-.711.055-1.415.182-2.1.38a9.23 9.23 0 00-1.72.76c-1.85 1.06-3.23 2.53-5.11 3.55a5.903 5.903 0 01-2.35.79c-1.19.09-1.87-.77-2.66-1.28a7.677 7.677 0 00-3-1.06 4.796 4.796 0 00-1.26-.07c-.489.069-.974.169-1.45.3-1 .26-1.94.59-3 .76a8.933 8.933 0 01-1.46.13h.26a8.83 8.83 0 001.78-.23c1.22-.26 2.39-.71 3.63-.87a6.433 6.433 0 012.77.37 6.26 6.26 0 011.41.65c.415.271.816.565 1.2.88.392.33.879.526 1.39.56a4.233 4.233 0 001.54-.25 9.446 9.446 0 002.22-1.12c.9-.59 1.71-1.24 2.57-1.86a12.09 12.09 0 012.54-1.51 9.087 9.087 0 011.64-.47 13.057 13.057 0 013.19-.14c1.15.08 2.27.25 3.39.41.688.119 1.382.192 2.08.22.273.015.547.015.82 0a.883.883 0 00.78-.83c0-.43.125-.85.36-1.21a1.162 1.162 0 01.88-.29c.133.108.237.25.3.41.11.18.2.37.29.55.168.36.383.696.64 1 .133.18.318.316.53.39.086.01.173.01.26 0h1.01l.91-.08c1.94-.19 4-.66 5.89-.26.64.14 1.25.36 1.89.51a7.017 7.017 0 002.25.2 4 4 0 003-2c.24.015.48.015.72 0-.26.6-.61 1.19-.91 1.79a4.93 4.93 0 00-.58 2c-.86-.27-1.7-.55-2.53-.88-.83-.33-1.48-.62-2.2-1l-.61-.29a32.786 32.786 0 004.29 1.86l1 .34a1.335 1.335 0 000 .2 3.746 3.746 0 001 2.08c.56.66 1.18 1.28 1.68 2s.75 1.27.23 1.86c-.52.59-1.58.22-2.2 0-.44-.14-.87-.31-1.31-.45a4.685 4.685 0 00-1.25-.3 2.297 2.297 0 00-1.1.2 4.284 4.284 0 00-1 .65 9.55 9.55 0 01-1.92 1.5 1.185 1.185 0 01-.42 0l-.46-.05c-.45-.08-.89-.15-1.34-.2a3.84 3.84 0 00-2.45.36 3.45 3.45 0 00-1.2 1.88c-.11.34-.21.69-.3 1a2.839 2.839 0 01-.32.91 6.914 6.914 0 01-2.4-.22c-1.09-.26-2.15-.61-3.23-.89a15.599 15.599 0 00-3.3-.57 9.284 9.284 0 00-2.73.33 26.522 26.522 0 00-3.11 1.09c-.998.439-2.027.8-3.08 1.08a10.622 10.622 0 01-4.73-.25c-2.09-.5-4.1-1.31-6.35-1.38-2.25-.07-4.17 1-5.94 1.92-.83.42-1.66.84-2.53 1.19l.66-.25c1.14-.5 2.21-1.08 3.32-1.61.94-.449 1.93-.784 2.95-1a8.287 8.287 0 013.1 0c2.18.41 4.15 1.25 6.36 1.58.787.124 1.585.157 2.38.1.13 0 .26 0 .39-.06a1.322 1.322 0 01-.33.23c-.17.1-.52.25-.5.45a.54.54 0 00.34.49c.11.05.66.11.65.18-.01.07-.19.27-.35.37-.32.19-.68.34-1 .55-.292.188-.51.471-.62.8a1.84 1.84 0 01-.43.84c-.185.13-.405.199-.63.2h-1.25a8.315 8.315 0 00-2.23.29 5.708 5.708 0 00-2.4 1.57 2.737 2.737 0 01-.51.51 4.49 4.49 0 01-.61.33c-.457.19-.895.421-1.31.69a4.517 4.517 0 00-1 1 6.14 6.14 0 01-.87 1c-.15.12-.43.24-.42 0 .01-.24.1-.4-.06-.51-.16-.11-.32.23-.37.34-.05.127-.124.243-.22.34.09 0 .23-.35.25-.38.02-.03.14-.44.33-.29.19.15.05.36 0 .5s.17.22.36.11c.19-.131.355-.293.49-.48.15-.17.28-.35.41-.52.266-.366.571-.701.91-1a5.981 5.981 0 011.3-.72 3.406 3.406 0 001-.58c.28-.27.53-.56.83-.82a5.62 5.62 0 011.14-.76 6.994 6.994 0 013-.54 8.351 8.351 0 001.58-.08 1.07 1.07 0 00.76-.75c.108-.395.339-.745.66-1a9.7 9.7 0 001.3-.75c.17-.13.27-.38.09-.52-.18-.14-.46-.08-.66-.17a.34.34 0 01-.2-.33l.59-.38a.672.672 0 00.31-.34 12.55 12.55 0 001.47-.43 32.21 32.21 0 016.1-2 9.064 9.064 0 012.85.14 29.85 29.85 0 013.17.82c1.058.362 2.15.617 3.26.76.332.037.668.037 1 0a.577.577 0 00.44-.21 1.76 1.76 0 00.22-.53c.2-.869.509-1.709.92-2.5.199-.366.521-.65.91-.8a3.44 3.44 0 011.43-.12c.537.043 1.071.116 1.6.22.27.05.54.11.81.14.174.04.355.04.53 0 .371-.13.711-.334 1-.6.38-.31.73-.64 1.11-.95a3.236 3.236 0 011.19-.68 2.082 2.082 0 011.08 0 22.76 22.76 0 003.1 1c.492.083.998-.009 1.43-.26a1.78 1.78 0 00.39-.38 1.78 1.78 0 00-.21-2.14c-.49-.72-1.14-1.38-1.71-2.06a3.546 3.546 0 01-.91-1.81l.84.21c.88.202 1.772.349 2.67.44 1.763.163 3.54.079 5.28-.25a18.106 18.106 0 002.6-.68c.64-.22 1.26-.46 1.88-.71.746-.32 1.474-.68 2.18-1.08.79 2.33 1.5 4.76.81 7.05a6.189 6.189 0 01-2.17 3.11 17.63 17.63 0 01-4.29 2.31l-2.35.94c2.58-1 5.32-1.89 7.23-3.63 1.91-1.74 2.33-4.53 1.8-7-.21-1-.51-1.91-.82-2.86.46-.26.91-.53 1.35-.81 1.4-.86 2.74-1.78 4.13-2.66a22.455 22.455 0 018.81-3.62l.44-.05c.13.853.16 1.72.09 2.58a7.54 7.54 0 01-.51 2.09 7.623 7.623 0 01-1 1.86 9.36 9.36 0 01-3.6 2.76c-.689.308-1.401.562-2.13.76-.61.17-1.24.28-1.87.4.62-.11 1.24-.21 1.83-.36a14.83 14.83 0 002.16-.72 9.674 9.674 0 003.68-2.66 8.101 8.101 0 001.73-3.93c.09-.693.11-1.393.06-2.09a16.77 16.77 0 00-.32-2.08c-.18-.89-.42-1.78-.66-2.67a33.305 33.305 0 003.06-1.49 8.066 8.066 0 002.18-1.73c.42.35.84.69 1.3 1a17.884 17.884 0 004.76 2.28c1.59.52 3.23.94 4.87 1.33l.84.2c-.387.18-.755.398-1.1.65a2.495 2.495 0 00-1.11 1.57l.73-.37a3.738 3.738 0 011.67-1.36c1.48-.73 3.29-1.14 4.52-2.14a4 4 0 001.3-2.49c.107-1.28.393-2.54.85-3.74.27-.54 1.1-.72 1.77-.88.41-.1.84-.19 1.24-.32a1.58 1.58 0 00.82-.49 1.635 1.635 0 00.15-1.67 4.108 4.108 0 00-.66-.86 1.169 1.169 0 01-.42-.77c0-.4.46-.76.79-1a14.794 14.794 0 012.07-1.18 7.58 7.58 0 001.95-1.31c.253-.28.455-.602.6-.95a6.42 6.42 0 00.47-2.37v-1.34c0-.2 0-.4-.05-.6l.76.1-.34-.66-.18-.36-.21-.41h-.31l-2.29-.78c-.83-.29-1.72-.47-2.57-.72l-.25-.09c.08-.37.15-.73.2-1.1a7.68 7.68 0 00-.12-2.94 3.706 3.706 0 00-.53-1.25 8.845 8.845 0 00-2.11-1.91 15.964 15.964 0 01-2.27-1.77 2.1 2.1 0 01-.76-1.35c0-.34.36-.61.65-.86.374-.264.71-.576 1-.93a2.006 2.006 0 00.15-2 1.91 1.91 0 00-.9-.74c-.46-.22-1-.4-1.44-.58-.78-.31-1.74-.66-2-1.37a16.46 16.46 0 01-.3-4.65 4.813 4.813 0 00-1.09-3.23c-1.29-1.41-3.4-2.2-5-3.33a4.419 4.419 0 01-1.76-1.92c-.27-.77.28-1.92.64-2.66l-.6-.33a5.456 5.456 0 00-.84 2.42 2.992 2.992 0 001 2.08 8.06 8.06 0 001.2 1l-1 .11c-2.06.2-4.12.44-6.14.81l-.89.19a4.698 4.698 0 00-2.1-.53c-.946.145-1.872.396-2.76.75-.51.1-1.031.14-1.55.12a5.904 5.904 0 01-1-.07 5.758 5.758 0 01-1.51-.52c-.76-.36-1.48-.78-2.26-1.12a11.1 11.1 0 00-1.06-.41 8.384 8.384 0 00-.29-.93c.36-.79.7-1.58 1-2.38a19.99 19.99 0 00.78-2.46c0-.11 0-.23.06-.34.06-.11.22-.19.32-.3a1.48 1.48 0 00.45-1.71 1.764 1.764 0 00-.27-.35 1.168 1.168 0 00-.23-.15 10.034 10.034 0 00-.32-2.3 8.957 8.957 0 00-1-2.42 11.282 11.282 0 00-4.07-3.76 17.748 17.748 0 00-2.47-1.22c-.69-.28-1.42-.51-2.15-.74.73.24 1.48.48 2.18.79.84.363 1.652.787 2.43 1.27 1.586.97 2.9 2.325 3.82 3.94a8.57 8.57 0 01.89 2.41c.138.658.208 1.328.21 2a2.101 2.101 0 00-.56-.07c-.886.082-1.765.226-2.63.43a1.71 1.71 0 01-.87-.08 2.651 2.651 0 01-.85-.73c-.27-.29-.51-.6-.78-.89a2.17 2.17 0 00-.71-.59.998.998 0 00-.43-.06h-.68a11.45 11.45 0 01-1.31 0 2.797 2.797 0 01-1.15-.26 1.399 1.399 0 01-.63-.74 8.368 8.368 0 01-.42-2.13 1.426 1.426 0 00-.11-.45.43.43 0 00-.33-.22 3.412 3.412 0 00-.78-.11 13.263 13.263 0 00-2.69.24l-.6-.51c-.48-.414-.97-.814-1.47-1.2.56-1.1 1.1-2.2 1.54-3.32 1.13-2.95 1.32-6.21-.8-8.82-2-2.41-5.12-3.91-8-5.58.88.52 1.77 1 2.66 1.53a20.897 20.897 0 014.73 3.5 7.394 7.394 0 012 4.12c.38 2.89-.95 5.71-2.36 8.39a23.592 23.592 0 00-2.43-1.66c-.69-.41-1.39-.8-2.12-1.17-.968-.49-1.97-.909-3-1.25a22.853 22.853 0 00-5.71-1.12 3.46 3.46 0 01-.6-.32 4.547 4.547 0 01-.83-.74c-.21-.24-.37-.5-.56-.75a2.725 2.725 0 00-.75-.58 3.336 3.336 0 01-1.56-1.66c-.09-.15-.17-.31-.27-.46a1.415 1.415 0 00-.34-.44c-.13-.11-.28-.11-.3.05-.02.16 0 .32-.09.4-.09.08-.21-.19-.24-.27-.03-.08-.08-.3-.15-.34-.07-.04.13.28.14.3.01.02 0 .43.25.32.25-.11.1-.29.11-.41.01-.12.24-.08.34 0 .229.288.42.604.57.94.166.348.385.669.65.95.31.268.644.506 1 .71.343.173.623.45.8.79.403.603.944 1.1 1.58 1.45h-.35a28.211 28.211 0 00-6.64.58c-1.149.22-2.285.506-3.4.86l-.24-.14.22.14-2.13.68.79-.25 1.37-.41c.56.35 1.11.72 1.65 1.09a9.999 9.999 0 004.56 2.21c1.78.042 3.559-.1 5.31-.42a8.57 8.57 0 013.86.32c.814.34 1.6.745 2.35 1.21.46.26.93.52 1.41.76l-.8-.16c-.57-.11-1.15-.25-1.74-.31-2.14-.21-4.21.54-6.27.92-.37.074-.744.127-1.12.16-.479.04-.961.04-1.44 0a18.492 18.492 0 01-3.17-.6 24.255 24.255 0 00-3.09-.84 2.533 2.533 0 00-2.14.56c-.331.323-.617.69-.85 1.09-.26.41-.52.82-.81 1.22a6.593 6.593 0 01-2.18 2 7.943 7.943 0 01-1.11.49c-.299.1-.622.1-.92 0a4.644 4.644 0 01-1.31-.68c-.41-.27-.8-.56-1.22-.82a3.198 3.198 0 00-1.26-.49c-.431-.02-.856.11-1.2.37-.85.59-1.34 1.41-2.13 2a6.424 6.424 0 01-3 .93 6.599 6.599 0 00-2.94.86 2.065 2.065 0 00-.64 1.91c.164.846.215 1.71.15 2.57a.852.852 0 01-.06.21 4.53 4.53 0 01-1.61-.26 4.313 4.313 0 01-1.52-1 26.413 26.413 0 01-2.12-2.9 3.484 3.484 0 00-1.32-1.16 3.681 3.681 0 00-1.49-.32 6.546 6.546 0 00-1.53.2 25.86 25.86 0 00-3 1l-2.1.82c1.06-.4 2.12-.81 3.2-1.18a8.367 8.367 0 014.1-.71 2.712 2.712 0 011.49.77c.611.67 1.138 1.412 1.57 2.21a6.497 6.497 0 001.87 2.06 4.689 4.689 0 002.4.7 1.069 1.069 0 01-.36.37 4.585 4.585 0 01-1.28.54 20.49 20.49 0 01-3.33.55 40.76 40.76 0 00-6.52 1 32.348 32.348 0 00-5.86 2.64 11.003 11.003 0 01-4.93 1.61 9.612 9.612 0 004.21-1.21c1.6-.76 3.12-1.63 4.77-2.31a16.114 16.114 0 013.1-.94c1.06-.21 2.13-.34 3.2-.46 1.07-.12 2.27-.21 3.4-.36a9.625 9.625 0 003.09-.78c.281-.112.522-.308.69-.56.205-.361.299-.775.27-1.19a23.327 23.327 0 01-.16-2.52c.007-.31.101-.61.27-.87a2.068 2.068 0 011.06-.67 25.625 25.625 0 013.17-.58c.448-.076.888-.2 1.31-.37a4.014 4.014 0 001.17-.82c.37-.34.68-.7 1-1a2.74 2.74 0 011.13-.8 1.38 1.38 0 011 .13c.441.231.863.499 1.26.8a4 4 0 002.72 1.1c.202-.035.4-.093.59-.17a7.941 7.941 0 001.4-.69 7.567 7.567 0 002.08-2.06c.27-.39.52-.79.79-1.18.224-.383.515-.721.86-1a2.519 2.519 0 012.1-.12c1.08.28 2.09.66 3.17.93 1.063.275 2.152.439 3.25.49 1.95.05 3.83-.63 5.73-.94a8.168 8.168 0 012.61 0c1 .18 2.05.43 3.09.61.535.098 1.076.154 1.62.17.25.05.51.11.77.14a12.56 12.56 0 002.74-.1c.31 0 .62-.08.93-.13 1.62 1.44 3.17 2.94 4.84 4.33a30.587 30.587 0 004.82 3.39 21.7 21.7 0 002.62 1.23l.84.29a2.59 2.59 0 00-.71 1.18 3.7 3.7 0 00.19 1.91c.09.31.2.62.3.92l-.12.25a2.875 2.875 0 01-.35.13 3.13 3.13 0 00-2.06-1.74 5.778 5.778 0 00-1.85-.09c-.53.05-1.06.16-1.59.2a16.267 16.267 0 01-4.74-.85c-.24-.06-.48-.12-.72-.16h-.24c-.06 0-.57-.07-.57-.08 0-.01-.22 0-.22 0a.916.916 0 00-.48.25c-.204.188-.385.4-.54.63l-1.58-.79a.597.597 0 00-.47-.46l-.53-.09-1.55-.84a73.931 73.931 0 00-11.47-5.49 23.726 23.726 0 00-6.62-1.41 11.88 11.88 0 00-6.23 1.35c-.1.05-.18.11-.28.17-.33.2-.64.42-1 .62a24.79 24.79 0 00-2.16 1.36 7.998 7.998 0 00-3.37 4.45 9.473 9.473 0 00-.09 2.55c.108.846.162 1.697.16 2.55a1.501 1.501 0 01-.39 1.08 6.732 6.732 0 01-1 .77c-.905.536-1.877.95-2.89 1.23a17.727 17.727 0 00-3 1c-.9.46-1.62 1.1-2.47 1.62a6.655 6.655 0 01-2.38 1 3.51 3.51 0 01-.64.08c.337 0 .672-.04 1-.12a7.27 7.27 0 001.56-.58 14.9 14.9 0 001.54-1c.4-.302.821-.576 1.26-.82.478-.234.972-.43 1.48-.59 1-.32 2-.57 3-.93a7.843 7.843 0 002.51-1.45 1.64 1.64 0 00.26-.26c.127-.16.213-.349.25-.55.083-.415.106-.839.07-1.26-.08-1.67-.47-3.44.24-5.09a7.391 7.391 0 011.75-2.41c.319.44.534.945.63 1.48a2.287 2.287 0 001.37 1.17c.213.076.435.126.66.15h.61c.2 0 .15.23.14.34-.01.11 0 .34-.08.5a6.768 6.768 0 01-.89 2 25.386 25.386 0 01-4 4.47 35.367 35.367 0 01-4.67 4.06 12.453 12.453 0 01-2.69 1.4 6.007 6.007 0 01-1.49.39 4.993 4.993 0 00-1.44.28 7.409 7.409 0 00-1.33.73c-.39.271-.729.61-1 1l-.48.62.28-.32a7.36 7.36 0 01.76-.93 4.443 4.443 0 011-.72 4.574 4.574 0 011.17-.52c.41-.1.84-.09 1.26-.15a7.705 7.705 0 002-.67.552.552 0 010 .35 3.186 3.186 0 01-.12.51.607.607 0 000 .44c.066.107.151.202.25.28.168.147.366.256.58.32.239.055.484.085.73.09.1 0 .15 0 .12.11a1.345 1.345 0 01-.11.28c-.104.173-.218.34-.34.5a9.27 9.27 0 00-.8 1.1 1.341 1.341 0 00-.1 1.06 4.324 4.324 0 001.35 1.66.749.749 0 01-.16.05l-.32.1c-.06 0-.37.11-.33.16.04.05.34-.14.4-.15.06-.01.46-.08.46-.18l-.08-.08-.22-.21a4.191 4.191 0 01-.85-1 1.407 1.407 0 01-.13-1.11c.193-.424.46-.81.79-1.14.164-.183.311-.38.44-.59.116-.142.195-.31.23-.49 0-.21-.24-.23-.45-.25a1.84 1.84 0 01-.71-.15c-.188-.1-.351-.24-.48-.41-.09-.11 0-.31 0-.44a2.31 2.31 0 00.13-.58.635.635 0 000-.23s-.06-.08-.07-.12l.11-.05a20.22 20.22 0 004.9-3.62 52.973 52.973 0 004.38-4.35 11.408 11.408 0 001.6-2.33c.201-.4.352-.823.45-1.26.06-.29.27-.92-.25-1h-.71a2.41 2.41 0 01-.73-.24 2.831 2.831 0 01-.82-.61 3.26 3.26 0 01-.38-1.13 2.093 2.093 0 00-.49-.8c.455-.412.939-.79 1.45-1.13.62-.43 1.3-.78 2-1.18.26-.16.5-.34.76-.49l.48-.25.39-.21a12.1 12.1 0 016.4-.92c2.229.275 4.412.846 6.49 1.7a59.72 59.72 0 015.83 2.69c1.78.92 3.49 1.92 5.23 2.9h-.61c-.93 0-1.86 0-2.79-.05a10.195 10.195 0 01-2.57-.46 6.804 6.804 0 01-1.26-.56 9.181 9.181 0 01-1.86-1.5c-.62-.59-1.19-1.21-1.84-1.79a8.223 8.223 0 00-1.65-1.15 3.622 3.622 0 00-1.21-.37 2.07 2.07 0 00-1.2.3c-.36.2-.7.41-1.09.58a6.08 6.08 0 01-3.51.37c-1-.27-1.88-.76-2.83-1.11a8.149 8.149 0 00-1.41-.38h-.21c.394.047.783.134 1.16.26.8.25 1.53.62 2.29.93.368.168.749.305 1.14.41a4.04 4.04 0 001 .08 6.29 6.29 0 002.55-.53c.71-.32 1.37-.94 2.32-.74.659.162 1.274.47 1.8.9 1.39 1 2.32 2.37 3.67 3.43a6.29 6.29 0 001.3.8 8.17 8.17 0 001.65.54c.878.184 1.772.285 2.67.3h3.01c.44.25.89.49 1.34.73v.05c-.055.344.008.697.18 1a1.28 1.28 0 00.9.5.67.67 0 00.68-.27l.22-.27c.61.3 1.22.61 1.85.89a19.643 19.643 0 005.93 1.71c.31 0 .63.05.94.05a15.52 15.52 0 00-1.54 1.37 6.683 6.683 0 01-2.76 1.89 6.3 6.3 0 01-1 .19c-1-.66-2-1.34-3-2a25.118 25.118 0 00-5.61-2.94 17 17 0 00-6.2-.93 12.76 12.76 0 00-5.63 1.51c-.807.439-1.556.976-2.23 1.6a14.39 14.39 0 00-1.46 1.59 16.123 16.123 0 011.57-1.65 11.787 11.787 0 015-2.58 15.19 15.19 0 016.08-.12c4.49.75 7.72 3.36 11 5.59-1.021.08-2.047.1-3.07.06h-2.83a5.996 5.996 0 00-1.62.3 29.884 29.884 0 00-5.14-1.37c-.96-.146-1.93-.206-2.9-.18-1.041.034-2.07.23-3.05.58a7.565 7.565 0 00-2.39 1.54 11.318 11.318 0 00-1.56 1.8 11.042 11.042 0 011.63-1.82 7.921 7.921 0 012.64-1.53c1-.33 2.046-.502 3.1-.51 1.99.028 3.963.365 5.85 1l1.73.58a2.75 2.75 0 00-.31.09c-.39.16-.77.35-1.16.51a2.14 2.14 0 01-1.21.21 2.513 2.513 0 01-.93-.49l-.92-.67a3.701 3.701 0 00-2.2-.76 2.566 2.566 0 00-.88.2 1.368 1.368 0 00-.65.76 8.855 8.855 0 00-.32 2 1.786 1.786 0 01-1 1.64 9.002 9.002 0 01-2.68.4c-.45.019-.896.089-1.33.21-.3.095-.594.209-.88.34a21.702 21.702 0 01-4.84 1.82c-.46.07-.9.13-1.37.16-.436.03-.874.03-1.31 0a10.002 10.002 0 01-2.1-.47 22.29 22.29 0 01-2.45-1.05c-.76-.39-1.5-.81-2.27-1.2l-.56-.26a2.418 2.418 0 00-.47-.18c-.17 0-.37.11-.48.18-.11.07-.33.23-.49.35a6.302 6.302 0 01-.94.65c-.11.06-.36.16-.44 0a.719.719 0 010-.48c.05-.32.15-.64.22-1 .03-.128.05-.259.06-.39v-.16.13c0 .13 0 .26-.06.38-.08.32-.18.64-.23 1a1.005 1.005 0 000 .45c.06.22.29.2.48.11a5.303 5.303 0 001-.63c.144-.115.294-.222.45-.32.11-.08.34-.26.51-.22.142.037.28.09.41.16l.59.28c.76.39 1.49.81 2.24 1.2a13.29 13.29 0 004.56 1.58 9.306 9.306 0 002.64-.06 14.02 14.02 0 002.56-.72c.82-.32 1.59-.69 2.37-1 .3-.136.607-.257.92-.36.42-.122.853-.192 1.29-.21.878-.01 1.753-.115 2.61-.31.336-.105.642-.29.89-.54.206-.247.344-.543.4-.86.16-.69.15-1.4.32-2.09.051-.323.209-.619.45-.84.241-.166.527-.257.82-.26a2.03 2.03 0 01.66 0 3.99 3.99 0 00-.44 1.45c-.032.668.002 1.338.1 2a5.057 5.057 0 010 1.86c-.05.146-.121.284-.21.41a5.62 5.62 0 01-.62.85 3.71 3.71 0 01-1.87 1.17 6.366 6.366 0 00-1.19.38 2.068 2.068 0 00-.8.68 4.633 4.633 0 00-.72 1.91c-.14.69-.22 1.39-.33 2.09a9.528 9.528 0 01-.52 2 4.123 4.123 0 01-1.11 1.66 8.003 8.003 0 01-3.26 1.6c-.85.24-1.73.42-2.6.61a14.46 14.46 0 00-2.53.69c-.38.16-.29.53-.23.83.06.3.19.65 0 .91a1.412 1.412 0 01-.89.32c-.27 0-.57-.32-.72-.46-.32-.3-.61-.61-1-.9a3.178 3.178 0 00-.42-.29h-.09c.132.06.257.138.37.23.29.238.564.495.82.77.132.14.273.274.42.4.13.143.296.25.48.31a.37.37 0 00.18 0 1.81 1.81 0 00.58-.13.682.682 0 00.4-.81c0-.28-.22-.66-.06-.92s.26-.18.43-.24l.63-.19c.42-.12.85-.21 1.28-.3a21.726 21.726 0 005.08-1.4 4.94 4.94 0 002.3-2.16 13.654 13.654 0 001-4.05 6.67 6.67 0 01.6-1.95 2.08 2.08 0 01.62-.74c.327-.206.69-.349 1.07-.42a5.824 5.824 0 001.2-.39c.343-.17.659-.39.94-.65a5.87 5.87 0 00.7-.8c.156-.2.293-.414.41-.64.24-.638.302-1.33.18-2a12.269 12.269 0 01-.1-2c.017-.297.074-.59.17-.87.079-.203.172-.4.28-.59.35.167.684.364 1 .59.33.24.66.51 1 .74.326.23.711.366 1.11.39.41-.015.813-.107 1.19-.27l1.14-.49c.2-.08.41-.15.63-.22 1.262.455 2.551.832 3.86 1.13a9.26 9.26 0 002.93.22 5.33 5.33 0 002.32-.82c.42.24.86.47 1.33.68.985.43 2.01.765 3.06 1 .555.115 1.116.198 1.68.25l-1 .57c-1.06-.06-2.09-.23-3.15-.27a5.245 5.245 0 00-1.68.17 9.503 9.503 0 00-2.7 1.53c-.84 0-1.69-.12-2.54-.15a8.199 8.199 0 00-2.54.2c-.38.13-.49.43-.65.7a.333.333 0 01-.39.17 1.731 1.731 0 01-.56-.28 1.296 1.296 0 01-.35-.25.497.497 0 01-.07-.37c.041-.293.098-.583.17-.87.115-.361.115-.75 0-1.11a1 1 0 01.06.45 4.666 4.666 0 01-.17.9c0 .15-.07.31-.1.47a.787.787 0 000 .48c0 .1.16.17.25.24.171.12.352.228.54.32a.541.541 0 00.49 0c.131-.113.231-.257.29-.42a1.1 1.1 0 01.32-.33c.185-.09.385-.148.59-.17.877-.1 1.763-.1 2.64 0l1.84.13a8.491 8.491 0 01-2.19 1.23 8.81 8.81 0 002.29-1.22c1.171.1 2.349.1 3.52 0a10.548 10.548 0 001.62-.29 11.376 11.376 0 002.39-1l.14-.08h.55c.183.01.367.01.55 0 .155.736.407 1.45.75 2.12a13.125 13.125 0 002.63 3.44l-.17-.13c-.54-.44-1-.94-1.5-1.4a3.142 3.142 0 00-2.26-1 10.217 10.217 0 00-3 .83 7.558 7.558 0 01-1.5.41c-.309.04-.621.04-.93 0a11.513 11.513 0 01-3-.85 11.298 11.298 0 00-3.06-.81 5.39 5.39 0 00-3 .85c-.9.5-1.71 1.08-2.64 1.54a5.45 5.45 0 01-.89.38 9.283 9.283 0 001.8-.85 23.306 23.306 0 012.74-1.5 4.067 4.067 0 011.51-.35 5.73 5.73 0 011.55.2c1.08.27 2.05.72 3.08 1.07a7.453 7.453 0 002.42.49 9.776 9.776 0 002.94-.79 4 4 0 013-.2c.525.298.998.68 1.4 1.13a6.9 6.9 0 01-.89.9c-.44.37-.908.704-1.4 1-1 .63-2.18 1.15-3.23 1.77l-.31.19v-.12c0-.04-.09-.29-.14-.27-.05.02.13.25.13.27a.565.565 0 010 .13c-.656.38-1.228.89-1.68 1.5a14.244 14.244 0 00-1.06 2.06 10.23 10.23 0 01-1.44 2.37c-.291.35-.627.66-1 .92-.36.23-.71.42-1.1.62a8.61 8.61 0 001.3-.74 6.99 6.99 0 001.11-1.06 13.292 13.292 0 001.57-2.75 6.726 6.726 0 011.13-1.79 6.327 6.327 0 011.17-.94v.07c-.088.28-.195.554-.32.82-.06.15-.13.3-.18.45-.05.15-.11.31 0 .45.124.112.271.197.43.25.192.086.399.134.61.14.42.012.84-.05 1.24-.18.22-.06.91-.34 1.08-.07.151.31.187.665.1 1-.057.34-.144.675-.26 1-.1.33-.22.66-.29 1a1.642 1.642 0 000 1 2.5 2.5 0 00.7.8c.288.226.608.408.95.54a5.58 5.58 0 002.36.31.49.49 0 01.27 0c.171.11.329.242.47.39l.91.88a19.345 19.345 0 002.22 1.87 9.317 9.317 0 01-1.79.42 5 5 0 01-2.32-.51c-1-.39-2-.81-3.11-1.12a9.007 9.007 0 00-2.22-.37 7.209 7.209 0 00-2.22.3 18.46 18.46 0 00-5.54 2.94l-1.27.91a3.08 3.08 0 01-.65.4.59.59 0 01-.32 0 6.84 6.84 0 00-2.92 0 4.798 4.798 0 00-1.26.5c-.389.21-.73.5-1 .85a1.91 1.91 0 00-.25 1.18c0 .42.09.84.15 1.26.08.412.12.83.12 1.25.041.424-.069.849-.31 1.2-.27.29-1.05-.16-1.3-.27a4.401 4.401 0 00-1.47-.43 2.178 2.178 0 00-.76.07 1.573 1.573 0 00-.56.24.563.563 0 00-.08.54c.033.195.076.39.13.58.096.328.17.662.22 1 .005.06.005.12 0 .18v-.11a5.255 5.255 0 00-.16-.88c-.1-.325-.164-.66-.19-1 0-.19.06-.28.27-.38.186-.081.381-.141.58-.18a5.002 5.002 0 012.58.69c.169.077.354.115.54.11a.473.473 0 00.38-.32c.153-.332.232-.694.23-1.06 0-.85-.22-1.67-.24-2.51a1.688 1.688 0 01.32-1.19 3.35 3.35 0 011-.79 5.188 5.188 0 012.82-.49c.393.043.783.106 1.17.19a.659.659 0 00.51-.1 5.82 5.82 0 00.64-.41 28.378 28.378 0 015.36-3.23 8.866 8.866 0 012.7-.69 7.334 7.334 0 011.82.13c1.073.23 2.122.565 3.13 1 .762.35 1.551.638 2.36.86a6.22 6.22 0 003-.39l.19-.05c.469.32.964.602 1.48.84.558.25 1.152.412 1.76.48a7.069 7.069 0 001.84-.05.17.17 0 000 .17.43.43 0 00.23.09.622.622 0 00.23 0l.62-.49 1.51-.34a4.16 4.16 0 011.86-.17l-.26.13c-1.406.51-2.855.891-4.33 1.14-.744.164-1.471.398-2.17.7a11.06 11.06 0 00-2.58 1.76c-.28.23-.54.47-.81.72a6.18 6.18 0 00-.55-1.24 5.316 5.316 0 00-.76-1 5.413 5.413 0 00-.95-.75c.277.193.544.4.8.62.278.252.52.542.72.86.284.482.512.996.68 1.53-.47.43-.95.87-1.45 1.29-.32.28-.65.54-1 .8-.213.164-.454.29-.71.37-1 .3-2.11.31-3.11.62a1.767 1.767 0 00-1.06.7 1.544 1.544 0 00-.1 1c.14.81.56 1.56.72 2.36l-.24-.12a15.979 15.979 0 01-2-1.52 7.752 7.752 0 00-1.48-.94c.278.132.546.285.8.46.69.48 1.27 1 1.93 1.54.312.248.646.466 1 .65.074.19.074.4 0 .59a1.142 1.142 0 01-.53.33 4.856 4.856 0 01-1.58.26c-1.13 0-2.25-.08-3.39 0a5.329 5.329 0 00-1.49.23 2.74 2.74 0 00-1.17.76 12.517 12.517 0 00-1.55 2.9 7.85 7.85 0 01-1.71-.59 6.394 6.394 0 01-1.94-1.52 9.404 9.404 0 01-1.08-1.66 8.902 8.902 0 001 1.63 6.054 6.054 0 001.87 1.54 8.052 8.052 0 001.8.65 4.375 4.375 0 01-.41.64c.158-.2.302-.41.43-.63.19 0 .37.11.57.15.787.123 1.583.176 2.38.16a30.68 30.68 0 005.1-.68c.84-.15 1.69-.29 2.56-.36h.24c0 .19.07.37.09.55a2.08 2.08 0 01-.71 2 1.94 1.94 0 00.78-1.42c.028-.389.001-.78-.08-1.16a7.517 7.517 0 012.06.12 4 4 0 011.77.88c-.45.18-.89.39-1.32.6-3 1.46-6 3.27-9.74 3.38a12.465 12.465 0 01-4.91-.76 9.379 9.379 0 01-3.72-2.65 12.23 12.23 0 01-1-1.5c.294.506.629.987 1 1.44a9.045 9.045 0 001.6 1.55 10.19 10.19 0 004.36 1.83 14 14 0 005.13-.06 21.215 21.215 0 004.93-1.77c1.37-.65 2.68-1.35 4.11-1.93a11.997 11.997 0 013.6-.78c.479-.035.96-.035 1.44 0-.07.29-.13.58-.17.87a9.657 9.657 0 00.43 3.55c.09.37.2.75.31 1.12l-.31.14a8.321 8.321 0 00-1.1-.48 9.47 9.47 0 00-2.58-.47 16.57 16.57 0 00-5 .73c-3.35 1-6.4 2.38-9.62 3.52l-1.51.5a11.33 11.33 0 01-2.67-.21 18.79 18.79 0 01-2.4-.63 7.437 7.437 0 01-1.17-.45A13.568 13.568 0 01410 93.7c-.79-.64-1.55-1.29-2.37-1.9a13.025 13.025 0 00-2.69-1.61c-.326-.14-.66-.26-1-.36a9.458 9.458 0 00-1-2 45.958 45.958 0 00-3-4 16.235 16.235 0 00-3.5-3.47l-.08-.05s.06-.06.07-.09a.48.48 0 00.06-.18c.03-.159.03-.322 0-.48 0-.1-.06-.28 0-.36a1.23 1.23 0 01.44-.28c.194-.04.395-.04.59 0 .18 0 .38 0 .4-.16a1.013 1.013 0 00-.12-.42 5.349 5.349 0 00-.28-.52 3.268 3.268 0 01-.5-1 1.212 1.212 0 01.26-.89c.231-.278.505-.517.81-.71l.21-.15.08-.05c0-.08-.27-.16-.35-.2-.08-.04-.31-.11-.31-.17 0-.06.2.15.25.17l.24.11s.11 0 .13.07a3.597 3.597 0 00-.99 1 1.11 1.11 0 00-.05.87c.133.35.3.684.5 1 .079.144.146.295.2.45.029.077.049.158.06.24 0 .07 0 .07-.11.07-.2-.02-.401-.02-.6 0a1.402 1.402 0 00-.52.19.895.895 0 00-.23.2.502.502 0 00-.05.36c.01.14.01.28 0 .42 0 .07 0 .22-.09.28a6.371 6.371 0 00-1.57-.77 8.68 8.68 0 01-1-.26 3.911 3.911 0 01-.88-.54c-.274-.2-.52-.435-.73-.7a5.976 5.976 0 01-.5-.84c0-.1-.12-.19-.18-.29l.31.56c.159.352.383.67.66.94.307.28.642.528 1 .74.357.178.737.306 1.13.38.406.108.796.269 1.16.48a10.02 10.02 0 012 1.43 27.447 27.447 0 013.25 3.79 20.326 20.326 0 012.65 4.06c.08.185.147.375.2.57l-.69-.2a20.906 20.906 0 00-3.28-.48c.12-.62.3-1.23.42-1.83.083-.327.12-.663.11-1a.998.998 0 00-.13-.48 1.948 1.948 0 00-.18-.24 6.123 6.123 0 00-1.83-1.44c-.75-.41-1.56-.72-2.34-1.09a7.704 7.704 0 01-1.12-.64 8.686 8.686 0 01-.91-.8 11.41 11.41 0 00-1.12-1 5.464 5.464 0 00-1.19-.65 3.14 3.14 0 00-.76-.2c.173.029.344.073.51.13a5.45 5.45 0 011.8 1c.62.51 1.12 1.1 1.79 1.58.734.445 1.503.83 2.3 1.15a9 9 0 012.18 1.31c.25.22.477.465.68.73a1.16 1.16 0 01.18.91 15.969 15.969 0 01-.46 2.05c0 .15-.06.29-.09.44-1.07-.08-2.14-.13-3.2-.2a14.547 14.547 0 01-3.19-.49 2.118 2.118 0 01-.68-.31.997.997 0 01-.31-.45 1.574 1.574 0 00-.27-.55.68.68 0 00-.61 0 5.588 5.588 0 00-.71.3 1 1 0 00-.36.24 1.1 1.1 0 00-.1.59v.29a10.009 10.009 0 00-1.81-.63c-.89-.24-1.8-.44-2.7-.67-.9-.23-1.7-.43-2.53-.71l-.47-.2-.24-.48a6.623 6.623 0 00-.69-1.09 4.763 4.763 0 00-1-.93 7.389 7.389 0 00-1.38-.68 3.816 3.816 0 01-1.21-.67 2.587 2.587 0 01-.61-1 7.79 7.79 0 01-.34-2.45 16.646 16.646 0 00-.47-5.07 5.84 5.84 0 00-2.37-3 26.193 26.193 0 00-5.86-2.53c-.51-.18-1-.36-1.5-.57l-.73-.34c-.19-.1-.4-.18-.47-.36-.14-.34.16-.77.26-1.1a.813.813 0 00-.33-1.05 2.069 2.069 0 00-.67-.25.558.558 0 00-.22 0 1.43 1.43 0 00-.65.29l-.58.42c-.364.29-.745.556-1.14.8a3.76 3.76 0 01-.5.22h.12c.194-.077.381-.171.56-.28.47-.29.88-.62 1.32-.93.21-.15.65-.52 1-.43.387.047.743.236 1 .53.21.35 0 .75-.14 1.1-.14.35-.31.78.12 1 .929.512 1.907.931 2.92 1.25 1 .38 2 .74 3 1.17a9.639 9.639 0 013.63 2.46c.515.64.859 1.4 1 2.21.17.829.25 1.674.24 2.52v2.58c-.015.834.156 1.66.5 2.42.181.402.468.748.83 1 .436.26.895.48 1.37.66a4.371 4.371 0 012 1.72c.119.184.23.374.33.57-.37-.17-.72-.35-1.07-.55-1.25-.74-2.36-1.61-3.55-2.4-.33-.22-.68-.43-1-.63.56.32 1.07.68 1.57 1a28.234 28.234 0 004.13 2.65c.07.15.15.3.21.46.085.163.142.338.17.52a6.299 6.299 0 01-.36 2.26c-.253.78-.424 1.584-.51 2.4-.02.223-.02.447 0 .67.033.38.107.755.22 1.12-.269.04-.542.04-.81 0a1.848 1.848 0 01-.93-.45 1.823 1.823 0 01-.39-1.1 5.61 5.61 0 010-.58c0-.65.09-1.31 0-2a2.187 2.187 0 00-.31-1.1 2.442 2.442 0 00-1-.8 13.485 13.485 0 00-3.09-.81 6.34 6.34 0 01-1.53-.47 9.502 9.502 0 01-1-.59c-.89-.55-1.74-1.12-2.67-1.64-.956-.527-1.96-.96-3-1.29a11.567 11.567 0 00-3.19-.51c-1.99.038-3.958.431-5.81 1.16-1 .35-2 .74-2.95 1.09l-.77.24a2.287 2.287 0 01-.53.13c-.21 0-.46-.25-.57-.35l-.49-.46a6.123 6.123 0 00-1-.93c-.13-.19-.41-.26-.51-.01zM399.8 89a6.72 6.72 0 00-.14 1.49 6.298 6.298 0 002.15 4c.495.481 1.02.932 1.57 1.35.32.25.59.53.91.77a9.646 9.646 0 004.87 1.78c1.857.127 3.722-.01 5.54-.41a40.09 40.09 0 004.31-1.15 13.014 13.014 0 002.64-.46c1.75-.47 3.45-1 5.23-1.37.89-.18 1.77-.34 2.67-.47 1.12-.15 2.26-.24 3.39-.35 1.13-.11 2.38-.24 3.56-.43-.768.378-1.507.813-2.21 1.3a30.62 30.62 0 00-4 3.64 10.453 10.453 0 01-4.25 3 4.268 4.268 0 01-2.29.14 7.558 7.558 0 01-1.29-.6 8.619 8.619 0 00-1.42-.64 10.19 10.19 0 00-3-.48 5.564 5.564 0 00-1.35.12c-.885.214-1.754.492-2.6.83a7.15 7.15 0 00-.94-.18c-.895-.09-1.796-.09-2.69 0-.91.1-1.78.29-2.69.4h-.36a6.63 6.63 0 01-1.61-1.07 4.51 4.51 0 01-.37-.39c-.13-.28-.25-.56-.39-.84a5.936 5.936 0 00-2.42-2.61l-.24-.11-.26-.22a7.364 7.364 0 00-2.9-1.32c-2.06-.47-4.23-.61-6.35-.91a7.862 7.862 0 01-.85-.33 1.631 1.631 0 01-.77-.66 1.364 1.364 0 01-.11-.74 20.11 20.11 0 01.46-2 1.608 1.608 0 00-.06-1 1.34 1.34 0 00-.48-.53 5.373 5.373 0 00-.57-.33 4.005 4.005 0 010-.49.647.647 0 01.15-.45c.147-.098.304-.178.47-.24.232-.12.482-.205.74-.25a.389.389 0 01.43.28c.15.35.22.74.66.95.957.38 1.971.6 3 .65 1.31.19 2.57.26 3.86.33zm-9.31-.18v-.41c.227.113.442.25.64.41a.995.995 0 01.24.34 5.748 5.748 0 00-.83 0c-.04-.08-.05-.16-.05-.3v-.04zm25.33 12.3a7.302 7.302 0 011.92-.37c.391-.01.782.01 1.17.06.631.063 1.252.2 1.85.41.89.32 1.62.89 2.52 1.2h-.93c-.86 0-1.71.12-2.58.15a6.602 6.602 0 01-2.11-.33c-.83-.25-1.64-.6-2.47-.89l.63-.23zM404.04 89.8c.094.309.155.628.18.95v.42c0 .14 0 .26-.16.26s-.33-.05-.49-.05a1.997 1.997 0 00-.55.05 1.905 1.905 0 00-1.27.8c-.152.418-.39.8-.7 1.12a5.733 5.733 0 01-1.1-2.14 4.92 4.92 0 010-2.16c.892.077 1.78.2 2.66.37.483.1.961.226 1.43.38zm13.84 7c-.82.25-1.65.48-2.5.68a20.637 20.637 0 01-5.48.67 9.689 9.689 0 01-5-1.46c-.23-.15-.44-.31-.65-.47-.21-.16-.36-.32-.55-.48-.48-.39-1-.76-1.43-1.17-.358-.333-.692-.69-1-1.07.211-.158.383-.364.5-.6.103-.314.258-.608.46-.87.22-.178.471-.314.74-.4a1.82 1.82 0 01.62-.11c.2 0 .39.05.59 0 .43 0 .34-.54.33-.78a4.478 4.478 0 00-.17-.94l.5.17c.89.385 1.732.871 2.51 1.45 1.65 1.19 3 2.65 4.8 3.71a12.46 12.46 0 003.3 1.21c.793.236 1.607.4 2.43.49v-.03zm20.18-3.94c-1.4.327-2.82.564-4.25.71-1.11.12-2.23.23-3.34.36-.89.1-1.76.25-2.64.41a50.27 50.27 0 00-5.34 1.36l-1.33.38c1.193-.427 2.373-.867 3.54-1.32 1.56-.59 3.13-1.19 4.76-1.69a19.004 19.004 0 014.94-.92 8.69 8.69 0 012.63.31c.352.122.696.266 1.03.43v-.03zm-8.81-6.36c-.08-.4-.19-.79-.29-1.17a7.69 7.69 0 01-.22-1.26 4.614 4.614 0 01.16-1.27 1.73 1.73 0 00.05-.21c.147.042.297.069.45.08a8.822 8.822 0 002.58-.32 9.664 9.664 0 012.54-.35c.253.004.505.038.75.1.401.13.79.297 1.16.5a8.19 8.19 0 002.31 1 2.62 2.62 0 002-.55c.47-.32.9-.68 1.4-1l.11-.05a11.164 11.164 0 00-2.58 2.5 7.126 7.126 0 00-.88 1.63 3.34 3.34 0 00-.44-.07c-.87-.11-1.73-.07-2.6-.11a4.999 4.999 0 01-1.68-.26 5.99 5.99 0 01-1.85-1.29 8.825 8.825 0 00-2-1.56c1.47.75 2.18 2.16 3.69 2.87.428.166.881.264 1.34.29.91.09 1.82.06 2.72.14.272.022.542.058.81.11-.06.15-.1.3-.15.45-.5-.03-1.001-.03-1.5 0-.876.063-1.743.21-2.59.44-.41.12-.79.26-1.17.41a4.127 4.127 0 00-1.76-.92 7.57 7.57 0 00-2.36-.13zm12.92 1.13a9.514 9.514 0 00-2-.72 1.483 1.483 0 00-.62-.56l-.16-.08a7.495 7.495 0 01.85-1.51 11.565 11.565 0 013.29-2.85 28.663 28.663 0 014.94-2.3c-.365.475-.699.972-1 1.49a15.69 15.69 0 00-1 2.58c-.24.87-.5 1.74-.83 2.6-.2.51-.44 1-.69 1.52-.25.52-.44.82-.69 1.21a12.556 12.556 0 00-2.09-1.38zm-13.76-5.2c.116.054.236.097.36.13-.076.303-.133.61-.17.92-.033.42.001.841.1 1.25.13.59.32 1.18.46 1.77-1.78.13-3.47.57-5.2.86a15.793 15.793 0 01-4.86.16c-.25 0-.48-.11-.71-.16.3-.54.54-1.1.8-1.64a4.097 4.097 0 011.18-1.56 3.667 3.667 0 012-.58c1.13-.05 2.24.08 3.37.08a6.063 6.063 0 001.59-.17c.47-.12 1-.33 1-.74a1.14 1.14 0 00.08-.32zm-.21-3.77a1.783 1.783 0 01.88 1.15c.097.8.019 1.613-.23 2.38 0 .1-.05.2-.07.3l-.37-.1a4.064 4.064 0 00-.2-.85c-.13-.42-.29-.83-.4-1.25a1.999 1.999 0 010-1.21.92.92 0 01.44-.42h-.05zm6.75-3.08v.1c.152.608.352 1.204.6 1.78.338.63.813 1.177 1.39 1.6.77.62 1.63 1.16 2.39 1.78.356.31.69.644 1 1 .223.259.424.537.6.83-.387.314-.819.57-1.28.76a3.22 3.22 0 01-2.43-.5 8.234 8.234 0 00-2.28-1 6.19 6.19 0 00-2 .13c-.88.17-1.72.43-2.63.53-.425.06-.856.06-1.28 0h-.08a9.497 9.497 0 00.42-2.26 2.088 2.088 0 00-.27-1.12 1.93 1.93 0 00-.63-.64c1-.34 2.06-.34 3.06-.58a2.717 2.717 0 001-.4l.78-.58c.58-.48 1.11-.96 1.64-1.43zm10.86-4.71c.58.23 1.14.53 1.71.77.385.169.792.28 1.21.33a3.19 3.19 0 00.55-.06 5.29 5.29 0 001.68-.56c.214-.112.402-.269.55-.46.07.09.15.17.22.25l.84.94.73.81c.192.214.442.367.72.44.607.162 1.225.279 1.85.35.2 0 .39.07.59.12l-.75.26c-.908.36-1.784.795-2.62 1.3a18.373 18.373 0 00-2.37 1.76c-.504.442-.981.913-1.43 1.41a33.769 33.769 0 00-6.23 2.88l-.2.13c-.471.105-.915.31-1.3.6l-.47.35a7.189 7.189 0 00-1.31-1.47c-.65-.55-1.38-1-2.09-1.54a7.472 7.472 0 01-1.83-1.65 5.306 5.306 0 01-.68-1.58c-.08-.24-.15-.48-.22-.71l.67-.6a12.73 12.73 0 012.5-1.77 9.781 9.781 0 012.25-.77c1.09-.24 2.19-.42 3.27-.7a9.177 9.177 0 002.16-.83zm10.81 4.94a.69.69 0 00.09.17l-4.06 1.39-.55.19a15.119 15.119 0 012-1.44 16.38 16.38 0 012.85-1.29c-.22.28-.48.61-.33.98zm1.32-1.26a16.859 16.859 0 011.9-.42c1.07-.16 2.18-.24 3.25-.45l2.91-.57c.2.047.404.074.61.08h.64a41.146 41.146 0 00-4.77 1c-1.77.47-3.5 1-5.21 1.58a.248.248 0 01-.07-.23c.06-.31.4-.55.61-.78l.13-.21zm-9.44-7.31c.147.166.265.355.35.56 0 .1 0 .14-.1.21l-.13.05a11.79 11.79 0 01-.91-1c-.55-.63-1.06-1.29-1.65-1.91l-.56-.55a2.2 2.2 0 00-.74-.44 24.317 24.317 0 01-2.41-.8c.229-.097.431-.248.59-.44l.72.36c1.54.793 3.09 1.58 4.65 2.36a.581.581 0 00-.15.18c-.28.52.09 1.01.34 1.42zm-5.79-4.39a1.59 1.59 0 01-.58.41.74.74 0 01-.29-.39 1.187 1.187 0 010-.46l.87.44zm8.47 7.65c-.1.4-.62.65-1 .81-.395.146-.804.25-1.22.31a2.162 2.162 0 01-1-.16c-.43-.16-.83-.35-1.24-.53l-.6-.27a2.01 2.01 0 00.34-.23 3.341 3.341 0 001.06-1.6 4.89 4.89 0 001.14-.21c.258.244.539.462.84.65a8.461 8.461 0 001.66.8c1.159.371 2.283.843 3.36 1.41.442.239.82.582 1.1 1 .122.216.201.453.23.7l-.66-.09a3.938 3.938 0 01-1.27-.31.897.897 0 01-.23-.2l-.36-.4c-.57-.62-1.12-1.27-1.72-1.87a.687.687 0 00-.18 0 .33.33 0 00-.2.05.118.118 0 00-.049.061.112.112 0 00-.001.079zm-2.4-4.25a.328.328 0 01.031-.151.326.326 0 01.099-.12c2 1 3.94 1.91 6 2.77a51.317 51.317 0 005.78 2.08c1 .28 2 .54 3 .74.48.09 1 .17 1.46.24-1.39 0-2.64.86-4.13 1a22.62 22.62 0 00-2.72.43l-1.11.3a4.425 4.425 0 00-.73-.22 2.602 2.602 0 00-.65-1.41 5.655 5.655 0 00-2.06-1.32c-.83-.35-1.7-.62-2.55-.93a7.684 7.684 0 01-1.72-.87 4.576 4.576 0 01-.42-.35c.102-.054.199-.118.29-.19.32-.31.18-.66 0-1-.18-.34-.55-.62-.57-1zm-6.63 4.49l1.32-1.08.52-.43a.999.999 0 01.32-.21 5.247 5.247 0 011.59-.16h.82c-.09.29-.232.561-.42.8a3.315 3.315 0 01-.89.76 2.88 2.88 0 00-1.12-.14c-.677.093-1.345.237-2 .43l-.14.03zm-6.46-.73c.37-.11.75-.22 1.14-.31a2.869 2.869 0 011.2 0c.493.146.968.344 1.42.59.402.19.747.484 1 .85a8.002 8.002 0 01-.84.09 6.82 6.82 0 01-1.49-.09 7.258 7.258 0 01-2.09-.86c-.12-.11-.23-.2-.34-.28v.01zm-3-13.32l.22.2a45.217 45.217 0 008.7 5.4 1.086 1.086 0 000 .69c.159.317.435.56.77.68.77.37 1.66.5 2.43.85.196.097.375.225.53.38.24.24.48.49.7.75.55.64 1.05 1.29 1.6 1.93l.59.64-.37.07c-.31 0-.62.05-.93.06h-.06a15.998 15.998 0 00-2.3.12 1.99 1.99 0 00-1 .42l-1 .85-1.2 1-.31.26a1.948 1.948 0 00-.57-.65 6.059 6.059 0 00-1.92-.95 2.942 2.942 0 00-.65-.16 4.998 4.998 0 00-1.54.19l-1.07.32a28.485 28.485 0 01-3.16-2.69c-.15-.14-.3-.28-.46-.41a.591.591 0 00-.41-.13h-1a4.18 4.18 0 01-2.22-.71 2.64 2.64 0 01-.74-.75 1.338 1.338 0 01-.1-1c.12-.68.42-1.32.52-2a1.998 1.998 0 00-.05-.88.384.384 0 00-.27-.31 1.129 1.129 0 00-.45 0 4.082 4.082 0 01-2.17.27 1.322 1.322 0 01-.45-.2c-.16-.11-.2-.18-.18-.34.071-.283.172-.558.3-.82.099-.223.179-.454.24-.69.43-.27.89-.52 1.35-.76 1-.49 1.94-.95 2.83-1.52a8.61 8.61 0 001.86-1.55l.51.5a3.89 3.89 0 001.44.94h-.01zm-3.4-6.32l.22-.06c.331-.112.625-.312.85-.58a11.424 11.424 0 002.61-.54 15.583 15.583 0 002.89-1.34l.24-.14a8.1 8.1 0 011.2.18c.833.237 1.643.548 2.42.93a39.452 39.452 0 004.14 1.69c.69.23 1.38.44 2.09.63l2.66.65c1.283.305 2.54.71 3.76 1.21l.44.27c.754.463 1.481.967 2.18 1.51a4.583 4.583 0 011.35 1.51l.06.11c.19.43.354.87.49 1.32.148.418.268.846.36 1.28.149.724.259 1.455.33 2.19.084.744.228 1.48.43 2.2.254.703.59 1.374 1 2a18.37 18.37 0 001.24 1.61 14.879 14.879 0 001.69 1.68c.623.509 1.292.957 2 1.34.34.19.68.36 1 .53l-.77-.12c-1-.18-2-.42-3-.69a47.34 47.34 0 01-5.67-2c-3.91-1.59-7.6-3.46-11.32-5.26l-.83-.41a9.196 9.196 0 00-.1-2.07 3.362 3.362 0 010-1.05 5.04 5.04 0 01.34-1 6.407 6.407 0 00.64-2 1.537 1.537 0 00-.45-1.23 1.636 1.636 0 01.32 1.71c-.19.67-.55 1.29-.81 2-.13.32-.211.656-.24 1-.02.356-.02.714 0 1.07a6.105 6.105 0 010 1.54l-.9-.45.31-.63c.19-.3.297-.645.31-1 0-.33-.39-.56-.76-.71a4.839 4.839 0 00-1.26-.31c-.91-.13-1.83-.14-2.74-.31a2.939 2.939 0 01-1.55-.69 3.154 3.154 0 01-.75-1.39 9.072 9.072 0 00-.73-2c.56 1 .49 2.14 1.15 3.13.212.318.505.574.85.74.371.172.765.29 1.17.35.91.17 1.84.19 2.75.35a3.79 3.79 0 011.25.38.88.88 0 01.38.33c.06.161.06.339 0 .5a7.226 7.226 0 01-.57 1.14 43.007 43.007 0 01-8.5-5.13 13.566 13.566 0 01-3.43-4 8.712 8.712 0 01-.73-1.97h-.01zm17.16-3.08a24.049 24.049 0 002.73 3.38c.506.473 1.048.908 1.62 1.3-.93-.29-1.88-.52-2.83-.75-.95-.23-1.8-.41-2.69-.65-.71-.2-1.41-.43-2.1-.67-1.39-.49-2.7-1.12-4.05-1.69a9.623 9.623 0 00-2.47-.73h-.15c.64-.38 1.27-.76 1.93-1.12.907-.5 1.862-.908 2.85-1.22.77-.24 1.55-.43 2.35-.6a8.565 8.565 0 012.82 2.75h-.01zm-13.5 1.48a10.471 10.471 0 01-3.62.61l.18-.11a10.851 10.851 0 012.22-1.08c.326-.11.66-.193 1-.25a19.369 19.369 0 012-.24h.52a14.63 14.63 0 01-2.29 1.07h-.01zm-3.78 1h.8c-.205.19-.452.33-.72.41 0-.18 0-.28-.07-.42l-.01.01zm-2.07.68l-.24.14c-.702.383-1.448.682-2.22.89a9.087 9.087 0 01-1.82.27c-.952.065-1.908.065-2.86 0l.34-.23a7.786 7.786 0 012.49-1.26 6.66 6.66 0 012.09 0c.75 0 1.49.12 2.23.18l-.01.01zm1.39-.55l.06.39c-.25.015-.5.015-.75 0l.69-.39zm-7.74-2.9h.21c.35.23.7.47 1.07.68a5.08 5.08 0 01-2.31.78 10.359 10.359 0 01-2.9-.27c-1-.23-2-.54-3-.86l-.32-.1c.094-.033.191-.056.29-.07a8.82 8.82 0 011.37-.09c1.85-.07 3.74.11 5.59-.07zm6.43-3.94c.42 0 .83-.08 1.25-.15a10.7 10.7 0 001.5-.43l.28-.12h.15c-.26.55-.52 1.11-.76 1.67a11.597 11.597 0 00-1.2 4.22c-.02.36-.02.72 0 1.08a14.862 14.862 0 01-1.74-.25 14.382 14.382 0 01-4.21-1.54c-.36-.21-.71-.42-1.05-.64a5.853 5.853 0 001.84-.66 9.768 9.768 0 001.78-1.46 12.27 12.27 0 011.77-1.5l.39-.22zm-10.14-2.8l-.09.12a1.01 1.01 0 01-.3.3.887.887 0 01-.67-.33 1.132 1.132 0 01-.14-.7c.41.23.8.43 1.2.63v-.02zm12.77 1.59a6.178 6.178 0 00-1.37.15 5.644 5.644 0 00-1.36.52c-.872.062-1.749.019-2.61-.13a22.457 22.457 0 01-5.8-1.92c-.31-.14-.6-.31-.91-.45l.1-.14c.108-.137.225-.268.35-.39a.799.799 0 01.32-.2h.14l.33.05.34.07c.27.05.54.12.8.18.87.23 1.72.49 2.6.69a7.68 7.68 0 002.23.21c.73-.06 1.43-.2 2.17-.21a3 3 0 011.94.55c.317.288.567.643.73 1.04v-.02zm-27-21c.479.176.975.303 1.48.38.34.06.68.1 1 .17a.94.94 0 01.49.23c.137.22.22.47.24.73.041.278.179.533.39.72.23.2.51.36.74.55a.494.494 0 01.23.34c0 .05-.45 0-.55.07a.446.446 0 00-.33.36c0 .16.22.32.34.42.091.06.172.134.24.22l-.31-.09a8.455 8.455 0 00-1.94-.18c-1.83 0-3.53.49-5.35.57a6.569 6.569 0 01-2.52-.3 10.326 10.326 0 01-2.24-1.16c-.83-.55-1.63-1.13-2.48-1.66l-.24-.14c.48-.14.97-.27 1.47-.39 1.08-.27 2.18-.47 3.29-.65a26.579 26.579 0 016.06-.15l-.01-.04zM416 26.41a2.134 2.134 0 01-1.3 1 5.602 5.602 0 01-2.12.06l-.75-.12c-1.15-.52-2.2-1.18-3.32-1.75a8.844 8.844 0 00-1.13-.51.566.566 0 00-.21-.31l-.43-.37c0-.1.07-.21.21-.24.14-.03.41 0 .56-.07.15-.07.11-.31 0-.43a7.18 7.18 0 00-1-.75 1.526 1.526 0 01-.4-.9.887.887 0 00-.52-.7c-.415-.12-.84-.2-1.27-.24a8.843 8.843 0 01-1.16-.24h.13c2.179.243 4.311.802 6.33 1.66a25.507 25.507 0 014.16 2.26c.82.6 1.54 1.14 2.23 1.69l-.01-.04zm1.7 1.44c-.72.11-1.44.21-2.18.25a8.406 8.406 0 01-1.12 0l.41-.06a3.002 3.002 0 001.75-1.16c.4.35.77.68 1.15 1.01l-.01-.04zm15.5 5.93v.23a14.43 14.43 0 01-.22 1.59c-.44.43-.94.81-1.41 1.22a27.267 27.267 0 01-9.46-5.66c-1.23-1.05-2.42-2.12-3.63-3.17.41-.06.83-.12 1.25-.16a5.238 5.238 0 012 .09c.085.245.132.5.14.76 0 .3.06.59.11.88a2.76 2.76 0 00.72 1.65 3.08 3.08 0 001.94.56h1.62a.999.999 0 01.35 0c.513.412.97.89 1.36 1.42.212.254.465.47.75.64.256.168.553.265.86.28a3.62 3.62 0 001-.1l1.12-.22a2.72 2.72 0 011.55.03l-.05-.04zm.24 1.28c0-.33.07-.66.09-1a.911.911 0 01-.08 1.04l-.01-.04zm-1.28 1.95l.59-.51c-.06.2-.1.41-.16.62l-.43-.11zm-1 3.55a4.142 4.142 0 01-.3-1.75c.077-.519.34-.991.74-1.33l.75.22c-.14.42-.31.84-.48 1.25-.17.41-.42 1.11-.62 1.65l-.09-.04zm11.63 3.58a20.05 20.05 0 00-4.25 1.53c-1 .52-1.93 1.13-2.89 1.7a12.923 12.923 0 00-1.65.08 11.22 11.22 0 00-2.82.61c-.733.318-1.439.696-2.11 1.13 0-.33-.06-.66-.06-1a6.872 6.872 0 01.28-1.79c.251-.858.555-1.7.91-2.52.2-.49.42-1 .63-1.45a9.837 9.837 0 012.38.94c.752.424 1.53.802 2.33 1.13a4.46 4.46 0 001.08.25 8.841 8.841 0 002.52-.05 9.861 9.861 0 001.24-.36c.358-.16.734-.278 1.12-.35a2.99 2.99 0 011.34.19l-.05-.04zm23 25.75a13.06 13.06 0 01-3-1.76 13.356 13.356 0 01-2.87-3.23 8.156 8.156 0 01-.95-2 13.198 13.198 0 01-.36-2.06 17.171 17.171 0 00-.37-2.1 17.007 17.007 0 00-.74-2.14 4.344 4.344 0 00-.31-.69 6.126 6.126 0 00-1.56-1.66c-1.36-1.07-3-1.91-4.41-2.91-.495-.34-.966-.715-1.41-1.12a13.347 13.347 0 01-1.34-1.5 27.903 27.903 0 00-3.12-3.81 6.792 6.792 0 00-.77-.59c1-.19 2.12-.35 3.18-.47 1.68-.2 3.37-.36 5-.5 1 .59 2 1.12 2.92 1.77a4.322 4.322 0 011.56 1.8c.274.782.383 1.613.32 2.44 0 .83-.07 1.67 0 2.5.029.635.14 1.263.33 1.87.24.78 1.16 1.25 2 1.61.48.2 1 .38 1.45.58.232.095.454.216.66.36.05.05.16.13.16.2.004.067.004.133 0 .2.04.133.06.271.06.41a1.302 1.302 0 01-.3.8c-.43.53-1.16.88-1.51 1.45a1.475 1.475 0 000 1.51 5.698 5.698 0 001.78 1.89c.77.59 1.6 1.13 2.32 1.75a5.5 5.5 0 01.87.94c.068.112.128.23.18.35.071.147.124.3.16.46.085.294.142.595.17.9a7.389 7.389 0 010 1.82c.05.36-.01.66-.08.97l-.02-.04zm3.69 2.3h-3.03a2.29 2.29 0 01.11-.63l.09-.38c.42.13.85.25 1.28.35.547.175 1.074.41 1.57.7l-.02-.04zm-24.31 17.5c.11-.16.2-.32.3-.48a21.74 21.74 0 001.31-2.47 23.02 23.02 0 00.86-2.49 15.92 15.92 0 01.84-2.43 9.9 9.9 0 011.53-2.3c.24-.26.48-.52.74-.78l2.15-.7c3.25-1.06 6.48-2.16 9.85-3a40.226 40.226 0 014.84-1c.83-.11 1.66-.2 2.51-.23h1.27c.045.455.065.912.06 1.37a6.814 6.814 0 01-.21 1.49 4.99 4.99 0 01-.26.7 2.017 2.017 0 01-.18.36c-.06.06-.12.18-.2.26a5.394 5.394 0 01-.82.66c-.67.43-1.41.77-2.11 1.17a4.787 4.787 0 00-1.69 1.33 1.187 1.187 0 00-.21 1.21c.21.5.75.87 1 1.35a1 1 0 01.13.68 1.35 1.35 0 01-.09.33c0 .05-.05.1-.07.14-.02.04 0 .08 0 .05s-.1.11-.15.14c-.184.095-.379.17-.58.22l-1.25.31a2.768 2.768 0 00-1.84 1.08 5.86 5.86 0 00-.5 1.48c-.14.67-.2 1.35-.3 2a4.908 4.908 0 01-.58 1.93 3.63 3.63 0 01-1.49 1.29c-.81.43-1.72.75-2.59 1.11-1.35-.3-2.69-.61-4-1a28.336 28.336 0 01-5.07-1.74 13.176 13.176 0 01-2.15-1.29l-1.05-.75zm-5.72 2.63c-.06-.25-.13-.51-.2-.76a19.434 19.434 0 01-.4-2.14 5.64 5.64 0 010-1.48c.049-.314.119-.625.21-.93a8.472 8.472 0 013 .92c.71.393 1.38.856 2 1.38l-.06.08a6.007 6.007 0 01-1.92 1.61 28.43 28.43 0 01-2.61 1.36l-.02-.04zm-14.74 10.37l-.22-.07a7.291 7.291 0 004-1.27 34.926 34.926 0 004.52-4.1 16.364 16.364 0 011.91-1.59 15.86 15.86 0 011.92-1.13c.78-.39 1.58-.75 2.39-1.1l.11.06c.22.74.44 1.49.62 2.24.08.36.16.71.22 1.07a16.768 16.768 0 00-4.12 1.02 26.017 26.017 0 00-4.34 2.21c-2 1.21-3.78 2.58-5.76 3.79a2.32 2.32 0 00-1.23-1.09l-.02-.04zm-13.23-.26c.462-.08.92-.187 1.37-.32.57-.16 1.12-.35 1.68-.55 1.62.53 3.2 1.37 5 1.43.48.008.961-.008 1.44-.05.62 0 1.25-.09 1.87-.08a4.3 4.3 0 011.71.27 1.676 1.676 0 01.92 1c-.63.37-1.28.73-2 1.05a20.515 20.515 0 01-3.66 1.37 18.804 18.804 0 01-5.34.66 20.637 20.637 0 01-4.61-.68.885.885 0 010-.23c.1-1.3 1.12-2.53 1.64-3.83l-.02-.04zm-3.35-.83c.58-.07 1.16-.19 1.74-.27a16.399 16.399 0 012.63-.14c.281.011.562.037.84.08-.895.334-1.83.552-2.78.65a5.915 5.915 0 01-2.41-.28l-.02-.04zm-4.88-4.37c.548.464 1 1.031 1.33 1.67l-.59-.73c-.28-.32-.53-.63-.74-.94zm-8.06-2.59c1.791.116 3.556.49 5.24 1.11.288.133.562.294.82.48a5.995 5.995 0 00-1.43.6 6.866 6.866 0 01-1.13.51c-.264.1-.556.1-.82 0a2.17 2.17 0 01-.81-.78c-.24-.31-.45-.64-.69-1a3.408 3.408 0 00-.85-.79l-.33-.13zm-8-3c.469-.569.991-1.091 1.56-1.56a3.806 3.806 0 011.36-.65c.14 0 .28 0 .42-.05.005.093.005.187 0 .28-.009.224-.086.44-.22.62.199-.256.295-.577.27-.9.293-.025.587-.025.88 0 .004.06.004.12 0 .18a8.683 8.683 0 01-.45 2.07 1.645 1.645 0 00.26 1.61 2.4 2.4 0 00.74.49c-.402-.06-.8-.147-1.19-.26a7.699 7.699 0 01-1.43-.65c-.43-.25-.84-.52-1.28-.77a4.412 4.412 0 00-.98-.4l.06-.01zM383.9 93l1.17-.62c.377-.228.795-.38 1.23-.45.123-.015.247-.015.37 0-.214.23-.449.441-.7.63a2.303 2.303 0 01-1.31.46 3.249 3.249 0 01-.76-.02zm-1.45-.45a.88.88 0 01-.05-.15 3.907 3.907 0 010-1.08c.102-.816.272-1.623.51-2.41a4.51 4.51 0 00.17-2.46c0-.08-.06-.16-.09-.25 1.492.532 3.014.973 4.56 1.32a15.3 15.3 0 012.62.81c.1 0 .2.1.3.15a.482.482 0 000 .12v.65a3.244 3.244 0 00-1.17.29 5.767 5.767 0 00-1.79 1.47l-.55.64a2.275 2.275 0 00-.3-.06 2.64 2.64 0 00-1.41.29c-.47.22-.91.48-1.37.73l-.57.28h-.06c-.21.09-.43.17-.65.24l-.15-.59v.01zm7.8-2.26z" fill="#EA0000"/><path d="M406.249 81.13c.005.03.005.06 0 .09 0 0-.16.34-.22.31-.06-.03.2-.28.21-.31a.25.25 0 00.01-.09zm3.831-25.26l-.36.1.36-.1zm-.36.13c-.2 0-.39.1-.59.13.2-.06.39-.13.59-.13zm-40-1.81a7.17 7.17 0 01-.52.61c.19-.2.35-.4.52-.61zM391.719 22l-.11-.06.11.06zM376.4 82.13c-.21-.12-.43-.24-.65-.34.22.1.44.21.65.34zm15.23-5.5zM386.92 66h.11l-.22-.06.11.06z" fill="#EA0000"/><defs><radialGradient id="paint0_radial" cx="0" cy="0" r="1" gradientUnits="userSpaceOnUse" gradientTransform="matrix(-78.48933 -1.53311 .93281 -47.7565 441.71 68.986)"><stop stop-color="#E20A14"/><stop offset=".18" stop-color="#E9464D" stop-opacity=".76"/><stop offset=".39" stop-color="#F1878C" stop-opacity=".49"/><stop offset=".59" stop-color="#F7BBBE" stop-opacity=".28"/><stop offset=".76" stop-color="#FBE0E1" stop-opacity=".13"/><stop offset=".91" stop-color="#FEF7F7" stop-opacity=".03"/><stop offset="1" stop-color="#fff" stop-opacity="0"/></radialGradient><radialGradient id="paint1_radial" cx="0" cy="0" r="1" gradientUnits="userSpaceOnUse" gradientTransform="matrix(-78.48933 -1.53311 .93281 -47.7565 79.65 67.901)"><stop stop-color="#E20A14"/><stop offset=".18" stop-color="#E9464D" stop-opacity=".76"/><stop offset=".39" stop-color="#F1878C" stop-opacity=".49"/><stop offset=".59" stop-color="#F7BBBE" stop-opacity=".28"/><stop offset=".76" stop-color="#FBE0E1" stop-opacity=".13"/><stop offset=".91" stop-color="#FEF7F7" stop-opacity=".03"/><stop offset="1" stop-color="#fff" stop-opacity="0"/></radialGradient></defs></svg>