<svg xmlns="http://www.w3.org/2000/svg" width="51.45" height="51.75"><defs><style>.cls-1{fill:#5fe6ff}.cls-2{fill:#00d6e3}.cls-3{fill:#004c9f}.cls-4{fill:#bffffb}.cls-5{fill:#f2fffb}.cls-6{fill:#fff}.cls-7{fill:#00067f}.cls-8{fill:#0092df}.cls-9{fill:#1f21ff}.cls-10{fill:#5fbdff}.cls-11{fill:#bff6ff}.cls-12{fill:#0043ff}</style></defs><g id="Layer_2" data-name="Layer 2"><g id="drop"><path class="cls-1" d="M17.59 34.77a6.19 6.19 0 00-11.86 3.54 6.19 6.19 0 0011.86-3.54z"/><path class="cls-2" d="M13.42 42.47a5.59 5.59 0 01-3.32-1l-.47-.57c-1-1.62-.16-3.94 1.85-5.19s4.34-1 5.4.52c0 0 1.08.78.39-.75s-2.68-2.31-4.27-2.35a7.33 7.33 0 00-1.24.11A5.72 5.72 0 008.66 35a4.64 4.64 0 00-1.1 4.65 5.33 5.33 0 002.87 3 6 6 0 01-4.7-4.3 6.19 6.19 0 0111.86-3.54 6.13 6.13 0 01-4.17 7.66z"/><path class="cls-3" d="M13.42 42.47a5.59 5.59 0 01-3.32-1l-.47-.57c-1-1.62-.16-3.94 1.85-5.19s4.34-1 5.4.52c0 0 1.08.78.39-.75A3.24 3.24 0 0016 34a.79.79 0 00.1-.53 3 3 0 00-2.65-2.31 4.27 4.27 0 00-1.07 0A8 8 0 009.8 32a10.21 10.21 0 00-1.47.85l-.66.57c-.27.3-.7.8-.59 1.25s1.26.17 1.61.08l.45-.16-.48.41a4.64 4.64 0 00-1.1 4.65 5.33 5.33 0 002.87 3 6 6 0 01-4.7-4.3 6.19 6.19 0 0111.86-3.54 6.13 6.13 0 01-4.17 7.66z"/><path class="cls-4" d="M17 36.35c-1-1.58-3.48-1.88-5.49-.64s-2.95 3.59-1.95 5.21 3.55 1.88 5.59.62S18 37.94 17 36.35z"/><path class="cls-5" d="M16.34 38.83a1.87 1.87 0 00-2.58-.3A1.83 1.83 0 0012.9 41a1.89 1.89 0 002.59.3 1.82 1.82 0 00.85-2.47z"/><path class="cls-6" d="M13.8 34.7a4.8 4.8 0 001.2.3c.09 0 .43 0 .38-.18s-.47-.08-.62-.07l-.52-.05A3.62 3.62 0 0113 34c-.18-.12-1-.61-1.18-.26-.06.13.12.31.21.38a3 3 0 001.4.47z"/><path class="cls-6" d="M14.81 34.28h.14c.82-.06.65.88 1.24 1.16.24.1.38-.06.37-.29A1.74 1.74 0 0015.7 34a1.34 1.34 0 00-1-.15c-.13 0-.44.28-.33.43s.27.03.44 0z"/><path class="cls-7" d="M17.47 34.59a6.26 6.26 0 00-2.63-2.87 5.3 5.3 0 00-1.41-.58 6.45 6.45 0 00-5.77 1.76A5.53 5.53 0 006.24 36a6 6 0 002.28 5.66l.89.69a6 6 0 01-3.68-4 6.19 6.19 0 0111.86-3.54v.15z"/><path class="cls-8" d="M7.36 34.39l.16.23c.8.49 1.67-.44 2.22-.9a1.53 1.53 0 00.59-.74c.08-.47-.9-.33-1.14-.27a3.45 3.45 0 00-1.19.62 1.78 1.78 0 00-.57.62.8.8 0 00-.07.44z"/><path class="cls-4" d="M13.38 32.88c.2 0 .46-.12.38-.35s-.51-.38-.75-.44a4 4 0 00-1.76-.09 3.2 3.2 0 00-.76.15c-.23.11-.31.35 0 .41a2.88 2.88 0 00.72-.05 3.26 3.26 0 011.32 0 3.84 3.84 0 00.85.37z"/><path class="cls-6" d="M14 32.31c.41.39.54 1 1.19 1 .81.11.41-1 .07-1.25a3.4 3.4 0 00-1.35-.54 2.05 2.05 0 00-.7 0c-.28.05-.27.26-.05.39s.56.17.84.4z"/><path class="cls-9" d="M9.35 42.28a5.89 5.89 0 01-2.17-1.66 6.85 6.85 0 01-1.1-5.94 6.43 6.43 0 013.85-3.9 4.88 4.88 0 011.55-.37 6.26 6.26 0 016.11 4.36v.15l-.16-.33a6.26 6.26 0 00-2.63-2.87 5.3 5.3 0 00-1.41-.58 6.45 6.45 0 00-5.73 1.76A5.53 5.53 0 006.24 36c-.42 2.62 1.24 4.67 3.11 6.28z"/><path class="cls-10" d="M8.81 38.57c-.07-.26-.33-.58-.65-.45s-.34.59-.31.85a2.46 2.46 0 00.37 1c.13.23.56 1.51.91 1.38s-.37-1-.41-1.27c-.1-.49.28-.99.09-1.51z"/><path class="cls-6" d="M9 36.2c.15-.44-.45-.13-.57 0a.76.76 0 00-.12.79l.35.4c.08.17 0 .37.12.55.21.46.35-.2.21-.45s-.54-.6-.3-1c.13-.07.31-.15.31-.29z"/><path class="cls-11" d="M9.29 36.65c.43.11 0 .72-.25.48a.28.28 0 01.25-.48z"/><path class="cls-3" d="M9.15 37c.51-.14.38.71-.07.58-.25-.06-.16-.49.07-.58z"/><path class="cls-6" d="M9.82 36.52c0 .22.06.68-.23.73s-.47-.27-.47-.5c.03-.51.57-.91.7-.23z"/><path class="cls-1" d="M7.59 35.68c-.09-.43-.67 0-.84.11a.72.72 0 00-.14.91 1.78 1.78 0 01.23.53c0 .12 0 .41.15.39.4 0 .19-.76.15-.95-.09-.45.52-.67.45-.99z"/><path class="cls-6" d="M6.85 38.48a5 5 0 00-.2-1.08c-.06-.14-.23-.66-.45-.38s0 .6.06.76A12 12 0 006.87 39c.1.25.14.52.38.69.16-.31-.33-.86-.4-1.21z"/><path class="cls-12" d="M11.08 34.34a1.52 1.52 0 00-1.18.32 7.38 7.38 0 00-.92.73c-.54.57.68.39 1 .25a3.19 3.19 0 01.85-.3 2.44 2.44 0 001-.16c.55-.37-.42-.79-.75-.84z"/><path d="M41.61 41.87a.66.66 0 00.34.34c1.51.54 2.7-1.3 3.48-2.25a2.64 2.64 0 00.77-1.45c0-.8-1.62-.24-2-.06a6 6 0 00-1.91 1.47 3.31 3.31 0 00-.78 1.22 1.2 1.2 0 00.1.73z" fill="#00d5ff"/><path class="cls-1" d="M.36 21.94c-2.32 14 6.8 27.64 21.57 29.58s28.23-8.85 29.42-23.07A26.5 26.5 0 0028.19.19C14.57-1.45 2.67 7.85.36 21.94z"/><path class="cls-2" d="M28.19.19c2.72.32 10.73 7.11 11 9.14a12.15 12.15 0 011 3c1.38 7.83-5.5 15.67-15.36 17.07-9.64 1.35-18.09-3.94-19.33-11.57 0 0-2.51-5-2.76 2.05s5.68 13.86 11.59 16.69a25.65 25.65 0 005 1.78 23.82 23.82 0 0015.27-1.56 18.86 18.86 0 0011.6-16.38c.25-5.63-2.63-11.76-6.64-16a26.22 26.22 0 0111.79 24c-1.19 14.22-14.67 25-29.42 23.07S-2 35.92.36 21.94 14.57-1.45 28.19.19z"/><path class="cls-3" d="M28.19.19c2.72.32 10.73 7.11 11 9.14a12.15 12.15 0 011 3c1.38 7.83-5.5 15.67-15.36 17.07-9.64 1.35-18.09-3.94-19.33-11.57 0 0-2.51-5-2.76 2.05a14.72 14.72 0 002.12 7.86 3.2 3.2 0 00-1.33 1.81C2.1 34.76 4.7 40.4 9.14 43.21a18.66 18.66 0 004.12 2 32.23 32.23 0 0011.48 1.47 41.68 41.68 0 007.37-.82 17.49 17.49 0 003.59-1.16c1.59-.74 4.18-2 4.48-3.88.38-2.43-4.71-2.73-6.23-2.92a15.66 15.66 0 00-2.05-.12l2.65-1A18.86 18.86 0 0046.2 20.41c.25-5.63-2.63-11.76-6.64-16a26.22 26.22 0 0111.79 24c-1.19 14.22-14.67 25-29.42 23.07S-2 35.92.36 21.94 14.57-1.45 28.19.19z"/><path class="cls-4" d="M5.41 17.24c.9 7.94 9.53 13.55 19.42 12.16s17-9.21 15.54-17.06S29.79-.45 20.48.81 4.52 9.33 5.41 17.24z"/><path class="cls-5" d="M11.86 9.08c.51 3.69 4.51 6.24 9 5.66s7.62-4.2 7-7.87-4.69-6.11-9-5.49-7.5 3.98-7 7.7z"/><path class="cls-6" d="M14.26 29.28c-1.34-.94-2.42-2.43-4-3.07-.34-.15-1.64-.63-1.73 0-.11.9 1.62 1.16 2.16 1.39a12.29 12.29 0 011.87 1.14c1.65 1.15 2.59 2.92 3.65 4.56.49.77 2.76 4.09 4.06 3.05.49-.39.11-1.4-.08-1.83-.83-1.87-3-3-4.54-4.2z"/><path class="cls-6" d="M9.68 29.05a5 5 0 01-.54-.17c-3.14-1.32-.84-4.54-2.53-6.7-.68-.85-1.49-.53-1.88.37-.76 1.7.11 4.56 1.06 6.05a5.67 5.67 0 003.67 2.53c.52.08 2.17-.29 2-1.05-.1-.58-1.07-.83-1.78-1.03z"/><path class="cls-7" d="M.44 22.84A26.84 26.84 0 004.8 38.65a20.66 20.66 0 004.27 4.78c6.76 5.57 17.6 6.44 25.83 3.17 4.73-1.87 8.24-5.54 10.78-9.77 5-8.14 4.22-17.56-.29-25.65-.76-1.36-1.56-2.73-2.39-4.06a26 26 0 018.37 21.33c-1.19 14.22-14.67 25-29.42 23.07S-2 35.92.36 21.94l.11-.66z"/><path class="cls-8" d="M38.63 41.29a1.56 1.56 0 00-.24-1.17c-2.33-3.19-7.28-1-10.21-.13-1.18.33-2.94.82-3.66 1.88-1.15 1.67 2.92 2.79 4 3a14.15 14.15 0 006-.4A7.74 7.74 0 0037.81 43a3 3 0 00.82-1.71z"/><path class="cls-4" d="M12.56 37c-.76-.41-2-.42-2.11.64s1.25 2.33 2 3a17.09 17.09 0 006.68 3.5 12.75 12.75 0 003.23.69c1.12 0 1.86-.8.75-1.57a10.9 10.9 0 00-2.92-1 12.88 12.88 0 01-5-2.47c-.92-.92-1.53-2.25-2.63-2.79z"/><path class="cls-6" d="M9.31 38.08c-.82-2.24-.26-4.62-2.53-6.19-2.84-1.95-3.31 2.84-2.58 4.6A12.79 12.79 0 008.27 41a9 9 0 002.61 1.35c1.19.32 1.54-.52.93-1.39-.73-1.04-2.03-1.62-2.5-2.88z"/><path class="cls-9" d="M43.16 7.35c2.59 3 4.8 6 5.93 9.83a27.82 27.82 0 01-4.83 25c-5.13 6.29-14.19 9.16-22.2 8.84a19.79 19.79 0 01-6.78-1.32C4.48 45.2-1.55 33.63.36 21.94l.11-.66v1.56A26.84 26.84 0 004.8 38.65a20.66 20.66 0 004.27 4.78c6.76 5.57 17.6 6.44 25.83 3.17 4.73-1.87 8.24-5.54 10.78-9.77 5.92-9.7 2.26-20.31-2.52-29.48z"/><path class="cls-10" d="M39.71 22.66c-.11 1.14.39 2.8 1.82 2.8 1.26 0 2.22-1.81 2.54-2.83a10.66 10.66 0 00.1-4.67c-.16-1.08.08-6.74-1.46-6.78-1.7 0-.14 4.69-.31 5.6-.4 2.22-2.47 3.63-2.69 5.88z"/><path class="cls-6" d="M35.07 31.53c-1.34 1.43 1.54 1.21 2.3.75a3.28 3.28 0 001.74-2.85c-.08-.76-.67-1.36-.74-2.13s.41-1.54.39-2.32c-.08-2.17-1.63.2-1.54 1.38.13 1.47 1.15 3.24-.42 4.34-.51.36-1.29.37-1.73.83z"/><path class="cls-11" d="M34.83 29.36c-1.49-1.09 1.06-2.82 1.73-1.42a1.14 1.14 0 01-1.73 1.42z"/><path class="cls-3" d="M36 28.15c-2.22-.3-.34-3.35 1.18-2.12.82.73-.18 2.28-1.18 2.12z"/><path class="cls-6" d="M32.54 29c.21-.93.9-2.74 2.11-2.44s1.37 1.79 1 2.66c-.94 1.96-3.74 2.64-3.11-.22z"/><path class="cls-1" d="M39.9 35.9c-.38 1.81 2.57 1.18 3.48.84a3 3 0 002-3.33 6.12 6.12 0 01-.04-2.41c.11-.49.7-1.55 0-1.76-1.61-.44-1.92 2.7-2.08 3.5-.39 1.88-3.04 1.62-3.36 3.16z"/><path class="cls-6" d="M47.2 26.06c-.27 1.59-.89 2.92-.86 4.54 0 .65-.12 2.94 1.17 2.19.66-.39.83-2.37.93-3.06.26-1.94-.51-3.88-.5-5.83 0-1.12.24-2.28-.42-3.27-1.15 1.09-.07 3.97-.32 5.43z"/><path class="cls-12" d="M24 35.35a6.36 6.36 0 005.15.74A30.82 30.82 0 0034 34.76c3-1.33-2-2.61-3.35-2.55a11.65 11.65 0 01-3.79-.21c-1.23-.32-2.71-1.18-4-1-3.02.3-.05 3.59 1.14 4.35z"/></g></g></svg>