<svg xmlns="http://www.w3.org/2000/svg" viewBox="0 0 117.03 56"><defs><radialGradient id="b" cx="-188.26" cy="-819.14" r="1.77" gradientTransform="matrix(2.9 0 0 4.65 660.51 3816.98)" gradientUnits="userSpaceOnUse"><stop offset="0" stop-color="#9bc7e8"/><stop offset=".23" stop-color="#9dc8e8"/><stop offset=".31" stop-color="#85c0e4"/><stop offset=".48" stop-color="#46acdb"/><stop offset=".66" stop-color="#0095d1"/><stop offset="1" stop-color="#0469b1"/></radialGradient><clipPath id="a"><path d="M111 12.72c.31.62 1.3 2.28 1.09 3.47a3.2 3.2 0 01-.83 1.66 8.41 8.41 0 004.31-2.49 5.57 5.57 0 001.5-4c0-1.92-.41-4-3.68-4-3.53 0-3.22 3.89-2.39 5.45" fill="none"/></clipPath></defs><g data-name="Layer 2"><path d="M0 39.34h113.45V56H0zM8.93 2.39v7.47H6.44V2.39h-2V.26H11v2.13zm7.07 0v7.47h-2.5V2.39h-2V.26h6.59v2.13zm3 2.7a4.79 4.79 0 01.41-2 4.79 4.79 0 011.09-1.6A5 5 0 0122.16.42 4.62 4.62 0 0124.29 0a5.57 5.57 0 012.13.36 4.8 4.8 0 011.66 1.09 5.09 5.09 0 011.09 1.61 4.45 4.45 0 01.41 2 4.78 4.78 0 01-.41 2 5.09 5.09 0 01-1.09 1.61 5.32 5.32 0 01-1.66 1.09 5.75 5.75 0 01-2.13.36 5.54 5.54 0 01-2.13-.36 4.8 4.8 0 01-1.66-1.09 4.93 4.93 0 01-1.09-1.61A4.36 4.36 0 0119 5.09zm2.59 0a2.24 2.24 0 00.21 1 2.89 2.89 0 00.57.83 2.7 2.7 0 00.88.58 2.8 2.8 0 002.08 0 3.36 3.36 0 00.88-.5 2 2 0 00.57-.83 2.24 2.24 0 00.21-1 2.25 2.25 0 00-.21-1 3.47 3.47 0 00-.57-.83 2.52 2.52 0 00-.88-.57 2.68 2.68 0 00-2.08 0 3.09 3.09 0 00-.88.57 2.14 2.14 0 00-.57.83 2 2 0 00-.21.92zm82.05 12.71c1.41.31 3 2.08 3 7.22s-1.66 7-3 7.21zm-3.06 14.43c-1.3-.26-3-2.39-3-7.16 0-5.19 1.66-7 3-7.32zm0-20.4V14c-2.85.42-6.28 3.48-6.28 11.21 0 7.48 3.06 10.49 6.23 10.9v2.18h3.11v-2.22c3.27-.52 6.34-3.53 6.34-11s-3.12-10.64-6.28-11v-2.18zm-8.92 10.64h-5.4v-5.08H92v-4.52h-9v24.34h9.34V32.7h-6v-5.76h5.4zm-21.91-9.6v10.64c0 3.69-.2 6.85-1.09 8.36A2.43 2.43 0 0167 33.16l.42 4.47a4.21 4.21 0 002.9-1.2c2.24-2.18 2.7-7 2.7-13.28v-5.71h3.32v19.82h3.33V12.92zM58.28 25.59a8.55 8.55 0 011.15-.16 2.67 2.67 0 012.18 1.09 4.56 4.56 0 01.77 2.8 5.12 5.12 0 01-.72 2.86 2.68 2.68 0 01-2.18 1.24 4.71 4.71 0 01-1.25-.15v-7.68zM55 12.87v24.24a17.06 17.06 0 003.53.36 6.9 6.9 0 006-2.8 10.17 10.17 0 001.4-5.55 9 9 0 00-1.71-5.87 5.3 5.3 0 00-4.15-2 9.74 9.74 0 00-1.77.15v-4.2h6.44v-4.43z" fill="#0095d1"/><path d="M48.37 37.26h3.32V12.92h-3.32zM38.09 26.47h1.15c1.66 0 2.95 1 2.95 3.42s-1.34 3.53-2.85 3.53a4.89 4.89 0 01-1.3-.1zm0-9.55a4.18 4.18 0 011.41-.16c1.5 0 2.33 1 2.33 2.81s-.93 3-2.7 3H38zm-3.32 20.24a17 17 0 003.58.36c2.91 0 4.73-.77 5.76-2.18a8.18 8.18 0 001.51-5.19c0-3.16-1.25-5.29-2.91-6v-.05a6 6 0 002.39-5.19 6.42 6.42 0 00-1.76-4.83c-1.09-1-2.29-1.34-4.31-1.34a17.72 17.72 0 00-4.31.51zM24 26.88l.88-5.19c.21-1.4.47-3.27.67-4.72h.06c.2 1.4.46 3.27.72 4.72l.94 5.19zM27.71 31l1.15 6.23h3.58l-4.57-24.36h-4.31L19.1 37.21h3.42l1-6.23zm-23-18.11v24.32H8V27h5.45v10.21h3.33V12.87h-3.29v9.45H8v-9.4z" fill="#0469b1"/><g clip-path="url(#a)"><path fill="url(#b)" d="M109.82 7.32h7.21v10.59h-7.21z"/></g><path d="M4.72 42.92v7.94H7v-7.94h1.2v7.94h2.23v-7.94h1.19v7.94h.68l-.05 2.7h-.94l-.1-1.82H3.53v-8.82zm14.69 4.31c0 3.32-1.35 4.57-3.06 4.57s-2.91-1.56-2.91-4.52 1.25-4.51 3.12-4.51 2.85 1.66 2.85 4.46zm-4.72.05c0 1.82.41 3.63 1.76 3.63s1.71-1.92 1.71-3.63-.36-3.58-1.76-3.58-1.71 1.82-1.71 3.58zm11.47-4.36v7.94h.72l-.05 2.7h-.93l-.11-1.82h-4.67l-.05 1.82h-.93l-.14-2.7h.73a8.19 8.19 0 00.83-2.39 15.81 15.81 0 00.31-3.58v-2zM23 45.1a18 18 0 01-.26 3.48 11 11 0 01-.72 2.23h3v-7.06h-2v1.35zm9.39 2.44h-2.65v3.32h3v.88h-4.2v-8.82h4.05v.88h-2.8v2.91h2.65v.83zm3.21-4.62v3.79h3v-3.79h1.2v8.77h-1.2v-4.1h-3v4.1h-1.19v-8.77zm7.58 0v3.79h3v-3.79h1.19v8.77h-1.23v-4.1h-3v4.1H42v-8.77zm7.42 0v3.17c0 1.5-.05 2.64-.15 4 .36-.94.93-2.13 1.35-3.07L53.77 43h1.14v8.77h-1.09v-3.09c0-1.87 0-3 .1-4.15h-.05c-.36 1.09-.88 2.08-1.24 3l-2 4.25h-1.12v-8.86zm7.58 0v3.17c0 1.5 0 2.64-.16 4h.06c.36-.94.93-2.13 1.35-3.07L61.35 43h1.14v8.77H61.4v-3.09c0-1.87.05-3 .1-4.15-.36 1.09-.88 2.08-1.25 3l-2 4.25h-1.16v-8.86zm.67-1.61a.83.83 0 00.89.73.82.82 0 00.88-.73h.88c-.15.88-.73 1.25-1.76 1.25s-1.66-.42-1.77-1.25zm13.6 1.61v7.94h.73l-.05 2.7h-1L72 51.74h-4.63l-.06 1.82h-.93v-2.7h.72a8.22 8.22 0 00.84-2.39 16.41 16.41 0 00.31-3.58v-2zm-3.16 2.18a18.88 18.88 0 01-.29 3.48 11.64 11.64 0 01-.73 2.23h3v-7.06h-2v1.35zm11.05 2.13c0 3.32-1.35 4.57-3.06 4.57s-2.91-1.56-2.91-4.52 1.25-4.51 3.12-4.51 2.85 1.66 2.85 4.46zm-4.72.05c0 1.82.41 3.63 1.76 3.63S79.1 49 79.1 47.28s-.37-3.58-1.77-3.58-1.71 1.82-1.71 3.58zm10.59-4.36v.88H83.3v7.94h-1.19v-8.82zm6.17 0v8.77h-1.19v-7.94H89v3c0 2.29-.11 4.05-1.3 4.78a1.9 1.9 0 01-1 .26l-.29-.79a1.09 1.09 0 00.57-.21c.63-.47.83-1.66.83-3.79v-4h4.57zm1.46 8.77a4.51 4.51 0 00.36-.93c.26-.94.31-2.13 1-2.86a1.66 1.66 0 01.77-.41 2.1 2.1 0 01-1.76-2.13 2.15 2.15 0 011-1.92 3.64 3.64 0 012.07-.52 8.66 8.66 0 011.72.16v8.66h-1.2V47.9h-.41a1.64 1.64 0 00-1.2.42c-.57.57-.62 1.87-.88 2.65a3.88 3.88 0 01-.26.77h-1.21zm4-8a2.17 2.17 0 00-.62-.05 1.6 1.6 0 00-1.82 1.66c0 1.09.83 1.71 2 1.71h.41zm8.76-.77v7.94h.73v2.7h-.94l-.1-1.82h-4.67v1.82h-.94v-2.7h.73a8.49 8.49 0 00.83-2.39 15.81 15.81 0 00.31-3.58v-2zm-3.11 2.18a18 18 0 01-.26 3.48 11.64 11.64 0 01-.73 2.23h3v-7.06h-2v1.35zm12.66-33.47l-.1-2.55h-1l-.1.63a4 4 0 00-.11.83c0-.42 0-.58-.1-.83l-.1-.63h-1l-.1 2.55h.62l.05-1.09a6.84 6.84 0 010-1 6.11 6.11 0 01.11 1l.15 1.09h.68l.15-1.09a7.86 7.86 0 00.16-1v2.09zm-4.62-2.55v.57h.52v1.92h.73V9.65h.52v-.57z" fill="#fff"/></g></svg>