<?xml version="1.0" encoding="utf-8"?>
<!-- Generator: Adobe Illustrator 25.4.1, SVG Export Plug-In . SVG Version: 6.00 Build 0)  -->
<svg version="1.1" id="Layer_1" xmlns="http://www.w3.org/2000/svg" xmlns:xlink="http://www.w3.org/1999/xlink" x="0px" y="0px"
	 viewBox="0 0 117 56" style="enable-background:new 0 0 117 56;" xml:space="preserve">
<style type="text/css">
	.st0{fill:#009A57;}
	.st1{fill:#63C5DE;}
	.st2{fill:none;stroke:#FFFFFF;stroke-width:1.3728;stroke-miterlimit:10;}
	.st3{fill:#FFFFFF;}
	.st4{fill:#66C4DA;}
	.st5{fill:#2E9DC2;}
</style>
<g>
	<g>
		<path class="st0" d="M116.2,39.4c0,4.3-3.2,7.8-7.2,7.8H61.1c-4,0-7.2-3.5-7.2-7.8c0-4.3,3.2-7.8,7.2-7.8H109
			C113,31.6,116.2,35.1,116.2,39.4"/>
	</g>
	<path class="st1" d="M88.3,47.9H61.2c-4.3,0-7.8-3.8-7.8-8.5c0-4.7,3.5-8.5,7.8-8.5h27.1h0.7v0.7v15.6v0.7H88.3z"/>
	<path class="st2" d="M88.3,47.9H61.2c-4.3,0-7.8-3.8-7.8-8.5c0-4.7,3.5-8.5,7.8-8.5h27.1h0.7v0.7v15.6v0.7H88.3z"/>
	<path class="st3" d="M108.9,36.1v-1.8h-5.1v10.3h2v-4.6h2.9v-1.8h-2.9v-2.3H108.9z M98.5,36h0.4c1.1,0,1.9,0.2,1.9,1.5
		c0,1.3-0.6,1.6-1.8,1.6h-0.4V36z M98.5,40.8h1c2.1,0,3.3-1.1,3.3-3.3c0-2.3-1.4-3.2-3.6-3.2h-2.7v10.3h2V40.8z"/>
	<path class="st3" d="M78.8,41.2c0.7,0,1.1,0.7,1.1,1.3c0,0.6-0.4,1.3-1.1,1.3c-0.7,0-1.1-0.7-1.1-1.3
		C77.7,41.9,78.2,41.2,78.8,41.2 M78.8,40.1c-1.4,0-2.5,1-2.5,2.5c0,1.4,1,2.4,2.5,2.4c1.4,0,2.5-1,2.5-2.4
		C81.3,41.1,80.2,40.1,78.8,40.1 M78.4,34l-5.6,10.6l0.9,0.5l5.5-10.7L78.4,34z M73.3,35.2c0.7,0,1.1,0.7,1.1,1.3
		c0,0.6-0.4,1.3-1.1,1.3s-1.1-0.7-1.1-1.3C72.2,35.9,72.6,35.2,73.3,35.2 M73.3,34.1c-1.4,0-2.5,1-2.5,2.5c0,1.4,1,2.4,2.5,2.4
		c1.4,0,2.5-1,2.5-2.4C75.8,35.1,74.7,34.1,73.3,34.1 M69.7,36.1v-1.8h-4.5l-1.1,5.4h0.3c0.4-0.4,1.1-0.7,1.7-0.7c1.1,0,2,0.9,2,2.1
		c0,1.1-0.7,2-1.9,2c-0.9,0-1.8-0.6-2.3-1.3l-0.6,1.7c0.8,0.9,1.9,1.4,3.1,1.4c2.2,0,3.8-1.5,3.8-3.7c0-1.9-1.3-3.6-3.3-3.6l-0.5,0
		l0.4-1.6H69.7z"/>
	<g>
		<path class="st4" d="M76.3,2.3h-2.9v17.9c0,1.2,0.2,2.4,0.3,3.6h-0.1c-0.3-0.9-0.7-1.8-1.1-2.8L64.1,2.3h-2.9v26.8h2.9V12.8
			c0-1.7-0.2-3.4-0.4-5.2h0.2c0.4,1.1,0.7,2.3,1.2,3.4l8.2,18h2.9V2.3z M89.6,19.7c0,5.7-0.6,7.8-3.6,7.8c-1.8,0-3.5-0.4-3.5-7.9
			c0-3.1,0.2-7.1,3.6-7.1C89.2,12.5,89.6,15.7,89.6,19.7 M92.5,10.9h-3.1v1.2h-0.1c-1-1-2.1-1.5-3.8-1.5c-6,0-6.1,5.1-6.1,9.2
			c0,8,1.9,9.6,5.9,9.6c1.8,0,3.2-0.7,4.1-1.7h0.1v1.4h3.1V10.9z M109.5,25.8c-1.3,0.7-2.8,1.2-4.5,1.2c-6.4,0-6.4-8.3-6.4-11.4
			c0-5,0.8-11.3,6.7-11.3c1.7,0,2.9,0.5,4.2,1.2V2.8c-1.1-0.6-2.9-0.9-4.3-0.9c-9.9,0-10.1,10.4-10.1,14.7c0,4.6,1.2,12.8,9.7,12.8
			c1.6,0,3.4-0.5,4.6-1.1V25.8z M115.8,0.7h-3.1v28.4h3.1V0.7z"/>
		<path class="st5" d="M0.9,2.4v26.7h3.1V16.6h7.5v12.5h3.1V2.4h-3.1v11.5H3.9V2.4H0.9z M27.2,21.1l1.8,8h3L26,2.4h-3.4l-6.1,26.7
			h2.9l1.8-8H27.2z M21.7,18.6l1.4-6.8c0.4-1.8,0.8-4.1,1.1-6.1h0.2c0.3,2,0.7,4.2,1.1,6.1l1.4,6.8H21.7z M34.1,29
			c0.8,0.2,2,0.3,4,0.3c3.1,0,5.6-0.7,7.1-2.4c1.2-1.3,1.9-3.1,1.9-5.3c0-3.5-1.9-6-5-6.8v-0.1c2.6-1,4.1-3.2,4.1-5.9
			c0-1.9-0.6-3.5-1.7-4.6c-1.4-1.3-3.5-1.9-5.9-1.9c-1.7,0-3.2,0.2-4.5,0.5V29z M37.2,4.8c0.4-0.1,0.9-0.2,1.6-0.2
			c3.3,0,4.4,1.9,4.4,4.4c0,2.8-2.1,4.7-4.6,4.7h-1.4V4.8z M37.2,16.1h1.3c2.9,0,5.4,1.8,5.4,5.5c0,3.5-2.1,5.3-5.2,5.3
			c-0.7,0-1.2-0.1-1.5-0.2V16.1z M49.4,29.1h3.1V2.4h-3.1V29.1z M55.7,3.8L55.7,3.8c0.3,0,0.4,0.1,0.4,0.3c0,0.2-0.1,0.3-0.4,0.3
			h-0.1V3.8z M56.4,4.7c0.4-0.1,0.5-0.3,0.5-0.7c0-0.2-0.1-0.4-0.2-0.6c-0.2-0.1-0.4-0.2-0.6-0.2h-1.1v2.5h0.7V4.9l0.6,0.8h0.9
			L56.4,4.7z M53.9,5.4c0.1,0.3,0.3,0.5,0.5,0.7c0.2,0.2,0.4,0.4,0.7,0.5c0.3,0.1,0.6,0.2,0.9,0.2c0.3,0,0.6-0.1,0.9-0.2
			c0.3-0.1,0.5-0.3,0.7-0.5c0.2-0.2,0.4-0.4,0.5-0.7c0.1-0.3,0.2-0.6,0.2-0.9c0-0.3-0.1-0.6-0.2-0.9c-0.1-0.3-0.3-0.5-0.5-0.7
			c-0.2-0.2-0.4-0.4-0.7-0.5c-0.3-0.1-0.6-0.2-0.9-0.2c-0.3,0-0.6,0.1-0.9,0.2c-0.3,0.1-0.5,0.3-0.7,0.5c-0.2,0.2-0.4,0.4-0.5,0.7
			c-0.1,0.3-0.2,0.6-0.2,0.9C53.7,4.8,53.8,5.1,53.9,5.4 M54.3,3.8c0.1-0.2,0.2-0.4,0.4-0.6C54.8,3.1,55,3,55.2,2.9
			c0.2-0.1,0.4-0.1,0.7-0.1c0.2,0,0.5,0,0.7,0.1C56.8,3,57,3.1,57.2,3.3c0.2,0.2,0.3,0.3,0.4,0.6c0.1,0.2,0.1,0.4,0.1,0.7
			c0,0.2,0,0.5-0.1,0.7c-0.1,0.2-0.2,0.4-0.4,0.6C57,5.9,56.8,6,56.6,6.1c-0.2,0.1-0.4,0.1-0.7,0.1c-0.2,0-0.5,0-0.7-0.1
			C55,6,54.8,5.9,54.7,5.8c-0.2-0.2-0.3-0.3-0.4-0.6c-0.1-0.2-0.1-0.4-0.1-0.7C54.2,4.3,54.2,4,54.3,3.8"/>
	</g>
</g>
</svg>
