<svg xmlns="http://www.w3.org/2000/svg" xmlns:xlink="http://www.w3.org/1999/xlink" width="300" height="150"><path fill="#005EA8" d="M249.4 13.8V46c0 12.3-.4 27.2-5 33.2-1.3 1.8-3.7 3.5-6 4.1l.9 8c3.3 0 6.6-1.8 8.7-3.6 8-7.3 8.5-25.8 8.5-42.4V22.1h18.7v68.3h7.4V13.8h-33.2zm-43.3 44.7l5.5-22.2c1.1-4.7 2-9.3 2.9-13.9h.2c.8 4.4 1.7 9 2.9 14l5.5 22h-17zm18.6 7.8l6.1 24.1h7.8l-19.3-76.6h-8.8l-19.2 76.6h7.6l5.9-24.1h19.9zm-45.1 24.1h7.3V13.8h-7.3v76.6zM173.2 80c-2.9 1.9-7.5 3.2-11.9 3.2-13.8 0-21.8-12-21.8-30.8 0-20.1 8.8-31.6 22.1-31.6 4.7 0 8.7 1.4 11.4 3.2l1.8-8.1c-1.9-1.4-6.4-3.4-13.4-3.4-17.6 0-29.6 16.2-29.6 40.2 0 25.1 12 38.9 28 38.9 6.9 0 12.3-1.9 15-3.7l-1.6-7.9zM95.5 13.8v76.6h7.2V55.2h2.4c9.6 0 13.2 6.9 15.8 17 1.5 6 3.1 12.8 5.1 18.1h7.9c-2.5-6.8-4.1-13.9-6.2-21.7-2.9-10.3-6.6-18.1-15.9-19.8l21.4-35.1h-8.8l-19.4 34h-2.3v-34h-7.2zm-45.7 0l18.8 51.8c.7 1.8.8 2.8.3 4.5-1.8 5.6-5.2 13.2-11.1 13.2-1.3 0-2.1-.1-2.7-.3l-.8 8c.9.5 2.3.7 4.1.7 5 0 9.2-3.2 12.9-9.4 4-7 7.5-18.7 10.6-29.1l11.9-39.4H86l-8.8 32.5c-1.4 5.3-2.5 9.9-3.5 13.7h-.2c-1.3-4.4-2.7-9-4.1-13.5L58.1 13.8h-8.3zm-35.5 0V46c0 12.3-.4 27.2-5 33.2-1.3 1.8-3.7 3.5-6 4.1l.9 8c3.3 0 6.6-1.8 8.7-3.6 8-7.3 8.5-25.8 8.5-42.4V22.1h18.7v68.3h7.4V13.8H14.3z"/><path fill="#005DA8" d="M292.6 17h.6c.4 0 .7.2.7.8 0 .4-.2.9-.7.9h-.6V17zm0 2.6h.3c1.1 0 .9.6.9 1.3 0 .4 0 .8.2 1.2h1.3c-.1-.3-.2-1.4-.2-1.8 0-1.1-.9-1.1-1.2-1.2.9-.1 1.2-.7 1.2-1.5 0-1-.6-1.6-1.5-1.6h-2.5v6h1.4v-2.4zm.6 3.7c-2.3 0-4.2-1.9-4.2-4.2 0-2.3 1.9-4.2 4.2-4.2 2.3 0 4.2 1.9 4.2 4.2 0 2.3-1.9 4.2-4.2 4.2m0-9.4c-2.9 0-5.2 2.3-5.2 5.2 0 2.9 2.3 5.2 5.2 5.2 2.9 0 5.2-2.3 5.2-5.2 0-2.9-2.3-5.2-5.2-5.2"/><defs><path id="a" d="M5.8 96.8h276.8v51.1H5.8z"/></defs><linearGradient id="b" gradientUnits="userSpaceOnUse" x1="5.845" y1="122.378" x2="282.662" y2="122.378"><stop offset="0" stop-color="#fff"/><stop offset="1" stop-color="#005da8"/></linearGradient><use xlink:href="#a" overflow="visible" fill="url(#b)"/><clipPath id="c"><use xlink:href="#a" overflow="visible"/></clipPath><linearGradient id="d" gradientUnits="userSpaceOnUse" x1="9003.966" y1="7630.695" x2="9004.992" y2="7630.695" gradientTransform="matrix(115.2392 0 0 -115.2392 -1037601.875 879477.5)"><stop offset="0" stop-color="#fff"/><stop offset="1" stop-color="#005da8"/></linearGradient><path clip-path="url(#c)" fill="url(#d)" d="M5.8 96.8h276.8v51.1H5.8z"/><circle fill="#FFF" cx="37.6" cy="122.4" r="21"/><path fill="#008AD1" d="M37.6 140.5c-5.1 0-9.3-4.9-9.3-11 0-3.1.9-5.1 2.5-8.3 1.5-3.1 3.5-7.3 6.1-15l.6-1.9.6 1.9c2.5 7.6 4.6 11.8 6.1 14.9 1.6 3.3 2.5 5.2 2.5 8.3.1 6.1-4 11.1-9.1 11.1"/><path fill="#FFF" d="M38.1 108.8c2.1 6.3 2.1 6.2 5.5 14.3.9 2.4.7 12.4-5.5-14.3"/><defs><path id="e" d="M41.1 138.1c-.4-11-4.3-13.2-9.9-14.9-6.3 10.1 4.1 19.7 9.9 14.9"/></defs><clipPath id="f"><use xlink:href="#e" overflow="visible"/></clipPath><linearGradient id="g" gradientUnits="userSpaceOnUse" x1="8862.704" y1="8724.569" x2="8863.863" y2="8724.569" gradientTransform="scale(10.179 -10.179) rotate(44.4 15138.682 -6499.383)"><stop offset="0" stop-color="#fff"/><stop offset=".153" stop-color="#d1eaf7"/><stop offset=".465" stop-color="#79c1e7"/><stop offset=".72" stop-color="#38a3db"/><stop offset=".905" stop-color="#0f91d4"/><stop offset="1" stop-color="#008ad1"/></linearGradient><path clip-path="url(#f)" fill="url(#g)" d="M16.6 132.8l16.6-19.2 16.2 19.6-16.5 19.2z"/><path d="M174.7 108.7l-7.3 29.5H159l5.9-23.8h-6.2l-5.9 23.8h-8.4l7.3-29.5h23zm30.8 0l-7.2 29.5h-8.5l5.9-23.8h-5l-1.9 6.8c-1.5 5.4-3.4 11.9-8.1 15.2-1.8 1.2-3.8 2.2-7.6 2.3l-1.3-5.6c1.9-.4 3-.9 4-1.8 2-1.8 3.8-5.5 4.8-9.6l3.4-13h21.5zm15.8 0l-2.9 11.8h3.4c1.3-3.6 3.4-7 6.3-9.3 2.2-1.8 5-2.8 8.5-2.8 8.4 0 9.6 5.9 9.6 9.3 0 6.7-2.6 14.3-7.6 18.2-2.2 1.7-4.9 2.7-8.3 2.7-8.7 0-10-6.5-10-9.8 0-.9.1-1.7.2-2.6H217l-3 12h-8.4l7.3-29.5h8.4zm9.9 24.3c4.6 0 6.5-12.2 6.5-15.8 0-1.1-.3-3.1-2.3-3.1-4.4 0-6.8 10.4-6.8 15.6.1 1.2.4 3.3 2.6 3.3zm34.4 5c-1.3.4-3 .5-5.4.5-10.5 0-11.7-7.2-11.7-10 0-7.7 3.2-13 7.3-16.3 3.4-2.6 7.7-3.8 11.9-3.8 2 0 4.2.4 4.6.7l-2.3 5.6c-.7-.3-1.7-.4-3.4-.4s-3.8.9-5.2 2.4c-2.2 2.3-3.9 5.8-3.9 10.5 0 3.3 1.3 5.5 4.6 5.5 1.3 0 2.9-.2 3.9-.4l-.4 5.7z" fill="#F39400"/></svg>