<svg xmlns="http://www.w3.org/2000/svg" viewBox="0 0 117.09 55.66"><defs><radialGradient id="b" cx="-938.83" cy="-1522.41" r="1.23" gradientTransform="matrix(4.15 0 0 6.66 4014.28 10142.17)" gradientUnits="userSpaceOnUse"><stop offset="0" stop-color="#9bc7e8"/><stop offset=".23" stop-color="#9dc8e8"/><stop offset=".31" stop-color="#85c0e4"/><stop offset=".48" stop-color="#46acdb"/><stop offset=".66" stop-color="#0095d1"/><stop offset="1" stop-color="#0469b1"/></radialGradient><clipPath id="a"><path d="M111 12.41c.32.57 1.3 2.28 1 3.48a3.05 3.05 0 01-.78 1.61 8.4 8.4 0 004.26-2.44 5.84 5.84 0 001.51-4c0-1.92-.42-4.05-3.69-4.05-3.43 0-3.11 3.84-2.34 5.4" fill="none"/></clipPath></defs><g data-name="Layer 2"><path d="M0 39.1h112.73v16.56H0zM89.1 2.39v7.42h-2.49V2.39h-2V.31h6.55v2.08zm7.01 0v7.42h-2.49V2.39h-2V.31h6.55v2.08zM99.07 5a5 5 0 01.42-2 4.93 4.93 0 011.09-1.61 5.2 5.2 0 011.66-1.03 5.54 5.54 0 012.13-.36 5.75 5.75 0 012.13.36 5.32 5.32 0 011.66 1.09 4.93 4.93 0 011.09 1.61 5 5 0 010 4 4.93 4.93 0 01-1.09 1.61 5.15 5.15 0 01-1.66 1.09 5.75 5.75 0 01-2.13.36 5.54 5.54 0 01-2.13-.36 5 5 0 01-1.66-1.09A4.93 4.93 0 0199.49 7a5 5 0 01-.42-2zm2.6 0a2.31 2.31 0 00.21 1 2.32 2.32 0 00.57.83 3.07 3.07 0 00.83.57 2.78 2.78 0 002.07 0 3.22 3.22 0 00.89-.57 2.25 2.25 0 00.57-.83 2.45 2.45 0 00.19-1 2.39 2.39 0 00-.21-1 3.78 3.78 0 00-.57-.83 2.48 2.48 0 00-.89-.57 2.66 2.66 0 00-2.07 0 2.24 2.24 0 00-.83.57 2.86 2.86 0 00-.57.83 3.16 3.16 0 00-.19 1z" fill="#e10b17"/><path d="M48.86 37h3.27V12.83h-3.27zM38.63 26.33h1.14c1.67 0 3 1 3 3.42s-1.29 3.53-2.8 3.53a4.89 4.89 0 01-1.3-.1zm0-9.56a4.23 4.23 0 011.4-.15c1.51 0 2.34 1 2.34 2.8s-.88 3-2.65 3h-1.09zm-3.27 20.15a17.65 17.65 0 003.58.36c2.91 0 4.68-.78 5.71-2.18a8.47 8.47 0 001.51-5.1c0-3.12-1.25-5.24-2.91-6v-.1a6 6 0 002.39-5.15A6.36 6.36 0 0043.93 14c-1-1-2.29-1.35-4.31-1.35a17.19 17.19 0 00-4.26.52zM24.61 26.69l.88-5.14c.21-1.4.47-3.22.68-4.67.21 1.4.47 3.21.73 4.67l.93 5.14zm3.74 4.1L29.49 37H33l-4.55-24.17h-4.31L19.68 37h3.43l1-6.23zm-22.9-18V37h3.27V27h5.46v10h3.27V12.83h-3.27v9.34h-5.4v-9.34z" fill="#0469b1"/><path d="M103.8 17.45c1.4.31 3 2.07 3 7.16s-1.67 7-3 7.17zm-3.07 14.33c-1.3-.26-2.9-2.39-2.9-7.12 0-5.14 1.66-6.95 2.9-7.27zm0-20.25v2.13c-2.8.41-6.23 3.42-6.23 11.11 0 7.42 3.07 10.43 6.23 10.8v2.18h3.07v-2.18c3.27-.52 6.28-3.53 6.28-11S107 14 103.85 13.6v-2.12h-3.12zm-8.82 10.59h-5.35v-5h5.71v-4.5h-9v24.19h9.29v-4.46h-6v-5.82h5.3zM70.1 12.57v10.59c0 3.68-.21 6.8-1.09 8.31a2.62 2.62 0 01-1.66 1.29l.41 4.42A4.23 4.23 0 0070.67 36c2.23-2.18 2.7-6.95 2.7-13.19v-5.73h3.32v19.73H80V12.57zM58.67 25.18a10.39 10.39 0 011.15-.18A2.64 2.64 0 0162 26.12a4.48 4.48 0 01.78 2.75 5.06 5.06 0 01-.73 2.86A2.69 2.69 0 0159.92 33a4.76 4.76 0 01-1.25-.15zM55.4 12.57v24.09a17.06 17.06 0 003.53.36 6.88 6.88 0 005.92-2.75 10 10 0 001.41-5.5A8.81 8.81 0 0064.54 23a5.22 5.22 0 00-4.1-2 8.89 8.89 0 00-1.77.16V17h6.39v-4.43z" fill="#0095d1"/><g clip-path="url(#a)"><path fill="url(#b)" d="M109.92 7.01h7.17V17.5h-7.17z"/></g><path d="M116.21 11.32l-.11-2.49h-.93l-.11.62a4.19 4.19 0 00-.1.83c0-.41 0-.57-.1-.83l-.11-.62h-1l-.1 2.49h.62l.06-1.09a7.33 7.33 0 010-1 7.38 7.38 0 01.1 1l.16 1.09h.67l.16-1c0-.21.1-.57.16-1v2.09h.47zm-4.62-2.54v.57h.51v1.92h.73V9.35h.52v-.57zM4.73 42.63v8.72h-1.1v-8.72zm3.01 0v3.74h2.64v-3.74h1v8.72h-1.05v-4.1H7.68v4.1H6.59v-8.72zm6.64.88h-1.71v-.88h4.46v.88h-1.71v7.84h-1.09v-7.84zm7.48 3.74h-2.34v3.27h2.65v.88h-3.74v-8.77H22v.88h-2.5v2.86h2.34zm2.8-4.62v3.74h2.65v-3.74h1.09v8.72h-1.09v-4.1h-2.65v4.1h-1.09v-8.72zm9.71 8.57a3.13 3.13 0 01-1.35.2c-1.81 0-3.11-1.35-3.11-4.36 0-3.42 1.82-4.57 3.32-4.57a2.44 2.44 0 011.14.21l-.26.94a1.88 1.88 0 00-.93-.16c-1 0-2.18.88-2.18 3.58s1 3.53 2.18 3.53a2.46 2.46 0 001-.2zm2.29-8.57v3.12c0 1.5 0 2.64-.11 4h.06c.31-.93.83-2.07 1.19-3.06l1.66-4.1h1v8.71h-.94v-3c0-1.87.06-3 .11-4.1a27.17 27.17 0 01-1.15 2.91l-1.76 4.2h-1v-8.68zm5.71.16a6.86 6.86 0 011.56-.16 3 3 0 012.07.62 1.93 1.93 0 01.63 1.51 2 2 0 01-1.46 1.92A2.15 2.15 0 0146.89 49a2.35 2.35 0 01-.68 1.72 3.28 3.28 0 01-2.49.78 8.14 8.14 0 01-1.4-.11v-8.6zm1 3.58h.47a1.54 1.54 0 001.61-1.56c0-.78-.42-1.4-1.56-1.4-.26 0-.47.05-.57.05v2.91zm0 4.2a1.25 1.25 0 00.52.06 1.65 1.65 0 001.82-1.72 1.74 1.74 0 00-1.93-1.76h-.46v3.42zm6.06-7.94v3.74h2.65v-3.74h1.09v8.72h-1.09v-4.1h-2.65v4.1h-1.09v-8.72zm6.57 0v3.12c0 1.5-.06 2.64-.11 4 .32-.93.84-2.07 1.2-3.06l1.66-4.1h1v8.71h-.94v-3c0-1.87 0-3 .11-4.1h-.06a25.26 25.26 0 01-1.14 2.91L56 51.3h-1v-8.67zm6.67 0v3.12c0 1.5-.05 2.64-.1 4 .31-.93.83-2.07 1.19-3.06l1.67-4.1h1v8.71h-.93v-3c0-1.87 0-3 .1-4.1a27.22 27.22 0 01-1.14 2.91l-1.77 4.2h-1v-8.68zm.63-1.56a.75.75 0 00.77.73.72.72 0 00.78-.73h.78a1.35 1.35 0 01-1.56 1.25 1.38 1.38 0 01-1.55-1.25zm12.15 1.56v7.89h.62v2.65h-.83l-.06-1.82H71v1.82h-.9v-2.65h.62a10.61 10.61 0 00.73-2.33 20.27 20.27 0 00.31-3.54v-2h3.74zm-2.81 2.18a18.75 18.75 0 01-.26 3.48 10.63 10.63 0 01-.67 2.23h2.65v-7h-1.72zm9.82 2.13c0 3.27-1.2 4.52-2.7 4.52s-2.6-1.56-2.6-4.47 1.09-4.46 2.75-4.46 2.55 1.61 2.55 4.41zm-4.21.06c0 1.82.36 3.58 1.56 3.58s1.5-1.92 1.5-3.63-.31-3.58-1.55-3.58-1.51 1.86-1.51 3.63zm9.4-4.37v.88h-2.6v7.89H84v-8.77zm5.45 0v8.72H92v-7.84h-2v3c0 2.29-.11 4.05-1.15 4.73a1.66 1.66 0 01-.88.26l-.21-.83a1.1 1.1 0 00.52-.21c.57-.47.73-1.61.73-3.79v-4zm1.3 8.72a2.64 2.64 0 00.31-.88c.26-.88.26-2.13.88-2.86a1.33 1.33 0 01.73-.41 2.07 2.07 0 01-1.56-2.13 2.25 2.25 0 01.94-1.92 3.32 3.32 0 011.87-.52 6.33 6.33 0 011.5.16v8.61H98v-3.79h-.36a1.44 1.44 0 00-1.09.42 8.29 8.29 0 00-.78 2.65 2.39 2.39 0 01-.26.78H94.4zm3.6-7.89a1.81 1.81 0 00-.57-.05 1.51 1.51 0 00-1.61 1.66 1.65 1.65 0 001.77 1.71h.36v-3.32zm7.72-.83v7.89h.62v2.65h-.83v-1.82h-4.16v1.82h-.83l-.05-2.65h.62a10.61 10.61 0 00.73-2.33 19.35 19.35 0 00.31-3.54v-2h3.74zm-2.81 2.18a18.75 18.75 0 01-.26 3.48 10.63 10.63 0 01-.67 2.23h2.65v-7h-1.72z" fill="#fff"/></g></svg>