<svg xmlns="http://www.w3.org/2000/svg" xmlns:xlink="http://www.w3.org/1999/xlink" width="300" height="150"><path fill="#DE116E" d="M268.5 84.9c-1.8 2.4-4.5 4-7.2 4-8.3 0-13.1-15-13.1-38.3 0-25 5.3-39.3 13.3-39.3 2.8 0 5.2 1.7 6.9 4l1.1-10c-1.2-1.7-3.8-4.2-8.1-4.2-10.6 0-17.8 20.2-17.8 50 0 31.2 7.2 48.4 16.8 48.4 4.1 0 7.4-2.4 9-4.7l-.9-9.9zM219.2 2.5v95.3h4.3V54.1h1.4c5.8 0 7.9 8.6 9.5 21.2.9 7.5 1.9 16 3.1 22.5h4.7c-1.5-8.5-2.5-17.2-3.7-27-1.8-12.9-3.9-22.5-9.5-24.6l12.9-43.7h-5.3l-11.7 42.3h-1.4V2.5h-4.3zm-20.1 86.9c-6.4 0-9.9-18.7-9.9-38.7 0-20.6 3.3-39.9 10-39.9s9.9 19.9 9.9 38.9c0 21.6-3.6 39.7-10 39.7zM175.4 2.5v95.3h4.4V53.9h4.9c.4 27.9 5.9 45.4 14.1 45.4 8.1 0 14.6-17.1 14.6-50.2 0-28.3-5.4-48.2-14.2-48.2-8 0-13.6 16.1-14.5 42.7h-5V2.5h-4.3zm-27.6 0v40.2c0 15.3-.3 33.8-3 41.3-.8 2.3-2.2 4.4-3.6 5.1l.6 9.9c2 0 3.9-2.3 5.2-4.5 4.8-9 5.1-32.1 5.1-52.7v-29h11.3v85h4.4V2.5h-20zm-35.4 0v95.3h4.4V53.1h16.5v44.7h4.4V2.5h-4.4v39.9h-16.5V2.5h-4.4zm-43.2 0l12.1 43.8c-5.3 1.8-7.5 11.2-9.2 24.6-1.1 8.9-1.9 18.1-3.4 26.9h4.5c1.1-6.4 1.9-15.6 2.7-22.3 1.6-13 3.3-21.3 8.8-21.3h1.5v43.7h4.3V54.1H92c5.5 0 7.2 8.3 8.7 21.3.9 6.8 1.7 16 2.8 22.3h4.5c-1.4-8.8-2.2-18-3.4-27-1.7-13.6-3.8-22.9-9.2-24.5l12.1-43.8h-5.2L91.8 44.8h-1.4V2.5h-4.3v42.3h-1.3L74.3 2.5h-5.1zm-9.3 95.3h4.4V2.5h-4.4v95.3zm-23-45.7h3.6c4.8 0 8.8 5.4 8.8 18.4 0 13.9-4.2 18.5-8.7 18.5-1.6 0-2.8-.1-3.7-.6V52.1zm0-40c.7-.4 1.9-.8 3.9-.8 4.4 0 7.5 4.4 7.5 15.6 0 9.2-2.7 16-7.4 16h-4V12.1zm-4.4 85.4c1.5.6 3.8 1.1 6.8 1.1 5.6 0 9.4-2.8 11.8-8.9C52.8 85 54 78.8 54 70.6c0-14.1-3.8-21.6-7-23.9v-.3c3.6-3.7 5.8-11.7 5.8-20.9 0-7.5-1.1-13.1-2.8-16.8-2.1-4.8-4.9-6.9-9.3-6.9-3.1 0-6.1.8-8 2v93.7z"/><linearGradient id="a" gradientUnits="userSpaceOnUse" x1="6.288" y1="122.641" x2="292.516" y2="122.641"><stop offset="0" stop-color="#005aa5" stop-opacity="0"/><stop offset=".246" stop-color="#005aa5"/><stop offset="1" stop-color="#005aa5"/></linearGradient><path fill="url(#a)" d="M6.3 97.4h286.2V148H6.3z"/><path d="M184.6 110.5l-6.4 25.6h-7.3l5.1-20.7h-5.4l-5.1 20.7h-7.3l6.4-25.6h20zm26.7 0l-6.3 25.6h-7.4l5.1-20.7h-4.3l-1.6 5.9c-1.3 4.7-3 10.3-7 13.2-1.5 1.1-3.3 1.9-6.6 2l-1.1-4.9c1.6-.3 2.6-.8 3.5-1.5 1.7-1.6 3.3-4.8 4.2-8.4l3-11.3h18.5zm13.7 0l-2.5 10.3h2.9c1.1-3.2 2.9-6.1 5.4-8.1 1.9-1.5 4.3-2.5 7.4-2.5 7.3 0 8.3 5.1 8.3 8.1 0 5.8-2.3 12.4-6.6 15.8-1.9 1.4-4.2 2.3-7.2 2.3-7.6 0-8.6-5.7-8.6-8.5 0-.8 0-1.5.1-2.3h-3.1l-2.6 10.4h-7.3l6.4-25.6h7.4zm8.6 21c4 0 5.7-10.6 5.7-13.7 0-1-.3-2.7-2-2.7-3.8 0-5.9 9-5.9 13.6 0 1 .2 2.8 2.2 2.8zm29.8 4.3c-1.1.3-2.6.5-4.6.5-9.1 0-10.1-6.2-10.1-8.7 0-6.7 2.8-11.3 6.4-14.1 2.9-2.3 6.7-3.3 10.3-3.3 1.7 0 3.6.3 4 .6l-2 4.9c-.6-.2-1.5-.4-3-.4-1.4 0-3.3.8-4.5 2.1-1.9 2-3.4 5.1-3.4 9.1 0 2.9 1.1 4.8 4 4.8 1.1 0 2.5-.2 3.4-.4l-.5 4.9zm-207 7.7c11.5 0 20.8-9.3 20.8-20.8s-9.3-20.8-20.8-20.8-20.8 9.3-20.8 20.8c0 11.4 9.3 20.8 20.8 20.8" fill="#FFF"/><path fill="#DE116E" d="M56.4 138.1c-5.6 0-10.1-4.6-10.1-10.1 0-2.9 1-4.7 2.7-7.6 1.6-2.8 3.9-6.7 6.7-13.8l.7-1.8.7 1.8c2.8 7 5 10.9 6.6 13.7 1.7 3 2.8 4.8 2.8 7.7 0 5.5-4.5 10.1-10.1 10.1"/><defs><path id="b" d="M56.5 107.8c5.7 28.6 9.4 18.4 7.8 15.8-5.1-9-5.1-8.9-7.8-15.8z"/></defs><clipPath id="c"><use xlink:href="#b" overflow="visible"/></clipPath><radialGradient id="d" cx="3082.854" cy="8599.214" r="2.826" gradientTransform="matrix(2.1563 0 0 -6.5814 -6586.195 56715.29)" gradientUnits="userSpaceOnUse"><stop offset="0" stop-color="#fff"/><stop offset=".063" stop-color="#fef6fa"/><stop offset=".165" stop-color="#fbdfeb"/><stop offset=".292" stop-color="#f5b8d4"/><stop offset=".441" stop-color="#ee83b3"/><stop offset=".604" stop-color="#e43f8a"/><stop offset=".708" stop-color="#de116e"/><stop offset="1" stop-color="#de116e"/></radialGradient><path clip-path="url(#c)" fill="url(#d)" d="M56.5 107.8h9.4v28.6h-9.4z"/><path fill="#FFF" d="M56.9 109c2.3 5.8 2.2 5.7 6 13.2 1.1 2.2.8 11.3-6-13.2"/><defs><path id="e" d="M60.2 136c-.5-10.2-4.7-12.2-10.8-13.7-6.8 9.2 4.5 18 10.8 13.7"/></defs><clipPath id="f"><use xlink:href="#e" overflow="visible"/></clipPath><linearGradient id="g" gradientUnits="userSpaceOnUse" x1="6063.829" y1="9944.993" x2="6066.656" y2="9944.993" gradientTransform="scale(3.85 -3.85) rotate(44.399 15265.812 -2458.61)"><stop offset="0" stop-color="#fff"/><stop offset=".48" stop-color="#ef8bb8"/><stop offset="1" stop-color="#de116e"/></linearGradient><path clip-path="url(#f)" fill="url(#g)" d="M33.6 131.1l18-17.7 17.7 18-18.1 17.7z"/></svg>