<svg xmlns="http://www.w3.org/2000/svg" xmlns:xlink="http://www.w3.org/1999/xlink" width="300" height="150"><path fill="#E5007E" d="M246.2 92.3c-14.5 0-26.3-12.5-26.3-27.8 0-7.9 2.7-12.7 7.1-20.8 4.2-7.7 10-18.3 17.4-37.8l1.8-4.8 1.8 4.8c7.2 19.2 13 29.8 17.3 37.6 4.5 8.2 7.2 13.2 7.2 21 0 15.4-11.8 27.8-26.3 27.8"/><path fill="#FFF" d="M247.6 12.6c5.9 15.8 5.9 15.7 15.5 36.1 2.8 6 2.1 31.1-15.5-36.1"/><defs><path id="a" d="M256.2 86.4c-1.2-27.8-12.3-33.4-28-37.6-17.8 25.5 11.5 49.6 28 37.6"/></defs><clipPath id="b"><use xlink:href="#a" overflow="visible"/></clipPath><linearGradient id="c" gradientUnits="userSpaceOnUse" x1="8285.254" y1="8670.984" x2="8288.181" y2="8670.984" gradientTransform="scale(10.179 -10.179) rotate(44.4 14787.242 -5792.28)"><stop offset="0" stop-color="#fff"/><stop offset=".153" stop-color="#fad1e8"/><stop offset=".465" stop-color="#f179bb"/><stop offset=".72" stop-color="#eb389a"/><stop offset=".905" stop-color="#e70f86"/><stop offset="1" stop-color="#e5007e"/></linearGradient><path clip-path="url(#b)" fill="url(#c)" d="M186.9 73.1l46.9-48.4 45.9 49.4-46.9 48.4z"/><defs><path id="d" d="M25 90.8h167.2v1.6H25z"/></defs><clipPath id="e"><use xlink:href="#d" overflow="visible"/></clipPath><linearGradient id="f" gradientUnits="userSpaceOnUse" x1="8369.679" y1="7630.962" x2="8370.299" y2="7630.962" gradientTransform="matrix(115.2392 0 0 -115.2392 -964488.813 879477.5)"><stop offset="0" stop-color="#fff"/><stop offset=".099" stop-color="#e1e1e1"/><stop offset=".345" stop-color="#9c9c9b"/><stop offset=".568" stop-color="#656564"/><stop offset=".757" stop-color="#3e3e3c"/><stop offset=".908" stop-color="#262624"/><stop offset="1" stop-color="#1d1d1b"/></linearGradient><path clip-path="url(#e)" fill="url(#f)" d="M25 90.8h167.2v1.6H25z"/><path fill="#E5007E" d="M195.6 17.6h.6c.4 0 .7.2.7.8 0 .4-.2.8-.7.8h-.6v-1.6zm0 2.4h.3c1 0 .9.6.9 1.3 0 .4 0 .8.2 1.1h1.3c-.1-.2-.1-1.3-.1-1.7 0-1-.8-1.1-1.1-1.1.8-.1 1.1-.7 1.1-1.4 0-1-.6-1.5-1.4-1.5h-2.4v5.7h1.3V20zm.6 3.5c-2.2 0-4-1.8-4-4s1.8-4 4-4 4 1.8 4 4c-.1 2.2-1.9 4-4 4m0-8.8c-2.7 0-4.9 2.2-4.9 4.9s2.2 4.9 4.9 4.9 4.9-2.2 4.9-4.9c0-2.8-2.2-4.9-4.9-4.9M34.5 118.6v-12.8h4.1v11.9c0 4.1 1.9 6.5 5.2 6.5 2.9 0 5.2-1.7 6.7-3.2v-15.2h4.1v36.7h-4.1v-16.6c-1.6 1.3-4.1 3.2-7.8 3.2-4.5-.1-8.2-4.1-8.2-10.5zm27-12.8h16.2v4.6h-12v10.7h11v4.6h-11v12.1h12.1v4.6H61.5v-36.6zm21.8 0h7.6c5.9 0 10.9 2.6 10.9 11 0 8.1-5 11-10.2 11h-4.1v14.7h-4.1v-36.7zm4.1 17.3h4.1c2.6 0 5.8-1.6 5.8-6.5 0-4.6-3.2-6.3-6.4-6.3h-3.5v12.8zm18.4-17.3h7.8c6 0 10.2 2.5 10.2 9.2 0 5-2.3 7.6-6 8.7v.1c3.9.4 6.7 3.7 6.7 8.8 0 7.9-5.1 9.8-11 9.8h-7.7v-36.6zm4.1 15.6h2.3c4 0 7.4-.5 7.4-5.9 0-4.4-2.9-5.5-5.4-5.5h-4.4v11.4zm0 16.7h3.1c3.7 0 7.1-1 7.1-5.9 0-5.7-3.9-6.5-7.5-6.5h-2.7v12.4zm32.9-33c8.8 0 13.9 8.1 13.9 19 0 11.1-5.1 19-13.9 19s-13.9-7.8-13.9-19c-.1-10.9 5.1-19 13.9-19zm0 33.3c6.7 0 9.5-7 9.5-14.3 0-7.5-3.2-14.4-9.5-14.3-6.4-.1-9.5 6.9-9.5 14.3-.1 7.3 2.8 14.3 9.5 14.3zm19.2-32.6h4.1v15.3H180v-15.3h4.1v36.7H180v-16.7h-13.9v16.7H162v-36.7zm28.9 0h4.1v36.7h-4.1v-36.7zm33.8-.7c8.8 0 13.9 8.1 13.9 19 0 11.1-5.1 19-13.9 19s-13.9-7.8-13.9-19c0-10.9 5.1-19 13.9-19zm0 33.3c6.7 0 9.5-7 9.5-14.3 0-7.5-3.2-14.4-9.5-14.3-6.4-.1-9.5 6.9-9.5 14.3 0 7.3 2.9 14.3 9.5 14.3zm17.5-19.8v-12.8h4.1v11.9c0 4.1 1.9 6.5 5.2 6.5 2.9 0 5.2-1.7 6.7-3.2v-15.2h4.1v36.7h-4.1v-16.6c-1.6 1.3-4.1 3.2-7.8 3.2-4.4-.1-8.2-4.1-8.2-10.5zm26.8-12.8h4.1v36.7H269v-36.7zM49 47.5c-10.1 0-16-6.2-16-15.1 0-8.7 6-15.2 16.1-15.2V14h4.7v3.2c10 0 16.1 6.5 16.1 15.2 0 8.9-6 15.2-16.1 15.2v3.2H49v-3.3zM37.9 32.4C37.9 37.8 41.2 43 49 43V21.7c-7.4 0-11.1 5.1-11.1 10.7zM53.7 43c7.9 0 11.2-5.3 11.2-10.7 0-5.6-3.6-10.7-11.2-10.7V43zm28-2.8c0 5-2 11.1-8.8 11.1l-.7-4.9c4 0 5-2.8 5-7.1V14h19.6v36.7h-4.7v-32H81.7v21.5zm37.2-26.8c9.9 0 15.7 8.1 15.7 19 0 11.1-5.7 19-15.7 19s-15.7-7.8-15.7-19c0-10.9 5.8-19 15.7-19zm0 33.3c7.5 0 10.8-7 10.8-14.3 0-7.5-3.6-14.4-10.8-14.3-7.2-.1-10.7 6.9-10.7 14.3 0 7.3 3.2 14.3 10.7 14.3zM141 14h8.6c6.7 0 12.2 2.6 12.2 11 0 8.1-5.7 11-11.5 11h-4.6v14.7H141V14zm4.6 17.4h4.6c2.9 0 6.5-1.6 6.5-6.5 0-4.6-3.6-6.3-7.2-6.3h-4v12.8zM173.3 14h4.9L192 50.7h-5.1l-3.3-9.2h-16l-3.3 9.2h-4.9L173.3 14zm2.3 5l-6.5 18.2h13L175.6 19zM34.9 55.7H44c7 0 11.9 2.2 11.9 8.3 0 4.6-2.7 6.8-7 7.9v.1c4.6.4 7.8 3.3 7.8 8 0 7.1-6 8.8-12.9 8.8h-9V55.7zm4.9 14.1h2.7c4.7 0 8.7-.4 8.7-5.3 0-3.9-3.4-4.9-6.2-4.9h-5.1v10.2zm0 15.1h3.6c4.4 0 8.3-.9 8.3-5.4 0-5.1-4.6-5.8-8.8-5.8h-3.1v11.2zm38.7-29.2h4.8v33.1h-4.8V55.7zm47.9 14.6l12.5-14.6h6.1l-13.7 15.7 15 17.5h-6.7l-13.1-16.2v16.2h-4.8V72.6l-13.1 16.2h-6.7l15-17.5L103 55.7h6.1l12.5 14.6V55.7h4.8v14.6zm38.5-14.6h4.8v13.9h16.2V55.7h4.8v33.1h-4.8V73.7h-16.2v15.1h-4.8V55.7z"/></svg>