<svg xmlns="http://www.w3.org/2000/svg" width="300" height="150"><linearGradient id="a" gradientUnits="userSpaceOnUse" x1="297.724" y1="117.605" x2="2.724" y2="117.605"><stop offset="0" stop-color="#97bf0d"/><stop offset=".343" stop-color="#97bf0d"/><stop offset=".372" stop-color="#8ab81b"/><stop offset=".48" stop-color="#60a049"/><stop offset=".589" stop-color="#3e8d6f"/><stop offset=".696" stop-color="#237e8d"/><stop offset=".801" stop-color="#0f73a2"/><stop offset=".903" stop-color="#046caf"/><stop offset="1" stop-color="#006ab3"/></linearGradient><path fill="url(#a)" d="M11 139.6h278.4c4.6 0 8.3-3.7 8.3-8.3v-27.4c0-4.6-3.7-8.3-8.3-8.3H11c-4.6 0-8.3 3.7-8.3 8.3v27.4c0 4.6 3.7 8.3 8.3 8.3z"/><path d="M163.1 127.5c-4.2 0-4.8-4.1-4.8-6.1 0-3.9 1.3-8.5 3.8-11 1.1-1.1 2.5-1.8 4.3-1.8 4.2 0 4.8 3.7 4.8 5.8 0 4.2-1.3 8.9-3.8 11.3-1.2 1.2-2.5 1.8-4.3 1.8zm.6-3.5c2.3 0 3.3-7.7 3.3-10 0-.7-.2-1.9-1.1-1.9-2.2 0-3.4 6.5-3.4 9.8-.1.8.1 2.1 1.2 2.1zm15.1-15.2l-1 5.2c-.1.8-.3 1.6-.3 2.3 0 .8.6 1.2 1.2 1.2.5 0 1-.1 1.3-.4l1.6-8.3h4l-3.5 18.5H178l1.3-6.8h-.1c-.6.3-1.3.5-2.4.5-2 0-3.7-1.1-3.7-3.3 0-.6.2-1.6.5-3.2l1.1-5.6h4.1zm14.4 0l-1.4 7.3h3.1l1.4-7.3h4.1l-3.5 18.5h-4.1l1.4-7.4h-3.1l-1.4 7.4h-4.1l3.5-18.5h4.1zm14.8 0l-3.5 18.5h-4.1l3.5-18.5h4.1zm11 0l-1.5 7.8h.4l4-7.8h4.4l-5.3 8.4c.7.7 1.1 2.3 1.2 5.3.1 2.3.2 3.6.5 4.7h-3.9c-.2-.9-.3-2.2-.3-4.5-.1-2.2-.4-3.2-1.3-3.2h-.2l-1.6 7.6h-3.9l3.5-18.5h4zm9.1.3c1.2-.2 2.8-.4 4.1-.4 1.3 0 3.3.2 4.5 1.6.8.9 1.2 2.3 1.2 3.3 0 2.8-1.4 4.8-2.6 5.8-1.3 1-3.2 1.5-4.8 1.5h-.7l-1.2 6.4h-3.9l3.4-18.2zm2.3 8.4h.5c2.4 0 2.9-2.3 2.9-3.7 0-1.1-.5-1.8-1.6-1.8-.3 0-.6 0-.7.1l-1.1 5.4zm10.5 6l-1.3 3.7h-3.9l7.4-18.5h4.8v18.5H244l.1-3.7h-3.2zm3.3-2.9l.2-3.8c.1-1 .2-3.1.2-4.5h-.1c-.4 1.4-1 3.6-1.4 4.5l-1.3 3.8h2.4zm20.3-11.8l-3.5 18.5h-4.1l2.8-14.9h-3l-2.8 14.9h-4.1l3.5-18.5h11.2zm14.8 0l-3.5 18.5h-4.1l2.8-14.9h-2.4l-.9 4.3c-.7 3.4-1.6 7.4-3.9 9.5-.8.8-1.8 1.4-3.6 1.5l-.6-3.5c.9-.2 1.5-.5 1.9-1.1 1-1.1 1.8-3.4 2.3-6l1.6-8.2h10.4zm7.6 0l-3.5 18.5h-4.1l3.5-18.5h4.1z" fill="#FFF"/><path fill="#91B723" d="M152.6 30.9c6.2 0 11.2-5 11.2-11.2 0-6.2-5-11.2-11.2-11.2-6.2 0-11.2 5-11.2 11.2 0 6.2 5 11.2 11.2 11.2"/><path fill="#0965A7" d="M130 95.3c1 0 1.9-.5 2.7-1.5.7-1 1.1-2.2 1.1-3.5V28.2c0-1.4-.4-2.5-1.1-3.5-.7-1-1.6-1.5-2.7-1.5-1 0-1.9.5-2.7 1.5-.7 1-1.1 2.2-1.1 3.5v62.1c0 1.4.4 2.5 1.1 3.5.8 1.1 1.7 1.5 2.7 1.5m-12.3-30.9c-1.7-3.3-4-5.5-6.7-6.5 2.6-1.1 4.6-3 6.1-5.7s2.2-6.1 2.2-10.4c0-5.6-1.3-10-3.8-13.2-2.5-3.2-6.2-4.8-11.1-4.8H94c-1.4 0-2.5.5-3.4 1.5-.8 1-1.2 2.5-1.2 4.5v58.9c0 1.9.4 3.3 1.2 4.4.8 1.1 1.9 1.6 3.4 1.6h11c5.1 0 9-1.7 11.5-5.1 2.5-3.4 3.8-8.1 3.8-14.1 0-4.1-.9-7.8-2.6-11.1zM97 31.9h6.2c5.4 0 8.1 3.7 8.1 11.2 0 7.4-2.7 11.2-8.1 11.2H97V31.9zm6.6 54.8H97V62.4h6.6c2.9 0 5.1 1.2 6.5 3.5 1.5 2.3 2.2 5.2 2.2 8.7 0 8.1-2.9 12.1-8.7 12.1zm-26-59.1c-2.5-3.7-6.2-5.5-11.2-5.5-4.9 0-9.4 2.3-13.4 6.8-.8.8-1.2 1.9-1.2 3.2 0 1.2.3 2.2.9 2.9.6.8 1.4 1.2 2.2 1.2.7 0 1.3-.3 1.8-.9 2.7-3 5.5-4.6 8.5-4.6 3.1 0 5.2 1.3 6.5 3.8 1.3 2.5 1.9 6.4 1.9 11.6v11.7c-1.2-2.7-2.7-4.8-4.6-6.2-1.9-1.4-3.9-2.1-5.9-2.1-4.2 0-7.5 2.2-10.1 6.5-2.5 4.3-3.8 9.9-3.8 16.9 0 7.1 1.3 12.8 3.8 17.1 2.5 4.4 5.9 6.5 10.1 6.5 2 0 4-.7 5.9-2.2 1.9-1.5 3.5-3.7 4.6-6.6v2.6c0 1.3.4 2.4 1.2 3.5.8 1 1.7 1.5 2.6 1.5 1 0 2-.5 2.7-1.5.8-1 1.2-2.2 1.2-3.5V44.2c0-7.4-1.2-13-3.7-16.6zm-4 52.3c-.9 3-2.1 5.3-3.6 6.9-1.5 1.6-3.1 2.3-4.8 2.3-2.7 0-4.7-1.5-6.1-4.6-1.4-3-2.1-6.9-2.1-11.5s.7-8.4 2.1-11.5c1.4-3.1 3.4-4.6 6.1-4.6 1.7 0 3.3.8 4.8 2.5s2.7 4 3.6 7v13.5z"/><path fill="#91B723" d="M283.4 39.1c-2.1-3.1-5.2-4.6-9.3-4.6-4.1 0-7.8 1.9-11.2 5.6-.7.7-1 1.6-1 2.7 0 1 .3 1.8.8 2.4.5.7 1.1 1 1.8 1 .6 0 1.1-.2 1.5-.7 2.2-2.5 4.6-3.8 7.1-3.8s4.4 1.1 5.4 3.2c1.1 2.1 1.6 5.3 1.6 9.7v9.8c-1-2.3-2.3-4-3.9-5.2s-3.2-1.8-4.9-1.8c-3.5 0-6.3 1.8-8.4 5.4-2.1 3.6-3.2 8.3-3.2 14.1 0 5.9 1.1 10.6 3.2 14.3 2.1 3.6 4.9 5.4 8.4 5.4 1.7 0 3.3-.6 4.9-1.8 1.6-1.2 2.9-3.1 3.8-5.5v2.2c0 1.1.3 2 1 2.9.7.9 1.4 1.3 2.2 1.3.9 0 1.6-.4 2.3-1.2.7-.8 1-1.8 1-2.9V52.9c0-6.2-1-10.8-3.1-13.8zm-3.3 43.6c-.7 2.5-1.7 4.4-3 5.8-1.2 1.3-2.6 2-4 2-2.2 0-3.9-1.3-5.1-3.9-1.2-2.6-1.7-5.8-1.7-9.6s.6-7 1.7-9.6c1.1-2.6 2.8-3.9 5.1-3.9 1.4 0 2.8.7 4 2.1 1.2 1.4 2.2 3.3 3 5.9v11.2z"/><path fill="#0965A7" d="M17.8 95.3c1 0 1.9-.5 2.7-1.5.7-1 1.1-2.2 1.1-3.5V62.1h14.5v28.2c0 1.4.4 2.5 1.1 3.5s1.6 1.5 2.7 1.5c1 0 1.9-.5 2.7-1.5.7-1 1.1-2.2 1.1-3.5V28.2c0-1.4-.4-2.5-1.1-3.5-.7-1-1.6-1.5-2.7-1.5-1 0-1.9.5-2.7 1.5-.7 1-1.1 2.2-1.1 3.5v25.1H21.6V28.2c0-1.4-.4-2.5-1.1-3.5-.7-1-1.6-1.5-2.7-1.5-1 0-1.9.5-2.7 1.5-.7 1-1.1 2.2-1.1 3.5v62.1c0 1.4.4 2.5 1.1 3.5.7 1.1 1.6 1.5 2.7 1.5"/><path fill="#91B723" d="M163.3 95.5c.9 0 1.6-.4 2.2-1.2.6-.8.9-1.8.9-2.9V67.9h12.1v23.5c0 1.1.3 2.1.9 2.9.6.8 1.4 1.2 2.2 1.2.9 0 1.6-.4 2.2-1.2.6-.8.9-1.8.9-2.9V39.6c0-1.1-.3-2.1-.9-2.9-.6-.8-1.4-1.2-2.2-1.2-.9 0-1.6.4-2.2 1.2-.6.8-.9 1.8-.9 2.9v20.9h-12.1V39.6c0-1.1-.3-2.1-.9-2.9-.6-.8-1.4-1.2-2.2-1.2-.9 0-1.6.4-2.2 1.2-.6.8-.9 1.8-.9 2.9v51.8c0 1.1.3 2.1.9 2.9.5.8 1.3 1.2 2.2 1.2"/><path fill="#0965A7" d="M129.9 19.3c1.3 0 2.3-.5 3.2-1.6.9-1.1 1.3-2.3 1.3-3.8s-.4-2.8-1.3-3.9-2-1.6-3.2-1.6c-1.2 0-2.3.6-3.1 1.7-.9 1.1-1.3 2.4-1.3 3.8 0 1.5.4 2.7 1.3 3.8.8 1.1 1.9 1.6 3.1 1.6"/><path fill="#91B723" d="M152.5 95.5c.9 0 1.6-.4 2.2-1.2.6-.8.9-1.8.9-2.9V39.6c0-1.1-.3-2.1-.9-2.9-.6-.8-1.4-1.2-2.2-1.2-.9 0-1.6.4-2.2 1.2-.6.8-.9 1.8-.9 2.9v51.8c0 1.1.3 2.1.9 2.9.6.8 1.4 1.2 2.2 1.2m98.9 0c.8 0 1.6-.4 2.2-1.2.6-.8.9-1.8.9-2.9V40.9c0-1.6-.3-2.9-1-3.7-.6-.9-1.6-1.3-2.8-1.3h-12c-2.4 0-3.6 1.6-3.6 4.9l-.4 10.3c-.4 13-1.1 22.1-2.2 27.5-1.1 5.4-2.5 8.5-4.2 9.3-.5.3-1 .8-1.4 1.5-.4.7-.5 1.5-.5 2.3 0 1.1.3 2.1.9 2.9.6.8 1.3 1.2 2.2 1.2.7 0 1.3-.2 1.7-.5 2.5-1.6 4.5-5.7 6-12.1 1.5-6.4 2.4-16.9 2.9-31.4l.4-8.4h7.7v48.1c0 1.1.3 2.1.9 2.9.7.7 1.5 1.1 2.3 1.1m-39.6-12.3V47.9c3.7.7 6.5 2.6 8.2 5.7 1.7 3.2 2.6 7.1 2.6 11.9 0 4.7-.9 8.6-2.6 11.8-1.7 3.3-4.5 5.2-8.2 5.9m-16.7-17.7c0-4.7.9-8.7 2.6-11.9 1.7-3.2 4.4-5.1 8.1-5.7v35.3c-3.7-.6-6.4-2.6-8.1-5.8-1.8-3.2-2.6-7.2-2.6-11.9m33.7 0c0-6.4-1.4-11.8-4.2-16.2-2.8-4.4-7.1-6.9-12.8-7.6v-2.9c0-.9-.3-1.7-.9-2.4-.6-.7-1.3-1-2.1-1-.9 0-1.6.3-2.2 1-.6.7-.9 1.5-.9 2.4v2.9c-5.8.7-10 3.2-12.8 7.6-2.8 4.4-4.1 9.8-4.1 16.2 0 6.4 1.4 11.8 4.1 16.2 2.7 4.4 7 6.9 12.8 7.6v2.8c0 .9.3 1.8.9 2.4.6.7 1.3 1 2.2 1 .8 0 1.5-.3 2.1-1 .6-.6.9-1.5.9-2.4v-2.8c5.8-.7 10-3.2 12.8-7.6 2.8-4.4 4.2-9.8 4.2-16.2"/><path fill="#0965A7" stroke="#FFF" stroke-width="3.965" stroke-miterlimit="10" d="M152.6 25.1c-2.8 0-5.1-2.3-5.1-5.1 0-1.4.5-2.3 1.4-3.8.8-1.4 1.9-3.4 3.4-6.9l.4-.9.4.9c1.4 3.5 2.5 5.5 3.3 6.9.9 1.5 1.4 2.4 1.4 3.9-.1 2.7-2.4 5-5.2 5"/><path fill="#0965A7" d="M152.6 24.6c-2.6 0-4.8-2.2-4.8-4.8 0-1.4.5-2.2 1.3-3.6.8-1.3 1.8-3.2 3.2-6.5l.3-.8.3.8c1.3 3.3 2.4 5.1 3.1 6.5.8 1.4 1.3 2.3 1.3 3.6.1 2.7-2.1 4.8-4.7 4.8"/></svg>