<svg xmlns="http://www.w3.org/2000/svg" xmlns:xlink="http://www.w3.org/1999/xlink" width="300" height="150"><defs><path id="a" d="M1 90.7h167.3v1.6H1z"/></defs><clipPath id="b"><use xlink:href="#a" overflow="visible"/></clipPath><linearGradient id="c" gradientUnits="userSpaceOnUse" x1="-4245.909" y1="7630.963" x2="-4245.289" y2="7630.963" gradientTransform="matrix(115.2392 0 0 -115.2392 489297.188 879477.5)"><stop offset="0" stop-color="#fff"/><stop offset=".099" stop-color="#e1e1e1"/><stop offset=".345" stop-color="#9c9c9b"/><stop offset=".568" stop-color="#656564"/><stop offset=".757" stop-color="#3e3e3c"/><stop offset=".908" stop-color="#262624"/><stop offset="1" stop-color="#1d1d1b"/></linearGradient><path clip-path="url(#b)" fill="url(#c)" d="M1 90.7h167.3v1.6H1z"/><path fill="#1FA12E" d="M171.6 17.5h.6c.4 0 .7.2.7.8 0 .4-.2.8-.7.8h-.6v-1.6zm0 2.4h.3c1 0 .9.6.9 1.3 0 .4 0 .8.2 1.1h1.3c-.1-.2-.1-1.3-.1-1.7 0-1-.8-1.1-1.1-1.1.8-.1 1.1-.7 1.1-1.4 0-1-.6-1.5-1.5-1.5h-2.4v5.7h1.3v-2.4zm.7 3.6c-2.2 0-4-1.8-4-4s1.8-4 4-4 4 1.8 4 4c-.1 2.2-1.9 4-4 4m0-8.9c-2.7 0-4.9 2.2-4.9 4.9s2.2 4.9 4.9 4.9 4.9-2.2 4.9-4.9c0-2.8-2.2-4.9-4.9-4.9M11.7 105.7h19.1v36.7h-3.6v-32h-12v32h-3.6v-36.7zm36.3-.6c7.6 0 12 8.1 12 19 0 11.1-4.4 19-12 19s-12-7.8-12-19c0-10.9 4.4-19 12-19zm0 33.3c5.8 0 8.2-7 8.2-14.3 0-7.5-2.7-14.4-8.2-14.3-5.5-.1-8.2 6.9-8.2 14.3 0 7.3 2.5 14.3 8.2 14.3zm15.5-.6c1.8-.9 2.3-3.3 2.3-6.8v-25.3h15v32h1.6v10.9h-3.6v-6.3H66.2v6.3h-3.6v-10.9h.9zm13.7-27.5h-8v21c0 2.5-.3 5-1.3 6.4h9.2v-27.4zm9.5-4.6h6.5c5.1 0 9.4 2.6 9.4 11 0 8.1-4.3 11-8.8 11h-3.5v14.7h-3.6v-36.7zm3.6 17.4h3.5c2.2 0 5-1.6 5-6.5 0-4.6-2.8-6.3-5.5-6.3h-3v12.8zm21.1-17.4h3.8l10.5 36.7h-3.9l-2.5-9.2H107l-2.5 9.2h-3.8l10.7-36.7zm1.7 5l-5 18.2h9.9l-4.9-18.2zm17.1 10.4h2.2c2.9 0 6.1-1.4 6.1-5.9 0-4.2-2.3-6-5-6-2.4 0-4.4 1.1-5.9 2.2l-.2-4.7c1.8-1 4.1-1.6 6.4-1.6 4.4 0 8.3 3.2 8.3 9.8 0 4.3-2.4 7.6-5.3 8.4v.1c3.4.7 5.9 3.9 5.9 8.8 0 7.8-4.6 10.9-9.8 10.9-2 0-4.1-.7-5.7-1.4l.2-4.9c1.3.9 3.3 2 5.5 2 3.1 0 6.1-2.1 6.1-6.8 0-5.1-3-6.3-6.6-6.3h-2.2v-4.6zm18.5-15.4h3.6V121h11.9v-15.3h3.6v36.7h-3.6v-16.7h-11.9v16.7h-3.6v-36.7zm25.8 0h14v4.6H178V121h9.5v4.6H178v12.1h10.4v4.6h-14v-36.6zm19.8 0h3.6V121h11.9v-15.3h3.6v36.7h-3.6v-16.7h-11.9v16.7h-3.6v-36.7zm25.6 0h3.6v36.7h-3.6v-36.7zm30.6-.6c7.6 0 12 8.1 12 19 0 11.1-4.4 19-12 19s-12-7.8-12-19c0-10.9 4.4-19 12-19zm0 33.3c5.8 0 8.2-7 8.2-14.3 0-7.5-2.7-14.4-8.2-14.3-5.5-.1-8.2 6.9-8.2 14.3 0 7.3 2.5 14.3 8.2 14.3zm15.8-19.9v-12.8h3.6v11.9c0 4.1 1.6 6.5 4.5 6.5 2.5 0 4.5-1.7 5.8-3.2v-15.2h3.6v36.7h-3.6v-16.6c-1.4 1.3-3.5 3.2-6.7 3.2-4 0-7.2-4-7.2-10.5zm23.8-12.8h3.6v36.7h-3.6v-36.7zM25 47.5c-10.1 0-16-6.3-16-15.2 0-8.7 6-15.2 16.1-15.2v-3.2h4.7v3.2c10.1 0 16.1 6.5 16.1 15.2 0 8.9-6 15.2-16.1 15.2v3.2H25v-3.2zM13.9 32.3c0 5.4 3.3 10.7 11.2 10.7V21.6c-7.5 0-11.2 5.1-11.2 10.7zm15.8 10.6c8 0 11.2-5.3 11.2-10.7 0-5.6-3.6-10.7-11.2-10.7v21.4zm28.1-2.8c0 5-2 11.1-8.8 11.1l-.7-4.9c4 0 5.1-2.8 5.1-7.1V13.9H73v36.7h-4.7v-32H57.8v21.5zM95 13.3c9.9 0 15.7 8.1 15.7 19 0 11.1-5.8 19-15.7 19-10 0-15.7-7.8-15.7-19-.1-10.9 5.7-19 15.7-19zm0 33.3c7.5 0 10.8-7 10.8-14.3 0-7.5-3.6-14.4-10.8-14.3-7.2-.1-10.8 6.9-10.8 14.3 0 7.3 3.2 14.3 10.8 14.3zm22-32.7h8.6c6.7 0 12.3 2.6 12.3 11 0 8.1-5.7 11-11.6 11h-4.6v14.7H117V13.9zm4.7 17.4h4.6c2.9 0 6.5-1.6 6.5-6.5 0-4.6-3.6-6.3-7.2-6.3h-4v12.8zm27.6-17.4h4.9L168 50.6h-5.1l-3.3-9.2h-16l-3.3 9.2h-4.9l13.9-36.7zm2.3 5l-6.5 18.2h13l-6.5-18.2zM10.9 55.6H20c7 0 11.9 2.2 11.9 8.4 0 4.6-2.7 6.8-7 7.9v.1c4.6.4 7.8 3.3 7.8 8 0 7.1-6 8.8-12.9 8.8h-9V55.6zm4.9 14.2h2.7c4.7 0 8.7-.4 8.7-5.3 0-3.9-3.4-4.9-6.2-4.9h-5.1v10.2zm0 15.1h3.6c4.4 0 8.3-.9 8.3-5.4 0-5.1-4.6-5.8-8.8-5.8h-3.1v11.2zm38.7-29.3h4.8v33.1h-4.8V55.6zm48 14.6L115 55.6h6.1l-13.7 15.7 15 17.5h-6.7l-13.1-16.2v16.2h-4.8V72.5L84.5 88.8h-6.7l15-17.5L79 55.6h6.1l12.5 14.6V55.6h4.8v14.6zM141 55.6h4.8v13.9H162V55.6h4.8v33.1H162v-15h-16.2v15.1H141V55.6zm81.3 36.7c-14.5 0-26.3-12.5-26.3-27.8 0-7.9 2.7-12.7 7.1-20.8 4.2-7.7 10-18.3 17.4-37.8l1.8-4.8 1.8 4.8c7.2 19.2 13 29.8 17.3 37.6 4.5 8.2 7.2 13.2 7.2 21 0 15.3-11.8 27.8-26.3 27.8"/><defs><path id="d" d="M222.6 9.4C237.4 87.7 247 59.8 243 52.5 229.7 28 229.7 28.1 222.6 9.4z"/></defs><clipPath id="e"><use xlink:href="#d" overflow="visible"/></clipPath><radialGradient id="f" cx="-2220.849" cy="7800.732" r="1.695" gradientTransform="matrix(9.3535 0 0 -30.0804 21008.02 234693.781)" gradientUnits="userSpaceOnUse"><stop offset="0" stop-color="#fff"/><stop offset=".066" stop-color="#f7fcf8"/><stop offset=".17" stop-color="#e1f3e3"/><stop offset=".297" stop-color="#bde4c1"/><stop offset=".443" stop-color="#8bcf93"/><stop offset=".603" stop-color="#4cb558"/><stop offset=".708" stop-color="#1fa22e"/><stop offset="1" stop-color="#1fa22e"/></radialGradient><path clip-path="url(#e)" fill="url(#f)" d="M222.6 9.4h24.3v78.3h-24.3z"/><path fill="#FFF" d="M223.7 12.5c5.9 15.8 5.9 15.7 15.5 36.1 2.9 6 2.1 31.1-15.5-36.1"/><defs><path id="g" d="M232.3 86.4c-1.2-27.9-12.3-33.4-28-37.7-17.8 25.6 11.5 49.6 28 37.7"/></defs><clipPath id="h"><use xlink:href="#g" overflow="visible"/></clipPath><linearGradient id="i" gradientUnits="userSpaceOnUse" x1="-2074.768" y1="7940.385" x2="-2063.382" y2="7940.385" gradientTransform="scale(2.618 -2.618) rotate(44.4 8767.543 6592.31)"><stop offset="0" stop-color="#fff"/><stop offset=".465" stop-color="#95d39c"/><stop offset="1" stop-color="#1fa22e"/></linearGradient><path clip-path="url(#h)" fill="url(#i)" d="M163 73l46.9-48.4 46 49.4-47 48.5z"/></svg>