<svg xmlns="http://www.w3.org/2000/svg" xmlns:xlink="http://www.w3.org/1999/xlink" width="300" height="150"><linearGradient id="a" gradientUnits="userSpaceOnUse" x1="14.073" y1="124.035" x2="284.525" y2="124.035"><stop offset="0" stop-color="#00378b" stop-opacity="0"/><stop offset=".246" stop-color="#00378b"/><stop offset="1" stop-color="#00378b"/></linearGradient><path fill="url(#a)" d="M14.1 100.1h270.5v47.8H14.1z"/><path d="M182.6 112.5l-6 24.2h-6.9l4.9-19.5h-5.1l-4.9 19.5h-6.9l6-24.2h18.9zm25.2 0l-5.9 24.2h-7l4.9-19.5h-4.1l-1.5 5.6c-1.2 4.4-2.8 9.8-6.6 12.5-1.4 1-3.1 1.8-6.2 1.9l-1.1-4.6c1.5-.3 2.5-.7 3.3-1.4 1.6-1.5 3.1-4.5 4-7.9l2.8-10.7h17.4zm12.9 0l-2.4 9.7h2.8c1-3 2.8-5.8 5.1-7.6 1.8-1.4 4.1-2.3 7-2.3 6.9 0 7.9 4.8 7.9 7.6 0 5.5-2.1 11.7-6.2 14.9-1.8 1.4-4 2.2-6.8 2.2-7.1 0-8.2-5.3-8.2-8 0-.7 0-1.4.1-2.2h-2.9l-2.4 9.9h-6.9l6-24.2h6.9zm8.2 19.9c3.8 0 5.4-10 5.4-13 0-.9-.3-2.5-1.9-2.5-3.6 0-5.6 8.5-5.6 12.8 0 1 .2 2.7 2.1 2.7zm28.1 4.1c-1 .3-2.4.4-4.4.4-8.6 0-9.6-5.9-9.6-8.2 0-6.4 2.6-10.7 6-13.3 2.8-2.2 6.3-3.1 9.7-3.1 1.6 0 3.4.3 3.8.5l-1.9 4.6c-.6-.2-1.4-.4-2.8-.4s-3.1.8-4.2 1.9c-1.8 1.9-3.2 4.8-3.2 8.6 0 2.7 1 4.5 3.8 4.5 1.1 0 2.4-.1 3.2-.4l-.4 4.9z" fill="#FFF"/><path fill="#731E80" d="M250.6 57.6c0 2.1-.4 3.7-1.1 4.8-1.1 1.5-2.7 2.3-4.8 2.3h-6.1V22.2c0-2 .5-3.7 1.4-5s2.5-2.1 4.7-2.1c2.1 0 3.7.8 4.8 2.4.8 1.2 1.1 2.7 1.1 4.7v35.4zm8-49.3c-3.3-4.9-7.9-7.4-14-7.4s-10.8 2.5-14.1 7.4c-2.7 3.9-4 8.6-4 13.9v56.7c0 7.2 2.1 12.7 6.3 16.6 3.4 3.1 7.3 4.7 11.8 4.7h12V85.8h-12c-1.8 0-3.1-.4-4.1-1.3-1.3-1.3-1.9-3.1-1.9-5.7h6.1c6 0 10.7-2.5 14.1-7.5 2.7-3.9 4-8.5 4-13.7V22.2c-.1-5.2-1.4-9.8-4.2-13.9M185.2.9V15h12v85.1h12v-85h12.1V.9h-36.1z"/><path fill="#3BBBE9" d="M166.2 100.1h12.1V22.2h-12.1v77.9zm0-85h12.1V.9h-12.1v14.2zm-19 63.7c0 2-.4 3.5-1.1 4.7-1.1 1.5-2.7 2.3-4.8 2.3-2.3 0-3.9-.7-4.7-2-.9-1.3-1.3-3.1-1.3-5.1V57.6h6.1c1.6 0 3 .5 4.2 1.6 1.2 1.1 1.8 2.9 1.8 5.5v14.1zm-10.6-61.7c.9-1.4 2.5-2.1 4.7-2.1 2.1 0 3.7.8 4.8 2.4.8 1.2 1.1 2.7 1.1 4.7v14.1c0 2.1-.4 3.7-1.1 4.8-1.1 1.5-2.7 2.3-4.8 2.3h-6.1V22.2c0-2 .5-3.7 1.4-5.1m18.6-8.8c-3.3-4.9-7.9-7.4-14-7.4s-10.8 2.5-14.1 7.4c-2.7 3.9-4 8.6-4 13.9v56.7c0 5.1 1.4 9.7 4.1 13.9 3.3 4.9 7.9 7.4 14 7.4s10.7-2.5 14.1-7.5c2.7-3.9 4-8.5 4-13.7V64.7c0-3.1-.4-5.7-1.1-8.1-.8-2.3-1.8-4.4-3.2-6.2 1.6-2.2 2.7-4.5 3.4-6.8.6-2.3 1-4.7 1-7.3V22.2c-.1-5.2-1.4-9.8-4.2-13.9m-52.1 75.3c-1.1 1.5-2.7 2.3-4.8 2.3-2.3 0-3.9-.7-4.7-2-.9-1.3-1.3-3.1-1.3-5.1V43.5c0-2 .5-3.7 1.4-5 .9-1.4 2.5-2.1 4.7-2.1h5.9v42.5c-.1 1.9-.5 3.5-1.2 4.7m6.8-78C106.5 2.5 102.7.9 98.2.9H86.1V15h12.1c1.6 0 3 .5 4.2 1.6 1.2 1.1 1.8 2.9 1.8 5.5h-5.9c-6.1 0-10.8 2.5-14.1 7.4-2.7 3.9-4 8.6-4 13.9v35.4c0 5.1 1.4 9.7 4.1 13.9 3.3 4.9 7.9 7.4 14 7.4 6 0 10.7-2.5 14.1-7.5 2.7-3.9 4-8.5 4-13.7V22.2c-.1-7.1-2.2-12.6-6.5-16.6M61.2 64.7h-12V.9h-12v99.2h12V78.8h12v21.3h12.1V.9H61.2v63.8z"/><path fill="#FFF" d="M61.4 143.7c10.9 0 19.7-8.8 19.7-19.7 0-10.9-8.8-19.7-19.7-19.7-10.9 0-19.7 8.8-19.7 19.7 0 10.9 8.8 19.7 19.7 19.7"/><path fill="#008BD0" d="M61.4 138.6c-5.3 0-9.6-4.3-9.6-9.6 0-2.7 1-4.4 2.6-7.2 1.5-2.7 3.6-6.3 6.3-13l.7-1.7.7 1.7c2.6 6.6 4.7 10.3 6.3 13 1.6 2.8 2.6 4.5 2.6 7.3 0 5.2-4.3 9.5-9.6 9.5"/><defs><path id="b" d="M61.5 110.1c5.4 27 8.8 17.4 7.4 14.9-4.8-8.5-4.8-8.5-7.4-14.9z"/></defs><clipPath id="c"><use xlink:href="#b" overflow="visible"/></clipPath><radialGradient id="d" cx="3425.819" cy="8600.323" r="2.671" gradientTransform="matrix(2.1563 0 0 -6.5814 -7320.976 56724.086)" gradientUnits="userSpaceOnUse"><stop offset="0" stop-color="#fff"/><stop offset=".075" stop-color="#ecf6fb"/><stop offset=".228" stop-color="#bae0f2"/><stop offset=".445" stop-color="#6abbe3"/><stop offset=".708" stop-color="#008bd0"/><stop offset="1" stop-color="#008bd0"/></radialGradient><path clip-path="url(#c)" fill="url(#d)" d="M61.5 110.1h8.8v27h-8.8z"/><path fill="#FFF" d="M61.9 111.1c2.1 5.4 2.1 5.4 5.6 12.4 1.1 2.1.8 10.8-5.6-12.4"/><defs><path id="e" d="M65 136.6c-.4-9.6-4.5-11.5-10.2-13-6.4 8.8 4.2 17.1 10.2 13"/></defs><clipPath id="f"><use xlink:href="#e" overflow="visible"/></clipPath><linearGradient id="g" gradientUnits="userSpaceOnUse" x1="6586.549" y1="10062.751" x2="6589.219" y2="10062.751" gradientTransform="scale(3.85 -3.85) rotate(44.399 15672.42 -3038.559)"><stop offset="0" stop-color="#fff"/><stop offset=".185" stop-color="#c7e6f5"/><stop offset=".484" stop-color="#73bfe5"/><stop offset=".728" stop-color="#35a3da"/><stop offset=".907" stop-color="#0f92d3"/><stop offset="1" stop-color="#008bd0"/></linearGradient><path clip-path="url(#f)" fill="url(#g)" d="M39.8 132l17.1-16.7 16.7 17.1L56.5 149z"/></svg>