<svg xmlns="http://www.w3.org/2000/svg" width="300" height="150"><defs><filter id="a" filterUnits="userSpaceOnUse" x="2.2" y="102.9" width="295" height="45.1"><feColorMatrix values="1 0 0 0 0 0 1 0 0 0 0 0 1 0 0 0 0 0 1 0"/></filter></defs><mask maskUnits="userSpaceOnUse" x="2.2" y="102.9" width="295" height="45.1" id="c"><g filter="url(#a)"><linearGradient id="b" gradientUnits="userSpaceOnUse" x1="6803.126" y1="7592.566" x2="6806.017" y2="7592.566" gradientTransform="matrix(101.6224 0 0 -101.6224 -691346.563 771893.938)"><stop offset="0"/><stop offset=".072" stop-color="#343434"/><stop offset=".155" stop-color="#696969"/><stop offset=".24" stop-color="#979797"/><stop offset=".325" stop-color="#bcbcbc"/><stop offset=".408" stop-color="#dadada"/><stop offset=".49" stop-color="#eee"/><stop offset=".572" stop-color="#fbfbfb"/><stop offset=".65" stop-color="#fff"/><stop offset=".975" stop-color="#fff"/><stop offset="1" stop-color="#fff"/></linearGradient><path fill="url(#b)" d="M-604.2-344.6H512.7V982.9H-604.2z"/></g></mask><g mask="url(#c)"><path fill="#00378B" d="M2.2 102.9h295V148H2.2z"/></g><path d="M146.2 135.5c-4.3 0-5-4.2-5-6.3 0-4 1.3-8.7 3.9-11.3 1.1-1.1 2.6-1.8 4.4-1.8 4.3 0 4.9 3.8 4.9 6 0 4.3-1.3 9.1-3.9 11.6-1.1 1.2-2.5 1.8-4.3 1.8zm.6-3.6c2.4 0 3.4-7.9 3.4-10.2 0-.7-.2-1.9-1.2-1.9-2.3 0-3.5 6.6-3.5 10 0 .8.1 2.1 1.3 2.1zm15.5-15.5l-1 5.4c-.1.8-.3 1.6-.3 2.3 0 .9.6 1.2 1.3 1.2.5 0 1-.1 1.3-.4l1.6-8.5h4.1l-3.6 18.9h-4.2l1.3-7h-.1c-.6.3-1.4.5-2.5.5-2 0-3.8-1.1-3.8-3.4 0-.6.2-1.7.5-3.3l1.1-5.7h4.3zm14.7 0l-1.4 7.5h3.2l1.4-7.5h4.2l-3.6 18.9h-4.2l1.4-7.6h-3.1l-1.5 7.6h-4.2l3.6-18.9h4.2zm15.1 0l-3.6 18.9h-4.2l3.6-18.9h4.2zm11.3 0l-1.6 8h.4l4.1-8h4.5l-5.4 8.6c.7.8 1.1 2.4 1.3 5.5.1 2.3.2 3.6.5 4.8h-4c-.2-1-.3-2.3-.3-4.6-.1-2.3-.4-3.3-1.4-3.3h-.1l-1.6 7.8h-4l3.6-18.9h4zm9.3.3c1.3-.2 2.9-.4 4.2-.4 1.3 0 3.4.2 4.7 1.6.8.9 1.2 2.4 1.2 3.3 0 2.9-1.4 4.9-2.7 5.9-1.3 1.1-3.3 1.6-4.9 1.6h-.7l-1.3 6.6h-4l3.5-18.6zm2.4 8.6h.5c2.4 0 3-2.4 3-3.8 0-1.1-.5-1.9-1.6-1.9-.3 0-.6 0-.8.1l-1.1 5.6zm10.8 6.2l-1.4 3.8h-4l7.6-18.9h4.9v18.9h-4l.1-3.8h-3.2zm3.3-3l.2-3.9c.1-1 .2-3.2.3-4.6h-.1c-.4 1.4-1.1 3.6-1.4 4.6l-1.3 3.9h2.3zm20.9-12.1l-3.6 18.9h-4.2l2.9-15.3h-3.1l-2.9 15.3H235l3.6-18.9h11.5zm15.2 0l-3.6 18.9h-4.2l2.9-15.3H258l-.9 4.4c-.7 3.5-1.7 7.6-4 9.7-.9.8-1.9 1.4-3.7 1.5l-.6-3.6c.9-.2 1.5-.6 2-1.1 1-1.1 1.9-3.5 2.4-6.2l1.7-8.4h10.4zm7.7 0l-3.6 18.9h-4.2l3.6-18.9h4.2z" fill="#FFF"/><path fill="#462068" d="M257.9 22c6.7 0 8.5 17.3 8.5 34 0 18.5-2 35.1-8.4 35.1-6.3 0-8.9-14.4-8.9-34.6.1-19.3 2.7-34.5 8.8-34.5m.5-12.7c-12.5 0-19.5 19.5-19.5 47.2 0 27.9 6.2 47.5 18.6 47.5 11 0 19.2-13.7 19.2-48.6 0-24.9-5.2-46.1-18.3-46.1m-58.9 1.1v92.5h9.9V23.1h14.4v79.7h9.9V10.4h-34.2zm-18.1 92.5h9.9V10.4h-9.9v92.5zm-38.2-92.5v41.9c0 20.2-.8 31.4-4.5 36.8-1 1.4-2.4 2.3-3.8 2.7l2 12.4c2.7 0 5.2-1.4 7.2-3.7 7.5-8.2 8.2-27.2 8.2-49.7V23.1h10.9v79.7h9.9V10.4h-29.9z"/><path fill="#3BBBE9" d="M124.6 102.9h10.1v-73h-10.1v73zm0-79.7h10.1V10h-10.1v13.2zm-14 59.7c0 1.8-.3 3.3-1 4.4-.9 1.4-2.2 2.1-4 2.1-1.9 0-3.2-.6-4-1.9-.7-1.3-1.1-2.9-1.1-4.8V63h5.1c1.3 0 2.5.5 3.5 1.5s1.5 2.7 1.5 5.2v13.2zm-8.8-57.8c.8-1.3 2.1-2 3.9-2 1.8 0 3.1.8 4 2.3.6 1.1 1 2.6 1 4.4V43c0 1.9-.3 3.4-1 4.5-.9 1.4-2.2 2.1-4 2.1h-5.1V29.9c0-1.9.4-3.4 1.2-4.8m15.5-8.2c-2.7-4.6-6.6-6.9-11.6-6.9-5.1 0-9 2.3-11.7 6.9-2.2 3.7-3.3 8-3.3 13V83c0 4.8 1.2 9.1 3.4 13 2.7 4.6 6.6 6.9 11.6 6.9s8.9-2.3 11.7-7.1c2.2-3.7 3.3-8 3.3-12.9V69.7c0-2.9-.3-5.4-1-7.6-.6-2.2-1.5-4.1-2.7-5.8 1.3-2.1 2.3-4.2 2.8-6.4.5-2.1.8-4.4.8-6.9V29.9c.2-4.9-1-9.2-3.3-13M75.7 87.3c-.9 1.4-2.2 2.1-4 2.1-1.9 0-3.2-.6-4-1.9-.7-1.3-1.1-2.9-1.1-4.8v-33c0-1.8.4-3.4 1.1-4.7.8-1.3 2.1-2 3.9-2h5v39.8c.1 2-.2 3.5-.9 4.5m5.7-72.9c-2.8-2.9-6-4.4-9.7-4.4H61.6v13.2h10.1c1.3 0 2.5.5 3.5 1.5s1.5 2.7 1.5 5.2h-5c-5.1 0-9 2.3-11.7 6.9-2.2 3.7-3.3 8-3.3 13v33.1c0 4.8 1.1 9.1 3.4 13 2.7 4.6 6.6 6.9 11.6 6.9s8.9-2.3 11.7-7.1c2.2-3.7 3.3-8 3.3-12.9V29.9c.1-6.7-1.7-11.8-5.3-15.5M42.7 49.8h-10V10h-10v92.9h10V63h10v39.8h10.1V10H42.7v39.8z"/></svg>