<svg xmlns="http://www.w3.org/2000/svg" xmlns:xlink="http://www.w3.org/1999/xlink" viewBox="0 0 300 150"><defs><path id="a" d="M9.2 100.4h282.7v43.9H9.2z"/></defs><clipPath id="b"><use xlink:href="#a" overflow="visible"/></clipPath><linearGradient id="c" gradientUnits="userSpaceOnUse" x1="11.9" y1="122.35" x2="289.1" y2="122.35"><stop offset="0" stop-color="#fff"/><stop offset=".041" stop-color="#c8dfee"/><stop offset=".098" stop-color="#82b6d9"/><stop offset=".15" stop-color="#4b96c8"/><stop offset=".194" stop-color="#237fbc"/><stop offset=".229" stop-color="#0b70b5"/><stop offset=".25" stop-color="#026bb2"/><stop offset=".75" stop-color="#026bb2"/><stop offset=".771" stop-color="#0b70b5"/><stop offset=".806" stop-color="#237fbc"/><stop offset=".85" stop-color="#4b96c8"/><stop offset=".901" stop-color="#82b6d9"/><stop offset=".958" stop-color="#c8dfee"/><stop offset=".999" stop-color="#fff"/></linearGradient><path clip-path="url(#b)" fill="url(#c)" d="M11.9 103.1h277.2v38.5H11.9z"/><path d="M155.6 133.3c-3.4 0-5.2-4.1-5.2-9.9 0-5.8 2-9.8 5.4-9.8 3.6 0 5.1 4.4 5.1 9.6 0 7.2-2.3 10.1-5.3 10.1zm.1-2.7c1.8 0 2.3-3.5 2.3-7.3 0-3.5-.5-7.1-2.4-7.1-1.8 0-2.5 3.6-2.4 7.1 0 3.9.7 7.3 2.5 7.3zm9.9-16.8v6.5c0 1.7.5 3 2.1 3 .6 0 1.2-.2 1.6-.5v-9h2.7v19.4h-2.7v-8h-.1c-.8.4-1.6.7-2.5.7-2.6 0-3.9-1.9-3.9-5.1v-6.9l2.8-.1zm12.2 0v8h4.1v-8h2.7V133h-2.7v-8.5h-4.1v8.5h-2.7v-19.2h2.7zm12.7 0V133h-2.7v-19.2h2.7zm9.3 0v8.6h.3l3.2-8.6h3l-4.1 9c2 .7 2.6 2.5 3 4.9.4 1.9.6 3.7 1.2 5.4h-2.7c-.4-1.3-.7-3.1-1-4.6-.4-2.3-.9-3.9-2.6-3.9h-.3v8.5h-2.7v-19.2h2.7v-.1zm8.2.3c.9-.2 2-.4 3.2-.4 1.8 0 3.3.4 4.3 1.5.9 1 1.4 2.5 1.4 4.1 0 1.9-.5 3.3-1.3 4.3-1 1.3-2.7 2-4.2 2h-.8v7.5H208v-19zm2.7 8.9c.2.1.4.1.7.1 1.8 0 2.8-1.4 2.8-3.6 0-1.8-.7-3.3-2.5-3.3-.4 0-.7.1-1 .1v6.7zm9.5 5.1l-.9 5h-2.7l3.9-19.2h3.2l3.6 19.2h-2.7l-.9-5h-3.5zm3.2-2.4l-.7-4.4c-.2-1.3-.5-3-.6-4.4h-.1c-.2 1.3-.4 3.2-.6 4.4l-.8 4.4h2.8zm15.4-11.9V133h-2.7v-16.6h-4V133h-2.7v-19.2h9.4zm11.9 0V133H248v-16.6h-3v5.7c0 4.7-.2 8.6-2.3 10.3-.5.5-1.2.8-2 .8l-.6-2.6c.4-.1.8-.3 1.1-.6 1-1.1 1.3-3.5 1.3-7.6v-8.7h8.2v.1zm5.8 0V133h-2.7v-19.2h2.7z" fill="#fff"/><path d="M243.4 27.7c6.5 0 7.9 17.8 7.9 30.8 0 13.4-1.4 31.2-7.6 31.2-6.7 0-8.4-16.1-8.4-31.2 0-13 1.3-30.8 8.1-30.8m.2-15.2c-10.7 0-20.9 14.1-20.9 46.4 0 30.1 8.3 45.8 20.5 45.8 8.7 0 20.6-10.3 20.6-46.4-.1-29.4-8.2-45.8-20.2-45.8m-62.2 1.4V30h12.9v73.2h12.6V30h12.8V13.9h-38.3zm-43.2 0v89.3h12.3V64.9h.9c5.5 0 8.2 6.6 9.9 17.1 1.4 8.4 2.6 16 4.2 21.3h12.6c-1.9-6.4-3.8-17.6-4.9-24.8-1.8-11.9-5.1-22.7-11.8-25.3l16-39.2h-13.3L152 51h-1.5V14h-12.3v-.1zm-24 61.3c0 1.7-.1 3.3-.4 4.6-1.1 7-4.1 10.3-7.2 10.3-2.8 0-6.2-3.7-6.2-13.8 0-15.6 8.8-17.6 13.8-17.8v16.7zm12.3-27.9c0-19.1-3.8-34.8-18.6-34.8-6.9 0-12.9 3.7-15.8 6.4l2.3 13.4c3.2-3.1 6.6-5 10.7-5 6.2 0 8.6 6.6 8.6 15.8v2.4c-12.9.2-25.4 9.9-25.4 32.8 0 15.6 6.2 26.4 14.4 26.4 4.9 0 9.2-3.7 12.1-10.6h.2l.7 9.2H127c-.6-5.9-.7-13.4-.7-20.4V47.3h.2zM45.4 13.9v40c0 12.8-.5 24.6-3.2 30.1-.9 2.4-2.3 4.4-4.9 5.3l2.1 15.6c2.3 0 4.8-.9 7.1-2.6 9.4-6.8 10.7-24.6 10.7-49.2V29.9h10.4v73.4h12.6V13.9H45.4z" fill="#e95316"/></svg>