<svg xmlns="http://www.w3.org/2000/svg" xmlns:xlink="http://www.w3.org/1999/xlink" width="300" height="150"><path fill="#008AD1" d="M245.3 92.3c-14.5 0-26.3-12.5-26.3-27.8 0-7.9 2.7-12.7 7.1-20.8 4.2-7.7 10-18.3 17.4-37.8l1.8-4.8 1.8 4.8c7.2 19.2 13 29.8 17.3 37.6 4.5 8.2 7.2 13.2 7.2 21 0 15.4-11.8 27.8-26.3 27.8"/><path fill="#FFF" d="M246.7 12.6c5.9 15.8 5.9 15.7 15.5 36.1 2.9 6 2.1 31.1-15.5-36.1"/><defs><path id="a" d="M255.3 86.4c-1.2-27.8-12.3-33.4-28-37.6-17.8 25.5 11.5 49.6 28 37.6"/></defs><clipPath id="b"><use xlink:href="#a" overflow="visible"/></clipPath><linearGradient id="c" gradientUnits="userSpaceOnUse" x1="8582.73" y1="8693.04" x2="8585.657" y2="8693.04" gradientTransform="scale(10.179 -10.179) rotate(44.4 14962.962 -6145.832)"><stop offset="0" stop-color="#fff"/><stop offset=".153" stop-color="#d1eaf7"/><stop offset=".465" stop-color="#79c1e7"/><stop offset=".72" stop-color="#38a3db"/><stop offset=".905" stop-color="#0f91d4"/><stop offset="1" stop-color="#008ad1"/></linearGradient><path clip-path="url(#b)" fill="url(#c)" d="M186 73.1l46.9-48.4 46 49.4-47 48.4z"/><defs><path id="d" d="M24.1 90.8h167.2v1.6H24.1z"/></defs><clipPath id="e"><use xlink:href="#d" overflow="visible"/></clipPath><linearGradient id="f" gradientUnits="userSpaceOnUse" x1="8686.895" y1="7630.962" x2="8687.515" y2="7630.962" gradientTransform="matrix(115.2392 0 0 -115.2392 -1001045.375 879477.5)"><stop offset="0" stop-color="#fff"/><stop offset=".099" stop-color="#e1e1e1"/><stop offset=".345" stop-color="#9c9c9b"/><stop offset=".568" stop-color="#656564"/><stop offset=".757" stop-color="#3e3e3c"/><stop offset=".908" stop-color="#262624"/><stop offset="1" stop-color="#1d1d1b"/></linearGradient><path clip-path="url(#e)" fill="url(#f)" d="M24.1 90.8h167.2v1.6H24.1z"/><path d="M62.3 111.8c-2.4-1.4-5-2-7.8-2-8.7 0-14.5 6.1-14.5 14.3 0 8.6 6.4 14.3 14.2 14.3 2.7 0 6.3-.7 8.2-1.8l.3 5.1c-2.9 1.2-6.4 1.3-8.6 1.3-12 0-19.9-7.5-19.9-19.1 0-11.3 8.4-18.8 20-18.8 2.9 0 5.8.4 8.5 1.6l-.4 5.1zm4.6-6h6.5l13.1 22.4 10.8-22.4h5.8l-18.3 36.7H79l4.9-9.2-17-27.5zm51.4 17.5l-12.7-17.6h6.5l10.1 14.1 10-14.1h6.2l-12.7 17.5 14 19.2h-6.8l-11.1-15.5-10.8 15.5h-6.5l13.8-19.1zm29.3-17.5h5.4v36.7h-5.4v-36.7zm51.7-.7c11.5 0 18.2 8.1 18.2 19 0 11.1-6.7 19-18.2 19s-18.2-7.8-18.2-19c0-10.9 6.7-19 18.2-19zm0 33.3c8.7 0 12.4-7 12.4-14.3 0-7.5-4.1-14.4-12.4-14.3-8.3-.1-12.4 6.9-12.4 14.3-.1 7.3 3.7 14.3 12.4 14.3zm26.6-19.8v-12.8h5.4v11.9c0 4.1 2.4 6.5 6.8 6.5 3.8 0 6.8-1.7 8.8-3.2v-15.2h5.4v36.7h-5.4v-16.6c-2.1 1.3-5.3 3.2-10.2 3.2-5.9-.1-10.8-4.1-10.8-10.5zm38.7-12.8h5.4v36.7h-5.4v-36.7z" fill="#59C2ED"/><path fill="#008AD1" d="M194.7 17.6h.6c.4 0 .7.2.7.8 0 .4-.2.8-.7.8h-.6v-1.6zm0 2.4h.3c1 0 .9.6.9 1.3 0 .4 0 .8.2 1.1h1.3c-.1-.2-.1-1.3-.1-1.7 0-1-.8-1.1-1.1-1.1.8-.1 1.1-.7 1.1-1.4 0-1-.6-1.5-1.4-1.5h-2.4v5.7h1.3V20zm.6 3.5c-2.2 0-4-1.8-4-4s1.8-4 4-4 4 1.8 4 4-1.8 4-4 4m0-8.8c-2.7 0-4.9 2.2-4.9 4.9s2.2 4.9 4.9 4.9 4.9-2.2 4.9-4.9c0-2.8-2.2-4.9-4.9-4.9M48.2 47.5c-10.1 0-16.1-6.3-16.1-15.2 0-8.7 6-15.2 16.1-15.2V14h4.7v3.2c10 0 16.1 6.5 16.1 15.2 0 8.9-6 15.2-16.1 15.2v3.2h-4.7v-3.3zM37 32.4C37 37.8 40.3 43 48.2 43V21.7c-7.5 0-11.2 5.1-11.2 10.7zM52.8 43c8 0 11.2-5.2 11.2-10.6 0-5.6-3.6-10.7-11.2-10.7V43zm28.1-2.8c0 5-2 11.1-8.8 11.1l-.7-4.9c4 0 5-2.8 5-7.1V14H96v36.7h-4.7v-32H80.9v21.5zM118 13.4c9.9 0 15.7 8.1 15.7 19 0 11.1-5.7 19-15.7 19s-15.7-7.8-15.7-19c0-10.9 5.8-19 15.7-19zm0 33.3c7.5 0 10.8-7 10.8-14.3 0-7.5-3.6-14.4-10.8-14.3-7.2-.1-10.7 6.9-10.7 14.3 0 7.3 3.2 14.3 10.7 14.3zM140.1 14h8.6c6.7 0 12.2 2.6 12.2 11 0 8.1-5.7 11-11.5 11h-4.6v14.7h-4.7V14zm4.7 17.4h4.6c2.9 0 6.5-1.6 6.5-6.5 0-4.6-3.6-6.3-7.2-6.3h-4v12.8zM172.4 14h4.9l13.8 36.7H186l-3.3-9.2h-16l-3.3 9.2h-4.9L172.4 14zm2.3 5l-6.5 18.2h13L174.7 19zM34 55.7h9.1c7 0 11.9 2.2 11.9 8.3 0 4.6-2.7 6.8-7 7.9v.1c4.6.4 7.8 3.3 7.8 8 0 7.1-6 8.8-12.9 8.8h-9V55.7zm4.9 14.1h2.7c4.7 0 8.7-.4 8.7-5.3 0-3.9-3.4-4.9-6.2-4.9H39v10.2zm0 15.1h3.6c4.4 0 8.3-.9 8.3-5.4 0-5.1-4.6-5.8-8.8-5.8h-3.1v11.2zm38.7-29.2h4.8v33.1h-4.8V55.7zm47.9 14.6L138 55.7h6.1l-13.7 15.7 15 17.5h-6.7l-13.1-16.2v16.2h-4.8V72.6l-13.1 16.2H101l15-17.5-13.7-15.7h6.1l12.5 14.6V55.7h4.8v14.6zM164 55.7h4.8v13.9H185V55.7h4.8v33.1H185V73.7h-16.2v15.1H164V55.7z"/></svg>