<svg xmlns="http://www.w3.org/2000/svg" viewBox="0 0 121.77 57.25"><defs><linearGradient id="a" x1="-531.41" y1="-926.13" x2="-530.22" y2="-926.13" gradientTransform="matrix(101.62 0 0 -101.62 54004 -93987.39)" gradientUnits="userSpaceOnUse"><stop offset="0"/><stop offset=".07" stop-color="#343434"/><stop offset=".16" stop-color="#696969"/><stop offset=".24" stop-color="#979797"/><stop offset=".32" stop-color="#bcbcbc"/><stop offset=".41" stop-color="#dadada"/><stop offset=".49" stop-color="#eee"/><stop offset=".57" stop-color="#fbfbfb"/><stop offset=".65" stop-color="#fff"/><stop offset=".97" stop-color="#fff"/><stop offset="1" stop-color="#fff"/></linearGradient><mask id="b" x="-250.31" y="-146.06" width="461.05" height="547.99" maskUnits="userSpaceOnUse"><path fill="url(#a)" d="M-250.31-146.06h461.05v547.99h-461.05z"/></mask></defs><g data-name="Layer 2"><g mask="url(#b)"><path fill="#203c81" d="M0 38.64h121.77v18.6H0z"/></g><path d="M88.7 52a3.41 3.41 0 01-1.1.14 2.4 2.4 0 01-2.41-2.67 6 6 0 011.52-4.36 3.36 3.36 0 012.44-1 2.37 2.37 0 01.95.17l-.48 1.52a1.59 1.59 0 00-.7-.12 1.5 1.5 0 00-1.07.63 4.71 4.71 0 00-.8 2.8c0 .89.25 1.48.94 1.48a2.75 2.75 0 00.8-.12zm7.19-7.87L94.38 52h-1.73l1.22-6.38h-1.28L91.37 52h-1.73l1.51-7.9zm1.49.12a10.24 10.24 0 011.74-.16 2.7 2.7 0 011.94.67 2.18 2.18 0 01.51 1.4 3.16 3.16 0 01-1.12 2.47 3.45 3.45 0 01-2 .65h-.31L97.58 52H95.9zm1 3.62h.2c1 0 1.24-1 1.24-1.6s-.22-.77-.68-.77a1.33 1.33 0 00-.31 0zm7.24.78H104l-.37 1.84h1.9l-.34 1.51h-3.61l1.51-7.9h3.48l-.3 1.52h-1.71l-.33 1.55h1.68zm3.91-4.52l-.25 1.28c-.28 1.48-.63 2.76-.91 3.73.46-1 .84-1.67 1.12-2.18l1.56-2.83h1.62L111.2 52h-1.58l.28-1.36c.32-1.55.6-2.74.82-3.61a24.08 24.08 0 01-1.12 2.31L108.06 52h-1.63l1.5-7.9zm.5-1.84a.56.56 0 00.53.64.75.75 0 00.68-.64h1.09a1.71 1.71 0 01-1.82 1.42c-1.11 0-1.52-.61-1.5-1.42z" fill="#ffdc04"/><path d="M105.58 5.27c2.74 0 3.51 7.14 3.51 14.05 0 7.65-.84 14.5-3.47 14.5S102 27.87 102 19.54c0-8 1.07-14.27 3.63-14.27m.14-5.27c-5.15 0-8 8.05-8 19.49s2.56 19.6 7.67 19.6c4.54 0 7.93-5.66 7.93-20.05 0-10.26-2.14-19-7.55-19M81.44.45v38.19h4.08V5.72h6v32.92h4.08V.45zM74 38.64h4.08V.45H74zM58.22.45v17.28c0 8.33-.34 13-1.86 15.19a3.16 3.16 0 01-1.57 1.13l.84 5.1a4 4 0 003-1.53C61.69 34.22 62 26.4 62 17.11V5.72h4.5v32.92h4.08V.45z" fill="#442460"/><path d="M50.53 38.64h4.17V8.51h-4.17zm0-32.89h4.17V.29h-4.17zm-5.75 24.67a3.53 3.53 0 01-.4 1.82 1.81 1.81 0 01-1.65.88 1.73 1.73 0 01-1.64-.78 3.92 3.92 0 01-.45-2V22.2h2.09a1.9 1.9 0 011.43.62 3 3 0 01.62 2.18zM41.11 6.56a1.73 1.73 0 011.62-.81 1.8 1.8 0 011.65.94 3.53 3.53 0 01.4 1.82V14a3.63 3.63 0 01-.4 1.87 1.81 1.81 0 01-1.65.88h-2.09V8.51a3.86 3.86 0 01.47-1.95m6.42-3.4a5.49 5.49 0 00-9.65 0 10.15 10.15 0 00-1.38 5.35v21.91a10.34 10.34 0 001.42 5.35 5.47 5.47 0 009.65-.05 10 10 0 001.43-5.3V25a11.33 11.33 0 00-.39-3.12 8.09 8.09 0 00-1.11-2.39 9 9 0 001.17-2.63A11.68 11.68 0 0049 14V8.51a10.07 10.07 0 00-1.42-5.35M30.36 32.24a1.82 1.82 0 01-1.65.88 1.73 1.73 0 01-1.64-.78 3.92 3.92 0 01-.45-2V16.73a3.76 3.76 0 01.47-2 1.7 1.7 0 011.62-.8h2v16.49a3.64 3.64 0 01-.39 1.82m2.4-30.13a5.38 5.38 0 00-4-1.82h-4.19v5.46h4.18a1.91 1.91 0 011.43.63 3 3 0 01.61 2.13h-2a5.35 5.35 0 00-4.85 2.86 10.21 10.21 0 00-1.38 5.36v13.69a10.24 10.24 0 001.42 5.35 5.31 5.31 0 004.81 2.87 5.37 5.37 0 004.84-2.92 10 10 0 001.38-5.3V8.51a8.86 8.86 0 00-2.21-6.4m-16 14.62h-4.17V.29H8.46v38.35h4.13V22.2h4.14v16.44h4.18V.29h-4.18z" fill="#45a7d0"/></g></svg>