<svg width="31" height="31" fill="none" xmlns="http://www.w3.org/2000/svg"><path d="M15.14.71a15 15 0 100 30 15 15 0 000-30z" fill="#3289DA"/><path d="M14.72 19.61l-.26-6.5.45-5.79L1.38 20.56 1.1 21a15 15 0 009.71 9.07l5.58-5.46-1.67-5z" fill="#3770A7" opacity=".6"/><path d="M19.23 9.07l-2.88-.19-2.18 2.2 2.08 2.1 3.59-2.91-.61-1.2zm-.07 6.16l-2.88-.19-2.19 2.2 2.09 2.1 3.58-2.92-.6-1.19z" fill="#3770A7" opacity=".6"/><path d="M17.1 10.18h2.75v-3.4H17.1a4.31 4.31 0 00-4.13 4.46V13h-2.75v3.42h2.75v8.27h3.44v-8.27h3.44V13h-3.44v-1.75c0-.63.36-1.07.69-1.07z" fill="#F4F4F4"/></svg>