<svg width="53" height="37" fill="none" xmlns="http://www.w3.org/2000/svg"><path d="M15.65 25.83a28.607 28.607 0 013.95-8.07c9-10.5 23.31-15.4 23.31-15.4S26.06 9.63 21.58 24.63a13.659 13.659 0 00.16 7.85l-5.93 1.22a13.739 13.739 0 01-.16-7.87z" fill="url(#paint0_linear)"/><path d="M12.43 34.37l-2.21.45a13.57 13.57 0 01-.16-7.85 29.079 29.079 0 015.07-9.6C24.16 7.97 37 3.63 37 3.63s-10.8 4.6-17.4 14.13a27.93 27.93 0 00-7.17 16.61z" fill="url(#paint1_linear)"/><path d="M15.65 25.83a13.74 13.74 0 00.16 7.85l-3.38.69a27.93 27.93 0 017.17-16.61 28.607 28.607 0 00-3.95 8.07z" fill="url(#paint2_linear)"/><path d="M15.65 25.83a13.74 13.74 0 00.16 7.85l-3.38.69a27.93 27.93 0 017.17-16.61 28.607 28.607 0 00-3.95 8.07z" fill="url(#paint3_linear)"/><path d="M6.5 35.63l-5.59 1.1c1.34-22 30.48-32 30.48-32a46.67 46.67 0 00-16.26 12.64C10.55 22.13 7 28.18 6.5 35.63z" fill="url(#paint4_linear)"/><path d="M10.06 26.97a13.57 13.57 0 00.16 7.85l-3.72.81c.46-7.41 4-13.46 8.63-18.22a29.08 29.08 0 00-5.07 9.56z" fill="url(#paint5_linear)"/><path d="M10.06 26.97a13.57 13.57 0 00.16 7.85l-3.72.81c.46-7.41 4-13.46 8.63-18.22a29.08 29.08 0 00-5.07 9.56z" fill="url(#paint6_linear)"/><path d="M37.62 11.33a28.261 28.261 0 01-3.94 8.06c-9 10.5-23.32 15.4-23.32 15.4s16.86-7.26 21.33-22.25a13.57 13.57 0 00-.16-7.85l5.93-1.21a13.66 13.66 0 01.16 7.85z" fill="url(#paint7_linear)"/><path d="M40.84 2.78l2.22-.45a13.66 13.66 0 01.16 7.85 29.169 29.169 0 01-5.07 9.6c-9 9.4-21.86 13.8-21.86 13.8s10.78-4.66 17.39-14.19a27.92 27.92 0 007.16-16.61z" fill="url(#paint8_linear)"/><path d="M37.62 11.33a13.66 13.66 0 00-.16-7.85l3.38-.7a27.92 27.92 0 01-7.16 16.61 28.263 28.263 0 003.94-8.06z" fill="url(#paint9_linear)"/><path d="M37.62 11.33a13.66 13.66 0 00-.16-7.85l3.38-.7a27.92 27.92 0 01-7.16 16.61 28.263 28.263 0 003.94-8.06z" fill="url(#paint10_linear)"/><path d="M46.77 1.57l5.6-1.15c-1.35 22-30.48 32-30.48 32a46.62 46.62 0 0016.26-12.64c4.57-4.76 8.17-10.8 8.62-18.21z" fill="url(#paint11_linear)"/><path d="M43.22 10.18a13.66 13.66 0 00-.16-7.85l3.71-.76c-.45 7.41-4 13.45-8.62 18.21a29.17 29.17 0 005.07-9.6z" fill="url(#paint12_linear)"/><path d="M43.22 10.18a13.66 13.66 0 00-.16-7.85l3.71-.76c-.45 7.41-4 13.45-8.62 18.21a29.17 29.17 0 005.07-9.6z" fill="url(#paint13_linear)"/><defs><linearGradient id="paint0_linear" x1="46515.6" y1="372093" x2="46515.6" y2="372884" gradientUnits="userSpaceOnUse"><stop stop-color="#25A9E0"/><stop offset=".17" stop-color="#3DB3E4"/><stop offset=".54" stop-color="#7CCCEE"/><stop offset="1" stop-color="#D3EEFB"/></linearGradient><linearGradient id="paint1_linear" x1="46142.8" y1="370314" x2="46142.8" y2="371101" gradientUnits="userSpaceOnUse"><stop stop-color="#25A9E0"/><stop offset=".17" stop-color="#3DB3E4"/><stop offset=".54" stop-color="#7CCCEE"/><stop offset="1" stop-color="#D3EEFB"/></linearGradient><linearGradient id="paint2_linear" x1="12133.9" y1="8298.84" x2="12133.9" y2="6532.54" gradientUnits="userSpaceOnUse"><stop stop-color="#BE1E2D"/><stop offset="1" stop-color="#F9EC31"/></linearGradient><linearGradient id="paint3_linear" x1="12128.6" y1="197224" x2="12128.6" y2="197470" gradientUnits="userSpaceOnUse"><stop stop-color="#25A9E0"/><stop offset=".16" stop-color="#50BAE7"/><stop offset=".36" stop-color="#7FCCEE"/><stop offset=".55" stop-color="#A3DBF4"/><stop offset=".72" stop-color="#BDE5F8"/><stop offset=".88" stop-color="#CDECFA"/><stop offset="1" stop-color="#D3EEFB"/></linearGradient><linearGradient id="paint4_linear" x1="51470.7" y1="379932" x2="51470.7" y2="380739" gradientUnits="userSpaceOnUse"><stop stop-color="#25A9E0"/><stop offset=".17" stop-color="#3DB3E4"/><stop offset=".54" stop-color="#7CCCEE"/><stop offset="1" stop-color="#D3EEFB"/></linearGradient><linearGradient id="paint5_linear" x1="14640.8" y1="9101.17" x2="14640.8" y2="7163.66" gradientUnits="userSpaceOnUse"><stop stop-color="#F05A28"/><stop offset="1" stop-color="#F9EC31"/></linearGradient><linearGradient id="paint6_linear" x1="14634.5" y1="216338" x2="14634.5" y2="216632" gradientUnits="userSpaceOnUse"><stop stop-color="#25A9E0"/><stop offset=".16" stop-color="#50BAE7"/><stop offset=".36" stop-color="#7FCCEE"/><stop offset=".55" stop-color="#A3DBF4"/><stop offset=".72" stop-color="#BDE5F8"/><stop offset=".88" stop-color="#CDECFA"/><stop offset="1" stop-color="#D3EEFB"/></linearGradient><linearGradient id="paint7_linear" x1="46664.4" y1="372528" x2="46664.4" y2="371738" gradientUnits="userSpaceOnUse"><stop stop-color="#4585C5"/><stop offset="1" stop-color="#A9CCEB"/></linearGradient><linearGradient id="paint8_linear" x1="45954.4" y1="371813" x2="45954.4" y2="371025" gradientUnits="userSpaceOnUse"><stop stop-color="#5992CD"/><stop offset=".89" stop-color="#8ABAE4"/></linearGradient><linearGradient id="paint9_linear" x1="-41887.2" y1="-182410" x2="-41533.9" y2="-180679" gradientUnits="userSpaceOnUse"><stop stop-color="#BE1E2D"/><stop offset="1" stop-color="#F9EC31"/></linearGradient><linearGradient id="paint10_linear" x1="11962.4" y1="197628" x2="11962.4" y2="197381" gradientUnits="userSpaceOnUse"><stop stop-color="#4B7CA4"/><stop offset=".89" stop-color="#8ABAE4"/></linearGradient><linearGradient id="paint11_linear" x1="50838.8" y1="380735" x2="50838.8" y2="379927" gradientUnits="userSpaceOnUse"><stop stop-color="#2E3091"/><stop offset="1" stop-color="#25A9E0"/></linearGradient><linearGradient id="paint12_linear" x1="-46761.5" y1="-200979" x2="-46374.2" y2="-199081" gradientUnits="userSpaceOnUse"><stop stop-color="#F05A28"/><stop offset="1" stop-color="#F9EC31"/></linearGradient><linearGradient id="paint13_linear" x1="14354.7" y1="216663" x2="14354.7" y2="216370" gradientUnits="userSpaceOnUse"><stop stop-color="#1B75BB"/><stop offset="1" stop-color="#8ABAE4"/></linearGradient></defs></svg>