<svg width="138" height="87" fill="none" xmlns="http://www.w3.org/2000/svg"><path d="M59.46 36.15a39.87 39.87 0 015.51-11.28C77.6 10.18 97.59 3.33 97.59 3.33S74.01 13.49 67.75 34.45a19.14 19.14 0 00.22 11l-8.29 1.7a19.14 19.14 0 01-.22-11z" fill="url(#paint0_linear)"/><path d="M54.95 48.1l-3.1.64a19.14 19.14 0 01-.22-11 40.997 40.997 0 017.09-13.44C71.35 11.18 89.3 5 89.3 5s-15.09 6.51-24.33 19.84c-5.4 6.32-9.46 14.03-10.02 23.26z" fill="url(#paint1_linear)"/><path d="M59.46 36.15a19.14 19.14 0 00.22 11l-4.73 1c.56-9.23 4.62-16.94 10-23.23a39.87 39.87 0 00-5.49 11.23z" fill="url(#paint2_linear)"/><path d="M59.46 36.15a19.14 19.14 0 00.22 11l-4.73 1c.56-9.23 4.62-16.94 10-23.23a39.87 39.87 0 00-5.49 11.23z" fill="url(#paint3_linear)"/><path d="M46.67 49.8l-7.83 1.61C40.72 20.6 81.48 6.64 81.48 6.64s-13.47 5.8-22.75 17.68C52.32 31 47.29 39.44 46.67 49.8z" fill="url(#paint4_linear)"/><path d="M51.67 37.76a19.14 19.14 0 00.22 11l-5.22 1.04c.63-10.36 5.66-18.81 12.06-25.48a41 41 0 00-7.06 13.44z" fill="url(#paint5_linear)"/><path d="M51.67 37.76a19.14 19.14 0 00.22 11l-5.22 1.04c.63-10.36 5.66-18.81 12.06-25.48a41 41 0 00-7.06 13.44z" fill="url(#paint6_linear)"/><path d="M90.18 15.87a39.606 39.606 0 01-5.51 11.28C72.04 41.84 52.06 48.7 52.06 48.7s23.57-10.16 29.83-31.13a19.05 19.05 0 00-.22-11l8.29-1.7a19.05 19.05 0 01.22 11z" fill="url(#paint7_linear)"/><path d="M94.67 3.92l3.1-.63a19.05 19.05 0 01.22 11 40.66 40.66 0 01-7.09 13.43c-12.63 13.14-30.57 19.3-30.57 19.3s15.08-6.51 24.32-19.85c5.42-6.3 9.48-14.02 10.02-23.25z" fill="url(#paint8_linear)"/><path d="M90.18 15.87a19.05 19.05 0 00-.22-11l4.73-1c-.56 9.23-4.62 16.95-10 23.23a39.608 39.608 0 005.49-11.23z" fill="url(#paint9_linear)"/><path d="M90.18 15.87a19.05 19.05 0 00-.22-11l4.73-1c-.56 9.23-4.62 16.95-10 23.23a39.608 39.608 0 005.49-11.23z" fill="url(#paint10_linear)"/><path d="M102.99 2.22l7.83-1.6c-1.89 30.8-42.64 44.77-42.64 44.77s13.46-5.81 22.74-17.69c6.4-6.7 11.43-15.12 12.07-25.48z" fill="url(#paint11_linear)"/><path d="M98.01 14.27a19.05 19.05 0 00-.22-11l5.2-1.07c-.64 10.36-5.67 18.82-12.07 25.48a40.66 40.66 0 007.09-13.41z" fill="url(#paint12_linear)"/><path d="M98.01 14.27a19.05 19.05 0 00-.22-11l5.2-1.07c-.64 10.36-5.67 18.82-12.07 25.48a40.66 40.66 0 007.09-13.41z" fill="url(#paint13_linear)"/><path d="M4.93 59.43H.25v1l1.42.15v10.11l-1.43.15v1h6.35v-1l-1.7-.18v-4.65h2.09l.24 1.66h1.1v-4.26h-1.1l-.23 1.49h-2.1v-4.37h3.29l.38 2.18h1.57L10 59.46l-5.07-.03zm11.93 1.92a5.38 5.38 0 105.43 5.38 5.16 5.16 0 00-5.43-5.38zm0 9.74c-1.72 0-2.37-1.89-2.37-4.36 0-2.47.65-4.37 2.37-4.37 1.72 0 2.36 1.92 2.36 4.37s-.65 4.36-2.36 4.36zm16.57-1.93a2.6 2.6 0 00-2.66-2.5c2.21-.34 3-1.41 3-2.45 0-1.61-1.5-2.57-4.2-2.57H24v1l1.29.12v7.98l-1.29.12v1h5.53v-1l-1.33-.13v-3.56h.61c1 0 1.44.43 1.61 1.46l.31 1.8c.16 1.22 1 1.61 2.48 1.61a7.152 7.152 0 001.88-.23v-1l-1.28-.14-.38-1.51zm-5.3-3v-3.55h.69c1.38 0 2.1.55 2.1 1.76 0 .93-.5 1.79-2.2 1.79h-.59zm15.54 4.58a3.898 3.898 0 01-1.57.36c-1.73 0-3.25-1.28-3.25-4.36s1.61-4.4 3.37-4.4c.454 0 .9.114 1.3.33l.38 1.8h1.41l-.11-2.36a7.44 7.44 0 00-3.39-.76c-3.2 0-6 1.74-6 5.38 0 3.64 2.64 5.38 5.92 5.38a8.37 8.37 0 003.64-.77l.1-2.35h-1.41l-.39 1.75zm10.63.1h-3.2v-3.77h1.86l.19 1.14h1v-3.33h-1l-.2 1.14h-1.88v-3.39h2.86l.24 1.68h1.59l-.18-2.67h-8.75v1l1.29.12v7.98l-1.29.12v1h9.11l.16-2.63h-1.58l-.22 1.61zm12.15-11.41h-5.13v1l1.42.15v10.11l-1.42.15v1h6.35v-1l-1.69-.18v-3.55h.53c4.09 0 5.48-1.77 5.48-3.92s-1.61-3.76-5.54-3.76zm0 6.59h-.55v-5.51h.45a2.331 2.331 0 012.56 2.63c.07 1.73-.75 2.86-2.42 2.86l-.04.02zm14.39-4.38h-1.17v1l1.19.12v3.36h-3.61v-3.36l1.2-.12v-1h-5.42v1l1.27.13v7.96l-1.27.13v1h5.42v-1l-1.2-.12v-3.66h3.61v3.66l-1.19.12v1h5.4v-1l-1.26-.12V62.7l1.26-.12v-1h-4.23v.06zm11.95-.02h-1.78l-3.51 9.06-1.43.19v1h3.76v-1l-1.27-.19.65-1.74h3.46l.64 1.8-1.32.18v.9h5.27v-.9l-1-.12-3.47-9.18zm-3.2 6.28l1.4-3.75 1.32 3.75h-2.72zm18.33 1.26a2.6 2.6 0 00-2.66-2.5c2.21-.34 3-1.41 3-2.45 0-1.61-1.5-2.57-4.2-2.57H98.5v1l1.28.12v7.98l-1.29.12v1h5.52v-1l-1.33-.13v-3.56h.61c1 0 1.44.43 1.61 1.46l.31 1.8c.17 1.22 1 1.61 2.49 1.61.631.007 1.26-.07 1.87-.23v-1l-1.28-.14-.37-1.51zm-5.3-3v-3.55h.69c1.38 0 2.1.55 2.1 1.76 0 .93-.5 1.79-2.19 1.79h-.6zm20.9.84v-4.3l1.2-.12v-1h-4.35l-2.56 6.77-2.76-6.77h-4.53v1l1.47.16v7.93l-1.63.19v1h4.18v-1l-1.34-.2v-3.74l-.07-2.77 3.14 7.66h1.46l2.92-7.61v6.52l-1.23.14v1h5.46v-1l-1.29-.13c-.07-1.22-.07-2.46-.07-3.73zM136 70.8l-3.46-9.18h-1.79l-3.5 9.06-1.44.19v1h3.77v-1l-1.27-.19.64-1.74h3.47l.64 1.8-1.32.18v.9h5.27v-.9L136 70.8zm-6.66-2.9l1.39-3.75 1.32 3.75h-2.71z" fill="#25A9E0"/><path d="M18.38 80.35H15.2v.59l.8.08v5l-.8.07v.6h3c2.3 0 3.82-1.16 3.82-3.19 0-2.03-1.35-3.15-3.64-3.15zm-.19 5.71h-.35v-5.08h.37c1.18 0 1.93.89 1.93 2.53 0 1.64-.75 2.55-1.95 2.55zm7.84-5.71h-.78v.59l.8.08v5l-.8.07v.6h3.42v-.6l-.81-.07v-5l.81-.08v-.59h-2.66.02zm9.22 2.5l-.5-.21c-.63-.25-1-.51-1-1a.94.94 0 011-.84 2.2 2.2 0 01.77.15l.11 1h1.1l.08-1.34a4.06 4.06 0 00-2-.49c-1.62 0-2.65.72-2.65 1.87 0 1.15.73 1.67 2 2.18l.45.18c.62.25.9.46.9.94 0 .48-.39.88-1.1.88a3.097 3.097 0 01-1.08-.19l-.13-1.09h-1.11l-.06 1.43a5.17 5.17 0 002.33.49c1.82 0 2.78-.81 2.78-2 .02-.88-.54-1.42-1.89-1.96zm9.02-2.5H40.2v1.78h1l.12-1.16h1.14v5.04l-.9.08v.6h3.65v-.6l-.91-.08v-5.04h1.15l.12 1.16h1v-1.78h-2.3zM55.56 85a1.63 1.63 0 00-1.66-1.56c1.38-.21 1.84-.88 1.84-1.52 0-1-.93-1.6-2.61-1.6h-3.46v.59l.8.08v5l-.8.07v.6h3.44v-.6l-.83-.08v-2.21h.39c.62 0 .9.27 1 .91l.19 1.12c.11.76.64 1 1.55 1 .394.005.788-.042 1.17-.14v-.6l-.8-.09-.22-.97zm-3.3-1.84v-2.21h.41c.86 0 1.31.34 1.31 1.1 0 .57-.32 1.11-1.37 1.11h-.35zm8-2.81h-.79v.59l.8.08v5l-.8.07v.6h3.45v-.6l-.82-.07v-5l.82-.08v-.59h-2.66zm10.21 2.95c1.37-.23 1.76-.79 1.76-1.45 0-.86-.68-1.5-2.47-1.5h-3.47v.59l.81.08v5l-.81.07v.6h3c2.65 0 3.31-1 3.31-1.79s-.57-1.44-2.13-1.6zM69.28 81c.82 0 1.21.31 1.21 1s-.41 1.09-1.31 1.09h-.29v-2.1l.39.01zm-.05 5.08h-.32V83.7h.35c1.05 0 1.55.36 1.55 1.2s-.59 1.16-1.58 1.16v.02zm12.02-5.73h-.93v.59l.93.06v2.92c0 1.45-.57 2-1.5 2s-1.49-.51-1.49-2v-2.94l.88-.08v-.59h-3.47v.59l.77.07v3.32c0 1.83 1.14 2.53 2.7 2.53 1.78 0 2.87-.84 2.86-2.92v-2.94l.86-.06v-.59h-1.61v.04zm8.79 0h-4.06v1.78h1l.12-1.16h1.14v5.04l-.9.08v.6h3.65v-.6l-.91-.08v-5.04h1.15l.12 1.16h1v-1.78h-2.31zm6.19 0h-.79v.59l.8.08v5l-.8.07v.6h3.45v-.6l-.82-.07v-5l.82-.08v-.59h-2.66zm9.44-.18a3.347 3.347 0 00-3.066 2.096 3.352 3.352 0 00.751 3.637 3.35 3.35 0 005.705-2.383 3.218 3.218 0 00-3.39-3.35zm0 6.06c-1.07 0-1.47-1.18-1.47-2.71s.4-2.72 1.47-2.72c1.07 0 1.48 1.19 1.48 2.72 0 1.53-.42 2.71-1.48 2.71zm13.85-5.88h-2.87v.59l1.22.12-.02 3.05-3.05-3.76h-2.4v.6l.77.05.14.17v4.81l-.9.11v.59h2.85v-.59l-1.21-.13.02-3.83 3.65 4.58h.9v-5.65l.9-.12v-.59z" fill="#1B75BB"/><defs><linearGradient id="paint0_linear" x1="82.564" y1="39.345" x2="75.507" y2="4.76" gradientUnits="userSpaceOnUse"><stop stop-color="#25A9E0"/><stop offset=".17" stop-color="#3DB3E4"/><stop offset=".54" stop-color="#7CCCEE"/><stop offset="1" stop-color="#D3EEFB"/></linearGradient><linearGradient id="paint1_linear" x1="99691.9" y1="63884.2" x2="99691.9" y2="65427.8" gradientUnits="userSpaceOnUse"><stop stop-color="#25A9E0"/><stop offset=".17" stop-color="#3DB3E4"/><stop offset=".54" stop-color="#7CCCEE"/><stop offset="1" stop-color="#D3EEFB"/></linearGradient><linearGradient id="paint2_linear" x1="82.875" y1="155.56" x2="53.123" y2="9.775" gradientUnits="userSpaceOnUse"><stop stop-color="#BE1E2D"/><stop offset="1" stop-color="#F9EC31"/></linearGradient><linearGradient id="paint3_linear" x1="62.465" y1="43.447" x2="58.317" y2="23.122" gradientUnits="userSpaceOnUse"><stop stop-color="#25A9E0"/><stop offset=".16" stop-color="#50BAE7"/><stop offset=".36" stop-color="#7FCCEE"/><stop offset=".55" stop-color="#A3DBF4"/><stop offset=".72" stop-color="#BDE5F8"/><stop offset=".88" stop-color="#CDECFA"/><stop offset="1" stop-color="#D3EEFB"/></linearGradient><linearGradient id="paint4_linear" x1="111217" y1="65390" x2="111217" y2="66970" gradientUnits="userSpaceOnUse"><stop stop-color="#25A9E0"/><stop offset=".17" stop-color="#3DB3E4"/><stop offset=".54" stop-color="#7CCCEE"/><stop offset="1" stop-color="#D3EEFB"/></linearGradient><linearGradient id="paint5_linear" x1="75.78" y1="157.008" x2="46.028" y2="11.223" gradientUnits="userSpaceOnUse"><stop stop-color="#F05A28"/><stop offset="1" stop-color="#F9EC31"/></linearGradient><linearGradient id="paint6_linear" x1="31599" y1="37236" x2="31599" y2="37810.1" gradientUnits="userSpaceOnUse"><stop stop-color="#25A9E0"/><stop offset=".16" stop-color="#50BAE7"/><stop offset=".36" stop-color="#7FCCEE"/><stop offset=".55" stop-color="#A3DBF4"/><stop offset=".72" stop-color="#BDE5F8"/><stop offset=".88" stop-color="#CDECFA"/><stop offset="1" stop-color="#D3EEFB"/></linearGradient><linearGradient id="paint7_linear" x1="67.96" y1="6.301" x2="75.019" y2="40.885" gradientUnits="userSpaceOnUse"><stop stop-color="#4585C5"/><stop offset="1" stop-color="#A9CCEB"/></linearGradient><linearGradient id="paint8_linear" x1="76.026" y1="4.654" x2="83.084" y2="39.239" gradientUnits="userSpaceOnUse"><stop stop-color="#5992CD"/><stop offset=".89" stop-color="#8ABAE4"/></linearGradient><linearGradient id="paint9_linear" x1="-22021.6" y1="-32593.3" x2="-21330.5" y2="-29206.9" gradientUnits="userSpaceOnUse"><stop stop-color="#BE1E2D"/><stop offset="1" stop-color="#F9EC31"/></linearGradient><linearGradient id="paint10_linear" x1="88.06" y1="2.199" x2="92.21" y2="22.534" gradientUnits="userSpaceOnUse"><stop stop-color="#4B7CA4"/><stop offset=".89" stop-color="#8ABAE4"/></linearGradient><linearGradient id="paint11_linear" x1="86.414" y1="2.535" x2="93.472" y2="37.119" gradientUnits="userSpaceOnUse"><stop stop-color="#2E3091"/><stop offset="1" stop-color="#25A9E0"/></linearGradient><linearGradient id="paint12_linear" x1="-26119.4" y1="-35449.6" x2="-25361.4" y2="-31735.3" gradientUnits="userSpaceOnUse"><stop stop-color="#F05A28"/><stop offset="1" stop-color="#F9EC31"/></linearGradient><linearGradient id="paint13_linear" x1="95.156" y1=".751" x2="99.663" y2="22.84" gradientUnits="userSpaceOnUse"><stop stop-color="#1B75BB"/><stop offset="1" stop-color="#8ABAE4"/></linearGradient></defs></svg>