<svg width="31" height="31" fill="none" xmlns="http://www.w3.org/2000/svg"><path d="M15.17.71a15 15 0 100 30 15 15 0 000-30z" fill="#3B82B9"/><path d="M13.86 9.87l-.52-.58-2 2.61-.59.8-.22-1.64S9.9 7.99 8.01 9.84L.24 17.45a15 15 0 0013 13.14l8.23-8.24.15-3.49-.76-8.93-7-.06z" fill="#3B82B9" opacity=".6"/><path d="M20.34 8.75H10.02a1.78 1.78 0 00-1.78 1.78v10.34a1.78 1.78 0 001.78 1.78h10.32a1.78 1.78 0 001.78-1.78V10.53a1.78 1.78 0 00-1.78-1.78zm-2.18 2.18a.52.52 0 01.52-.52h1.26a.518.518 0 01.53.52v1.26a.53.53 0 01-.53.53h-1.27a.519.519 0 01-.52-.53l.01-1.26zm-3 1.79a3 3 0 11-1.134.223c.366-.15.758-.226 1.154-.223h-.02zm5.63 8a.55.55 0 01-.55.55H10.12a.55.55 0 01-.55-.55V14.7H11a4.066 4.066 0 00-.12 1 4.31 4.31 0 108.61 0 4.62 4.62 0 00-.12-1h1.44l-.02 6.02z" fill="#fff"/></svg>