<svg width="149" height="69" fill="none" xmlns="http://www.w3.org/2000/svg"><path d="M72.11 51.62a15.54 15.54 0 01-15.44-15.56c0-4.41 1.58-7.14 4.19-11.66A144.927 144.927 0 0071.09 3.25l1.07-2.7 1.07 2.7a144.408 144.408 0 0010.17 21c2.64 4.59 4.24 7.37 4.24 11.78a15.53 15.53 0 01-15.48 15.56" fill="url(#paint0_radial)"/><path d="M78.42 47.71c-.71-15.59-7.25-18.69-16.53-21.07-10.46 14.28 6.78 27.74 16.53 21.07z" fill="url(#paint1_radial)"/><path d="M72.06 7.41c8.31 41.92 13.72 27 11.49 23.12-7.54-13.15-7.54-13.11-11.49-23.12z" fill="url(#paint2_radial)"/><path d="M4.49 36.75c-.28-.9-.71-1.52-1.66-1.52a1 1 0 00-1 1c0 .68.51 1 1.35 1.38 1.27.56 2 1 2 2.12a2.31 2.31 0 01-2.51 2.17 4.08 4.08 0 01-1.84-.45C.75 41 .61 40.12.55 39.6l.45-.07c.28 1 .82 1.84 1.91 1.84a1.06 1.06 0 001.11-1c0-.7-.42-1.07-1.27-1.45-1-.46-2-1-2-2.15a2.18 2.18 0 012.45-2 8.2 8.2 0 011.52.2c.05.37.16 1.35.23 1.72l-.46.06zm1.55 4.96v-.43c1-.09 1.12-.17 1.12-1.2v-7.42c0-.95-.08-1-1.07-1.17v-.4c.784-.09 1.555-.268 2.3-.53v9.52c0 1 .09 1.11 1.1 1.2v.43H6.04zm11.17-6.39c-.81.13-1 .25-1.36 1.13-.36.88-.81 1.93-1.88 4.63a42.51 42.51 0 00-1.54 4.25c-.09.32-.26.4-.46.4a.9.9 0 01-.95-.75c0-.2.11-.34.34-.54a3.389 3.389 0 001-1.15c.33-.65.56-1.19.64-1.39a1 1 0 000-.64c-.61-1.77-1.44-3.67-1.91-4.79-.34-.85-.48-1-1.33-1.15v-.42h3.13v.42c-.71.11-.79.27-.59.84l1.5 3.82c.44-1.07 1.06-2.8 1.38-3.77.19-.59.08-.76-.82-.89v-.42h2.84l.01.42zm3.82-.6a3.34 3.34 0 013.38 3.47 3.48 3.48 0 01-3.38 3.71 3.412 3.412 0 01-3.45-3.46 3.55 3.55 0 013.45-3.72zm-.19.53c-.95 0-1.8.91-1.8 2.71 0 2 .87 3.4 2.14 3.4 1 0 1.77-.7 1.77-2.83 0-1.81-.74-3.28-2.11-3.28zm10.53 4.48c-.2.6-.51 1.49-.67 2h-5.21l-.09-.25c1.35-2 2.67-4 3.94-6h-1.5c-1.11 0-1.29.17-1.9 1.5l-.43-.14c.198-.735.358-1.479.48-2.23h.34c.09.23.3.32.87.32h3.66l.09.24c-1.22 1.86-2.59 4-3.87 6h1.66c1.17 0 1.53-.31 2.23-1.61l.4.17zm5.82 2.17a1.12 1.12 0 01-.73-.3 1.37 1.37 0 01-.37-.69 5.003 5.003 0 01-1.86 1 1.91 1.91 0 01-1.9-1.91 1.57 1.57 0 011.28-1.55 12.8 12.8 0 002.45-1v-.31c0-1.1-.56-1.73-1.37-1.73a.92.92 0 00-.73.35 3.397 3.397 0 00-.42 1 .42.42 0 01-.45.36.75.75 0 01-.68-.69c0-.21.2-.4.51-.62a6.489 6.489 0 012.24-1.08 2 2 0 012.09 2.22v3c0 .71.26.93.54.93.197-.012.39-.07.56-.17l.16.43-1.32.76zM36.06 38c-.35.18-1.09.5-1.45.66-.59.26-.94.55-.94 1.13a1.12 1.12 0 001.11 1.19 2.07 2.07 0 001.28-.56V38zm73.75 2.32a3.695 3.695 0 01-2.65 1.58 3.138 3.138 0 01-3.14-3.26 3.688 3.688 0 011.57-3 4.131 4.131 0 012.36-.88 2.32 2.32 0 011.44.42.491.491 0 01.25.45.78.78 0 01-.56.69c-.08 0-.14 0-.3-.15a2.3 2.3 0 00-1.56-.65c-1 0-1.93.87-1.93 2.48 0 2.16 1.46 2.87 2.36 2.87a2.477 2.477 0 001.89-.85l.27.3zm4.29-5.6a3.33 3.33 0 013.38 3.47 3.482 3.482 0 01-3.38 3.71 3.406 3.406 0 01-2.452-1.002 3.4 3.4 0 01-.988-2.458 3.547 3.547 0 013.44-3.72zm-.18.53c-1 0-1.8.91-1.8 2.71 0 2 .87 3.4 2.14 3.4 1 0 1.77-.7 1.77-2.83 0-1.81-.75-3.28-2.11-3.28zm13.13 6.46v-.43c.92-.09 1-.16 1-1.24v-2.59c0-1.1-.37-1.8-1.34-1.8a2.82 2.82 0 00-1.72.8 5.35 5.35 0 010 .67v3c0 1 .14 1.06 1 1.15v.43h-3.32v-.43c1-.09 1.1-.16 1.1-1.18v-2.67c0-1.15-.35-1.78-1.3-1.78a2.998 2.998 0 00-1.7.8v3.65c0 1 .1 1.09 1 1.18v.43h-3.34v-.43c1-.09 1.12-.16 1.12-1.18v-3.21c0-1-.06-1.06-.93-1.21v-.39a8.434 8.434 0 002.16-.62v1.26a11.17 11.17 0 011.14-.81 2.1 2.1 0 011.23-.4 1.813 1.813 0 011.69 1.27c.43-.34.84-.6 1.22-.87a2.37 2.37 0 011.23-.4c1.21 0 2 .87 2 2.39v3c0 1 .1 1.09 1 1.18v.43h-3.24zm5.48.22a.922.922 0 01-1-1 .998.998 0 011-1 .999.999 0 110 2zm9.38-.57c-.802.123-1.594.304-2.37.54v-1.2a3.831 3.831 0 01-2.37 1.2c-1 0-1.94-.64-1.94-2.33v-3c0-.83-.13-.93-.51-1l-.44-.08v-.41a21.798 21.798 0 002.22-.27c-.05.49-.05 1.24-.05 2.26v2.11c0 1.36.72 1.75 1.42 1.75a2.47 2.47 0 001.67-.74v-3.62c0-.83-.19-.94-.71-1l-.5-.06v-.41a21.724 21.724 0 002.44-.27V40c0 .78.12.88.71.92h.43v.44zm5.76.54a1.141 1.141 0 01-.73-.3 1.372 1.372 0 01-.37-.69 5.005 5.005 0 01-1.86 1 1.91 1.91 0 01-1.9-1.91 1.567 1.567 0 011.28-1.55c.85-.246 1.671-.58 2.45-1v-.31c0-1.1-.56-1.73-1.37-1.73a.925.925 0 00-.73.35 3.4 3.4 0 00-.42 1 .42.42 0 01-.45.36.747.747 0 01-.68-.69c0-.21.2-.4.51-.62a6.492 6.492 0 012.24-1.08 1.998 1.998 0 012.09 2.22v3c0 .71.26.93.54.93.197-.012.389-.07.56-.17l.16.43-1.32.76zm-1.13-3.9c-.34.18-1.09.5-1.45.66-.59.26-.94.55-.94 1.13a1.118 1.118 0 001.11 1.19 2.07 2.07 0 001.28-.56V38z" fill="#fff"/><path d="M84.37 61.27a27.89 27.89 0 0011.22-40.08c30-2.7 47.21 10.64 47.21 10.64S116.67 4.8 77.67 2.33a161.357 161.357 0 008.75 18.27c3 5.4 4.9 9 4.9 14.64 0 11.2-8.68 20.32-19.35 20.32-10.67 0-19.3-9.1-19.3-20.3 0-5.68 1.92-9.19 4.84-14.51v-.07A161.633 161.633 0 0066.3 2.34C46.59 3.6 24.3 11.56.7 31.83 23.07 20.74 43.06 13 61.37 10.49a27.88 27.88 0 00-12.14 41.66C26.91 55.4.7 43.89.7 43.89s64.54 55.24 142.1 0c-21.46 8.8-40.73 15.05-58.43 17.38z" fill="url(#paint3_radial)"/><defs><radialGradient id="paint0_radial" cx="0" cy="0" r="1" gradientUnits="userSpaceOnUse" gradientTransform="matrix(21.9264 0 0 20.7844 73.277 34.802)"><stop stop-color="#fff"/><stop offset="1" stop-color="#0E75BC"/></radialGradient><radialGradient id="paint1_radial" cx="0" cy="0" r="1" gradientUnits="userSpaceOnUse" gradientTransform="matrix(20.2176 0 0 19.1646 74.736 44.02)"><stop stop-color="#fff"/><stop offset=".47" stop-color="#fff" stop-opacity=".51"/><stop offset=".83" stop-color="#fff" stop-opacity=".14"/><stop offset="1" stop-color="#fff" stop-opacity="0"/></radialGradient><radialGradient id="paint2_radial" cx="0" cy="0" r="1" gradientUnits="userSpaceOnUse" gradientTransform="matrix(321.439 0 0 773.969 6199.8 32835.6)"><stop stop-color="#fff"/><stop offset=".47" stop-color="#fff" stop-opacity=".51"/><stop offset=".83" stop-color="#fff" stop-opacity=".14"/><stop offset="1" stop-color="#fff" stop-opacity="0"/></radialGradient><radialGradient id="paint3_radial" cx="0" cy="0" r="1" gradientUnits="userSpaceOnUse" gradientTransform="translate(71.75 35.39) scale(41.38)"><stop stop-color="#0CA4EC"/><stop offset=".18" stop-color="#0B99E1"/><stop offset=".5" stop-color="#077CC3"/><stop offset=".91" stop-color="#014E93"/><stop offset="1" stop-color="#048"/></radialGradient></defs></svg>