<svg width="31" height="31" fill="none" xmlns="http://www.w3.org/2000/svg"><path d="M15.2 30.71c8.284 0 15-6.716 15-15 0-8.284-6.716-15-15-15-8.284 0-15 6.716-15 15 0 8.284 6.716 15 15 15z" fill="#EB5350"/><path d="M22.54 17.42l-4.92-1.9 2.56-1.54-.85-4.53-1 .71-.77-.73-1 1.11-1.53-.91-.89.34-1.8 1.66s-.85-2.27-.91-2.53c-.26-1.34-1-1.34-1-1.34L.37 17.61a15 15 0 0014.78 13.1l7.78-7.76c1-1-.51-2.92-.51-2.92l.12-2.61z" fill="#C24441" opacity=".6"/><path d="M15.34 14.15a1.48 1.48 0 001-.34 1.24 1.24 0 00.37-.94v-2.39a1.11 1.11 0 00-.38-.87 1.41 1.41 0 00-1-.34 1.57 1.57 0 00-1 .32 1.06 1.06 0 00-.38.86v2.41a1.242 1.242 0 00.37.94c.28.247.647.373 1.02.35zm-.39-3.73a.31.31 0 01.11-.25.43.43 0 01.28-.09.5.5 0 01.31.09.31.31 0 01.11.25v2.52a.42.42 0 01-.11.3.45.45 0 01-.31.1.39.39 0 01-.29-.1.45.45 0 01-.1-.3v-2.52zm3.21 3.68c.175.005.35-.029.51-.1a2.13 2.13 0 00.54-.43V14h.95V9.36h-.95v3.52a1 1 0 01-.29.25.48.48 0 01-.26.1.25.25 0 01-.2-.08.33.33 0 01-.06-.23V9.36h-.94v3.88a1 1 0 00.16.62.6.6 0 00.54.24zm-6.57-.07h1.08v-2.61l1.24-3.68h-1.09l-.66 2.51h-.06l-.7-2.51h-1.07l1.27 3.8-.01 2.49zm10.22 1.06H8.87a2.12 2.12 0 00-2.12 2.11v4a2.12 2.12 0 002.12 2.11h12.94a2.12 2.12 0 002.12-2.11v-4a2.12 2.12 0 00-2.12-2.11zm-9.47 2.07h-1V22h-.95v-4.87h-1v-.83h2.91l.04.86zm2.78 4.87h-.84v-.46a1.89 1.89 0 01-.49.39 1 1 0 01-.49.14.54.54 0 01-.44-.19.9.9 0 01-.15-.57v-3.52h.84v3.23a.32.32 0 00.06.22.21.21 0 00.17.07.45.45 0 00.23-.09c.101-.063.192-.14.27-.23v-3.2h.84v4.21zm3.05-.87a1 1 0 01-.2.69.689.689 0 01-.57.24.999.999 0 01-.44-.09 1.07 1.07 0 01-.36-.29V22h-.85v-5.7h.85v1.83a1.58 1.58 0 01.36-.29.94.94 0 01.39-.1.72.72 0 01.61.27c.156.233.23.51.21.79v2.36zm2.92-1.13h-1.61v.79a.94.94 0 00.08.46.411.411 0 00.58 0 .83.83 0 00.09-.48v-.19h.86v.22a1.288 1.288 0 01-.32 1 1.24 1.24 0 01-.94.33 1.171 1.171 0 01-.89-.35 1.32 1.32 0 01-.33-.95V19a1.19 1.19 0 01.36-.9 1.28 1.28 0 01.92-.34 1.2 1.2 0 01.89.32 1.251 1.251 0 01.31.92v1.03zm-4.14-1.59a.331.331 0 00-.17 0 .681.681 0 00-.18.13v2.62a.8.8 0 00.2.15.488.488 0 00.2 0 .27.27 0 00.23-.09.46.46 0 00.07-.29v-2.18a.49.49 0 00-.08-.32.349.349 0 00-.27-.02zm2.91 0a.33.33 0 00-.29.11.62.62 0 00-.09.38v.42h.75V19a.7.7 0 00-.09-.38.33.33 0 00-.28-.16v-.02z" fill="#F4F4F4"/></svg>