<svg width="150" height="150" fill="none" xmlns="http://www.w3.org/2000/svg"><path d="M103.82 119.918c25.04-16.15 32.247-49.54 16.098-74.58-16.15-25.04-49.54-32.246-74.58-16.097-25.04 16.15-32.246 49.54-16.097 74.579 16.15 25.04 49.54 32.247 74.579 16.098z" fill="url(#paint0_radial)"/><path opacity=".27" d="M23.16 58.222c.16-.48.32-1 .49-1.44 1.704.276 3.34.873 4.82 1.76-1.76-.16-3.53-.26-5.31-.32zm-1.94 24.32c.93-.11 1.87-.21 2.79-.34-.939.148-1.853.42-2.72.81.17 1.1.39 2.17.62 3.24 2.7-1.14 7.62-3.53 7.87-3.4a30.271 30.271 0 00-8.85-2.55c.08.75.18 1.5.29 2.24zm17.22 19a89.717 89.717 0 00-9.07 2.47c.92 1.406 1.9 2.767 2.94 4.08a41.21 41.21 0 006.13-6.56v.01zm-13-4.61c.666 1.46 1.39 2.88 2.17 4.26a9 9 0 002.69-4 13.572 13.572 0 00-4.82-.27l-.04.01zm-.24-28.6a13.413 13.413 0 00-3.81-3 73.723 73.723 0 00-.56 4.72 9 9 0 004.41-1.73l-.04.01zm-2.71 20.3c.13.5.27 1 .41 1.47 1.51-1 3-1.88 4.58-2.75-1.729.11-3.422.545-4.99 1.28zm32-64.1c-1.56.61-3.08 1.3-4.56 2.1a40.73 40.73 0 005.2 7.26 88.901 88.901 0 00-.64-9.38v.02zm-8.21 4.1c.47.8.93 1.62 1.4 2.42a10.65 10.65 0 00-1.79-2.17c-.93.59-1.85 1.2-2.74 1.84 2.11 2 6.22 5.62 6.2 5.89a30.353 30.353 0 00-1.12-9.11c-.6.37-1.31.75-1.95 1.13zm-20.65 23.23c.83.42 1.66.84 2.49 1.24a10.525 10.525 0 00-2.69-.81c-.45 1-.88 2-1.27 3 2.88.54 8.29 1.26 8.42 1.49a30.11 30.11 0 00-6-7c-.28.72-.62 1.4-.95 2.08zm3.86 24.58a87.53 87.53 0 00-8.86-3.06v1.2c0 1.28.06 2.55.15 3.81a40.314 40.314 0 008.71-1.95zm17.24 44.35c1.367.833 2.777 1.6 4.23 2.3a9 9 0 000-4.84 13.526 13.526 0 00-4.23 2.54zm32.76-99.93c-.75-.07-1.5-.13-2.26-.16-.07.94-.16 1.89-.22 2.82.04-.954-.047-1.91-.26-2.84-.72-.05-1.44-.05-2.12-.05H73.5c.59 2.87 2 8.17 1.78 8.39a29.999 29.999 0 004.21-8.16zm-25.54 103.58c1.56.64 3.14 1.21 4.76 1.71a41.001 41.001 0 001.36-8.94 85.735 85.735 0 00-6.12 7.23zm8.8 2.77c.24-.94.49-1.88.71-2.82a10.55 10.55 0 00-.21 2.94c1.07.22 2.15.43 3.24.59-.08-2.9-.55-8.49-.35-8.68a30.395 30.395 0 00-5.61 7.39c.73.24 1.47.41 2.22.58zm-27.46-89.58a41.253 41.253 0 00-3.09 3.59 8.86 8.86 0 004.62 1 13.41 13.41 0 00-1.53-4.59zm32.79 90.49c.51.07 1 .12 1.53.17-.33-1.78-.62-3.57-.84-5.37a13.729 13.729 0 00-.69 5.2zm-7.14-101.36a13.45 13.45 0 001.25-4.68c-1.56.36-3.08.79-4.56 1.29a8.879 8.879 0 003.31 3.39zm8.47-5.88c.64 1.67 1.25 3.34 1.79 5 .235-1.705.144-3.44-.27-5.11-.51.03-1.02.06-1.52.11zm-33.52 30.44a86.917 86.917 0 00-5.68-7.42 55.662 55.662 0 00-2.65 4.24 40.36 40.36 0 008.33 3.18zm4.74-18.69c1.44 1 2.87 2.07 4.24 3.18a13.642 13.642 0 00-3-4.12c-.42.31-.82.63-1.24.94zm-1 83l1.18 1c.71-1.65 1.44-3.29 2.24-4.89a13.992 13.992 0 00-3.42 3.89zm84.38-45.53a13.626 13.626 0 004.51 2.14c-.07-1.64-.22-3.25-.43-4.84-1.95.78-3.46 1.66-4.13 2.69l.05.01zm1-14.8c-.92.32-1.86.64-2.77 1a10.945 10.945 0 002.59-1.45c-.41-1-.84-2-1.3-3-2.37 1.67-6.79 5.15-7.06 5.08a30.56 30.56 0 009.32.6c-.3-.8-.55-1.52-.83-2.24l.05.01zm-30.86-31a60.782 60.782 0 00-4.55-1.53 8.999 8.999 0 00.82 4.73c1.413-.84 2.66-1.93 3.68-3.22l.05.02zm2.75 99.43c1.48-.667 2.923-1.4 4.33-2.2a9.224 9.224 0 00-4-2.79 13.619 13.619 0 00-.38 4.97l.05.02zm11.23-6.86a41.327 41.327 0 00-6.67-6.24 86.747 86.747 0 002.5 9.18c1.42-.92 2.8-1.91 4.12-2.96l.05.02zm19.14-30.49c-1-.24-1.92-.5-2.87-.73.984.217 1.995.29 3 .22.23-1.07.43-2.15.59-3.24-2.88.07-8.54.54-8.73.33a30.37 30.37 0 007.42 5.67c.19-.77.37-1.52.54-2.27l.05.02zm-22.74-45.43a88.013 88.013 0 008.45-4.25 53.247 53.247 0 00-3.71-3.43 41.088 41.088 0 00-4.74 7.68zm-27.65 87.52c1.63-.07 3.24-.22 4.82-.43a9.073 9.073 0 00-2.69-4.06 13.688 13.688 0 00-2.13 4.49zm34.37-14.34c-.65-.74-1.29-1.49-2-2.22a10.753 10.753 0 002.38 1.86c.8-.75 1.57-1.53 2.33-2.33-2.43-1.57-7.33-4.38-7.33-4.66a30.603 30.603 0 003 8.88c.48-.5 1.06-1.03 1.62-1.53zm-76.22-2.87c.71-.63 1.44-1.25 2.14-1.88-.7.663-1.307 1.42-1.8 2.25.75.8 1.53 1.58 2.33 2.33 1.58-2.46 4.32-7.25 4.59-7.29a30.293 30.293 0 00-8.77 2.91c.49.55 1 1.12 1.51 1.68zm50.6 16.13l1.13-.26a57.999 57.999 0 00-1-2.52l-.31-.78a6.92 6.92 0 01.18 3.56zm38.8-32.2c.65-1.57 1.23-3.16 1.73-4.79a41.142 41.142 0 00-9-1.38 88.618 88.618 0 007.28 6.17h-.01zm-6.36-32.13c3.128.54 6.282.91 9.45 1.11a50.023 50.023 0 00-1.22-4.92 40.585 40.585 0 00-8.23 3.81zm2.72 39.37a57.03 57.03 0 002.33-4.28 9.23 9.23 0 00-4.93 0 13.496 13.496 0 002.6 4.28zm-34.44-80.5c-1.63-.36-3.28-.65-5-.86a40.064 40.064 0 00.18 9 86.765 86.765 0 004.82-8.14zm19.62 8.79c-.58.76-1.18 1.52-1.74 2.28a10.25 10.25 0 001.33-2.57c-.93-.63-1.81-1.25-2.75-1.8-1.06 2.71-2.81 8-3.07 8.08a30.38 30.38 0 008-4.61c-.54-.47-1.11-.94-1.77-1.38zm22.16 50.3c.06-.51.12-1 .17-1.54-1.8.33-3.6.62-5.41.85 1.686.563 3.465.797 5.24.69zm-38.07 45.24c-1-1.54-1.93-3.1-2.81-4.7.11 1.778.557 3.519 1.32 5.13l1.49-.43zm23.26-82.69c1.662.07 3.322-.164 4.9-.69-.94-1.3-2-2.56-3-3.77a9.073 9.073 0 00-1.9 4.46zm2.32 66l1-1.2a98.587 98.587 0 01-5-2.28 14.158 14.158 0 003.99 3.47l.01.01zm-13.61-81.43c-.44-.26-.88-.52-1.33-.77-.42 1.76-.87 3.5-1.39 5.22a13.856 13.856 0 002.72-4.45zm16 24.56a14 14 0 004.74-2.3c-.24-.46-.47-.92-.71-1.37a73.489 73.489 0 01-3.99 3.67h-.04z" fill="#03346B"/><path opacity=".17" d="M86.04 110.532a18.731 18.731 0 01-3.3-5.9c-.51-1.55-1.5-3.11-1.52-4.79a86.783 86.783 0 008.23 11.68c-.61-4-4-9.15-2.87-13.21 2.21.42 5.62 6.09 7.41 7.84-2.66-3.23-4.19-8.19-5.08-12.23 3.63 2.58 5.92 6.88 9.72 9.52-3.14-2-6.43-7.79-6.94-11.6 0 .18 4 2.43 4.64 3 1.77 1.57 3.48 3.21 5.3 4.79 3.56 3.09 7.22 6.08 10.57 9.41-3.47-2.78-7-5.5-10.35-8.43a26.978 26.978 0 00-4-3.17c-1.44-.85-3.49-1.52-4.64-2.79a104.72 104.72 0 0114.21 19.92c-3.52-1.16-7.36-6.27-10.14-8.73-2.45-2.16-3.82-5.26-6.16-7.42 1.72 4.42 4.4 8.75 6.33 13.14 1.18 2.67 1.06 4.94 1.67 7.71-1.77-5.76-6.85-10.12-9.85-15.24 2.4 5.75 2 12.74 2.37 18.81a35.332 35.332 0 00-5.6-12.31zm17.39-20.18c5.36 2.52 12 3.24 16.74 7-2.07-1.94-3.25-3.87-5.74-5.41-4.08-2.52-8.74-4.57-12.65-7.24 3.14.45 6 2.24 9.27 2.63 3.69.45 9.75 2.49 13.3 1.45a105.058 105.058 0 00-23-8.36c1.66.4 3.72-.22 5.39-.33a26.84 26.84 0 015.12.34c4.42.52 8.87.76 13.3 1.08-4.64-.85-9.35-1.24-14-1.77-2.36-.27-4.7-.65-7.06-.94-.8-.11-5.38.31-5.5.17 2.51 2.83 8.47 5.66 12.22 5.66-4.63 0-9-2.27-13.4-2.34 3 2.83 7.09 6 11.11 7.2-2.47-.42-8.48-3.16-10.55-2.27 1.39 4 7.1 6.34 9.84 9.27a87.575 87.575 0 01-13.39-5c1 1.36 2.67 2.09 4 3.08a18.789 18.789 0 006 3 35.247 35.247 0 0111.59 7c-3.73-4.85-7.39-10.84-12.59-14.22zm22.29-13.88c-5.76-1.93-12.09-4.92-18.32-4.84 5.87-.87 11.82-3.94 17.81-3.43-2.79-.48-4.85-1.43-7.77-1.34-4.79.15-9.81 1-14.54 1 2.86-1.36 6.25-1.47 9.18-2.93 3.32-1.66 9.5-3.31 11.88-6.13a104.085 104.085 0 00-23.81 5.75c1.6-.59 3-2.25 4.31-3.26a26.688 26.688 0 014.45-2.54c4-2 7.82-4.27 11.69-6.45-4.34 1.86-8.48 4.13-12.68 6.28-2.12 1.05-4.29 2.05-6.41 3.05-.73.36-4.31 3.23-4.49 3.18 3.72 1 10.28.05 13.36-2.09-3.87 2.54-8.72 3-12.47 5.45 4.08.69 9.25 1.12 13.24-.13-2.29 1-8.82 2-10 3.93 3.36 2.55 9.42 1.37 13.33 2.29a86.738 86.738 0 01-13.96 3.27c1.56.61 3.38.27 5 .38a18.72 18.72 0 006.69-.85 35.091 35.091 0 0113.51-.59zm-7.36-28.67c-5.87 1.56-12.8 2.56-18 6 4.42-3.95 7.69-9.8 13-12.67-2.6 1.14-4.84 1.48-7.23 3.16-3.91 2.77-7.63 6.25-11.61 8.81 1.64-2.71 4.41-4.67 6-7.5 1.85-3.22 6.1-8 6.53-11.67a104.335 104.335 0 00-16.7 17.92c1-1.37 1.26-3.52 1.8-5.09a26.618 26.618 0 012.32-4.58c2.21-3.87 4.17-7.87 6.2-11.82-2.53 3.99-4.74 8.17-7.04 12.27-1.17 2.06-2.43 4.07-3.63 6.12-.41.7-1.82 5.07-2 5.14 3.63-1.26 8.63-5.62 9.98-9.1-1.83 4.25-5.59 7.35-7.4 11.41 3.79-1.66 8.34-4.15 11-7.4-1.36 2.1-6.24 6.57-6.22 8.82 4.2.27 8.61-4.05 12.38-5.43a86.671 86.671 0 01-9.81 10.38c1.64-.35 3-1.64 4.39-2.44a18.612 18.612 0 005.11-4.4 35.29 35.29 0 0110.93-7.93zm-21.41-19.61c-4.1 4.49-9.38 9.08-11.82 14.81 1.57-5.71 1.15-12.4 4-17.68-1.5 2.36-3.22 3.86-4.32 6.57-1.79 4.45-3 9.39-5 13.7-.09-3.18 1.18-6.32 1-9.59-.18-3.71.82-10.02-.79-13.37a104.33 104.33 0 00-4.34 24.12c.11-1.71-.85-3.64-1.25-5.26a27.936 27.936 0 01-.53-5.11c-.23-4.44-.75-8.86-1.18-13.29-.05 4.72.35 9.43.63 14.14.13 2.37.16 4.74.26 7.11 0 .82 1.22 5.25 1.1 5.4 2.38-3 4.19-9.39 3.47-13.07.77 4.57-.72 9.2 0 13.6 2.28-3.45 4.76-8 5.22-12.16 0 2.5-1.68 8.89-.45 10.78 3.68-2.05 5-8.07 7.47-11.27a86.58 86.58 0 01-2.63 14c1.19-1.19 1.61-3 2.37-4.43a18.54 18.54 0 001.92-6.46 35.001 35.001 0 014.87-12.54zm-24.42 19.87c.31-1.64-.36-3.37-.55-5a18.861 18.861 0 00-2.09-6.43 35.1 35.1 0 01-3.08-13.14c-.83 6-2.59 12.8-1.36 18.91-1.94-5.6-6.07-10.88-6.68-16.87 0 2.84-.5 5 .13 7.89 1 4.68 2.82 9.45 3.64 14.12-1.91-2.57-2.61-5.91-4.59-8.48-2.25-3-5-8.72-8.24-10.54a104.995 104.995 0 0010.08 22.33c-.87-1.47-2.76-2.52-4-3.63a27.733 27.733 0 01-3.33-3.9c-2.71-3.53-5.64-6.89-8.5-10.29 2.67 3.92 5.67 7.6 8.52 11.29 1.46 1.88 2.82 3.83 4.25 5.72.49.65 4 3.64 4 3.83.24-3.84-1.87-10.11-4.55-12.74 3.22 3.33 4.62 8 7.68 11.23-.08-4.13-.62-9.29-2.59-13 1.36 2.08 3.62 8.27 5.7 9.16 1.88-3.77-.41-9.51-.22-13.52a87.58 87.58 0 015.78 13.06zm-22.74-2.69a34.919 34.919 0 01-9.84-9.27c2.68 5.53 4.91 12.1 9.31 16.53-4.71-3.61-11.07-5.72-14.88-10.38 1.61 2.34 2.36 4.48 4.46 6.51 3.45 3.32 7.57 6.32 10.83 9.76-3-1.11-5.42-3.47-8.51-4.54-3.51-1.22-9-4.5-12.68-4.24a104.479 104.479 0 0020.73 13.05c-1.54-.74-3.69-.58-5.34-.82a27.127 27.127 0 01-4.93-1.42c-4.21-1.45-8.51-2.62-12.78-3.92 4.36 1.81 8.88 3.2 13.35 4.71 2.25.76 4.46 1.63 6.7 2.42.77.27 5.32.84 5.42 1-1.92-3.33-7.14-7.4-10.82-8.11 4.52 1 8.26 4.11 12.6 5.13-2.35-3.41-5.64-7.41-9.33-9.4 2.32.94 7.62 4.9 9.83 4.46-.52-4.18-5.59-7.7-7.66-11.15a87.453 87.453 0 0112 7.7c-.66-1.55-2.16-2.61-3.22-3.86a18.87 18.87 0 00-5.24-4.16zm-12.62 37c-4.31 1.11-8.54 2.5-12.8 3.8 4.64-.89 9.17-2.22 13.73-3.42 2.3-.61 4.62-1.1 6.93-1.68.79-.19 4.9-2.23 5.07-2.15-3.47-1.75-10.04-2.29-13.47-.83 4.32-1.66 9.16-1.12 13.34-2.66-3.83-1.55-8.79-3.08-13-2.71 2.46-.49 9.06-.09 10.66-1.69-2.74-3.2-8.91-3.35-12.53-5.09a88.362 88.362 0 0114.28-.21c-1.4-.92-3.24-1-4.81-1.44a18.902 18.902 0 00-6.72-.6 34.997 34.997 0 01-13.31-2.31c5.22 3.12 10.77 7.39 16.87 8.65-5.92-.4-12.39 1.33-18.14-.46 2.63 1.07 4.44 2.44 7.31 3 4.71.88 9.8 1.11 14.41 2.18-3.09.72-6.42.1-9.59.9-3.61.92-10 1.21-12.92 3.46 8.156.784 16.376.606 24.49-.53-1.69.22-3.4 1.55-4.91 2.26a26.992 26.992 0 01-4.89 1.5v.03zm-11.28 9.4c6.07-.37 13.06 0 18.81-2.39-5.12 3-9.47 8.09-15.23 9.87 2.77-.61 5-.5 7.71-1.68 4.38-1.94 8.71-4.62 13.13-6.34-2.15 2.33-5.25 3.71-7.41 6.16-2.46 2.79-7.56 6.63-8.72 10.15a104.373 104.373 0 0019.92-14.28c-1.27 1.15-1.93 3.2-2.78 4.64a26.503 26.503 0 01-3.17 4c-2.93 3.35-5.64 6.89-8.41 10.37 3.32-3.36 6.31-7 9.4-10.58 1.55-1.8 3.19-3.52 4.76-5.3.55-.6 2.79-4.61 3-4.63-3.81.51-9.54 3.81-11.59 7 2.63-3.81 6.93-6.1 9.51-9.73-4 .89-9 2.43-12.22 5.09 1.74-1.79 7.4-5.2 7.83-7.42-4.1-1.07-9.27 2.25-13.24 2.87a87.605 87.605 0 0111.66-8.25c-1.67 0-3.23 1-4.78 1.53a18.732 18.732 0 00-5.88 3.3 35.07 35.07 0 01-12.3 5.62zm32.5 11.75c-2.51 5.37-3.22 12-7 16.75 1.94-2.07 3.87-3.26 5.4-5.75 2.52-4.08 4.57-8.74 7.23-12.66-.45 3.15-2.23 6-2.62 9.28-.44 3.69-2.47 9.75-1.43 13.3a104.356 104.356 0 008.33-23c-.4 1.66.22 3.73.34 5.39a27.658 27.658 0 01-.33 5.12c-.52 4.42-.75 8.87-1.07 13.31.84-4.65 1.23-9.36 1.75-14 .27-2.36.64-4.7.94-7.06.1-.81-.32-5.38-.18-5.5-2.85 2.58-5.71 8.55-5.62 12.3 0-4.63 2.26-9 2.33-13.41-2.83 3-6 7.1-7.19 11.12.42-2.46 3.16-8.49 2.25-10.55-4 1.4-6.33 7.1-9.25 9.85a87.135 87.135 0 015-13.39c-1.37 1-2.09 2.67-3.08 4a18.792 18.792 0 00-3 6 35.14 35.14 0 01-6.95 11.6c4.8-3.83 10.78-7.47 14.15-12.7zm12.44 2.11a18.673 18.673 0 00.87 6.68 35.34 35.34 0 01.6 13.51c1.93-5.76 4.9-12.1 4.82-18.33.87 5.87 4 11.81 3.45 17.81.47-2.8 1.43-4.85 1.33-7.78-.05-1.69-.4-3.39-.41-5.08 0-1.08.44-2.5.12-3.55a25.873 25.873 0 001.88 4.28c1.2 2.32 3.68 6.19 3.5 8.93 0-4-1.07-6.55-2.68-10.14-1.53-3.44-2.49-7-3.87-10.43-.05-.14-.11-.28-.17-.42.51 1.24-.29 3.16-.37 4.43-.07 1.929.2 3.855.8 5.69-1-2.28-2-8.81-3.94-10-2.54 3.3-1.36 9.4-2.28 13.27a87.5 87.5 0 01-3.27-13.87c-.58 1.53-.27 3.35-.38 5z" fill="#1FC9ED"/><path d="M93.08 102.982a16.893 16.893 0 01-4.26-4.35c-.8-1.23-2-2.35-2.45-3.8a78.44 78.44 0 009.92 8.21c-1.47-3.3-5.66-7.01-5.66-10.81 2-.15 6.33 4 8.3 5.07-3.08-2.18-5.59-6.13-7.31-9.43 3.76 1.38 6.77 4.58 10.71 6-3.22-1-7.44-5.25-8.79-8.45.06.16 4.08 1.17 4.74 1.49 1.91 1 3.79 2 5.72 2.91 3.84 1.84 7.73 3.58 11.43 5.68-3.68-1.6-7.4-3.12-11-4.88a24.338 24.338 0 00-4.25-1.81c-1.45-.4-3.39-.49-4.69-1.32a94.637 94.637 0 0117.14 13.93c-3.33-.17-7.88-3.7-10.89-5.18-2.64-1.3-4.57-3.68-7.11-5 2.54 3.44 5.89 6.57 8.61 9.93 1.67 2 2.1 4 3.28 6.31-2.9-4.59-8.35-7.18-12.17-10.92 3.45 4.43 4.76 10.6 6.51 15.8a31.568 31.568 0 00-7.78-9.38zm10.35-21.67c5.27.92 11.23 0 16.22 2.1-2.26-1.2-3.75-2.6-6.28-3.34-4.14-1.23-8.68-1.91-12.74-3.31 2.84-.35 5.78.52 8.69.09 3.32-.48 9.07-.14 11.91-1.89a94.393 94.393 0 00-22-1.81c1.54-.05 3.19-1.07 4.61-1.57 1.48-.459 3-.777 4.54-.95 4-.6 7.9-1.45 11.83-2.22-4.24.41-8.43 1.22-12.58 1.83-2.12.33-4.25.55-6.37.85-.72.1-4.6 1.55-4.74 1.46 2.92 1.86 8.78 2.95 12 2-4 1.08-8.33.15-12.22 1.14 3.3 1.75 7.6 3.58 11.37 3.64-2.24.21-8.13-.75-9.71.52 2.13 3.11 7.67 3.78 10.74 5.71a80.262 80.262 0 01-12.83-1.14c1.17 1 2.82 1.18 4.18 1.74a16.91 16.91 0 006 1.16 31.598 31.598 0 0111.7 3.31c-4.39-3.28-8.97-7.62-14.32-9.32zm16.11-17.36c-5.47-.32-11.69-1.41-17.09.12 4.9-2.14 9.35-6.22 14.69-7.2-2.55.25-4.56-.09-7.09.68-4.13 1.27-8.29 3.2-12.42 4.27 2.17-1.86 5.1-2.76 7.29-4.72 2.5-2.24 7.48-5.13 8.89-8.16a94.563 94.563 0 00-19.36 10.69c1.26-.89 2.07-2.66 3-3.85a24.648 24.648 0 013.27-3.27c3-2.69 5.79-5.56 8.64-8.38-3.33 2.65-6.4 5.6-9.54 8.47-1.59 1.44-3.23 2.8-4.84 4.22-.55.49-3 3.83-3.15 3.84 3.46-.06 8.95-2.4 11.12-5-2.76 3.13-6.85 4.72-9.55 7.69 3.71-.36 8.31-1.21 11.48-3.24-1.75 1.41-7.18 3.86-7.8 5.8 3.52 1.41 8.51-1 12.13-1.17a78.64 78.64 0 01-11.32 6.13c1.5.16 3-.57 4.44-.85a16.995 16.995 0 005.6-2.39 31.612 31.612 0 0111.61-3.68zm-13.2-23.2c-4.71 2.75-10.53 5.26-14.19 9.52 2.91-4.48 4.37-10.34 8.29-14.1-1.99 1.61-3.81 2.46-5.54 4.46-2.75 3.33-5.16 7.24-8 10.41.79-2.75 2.74-5.11 3.49-8 .85-3.24 3.41-8.4 2.92-11.7A94.284 94.284 0 0083 50.942c.56-1.44.27-3.36.37-4.86.163-1.536.474-3.054.93-4.53 1-3.88 1.76-7.83 2.59-11.75-1.32 4-2.25 8.2-3.3 12.32-.53 2.08-1.15 4.13-1.71 6.19-.19.71-.38 4.85-.52 4.94 2.86-1.95 6.16-6.93 6.54-10.29-.58 4.13-3.12 7.72-3.73 11.68 2.89-2.34 6.26-5.59 7.79-9-.68 2.14-3.87 7.18-3.32 9.14 3.72-.76 6.53-5.57 9.49-7.66a78.879 78.879 0 01-6.08 11.35c1.34-.69 2.2-2.12 3.24-3.16a16.869 16.869 0 003.41-5 31.44 31.44 0 017.64-9.56zm-23.27-12c-2.5 4.88-6 10.13-6.78 15.69 0-5.34-1.93-11.06-.67-16.34-.8 2.43-1.92 4.14-2.23 6.75-.51 4.29-.41 8.88-1.1 13.1-.83-2.74-.47-5.78-1.39-8.58-1-3.19-1.67-8.91-3.87-11.42a94.134 94.134 0 001.93 22c-.3-1.51-1.59-3-2.32-4.29a24.357 24.357 0 01-1.67-4.31c-1.26-3.81-2.76-7.53-4.19-11.28 1.08 4.11 2.55 8.11 3.9 12.15.68 2 1.27 4.09 1.92 6.13.22.69 2.3 4.27 2.24 4.43 1.34-3.15 1.42-9.15-.08-12.15 1.75 3.79 1.55 8.17 3.19 11.84 1.16-3.56 2.24-8.11 1.68-11.84.59 2.18.64 8.14 2.16 9.49 2.71-2.66 2.48-8.22 3.82-11.58a77.585 77.585 0 011 12.84c.75-1.31.7-3 1-4.42a16.93 16.93 0 00.13-6.07 31.681 31.681 0 011.33-12.13v-.01zm-16.54 23.09c-.12-1.51-1.11-2.85-1.66-4.21a16.902 16.902 0 00-3.33-5.09 31.48 31.48 0 01-5.8-10.72c.7 5.44.78 11.75 3.3 16.77-3-4.41-7.86-8-9.81-13.09.72 2.46.75 4.5 2 6.83 2 3.83 4.69 7.56 6.51 11.42-2.24-1.79-3.66-4.5-6-6.29-2.66-2-6.43-6.39-9.66-7.21a94.364 94.364 0 0014.06 17c-1.11-1.07-3-1.53-4.34-2.21a24.287 24.287 0 01-3.82-2.6c-3.2-2.43-6.54-4.65-9.84-6.94 3.22 2.79 6.69 5.25 10.09 7.81 1.71 1.29 3.36 2.65 5.05 4 .58.45 4.32 2.23 4.36 2.39-.7-3.39-4-8.35-7-10 3.59 2.13 5.91 5.86 9.33 8-1-3.58-2.73-7.94-5.32-10.68 1.71 1.46 5.13 6.35 7.15 6.6.74-3.73-2.61-8.18-3.4-11.71 2.98 3.08 5.7 6.4 8.13 9.93zm-20.41 3a31.738 31.738 0 01-10.76-5.73c3.59 4.14 7.14 9.36 12 12.15-4.95-2-11-2.35-15.4-5.49 1.95 1.65 3.11 3.33 5.42 4.6 3.79 2.07 8.08 3.7 11.73 5.92-2.84-.21-5.48-1.66-8.48-1.88-3.34-.23-8.89-1.78-12-.68a94.186 94.186 0 0021.13 6.44c-1.52-.28-3.35.38-4.84.56a24.66 24.66 0 01-4.65-.1c-4-.26-8-.26-12-.35 4.23.55 8.48.68 12.73.94 2.14.13 4.26.36 6.4.52.73 0 4.83-.54 5-.42-2.46-2.44-8-4.75-11.33-4.49 4.16-.2 8.16 1.62 12.17 1.48-2.85-2.41-6.66-5.11-10.34-6 2.16.32 7.73 2.52 9.53 1.61-1.45-3.51-6.69-5.37-9.3-7.88a78.777 78.777 0 0112.29 3.84c-.94-1.19-2.5-1.76-3.72-2.59a16.86 16.86 0 00-5.58-2.4v-.05zm-2.22 35.19c-3.49 2-6.84 4.2-10.23 6.34 3.82-1.87 7.45-4.1 11.13-6.23 1.86-1.07 3.76-2.05 5.63-3.09.64-.36 3.73-3.11 3.9-3.08-3.4-.68-9.26.43-11.94 2.5 3.37-2.47 7.71-3.15 11-5.48-3.7-.44-8.38-.59-11.91.72 2-1 7.84-2.24 8.86-4-3.14-2.13-8.54-.8-12.1-1.45a78.548 78.548 0 0112.39-3.57c-1.43-.47-3.05-.09-4.52-.11a17.004 17.004 0 00-6 1.07 31.707 31.707 0 01-12.16 1.15c5.27 1.47 11.11 3.83 16.68 3.52-5.24 1.05-10.46 4.09-15.89 3.9 2.54.3 4.44 1.07 7.07.85 4.3-.35 8.78-1.36 13.05-1.52-2.52 1.36-5.57 1.61-8.14 3.06-2.91 1.65-8.4 3.41-10.42 6.07a94.31 94.31 0 0021.23-6.27c-1.42.6-2.59 2.16-3.74 3.13a24.526 24.526 0 01-3.89 2.49zm-7.58 10.88c5.19-1.76 11.37-3.08 15.79-6.54-3.73 3.83-6.32 9.29-10.9 12.19 2.26-1.18 4.26-1.62 6.31-3.28 3.35-2.73 6.48-6.09 9.91-8.63-1.31 2.54-3.69 4.47-5 7.12-1.47 3-5 7.56-5.17 10.89a94.178 94.178 0 0013.95-17.13c-.83 1.29-.92 3.24-1.31 4.69a24.33 24.33 0 01-1.81 4.25c-1.75 3.61-3.27 7.33-4.86 11 2.1-3.71 3.83-7.6 5.67-11.44.92-1.93 1.94-3.81 2.89-5.73.33-.67 1.33-4.67 1.49-4.67-3.19 1.35-7.4 5.58-8.44 8.8 1.38-3.94 4.58-7 6-10.72-3.3 1.73-7.24 4.25-9.42 7.33 1.09-2 5.21-6.29 5-8.31-3.79 0-7.5 4.16-10.8 5.63a79.829 79.829 0 018.19-9.93c-1.45.42-2.57 1.65-3.8 2.46a17.048 17.048 0 00-4.33 4.27 31.547 31.547 0 01-9.36 7.75zm31.06 2.52c-.92 5.27 0 11.23-2.09 16.22 1.2-2.26 2.59-3.75 3.34-6.28 1.22-4.14 1.9-8.69 3.28-12.72.36 2.84-.5 5.77-.07 8.69.48 3.31.15 9.06 1.9 11.9a93.888 93.888 0 001.79-22c.05 1.54 1.07 3.19 1.57 4.61a24.42 24.42 0 01.92 4.53c.6 4 1.46 7.89 2.23 11.83-.37-4.24-1.15-8.43-1.8-12.64-.33-2.11-.56-4.24-.86-6.36-.1-.73-1.55-4.6-1.46-4.75-1.87 2.93-2.94 8.79-2 12-1.09-4-.16-8.33-1.16-12.22-1.74 3.3-3.57 7.61-3.62 11.38-.21-2.24.74-8.13-.54-9.72-3.09 2.19-3.79 7.73-5.68 10.8.028-4.3.405-8.591 1.13-12.83-1 1.17-1.19 2.82-1.74 4.19a16.59 16.59 0 00-1.15 6 31.637 31.637 0 01-3.31 11.74c3.28-4.43 7.62-9.02 9.32-14.37zm11.32-1.13a16.76 16.76 0 002.33 5.61 31.634 31.634 0 013.72 11.61c.31-5.48 1.4-11.69-.14-17.09 2.14 4.89 6.24 9.34 7.22 14.67-.25-2.54.09-4.56-.69-7.08-.45-1.45-1.16-2.86-1.56-4.32-.26-.94-.21-2.28-.73-3.11a22.889 22.889 0 002.64 3.27c1.6 1.73 4.67 4.51 5.16 6.94-1-3.44-2.48-5.45-4.73-8.19-2.25-2.74-3.82-5.48-5.84-8.15l-.24-.33c.73 1 .49 2.82.72 3.94a14.858 14.858 0 002 4.77c-1.42-1.75-3.88-7.19-5.81-7.8-1.41 3.52 1 8.51 1.18 12.13a78.723 78.723 0 01-6.14-11.32c-.11 1.5.61 3 .91 4.45z" fill="#21D8FF"/><path d="M58.47 41.812a2.387 2.387 0 00-.54-.59 40.55 40.55 0 002 7c.292.758.526 1.537.7 2.33.079.699.192 1.393.34 2.08-.91-.51-1.53-1.66-2.25-2.39a30.931 30.931 0 01-2.49-2.5 22.443 22.443 0 00-2.74-3 11.682 11.682 0 001.45 3.05c.67 1.16 1.4 2.26 2 3.45a19.824 19.824 0 012 4.4c-.66-.32-1.1-1.11-1.64-1.6-.82-.74-1.78-1.3-2.66-2-1.15-.86-2.12-1.89-3.26-2.75-.84-.64-1.76-1.17-2.61-1.8 0 .4.53.68.78 1 .48.54.91 1.14 1.38 1.69 1.05 1.27 2 2.61 3.07 3.83.75.787 1.395 1.668 1.92 2.62.12.23.12.46.36.67a22.286 22.286 0 00-3.2-3.53c-1-1.13-2.23-2.21-3.16-3.42-.93-1.21-2.61-3.08-3-4.71.413.214.785.498 1.1.84.68.54 1.4 1 2.08 1.57 1 .78 2 1.58 3 2.35 1.55 1.19 2.88 2.59 4.73 3.31a27.214 27.214 0 00-1.77-2.8c-.78-1.34-1.53-2.71-2.3-4-.5-.88-.83-1.83-1.34-2.73a13.542 13.542 0 01-1.45-3.39c1.27 1.61 2.6 3.26 4 4.81a35.118 35.118 0 002.81 2.78c.96.887 1.862 1.836 2.7 2.84a14.328 14.328 0 00-.77-2.61c-.26-1-.66-1.91-1-2.87-.34-.96-.68-2.13-.94-3.22-.14-1.01-.37-1.89-.57-2.89a4.08 4.08 0 01-.22-1.88 19.572 19.572 0 002 3.4c1.09 1.28 2 2.69 3 4 .52.65 1.16 1.19 1.68 1.83.52.64.62 1.4 1 2a35.18 35.18 0 00-2.78-3.2c-1-1.18-2.06-2.31-3.08-3.47-.04-.09-.17-.3-.33-.5zm-19.26 10.27a24.998 24.998 0 008.48 4.55 13.1 13.1 0 014.4 1.89c.95.65 2.19 1.1 2.92 2a62.4 62.4 0 00-9.68-3c2.06 2 6.19 3.45 7.33 6.21-1.44.72-5.81-1-7.57-1.22 2.89.68 5.9 2.81 8.15 4.7-3.17.12-6.31-1.32-9.6-1.16 2.66-.2 7 1.61 8.93 3.54-.09-.09-3.32.37-3.9.33-1.68-.13-3.36-.31-5-.41-3.35-.2-6.7-.31-10-.74 3.16.07 6.33.07 9.48.28 1.209.131 2.428.148 3.64.05 1.18-.15 2.62-.66 3.82-.44a73.684 73.684 0 01-16.65-5.08c2.48-.86 6.85.36 9.49.54 2.31.16 4.43 1.32 6.67 1.52-2.87-1.75-6.25-3-9.24-4.67-1.82-1-2.74-2.32-4.27-3.62 3.41 2.46 8.16 2.72 12.02 4.28-3.79-2.17-6.59-6.29-9.42-9.55z" fill="#7DE8FF"/><path opacity=".87" d="M63.35 55.972a24.672 24.672 0 00-2.49 2.75 33.88 33.88 0 00-2.67 4 20.399 20.399 0 012.69-2.73c.98-.843 2.02-1.615 3.11-2.31.72-.46 1.46-.9 2.22-1.3l.41-.21c.479.119.947.276 1.4.47l-.29.25a45.692 45.692 0 00-3.41 3.41 88.7 88.7 0 00-3.34 3.89 94.35 94.35 0 013.37-2.87c1.09-.88 2.15-1.69 3.19-2.42.7-.48 1.38-.94 2.06-1.36l.47.35c-.39.31-.77.63-1.12.95a24.403 24.403 0 00-3.43 3.79 8.66 8.66 0 00-1.52 3.07c.67-.69 1.34-1.34 2-2 .66-.66 1.32-1.21 2-1.76 1.22-1 2.41-1.94 3.57-2.76l.32.42a24.55 24.55 0 00-4.18 8.03 20 20 0 015.13-6.26 9.25 9.25 0 11-9.49-5.4z" fill="#fff"/><defs><radialGradient id="paint0_radial" cx="0" cy="0" r="1" gradientUnits="userSpaceOnUse" gradientTransform="rotate(-179.939 38.124 36.757) scale(53.9444)"><stop offset=".4" stop-color="#043441"/><stop offset=".41" stop-color="#03586D"/><stop offset=".42" stop-color="#0191B2"/><stop offset=".43" stop-color="#01A4CA"/><stop offset=".44" stop-color="#00B2DB"/><stop offset=".45" stop-color="#00BAE5"/><stop offset=".46" stop-color="#00BDE8"/><stop offset=".55" stop-color="#00B7E4"/><stop offset=".67" stop-color="#00A7DA"/><stop offset=".8" stop-color="#008DCA"/><stop offset=".94" stop-color="#0068B3"/><stop offset="1" stop-color="#0057A8"/></radialGradient></defs></svg>