<svg xmlns="http://www.w3.org/2000/svg" xmlns:xlink="http://www.w3.org/1999/xlink" width="370.08" height="305.91"><defs><linearGradient id="Г…ГӮГҒ_ГҸ_ГҢГҢ_ГҲ_ГӢГӮГҢГҡ_139" data-name="Г…ГӮГҒЛҡГҸп¬ӮГҢГҢЛҡГҲ вҖһпЈҝвҖЎвҖ°ГӢГӮГҢГҡ 139" x1="-2530.49" y1="269.95" x2="-2530.49" y2="221.81" gradientTransform="matrix(-1 0 0 1 -2329.64 0)" gradientUnits="userSpaceOnUse"><stop offset="0" stop-color="#ffa77d"/><stop offset=".29" stop-color="#ffaf88"/><stop offset=".81" stop-color="#ffc3a6"/><stop offset="1" stop-color="#ffccb3"/></linearGradient><linearGradient id="Г…ГӮГҒ_ГҸ_ГҢГҢ_ГҲ_ГӢГӮГҢГҡ_87" data-name="Г…ГӮГҒЛҡГҸп¬ӮГҢГҢЛҡГҲ вҖһпЈҝвҖЎвҖ°ГӢГӮГҢГҡ 87" x1="-2522.53" y1="-12.87" x2="-2522.53" y2="68.44" gradientTransform="matrix(-1 0 0 1 -2329.64 0)" gradientUnits="userSpaceOnUse"><stop offset="0" stop-color="#ffccb3"/><stop offset=".58" stop-color="#ffbd9c"/><stop offset="1" stop-color="#ffb591"/></linearGradient><linearGradient id="Г…ГӮГҒ_ГҸ_ГҢГҢ_ГҲ_ГӢГӮГҢГҡ_20" data-name="Г…ГӮГҒЛҡГҸп¬ӮГҢГҢЛҡГҲ вҖһпЈҝвҖЎвҖ°ГӢГӮГҢГҡ 20" x1="-2746.75" y1="-54.31" x2="-2746.75" y2="-28.84" gradientTransform="matrix(-1 -.03 -.03 1 -2398.38 114.48)" gradientUnits="userSpaceOnUse"><stop offset="0" stop-color="#ffbda3"/><stop offset="1" stop-color="#ff9368"/></linearGradient><linearGradient id="Г…ГӮГҒ_ГҸ_ГҢГҢ_ГҲ_ГӢГӮГҢГҡ_207" data-name="Г…ГӮГҒЛҡГҸп¬ӮГҢГҢЛҡГҲ вҖһпЈҝвҖЎвҖ°ГӢГӮГҢГҡ 207" x1="-2637.33" y1="86.16" x2="-2616.04" y2="86.16" gradientTransform="matrix(-1 0 0 1 -2329.64 0)" gradientUnits="userSpaceOnUse"><stop offset=".57"/><stop offset=".67" stop-color="#202020"/><stop offset=".89" stop-color="#5d5d5d"/><stop offset="1" stop-color="#757575"/></linearGradient><linearGradient id="Г…ГӮГҒ_ГҸ_ГҢГҢ_ГҲ_ГӢГӮГҢГҡ_207-2" x1="-2626.06" y1="74.38" x2="-2602.47" y2="74.38" xlink:href="#Г…ГӮГҒ_ГҸ_ГҢГҢ_ГҲ_ГӢГӮГҢГҡ_207"/><linearGradient id="Г…ГӮГҒ_ГҸ_ГҢГҢ_ГҲ_ГӢГӮГҢГҡ_207-3" x1="-2648.53" y1="104.44" x2="-2634.99" y2="104.44" xlink:href="#Г…ГӮГҒ_ГҸ_ГҢГҢ_ГҲ_ГӢГӮГҢГҡ_207"/><linearGradient id="Г…ГӮГҒ_ГҸ_ГҢГҢ_ГҲ_ГӢГӮГҢГҡ_207-4" x1="-2641.58" y1="97.19" x2="-2626.88" y2="97.19" xlink:href="#Г…ГӮГҒ_ГҸ_ГҢГҢ_ГҲ_ГӢГӮГҢГҡ_207"/><linearGradient id="Г…ГӮГҒ_ГҸ_ГҢГҢ_ГҲ_ГӢГӮГҢГҡ_207-5" x1="-2620.08" y1="67.8" x2="-2591.58" y2="67.8" xlink:href="#Г…ГӮГҒ_ГҸ_ГҢГҢ_ГҲ_ГӢГӮГҢГҡ_207"/><linearGradient id="Г…ГӮГҒ_ГҸ_ГҢГҢ_ГҲ_ГӢГӮГҢГҡ_207-6" x1="-2607.67" y1="57.77" x2="-2576.8" y2="57.77" xlink:href="#Г…ГӮГҒ_ГҸ_ГҢГҢ_ГҲ_ГӢГӮГҢГҡ_207"/><linearGradient id="Г…ГӮГҒ_ГҸ_ГҢГҢ_ГҲ_ГӢГӮГҢГҡ_207-7" x1="-2608.08" y1="56.85" x2="-2566.81" y2="56.85" xlink:href="#Г…ГӮГҒ_ГҸ_ГҢГҢ_ГҲ_ГӢГӮГҢГҡ_207"/><linearGradient id="Г…ГӮГҒ_ГҸ_ГҢГҢ_ГҲ_ГӢГӮГҢГҡ_207-8" x1="-2595.59" y1="47.98" x2="-2552.98" y2="47.98" xlink:href="#Г…ГӮГҒ_ГҸ_ГҢГҢ_ГҲ_ГӢГӮГҢГҡ_207"/><linearGradient id="Г…ГӮГҒ_ГҸ_ГҢГҢ_ГҲ_ГӢГӮГҢГҡ_207-9" x1="-2594.71" y1="48.03" x2="-2544.17" y2="48.03" xlink:href="#Г…ГӮГҒ_ГҸ_ГҢГҢ_ГҲ_ГӢГӮГҢГҡ_207"/><linearGradient id="Г…ГӮГҒ_ГҸ_ГҢГҢ_ГҲ_ГӢГӮГҢГҡ_207-10" x1="-2584.4" y1="42.84" x2="-2537.46" y2="42.84" xlink:href="#Г…ГӮГҒ_ГҸ_ГҢГҢ_ГҲ_ГӢГӮГҢГҡ_207"/><linearGradient id="Г…ГӮГҒ_ГҸ_ГҢГҢ_ГҲ_ГӢГӮГҢГҡ_207-11" x1="-2584.86" y1="42.63" x2="-2524.98" y2="42.63" xlink:href="#Г…ГӮГҒ_ГҸ_ГҢГҢ_ГҲ_ГӢГӮГҢГҡ_207"/><linearGradient id="Г…ГӮГҒ_ГҸ_ГҢГҢ_ГҲ_ГӢГӮГҢГҡ_207-12" x1="-2570.35" y1="37.22" x2="-2511.52" y2="37.22" xlink:href="#Г…ГӮГҒ_ГҸ_ГҢГҢ_ГҲ_ГӢГӮГҢГҡ_207"/><linearGradient id="Г…ГӮГҒ_ГҸ_ГҢГҢ_ГҲ_ГӢГӮГҢГҡ_207-13" x1="-2445.4" y1="67.39" x2="-2383.89" y2="61.45" xlink:href="#Г…ГӮГҒ_ГҸ_ГҢГҢ_ГҲ_ГӢГӮГҢГҡ_207"/><linearGradient id="Г…ГӮГҒ_ГҸ_ГҢГҢ_ГҲ_ГӢГӮГҢГҡ_207-14" x1="-2475.61" y1="85.16" x2="-2358.05" y2="85.16" xlink:href="#Г…ГӮГҒ_ГҸ_ГҢГҢ_ГҲ_ГӢГӮГҢГҡ_207"/><linearGradient id="Г…ГӮГҒ_ГҸ_ГҢГҢ_ГҲ_ГӢГӮГҢГҡ_207-15" x1="-2464.82" y1="94.17" x2="-2341.48" y2="94.17" xlink:href="#Г…ГӮГҒ_ГҸ_ГҢГҢ_ГҲ_ГӢГӮГҢГҡ_207"/><linearGradient id="Г…ГӮГҒ_ГҸ_ГҢГҢ_ГҲ_ГӢГӮГҢГҡ_207-16" x1="-2475.74" y1="96.57" x2="-2330.96" y2="96.57" xlink:href="#Г…ГӮГҒ_ГҸ_ГҢГҢ_ГҲ_ГӢГӮГҢГҡ_207"/><linearGradient id="Г…ГӮГҒ_ГҸ_ГҢГҢ_ГҲ_ГӢГӮГҢГҡ_207-17" x1="-2433.44" y1="114.58" x2="-2329.64" y2="114.58" xlink:href="#Г…ГӮГҒ_ГҸ_ГҢГҢ_ГҲ_ГӢГӮГҢГҡ_207"/><linearGradient id="Г…ГӮГҒ_ГҸ_ГҢГҢ_ГҲ_ГӢГӮГҢГҡ_207-18" x1="-2428.84" y1="123.05" x2="-2347.73" y2="123.05" xlink:href="#Г…ГӮГҒ_ГҸ_ГҢГҢ_ГҲ_ГӢГӮГҢГҡ_207"/><linearGradient id="Г…ГӮГҒ_ГҸ_ГҢГҢ_ГҲ_ГӢГӮГҢГҡ_207-19" x1="-2418.22" y1="132.08" x2="-2350.08" y2="132.08" xlink:href="#Г…ГӮГҒ_ГҸ_ГҢГҢ_ГҲ_ГӢГӮГҢГҡ_207"/><linearGradient id="Г…ГӮГҒ_ГҸ_ГҢГҢ_ГҲ_ГӢГӮГҢГҡ_207-20" x1="-2574.81" y1="36.91" x2="-2500.4" y2="36.91" xlink:href="#Г…ГӮГҒ_ГҸ_ГҢГҢ_ГҲ_ГӢГӮГҢГҡ_207"/><linearGradient id="Г…ГӮГҒ_ГҸ_ГҢГҢ_ГҲ_ГӢГӮГҢГҡ_207-21" x1="-2559.62" y1="37.45" x2="-2490.4" y2="37.45" xlink:href="#Г…ГӮГҒ_ГҸ_ГҢГҢ_ГҲ_ГӢГӮГҢГҡ_207"/><linearGradient id="Г…ГӮГҒ_ГҸ_ГҢГҢ_ГҲ_ГӢГӮГҢГҡ_207-22" x1="-2383.8" y1="449.5" x2="-2313.71" y2="449.5" gradientTransform="matrix(-1 .06 .06 1 -2185.06 -266.5)" xlink:href="#Г…ГӮГҒ_ГҸ_ГҢГҢ_ГҲ_ГӢГӮГҢГҡ_207"/><linearGradient id="Г…ГӮГҒ_ГҸ_ГҢГҢ_ГҲ_ГӢГӮГҢГҡ_207-23" x1="-2577.67" y1="-46.24" x2="-2513.5" y2="-46.24" gradientTransform="matrix(-.99 -.01 -.01 1.01 -2379.91 69.35)" xlink:href="#Г…ГӮГҒ_ГҸ_ГҢГҢ_ГҲ_ГӢГӮГҢГҡ_207"/><linearGradient id="Г…ГӮГҒ_ГҸ_ГҢГҢ_ГҲ_ГӢГӮГҢГҡ_207-24" x1="-2506.16" y1="48.67" x2="-2432.17" y2="48.67" xlink:href="#Г…ГӮГҒ_ГҸ_ГҢГҢ_ГҲ_ГӢГӮГҢГҡ_207"/><linearGradient id="Г…ГӮГҒ_ГҸ_ГҢГҢ_ГҲ_ГӢГӮГҢГҡ_207-25" x1="-2329.44" y1="531.94" x2="-2269.16" y2="531.94" gradientTransform="matrix(-1 .07 .07 1 -2158.57 -321.2)" xlink:href="#Г…ГӮГҒ_ГҸ_ГҢГҢ_ГҲ_ГӢГӮГҢГҡ_207"/><linearGradient id="Г…ГӮГҒ_ГҸ_ГҢГҢ_ГҲ_ГӢГӮГҢГҡ_207-26" x1="-2526.48" y1="40.27" x2="-2458.71" y2="40.27" gradientTransform="matrix(-1 0 0 1 -2328.66 1.41)" xlink:href="#Г…ГӮГҒ_ГҸ_ГҢГҢ_ГҲ_ГӢГӮГҢГҡ_207"/><linearGradient id="Г…ГӮГҒ_ГҸ_ГҢГҢ_ГҲ_ГӢГӮГҢГҡ_207-27" x1="-2488.8" y1="51.74" x2="-2415.22" y2="51.74" xlink:href="#Г…ГӮГҒ_ГҸ_ГҢГҢ_ГҲ_ГӢГӮГҢГҡ_207"/><linearGradient id="Г…ГӮГҒ_ГҸ_ГҢГҢ_ГҲ_ГӢГӮГҢГҡ_207-28" x1="-2492.44" y1="61.52" x2="-2403.42" y2="61.52" xlink:href="#Г…ГӮГҒ_ГҸ_ГҢГҢ_ГҲ_ГӢГӮГҢГҡ_207"/><linearGradient id="Г…ГӮГҒ_ГҸ_ГҢГҢ_ГҲ_ГӢГӮГҢГҡ_207-29" x1="-2479.13" y1="66.84" x2="-2385.82" y2="66.84" xlink:href="#Г…ГӮГҒ_ГҸ_ГҢГҢ_ГҲ_ГӢГӮГҢГҡ_207"/><radialGradient id="Г…ГӮГҒ_ГҸ_ГҢГҢ_ГҲ_ГӢГӮГҢГҡ_55" data-name="Г…ГӮГҒЛҡГҸп¬ӮГҢГҢЛҡГҲ вҖһпЈҝвҖЎвҖ°ГӢГӮГҢГҡ 55" cx="1129.89" cy="-162.9" r="66.75" gradientTransform="matrix(-2.21 0 0 1.41 2688.44 376.2)" gradientUnits="userSpaceOnUse"><stop offset="0" stop-color="#fff"/><stop offset=".42" stop-color="#fdfdfd"/><stop offset=".64" stop-color="#f5f5f5"/><stop offset=".82" stop-color="#e7e7e7"/><stop offset=".98" stop-color="#d4d4d4"/><stop offset="1" stop-color="#d1d1d1"/></radialGradient><radialGradient id="Г…ГӮГҒ_ГҸ_ГҢГҢ_ГҲ_ГӢГӮГҢГҡ_205" data-name="Г…ГӮГҒЛҡГҸп¬ӮГҢГҢЛҡГҲ вҖһпЈҝвҖЎвҖ°ГӢГӮГҢГҡ 205" cx="1471.3" cy="-694.94" r="66.75" gradientTransform="matrix(-2.48 0 0 1.84 3849.98 1464.41)" gradientUnits="userSpaceOnUse"><stop offset=".67" stop-color="#fff"/><stop offset=".7" stop-color="#fafafa"/><stop offset=".73" stop-color="#ececec"/><stop offset=".76" stop-color="#d4d4d4"/><stop offset=".79" stop-color="#b3b3b3"/><stop offset=".82" stop-color="#898989"/><stop offset=".86" stop-color="#555"/><stop offset=".89" stop-color="#191919"/><stop offset=".9"/></radialGradient><radialGradient id="Г…ГӮГҒ_ГҸ_ГҢГҢ_ГҲ_ГӢГӮГҢГҡ_135" data-name="Г…ГӮГҒЛҡГҸп¬ӮГҢГҢЛҡГҲ вҖһпЈҝвҖЎвҖ°ГӢГӮГҢГҡ 135" cx="1336.87" cy="-1293.39" r="22.88" gradientTransform="matrix(-1.98 -1.28 -1.28 1.98 1196.74 4414.48)" gradientUnits="userSpaceOnUse"><stop offset=".4" stop-color="#051117"/><stop offset=".4" stop-color="#043441"/><stop offset=".41" stop-color="#03586d"/><stop offset=".42" stop-color="#027793"/><stop offset=".42" stop-color="#0191b2"/><stop offset=".43" stop-color="#01a4ca"/><stop offset=".44" stop-color="#00b2db"/><stop offset=".45" stop-color="#00bae5"/><stop offset=".46" stop-color="#00bde8"/><stop offset=".55" stop-color="#00b7e4"/><stop offset=".67" stop-color="#00a7da"/><stop offset=".8" stop-color="#008dca"/><stop offset=".94" stop-color="#0068b3"/><stop offset="1" stop-color="#0057a8"/></radialGradient><clipPath id="clip-path"><path d="M361.93 146.93s-10.7 1.16-39.49-28.14S227 31.14 150.33 67.69s-55.18 67.94-128.13 88.8c12-1.43 26.93-10 26.93-10s47.7 54.69 113.53 69.12 126-9.64 159.3-47.51c13.36-9.94 18.39-11 37.8-7.19 7.44 4.49 9.58-9.72 2.17-13.98z" fill="none"/></clipPath><style>.cls-5{fill:#ff976e;opacity:.44}.cls-44{fill:#080808}</style></defs><g style="isolation:isolate"><g id="Layer_2" data-name="Layer 2"><g id="_04" data-name="4"><path d="M367.25 158.83s0 16.21-15.8 22.17c-20.27 4.93-22.39 31.53-40.78 50.94-34.24 36.16-127.2 73.08-220.86-5.8-59.27-55.88-55.32-74.4-55.32-74.4l85.38-100.57S236.51 11.12 272.23 56s95.02 102.83 95.02 102.83z" fill="url(#Г…ГӮГҒ_ГҸ_ГҢГҢ_ГҲ_ГӢГӮГҢГҡ_139)"/><path d="M367.25 158.83s.75-15.23-12.55-30.63-2.1-37.4-70.59-97.57C220.51-25.24 120 9.89 90.17 56c-28.55 44.1-45.09 78.23-71.65 100.49 7.43 0 20.34-5.54 32.06-10 81.27-12.31 255.58-10.16 316.67 12.34z" fill="url(#Г…ГӮГҒ_ГҸ_ГҢГҢ_ГҲ_ГӢГӮГҢГҡ_87)"/><path class="cls-5" d="M294.1 132.85a10.59 10.59 0 00-.49-7.38l.29-.21c21.15-17.36 20.29-41.81 8-64.57l-.24-.41c49 40.87 41 57.31 53 69.16 13.28 13.1 12.55 26.05 12.55 26.05-17.7-5.55-44.92-9.64-76.61-12.4 1.24-3.4 2.4-6.81 3.5-10.24z"/><path d="M344.36 110.42c3.75 8.16 5.27 14 10.34 19 13.28 13.1 12.55 26.05 12.55 26.05a237.86 237.86 0 00-32.06-7.08 78.11 78.11 0 009.17-37.97z" fill="#ff7f4d" opacity=".44"/><path class="cls-5" d="M90.17 56A86.68 86.68 0 01104 39.83c-5.59 16.16-7.48 34-4.15 49.48 4.1 19.09 15.7 26.64 29.29 30.32a21.39 21.39 0 000 7.4q1.16 6.42 2.38 12.82c-31 1.12-59.28 3.37-81 6.66-11.72 4.44-24.63 10-32.06 10C45.08 134.23 61.62 100.1 90.17 56z"/><g clip-path="url(#clip-path)"><ellipse cx="196.35" cy="146.5" rx="147.23" ry="94.11" fill="url(#Г…ГӮГҒ_ГҸ_ГҢГҢ_ГҲ_ГӢГӮГҢГҡ_55)"/><ellipse cx="204.69" cy="182.81" rx="165.38" ry="123.1" style="mix-blend-mode:multiply" fill="url(#Г…ГӮГҒ_ГҸ_ГҢГҢ_ГҲ_ГӢГӮГҢГҡ_205)"/></g><path d="M47.33 148.71a197.7 197.7 0 0014.13 15c2.45 2.35 4.91 4.68 7.45 6.91s5.07 4.45 7.65 6.6c5.15 4.34 10.49 8.36 16 12.16 2.69 2 5.48 3.75 8.27 5.54l4.17 2.68 4.27 2.5c5.66 3.43 11.54 6.33 17.41 9.26l9 3.86c3 1.31 6.11 2.21 9.16 3.34l4.6 1.6 4.69 1.26 4.69 1.27 2.34.63.59.15.72.15 1.15.22 9.25 1.79c3.1.57 6.4.86 9.6 1.29 1.61.18 3.22.44 4.82.56l4.8.27c3.2.13 6.4.49 9.6.36s6.41-.1 9.61-.2l9.59-.83c3.2-.26 6.37-.91 9.55-1.35s6.34-1.14 9.49-1.86l4.72-1.1c1.57-.39 3.11-.91 4.67-1.37 3.1-1 6.24-1.75 9.28-3s6.14-2.19 9.15-3.53 6-2.73 9-4.18l8.74-4.76 8.49-5.36c2.78-1.89 5.46-4 8.18-6s5.23-4.39 7.84-6.58 5-4.79 7.46-7.18c2.38-2.54 4.68-5.2 7-7.79l-.56.52c1.33-1.07 2.67-2.14 4-3.14s2.69-1.92 4-2.8a28.56 28.56 0 014.12-2.24 26.08 26.08 0 014.34-1.47 36.22 36.22 0 014.64-.73c1.59-.15 3.21-.21 4.84-.23h10a79.15 79.15 0 00-9.68-3.25c-1.65-.41-3.32-.74-5-1-.87-.1-1.73-.2-2.6-.24s-1.76-.09-2.66 0a22.38 22.38 0 00-5.35.82 32 32 0 00-5.14 1.91 76.32 76.32 0 00-9.19 5.52l-.11.07-.45.45c-2.34 2.29-4.61 4.64-7 6.88s-4.86 4.28-7.37 6.28-5.09 3.89-7.7 5.7l-8 5.16-8.19 4.67-8.41 4.1c-2.85 1.25-5.74 2.36-8.59 3.57s-5.81 2.08-8.7 3.15-5.88 1.76-8.83 2.64c-1.48.39-2.94.86-4.43 1.2l-4.49.94c-3 .64-6 1.36-9 1.74s-6 1-9.05 1.27l-9.09.79-9.12.21c-3 .19-6.08-.1-9.13-.17l-4.56-.17c-1.52-.08-3-.3-4.5-.44-3-.36-5.95-.53-9-1l-9.26-1.62-1.16-.21h-.44l-.55-.14-2.23-.56-4.54-1.2-4.46-1.11-4.4-1.45c-2.92-1-5.9-1.81-8.77-3l-8.69-3.52c-5.7-2.58-11.44-5.12-17-8.2l-4.19-2.23-4.11-2.44c-2.75-1.61-5.5-3.22-8.17-5-5.4-3.44-10.67-7.2-15.89-11C78.08 168 75.47 166.1 73 164s-5.07-4.13-7.57-6.27c-4.94-4.31-9.87-8.75-14.45-13.46z" fill="#fee1d0"/><path d="M366.3 147.38a17.15 17.15 0 01-4.26-1 53.73 53.73 0 01-11.22-5.72 118.93 118.93 0 01-15.73-12.46c-5.83-5.27-11.69-12-18.72-19.11a253 253 0 00-23.58-21.27 195.13 195.13 0 00-29-19.34 155.73 155.73 0 00-16.44-7.78 128.8 128.8 0 00-35.9-9 122.35 122.35 0 00-18.76-.35 121.8 121.8 0 00-36.54 8.68c-2.9 1.33-5.71 2.45-8.63 3.94l-8.07 4.27-4 2.11-4 2.42c-2.63 1.61-5.26 3.17-7.82 4.81a158.15 158.15 0 00-27.29 22.84c-8 8.3-14.55 17-21.18 24.07-1.62 1.83-3.32 3.43-5 5l-2.47 2.34-2.53 2.06c-1.7 1.31-3.25 2.79-4.95 3.88l-4.89 3.28c-3.18 2.12-6.39 3.59-9.22 5.27s-5.65 2.68-8.1 3.83l-3.51 1.59-3.15 1.26-5 1.92-4.16 1.61 4.28-1.09 5.14-1.31 3.26-.84 3.66-1.29c2.55-.92 5.44-1.77 8.49-3l4.73-2.1a47.14 47.14 0 005-2.44 94.06 94.06 0 0021.56-15.65c7.27-6.81 14.23-15.14 22.13-22.81a166.4 166.4 0 0126.76-20.81c2.47-1.49 5-2.89 7.53-4.36l3.81-2.19 4-2 8.15-4c2.52-1.26 5.37-2.38 8.05-3.58a113.48 113.48 0 0169.37-4.8 149.4 149.4 0 0132.64 12.16A213 213 0 01289.4 94a299.94 299.94 0 0124 19.48c3.61 3.21 6.87 6.48 10.24 9.51s6.53 5.8 9.63 8.27a102.65 102.65 0 0016.87 11.17 47.86 47.86 0 0011.84 4.49 17.12 17.12 0 004.32.46z" fill="#f59464"/><path d="M365.19 146.55c-.23-.27-.47-.53-.71-.8a16.37 16.37 0 00-5.18-4.07c-2.72-1.24-6.88-2.76-9.55-.77-1.05-3-5.17-4-7.76-4a13.71 13.71 0 00-11.77 6.83c-2.8 4.63-3.27 14.87 4.13 13.68a63.56 63.56 0 0125.13.53c2.84.59 6.83.65 8.27-2.74 1.52-3.6-.41-6.21-2.56-8.66z" fill="url(#Г…ГӮГҒ_ГҸ_ГҢГҢ_ГҲ_ГӢГӮГҢГҡ_20)"/><path d="M330.22 143.71c.22-.35.46-.67.7-1a11.37 11.37 0 007.85 7.63 14.24 14.24 0 0010.56-1 10.7 10.7 0 002.79-2.08c3.25 4.92 8.79 8 14.91 9.11-1.79 2.17-5.09 2.07-7.55 1.56a63.56 63.56 0 00-25.13-.53c-7.35 1.18-6.93-9.06-4.13-13.69z" fill="#ff9368"/><path d="M284.11 30.63l-2.91-2.55c-1-.82-2.1-1.9-3.53-3l-5-3.76c-1.89-1.37-4.08-2.69-6.42-4.24s-5-2.88-7.84-4.38a117.3 117.3 0 00-19.75-7.8 135.08 135.08 0 00-52-3.95 163 163 0 00-57.74 18.26A134.79 134.79 0 00102.85 38a102.93 102.93 0 00-11 12.17c-3.29 4.55-6 9.13-8.89 13.6-11.29 18-21 35.35-30.12 49.58-4.55 7.1-8.84 13.49-12.82 19a173.63 173.63 0 01-11 13.55c-3.23 3.52-5.82 6.25-7.69 7.95l-2.84 2.68 3-2.47a102.18 102.18 0 008.11-7.45 170.68 170.68 0 0011.56-13C45.41 128.25 50 122.05 54.7 115c9.41-14 19.83-30.89 31.16-48.69 2.87-4.41 5.74-9.07 8.8-13.21a98.88 98.88 0 0110.62-11.51 131.87 131.87 0 0125.43-17.92 160.21 160.21 0 0156.35-18.48 154.64 154.64 0 0127-1.11 130.11 130.11 0 0124 3.52 137.07 137.07 0 0119.71 6.76c2.84 1.33 5.49 2.62 7.91 3.91s4.6 2.59 6.52 3.84l5.12 3.42c1.48 1 2.68 2 3.68 2.77z" fill="#f5a47d"/><path d="M307.69 108.51s-21.29-8.65-18.75-44.7c-4.51 6.35-5.52 34.73 18.75 44.7z" fill="url(#Г…ГӮГҒ_ГҸ_ГҢГҢ_ГҲ_ГӢГӮГҢГҡ_207)"/><path d="M296.42 100.93s-23.26-28.46-22.91-53.11c-3.37 24.28 5.98 40.56 22.91 53.11z" fill="url(#Г…ГӮГҒ_ГҸ_ГҢГҢ_ГҲ_ГӢГӮГҢГҡ_207-2)"/><path d="M318.88 118.84s-12.22-7.16-11.61-28.84c-3.12 3.93-4.33 21.86 11.61 28.84z" fill="url(#Г…ГӮГҒ_ГҸ_ГҢГҢ_ГҲ_ГӢГӮГҢГҡ_207-3)"/><path d="M311.94 114.22s-14.76-18.55-14.07-34.06c-2.66 15.19 3.18 25.7 14.07 34.06z" fill="url(#Г…ГӮГҒ_ГҸ_ГҢГҢ_ГҲ_ГӢГӮГҢГҡ_207-4)"/><path d="M290.43 94.44s-21.53-12.53-27.28-53.29c-3.72 7.58-.08 41.4 27.28 53.29z" fill="url(#Г…ГӮГҒ_ГҸ_ГҢГҢ_ГҲ_ГӢГӮГҢГҡ_207-5)"/><path d="M278 86.3s-27.52-30.58-30.87-57.06c.3 26.08 12.09 43.57 30.87 57.06z" fill="url(#Г…ГӮГҒ_ГҸ_ГҢГҢ_ГҲ_ГӢГӮГҢГҡ_207-6)"/><path d="M278.44 85.94s-24.74-12.32-41.12-58.19c-1.73 8.95 10.73 47.11 41.12 58.19z" fill="url(#Г…ГӮГҒ_ГҸ_ГҢГҢ_ГҲ_ГӢГӮГҢГҡ_207-7)"/><path d="M266 79.79s-1.29-1.25-3.5-3.55c-1.1-1.16-2.45-2.61-4-4.32s-3.33-3.69-5.23-5.9-3.92-4.62-6-7.19-4.09-5.24-6.05-8-3.83-5.51-5.6-8.32-3.44-5.67-5-8.59a85.64 85.64 0 01-7.25-17.77 104.1 104.1 0 002.25 10.54 92 92 0 003.14 9.59 82.83 82.83 0 004 8.73 79.35 79.35 0 004.95 8.12 85 85 0 006.06 7.71c2.19 2.5 4.55 4.91 7 7.21s5 4.43 7.54 6.39 5.06 3.74 7.69 5.35z" fill="url(#Г…ГӮГҒ_ГҸ_ГҢГҢ_ГҲ_ГӢГӮГҢГҡ_207-8)"/><path d="M265.06 78.66a70.08 70.08 0 01-10.34-7.28c-2.09-1.71-4.41-3.74-6.9-6.14s-5.14-5.13-7.89-8.26-5.6-6.66-8.47-10.61q-2.16-3-4.32-6.26c-1.44-2.19-2.88-4.49-4.3-6.9s-2.83-4.92-4.22-7.55-2.76-5.39-4.1-8.25c1.15 3.68 2.39 7.29 3.73 10.79s2.79 6.92 4.34 10.23 3.24 6.49 5 9.53a88.47 88.47 0 005.76 8.58 69.15 69.15 0 006.57 7.46 61.73 61.73 0 007.41 6.23 57.34 57.34 0 008.36 5 56.27 56.27 0 009.37 3.43z" fill="url(#Г…ГӮГҒ_ГҸ_ГҢГҢ_ГҲ_ГӢГӮГҢГҡ_207-9)"/><path d="M254.76 73.28s-2.43-1.91-6.2-5.25c-1.88-1.67-4.1-3.68-6.51-6s-5-4.9-7.71-7.75-5.42-5.95-8.1-9.24-5.24-6.76-7.67-10.34a96.57 96.57 0 01-6.41-11 61.92 61.92 0 01-4.34-11.32A85.87 85.87 0 00210 23.23a75.22 75.22 0 003.35 9.8 71.75 71.75 0 004.48 8.89 67.72 67.72 0 005.54 8 67.54 67.54 0 006.51 7A76 76 0 00237.3 63q3.94 2.85 8.31 5.39c2.91 1.74 5.97 3.36 9.15 4.89z" fill="url(#Г…ГӮГҒ_ГҸ_ГҢГҢ_ГҲ_ГӢГӮГҢГҡ_207-10)"/><path d="M255.22 72.79a40.5 40.5 0 01-5.53-2.32c-1.75-.85-3.85-2-6.24-3.39a95.38 95.38 0 01-7.94-5.31 106.6 106.6 0 01-9.22-7.72c-1.62-1.51-3.28-3.15-5-4.93s-3.4-3.67-5.13-5.71-3.47-4.22-5.23-6.52-3.51-4.74-5.26-7.3-3.5-5.26-5.23-8.11-3.45-5.84-5.11-9c-.25 2.71.91 7.37 3.4 13a82.83 82.83 0 004.73 9 98.46 98.46 0 006.7 9.8 90 90 0 008.58 9.6 74.41 74.41 0 0010.37 8.39Q232 64.1 235 65.72c2 1.07 4.12 2.06 6.29 3s4.42 1.68 6.75 2.38a65.6 65.6 0 007.18 1.69z" fill="url(#Г…ГӮГҒ_ГҸ_ГҢГҢ_ГҲ_ГӢГӮГҢГҡ_207-11)"/><path d="M240.7 69.17s-2.63-1.54-7.28-4.67c-1.16-.79-2.5-1.71-4-2.77s-3.11-2.25-4.83-3.56-3.53-2.76-5.35-4.32-3.63-3.2-5.38-4.9-3.44-3.45-5.09-5.2-3.25-3.47-4.82-5.19-3.1-3.42-4.6-5.15-3-3.51-4.39-5.3a100.62 100.62 0 01-7.7-11.11 60.37 60.37 0 01-5.39-11.75 85 85 0 002.24 8.7 71.87 71.87 0 003 7.9 79.74 79.74 0 003.69 7.2c1.32 2.3 2.75 4.51 4.26 6.65q1.51 2.14 3.16 4.18c1.09 1.37 2.23 2.72 3.44 4.07s2.47 2.73 3.8 4.09 2.74 2.74 4.25 4.09 3.11 2.66 4.81 3.94 3.49 2.5 5.33 3.66 3.72 2.27 5.57 3.27 3.66 1.86 5.42 2.64 3.46 1.46 5.1 2.05 3.21 1.04 4.76 1.48z" fill="url(#Г…ГӮГҒ_ГҸ_ГҢГҢ_ГҲ_ГӢГӮГҢГҡ_207-12)"/><path d="M133.85 74.22a44.56 44.56 0 01-4.85 1.65c-1.57.46-3.55 1-5.93 1.43-1.19.24-2.49.45-3.88.64s-2.88.36-4.45.5c-2.52.22-5.24.39-8.12.48s-5.85.13-8.93.08q-2.28 0-4.62-.12c-1.55-.07-3.12-.17-4.71-.31s-3.21-.3-4.84-.51c-2.86-.37-5.78-.87-8.76-1.56q-3.35-.77-6.77-1.87t-6.89-2.54c-2.32-1-4.67-2-7-3.23s-4.72-2.52-7.09-4a61.92 61.92 0 0010 9.83 55.1 55.1 0 0013.9 7.9 54.57 54.57 0 006.76 2.11 70.33 70.33 0 007.66 1.4c2.73.36 5.62.6 8.68.7 1.53 0 3.11.07 4.72.07s3.27 0 5-.1 3.41-.15 5.18-.27 3.56-.3 5.4-.51 3.72-.48 5.6-.82 3.73-.79 5.57-1.29 3.57-1.08 5.35-1.69 3.58-1.28 5.37-2a51.721 51.721 0 017.41-4.24c1.33-.62 2.7-1.25 4.11-1.83s2.82-1.12 4.28-1.64 3-1 4.57-1.53 3.13-1 4.75-1.45 3.27-.94 5-1.39 3.43-.9 5.19-1.33c3.52-.87 7.17-1.7 10.84-2.5s7.34-1.58 11-2.29 7.24-1.34 10.79-1.78a102.35 102.35 0 0110.48-.79 99.31 99.31 0 0110 .26c2.41.18 4.76.44 7 .8a66.41 66.41 0 016.52 1.36 45 45 0 0111.17 4.49c.05-.76-1.48-2.41-4.67-4.23a39.58 39.58 0 00-6-2.71 59.09 59.09 0 00-8.64-2.33 84.44 84.44 0 00-8.71-1.21 95.66 95.66 0 00-10.42-.34 101.84 101.84 0 00-12.12 1c-2.16.29-4.4.66-6.72 1.09s-4.71.9-7.19 1.42-5.05 1.09-7.69 1.68-5.36 1.24-8.12 1.92c-3.67.91-7.41 1.91-11.22 3-1.91.56-3.81 1.16-5.73 1.79s-3.89 1.29-5.88 2-4 1.43-6.06 2.23-4.14 1.65-6.29 2.58z" fill="url(#Г…ГӮГҒ_ГҸ_ГҢГҢ_ГҲ_ГӢГӮГҢГҡ_207-13)"/><path d="M127.1 80.74a5.29 5.29 0 01-1.78 1.36 31.94 31.94 0 01-5.5 2.41c-1.27.43-2.74.86-4.39 1.27S112 86.59 110 87s-4.16.77-6.53 1.11-5 .67-7.74 1-5.72.55-8.89.72c-1.58.08-3.21.14-4.89.16s-3.4 0-5.13 0h-5.2c-1.74 0-3.51-.09-5.32-.19s-3.67-.26-5.58-.46c-2.39-.25-4.87-.58-7.46-1s-5.27-.88-8.05-1.46a70 70 0 01-8.28-2.63c-2.78-1.07-5.61-2.26-8.5-3.52a45 45 0 004.72 4.1 47.71 47.71 0 006.71 4.27 44.64 44.64 0 008.7 3.34q2.4.66 4.94 1.21c1.69.36 3.42.69 5.19 1 2.37.37 4.81.65 7.34.82s5.22.25 8.09.24l4.53.06c1.56 0 3.17.05 4.8.05s3.28 0 4.93-.07 3.33-.15 5-.29 3.32-.31 5-.52 3.28-.49 4.9-.82 3.23-.71 4.82-1.14 3.17-.91 4.74-1.44 3.16-1.09 4.73-1.73 3.15-1.33 4.72-2.08 3.12-1.55 4.62-2.38 3-1.66 4.42-2.54c1.84-1.11 3.44-2 4.86-2.84s2.62-1.46 3.66-2l4.36-2.36 1.84-1-2.93.9c-1.76.54-4.1 1.28-6.42 2s-4.77 1.55-6.55 2.18-3.05 1.05-3.05 1.05z" fill="url(#Г…ГӮГҒ_ГҸ_ГҢГҢ_ГҲ_ГӢГӮГҢГҡ_207-14)"/><path d="M116.08 86.88a11.5 11.5 0 01-3.08 1.61c-1 .42-2.18.9-3.58 1.42s-3 1.08-4.82 1.65-3.83 1.18-6 1.8-4.65 1.25-7.3 1.87-5.5 1.23-8.48 1.77c-1.49.28-3 .56-4.56.82s-3.12.51-4.7.75l-4.72.69q-2.36.33-4.71.6c-1.57.17-3.17.32-4.78.44q-3.63.27-7.4.35c-2.51 0-5.07 0-7.66-.06s-5.22-.26-7.88-.52-5.35-.59-8.06-1-5.45-.94-8.21-1.55-5.52-1.32-8.31-2.14c3.19 1.33 6.91 2.8 11.11 4.22q3.15 1.06 6.65 2.06c2.33.66 4.77 1.28 7.32 1.83s5.21 1 8 1.41 5.62.66 8.57.82c2.53.14 5.14.18 7.82.1s5.5-.26 8.51-.54c1.51-.13 3.09-.28 4.73-.46s3.32-.38 5-.63 3.46-.52 5.22-.82 3.54-.64 5.32-1 3.54-.77 5.29-1.2 3.48-.9 5.18-1.39 3.37-1 5-1.6 3.27-1.19 4.87-1.85 3.2-1.37 4.79-2.14 3.18-1.61 4.76-2.52q2.92-1.68 5.18-3c1.5-.89 2.76-1.66 3.8-2.31l6.22-3.9-2.8.7-6.37 1.6c-2.37.58-4.84 1.14-6.74 1.52s-3.18.6-3.18.6z" fill="url(#Г…ГӮГҒ_ГҸ_ГҢГҢ_ГҲ_ГӢГӮГҢГҡ_207-15)"/><path d="M125.22 86.14s-.8.56-2 1.48-3 2.17-4.75 3.56-3.63 2.88-5.19 4.34a22 22 0 00-3.62 4.07 16.35 16.35 0 01-3.22 3.41 31 31 0 01-3.27 2.4 46.18 46.18 0 01-4.65 2.6 67.37 67.37 0 01-6.22 2.67 98.973 98.973 0 01-7.79 2.5c-1.42.39-2.84.78-4.31 1.14s-3 .7-4.51 1-3.08.6-4.62.87-3.07.52-4.59.77-3 .49-4.52.69-3 .36-4.56.48-3.12.19-4.73.21c-1.8 0-3.65 0-5.55-.1s-3.82-.25-5.8-.47-4-.52-6.06-.89c-2.57-.46-5.21-1-7.91-1.74s-5.47-1.55-8.3-2.53-5.71-2.1-8.66-3.37-6-2.68-9-4.26a70 70 0 0011.82 3.58c2.31.5 4.78 1 7.38 1.33s5.34.69 8.19.91 5.8.36 8.85.38 6.18-.05 9.38-.26c2.74-.17 5.54-.44 8.36-.82 1.42-.18 2.84-.4 4.27-.64s2.89-.51 4.36-.8 3-.62 4.55-1l4.83-1.06c1.66-.38 3.35-.78 5-1.22s3.39-.92 5.08-1.42 3.38-1 5-1.59 3.28-1.16 4.86-1.79 3.12-1.3 4.61-2 2.93-1.41 4.33-2.18 2.74-1.51 4.1-2.39 2.61-1.74 3.88-2.68 2.32-1.68 3.48-2.47 2.32-1.53 3.48-2.24l3.46-2.07 3.28-1.92c2.13-1.22 4.14-2.3 6.08-3.24a57.79 57.79 0 015.61-2.38 39.79 39.79 0 015.3-1.53 35.87 35.87 0 015.16-.7" fill="url(#Г…ГӮГҒ_ГҸ_ГҢГҢ_ГҲ_ГӢГӮГҢГҡ_207-16)"/><path d="M103.8 103.31a9.91 9.91 0 01-.93 2A19.54 19.54 0 0198.8 110a29.8 29.8 0 01-4 2.9 47.75 47.75 0 01-5.65 3c-1.09.49-2.25 1-3.46 1.43s-2.49.91-3.83 1.34-2.69.85-4.11 1.26-2.89.82-4.41 1.21l-4.59 1.18-4.65 1.18c-1.55.38-3.13.73-4.76 1s-3.3.57-5 .78-3.51.35-5.36.43c-1.61.07-3.26.1-5 .09-1.49 0-3 0-4.6-.08s-3.2-.11-4.87-.2-3.36-.21-5.11-.36c-2.18-.2-4.43-.44-6.74-.74s-4.7-.65-7.15-1.06-5-.89-7.56-1.42-5.25-1.13-8-1.8l7.59.52c2.52.17 5 .34 7.54.49s5 .27 7.51.37 5 .16 7.49.18c2 0 4 0 6-.06s4-.14 6-.27 4-.29 6-.51c2.29-.24 4.6-.56 6.91-1s4.66-.92 7-1.52l3.68-.94 3.89-1c1.34-.35 2.72-.71 4.13-1.1s2.85-.78 4.31-1.22 2.94-.9 4.42-1.39 3-1 4.5-1.56 3-1.11 4.47-1.71 2.89-1.23 4.29-1.89 2.77-1.34 4.1-2.06 2.76-1.38 4.02-2.16z" fill="url(#Г…ГӮГҒ_ГҸ_ГҢГҢ_ГҲ_ГӢГӮГҢГҡ_207-17)"/><path d="M99.2 108.44a22.27 22.27 0 01-2.06 2.47 33.79 33.79 0 01-2.88 2.69 51.64 51.64 0 01-4.42 3.32 67.43 67.43 0 01-5.94 3.57c-1.11.6-2.26 1.2-3.46 1.82s-2.44 1.25-3.73 1.89-2.6 1.3-3.94 2l-4.09 2.1c-1.37.71-2.75 1.42-4.15 2.11s-2.83 1.35-4.29 2-3 1.18-4.5 1.69c-1.34.44-2.71.84-4.1 1.19s-2.79.65-4.22.9-2.87.46-4.33.63-3 .33-4.5.45-3.1.22-4.72.28c-1.22 0-2.46.08-3.73.11s-2.56 0-3.88 0-2.66-.08-4-.17-2.75-.19-4.16-.34c1.52-.24 3-.49 4.55-.76s3-.55 4.52-.85 3-.61 4.48-.93l4.43-1c1.95-.42 3.89-.85 5.81-1.31s3.83-.94 5.73-1.46 3.81-1.1 5.7-1.75c2.28-.76 4.52-1.61 6.74-2.53s4.43-1.89 6.7-2.88 4.63-1.87 7-2.78l3.57-1.36 3.55-1.38c2.36-.94 4.67-1.92 6.89-3s4.32-2.07 6.23-3.16a51.71 51.71 0 005.2-3.56z" fill="url(#Г…ГӮГҒ_ГҸ_ГҢГҢ_ГҲ_ГӢГӮГҢГҡ_207-18)"/><path d="M88.58 117.78a20.35 20.35 0 01-2.49 2.85c-.86.85-2 1.87-3.36 3s-3 2.41-4.9 3.79l-3 2.18c-1.06.76-2.17 1.55-3.34 2.36s-2.37 1.64-3.62 2.47-2.55 1.67-3.9 2.47a54.589 54.589 0 01-8.23 4 58.343 58.343 0 01-8.66 2.57c-1.5.33-3 .61-4.6.85s-3.18.49-4.86.71-3.41.43-5.23.62-3.73.35-5.72.49-4.07.23-6.21.25c1.26-.29 2.5-.61 3.74-.94s2.48-.67 3.7-1l3.63-1 3.54-1c1.55-.46 3.09-.93 4.61-1.4l4.54-1.4c1.5-.48 3-1 4.51-1.51s3-1.1 4.5-1.71 3-1.26 4.43-1.93c2.33-1.12 4.59-2.3 6.8-3.54s4.4-2.47 6.61-3.65 4.39-2.28 6.48-3.35 4.08-2 5.93-3 3.52-2.16 5.1-3.18z" fill="url(#Г…ГӮГҒ_ГҸ_ГҢГҢ_ГҲ_ГӢГӮГҢГҡ_207-19)"/><path d="M245.17 68a22.16 22.16 0 01-3.55-.36 50.52 50.52 0 01-9.84-2.75c-1.4-.54-2.9-1.17-4.48-1.91s-3.28-1.57-5.05-2.53-3.64-2-5.59-3.29-4-2.66-6.07-4.28c-11.29-8.69-20.29-19-29.4-30.64-1.85-2.51-3.68-5.14-5.41-7.91s-3.4-5.64-5-8.54c.79 1.77 1.52 3.55 2.25 5.33s1.43 3.57 2.15 5.34 1.47 3.51 2.26 5.21c6.44 13.87 16 26.63 27.38 35.2a42.68 42.68 0 006.95 4.32 51 51 0 007.42 2.91 81.62 81.62 0 008 2c2.76.54 5.62 1 8.61 1.26s6.09.53 9.37.64z" fill="url(#Г…ГӮГҒ_ГҸ_ГҢГҢ_ГҲ_ГӢГӮГҢГҡ_207-20)"/><path d="M230 67.11a24.89 24.89 0 01-5.53-.85 49.24 49.24 0 01-6.47-2.08 61.44 61.44 0 01-8.56-4.18 83.43 83.43 0 01-10.38-7.35c-1.87-1.53-3.8-3.23-5.79-5.08s-4-3.84-6.1-6c-2.77-2.82-5.61-5.89-8.51-9.26a182.5 182.5 0 01-11.14-14.23c-2.25-3.19-4.52-6.65-6.76-10.3q1.8 4.8 3.7 9.09t3.91 8.1c1.33 2.55 2.69 4.94 4.07 7.21s2.78 4.38 4.22 6.38q2.88 4 6 7.61a75.74 75.74 0 006.47 6.66 55.17 55.17 0 007 5.38 46.62 46.62 0 007.47 3.9 53.76 53.76 0 008.06 2.59 81.71 81.71 0 008.76 1.57c3.02.39 6.21.67 9.58.84z" fill="url(#Г…ГӮГҒ_ГҸ_ГҢГҢ_ГҲ_ГӢГӮГҢГҡ_207-21)"/><path d="M223.42 64.93a24.41 24.41 0 01-5.56-.21 45 45 0 01-6.57-1.38 55.78 55.78 0 01-8.84-3.45 77.63 77.63 0 01-10.95-6.57c-2-1.41-4.05-3-6.17-4.66s-4.29-3.51-6.5-5.41c-3-2.54-6-5.29-9.13-8.36s-6.35-6.45-9.65-10.19c-1.65-1.87-3.31-3.84-5-5.89s-3.37-4.22-5.08-6.47c2.21 4.56 4.44 8.73 6.69 12.57s4.53 7.32 6.83 10.49q2.31 3.18 4.66 6c2.1 2.47 4.24 4.75 6.47 6.94a82.42 82.42 0 006.92 6.11 56.2 56.2 0 007.38 4.94 44.09 44.09 0 007.81 3.42 46.46 46.46 0 008.27 1.81 73.77 73.77 0 008.83.6c3.06.03 6.24-.08 9.59-.29z" fill="url(#Г…ГӮГҒ_ГҸ_ГҢГҢ_ГҲ_ГӢГӮГҢГҡ_207-22)"/><path d="M182 63.83a72.3 72.3 0 01-7.57-2.38c-2.32-.85-5.07-1.94-8.09-3.25s-6.3-2.76-9.7-4.41-6.9-3.34-10.4-5.32a89.39 89.39 0 01-7.75-4.89q-2.85-2-5.57-4.31a74.68 74.68 0 01-7.72-7.49 59 59 0 01-6.6-8.71 108.07 108.07 0 006.4 12.61 74.15 74.15 0 007.09 10.07 52.77 52.77 0 005.17 5.36 48.94 48.94 0 007.74 5.58 56.86 56.86 0 008.42 4.09 56.13 56.13 0 009 2.73 50.47 50.47 0 009.52 1.12 55.06 55.06 0 0010.06-.8z" fill="url(#Г…ГӮГҒ_ГҸ_ГҢГҢ_ГҲ_ГӢГӮГҢГҡ_207-23)"/><path d="M176.52 63.24a21.41 21.41 0 01-5.47.63 36.67 36.67 0 01-6.48-.56 64 64 0 01-8.69-2.18 110.94 110.94 0 01-10.7-4.07c-1.94-.82-4-1.72-6-2.72a113.42 113.42 0 01-10.82-5.88c-1.88-1.15-3.8-2.39-5.78-3.74-3-2-6.11-4.2-9.41-6.6s-6.91-4.9-10.61-7.67a21.16 21.16 0 003.64 5.9 72.61 72.61 0 006.8 7.25c1.77 1.71 3.72 3.46 5.83 5.19a82.62 82.62 0 009.21 6.67 82 82 0 0011 5.73c1.94.88 3.93 1.69 5.94 2.41s4.05 1.35 6.11 1.87a45.74 45.74 0 006.18 1.17 36.39 36.39 0 006.27.2 29.6 29.6 0 006.4-1.06 37.16 37.16 0 006.58-2.54z" fill="url(#Г…ГӮГҒ_ГҸ_ГҢГҢ_ГҲ_ГӢГӮГҢГҡ_207-24)"/><path d="M205.35 60.8a27.16 27.16 0 01-5.35-.31 44 44 0 01-6.2-1.35 56.19 56.19 0 01-8.14-3.14c-1.5-.71-3.06-1.51-4.68-2.42s-3.28-1.9-5-3-3.47-2.29-5.28-3.61-3.66-2.76-5.55-4.33-3.82-3.28-5.77-5.14c-1.47-1.39-2.95-2.87-4.44-4.42s-3-3.16-4.46-4.84-3-3.4-4.43-5.17-2.91-3.59-4.34-5.45c.95 1.78 1.93 3.56 2.94 5.32s2.06 3.53 3.13 5.28 2.18 3.46 3.31 5.14 2.28 3.32 3.45 4.91 2.37 3.12 3.58 4.59 2.44 2.87 3.69 4.2 2.51 2.65 3.8 3.88 2.61 2.41 3.94 3.51 2.69 2.13 4.06 3.08a45.4 45.4 0 004.21 2.59 31 31 0 008.77 3.28 26.3 26.3 0 009.16.23 38.19 38.19 0 009.6-2.83z" fill="url(#Г…ГӮГҒ_ГҸ_ГҢГҢ_ГҲ_ГӢГӮГҢГҡ_207-25)"/><path d="M197.81 62.82a22.26 22.26 0 01-5.48 0 35.4 35.4 0 01-6.44-1.28 53.72 53.72 0 01-8.54-3.35 100 100 0 01-10.23-5.79c-1.81-1.16-3.67-2.38-5.57-3.7s-3.86-2.72-5.86-4.26-4-3.21-6.12-5c-3.11-2.74-6.31-5.83-9.57-9.31-1.63-1.73-3.28-3.57-4.93-5.51s-3.33-4-5-6.13a28.93 28.93 0 003.66 9.45 71.18 71.18 0 008.6 12 80.23 80.23 0 008.12 8 90.7 90.7 0 009.8 7.35 70.91 70.91 0 0011.43 6.29 43.52 43.52 0 006.22 2.14 36.22 36.22 0 006.47 1 31.09 31.09 0 006.66-.29 36.86 36.86 0 006.78-1.61z" fill="url(#Г…ГӮГҒ_ГҸ_ГҢГҢ_ГҲ_ГӢГӮГҢГҡ_207-26)"/><path d="M159.16 66.67s-3-.62-7.82-2c-2.42-.66-5.33-1.46-8.57-2.42s-6.87-1.94-10.68-3.12c-2.54-.79-5.15-1.65-7.78-2.61-2.17-.78-4.36-1.61-6.56-2.51s-4.41-1.84-6.63-2.84-4.46-2-6.7-3.15c-3.37-1.64-6.71-3.43-9.9-5.4a64.81 64.81 0 01-8.94-6.51 107.93 107.93 0 009.07 9.08 114.27 114.27 0 009.08 7.32c2 1.45 4 2.79 6 4a67.46 67.46 0 006 3.37 68.9 68.9 0 006.36 2.75 67.22 67.22 0 008 2.46c1.62.38 3.23.72 4.85 1s3.24.51 4.85.68 3.2.33 4.8.42 3.21.13 4.82.13 3.23-.07 4.85-.18 3.26-.25 4.9-.47z" fill="url(#Г…ГӮГҒ_ГҸ_ГҢГҢ_ГҲ_ГӢГӮГҢГҡ_207-27)"/><path d="M162.8 66.62a44.9 44.9 0 01-6.13.36c-2 0-4.46 0-7.37-.23-1.46-.09-3-.21-4.72-.36s-3.48-.32-5.39-.53-4-.43-6.16-.71-4.46-.6-6.86-1-4.91-.79-7.48-1.28q-3.22-.6-6.59-1.29c-2.24-.46-4.52-1-6.86-1.47s-4.76-1.07-7.26-1.66c-3.75-.9-7.68-1.9-11.75-3S78 53 73.78 51.44a34.08 34.08 0 006.86 4.47 93.24 93.24 0 0010.23 4.44c2.56.95 5.27 1.89 8.07 2.78s5.73 1.77 8.79 2.6 6.28 1.65 9.55 2.39c2 .46 4 .89 6 1.27s4 .7 5.94 1c2.32.35 4.59.63 6.78.83s4.3.32 6.34.36 4 0 5.91-.07a37 37 0 005.44-.71 23.31 23.31 0 004.87-1.57 20.12 20.12 0 004.24-2.61z" fill="url(#Г…ГӮГҒ_ГҸ_ГҢГҢ_ГҲ_ГӢГӮГҢГҡ_207-28)"/><path d="M137.22 75.43s-.71.16-2.05.4-3.3.57-5.79.88c-1.88.24-4.11.46-6.65.59-1.27 0-2.63.09-4 .09s-2.9 0-4.44-.12c-3.07-.16-6.31-.46-9.61-.92-1.65-.23-3.31-.49-5-.8s-3.32-.65-5-1-3.29-.8-4.94-1.26-3.31-1-5-1.5c-2.47-.79-5-1.67-7.41-2.65-1.84-.74-3.68-1.53-5.5-2.41s-3.61-1.86-5.39-2.92-3.44-2.24-5.2-3.49-3.41-2.58-5.06-4c1 .49 2.22 1.11 3.78 1.8s3.41 1.46 5.53 2.27S70 62 72.69 62.8s5.61 1.56 8.8 2.3c1.59.36 3.25.74 5 1.11s3.47.75 5.29 1.11 3.7.71 5.63 1 3.91.61 6 .87q3.42.45 7 .76 3.11.27 6.35.38t6.54 0c2.2 0 4.41-.14 6.61-.28s4.39-.33 6.58-.55l6.5-.62c2.18-.22 4.36-.43 6.55-.7a17.46 17.46 0 01-4.33 4.82 12.87 12.87 0 01-4 2 9 9 0 01-3.99.43z" fill="url(#Г…ГӮГҒ_ГҸ_ГҢГҢ_ГҲ_ГӢГӮГҢГҡ_207-29)"/><path class="cls-44" d="M321.1 184a8.7 8.7 0 00.21-1.3 7 7 0 000-1.29 3.92 3.92 0 00-.42-1.35 5.32 5.32 0 00-1-1.22 6.42 6.42 0 00-1.13-.8 8.38 8.38 0 00-1.53-.64 11.33 11.33 0 00-2-.42 16.47 16.47 0 00-2.39-.11 3.87 3.87 0 011.48-.76 8 8 0 014.57.07 4.66 4.66 0 012.05 1.28 3.92 3.92 0 01.54.77 4.25 4.25 0 01.36 1 4.46 4.46 0 01.09 1.25 9.15 9.15 0 01-.27 1.61c-.13.55-.33 1.2-.56 1.91zm-6.93 12.14a16.71 16.71 0 000-1.74 16.13 16.13 0 00-.16-1.8 7.87 7.87 0 00-.58-2 10.32 10.32 0 00-1.26-2 8.93 8.93 0 00-1.42-1.39 7.7 7.7 0 00-4.41-1.6 11.32 11.32 0 00-3.23.35 6.19 6.19 0 011.95-1.69 7.32 7.32 0 012.79-.89 6 6 0 013 .52 5.79 5.79 0 012.56 2.27 7.48 7.48 0 01.67 1.36 10.81 10.81 0 01.47 1.66 11.18 11.18 0 01.16 2 22.77 22.77 0 01-.17 2.37c-.1.79-.23 1.67-.37 2.58zm-19.77 17.69a16.82 16.82 0 00.63-1.7 13.45 13.45 0 00.45-1.82 8 8 0 00.08-2.2 11.12 11.12 0 00-.6-2.44 9.82 9.82 0 00-1-1.93 10.87 10.87 0 00-1.68-2 13.18 13.18 0 00-2.51-1.81 19.09 19.09 0 00-3.37-1.48 5.9 5.9 0 012.53-.43 9.54 9.54 0 013.22.68 8.14 8.14 0 012.95 1.89 7 7 0 011.77 3.32 8.72 8.72 0 01.22 1.58 11.74 11.74 0 01-.07 1.75 9.75 9.75 0 01-.46 2 17.42 17.42 0 01-.92 2.18c-.36.77-.78 1.58-1.24 2.41z"/><path class="cls-44" d="M301.31 209.11a13.91 13.91 0 00.35-1.76 12.86 12.86 0 00.12-1.87 8.79 8.79 0 00-.28-2.17 10.39 10.39 0 00-1-2.24 8 8 0 00-1.26-1.61 8.48 8.48 0 00-1.9-1.36 12.1 12.1 0 00-2.71-1 24.32 24.32 0 00-3.68-.67 7.39 7.39 0 012.51-1 10.73 10.73 0 013.23-.27 6.47 6.47 0 013.09 1 6 6 0 012.22 2.74 9 9 0 01.46 1.49 12.65 12.65 0 01.23 1.74 12 12 0 01-.09 2 19.79 19.79 0 01-.48 2.36c-.21.86-.48 1.72-.81 2.62zm5.28-6.98a14.91 14.91 0 00.26-1.59 14.08 14.08 0 00.09-1.68 9 9 0 00-.21-2 11 11 0 00-.73-2.08 8.31 8.31 0 00-.93-1.54 6.67 6.67 0 00-1.42-1.38 6 6 0 00-2-1 10.71 10.71 0 00-2.8-.35 5 5 0 011.89-1.12 5.35 5.35 0 012.46-.26 4.35 4.35 0 012.36 1.14 6.26 6.26 0 011.66 2.71 10.24 10.24 0 01.34 1.35 14.22 14.22 0 01.16 1.55 12.61 12.61 0 01-.09 1.79 20.93 20.93 0 01-.38 2.07c-.25.8-.42 1.58-.66 2.39zM288 222a22.4 22.4 0 00.24-2.3 18.48 18.48 0 000-2.34 10.13 10.13 0 00-.6-2.72 15.49 15.49 0 00-1.62-3 17.22 17.22 0 00-1.94-2.33 16.71 16.71 0 00-2.73-2.23 16.37 16.37 0 00-3.63-1.79c-.7-.25-1.45-.48-2.25-.68s-1.65-.38-2.54-.54a8 8 0 013.22-1 13.33 13.33 0 014.27.22 11.1 11.1 0 014.34 2 11.46 11.46 0 013.38 4 11.66 11.66 0 01.76 1.94 12.78 12.78 0 01.44 2.15 11.66 11.66 0 010 2.43 27 27 0 01-.5 2.83c-.29 1.1-.56 2.2-.84 3.36zm-30.23 14.32a17.43 17.43 0 00.92-2.25 16.31 16.31 0 00.62-2.56 11.77 11.77 0 000-3.31 19.78 19.78 0 00-1.05-3.9 16 16 0 00-1.53-3 15.6 15.6 0 00-2.32-2.81 20.19 20.19 0 00-3.15-2.48 25.64 25.64 0 00-4.09-2.13 9.25 9.25 0 013.33-.19 13.84 13.84 0 014.09 1.11 11.68 11.68 0 013.94 2.8 12 12 0 012.71 5.07 14 14 0 01.4 2.39 15 15 0 010 2.59 11.94 11.94 0 01-.63 2.75 20 20 0 01-1.36 2.93c-.56.95-1.19 1.95-1.88 2.99zm-11.92 4.24a16.39 16.39 0 00.62-2.16 16.83 16.83 0 00.36-2.4 12 12 0 00-.19-3 23.22 23.22 0 00-1.11-3.74A22.09 22.09 0 00244 226a20.07 20.07 0 00-2.2-3.17 23.79 23.79 0 00-3.08-3 46.85 46.85 0 00-4.17-3 8.24 8.24 0 013.29.31 16.67 16.67 0 014 1.68 12.66 12.66 0 013.67 3.18 14.43 14.43 0 012.55 5.18 16.8 16.8 0 01.44 2.37 16.23 16.23 0 01.1 2.53 13.23 13.23 0 01-.4 2.62 20.9 20.9 0 01-1 2.82c-.37 1.01-.83 2.01-1.35 3.04zm-12.1 3.65a12.11 12.11 0 00.2-1.6c0-.5.09-1.13.1-1.87a19.41 19.41 0 00-.12-2.62c-.11-1-.27-2.2-.54-3.49a23.22 23.22 0 00-2.6-6.85 28.66 28.66 0 00-2.85-4.1 27.76 27.76 0 00-4-4 5.39 5.39 0 013 .6 14.59 14.59 0 013.86 2.72 14.84 14.84 0 013.27 4.31 15.76 15.76 0 011.52 5.74 19.71 19.71 0 010 2.31c0 .78-.09 1.55-.18 2.32a17.07 17.07 0 01-.39 2.25c-.17.74-.38 1.46-.61 2.18s-.41 1.38-.66 2.1zm-8.82.6a14.05 14.05 0 00.46-1.45c.11-.45.25-1 .35-1.62a11.66 11.66 0 00.18-2.17 25.28 25.28 0 00-.19-3 21.06 21.06 0 00-.59-3.13 22.19 22.19 0 00-1.42-3.92 25.08 25.08 0 00-2.57-4.27 22 22 0 00-1.72-2.05c-.63-.66-1.31-1.31-2-1.93a4.73 4.73 0 012.7.68 12.32 12.32 0 013.31 2.81 17.46 17.46 0 012.88 4.86 18.48 18.48 0 01.89 2.85 17.16 17.16 0 01.38 2.93 13.38 13.38 0 010 2 16.36 16.36 0 01-.26 1.88 11.78 11.78 0 01-.53 1.79 18.6 18.6 0 01-.8 1.81c-.38.6-.71 1.25-1.07 1.93zm-7.81 1.42a18.18 18.18 0 00.51-1.87c.14-.58.28-1.25.4-2a17.58 17.58 0 00.22-2.56 29.42 29.42 0 00-.13-3.15 22.07 22.07 0 00-.48-2.81 27.72 27.72 0 00-1-3.24 37.55 37.55 0 00-1.61-3.83c-.32-.7-.67-1.42-1.06-2.16s-.83-1.49-1.3-2.25a3.74 3.74 0 012.2 1.19 13.91 13.91 0 012.33 3.14 20.85 20.85 0 011.85 4.4 18.78 18.78 0 01.62 2.43 17.1 17.1 0 01.26 2.61 14.86 14.86 0 01-.08 1.89 16.36 16.36 0 01-.29 1.91 14.74 14.74 0 01-.54 1.93c-.24.66-.52 1.33-.84 2.05zm-6.38 1.44s.15-.66.3-1.77c.08-.55.17-1.21.26-2s.17-1.6.21-2.55.13-2 .16-3.25c0-.89.05-1.88 0-2.95s-.06-2.24-.18-3.48a36 36 0 00-.52-4.12c-.13-.76-.29-1.54-.49-2.34s-.48-1.64-.8-2.48a2.79 2.79 0 011.77 1.38 11.21 11.21 0 011.37 3.43 21.24 21.24 0 01.58 4.72c0 .84.06 1.7 0 2.6s-.1 1.82-.21 2.75c-.07.67-.16 1.32-.27 2s-.23 1.29-.36 1.94-.3 1.28-.49 1.93-.41 1.3-.65 2-.42 1.41-.68 2.19zm-3.5.96c-.31-1.87-1.54-3.35-1.88-5.22a41.8 41.8 0 01-.44-10.72c.13-1.85.36-3.68.67-5.5.2-1.24.18-3.82 1.33-4.47 1.65-.92 1.31 4.25 1.24 5.14-.46 6.24-1.88 12.23-1.24 18.54.08.75.19 1.49.32 2.23zm-15.61-.3a20.76 20.76 0 01-.67-2.05c-.17-.64-.37-1.43-.54-2.33a19.65 19.65 0 01-.33-3.09 27.4 27.4 0 01.17-3.85 23.83 23.83 0 01.63-3.33 24.28 24.28 0 011.34-3.77 26.21 26.21 0 012.35-4.16 33 33 0 013.46-4.22 5.29 5.29 0 00-2.86.9 13.82 13.82 0 00-3.34 3 15.49 15.49 0 00-2.67 4.7 17.55 17.55 0 00-1.06 5.82 18.09 18.09 0 00.1 2.32c.09.79.21 1.59.38 2.41a18.81 18.81 0 00.7 2.47c.29.83.65 1.67 1 2.53s.87 1.74 1.34 2.65zm9.83.1a14.49 14.49 0 01-.81-1.71 21.12 21.12 0 01-.72-2 16.86 16.86 0 01-.58-2.76 29.38 29.38 0 01-.23-3.58 25 25 0 01.21-3.21 26.61 26.61 0 01.75-3.79 28.9 28.9 0 011.62-4.38 30.71 30.71 0 012.65-4.68 4.67 4.67 0 00-2.51 1.29 13.22 13.22 0 00-2.65 3.44 17.35 17.35 0 00-1.8 5 19.4 19.4 0 00-.3 5.73 19.92 19.92 0 00.32 2.15c.15.72.34 1.43.56 2.15a16 16 0 00.85 2.13 22.47 22.47 0 001.18 2.09c.45.7.94 1.41 1.46 2.13z"/><path class="cls-44" d="M269 233.18a14.82 14.82 0 00.73-5 11.85 11.85 0 00-.63-3.3 23.3 23.3 0 00-1.78-3.81 21.13 21.13 0 00-2.13-3 16.07 16.07 0 00-3-2.68 18.73 18.73 0 00-3.91-2.06 29.65 29.65 0 00-4.81-1.3 10.3 10.3 0 013.55-.75 14.21 14.21 0 014.63.54 12.88 12.88 0 012.39 1 11.13 11.13 0 012.21 1.54 13.37 13.37 0 012 2.18 15.64 15.64 0 011.6 2.79 16.08 16.08 0 01.85 2.36 17.45 17.45 0 01.52 2.57 11.8 11.8 0 010 2.78 14.93 14.93 0 01-.76 3 29.81 29.81 0 01-1.46 3.14zm8.9-5.65a16.65 16.65 0 00.31-2.13 18.22 18.22 0 000-2.38 14.78 14.78 0 00-.52-3 23.65 23.65 0 00-1.35-3.39 20.33 20.33 0 00-1.54-2.62 17.83 17.83 0 00-2.17-2.55 16.1 16.1 0 00-3-2.33 16.35 16.35 0 00-4-1.65 6.91 6.91 0 012.93-.5 9.54 9.54 0 013.64 1 11 11 0 013.43 2.65 13.33 13.33 0 012.51 4.36c.22.64.42 1.32.59 2a21.72 21.72 0 01.37 2.28 15.34 15.34 0 010 2.54 18.86 18.86 0 01-.43 2.77 30.11 30.11 0 01-.77 2.95zm-139.47 7.81A17.13 17.13 0 01138 233a19.63 19.63 0 01-.12-2.56 14.69 14.69 0 01.46-3.18 21 21 0 011.37-3.52 18.89 18.89 0 011.65-2.73 20.64 20.64 0 012.3-2.68 24.17 24.17 0 013.07-2.52 30.87 30.87 0 013.87-2.29 5.56 5.56 0 00-2.69 0 12.83 12.83 0 00-3.58 1.32 14.24 14.24 0 00-3.67 2.84 14.53 14.53 0 00-2.85 4.55 13.67 13.67 0 00-.66 2.11 17.16 17.16 0 00-.38 2.38 13.76 13.76 0 00.06 2.63 19.08 19.08 0 00.58 2.88c.29 1 .59 2.04 1.02 3.11z"/><path class="cls-44" d="M130.92 231.48a18.55 18.55 0 01-.08-2.36 17 17 0 01.23-2.56 14.63 14.63 0 01.85-3.08 24.27 24.27 0 011.73-3.34 21.71 21.71 0 011.86-2.52 20.84 20.84 0 012.46-2.41 21.5 21.5 0 013.15-2.16 27 27 0 013.9-1.78 5.05 5.05 0 00-2.56-.45 10.47 10.47 0 00-3.53.84 12.75 12.75 0 00-3.74 2.39 14.7 14.7 0 00-3.2 4.22 16.48 16.48 0 00-.88 2 21.11 21.11 0 00-.65 2.32 14.5 14.5 0 00-.29 2.63 20.57 20.57 0 00.19 3c.13 1.03.32 2.12.56 3.26zm14.98 12.78a23.28 23.28 0 01-.2-3.16 24.4 24.4 0 01.21-3.43 19.54 19.54 0 011-4.17 30.77 30.77 0 012.19-4.55 26.76 26.76 0 012.4-3.48 27.79 27.79 0 013.2-3.35 29.38 29.38 0 014.14-3.05 35.45 35.45 0 015.16-2.57 6.66 6.66 0 00-3.46-.48 14.54 14.54 0 00-4.69 1.3 17.67 17.67 0 00-4.92 3.39 20.32 20.32 0 00-4.13 5.82 22.5 22.5 0 00-1.09 2.77 23.61 23.61 0 00-.79 3.14 19 19 0 00-.29 3.53 26.64 26.64 0 00.35 3.95c.26 1.38.55 2.83.92 4.34zm-34.32-19.98a17.09 17.09 0 01-.09-2.36 18.35 18.35 0 01.24-2.55 14.37 14.37 0 01.86-3.08 22.7 22.7 0 011.73-3.34 20.95 20.95 0 014.33-4.93 20.94 20.94 0 013.15-2.15 25.08 25.08 0 013.9-1.77 5 5 0 00-2.57-.46 10.69 10.69 0 00-3.52.83 12.92 12.92 0 00-3.75 2.39 14.88 14.88 0 00-3.2 4.22 16.33 16.33 0 00-.88 2 18.77 18.77 0 00-.66 2.33 14.41 14.41 0 00-.28 2.62 20.44 20.44 0 00.17 3c.14 1.03.33 2.11.57 3.25z"/><path class="cls-44" d="M104.7 219.05a17.6 17.6 0 01.24-2.35 17.79 17.79 0 01.57-2.48 14.43 14.43 0 011.27-2.87 21.5 21.5 0 012.17-3 19.31 19.31 0 012.18-2.15 19.44 19.44 0 016.16-3.44 26 26 0 014.09-1 5.26 5.26 0 00-2.47-.93 10.35 10.35 0 00-3.59.16 11.9 11.9 0 00-4 1.65 13.77 13.77 0 00-3.74 3.57 14.35 14.35 0 00-1.14 1.84 17.32 17.32 0 00-1 2.17 14.29 14.29 0 00-.64 2.54 20.83 20.83 0 00-.22 2.95c0 1.06.03 2.17.12 3.34z"/><path class="cls-44" d="M96.31 217.68a19.8 19.8 0 01.27-2.66 20.73 20.73 0 01.65-2.81 15.66 15.66 0 011.44-3.21 23.31 23.31 0 012.45-3.37 21.9 21.9 0 012.47-2.43 22.08 22.08 0 017-3.9 29.42 29.42 0 014.64-1.15 6 6 0 00-2.8-1.06 12.23 12.23 0 00-4.08.18 13.59 13.59 0 00-4.55 1.88 15.53 15.53 0 00-4.23 4 17.2 17.2 0 00-1.3 2.09 21.44 21.44 0 00-1.09 2.46 16 16 0 00-.73 2.88 23.16 23.16 0 00-.25 3.34c-.03 1.18.01 2.44.11 3.76zm25.6 14.48a27.13 27.13 0 01-.07-2.91 29 29 0 01.2-3 20.36 20.36 0 01.73-3.51 26.25 26.25 0 011.48-3.73 24 24 0 011.64-2.86 21.07 21.07 0 012.35-2.85 22.68 22.68 0 013.38-2.81 29.25 29.25 0 014.81-2.64 6.28 6.28 0 00-3.35-.42 11.86 11.86 0 00-4.19 1.32 13.19 13.19 0 00-3.81 3.08 15.76 15.76 0 00-2.8 4.94 20.9 20.9 0 00-.67 2.31 24.36 24.36 0 00-.46 2.61 19.28 19.28 0 00-.13 3c0 1.07.13 2.22.29 3.47s.36 2.56.6 4zm61.28 19.12a20.88 20.88 0 01-1.1-2.56 22.26 22.26 0 01-.84-2.91 17.93 17.93 0 01-.38-3.85 30.51 30.51 0 01.42-4.66 29.82 29.82 0 01.9-3.91 32 32 0 014.16-8.73 37 37 0 013.67-4.58 6.25 6.25 0 00-3.21 1 15 15 0 00-3.65 3.2 19.93 19.93 0 00-3.11 5.16 21.89 21.89 0 00-1.59 6.77 23.19 23.19 0 000 2.77 21.72 21.72 0 00.33 2.93 15.89 15.89 0 00.86 3 23.59 23.59 0 001.51 3.08c.59 1.09 1.27 2.17 2.03 3.29zm-12.45-2a22.08 22.08 0 01-.86-2.79 23.13 23.13 0 01-.53-3.09 17.87 17.87 0 01.07-3.91 29.78 29.78 0 011-4.56 26.91 26.91 0 011.48-3.7 29 29 0 012.26-3.86 31.53 31.53 0 013.27-4 34.78 34.78 0 014.48-3.87 6.36 6.36 0 00-3.35.46 14.66 14.66 0 00-4.14 2.53 19.11 19.11 0 00-3.9 4.51 20.73 20.73 0 00-2.63 6.34 19.83 19.83 0 00-.45 2.74 23.74 23.74 0 00-.09 2.95 16.33 16.33 0 00.47 3.16 22.89 22.89 0 001.15 3.38c.53 1.21 1.11 2.43 1.77 3.71zm-10-3.49a22.55 22.55 0 01-1-5.53 18.09 18.09 0 01.22-3.72 27.94 27.94 0 011.12-4.3 25.75 25.75 0 011.47-3.44 26.51 26.51 0 015.15-7 33.82 33.82 0 013.93-3.29 5.79 5.79 0 00-3 .35 13.49 13.49 0 00-3.73 2.14 16.63 16.63 0 00-3.59 3.91 18.55 18.55 0 00-2.55 5.78 19.68 19.68 0 00-.49 2.56 22.89 22.89 0 00-.17 2.8 16.93 16.93 0 00.31 3 23 23 0 00.92 3.23c.4 1.17.87 2.32 1.41 3.51zm156.11-57.09a11.79 11.79 0 000-1.45 8.87 8.87 0 00-.17-1.45 5.06 5.06 0 00-.58-1.52 6.73 6.73 0 00-1.18-1.36 6.44 6.44 0 00-1.29-.86 7.43 7.43 0 00-1.67-.58 8.49 8.49 0 00-2.08-.18 12.38 12.38 0 00-2.49.33 4.53 4.53 0 011.45-1.24 7.17 7.17 0 012.22-.74 6.21 6.21 0 012.53.14 5 5 0 012.3 1.37 4.85 4.85 0 01.64.88 6.09 6.09 0 01.49 1.12 6.26 6.26 0 01.21 1.47 12.39 12.39 0 01-.09 1.86c-.05.68-.14 1.42-.29 2.21zm6.75-11.85a5.5 5.5 0 00.21-.72 3.31 3.31 0 00.1-.74 2.53 2.53 0 00-.12-.85 3.6 3.6 0 00-.48-.84 4.2 4.2 0 00-.59-.61 4.84 4.84 0 00-.84-.53 6.66 6.66 0 00-1.13-.44 10.28 10.28 0 00-1.44-.32 2.66 2.66 0 011-.27 4.92 4.92 0 011.32 0 3.9 3.9 0 011.37.47 2.72 2.72 0 011.06 1 2.85 2.85 0 01.24.53 3.06 3.06 0 01.12.63 2.91 2.91 0 01-.05.76 6 6 0 01-.28.9c-.15.32-.31.66-.49 1.03zM99.48 188s-24.31.34-36.47 17.28c10.66-19.1 22.85-22.5 36.47-17.28z"/><path class="cls-44" d="M105.1 190.83a49.35 49.35 0 00-11.66 2.67 37.21 37.21 0 00-6.63 3.06 19.78 19.78 0 00-3.14 2.33 22 22 0 00-2.76 3.05 26.61 26.61 0 00-2.36 3.73 36 36 0 00-1.94 4.33c.46-1.7.93-3.29 1.43-4.79a40.28 40.28 0 011.61-4.12 22.78 22.78 0 014-6.13 17 17 0 014.84-3.59 18.65 18.65 0 015.27-1.7 24.15 24.15 0 0111.34 1.16z"/><path class="cls-44" d="M111 193.4a41.51 41.51 0 00-9.25 3.3 32 32 0 00-5.15 3.13 17.38 17.38 0 00-2.34 2.17 19 19 0 00-2 2.74A23.51 23.51 0 0090.6 208a28.33 28.33 0 00-1.26 3.71c.25-1.42.52-2.76.82-4a32.23 32.23 0 011-3.49 19.43 19.43 0 012.77-5.35 14.71 14.71 0 013.67-3.38 15.74 15.74 0 014.14-1.89 19.69 19.69 0 019.26-.2zm-11.48-4.77s-15.73-10.94-41.39 9.8c2.87-8.04 23.71-26.24 41.39-9.8z"/><path class="cls-44" d="M89.34 181.9s-1.07-.14-3-.24c-.94 0-2.11-.09-3.48-.11s-2.94 0-4.66.08-3.58.2-5.5.42-3.9.53-5.87.94a55.89 55.89 0 00-5.81 1.55 46.59 46.59 0 00-5.66 2.25A37.55 37.55 0 0045 194a65.86 65.86 0 015.29-6 45.84 45.84 0 015.28-4.5 35.31 35.31 0 015.3-3.17 27.81 27.81 0 015.44-1.94 28.2 28.2 0 015.76-.73 32.32 32.32 0 016 .42 36.51 36.51 0 015.85 1.45 38.84 38.84 0 015.42 2.37z"/><path class="cls-44" d="M85.81 180.53a28.24 28.24 0 00-7.41-3.1 40.31 40.31 0 00-5.46-1.11 44.8 44.8 0 00-6.77-.37 46.54 46.54 0 00-8 .9c-1.42.29-2.9.64-4.41 1.08s-3.07 1-4.67 1.57-3.23 1.31-4.91 2.12-3.39 1.71-5.14 2.73c2-1.77 4-3.42 6-4.91a61.13 61.13 0 016.06-4 42.33 42.33 0 016.06-2.91 29.54 29.54 0 016-1.63 22.52 22.52 0 015.85-.14 21.59 21.59 0 015.73 1.47 25.79 25.79 0 015.6 3.18 34.54 34.54 0 015.47 5.12z"/><path class="cls-44" d="M77.8 173.33s-1.62-.63-4.25-1.38c-1.31-.37-2.87-.76-4.59-1.09a40.24 40.24 0 00-11.6-.6 34.9 34.9 0 00-6.1 1.1 26.88 26.88 0 00-5.84 2.36 23.43 23.43 0 00-5.31 4 49.22 49.22 0 014.41-5.2 30.26 30.26 0 014.39-3.72 21.42 21.42 0 014.48-2.39A17.5 17.5 0 0158 165.3a18.47 18.47 0 014.69.14 21 21 0 014.83 1.43 35.63 35.63 0 015 2.7 61.27 61.27 0 015.28 3.76z"/><path class="cls-44" d="M72.34 169.54s-1.17-.6-3.11-1.36c-1-.38-2.14-.8-3.44-1.21s-2.74-.81-4.28-1.14a37.22 37.22 0 00-4.88-.7 29.56 29.56 0 00-5.15 0 22.31 22.31 0 00-5.09 1.08 18.06 18.06 0 00-4.75 2.46 34.65 34.65 0 014.12-3.54 23.56 23.56 0 014-2.37 18.19 18.19 0 014-1.29 14.6 14.6 0 013.88-.25 15 15 0 013.78.75 19.22 19.22 0 013.68 1.69 30 30 0 013.62 2.55 45 45 0 013.62 3.33z"/><path class="cls-44" d="M65 163.1s-.94-.48-2.5-1.09c-.78-.3-1.72-.64-2.76-1s-2.21-.65-3.45-.92a31.42 31.42 0 00-3.91-.57 23.87 23.87 0 00-4.14 0 17.53 17.53 0 00-4.1.87 14.34 14.34 0 00-3.82 2 28.52 28.52 0 013.31-2.85 18.3 18.3 0 013.24-1.9 13.81 13.81 0 013.19-1 11.77 11.77 0 013.12-.21 12.34 12.34 0 013 .61 15.3 15.3 0 012.95 1.36 22.86 22.86 0 012.92 2.05A34.74 34.74 0 0165 163.1zm-7.44-6.81s-.65-.41-1.74-.95c-.55-.27-1.2-.57-1.93-.88s-1.56-.61-2.43-.88a23.22 23.22 0 00-2.79-.67 18.22 18.22 0 00-3-.25 13.06 13.06 0 00-3 .36 9.92 9.92 0 00-2.83 1.17 19.13 19.13 0 012.51-1.83 13.48 13.48 0 012.41-1.15 9.61 9.61 0 012.34-.53 8.88 8.88 0 012.25 0 9.15 9.15 0 012.15.64 11.53 11.53 0 012.06 1.17 18.42 18.42 0 012 1.66 26.56 26.56 0 012 2.14z"/><circle cx="200.68" cy="142.71" r="53.95" transform="rotate(-32.82 200.68 142.717)" fill="url(#Г…ГӮГҒ_ГҸ_ГҢГҢ_ГҲ_ГӢГӮГҢГҡ_135)"/><path d="M149.26 126.35c.15-.48.32-1 .49-1.44a13.81 13.81 0 014.82 1.76 95.67 95.67 0 00-5.31-.32zm-1.94 24.32c.93-.11 1.87-.21 2.79-.34a11.12 11.12 0 00-2.72.81c.17 1.1.38 2.18.62 3.24 2.7-1.14 7.62-3.53 7.87-3.4a30.36 30.36 0 00-8.85-2.55c.08.75.18 1.5.29 2.24zm17.22 19a87.34 87.34 0 00-9.07 2.48q1.38 2.1 2.94 4.07a40.75 40.75 0 006.13-6.56zm-13-4.61q1 2.19 2.17 4.26a9 9 0 002.69-3.95 13.57 13.57 0 00-4.82-.32zm-.24-28.6a13.55 13.55 0 00-3.81-3q-.41 2.33-.6 4.71a8.91 8.91 0 004.45-1.72zm-2.76 20.29c.14.5.27 1 .42 1.47 1.51-1 3-1.88 4.58-2.75a13.94 13.94 0 00-4.96 1.27zm32-64.1c-1.56.63-3.08 1.32-4.56 2.09a40.24 40.24 0 005.2 7.26 91.67 91.67 0 00-.59-9.36zm-8.21 4.14c.47.8.93 1.63 1.4 2.42A10.38 10.38 0 00172 97c-.93.59-1.84 1.2-2.73 1.84 2.11 2 6.21 5.62 6.2 5.89a30.67 30.67 0 00-1.12-9.13c-.68.4-1.35.78-1.97 1.18zM151.74 120c.84.42 1.67.85 2.5 1.25a10.54 10.54 0 00-2.69-.82c-.45 1-.88 2-1.27 3 2.88.54 8.28 1.26 8.42 1.49a30.11 30.11 0 00-6-7c-.3.72-.64 1.39-.96 2.08zm3.85 24.58a91 91 0 00-8.83-3.06v1.2c0 1.28.06 2.55.15 3.81a40.32 40.32 0 008.68-1.96zm17.24 44.35q2.05 1.25 4.23 2.3a9.06 9.06 0 000-4.84 13.43 13.43 0 00-4.23 2.53zM205.59 89c-.75-.06-1.5-.13-2.26-.16-.08.94-.16 1.89-.22 2.82a10.63 10.63 0 00-.26-2.83c-.72 0-1.44-.06-2.17-.06h-1.13c.58 2.87 1.95 8.17 1.78 8.39a30.33 30.33 0 004.26-8.16zm-25.54 103.57c1.55.64 3.14 1.22 4.76 1.71a40.38 40.38 0 001.35-8.94 87.45 87.45 0 00-6.11 7.23zm8.8 2.77c.24-.94.49-1.88.71-2.81a10.83 10.83 0 00-.22 2.93c1.07.23 2.16.43 3.25.59-.09-2.9-.56-8.49-.35-8.68a30.85 30.85 0 00-5.62 7.43c.74.2 1.48.37 2.23.54zm-27.46-89.58q-1.62 1.72-3.09 3.59a8.82 8.82 0 004.62 1 13.71 13.71 0 00-1.53-4.59zm32.79 90.5c.51.06 1 .12 1.53.16-.33-1.78-.62-3.57-.85-5.37a14 14 0 00-.68 5.21zM187 94.9a13.56 13.56 0 001.25-4.69c-1.56.36-3.08.79-4.59 1.29a9 9 0 003.34 3.4zm8.51-5.9c.64 1.67 1.25 3.34 1.79 5a13.76 13.76 0 00-.3-5.1c-.48.03-1 .1-1.49.1zM162 119.45a89 89 0 00-5.68-7.42c-.95 1.37-1.83 2.78-2.66 4.24a40.66 40.66 0 008.34 3.18zm4.77-18.68c1.44 1 2.86 2.08 4.24 3.18a13.67 13.67 0 00-3.01-4.12c-.45.31-.85.62-1.24.94zm-1.08 83l1.18 1c.71-1.65 1.44-3.29 2.24-4.89a13.86 13.86 0 00-3.43 3.87zm84.38-45.53a13.52 13.52 0 004.51 2.14c-.07-1.64-.22-3.25-.43-4.84a9.1 9.1 0 00-4.09 2.68zm1-14.8c-.92.32-1.86.64-2.77 1a10.87 10.87 0 002.58-1.45c-.4-1-.83-2-1.3-3-2.37 1.67-6.78 5.15-7.06 5.08a30.62 30.62 0 009.33.6c-.26-.81-.51-1.53-.79-2.25zm-30.87-31c-1.48-.58-3-1.09-4.54-1.54a8.89 8.89 0 00.82 4.73 13.38 13.38 0 003.71-3.21zm2.8 99.4q2.22-1 4.33-2.2a9.23 9.23 0 00-4-2.79 13.62 13.62 0 00-.33 4.99zm11.18-6.84a41 41 0 00-6.63-6.22 90.33 90.33 0 002.51 9.19q2.13-1.41 4.12-2.97zm19.14-30.49c-1-.24-1.92-.5-2.87-.73a10.5 10.5 0 003 .22c.23-1.07.43-2.15.59-3.24-2.89.08-8.54.54-8.73.34a30.73 30.73 0 007.47 5.65c.22-.75.37-1.51.54-2.26zm-22.69-45.41a88 88 0 008.45-4.25q-1.77-1.8-3.71-3.42a40.49 40.49 0 00-4.74 7.65zM203 196.6c1.63-.07 3.23-.21 4.82-.42a9.06 9.06 0 00-2.69-4.07 13.3 13.3 0 00-2.13 4.49zm34.37-14.34L235.4 180a10.53 10.53 0 002.33 1.86c.8-.75 1.57-1.53 2.32-2.33-2.42-1.57-7.33-4.38-7.37-4.66a30.29 30.29 0 002.95 8.88c.58-.46 1.16-.97 1.72-1.49zm-76.22-2.87c.71-.63 1.44-1.25 2.13-1.88a10.78 10.78 0 00-1.8 2.23c.76.8 1.54 1.58 2.34 2.33 1.58-2.46 4.32-7.25 4.59-7.29a30.32 30.32 0 00-8.77 2.91c.47.58.97 1.14 1.49 1.7zm50.61 16.13l1.13-.26q-.47-1.26-1-2.52c-.11-.26-.21-.52-.32-.77a6.76 6.76 0 01.17 3.55zm38.8-32.2q1-2.34 1.72-4.79a41 41 0 00-9-1.38 88.76 88.76 0 007.26 6.17zm-6.38-32.13a86.26 86.26 0 009.45 1.11 50.45 50.45 0 00-1.21-4.92 40.92 40.92 0 00-8.26 3.81zm2.73 39.37q1.25-2.09 2.33-4.28c-2-.4-3.81-.5-4.93 0a13.38 13.38 0 002.58 4.28zm-34.44-80.5c-1.63-.36-3.28-.64-5-.86a40.68 40.68 0 00.17 9 89 89 0 004.81-8.14zm19.62 8.79c-.58.76-1.18 1.52-1.74 2.28a10.58 10.58 0 001.33-2.57c-.9-.63-1.81-1.25-2.75-1.82-1.06 2.71-2.81 8-3.07 8.08a30.39 30.39 0 008-4.61c-.57-.46-1.17-.92-1.79-1.36zm22.16 50.3c.06-.51.12-1 .16-1.54-1.79.33-3.6.62-5.41.85a14 14 0 005.23.69zm-38.07 45.24c-1-1.54-1.93-3.1-2.82-4.7a14.22 14.22 0 001.33 5.13zm23.26-82.69a13.68 13.68 0 004.9-.69q-1.42-2-3-3.77a9 9 0 00-1.92 4.46zm2.31 66c.34-.4.67-.79 1-1.2a83.33 83.33 0 01-5-2.28 14.1 14.1 0 003.98 3.47zm-13.6-81.42l-1.33-.77c-.42 1.76-.87 3.5-1.39 5.22a14 14 0 002.7-4.46zm16 24.56a13.76 13.76 0 004.73-2.3c-.23-.46-.46-.92-.7-1.37a87.453 87.453 0 01-4.01 3.66z" fill="#03346b" opacity=".27"/><path d="M212.13 178.66a18.79 18.79 0 01-3.29-5.88c-.51-1.55-1.5-3.11-1.52-4.79a87.6 87.6 0 008.22 11.68c-.6-4-4-9.15-2.86-13.21 2.21.43 5.62 6.09 7.41 7.84-2.66-3.23-4.2-8.19-5.08-12.23 3.63 2.58 5.92 6.89 9.72 9.52-3.14-2.05-6.43-7.79-6.94-11.6 0 .18 4 2.43 4.63 3 1.78 1.58 3.49 3.22 5.29 4.78 3.56 3.09 7.22 6.08 10.57 9.41-3.48-2.78-7-5.5-10.36-8.43a26.93 26.93 0 00-4-3.17c-1.44-.85-3.49-1.51-4.64-2.78a104.3 104.3 0 0114.25 19.93c-3.51-1.16-7.35-6.27-10.14-8.73-2.45-2.16-3.82-5.26-6.15-7.42 1.72 4.42 4.39 8.75 6.33 13.14 1.18 2.67 1.06 4.94 1.67 7.71-1.77-5.76-6.86-10.12-9.85-15.24 2.4 5.75 2 12.74 2.36 18.81a35 35 0 00-5.62-12.34zm17.39-20.18c5.37 2.53 12 3.24 16.75 7-2.07-1.95-3.26-3.88-5.74-5.41-4.08-2.52-8.74-4.58-12.65-7.25 3.14.46 6 2.24 9.27 2.63 3.69.45 9.74 2.49 13.3 1.45a105 105 0 00-23-8.36c1.67.4 3.73-.21 5.4-.33a26.82 26.82 0 015.12.34c4.42.52 8.86.76 13.3 1.08-4.64-.84-9.35-1.24-14-1.77-2.36-.27-4.7-.64-7.06-.94-.81-.11-5.38.31-5.51.17 2.58 2.85 8.55 5.72 12.3 5.63-4.63 0-8.95-2.27-13.4-2.34 3 2.83 7.08 6 11.1 7.2-2.46-.42-8.48-3.16-10.54-2.27 1.39 4 7.09 6.34 9.84 9.27a87.2 87.2 0 01-13.39-5c1 1.37 2.67 2.09 4 3.08a18.69 18.69 0 006 3 35.1 35.1 0 0111.58 7c-3.8-4.81-7.43-10.8-12.67-14.18zm22.3-13.88c-5.76-1.93-12.09-4.91-18.32-4.84 5.86-.86 11.81-3.94 17.81-3.43-2.79-.48-4.85-1.43-7.77-1.34-4.79.15-9.81 1-14.55.95 2.87-1.36 6.26-1.47 9.19-2.93 3.32-1.66 9.49-3.31 11.88-6.13a104.28 104.28 0 00-23.82 5.75c1.61-.59 3-2.24 4.32-3.26a27.41 27.41 0 014.45-2.54c4-2 7.81-4.27 11.69-6.45-4.34 1.86-8.48 4.13-12.68 6.28-2.12 1.08-4.28 2.06-6.41 3.11-.73.36-4.31 3.23-4.49 3.18 3.72 1 10.28.05 13.35-2.09-3.86 2.54-8.71 3-12.46 5.45 4.08.69 9.25 1.13 13.24-.13-2.29 1-8.82 2-10.05 3.94 3.36 2.54 9.42 1.36 13.33 2.29a87.81 87.81 0 01-13.91 3.25c1.56.61 3.38.27 5 .38a18.65 18.65 0 006.68-.85 35.15 35.15 0 0113.52-.59zm-7.36-28.67c-5.88 1.56-12.81 2.56-18 6 4.42-4 7.69-9.8 13-12.67-2.6 1.14-4.84 1.48-7.23 3.16-3.92 2.77-7.63 6.25-11.62 8.81 1.65-2.71 4.42-4.67 6.05-7.5 1.86-3.22 6.11-8 6.54-11.67A104.79 104.79 0 00216.51 120c1-1.37 1.26-3.52 1.81-5.09a27.31 27.31 0 012.31-4.58c2.21-3.86 4.17-7.86 6.21-11.82-2.6 3.94-4.81 8.12-7.13 12.23-1.17 2.06-2.43 4.07-3.63 6.12-.41.71-1.82 5.08-2 5.14 3.64-1.26 8.61-5.63 10-9.11-1.83 4.25-5.59 7.35-7.4 11.41 3.78-1.66 8.34-4.15 11-7.4-1.35 2.1-6.23 6.57-6.21 8.82 4.2.27 8.61-4 12.38-5.43A87.46 87.46 0 01224 130.7c1.64-.35 3-1.64 4.39-2.44a18.62 18.62 0 005.11-4.4 35.29 35.29 0 0110.96-7.93zm-21.41-19.61c-4.1 4.49-9.38 9.08-11.83 14.81 1.58-5.71 1.16-12.4 4.05-17.68-1.56 2.37-3.27 3.86-4.36 6.57-1.79 4.45-3 9.39-5 13.7-.08-3.18 1.18-6.32 1-9.59-.19-3.71.8-10-.83-13.35a105 105 0 00-4.34 24.12c.11-1.71-.84-3.64-1.24-5.26a27.07 27.07 0 01-.53-5.1c-.24-4.45-.75-8.87-1.19-13.3 0 4.72.36 9.43.63 14.14.14 2.37.17 4.74.27 7.11 0 .82 1.22 5.25 1.1 5.4 2.37-3 4.19-9.39 3.47-13.07.77 4.57-.72 9.21 0 13.61 2.28-3.46 4.76-8 5.22-12.17 0 2.5-1.68 8.89-.45 10.78 3.68-2.05 5.05-8.07 7.47-11.27a87.46 87.46 0 01-2.63 14c1.19-1.18 1.61-3 2.37-4.43a19 19 0 001.92-6.46 35 35 0 014.9-12.56zm-24.42 19.87c.3-1.64-.36-3.37-.56-5a18.69 18.69 0 00-2.08-6.41 35.3 35.3 0 01-3.09-13.17c-.83 6-2.58 12.8-1.35 18.91-1.94-5.6-6.07-10.88-6.68-16.87 0 2.84-.5 5 .13 7.89 1 4.68 2.82 9.45 3.63 14.12-1.86-2.57-2.6-5.88-4.58-8.48-2.25-3-5-8.72-8.24-10.54A105 105 0 00185.89 119c-.87-1.47-2.76-2.52-4-3.63a27.74 27.74 0 01-3.33-3.9c-2.71-3.53-5.64-6.89-8.51-10.29 2.64 3.92 5.64 7.57 8.53 11.3 1.46 1.87 2.82 3.82 4.25 5.71.49.65 4 3.64 4 3.83.25-3.84-1.86-10.11-4.54-12.74 3.22 3.33 4.62 8 7.67 11.24-.07-4.14-.61-9.3-2.58-13 1.41 2.06 3.64 8.29 5.73 9.14 1.87-3.77-.41-9.51-.23-13.52a86.6 86.6 0 015.75 13.05zm-22.74-2.68a35.1 35.1 0 01-9.84-9.28c2.63 5.48 4.91 12.1 9.31 16.52-4.71-3.61-11.07-5.72-14.88-10.38 1.6 2.34 2.35 4.48 4.46 6.51 3.45 3.32 7.57 6.32 10.82 9.76-3-1.11-5.41-3.46-8.5-4.54-3.51-1.22-9-4.5-12.69-4.24a104.55 104.55 0 0020.74 13.06c-1.54-.74-3.69-.58-5.34-.82a26.35 26.35 0 01-4.93-1.42c-4.21-1.44-8.51-2.62-12.78-3.88 4.36 1.81 8.88 3.2 13.35 4.71 2.25.76 4.46 1.63 6.7 2.42.76.27 5.32.84 5.41 1-1.91-3.33-7.13-7.4-10.81-8.11 4.52 1 8.26 4.11 12.59 5.13-2.34-3.41-5.64-7.41-9.32-9.39 2.32.93 7.62 4.89 9.83 4.45-.52-4.18-5.6-7.7-7.66-11.15a88.39 88.39 0 0112 7.7c-.66-1.54-2.17-2.61-3.22-3.86a18.84 18.84 0 00-5.24-4.19zm-12.62 37c-4.31 1.11-8.55 2.5-12.8 3.8 4.64-.89 9.17-2.22 13.73-3.42 2.3-.61 4.62-1.1 6.93-1.67.78-.2 4.9-2.24 5.07-2.15-3.44-1.73-10-2.25-13.5-.81 4.32-1.66 9.16-1.12 13.34-2.66-3.84-1.55-8.79-3.08-13-2.71 2.45-.49 9-.11 10.65-1.69-2.73-3.2-8.91-3.35-12.52-5.09a88.36 88.36 0 0114.28-.21c-1.4-.92-3.25-1-4.81-1.44a18.9 18.9 0 00-6.72-.6 35 35 0 01-13.32-2.31c5.22 3.12 10.77 7.39 16.87 8.65-5.92-.41-12.39 1.33-18.14-.46 2.63 1.07 4.43 2.44 7.31 3 4.71.88 9.8 1.11 14.41 2.18-3.09.72-6.43.1-9.59.9-3.61.92-10 1.21-12.93 3.46a104.62 104.62 0 0024.5-.53c-1.69.23-3.4 1.55-4.91 2.26a27 27 0 01-4.85 1.46zM152 159.9c6.07-.37 13.06 0 18.8-2.39-5.11 3-9.47 8.09-15.22 9.87 2.77-.61 5-.5 7.71-1.68 4.38-1.94 8.71-4.62 13.12-6.34-2.14 2.33-5.25 3.71-7.41 6.16-2.45 2.79-7.56 6.63-8.71 10.15a104.38 104.38 0 0019.92-14.28c-1.27 1.15-1.93 3.2-2.78 4.64a27.15 27.15 0 01-3.17 4c-2.93 3.36-5.64 6.89-8.41 10.37 3.32-3.36 6.31-7 9.39-10.58 1.56-1.8 3.19-3.52 4.77-5.29.54-.61 2.79-4.62 3-4.64-3.81.51-9.55 3.81-11.59 7 2.63-3.81 6.93-6.1 9.5-9.73-4 .89-9 2.43-12.22 5.09 1.74-1.79 7.41-5.2 7.84-7.42-4.07-1.09-9.25 2.28-13.21 2.89a86.63 86.63 0 0111.67-8.26c-1.67 0-3.23 1-4.78 1.52a18.62 18.62 0 00-5.88 3.3A35.15 35.15 0 01152 159.9zm32.5 11.75c-2.52 5.37-3.23 12-7 16.75 1.94-2.07 3.87-3.26 5.4-5.75 2.52-4.08 4.56-8.74 7.23-12.65-.45 3.14-2.23 6-2.62 9.27-.45 3.69-2.48 9.75-1.43 13.3a104.86 104.86 0 008.33-23c-.4 1.66.22 3.73.34 5.39a26.77 26.77 0 01-.34 5.12c-.51 4.42-.74 8.87-1.06 13.31.84-4.65 1.23-9.36 1.75-14 .27-2.36.64-4.7.94-7.06.1-.81-.32-5.38-.18-5.5-2.85 2.58-5.71 8.55-5.62 12.3 0-4.63 2.26-8.95 2.33-13.41-2.83 3-6 7.1-7.19 11.12.42-2.46 3.15-8.49 2.25-10.55-4 1.4-6.33 7.1-9.25 9.85a88.16 88.16 0 014.94-13.39c-1.36 1-2.08 2.67-3.07 4a18.79 18.79 0 00-3 6 35 35 0 01-7 11.6c4.89-3.82 10.87-7.46 14.24-12.7zm12.44 2.09a18.88 18.88 0 00.86 6.68 35.15 35.15 0 01.61 13.51c1.92-5.76 4.9-12.1 4.82-18.33.87 5.87 4 11.81 3.45 17.81.47-2.79 1.42-4.85 1.33-7.78-.06-1.69-.4-3.39-.41-5.08 0-1.08.44-2.5.12-3.54a24.52 24.52 0 001.88 4.27c1.2 2.32 3.68 6.19 3.5 8.93 0-4-1.07-6.55-2.68-10.14-1.53-3.44-2.49-7-3.87-10.43l-.17-.42c.51 1.24-.29 3.16-.37 4.43a16.37 16.37 0 00.8 5.69c-1-2.28-2.05-8.81-3.94-10-2.54 3.37-1.36 9.42-2.28 13.33a87.49 87.49 0 01-3.27-13.9c-.62 1.52-.32 3.34-.39 4.97z" fill="#1fc9ed" opacity=".17"/><path d="M219.18 171.11a16.89 16.89 0 01-4.26-4.34c-.81-1.23-2-2.35-2.45-3.8a77.77 77.77 0 009.92 8.21c-1.47-3.31-5.62-7-5.63-10.82 2-.15 6.34 4 8.31 5.07-3.08-2.18-5.59-6.13-7.31-9.43 3.76 1.38 6.77 4.58 10.71 6-3.22-1-7.44-5.25-8.79-8.45.06.16 4.08 1.17 4.73 1.49 1.92 1 3.8 2 5.73 2.91 3.83 1.84 7.73 3.58 11.43 5.68-3.68-1.6-7.4-3.12-11-4.88a24.34 24.34 0 00-4.25-1.81c-1.45-.4-3.4-.48-4.69-1.32a94.65 94.65 0 0117.12 14c-3.34-.17-7.88-3.7-10.89-5.18-2.64-1.3-4.57-3.68-7.11-5 2.54 3.44 5.89 6.57 8.61 9.93 1.66 2 2.1 4 3.28 6.31-2.9-4.59-8.36-7.18-12.17-10.92 3.44 4.43 4.76 10.6 6.51 15.8a31.56 31.56 0 00-7.8-9.45zm10.35-21.67c5.26.92 11.23 0 16.22 2.1-2.26-1.2-3.75-2.59-6.28-3.34-4.14-1.23-8.68-1.91-12.72-3.3 2.84-.36 5.78.51 8.69.09 3.32-.49 9.07-.15 11.91-1.9a94.44 94.44 0 00-22-1.81c1.54-.05 3.19-1.07 4.61-1.57a24.4 24.4 0 014.53-.91c4-.6 7.89-1.45 11.83-2.22-4.24.37-8.43 1.14-12.63 1.79-2.12.33-4.25.55-6.37.85-.72.1-4.6 1.55-4.75 1.46 2.92 1.86 8.79 2.95 12 2-4 1.09-8.32.15-12.21 1.14 3.3 1.75 7.6 3.58 11.37 3.64-2.24.21-8.13-.75-9.71.52 2.15 3.13 7.67 3.84 10.76 5.73a80.08 80.08 0 01-12.78-1.16c1.16 1 2.82 1.18 4.18 1.74a16.82 16.82 0 006 1.16 31.66 31.66 0 0111.73 3.32c-4.45-3.29-9.03-7.63-14.38-9.33zm16.11-17.36c-5.47-.32-11.69-1.41-17.09.13 4.9-2.14 9.34-6.23 14.68-7.21-2.54.25-4.56-.09-7.08.68-4.13 1.27-8.29 3.2-12.42 4.27 2.17-1.86 5.09-2.76 7.29-4.72 2.5-2.24 7.48-5.13 8.89-8.15a94 94 0 00-19.36 10.64c1.26-.89 2.07-2.66 3-3.85a24.64 24.64 0 013.27-3.27c3-2.69 5.79-5.56 8.64-8.38-3.33 2.65-6.4 5.6-9.54 8.47-1.59 1.44-3.24 2.8-4.84 4.22-.55.49-3 3.83-3.16 3.84 3.47-.06 9-2.39 11.13-5-2.76 3.13-6.86 4.72-9.55 7.69 3.71-.36 8.31-1.21 11.48-3.24-1.75 1.41-7.19 3.86-7.8 5.8 3.52 1.41 8.51-1 12.13-1.17A78.28 78.28 0 01224 139c1.51.16 3-.56 4.45-.85a17.1 17.1 0 005.62-2.33 31.61 31.61 0 0111.57-3.74zm-13.2-23.2c-4.74 2.75-10.53 5.26-14.19 9.52 2.91-4.48 4.36-10.34 8.28-14.1-2 1.61-3.85 2.43-5.53 4.47-2.75 3.33-5.16 7.24-8 10.41.79-2.75 2.73-5.11 3.48-8 .86-3.24 3.42-8.4 2.93-11.7a94.28 94.28 0 00-10.29 19.55c.56-1.44.26-3.36.36-4.86a24.8 24.8 0 01.93-4.53c1-3.88 1.77-7.83 2.6-11.75-1.33 4-2.26 8.2-3.3 12.32-.53 2.08-1.15 4.13-1.71 6.19-.19.71-.38 4.85-.52 4.94 2.86-1.95 6.15-6.93 6.54-10.29-.59 4.13-3.12 7.72-3.74 11.68 2.9-2.34 6.27-5.58 7.8-9-.68 2.14-3.87 7.18-3.32 9.14 3.72-.76 6.53-5.56 9.48-7.66a78.93 78.93 0 01-6.07 11.36c1.34-.7 2.19-2.13 3.24-3.17a16.84 16.84 0 003.4-5 31.61 31.61 0 017.63-9.52zm-23.27-12c-2.5 4.87-6 10.12-6.78 15.68 0-5.34-1.93-11.06-.67-16.34-.8 2.43-1.92 4.14-2.23 6.76-.51 4.29-.42 8.88-1.11 13.09-.82-2.74-.47-5.78-1.38-8.58-1-3.19-1.68-8.91-3.88-11.42a94.67 94.67 0 001.94 22c-.31-1.51-1.6-3-2.32-4.29a24.09 24.09 0 01-1.68-4.31c-1.25-3.81-2.75-7.53-4.18-11.28 1.08 4.12 2.55 8.12 3.9 12.15.68 2 1.26 4.09 1.92 6.13.22.69 2.3 4.27 2.23 4.43 1.35-3.19 1.43-9.16-.07-12.19 1.75 3.79 1.55 8.18 3.18 11.84 1.17-3.54 2.25-8.09 1.66-11.82.59 2.18.64 8.14 2.17 9.49 2.71-2.66 2.47-8.22 3.82-11.58a77.59 77.59 0 011 12.84c.75-1.31.7-3 1-4.42a16.71 16.71 0 00.14-6.07 31.42 31.42 0 011.34-12.09zM192.63 120c-.12-1.51-1.11-2.85-1.66-4.21a16.9 16.9 0 00-3.33-5.09 31.5 31.5 0 01-5.81-10.7c.71 5.44.79 11.75 3.3 16.77-3-4.41-7.85-8-9.8-13.09.71 2.46.75 4.5 2 6.83 2 3.83 4.69 7.56 6.51 11.42-2.24-1.79-3.66-4.5-6-6.29-2.66-2-6.43-6.39-9.66-7.21a95.15 95.15 0 0014.05 17c-1.1-1.08-3-1.54-4.34-2.22a24.29 24.29 0 01-3.82-2.6c-3.19-2.43-6.54-4.65-9.83-6.94 3.22 2.79 6.69 5.25 10.09 7.81 1.71 1.29 3.36 2.65 5.05 4 .58.44 4.32 2.22 4.35 2.38-.69-3.39-4-8.35-7-10 3.58 2.13 5.91 5.86 9.33 8-1-3.58-2.73-7.94-5.32-10.68 1.71 1.46 5.13 6.35 7.15 6.6.73-3.73-2.61-8.18-3.4-11.71a79.77 79.77 0 018.14 9.93zm-20.41 3a31.57 31.57 0 01-10.76-5.73c3.59 4.14 7.14 9.36 12 12.15-4.95-2-11-2.35-15.4-5.49 2 1.65 3.11 3.33 5.42 4.6 3.79 2.07 8.08 3.7 11.73 5.92-2.85-.26-5.53-1.73-8.47-1.93-3.35-.23-8.89-1.78-12-.68a94.19 94.19 0 0021.13 6.44c-1.52-.28-3.35.38-4.84.56a23.91 23.91 0 01-4.63-.07c-4-.26-8-.26-12-.34 4.22.54 8.48.67 12.73.93 2.14.13 4.26.36 6.4.52.73 0 4.83-.54 4.95-.42-2.46-2.44-8-4.75-11.34-4.49 4.17-.2 8.17 1.62 12.18 1.48-2.85-2.41-6.66-5.11-10.34-6 2.24.27 7.78 2.46 9.6 1.55-1.44-3.51-6.69-5.37-9.3-7.88a79.63 79.63 0 0112.3 3.84c-.94-1.19-2.5-1.76-3.72-2.59a16.86 16.86 0 00-5.64-2.37zM170 158.16c-3.48 2-6.83 4.2-10.23 6.35 3.83-1.88 7.45-4.11 11.14-6.24 1.85-1.07 3.76-2.05 5.62-3.09.64-.36 3.74-3.11 3.91-3.08-3.4-.68-9.26.43-11.94 2.5 3.37-2.47 7.71-3.15 11-5.48-3.71-.43-8.38-.59-11.92.72 2-1 7.85-2.24 8.87-4-3.14-2.13-8.54-.8-12.1-1.45a79.62 79.62 0 0112.37-3.57c-1.43-.47-3.05-.09-4.53-.11a17 17 0 00-6 1.07 31.74 31.74 0 01-12.19 1.15c5.28 1.48 11.12 3.87 16.73 3.52-5.25 1.05-10.46 4.09-15.89 3.9 2.54.3 4.44 1.07 7.06.85 4.31-.35 8.79-1.36 13.06-1.52-2.52 1.36-5.57 1.61-8.14 3.06-2.92 1.65-8.4 3.41-10.42 6.07a94.08 94.08 0 0021.18-6.27c-1.42.6-2.58 2.16-3.73 3.13a24.16 24.16 0 01-3.85 2.49zM162.42 169c5.19-1.76 11.36-3.08 15.79-6.53-3.73 3.82-6.32 9.28-10.9 12.19 2.26-1.19 4.26-1.63 6.3-3.29 3.36-2.73 6.49-6.09 9.92-8.63-1.32 2.54-3.69 4.47-5 7.12-1.47 3-5 7.56-5.17 10.89a94.19 94.19 0 0013.94-17.13c-.83 1.29-.92 3.24-1.32 4.69a24 24 0 01-1.8 4.26c-1.75 3.61-3.27 7.32-4.86 11 2.09-3.71 3.83-7.6 5.67-11.44.92-1.93 1.94-3.81 2.89-5.73.33-.65 1.33-4.67 1.49-4.74-3.2 1.36-7.41 5.58-8.44 8.8 1.38-3.93 4.58-6.95 6-10.71-3.3 1.72-7.25 4.24-9.42 7.32 1.09-2 5.21-6.28 5.05-8.31-3.79 0-7.5 4.16-10.81 5.64a80.17 80.17 0 018.2-9.94c-1.45.42-2.57 1.66-3.8 2.46a17.05 17.05 0 00-4.33 4.27 31.55 31.55 0 01-9.4 7.81zm31.05 2.52c-.91 5.27.05 11.23-2.08 16.22 1.19-2.26 2.59-3.75 3.34-6.28 1.22-4.14 1.89-8.68 3.28-12.72.36 2.84-.51 5.77-.08 8.69.49 3.31.16 9.06 1.91 11.9a94.42 94.42 0 001.78-22c0 1.54 1.08 3.19 1.58 4.61a24.42 24.42 0 01.92 4.53c.6 4 1.45 7.89 2.23 11.83-.37-4.24-1.15-8.43-1.8-12.63-.33-2.12-.56-4.25-.86-6.37-.11-.72-1.55-4.6-1.46-4.74-1.87 2.92-2.94 8.79-2 12-1.09-4-.16-8.33-1.16-12.21-1.74 3.29-3.57 7.6-3.62 11.37-.22-2.24.74-8.13-.54-9.71-3.12 2.16-3.82 7.68-5.71 10.76a77.81 77.81 0 011.16-12.77c-1 1.16-1.19 2.81-1.74 4.18a16.81 16.81 0 00-1.16 6 31.62 31.62 0 01-3.3 11.74c3.28-4.42 7.62-9.01 9.31-14.36zm11.32-1.13a17 17 0 002.34 5.61 31.81 31.81 0 013.72 11.61c.31-5.47 1.4-11.69-.15-17.09 2.15 4.89 6.24 9.34 7.22 14.67-.25-2.54.09-4.55-.68-7.08-.45-1.45-1.16-2.86-1.56-4.32-.26-.94-.22-2.28-.74-3.11a23 23 0 002.65 3.27c1.6 1.73 4.66 4.51 5.16 6.94-1-3.44-2.48-5.44-4.73-8.19s-3.82-5.48-5.84-8.15l-.25-.33c.74 1 .5 2.82.73 4a14.69 14.69 0 002.05 4.76c-1.42-1.75-3.88-7.19-5.82-7.8-1.41 3.52 1.06 8.51 1.18 12.13a80.22 80.22 0 01-6.14-11.31c-.15 1.48.57 3 .86 4.43z" fill="#21d8ff"/><path d="M184.57 109.94a2.6 2.6 0 00-.54-.59 40.54 40.54 0 002 7 15.81 15.81 0 01.68 2.35 21 21 0 00.32 2.11c-.91-.51-1.53-1.66-2.25-2.39a30.91 30.91 0 01-2.49-2.5 23.08 23.08 0 00-2.74-3 11.68 11.68 0 001.45 3c.67 1.16 1.4 2.26 2 3.45a19.83 19.83 0 012 4.4c-.66-.32-1.1-1.11-1.64-1.6-.82-.74-1.78-1.3-2.67-2-1.14-.86-2.11-1.89-3.25-2.75-.84-.64-1.76-1.17-2.61-1.8 0 .4.52.68.78 1 .48.54.91 1.14 1.37 1.69 1.06 1.27 2 2.61 3.08 3.83a12.58 12.58 0 011.89 2.52c.13.23.13.46.37.67a22.74 22.74 0 00-3.2-3.53c-1-1.13-2.24-2.21-3.16-3.42s-2.62-3.07-3-4.71a4.35 4.35 0 011.1.84c.68.54 1.39 1 2.08 1.57 1 .78 2 1.58 3 2.36 1.55 1.18 2.88 2.58 4.73 3.3a27.24 27.24 0 00-1.77-2.8c-.78-1.34-1.53-2.71-2.3-4-.5-.88-.83-1.83-1.34-2.73a13.57 13.57 0 01-1.46-3.39c1.28 1.62 2.61 3.27 4 4.81a33.51 33.51 0 002.81 2.78 31.48 31.48 0 012.7 2.84 14.33 14.33 0 00-.77-2.61c-.26-1-.66-1.91-1-2.87s-.68-2.13-1-3.22c-.21-.92-.42-1.85-.62-2.77a4.08 4.08 0 01-.22-1.88 19.57 19.57 0 002 3.4c1.08 1.28 2 2.69 3 4 .52.65 1.16 1.19 1.67 1.84s.62 1.39 1.05 2a36.5 36.5 0 00-2.77-3.2c-1-1.18-2.06-2.31-3.08-3.47.08-.12-.05-.33-.2-.53zm-19.26 10.27a25 25 0 008.47 4.52 13.45 13.45 0 014.41 1.89c.95.66 2.19 1.11 2.92 2a62.39 62.39 0 00-9.68-3c2 2 6.19 3.45 7.32 6.21-1.43.72-5.8-1-7.56-1.21 2.89.67 5.9 2.8 8.14 4.7-3.16.11-6.31-1.33-9.59-1.17 2.66-.2 7 1.61 8.93 3.54-.09-.09-3.32.37-3.9.33-1.68-.13-3.36-.31-5-.41-3.35-.2-6.7-.31-10-.74 3.16.07 6.32.07 9.48.28a19.27 19.27 0 003.64.05c1.18-.15 2.62-.66 3.82-.44a73.69 73.69 0 01-16.71-5.07c2.48-.86 6.85.36 9.48.54 2.32.16 4.44 1.32 6.68 1.52-2.87-1.75-6.26-3-9.24-4.67-1.82-1-2.74-2.32-4.28-3.62 3.49 2.48 8.24 2.74 12.14 4.33-3.85-2.2-6.64-6.32-9.47-9.58z" fill="#7de8ff"/><path d="M189.44 124.1a25.63 25.63 0 00-2.48 2.75 32.7 32.7 0 00-2.67 4 20.39 20.39 0 012.69-2.73 28 28 0 013.1-2.31c.73-.46 1.47-.9 2.23-1.3l.41-.21a9.59 9.59 0 011.4.47l-.29.25a43.87 43.87 0 00-3.41 3.41 82.38 82.38 0 00-3.34 3.89c1.15-1 2.28-2 3.37-2.87s2.15-1.69 3.19-2.42c.7-.48 1.38-.94 2.05-1.36.16.11.31.23.46.35-.38.31-.76.63-1.12 1a23.81 23.81 0 00-3.45 3.85 8.9 8.9 0 00-1.53 3.07l2-2c.66-.62 1.32-1.2 2-1.76 1.22-1 2.4-1.94 3.56-2.76q.18.21.33.42a24.36 24.36 0 00-4.15 7.94 20 20 0 015.13-6.26 9.25 9.25 0 11-9.5-5.4z" fill="#fff" opacity=".87"/></g></g></g></svg>