<svg width="380" height="233" fill="none" xmlns="http://www.w3.org/2000/svg"><path d="M378.52 134.289c-.73 2.68-3 4.38-6.53 2.6-19.4-3.2-24.43-2.34-37.79 6.12-33.28 32.21-93.48 52.69-159.31 40.41-65.83-12.28-113.53-58.8-113.53-58.8a120.185 120.185 0 01-14.66 5.76c.4 4.62 5.66 22.13 55.35 62 93.65 67.1 186.61 35.7 220.86 4.94 18.38-16.51 20.5-39.14 40.77-43.33 15.81-5.07 15.81-18.85 15.81-18.85l-.97-.85z" fill="url(#paint0_linear)"/><path d="M59.56 126.499a182.462 182.462 0 0014.13 12.74c2.46 2 4.92 4 7.45 5.88 2.53 1.88 5.07 3.79 7.66 5.62 5.15 3.69 10.49 7.11 16 10.34 2.69 1.68 5.48 3.19 8.27 4.71l4.18 2.29 4.27 2.13c5.65 2.91 11.53 5.38 17.4 7.87l9 3.29c3 1.11 6.11 1.88 9.16 2.84l4.61 1.36 4.68 1.07 4.69 1.08 2.35.53.58.14.72.12 1.16.19 9.24 1.52c3.11.49 6.41.73 9.6 1.1 1.61.16 3.23.37 4.83.48l4.8.23c3.2.11 6.39.41 9.6.3 3.21-.11 6.41-.08 9.61-.17l9.59-.71c3.2-.22 6.36-.77 9.55-1.14 3.19-.37 6.34-1 9.48-1.59l4.72-.93c1.57-.33 3.12-.78 4.67-1.16 3.1-.84 6.25-1.49 9.29-2.55 3.04-1.06 6.14-1.86 9.14-3 3-1.14 6-2.32 8.95-3.56l8.74-4.05 8.49-4.55c2.78-1.61 5.46-3.4 8.19-5.09 2.73-1.69 5.23-3.74 7.84-5.6 2.61-1.86 5-4.08 7.46-6.11 2.46-2.03 4.67-4.42 7-6.62l-.55.44c1.33-.91 2.66-1.82 4-2.67 1.34-.85 2.69-1.63 4-2.39a31.595 31.595 0 014.11-1.9 29.88 29.88 0 014.34-1.25 42.86 42.86 0 014.64-.62c1.59-.13 3.21-.18 4.85-.2H372a88.156 88.156 0 00-9.67-2.76 70.55 70.55 0 00-5-.86c-.86-.09-1.72-.17-2.6-.21-.88-.04-1.76-.07-2.65 0a25.691 25.691 0 00-5.36.7 36.276 36.276 0 00-5.13 1.62 83.291 83.291 0 00-9.2 4.7l-.1.06-.46.38c-2.33 2-4.61 4-7 5.85-2.39 1.85-4.86 3.64-7.37 5.35-2.51 1.71-5.09 3.31-7.7 4.85l-8 4.39-8.19 4-8.42 3.49c-2.84 1.06-5.73 2-8.58 3-2.85 1-5.81 1.77-8.71 2.68-2.9.91-5.88 1.5-8.82 2.24-1.48.34-2.95.73-4.44 1l-4.48.8c-3 .55-6 1.17-9 1.48-3 .31-6 .89-9 1.09l-9.1.67-9.12.18c-3 .16-6.08-.09-9.12-.14l-4.57-.15c-1.51-.07-3-.25-4.5-.38-3-.3-6-.45-9-.87l-9.27-1.38-1.16-.18h-.43l-.56-.12-2.23-.47-4.45-.95-4.47-1-4.39-1.23c-2.92-.87-5.9-1.54-8.78-2.57l-8.67-3c-5.7-2.19-11.43-4.35-17-7l-4.19-1.9-4.11-2.01c-2.74-1.38-5.5-2.74-8.16-4.28-5.41-2.93-10.67-6.12-15.89-9.39-2.61-1.65-5.21-3.3-7.74-5.07-2.53-1.77-5.07-3.51-7.56-5.33-4.94-3.67-9.88-7.44-14.46-11.45l-3.63 3.76z" fill="#FEE1D0"/><path d="M321.1 156.509c.102-.367.172-.742.21-1.12.04-.363.04-.728 0-1.09a2.927 2.927 0 00-.42-1.14 4.455 4.455 0 00-1-1 5.278 5.278 0 00-1.13-.68 9.243 9.243 0 00-1.53-.55 13.858 13.858 0 00-2-.36 17.995 17.995 0 00-2.39-.09 4.17 4.17 0 011.48-.65 9.485 9.485 0 014.57.06c.759.197 1.462.57 2.05 1.09.206.193.388.411.54.65.156.259.277.538.36.83.088.346.119.704.09 1.06a6.594 6.594 0 01-.27 1.37c-.13.47-.33 1.02-.56 1.62zm-6.93 10.33c.03-.493.03-.988 0-1.48a11.723 11.723 0 00-.16-1.53 6.003 6.003 0 00-.58-1.73 8.682 8.682 0 00-1.26-1.72 8.445 8.445 0 00-1.42-1.18 8.054 8.054 0 00-1.91-.91 8.687 8.687 0 00-2.5-.45 13.13 13.13 0 00-3.23.3 5.99 5.99 0 011.95-1.44 7.922 7.922 0 012.79-.75 6.778 6.778 0 013 .43 5.604 5.604 0 012.56 1.94c.268.358.493.748.67 1.16.201.45.359.919.47 1.4.113.562.167 1.136.16 1.71a16.55 16.55 0 01-.17 2c-.1.73-.23 1.47-.37 2.25zm-19.77 15.05c.24-.47.45-.954.63-1.45.191-.504.342-1.022.45-1.55a5.786 5.786 0 00.08-1.87 8.236 8.236 0 00-.56-2.02 8.068 8.068 0 00-1-1.65 9.752 9.752 0 00-1.68-1.65 13.615 13.615 0 00-2.51-1.55 20.85 20.85 0 00-3.37-1.25 6.636 6.636 0 012.53-.37c1.096.036 2.18.231 3.22.58a8.154 8.154 0 012.95 1.61 5.79 5.79 0 011.77 2.82c.12.437.194.887.22 1.34a8.44 8.44 0 01-.07 1.49 7.32 7.32 0 01-.46 1.66 13.283 13.283 0 01-.92 1.86c-.4.6-.82 1.28-1.28 2z" fill="#080808"/><path d="M301.31 177.869a9.89 9.89 0 00.35-1.49 9.413 9.413 0 00.12-1.59 6.44 6.44 0 00-.28-1.85 8.205 8.205 0 00-1-1.91 6.893 6.893 0 00-1.26-1.36 8.4 8.4 0 00-1.9-1.17c-.87-.381-1.779-.67-2.71-.86a27.87 27.87 0 00-3.68-.57 8.4 8.4 0 012.51-.86 12.64 12.64 0 013.23-.23 7.185 7.185 0 013.09.84 5.284 5.284 0 012.21 2.36c.192.408.346.833.46 1.27.116.486.193.981.23 1.48a8.712 8.712 0 01-.09 1.73 14.48 14.48 0 01-.48 2 22.49 22.49 0 01-.8 2.21zm5.28-5.94c.116-.444.203-.895.26-1.35.064-.474.094-.952.09-1.43a6.573 6.573 0 00-.21-1.67 8.413 8.413 0 00-.73-1.76 6.511 6.511 0 00-.93-1.31 6.21 6.21 0 00-1.42-1.18 6.734 6.734 0 00-2-.83 12.98 12.98 0 00-2.8-.29 5.141 5.141 0 011.89-1 6.295 6.295 0 012.46-.22 4.695 4.695 0 012.36 1 5.363 5.363 0 011.66 2.31c.143.374.257.758.34 1.15.082.436.135.877.16 1.32a8.994 8.994 0 01-.09 1.52 15.363 15.363 0 01-.38 1.76c-.25.63-.42 1.29-.66 1.98zM288 188.859c.122-.661.202-1.329.24-2 .05-.666.05-1.335 0-2a7.394 7.394 0 00-.6-2.3 12.438 12.438 0 00-1.62-2.54 14.97 14.97 0 00-1.94-2 16.762 16.762 0 00-2.73-1.9 18.246 18.246 0 00-3.63-1.52c-.7-.214-1.45-.404-2.25-.57-.8-.18-1.65-.33-2.54-.47a9.048 9.048 0 013.22-.83 15.59 15.59 0 014.27.18c1.541.276 3.015.846 4.34 1.68a10.514 10.514 0 013.38 3.45c.308.523.562 1.076.76 1.65.208.594.355 1.207.44 1.83a8.434 8.434 0 010 2.07 19.477 19.477 0 01-.5 2.4c-.29.93-.56 1.86-.84 2.87zm-30.23 12.14c.355-.616.662-1.258.92-1.92a12.07 12.07 0 00.62-2.18 8.495 8.495 0 000-2.81 14.86 14.86 0 00-1.05-3.32 13.055 13.055 0 00-1.53-2.58 14.416 14.416 0 00-2.32-2.39 20.298 20.298 0 00-3.15-2.11 29.532 29.532 0 00-4.09-1.81 10.947 10.947 0 013.33-.16c1.398.133 2.773.449 4.09.94a11.993 11.993 0 013.94 2.39 9.863 9.863 0 013.11 6.31c.075.734.075 1.475 0 2.21a9.102 9.102 0 01-.64 2.43 16.28 16.28 0 01-1.36 2.49c-.55.79-1.18 1.65-1.87 2.51zm-11.92 3.62c.255-.593.463-1.205.62-1.83.175-.656.295-1.325.36-2a8.738 8.738 0 00-.19-2.59 17.344 17.344 0 00-1.11-3.18 17.502 17.502 0 00-1.5-2.71 17.214 17.214 0 00-2.2-2.69 22.174 22.174 0 00-3.08-2.55 46.565 46.565 0 00-4.17-2.56 9.307 9.307 0 013.29.26c1.386.313 2.729.794 4 1.43a12.242 12.242 0 013.67 2.7 11.72 11.72 0 012.55 4.41 12.1 12.1 0 01.44 2c.099.708.133 1.425.1 2.14a9.608 9.608 0 01-.4 2.23 16.148 16.148 0 01-1 2.41c-.4.81-.86 1.66-1.38 2.53zm-12.1 3.11c.102-.448.169-.903.2-1.36 0-.43.09-1 .1-1.59a14.086 14.086 0 00-.12-2.23 26.039 26.039 0 00-.54-3 18.176 18.176 0 00-.91-2.73 19.382 19.382 0 00-1.69-3.1 24.727 24.727 0 00-2.85-3.49 23.915 23.915 0 00-1.88-1.75 27.44 27.44 0 00-2.14-1.64 6.17 6.17 0 013 .51 14.897 14.897 0 013.85 2.28 13.002 13.002 0 013.27 3.66 11.91 11.91 0 011.52 4.88c.047.665.047 1.334 0 2 0 .666-.06 1.333-.18 2a12.207 12.207 0 01-.39 1.91c-.17.63-.38 1.25-.61 1.86-.23.61-.38 1.18-.63 1.79zm-8.82.51c.179-.404.332-.818.46-1.24.11-.38.25-.84.35-1.37a8.461 8.461 0 00.18-1.85 18.397 18.397 0 00-.19-2.58 15.393 15.393 0 00-.59-2.66 17.427 17.427 0 00-1.42-3.34 21.24 21.24 0 00-2.57-3.63 19.891 19.891 0 00-1.72-1.74 36.42 36.42 0 00-2-1.64 5.311 5.311 0 012.7.58c1.233.6 2.353 1.408 3.31 2.39a14.533 14.533 0 012.88 4.13c.37.781.668 1.594.89 2.43.211.814.338 1.649.38 2.49a9.575 9.575 0 010 1.71c-.05.538-.137 1.073-.26 1.6a8.83 8.83 0 01-.53 1.52 15.18 15.18 0 01-.8 1.54c-.38.53-.71 1.08-1.07 1.66zm-7.81 1.2c.202-.516.372-1.044.51-1.58.14-.49.28-1.07.4-1.72.136-.719.21-1.449.22-2.18a21.258 21.258 0 00-.13-2.67 16.055 16.055 0 00-.48-2.39 21.092 21.092 0 00-1-2.76 30.346 30.346 0 00-1.61-3.26c-.32-.59-.67-1.2-1.06-1.83-.39-.63-.83-1.27-1.3-1.92a4.064 4.064 0 012.2 1 12.172 12.172 0 012.33 2.68 16.308 16.308 0 011.85 3.74c.26.672.468 1.364.62 2.07.153.73.24 1.473.26 2.22.013.538-.014 1.076-.08 1.61a12.03 12.03 0 01-.29 1.62 10.89 10.89 0 01-.54 1.64c-.24.56-.52 1.14-.84 1.74-.32.62-.67 1.28-1.06 1.99zm-6.38 1.23s.15-.56.3-1.5c.08-.48.17-1 .26-1.67.09-.67.17-1.36.21-2.17.04-.81.13-1.74.16-2.76 0-.76.05-1.6 0-2.52a28.631 28.631 0 00-.18-3 26.13 26.13 0 00-.52-3.51c-.13-.64-.29-1.31-.49-2a19.587 19.587 0 00-.8-2.11 2.838 2.838 0 011.77 1.17 8.913 8.913 0 011.37 2.92c.366 1.302.561 2.647.58 4a19.87 19.87 0 010 2.21c0 .76-.1 1.55-.21 2.34-.07.57-.16 1.12-.27 1.67-.11.55-.23 1.1-.36 1.65-.13.55-.3 1.1-.49 1.64-.19.54-.41 1.11-.65 1.69-.24.58-.42 1.28-.68 1.95zm-3.5.82c-.31-1.59-1.54-2.85-1.88-4.44a30.346 30.346 0 01-.44-9.12c.133-1.572.356-3.135.67-4.68.2-1.05.18-3.25 1.33-3.8 1.65-.78 1.31 3.61 1.24 4.37-.46 5.31-1.88 10.4-1.24 15.77.08.64.19 1.27.32 1.9zm-15.61-.26a15.46 15.46 0 01-.67-1.74c-.17-.55-.37-1.21-.54-2a14.399 14.399 0 01-.33-2.64c-.033-1.09.023-2.18.17-3.26.131-.963.341-1.913.63-2.84a18.424 18.424 0 011.34-3.2 21.388 21.388 0 012.35-3.54 29.725 29.725 0 013.46-3.6 5.988 5.988 0 00-2.86.77 13.367 13.367 0 00-3.34 2.54 13.2 13.2 0 00-3.73 9c-.018.668.016 1.337.1 2 .091.689.217 1.374.38 2.05.176.714.41 1.413.7 2.09.297.736.63 1.457 1 2.16.44.68.87 1.44 1.34 2.21zm9.83.09a11.555 11.555 0 01-.81-1.46 15.9 15.9 0 01-.72-1.71 12.212 12.212 0 01-.58-2.35 21.226 21.226 0 01-.23-3c.001-.914.071-1.827.21-2.73.158-1.093.409-2.17.75-3.22a22.03 22.03 0 011.62-3.75 25.747 25.747 0 012.65-4c-.922.13-1.79.511-2.51 1.1a11.766 11.766 0 00-2.65 2.93 13.313 13.313 0 00-1.8 4.27 14.05 14.05 0 00-.3 4.87c.068.616.174 1.227.32 1.83.154.619.341 1.23.56 1.83.234.625.518 1.23.85 1.81.357.61.751 1.198 1.18 1.76.45.6.94 1.2 1.46 1.82z" fill="#080808"/><path d="M269 198.349c.258-.646.449-1.316.57-2 .141-.738.195-1.49.16-2.24a8.758 8.758 0 00-.63-2.81 18.37 18.37 0 00-3.91-5.8 15.554 15.554 0 00-3-2.28 20.423 20.423 0 00-3.91-1.75 35.217 35.217 0 00-4.81-1.11 12.196 12.196 0 013.55-.64 16.553 16.553 0 014.63.47c.82.199 1.62.474 2.39.82.784.351 1.526.79 2.21 1.31a12.569 12.569 0 012 1.85c.62.732 1.156 1.53 1.6 2.38.342.64.627 1.309.85 2 .237.713.411 1.446.52 2.19a8.48 8.48 0 010 2.36c-.15.877-.405 1.733-.76 2.55-.428.93-.916 1.832-1.46 2.7zm8.9-4.81c.149-.595.252-1.2.31-1.81.05-.666.05-1.335 0-2a10.93 10.93 0 00-.52-2.55 18.42 18.42 0 00-1.35-2.88 16.836 16.836 0 00-1.54-2.23 16.307 16.307 0 00-5.19-4.15 17.511 17.511 0 00-4-1.4 8.08 8.08 0 012.93-.43 10.998 10.998 0 019.58 6.8 13.541 13.541 0 011 3.68c.07.715.07 1.435 0 2.15a13.916 13.916 0 01-.43 2.36 22.57 22.57 0 01-.79 2.46zm-139.47 6.65a12.995 12.995 0 01-.41-2 14.195 14.195 0 01-.12-2.18c.037-.916.191-1.824.46-2.7a16.749 16.749 0 011.37-3 15.735 15.735 0 011.65-2.32 18.416 18.416 0 012.3-2.28 22.84 22.84 0 013.07-2.14 34.786 34.786 0 013.87-2 6.805 6.805 0 00-2.69 0 14.33 14.33 0 00-3.58 1.13 13.902 13.902 0 00-3.67 2.41 12.27 12.27 0 00-2.85 3.87c-.277.577-.498 1.18-.66 1.8a12.69 12.69 0 00-.38 2 9.991 9.991 0 00.06 2.24c.12.832.314 1.652.58 2.45.27.92.57 1.8 1 2.72z" fill="#080808"/><path d="M130.92 196.899a13.503 13.503 0 01-.08-2c.012-.729.089-1.455.23-2.17.172-.906.457-1.786.85-2.62a19.09 19.09 0 011.73-2.84 18.051 18.051 0 011.86-2.15 19.676 19.676 0 012.46-2.05 22.334 22.334 0 013.15-1.84 29.321 29.321 0 013.9-1.51 5.598 5.598 0 00-2.56-.38 11.999 11.999 0 00-3.53.71 13.341 13.341 0 00-3.74 2 13.047 13.047 0 00-3.2 3.6 12.175 12.175 0 00-.88 1.73 15.714 15.714 0 00-.65 2 10.633 10.633 0 00-.29 2.24c-.008.84.056 1.68.19 2.51.13.87.32 1.8.56 2.77zm14.98 10.87c-.138-.89-.205-1.79-.2-2.69-.011-.978.06-1.954.21-2.92a14.614 14.614 0 011-3.54 24.476 24.476 0 012.19-3.88 23.977 23.977 0 012.4-3 25.61 25.61 0 013.2-2.85 28.643 28.643 0 014.14-2.59 38.491 38.491 0 015.16-2.2 7.867 7.867 0 00-3.46-.4 16.68 16.68 0 00-4.69 1.1 18.25 18.25 0 00-4.92 2.89 17.633 17.633 0 00-4.13 4.95 18.335 18.335 0 00-1.88 5 13.924 13.924 0 00-.29 3c.019 1.128.136 2.252.35 3.36.26 1.25.55 2.48.92 3.77zm-34.32-16.99a12.615 12.615 0 01-.09-2c.021-.729.101-1.455.24-2.17.174-.907.463-1.787.86-2.62a18.408 18.408 0 013.6-4.99 19.91 19.91 0 012.46-2.05 21.687 21.687 0 013.15-1.82 28.244 28.244 0 013.9-1.51 5.74 5.74 0 00-2.57-.39 12.276 12.276 0 00-3.52.71 13.255 13.255 0 00-3.75 2 12.995 12.995 0 00-3.2 3.59c-.339.552-.633 1.13-.88 1.73-.27.649-.491 1.317-.66 2a10.688 10.688 0 00-.28 2.24c-.018.836.036 1.672.16 2.5.15.88.34 1.81.58 2.78z" fill="#080808"/><path d="M104.7 186.319c.027-.672.108-1.341.24-2 .132-.718.322-1.424.57-2.11a11.46 11.46 0 011.27-2.45 18.67 18.67 0 012.17-2.52 17.395 17.395 0 012.18-1.82 18.14 18.14 0 012.76-1.63 20.774 20.774 0 013.4-1.3c1.34-.389 2.707-.68 4.09-.87a5.785 5.785 0 00-2.47-.79 12.278 12.278 0 00-3.59.13 13.492 13.492 0 00-4 1.41 12.98 12.98 0 00-3.74 3c-.42.492-.802 1.017-1.14 1.57a13.918 13.918 0 00-1 1.84 10.898 10.898 0 00-.64 2.16 15.185 15.185 0 00-.22 2.51c-.01.958.03 1.916.12 2.87z" fill="#080808"/><path d="M96.31 185.159c.03-.76.12-1.515.27-2.26a15.25 15.25 0 01.65-2.39c.362-.98.846-1.911 1.44-2.77a21.335 21.335 0 012.45-2.86 20.002 20.002 0 012.47-2.07 22.114 22.114 0 013.12-1.84 24.423 24.423 0 013.86-1.47 30.9 30.9 0 014.64-1 6.408 6.408 0 00-2.8-.9 13.587 13.587 0 00-4.08.15 14.991 14.991 0 00-4.55 1.59 14.673 14.673 0 00-4.23 3.44 13.74 13.74 0 00-1.3 1.77c-.41.67-.775 1.369-1.09 2.09-.33.788-.574 1.609-.73 2.45a16.848 16.848 0 00-.25 2.84c-.01 1.07.03 2.07.13 3.23zm25.6 12.32a19.745 19.745 0 01-.07-2.48c.014-.857.081-1.712.2-2.56.139-1.023.384-2.028.73-3a20.397 20.397 0 011.48-3.17 19.156 19.156 0 011.64-2.43 18.939 18.939 0 012.35-2.43 21.907 21.907 0 013.38-2.39 30.818 30.818 0 014.81-2.25 7.388 7.388 0 00-3.35-.36 13.38 13.38 0 00-4.19 1.13 12.788 12.788 0 00-6.61 6.82c-.267.651-.49 1.319-.67 2-.2.732-.354 1.477-.46 2.23a14.026 14.026 0 00-.13 2.55c.04.988.136 1.973.29 2.95.16 1.04.36 2.17.6 3.39zm61.28 16.26a16.796 16.796 0 01-1.1-2.17 17.07 17.07 0 01-.84-2.48 13.059 13.059 0 01-.38-3.27c.05-2.485.495-4.946 1.32-7.29a25.44 25.44 0 011.61-3.6 26.805 26.805 0 012.55-3.83 32.07 32.07 0 013.67-3.89 7 7 0 00-3.21.87 14.642 14.642 0 00-3.65 2.72 16.715 16.715 0 00-3.11 4.39 16.398 16.398 0 00-1.59 5.75 17.042 17.042 0 000 2.37c.044.837.154 1.67.33 2.49.192.882.48 1.741.86 2.56.434.911.939 1.787 1.51 2.62.59.89 1.27 1.81 2.03 2.76zm-12.45-1.74a16.815 16.815 0 01-.86-2.37 17.209 17.209 0 01-.53-2.63 13.025 13.025 0 01.07-3.33 21.98 21.98 0 011-3.87c.404-1.09.899-2.144 1.48-3.15a23.971 23.971 0 012.26-3.29 28.284 28.284 0 013.27-3.36 34.41 34.41 0 014.48-3.3 7.413 7.413 0 00-3.35.4 15.22 15.22 0 00-4.14 2.15 17.432 17.432 0 00-3.9 3.83 16.366 16.366 0 00-2.63 5.4 14.495 14.495 0 00-.45 2.32 17.382 17.382 0 00-.09 2.52c.055.911.212 1.814.47 2.69.3.988.685 1.948 1.15 2.87.53 1.04 1.11 2.12 1.77 3.12zm-10-2.93a15.76 15.76 0 01-.66-2.22 15.493 15.493 0 01-.36-2.48 13.163 13.163 0 01.22-3.17 21.311 21.311 0 011.12-3.66 21.05 21.05 0 011.47-2.92 22.277 22.277 0 012.16-3 25.246 25.246 0 013-2.94 33.034 33.034 0 013.93-2.79 6.814 6.814 0 00-3 .3 14.327 14.327 0 00-3.72 1.81 15.34 15.34 0 00-3.59 3.33 15.124 15.124 0 00-3 7.09c-.114.791-.17 1.59-.17 2.39.013.865.117 1.726.31 2.57.228.941.536 1.861.92 2.75.373.953.83 1.933 1.37 2.94zm156.11-48.56c.03-.413.03-.828 0-1.24a6.345 6.345 0 00-.17-1.22 3.932 3.932 0 00-.58-1.3 6.174 6.174 0 00-1.18-1.16 6.495 6.495 0 00-1.29-.72 7.987 7.987 0 00-1.67-.5 10.284 10.284 0 00-2.08-.16c-.837.025-1.67.122-2.49.29.407-.448.9-.808 1.45-1.06a7.663 7.663 0 012.22-.62 6.97 6.97 0 012.53.11c.853.19 1.644.593 2.3 1.17.244.218.459.467.64.74.2.314.364.649.49 1 .128.404.199.825.21 1.25a8.886 8.886 0 01-.09 1.58c-.05.54-.14 1.17-.29 1.84zm6.75-10.08c.085-.198.155-.402.21-.61.061-.205.094-.417.1-.63a1.822 1.822 0 00-.12-.72 2.976 2.976 0 00-.48-.72 3.297 3.297 0 00-.59-.51 4.661 4.661 0 00-.84-.46 6.787 6.787 0 00-1.13-.37 12.131 12.131 0 00-1.44-.27c.317-.139.655-.22 1-.24.439-.05.881-.05 1.32 0 .471.054.929.182 1.36.38.422.184.788.477 1.06.85a2.4 2.4 0 01.24.45c.062.171.103.349.12.53.017.218 0 .437-.05.65a4.227 4.227 0 01-.28.76 8.315 8.315 0 01-.48.91zm-224.12 9.57s-24.31.29-36.47 14.69c10.66-16.32 22.85-19.22 36.47-14.69z" fill="#080808"/><path d="M105.1 162.319a57.503 57.503 0 00-11.66 2.27 40.363 40.363 0 00-6.63 2.61 19.629 19.629 0 00-5.9 4.57 22.998 22.998 0 00-2.36 3.23 27.456 27.456 0 00-1.94 3.7c.46-1.45.93-2.81 1.43-4.08a31.755 31.755 0 011.61-3.51 19.534 19.534 0 014-5.21 17.08 17.08 0 014.84-3 21.377 21.377 0 015.27-1.45c3.8-.479 7.657-.183 11.34.87z" fill="#080808"/><path d="M111 164.509a46.775 46.775 0 00-9.25 2.81 32.82 32.82 0 00-5.12 2.68 16.13 16.13 0 00-2.37 1.86 16.81 16.81 0 00-2 2.33 18.85 18.85 0 00-1.64 2.77 21.99 21.99 0 00-1.26 3.15c.25-1.21.52-2.35.82-3.41a24.147 24.147 0 011-3 15.994 15.994 0 012.77-4.55 14.213 14.213 0 013.67-2.87 17.435 17.435 0 014.14-1.61 23.041 23.041 0 019.24-.16zm-11.48-4.06s-15.73-9.31-41.39 8.34c2.87-6.85 23.71-22.33 41.39-8.34z" fill="#080808"/><path d="M89.34 154.719s-1.07-.11-3-.2c-.94 0-2.11-.08-3.48-.09-1.37-.01-2.94 0-4.66.07-1.72.07-3.58.17-5.5.36-1.92.19-3.9.44-5.87.79-1.97.35-3.9.79-5.81 1.32a53.714 53.714 0 00-5.66 1.91 38.467 38.467 0 00-10.36 6.12 59.868 59.868 0 015.29-5 44.742 44.742 0 015.28-3.82 35.712 35.712 0 015.3-2.7 30.39 30.39 0 015.44-1.65 32.03 32.03 0 015.76-.62c2.006-.04 4.012.077 6 .35a42.152 42.152 0 0111.32 3.23l-.05-.07z" fill="#080808"/><path d="M85.81 153.559a30.57 30.57 0 00-7.41-2.63 45.151 45.151 0 00-5.46-1 51.035 51.035 0 00-6.77-.31 54.742 54.742 0 00-8 .76c-1.42.24-2.9.55-4.41.92-1.51.37-3.07.82-4.67 1.34-1.6.52-3.23 1.11-4.91 1.8-1.68.69-3.39 1.45-5.14 2.32 2-1.51 4-2.91 6-4.17a63.036 63.036 0 016.06-3.39 45.857 45.857 0 016.06-2.48 33.719 33.719 0 016-1.38c1.94-.26 3.902-.3 5.85-.12a25.09 25.09 0 015.73 1.25 26.375 26.375 0 015.6 2.71 32.88 32.88 0 015.47 4.38z" fill="#080808"/><path d="M77.8 147.429s-1.62-.53-4.25-1.17c-1.31-.31-2.87-.64-4.59-.93a48.822 48.822 0 00-5.58-.6c-2-.096-4.004-.062-6 .1a40.929 40.929 0 00-6.1.93 28.97 28.97 0 00-5.84 2 23.42 23.42 0 00-5.31 3.4 44.845 44.845 0 014.41-4.42 29.557 29.557 0 014.39-3.17 23.11 23.11 0 014.48-2 19.79 19.79 0 014.58-.94 21.021 21.021 0 014.69.12c1.648.23 3.268.636 4.83 1.21a38.15 38.15 0 015 2.3c1.74.9 3.49 1.97 5.29 3.17z" fill="#080808"/><path d="M72.34 144.209s-1.17-.51-3.11-1.15c-1-.32-2.14-.68-3.44-1-1.3-.32-2.74-.69-4.28-1a43.04 43.04 0 00-4.88-.6 34.052 34.052 0 00-5.15 0c-1.724.13-3.43.438-5.09.92a19.078 19.078 0 00-4.75 2.09 32.666 32.666 0 014.12-3 25.13 25.13 0 014-2 20.469 20.469 0 014-1.101 16.976 16.976 0 013.88-.209 17.3 17.3 0 013.78.64c1.27.361 2.502.843 3.68 1.44a30.5 30.5 0 013.62 2.159 44.267 44.267 0 013.62 2.811z" fill="#080808"/><path d="M65 138.729s-.94-.4-2.5-.92c-.78-.26-1.72-.55-2.76-.83-1.04-.28-2.21-.55-3.45-.78a35.687 35.687 0 00-3.91-.48 27.245 27.245 0 00-4.14 0 20.246 20.246 0 00-4.1.74 15.652 15.652 0 00-3.82 1.68 27.863 27.863 0 013.31-2.42 19.525 19.525 0 013.24-1.62 15.964 15.964 0 013.19-.88 13.681 13.681 0 016.16.34c1.019.289 2.007.678 2.95 1.16a22.863 22.863 0 012.92 1.74 33.255 33.255 0 012.91 2.27zm-7.44-5.79s-.65-.34-1.74-.8c-.55-.23-1.2-.49-1.93-.75s-1.56-.52-2.43-.75a25.25 25.25 0 00-2.79-.57 19.306 19.306 0 00-3-.21 14.196 14.196 0 00-3 .3c-.983.208-1.935.544-2.83 1a19.815 19.815 0 012.51-1.55c.772-.405 1.578-.74 2.41-1a10.905 10.905 0 012.34-.45 9.99 9.99 0 014.4.59c.717.265 1.407.6 2.06 1 .698.427 1.366.901 2 1.42a23.96 23.96 0 012 1.77z" fill="#080808"/><path opacity=".44" d="M344.36 89.999c3.75 8.16 5.27 14 10.34 19 13.28 13.1 12.55 26.06 12.55 26.06a234.66 234.66 0 00-32.06-7.06 78.118 78.118 0 009.17-38z" fill="#FF7F4D"/><path d="M351.64 105.349l.26.39-.26-.39z" fill="url(#paint1_linear)"/><path d="M350.75 103.999l.3.5-.3-.5z" fill="url(#paint2_linear)"/><path d="M352.09 105.999l.27.37-.27-.37z" fill="url(#paint3_linear)"/><path d="M354.13 108.458l.52.54-.52-.54z" fill="url(#paint5_linear)"/><path d="M352.56 106.629l.29.36-.29-.36z" fill="url(#paint6_linear)"/><path d="M353.58 107.859c.11.13.23.26.35.38a4.26 4.26 0 01-.35-.38z" fill="url(#paint7_linear)"/><path d="M353.06 107.249l.31.36-.31-.36z" fill="url(#paint8_linear)"/><path d="M91.59 45.849c.34-.42.71-.83 1.07-1.25-.36.4-.73.83-1.07 1.25z" fill="url(#paint9_linear)"/><path d="M93.1 44.089c.51-.58 1-1.15 1.57-1.72-.54.57-1.06 1.14-1.57 1.72z" fill="url(#paint10_linear)"/><path d="M349.13 100.918l.36.73-.36-.73z" fill="url(#paint11_linear)"/><path d="M30.32 123.499c1.13-1 2.24-2.1 3.34-3.18-1.1 1.08-2.21 2.15-3.34 3.18z" fill="url(#paint12_linear)"/><path d="M83.09 57.089c1.45-2 2.92-3.94 4.43-6-1.52 2.06-2.98 4.04-4.43 6z" fill="url(#paint13_linear)"/><path d="M104 33.879c-5.58 13.75-7.47 28.89-4.14 42.12a36.829 36.829 0 003 8.07c10.51-8.35 24.64-17.21 47.45-26.46 65.12-26.4 123 5.38 156.56 30.84 6.72-14.78 3.79-31.88-5-48.11l-.24-.42c38.82 32.39 41.87 49.43 47.44 61-6.31-13.12-9.38-33.28-65-74.84-60.7-45.36-155-20.21-189.42 16.29a86.65 86.65 0 019.35-8.49z" fill="url(#paint15_linear)"/><path opacity=".44" d="M350.65 103.789c0 .06.07.11.1.16s-.07-.1-.1-.16zm15.57 24.09zm-12.29-19.64l.2.22-.2-.22zm13.27 25.14c0 .32 0 .59.05.83-.01-.21-.02-.51-.05-.83zm-2.69-10.33c.45 1 .83 2.06 1.15 3-.32-.94-.66-1.95-1.15-3zm-11.14-15.44l.21.25-.21-.25zm-.52-.61l.21.26-.21-.26zm-1.38-1.9l.17.25-.17-.25zm-.42-.651l.15.23-.15-.23zm.85 1.291l.19.26-.19-.26zm.46.63c.07.09.14.17.2.26-.06-.09-.13-.17-.2-.26zm13.77 28.4c.37.11.76.22 1.12.34-.36-.11-.75-.23-1.12-.34zm-2.13-12.77z" fill="#FF976E"/><path d="M301.68 39.889l.24.42c8.76 16.23 11.69 33.33 5 48.11 6 4.53 11.2 8.86 15.55 12.62 28.76 24.96 39.46 23.96 39.46 23.96a8.159 8.159 0 014.2 9.79c.37.11.76.22 1.12.34v-.9c0-.24 0-.51-.05-.83a28.103 28.103 0 00-.57-3.83c-.12-.53-.25-1.08-.41-1.67-.16-.59-.35-1.19-.56-1.82-.32-1-.7-2-1.15-3-.15-.35-.31-.7-.48-1.06a44.978 44.978 0 00-9.33-12.94.106.106 0 00-.05 0l-.52-.54-.2-.22c-.12-.12-.24-.25-.35-.38l-.21-.25-.31-.36-.21-.26-.29-.36c-.06-.09-.13-.17-.2-.26l-.27-.37-.19-.26-.26-.39-.17-.25a5.164 5.164 0 01-.27-.42l-.15-.23-.3-.5s-.07-.1-.1-.16c-.4-.69-.79-1.4-1.15-2.13l-.36-.73c-5.59-11.69-8.64-28.73-47.46-61.12z" fill="url(#paint16_linear)"/><path opacity=".44" d="M301.68 39.889l.24.42c8.76 16.23 11.69 33.33 5 48.11 6 4.53 11.2 8.86 15.55 12.62 28.76 24.96 39.46 23.96 39.46 23.96a8.159 8.159 0 014.2 9.79c.37.11.76.22 1.12.34v-.9c0-.24 0-.51-.05-.83a28.103 28.103 0 00-.57-3.83c-.12-.53-.25-1.08-.41-1.67-.16-.59-.35-1.19-.56-1.82-.32-1-.7-2-1.15-3-.15-.35-.31-.7-.48-1.06a44.978 44.978 0 00-9.33-12.94.106.106 0 00-.05 0l-.52-.54-.2-.22c-.12-.12-.24-.25-.35-.38l-.21-.25-.31-.36-.21-.26-.29-.36c-.06-.09-.13-.17-.2-.26l-.27-.37-.19-.26-.26-.39-.17-.25a5.164 5.164 0 01-.27-.42l-.15-.23-.3-.5s-.07-.1-.1-.16c-.4-.69-.79-1.4-1.15-2.13l-.36-.73c-5.59-11.69-8.64-28.73-47.46-61.12zm-211.51 7.76zm2.49-3.05l.44-.51-.44.51zm-9.57 12.49c-19 25.63-32.8 46.9-49.43 63.23 16.63-16.32 30.48-37.6 49.43-63.23z" fill="#FF976E"/><path d="M99.86 75.999c-3.33-13.2-1.44-28.34 4.15-42.09a86.64 86.64 0 00-9.32 8.47c-.54.57-1.06 1.14-1.57 1.72l-.44.51c-.36.42-.73.83-1.07 1.25-.49.6-1 1.2-1.42 1.8a432.71 432.71 0 00-2.65 3.49c-1.51 2-3 4-4.43 6-19 25.63-32.8 46.9-49.43 63.23-1.1 1.08-2.21 2.15-3.34 3.18a121.172 121.172 0 01-11.8 9.61 41.474 41.474 0 009.38-1.46c45.9-12.37 51.08-28.71 74.96-47.71a36.787 36.787 0 01-3.02-8z" fill="url(#paint17_linear)"/><path opacity=".44" d="M99.86 75.999c-3.33-13.2-1.44-28.34 4.15-42.09a86.64 86.64 0 00-9.32 8.47c-.54.57-1.06 1.14-1.57 1.72l-.44.51c-.36.42-.73.83-1.07 1.25-.49.6-1 1.2-1.42 1.8a432.71 432.71 0 00-2.65 3.49c-1.51 2-3 4-4.43 6-19 25.63-32.8 46.9-49.43 63.23-1.1 1.08-2.21 2.15-3.34 3.18a121.172 121.172 0 01-11.8 9.61 41.474 41.474 0 009.38-1.46c45.9-12.37 51.08-28.71 74.96-47.71a36.787 36.787 0 01-3.02-8z" fill="#FF976E"/><path d="M366.3 125.369a19.63 19.63 0 01-4.26-.83 58.303 58.303 0 01-11.22-4.87 118.946 118.946 0 01-15.73-10.59c-5.83-4.49-11.69-10.22-18.72-16.26a243.722 243.722 0 00-23.58-18.1 201.212 201.212 0 00-29-16.45 169.666 169.666 0 00-16.44-6.61 140.095 140.095 0 00-17.54-4.92 146.903 146.903 0 00-18.37-2.74 143.147 143.147 0 00-18.76-.29 139.623 139.623 0 00-36.54 7.38c-2.9 1.13-5.71 2.09-8.63 3.35l-8.07 3.63-4 1.8-4 2c-2.63 1.38-5.26 2.7-7.82 4.09a154.713 154.713 0 00-27.26 19.48c-8 7.06-14.55 14.49-21.18 20.47-1.62 1.56-3.32 2.92-5 4.24l-2.47 2-2.53 1.76c-1.7 1.12-3.25 2.37-4.95 3.3l-4.88 2.79c-3.18 1.8-6.39 3-9.22 4.49-2.83 1.49-5.68 2.25-8.13 3.25l-3.51 1.35-3.15 1-5 1.64-4.16 1.36 4.28-.92 5.14-1.12 3.26-.71 3.64-1.06c2.55-.78 5.44-1.5 8.49-2.57l4.73-1.79a51.278 51.278 0 005-2.08 95.524 95.524 0 0021.58-13.27c7.27-5.83 14.23-12.88 22.13-19.38a166.183 166.183 0 0126.76-17.7c2.47-1.27 5-2.46 7.53-3.71l3.81-1.86 4-1.7 8.15-3.43c2.52-1.07 5.37-2 8.05-3a132.43 132.43 0 0169.37-4.08 166.753 166.753 0 0132.68 10.29 223.202 223.202 0 0128.62 15c8.76 5.44 16.77 11.07 24 16.58 3.61 2.73 6.87 5.5 10.24 8.09s6.53 4.93 9.63 7a105.726 105.726 0 0016.87 9.5 53.78 53.78 0 0011.79 3.83c1.439.284 2.904.408 4.37.37z" fill="#F59464"/><path d="M365.19 126.159l-.71-.79a16.396 16.396 0 00-5.18-4.08c-2.72-1.24-6.88-2.75-9.55-.76-1.05-3-5.17-4-7.76-4a13.694 13.694 0 00-11.77 6.84c-2.8 4.62-3.27 14.86 4.13 13.67a63.741 63.741 0 0125.13.53c2.84.6 6.83.65 8.27-2.74 1.52-3.61-.41-6.23-2.56-8.67z" fill="url(#paint18_linear)"/><path d="M330.22 123.329c.22-.36.46-.68.7-1a11.332 11.332 0 007.85 7.63c3.517 1.039 7.3.68 10.56-1a10.711 10.711 0 002.79-2.08c3.25 4.92 8.79 8 14.91 9.12-1.79 2.17-5.09 2.07-7.55 1.55a63.74 63.74 0 00-25.13-.53c-7.35 1.17-6.93-9.02-4.13-13.69z" fill="#FF9368"/><path d="M284.11 26.059l-2.91-2.17c-1-.7-2.1-1.62-3.53-2.58l-5-3.2c-1.89-1.17-4.08-2.29-6.42-3.61-2.34-1.32-5-2.44-7.84-3.72a130.782 130.782 0 00-19.76-6.61 157.89 157.89 0 00-52-3.36 183.996 183.996 0 00-57.74 15.53 137.37 137.37 0 00-26.09 16 95.664 95.664 0 00-11 10.36c-3.29 3.87-6 7.76-8.89 11.56-11.27 15.27-21.01 30.04-30.1 42.14-4.55 6-8.84 11.48-12.82 16.15a156.331 156.331 0 01-11 11.52c-3.23 3-5.82 5.32-7.69 6.76l-2.84 2.28 3-2.09a102.905 102.905 0 008.11-6.34 159.942 159.942 0 0011.57-11.08c4.25-4.51 8.84-9.78 13.54-15.76 9.41-12 19.83-26.3 31.16-41.43 2.87-3.76 5.74-7.72 8.8-11.24a91.82 91.82 0 0110.62-9.8 134.62 134.62 0 0125.43-15.24 181.25 181.25 0 0183.37-16.66 152.508 152.508 0 0124 3 154.777 154.777 0 0119.71 5.76c2.84 1.13 5.49 2.23 7.91 3.32 2.42 1.09 4.6 2.21 6.52 3.27l5.12 2.91c1.48.87 2.68 1.72 3.68 2.35l3.09 1.98z" fill="#F5A47D"/><path d="M234.68 56.909l-.15-.09h.18l.19.12a170.351 170.351 0 0127.92 9.8c-8-7.58-17.7-19.67-25.5-38.25-1 4.23 2.46 16.11 10.89 27.46l-1-1c-2-2.18-4.09-4.46-6.05-6.79a150.68 150.68 0 01-5.6-7.07c-1.77-2.38-3.44-4.83-5-7.31a67.256 67.256 0 01-7.25-15.11 77.6 77.6 0 002.25 9 70.656 70.656 0 003.14 8.16 66.018 66.018 0 008.94 14.33 76.717 76.717 0 006.06 6.56l1.4 1.32-.36-.18c-1.57-1.37-3.19-2.84-4.84-4.45-2.75-2.66-5.6-5.66-8.47-9a143.54 143.54 0 01-4.32-5.32c-1.44-1.87-2.88-3.82-4.3-5.87a134.46 134.46 0 01-4.19-6.48c-1.38-2.26-2.76-4.58-4.1-7 1.147 3.14 2.39 6.203 3.73 9.19a116.129 116.129 0 004.34 8.69c.94 1.586 1.887 3.17 2.84 4.75-2.39-2.54-4.71-5.2-6.86-7.93a80.187 80.187 0 01-6.41-9.36 47.882 47.882 0 01-4.34-9.62 63.666 63.666 0 002.18 9.22 57.673 57.673 0 003.35 8.32 57.168 57.168 0 004.48 7.56 57.112 57.112 0 005.54 6.78 62.674 62.674 0 006.51 6l.19.15H230l-.42-.07c-1.08-.79-2.16-1.61-3.28-2.5-1.62-1.28-3.28-2.68-5-4.19-1.72-1.51-3.4-3.12-5.13-4.86-1.73-1.74-3.47-3.58-5.23-5.55-1.76-1.97-3.51-4-5.26-6.2s-3.5-4.48-5.23-6.9c-1.73-2.42-3.45-5-5.11-7.67-.25 2.3.91 6.27 3.4 11a68.05 68.05 0 004.73 7.67 84.502 84.502 0 006.7 8.34c1.65 1.81 3.44 3.6 5.35 5.35-.56-.45-1.13-.89-1.68-1.35-1.75-1.45-3.44-2.93-5.09-4.42-1.65-1.49-3.25-3-4.82-4.41-1.57-1.41-3.1-2.91-4.6-4.39-1.5-1.48-3-3-4.39-4.5a86.308 86.308 0 01-7.71-9.44 47.686 47.686 0 01-5.39-10 63.215 63.215 0 002.24 7.4 53.928 53.928 0 003 6.72 64.54 64.54 0 003.69 6.12c1.32 2 2.75 3.84 4.26 5.66 1 1.22 2.06 2.4 3.16 3.56 1.1 1.16 2.23 2.31 3.44 3.46s2.47 2.32 3.8 3.48c1.33 1.16 2.74 2.33 4.25 3.47.35.27.72.53 1.08.79l-.23-.14c-11.29-7.4-20.29-16.21-29.4-26.07-1.85-2.13-3.68-4.37-5.41-6.73-1.73-2.36-3.4-4.79-5-7.26.79 1.5 1.52 3 2.25 4.54s1.43 3 2.15 4.54 1.47 3 2.26 4.43a83.997 83.997 0 0026.15 29.12h-.17c-1.41-.87-2.85-1.8-4.34-2.85-1.873-1.3-3.803-2.74-5.79-4.32-2-1.57-4-3.27-6.1-5.1a184.525 184.525 0 01-8.51-7.87c-1.46-1.43-2.92-2.93-4.41-4.5-2.22-2.36-4.48-4.89-6.73-7.61-2.25-2.72-4.51-5.62-6.76-8.72 1.2 2.72 2.43 5.29 3.7 7.73 1.27 2.44 2.58 4.75 3.95 6.91s2.69 4.2 4.07 6.13c1.38 1.93 2.78 3.73 4.22 5.42a84.41 84.41 0 006 6.48l.93.89c-1.56-1.08-3.13-2.2-4.74-3.38-3-2.16-6-4.49-9.13-7.1-3.13-2.61-6.35-5.49-9.65-8.67-1.65-1.6-3.31-3.26-5-5-1.69-1.74-3.37-3.58-5.08-5.5 2.21 3.88 4.44 7.43 6.69 10.69s4.53 6.23 6.83 8.93a85.43 85.43 0 004.66 5.06c2.1 2.1 4.24 4 6.47 5.9 1.62 1.35 3.29 2.62 5 3.84-1.19-.59-2.4-1.21-3.64-1.89a109.204 109.204 0 01-5.28-3.07c-1.8-1.12-3.66-2.35-5.55-3.68-1.89-1.33-3.82-2.79-5.77-4.37a190.146 190.146 0 01-4.4-3.78 150.627 150.627 0 01-4.46-4.12 145.286 145.286 0 01-4.43-4.4c-1.46-1.51-2.91-3.05-4.34-4.64a146.75 146.75 0 002.94 4.53c1 1.51 2.06 3 3.13 4.49 1.07 1.49 2.18 2.94 3.31 4.37 1.13 1.43 2.28 2.83 3.45 4.18 1.17 1.35 2.37 2.66 3.58 3.91s2.44 2.44 3.69 3.57 2.51 2.25 3.81 3.3c.59.48 1.18 1 1.78 1.4l-.29-.15c-1.81-1-3.67-2-5.57-3.15-1.9-1.15-3.86-2.31-5.86-3.62-2-1.31-4-2.73-6.12-4.28-3.11-2.34-6.31-5-9.57-7.92-1.63-1.48-3.28-3-4.93-4.69-1.65-1.69-3.33-3.38-5-5.21a22.431 22.431 0 003.66 8 61.275 61.275 0 008.6 10.25 77.178 77.178 0 008.12 6.84 91.888 91.888 0 009.8 6.25l.63.35c-1.37-.54-2.76-1.09-4.19-1.68-3.39-1.34-6.9-2.84-10.4-4.52-2.61-1.26-5.22-2.64-7.75-4.17a74.637 74.637 0 01-5.57-3.65 71.87 71.87 0 01-7.79-6.3 52.03 52.03 0 01-6.6-7.41 86.914 86.914 0 006.37 10.68 64.67 64.67 0 007.09 8.57 49.813 49.813 0 005.17 4.55 49.446 49.446 0 007.74 4.75c.62.32 1.26.62 1.89.91l-1.66-.6a92.033 92.033 0 01-6-2.31c-3.45-1.4-7.07-3-10.82-5-1.88-1-3.8-2-5.78-3.18-3-1.7-6.11-3.58-9.41-5.61-3.3-2.03-6.91-4.18-10.61-6.53a17.844 17.844 0 003.64 5 66.708 66.708 0 006.75 6.18c1.77 1.46 3.72 3 5.83 4.42a83.316 83.316 0 009.21 5.67 88.79 88.79 0 0011 4.88l.26.09c-2.3-.56-4.72-1.17-7.23-1.83-2.51-.66-5.15-1.4-7.78-2.22a226.483 226.483 0 01-6.56-2.13 169.147 169.147 0 01-6.63-2.42c-2.22-.85-4.46-1.74-6.7-2.68-3.37-1.4-6.71-2.92-9.9-4.59a66.068 66.068 0 01-8.94-5.54c2.87 2.75 5.9 5.331 9.07 7.73 3 2.31 6.08 4.37 9.08 6.22 2 1.23 4 2.38 6 3.42s4 2 6 2.87c2 .87 4.19 1.65 6.36 2.33 1.62.53 3.26 1 4.91 1.39l-.82-.1c-2.4-.32-4.91-.68-7.48-1.1a515.583 515.583 0 01-13.45-2.34c-2.34-.44-4.76-.91-7.26-1.42-3.75-.76-7.68-1.62-11.75-2.59-4.07-.97-8.22-2.06-12.44-3.39a35.141 35.141 0 006.86 3.81 104.564 104.564 0 0010.23 3.77c2.56.81 5.27 1.61 8.07 2.37 2.8.76 5.73 1.5 8.79 2.21 3.06.71 6.28 1.4 9.55 2 2 .4 4 .76 6 1.08 1.66.27 3.31.5 5 .71-1.66.07-3.31.13-5 .16h-6.54c-2.153 0-4.27-.11-6.35-.33-2.407-.167-4.74-.38-7-.64-2-.22-4-.47-6-.74s-3.81-.57-5.63-.88c-1.82-.31-3.58-.62-5.29-.94l-5-1c-3.19-.62-6.13-1.27-8.8-1.95-2.67-.68-5.08-1.38-7.2-2.07s-4-1.34-5.53-1.93c-1.53-.59-2.83-1.11-3.78-1.53a73.206 73.206 0 005.06 3.42c1.72 1.06 3.47 2.04 5.25 2.94 1.78.9 3.577 1.726 5.39 2.48 1.82.75 3.66 1.43 5.5 2.05 2.46.84 4.94 1.59 7.41 2.25 1.647.46 3.313.886 5 1.28a128.466 128.466 0 009.94 1.95c1.68.26 3.32.49 5 .68 3.3.39 6.54.65 9.61.79 1.54.07 3 .09 4.44.09 1.44 0 2.77 0 4-.07h.57-.19c-1.19.2-2.49.38-3.88.54-1.39.16-2.88.31-4.45.43-2.52.19-5.24.33-8.12.41-2.88.08-5.85.11-8.93.07-1.52 0-3.06-.05-4.62-.11s-3.12-.14-4.71-.26c-1.59-.12-3.21-.26-4.84-.43-2.89-.28-5.81-.7-8.79-1.28-2.233-.447-4.5-.98-6.8-1.6-2.3-.62-4.6-1.34-6.9-2.16-2.32-.82-4.67-1.73-7-2.75s-4.74-2.14-7.1-3.37a58 58 0 0016.45 12 60.149 60.149 0 007.46 3 60.482 60.482 0 006.75 1.88c2.38.49 4.94.89 7.66 1.19 2.72.3 5.62.51 8.68.6 1.53 0 3.11.06 4.72.06 1.61 0 3.27 0 5-.09s3.41-.12 5.18-.23c1.77-.11 3.56-.25 5.4-.43h.39c-1.44.3-3 .59-4.67.87-2 .33-4.16.65-6.53.94-2.37.29-5 .57-7.74.81-2.74.24-5.72.46-8.89.61-1.58.07-3.21.11-4.89.14-1.68.03-3.4 0-5.13 0h-5.2c-1.74 0-3.51-.07-5.32-.16-1.81-.09-3.67-.22-5.58-.39-2.39-.22-4.87-.49-7.46-.84s-5.28-.79-8.09-1.28a79.581 79.581 0 01-8.28-2.23c-2.78-.92-5.61-1.93-8.5-3a43.679 43.679 0 004.72 3.49 49.875 49.875 0 006.71 3.63 50.74 50.74 0 008.7 2.85c1.6.36 3.25.71 4.94 1 1.69.29 3.42.59 5.19.82 2.37.31 4.81.55 7.34.7 2.53.15 5.22.21 8.09.2h9.33c1.63 0 3.28 0 4.93-.06.39 0 .77 0 1.15-.06-2.12.406-4.35.803-6.69 1.19-1.49.24-3 .48-4.56.7l-4.7.64-4.72.59c-1.57.18-3.14.35-4.71.5-1.57.15-3.17.28-4.78.38-2.42.146-4.887.246-7.4.3h-7.66c-2.59 0-5.22-.23-7.88-.44s-5.35-.51-8.06-.87c-2.71-.36-5.45-.8-8.21-1.31-2.76-.51-5.52-1.12-8.31-1.82 3.19 1.13 6.91 2.38 11.11 3.58 2.1.606 4.317 1.193 6.65 1.76 2.333.566 4.773 1.12 7.32 1.66 2.55.47 5.21.88 8 1.2 2.79.32 5.62.57 8.57.7 2.527.12 5.133.15 7.82.09 2.68-.06 5.5-.22 8.51-.46 1.51-.12 3.09-.24 4.73-.39 1.64-.15 3.32-.33 5-.54 1.68-.21 3.46-.44 5.22-.7l1.44-.23c-.92.25-1.83.51-2.76.74-1.7.426-3.397.83-5.09 1.21-1.7.37-3.39.72-5 1-1.61.28-3.27.61-4.83.9-1.56.29-3.08.57-4.55.82-1.47.25-2.92.48-4.36.69-1.44.21-2.85.39-4.27.54-2.82.32-5.62.55-8.36.7-3.2.173-6.327.246-9.38.22a156.279 156.279 0 01-8.85-.32c-2.85-.19-5.59-.45-8.19-.78-2.6-.33-5.07-.7-7.38-1.13a78.31 78.31 0 01-11.87-3.05c3.07 1.35 6.08 2.55 9 3.63s5.84 2 8.66 2.86c2.82.86 5.59 1.55 8.3 2.15 2.71.6 5.34 1.1 7.91 1.49 2.06.313 4.08.563 6.06.75 1.98.186 3.913.32 5.8.4 1.9.08 3.75.11 5.55.09 1.61 0 3.19-.08 4.73-.18 1.54-.1 3.06-.24 4.56-.41 1.5-.17 3-.37 4.52-.58l3.95-.57-.69.16-3.89.84-3.68.8c-2.39.51-4.73.94-7 1.29-2.27.35-4.62.63-6.91.84-2 .18-4 .323-6 .43-2 .106-4 .183-6 .23-2 0-4 .06-6 0-2.487 0-4.983-.05-7.49-.15-2.507-.1-5.027-.194-7.56-.28l-7.54-.42-7.59-.42a269.557 269.557 0 0015.56 2.73c2.447.346 4.83.65 7.15.91 2.32.26 4.567.466 6.74.62 1.75.13 3.45.23 5.11.31a246.395 246.395 0 009.47.24c1.71 0 3.36 0 5-.08 1.85-.07 3.63-.2 5.36-.37 1.73-.17 3.42-.4 5-.66s3.21-.56 4.76-.89c1.55-.33 3.11-.66 4.65-1l4-.87c-2 .67-4.07 1.35-6 2.05-2.27.84-4.49 1.66-6.7 2.45-2.21.79-4.46 1.5-6.74 2.15-1.893.546-3.793 1.04-5.7 1.48-1.9.45-3.81.86-5.73 1.25-1.92.39-3.86.76-5.81 1.12l-4.43.81c-1.48.27-3 .54-4.48.79-1.48.25-3 .5-4.52.72-1.52.22-3 .45-4.55.65 1.41.13 2.79.22 4.16.29 1.37.07 2.7.12 4 .14 1.3.02 2.61 0 3.88 0s2.51-.06 3.73-.09c1.62-.06 3.19-.14 4.72-.24 1.53-.1 3-.23 4.5-.38a91.4 91.4 0 004.33-.54c1.42-.21 2.83-.48 4.22-.77 1.39-.29 2.76-.64 4.1-1 1.54-.43 3-.92 4.5-1.44 1.5-.52 2.88-1.1 4.29-1.68 1.41-.58 2.78-1.19 4.15-1.8l4.09-1.78c1.34-.59 2.66-1.15 3.94-1.7 1.28-.55 2.54-1.08 3.73-1.6l1-.43c14.52-13.55 27.2-29.17 68.85-46.05 30.26-12.27 58.93-11.97 84.35-5.59z" fill="url(#paint19_linear)"/><path d="M307.27 81.499c-1.54 1.64-2.6 6.18-1.38 11.08 1.333 1 2.633 2 3.9 3a31.463 31.463 0 01-2.52-14.08z" fill="url(#paint20_linear)"/><path d="M297.87 73.099a24.91 24.91 0 00.9 14.31 247.456 247.456 0 014.86 3.49c-3.21-5.33-6.07-11.83-5.76-17.8z" fill="url(#paint21_linear)"/><path d="M288.94 59.189c-2.62 3.15-4 12.63 0 21.69a201.5 201.5 0 014.2 2.71c-3.04-5.72-5.09-13.59-4.2-24.4z" fill="url(#paint22_linear)"/><path d="M263.15 39.919c-2.43 4.21-1.71 18 6.71 29.8-8.4-9.52-20.55-25.44-22.7-39.93.19 15.47 6 27.38 15.86 37.07 5.17 2.33 10.14 4.85 14.88 7.48-5.82-7.07-12.04-18.06-14.75-34.42z" fill="url(#paint23_linear)"/><path d="M273.51 45.599c-1.94 11.87.35 21.48 5.84 29.55 2.84 1.6 5.6 3.24 8.27 4.89-6.54-8.98-14.31-22.26-14.11-34.44z" fill="url(#paint24_linear)"/><path d="M77.53 110.269c-2.09.91-4.27 1.85-6.48 2.85-2.21 1-4.41 2-6.61 3.1s-4.47 2.06-6.8 3a154.87 154.87 0 01-4.43 1.64c-1.49.52-3 1-4.5 1.46-1.5.46-3 .88-4.51 1.28l-4.54 1.19c-1.52.4-3.06.8-4.61 1.19l-3.54.88-3.63.89c-1.22.3-2.46.59-3.7.87-1.24.28-2.48.55-3.74.8 2.14 0 4.21-.09 6.21-.21s3.9-.26 5.72-.42c1.82-.16 3.56-.33 5.23-.52 1.67-.19 3.29-.4 4.86-.61 1.57-.21 3.1-.44 4.6-.72 1.5-.28 3-.6 4.42-1s2.86-.77 4.24-1.22c1.38-.45 2.71-.94 4-1.47a66.39 66.39 0 004.23-1.93c1.35-.67 2.65-1.39 3.9-2.1l2.38-1.37a120.78 120.78 0 0011.06-9.24c-1.22.57-2.46 1.11-3.76 1.66z" fill="url(#paint25_linear)"/><defs><linearGradient id="paint0_linear" x1="213.09" y1="229.619" x2="213.09" y2="188.679" gradientUnits="userSpaceOnUse"><stop stop-color="#FFA77D"/><stop offset=".29" stop-color="#FFAF88"/><stop offset=".81" stop-color="#FFC3A6"/><stop offset="1" stop-color="#FFCCB3"/></linearGradient><linearGradient id="paint1_linear" x1="351.77" y1="-10.951" x2="351.77" y2="58.219" gradientUnits="userSpaceOnUse"><stop stop-color="#FFCCB3"/><stop offset=".58" stop-color="#FFBD9C"/><stop offset="1" stop-color="#FFB591"/></linearGradient><linearGradient id="paint2_linear" x1="-740.108" y1="98.523" x2="-740.108" y2="133.109" gradientUnits="userSpaceOnUse"><stop stop-color="#FFCCB3"/><stop offset=".58" stop-color="#FFBD9C"/><stop offset="1" stop-color="#FFB591"/></linearGradient><linearGradient id="paint3_linear" x1="-630.041" y1="101.947" x2="-630.041" y2="127.54" gradientUnits="userSpaceOnUse"><stop stop-color="#FFCCB3"/><stop offset=".58" stop-color="#FFBD9C"/><stop offset="1" stop-color="#FFB591"/></linearGradient><linearGradient id="paint4_linear" x1="-630.69" y1="100.079" x2="-630.69" y2="129.131" gradientUnits="userSpaceOnUse"><stop stop-color="#FFCCB3"/><stop offset=".58" stop-color="#FFBD9C"/><stop offset="1" stop-color="#FFB591"/></linearGradient><linearGradient id="paint5_linear" x1="-1538.55" y1="102.545" x2="-1538.55" y2="139.897" gradientUnits="userSpaceOnUse"><stop stop-color="#FFCCB3"/><stop offset=".58" stop-color="#FFBD9C"/><stop offset="1" stop-color="#FFB591"/></linearGradient><linearGradient id="paint6_linear" x1="-702.535" y1="102.687" x2="-702.535" y2="127.588" gradientUnits="userSpaceOnUse"><stop stop-color="#FFCCB3"/><stop offset=".58" stop-color="#FFBD9C"/><stop offset="1" stop-color="#FFB591"/></linearGradient><linearGradient id="paint7_linear" x1="-920.162" y1="103.698" x2="-920.162" y2="129.982" gradientUnits="userSpaceOnUse"><stop stop-color="#FFCCB3"/><stop offset=".58" stop-color="#FFBD9C"/><stop offset="1" stop-color="#FFB591"/></linearGradient><linearGradient id="paint8_linear" x1="-774.916" y1="103.307" x2="-774.916" y2="128.208" gradientUnits="userSpaceOnUse"><stop stop-color="#FFCCB3"/><stop offset=".58" stop-color="#FFBD9C"/><stop offset="1" stop-color="#FFB591"/></linearGradient><linearGradient id="paint9_linear" x1="-3522.43" y1="30.911" x2="-3522.43" y2="117.374" gradientUnits="userSpaceOnUse"><stop stop-color="#FFCCB3"/><stop offset=".58" stop-color="#FFBD9C"/><stop offset="1" stop-color="#FFB591"/></linearGradient><linearGradient id="paint10_linear" x1="-5212.45" y1="23.535" x2="-5212.45" y2="142.507" gradientUnits="userSpaceOnUse"><stop stop-color="#FFCCB3"/><stop offset=".58" stop-color="#FFBD9C"/><stop offset="1" stop-color="#FFB591"/></linearGradient><linearGradient id="paint11_linear" x1="-959.33" y1="92.925" x2="-959.33" y2="143.419" gradientUnits="userSpaceOnUse"><stop stop-color="#FFCCB3"/><stop offset=".58" stop-color="#FFBD9C"/><stop offset="1" stop-color="#FFB591"/></linearGradient><linearGradient id="paint12_linear" x1="-11049.9" y1="85.498" x2="-11049.9" y2="305.458" gradientUnits="userSpaceOnUse"><stop stop-color="#FFCCB3"/><stop offset=".58" stop-color="#FFBD9C"/><stop offset="1" stop-color="#FFB591"/></linearGradient><linearGradient id="paint13_linear" x1="-14849.3" y1="-14.611" x2="-14849.3" y2="400.409" gradientUnits="userSpaceOnUse"><stop stop-color="#FFCCB3"/><stop offset=".58" stop-color="#FFBD9C"/><stop offset="1" stop-color="#FFB591"/></linearGradient><linearGradient id="paint14_linear" x1="-3831.33" y1="78.335" x2="-3831.33" y2="225.667" gradientUnits="userSpaceOnUse"><stop stop-color="#FFCCB3"/><stop offset=".58" stop-color="#FFBD9C"/><stop offset="1" stop-color="#FFB591"/></linearGradient><linearGradient id="paint15_linear" x1="-892245" y1="-1085.16" x2="-892245" y2="5780.19" gradientUnits="userSpaceOnUse"><stop stop-color="#FFCCB3"/><stop offset=".58" stop-color="#FFBD9C"/><stop offset="1" stop-color="#FFB591"/></linearGradient><linearGradient id="paint16_linear" x1="-237057" y1="-1002.99" x2="-237057" y2="5584.76" gradientUnits="userSpaceOnUse"><stop stop-color="#FFCCB3"/><stop offset=".58" stop-color="#FFBD9C"/><stop offset="1" stop-color="#FFB591"/></linearGradient><linearGradient id="paint17_linear" x1="-286025" y1="-1052.99" x2="-286025" y2="5812.83" gradientUnits="userSpaceOnUse"><stop stop-color="#FFCCB3"/><stop offset=".58" stop-color="#FFBD9C"/><stop offset="1" stop-color="#FFB591"/></linearGradient><linearGradient id="paint18_linear" x1="350.438" y1="124.45" x2="349.674" y2="149.92" gradientUnits="userSpaceOnUse"><stop stop-color="#FFBDA3"/><stop offset="1" stop-color="#FF9368"/></linearGradient><linearGradient id="paint19_linear" x1="136.53" y1="99.779" x2="112.53" y2="39.779" gradientUnits="userSpaceOnUse"><stop offset=".57"/><stop offset=".67" stop-color="#202020"/><stop offset=".89" stop-color="#5D5D5D"/><stop offset="1" stop-color="#757575"/></linearGradient><linearGradient id="paint20_linear" x1="1579.38" y1="635.969" x2="1103.16" y2="261.291" gradientUnits="userSpaceOnUse"><stop offset=".57"/><stop offset=".67" stop-color="#202020"/><stop offset=".89" stop-color="#5D5D5D"/><stop offset="1" stop-color="#757575"/></linearGradient><linearGradient id="paint21_linear" x1="2109.86" y1="808.239" x2="1493.82" y2="253.536" gradientUnits="userSpaceOnUse"><stop offset=".57"/><stop offset=".67" stop-color="#202020"/><stop offset=".89" stop-color="#5D5D5D"/><stop offset="1" stop-color="#757575"/></linearGradient><linearGradient id="paint22_linear" x1="2152.65" y1="1111.32" x2="1359.89" y2="566.377" gradientUnits="userSpaceOnUse"><stop offset=".57"/><stop offset=".67" stop-color="#202020"/><stop offset=".89" stop-color="#5D5D5D"/><stop offset="1" stop-color="#757575"/></linearGradient><linearGradient id="paint23_linear" x1="8235.56" y1="2276.89" x2="6890.21" y2="-43.886" gradientUnits="userSpaceOnUse"><stop offset=".57"/><stop offset=".67" stop-color="#202020"/><stop offset=".89" stop-color="#5D5D5D"/><stop offset="1" stop-color="#757575"/></linearGradient><linearGradient id="paint24_linear" x1="4272.71" y1="1637.07" x2="3077.21" y2="353.559" gradientUnits="userSpaceOnUse"><stop offset=".57"/><stop offset=".67" stop-color="#202020"/><stop offset=".89" stop-color="#5D5D5D"/><stop offset="1" stop-color="#757575"/></linearGradient><linearGradient id="paint25_linear" x1="3430.47" y1="2854.9" x2="3235.98" y2="1433.13" gradientUnits="userSpaceOnUse"><stop offset=".57"/><stop offset=".67" stop-color="#202020"/><stop offset=".89" stop-color="#5D5D5D"/><stop offset="1" stop-color="#757575"/></linearGradient></defs></svg>