<svg xmlns="http://www.w3.org/2000/svg" xmlns:xlink="http://www.w3.org/1999/xlink" width="357.93" height="156.45"><defs><linearGradient id="Г…ГӮГҒ_ГҸ_ГҢГҢ_ГҲ_ГӢГӮГҢГҡ_87" data-name="Г…ГӮГҒЛҡГҸп¬ӮГҢГҢЛҡГҲ вҖһпЈҝвҖЎвҖ°ГӢГӮГҢГҡ 87" x1="317.23" y1="-9.56" x2="327.23" y2="256.44" gradientTransform="matrix(-1 0 0 1 502.81 0)" gradientUnits="userSpaceOnUse"><stop offset="0" stop-color="#ffccb3"/><stop offset=".58" stop-color="#ffbd9c"/><stop offset="1" stop-color="#ffb591"/></linearGradient><linearGradient id="Г…ГӮГҒ_ГҸ_ГҢГҢ_ГҲ_ГӢГӮГҢГҡ_139" data-name="Г…ГӮГҒЛҡГҸп¬ӮГҢГҢЛҡГҲ вҖһпЈҝвҖЎвҖ°ГӢГӮГҢГҡ 139" x1="314.11" y1="138.06" x2="314.11" y2="113.45" gradientTransform="matrix(-1 0 0 1 502.81 0)" gradientUnits="userSpaceOnUse"><stop offset="0" stop-color="#ffa77d"/><stop offset=".29" stop-color="#ffaf88"/><stop offset=".81" stop-color="#ffc3a6"/><stop offset="1" stop-color="#ffccb3"/></linearGradient><linearGradient id="Г…ГӮГҒ_ГҸ_ГҢГҢ_ГҲ_ГӢГӮГҢГҡ_87-2" x1="322.06" y1="-6.58" x2="322.06" y2="35.01" xlink:href="#Г…ГӮГҒ_ГҸ_ГҢГҢ_ГҲ_ГӢГӮГҢГҡ_87"/><linearGradient id="Г…ГӮГҒ_ГҸ_ГҢГҢ_ГҲ_ГӢГӮГҢГҡ_87-4" x1="1903.96" y1="-78.16" x2="1913.96" y2="187.84" gradientTransform="matrix(-2.21 0 0 .72 4371.02 240.49)" xlink:href="#Г…ГӮГҒ_ГҸ_ГҢГҢ_ГҲ_ГӢГӮГҢГҡ_87"/><linearGradient id="Г…ГӮГҒ_ГҸ_ГҢГҢ_ГҲ_ГӢГӮГҢГҡ_87-5" x1="2076.03" y1="-85.44" x2="2086.03" y2="180.56" gradientTransform="matrix(-2.48 0 0 .94 5273.14 811.85)" xlink:href="#Г…ГӮГҒ_ГҸ_ГҢГҢ_ГҲ_ГӢГӮГҢГҡ_87"/><linearGradient id="Г…ГӮГҒ_ГҸ_ГҢГҢ_ГҲ_ГӢГӮГҢГҡ_207" data-name="Г…ГӮГҒЛҡГҸп¬ӮГҢГҢЛҡГҲ вҖһпЈҝвҖЎвҖ°ГӢГӮГҢГҡ 207" x1="181.92" y1="9.18" x2="203.81" y2="9.18" gradientTransform="rotate(176.74 249.643 48.868)" gradientUnits="userSpaceOnUse"><stop offset=".57"/><stop offset=".67" stop-color="#202020"/><stop offset=".89" stop-color="#5d5d5d"/><stop offset="1" stop-color="#757575"/></linearGradient><linearGradient id="Г…ГӮГҒ_ГҸ_ГҢГҢ_ГҲ_ГӢГӮГҢГҡ_207-2" x1="193.56" y1="4.1" x2="217.79" y2="4.1" xlink:href="#Г…ГӮГҒ_ГҸ_ГҢГҢ_ГҲ_ГӢГӮГҢГҡ_207"/><linearGradient id="Г…ГӮГҒ_ГҸ_ГҢГҢ_ГҲ_ГӢГӮГҢГҡ_207-3" x1="170.36" y1="17.11" x2="184.28" y2="17.11" xlink:href="#Г…ГӮГҒ_ГҸ_ГҢГҢ_ГҲ_ГӢГӮГҢГҡ_207"/><linearGradient id="Г…ГӮГҒ_ГҸ_ГҢГҢ_ГҲ_ГӢГӮГҢГҡ_207-4" x1="177.54" y1="13.98" x2="192.65" y2="13.98" xlink:href="#Г…ГӮГҒ_ГҸ_ГҢГҢ_ГҲ_ГӢГӮГҢГҡ_207"/><linearGradient id="Г…ГӮГҒ_ГҸ_ГҢГҢ_ГҲ_ГӢГӮГҢГҡ_207-5" x1="199.73" y1="1.27" x2="229.04" y2="1.27" xlink:href="#Г…ГӮГҒ_ГҸ_ГҢГҢ_ГҲ_ГӢГӮГҢГҡ_207"/><linearGradient id="Г…ГӮГҒ_ГҸ_ГҢГҢ_ГҲ_ГӢГӮГҢГҡ_207-6" x1="212.55" y1="-3.02" x2="244.26" y2="-3.02" xlink:href="#Г…ГӮГҒ_ГҸ_ГҢГҢ_ГҲ_ГӢГӮГҢГҡ_207"/><linearGradient id="Г…ГӮГҒ_ГҸ_ГҢГҢ_ГҲ_ГӢГӮГҢГҡ_207-7" x1="212.12" y1="-3.38" x2="254.62" y2="-3.38" xlink:href="#Г…ГӮГҒ_ГҸ_ГҢГҢ_ГҲ_ГӢГӮГҢГҡ_207"/><linearGradient id="Г…ГӮГҒ_ГҸ_ГҢГҢ_ГҲ_ГӢГӮГҢГҡ_207-8" x1="225.04" y1="-7.16" x2="268.89" y2="-7.16" xlink:href="#Г…ГӮГҒ_ГҸ_ГҢГҢ_ГҲ_ГӢГӮГҢГҡ_207"/><linearGradient id="Г…ГӮГҒ_ГҸ_ГҢГҢ_ГҲ_ГӢГӮГҢГҡ_207-9" x1="225.95" y1="-7.09" x2="278.03" y2="-7.09" xlink:href="#Г…ГӮГҒ_ГҸ_ГҢГҢ_ГҲ_ГӢГӮГҢГҡ_207"/><linearGradient id="Г…ГӮГҒ_ГҸ_ГҢГҢ_ГҲ_ГӢГӮГҢГҡ_207-10" x1="236.6" y1="-9.31" x2="284.95" y2="-9.31" xlink:href="#Г…ГӮГҒ_ГҸ_ГҢГҢ_ГҲ_ГӢГӮГҢГҡ_207"/><linearGradient id="Г…ГӮГҒ_ГҸ_ГҢГҢ_ГҲ_ГӢГӮГҢГҡ_207-11" x1="236.12" y1="-9.34" x2="297.9" y2="-9.34" xlink:href="#Г…ГӮГҒ_ГҸ_ГҢГҢ_ГҲ_ГӢГӮГҢГҡ_207"/><linearGradient id="Г…ГӮГҒ_ГҸ_ГҢГҢ_ГҲ_ГӢГӮГҢГҡ_207-12" x1="251.15" y1="-11.59" x2="311.81" y2="-11.59" xlink:href="#Г…ГӮГҒ_ГҸ_ГҢГҢ_ГҲ_ГӢГӮГҢГҡ_207"/><linearGradient id="Г…ГӮГҒ_ГҸ_ГҢГҢ_ГҲ_ГӢГӮГҢГҡ_207-13" x1="380.28" y1=".06" x2="443.96" y2="-6.09" xlink:href="#Г…ГӮГҒ_ГҸ_ГҢГҢ_ГҲ_ГӢГӮГҢГҡ_207"/><linearGradient id="Г…ГӮГҒ_ГҸ_ГҢГҢ_ГҲ_ГӢГӮГҢГҡ_207-14" x1="349.38" y1="10.57" x2="471.28" y2="10.57" xlink:href="#Г…ГӮГҒ_ГҸ_ГҢГҢ_ГҲ_ГӢГӮГҢГҡ_207"/><linearGradient id="Г…ГӮГҒ_ГҸ_ГҢГҢ_ГҲ_ГӢГӮГҢГҡ_207-15" x1="360.61" y1="14.71" x2="488.53" y2="14.71" xlink:href="#Г…ГӮГҒ_ГҸ_ГҢГҢ_ГҲ_ГӢГӮГҢГҡ_207"/><linearGradient id="Г…ГӮГҒ_ГҸ_ГҢГҢ_ГҲ_ГӢГӮГҢГҡ_207-16" x1="349.26" y1="15.75" x2="499.49" y2="15.75" xlink:href="#Г…ГӮГҒ_ГҸ_ГҢГҢ_ГҲ_ГӢГӮГҢГҡ_207"/><linearGradient id="Г…ГӮГҒ_ГҸ_ГҢГҢ_ГҲ_ГӢГӮГҢГҡ_207-17" x1="393.24" y1="23.95" x2="500.92" y2="23.95" xlink:href="#Г…ГӮГҒ_ГҸ_ГҢГҢ_ГҲ_ГӢГӮГҢГҡ_207"/><linearGradient id="Г…ГӮГҒ_ГҸ_ГҢГҢ_ГҲ_ГӢГӮГҢГҡ_207-18" x1="398.04" y1="27.79" x2="482.26" y2="27.79" xlink:href="#Г…ГӮГҒ_ГҸ_ГҢГҢ_ГҲ_ГӢГӮГҢГҡ_207"/><linearGradient id="Г…ГӮГҒ_ГҸ_ГҢГҢ_ГҲ_ГӢГӮГҢГҡ_207-19" x1="409.09" y1="31.87" x2="479.87" y2="31.87" xlink:href="#Г…ГӮГҒ_ГҸ_ГҢГҢ_ГҲ_ГӢГӮГҢГҡ_207"/><linearGradient id="Г…ГӮГҒ_ГҸ_ГҢГҢ_ГҲ_ГӢГӮГҢГҡ_207-20" x1="246.52" y1="-11.69" x2="323.34" y2="-11.69" xlink:href="#Г…ГӮГҒ_ГҸ_ГҢГҢ_ГҲ_ГӢГӮГҢГҡ_207"/><linearGradient id="Г…ГӮГҒ_ГҸ_ГҢГҢ_ГҲ_ГӢГӮГҢГҡ_207-21" x1="262.26" y1="-11.33" x2="333.71" y2="-11.33" xlink:href="#Г…ГӮГҒ_ГҸ_ГҢГҢ_ГҲ_ГӢГӮГҢГҡ_207"/><linearGradient id="Г…ГӮГҒ_ГҸ_ГҢГҢ_ГҲ_ГӢГӮГҢГҡ_207-22" x1="431.52" y1="169.31" x2="505.86" y2="169.31" gradientTransform="rotate(-179.75 332.169 140.736)" xlink:href="#Г…ГӮГҒ_ГҸ_ГҢГҢ_ГҲ_ГӢГӮГҢГҡ_207"/><linearGradient id="Г…ГӮГҒ_ГҸ_ГҢГҢ_ГҲ_ГӢГӮГҢГҡ_207-23" x1="269.18" y1="-66.76" x2="335.26" y2="-66.76" gradientTransform="matrix(-.99 .06 -.07 -1.01 453.21 23.92)" xlink:href="#Г…ГӮГҒ_ГҸ_ГҢГҢ_ГҲ_ГӢГӮГҢГҡ_207"/><linearGradient id="Г…ГӮГҒ_ГҸ_ГҢГҢ_ГҲ_ГӢГӮГҢГҡ_207-24" x1="317.66" y1="-5.75" x2="394.19" y2="-5.75" xlink:href="#Г…ГӮГҒ_ГҸ_ГҢГҢ_ГҲ_ГӢГӮГҢГҡ_207"/><linearGradient id="Г…ГӮГҒ_ГҸ_ГҢГҢ_ГҲ_ГӢГӮГҢГҡ_207-25" x1="483.43" y1="203.9" x2="547.63" y2="203.9" gradientTransform="rotate(-179.04 348.453 159.187)" xlink:href="#Г…ГӮГҒ_ГҸ_ГҢГҢ_ГҲ_ГӢГӮГҢГҡ_207"/><linearGradient id="Г…ГӮГҒ_ГҸ_ГҢГҢ_ГҲ_ГӢГӮГҢГҡ_207-26" x1="296.56" y1="-10.5" x2="366.58" y2="-10.5" gradientTransform="rotate(176.74 250.113 48.146)" xlink:href="#Г…ГӮГҒ_ГҸ_ГҢГҢ_ГҲ_ГӢГӮГҢГҡ_207"/><linearGradient id="Г…ГӮГҒ_ГҸ_ГҢГҢ_ГҲ_ГӢГӮГҢГҡ_207-27" x1="335.67" y1="-4.24" x2="411.79" y2="-4.24" xlink:href="#Г…ГӮГҒ_ГҸ_ГҢГҢ_ГҲ_ГӢГӮГҢГҡ_207"/><linearGradient id="Г…ГӮГҒ_ГҸ_ГҢГҢ_ГҲ_ГӢГӮГҢГҡ_207-28" x1="331.89" y1=".15" x2="424.1" y2=".15" xlink:href="#Г…ГӮГҒ_ГҸ_ГҢГҢ_ГҲ_ГӢГӮГҢГҡ_207"/><linearGradient id="Г…ГӮГҒ_ГҸ_ГҢГҢ_ГҲ_ГӢГӮГҢГҡ_207-29" x1="345.7" y1="2.72" x2="442.37" y2="2.72" xlink:href="#Г…ГӮГҒ_ГҸ_ГҢГҢ_ГҲ_ГӢГӮГҢГҡ_207"/><clipPath id="clip-path"><path class="cls-1" d="M349.79 75.14s-10.7.6-39.49-14.39-95.4-44.83-172.11-26.13S83 69.37 10.06 80C22 79.31 37 74.93 37 74.93s47.71 28 113.53 35.35 126-4.93 159.31-24.3c13.36-5.08 18.39-5.6 37.79-3.67 7.42 2.28 9.56-4.99 2.16-7.17z"/></clipPath><style>.cls-1{fill:url(#Г…ГӮГҒ_ГҸ_ГҢГҢ_ГҲ_ГӢГӮГҢГҡ_87)}</style></defs><g style="isolation:isolate"><g id="Layer_2" data-name="Layer 2"><g id="_04" data-name="4"><path d="M355.11 81.23s0 8.29-15.81 11.34c-20.27 2.52-22.39 16.13-40.77 26.06-34.25 18.49-127.21 37.37-220.86-3-59.28-28.58-55.32-38-55.32-38l85.37-51.44s116.64-20.5 152.37 2.46 95.02 52.58 95.02 52.58z" fill="url(#Г…ГӮГҒ_ГҸ_ГҢГҢ_ГҲ_ГӢГӮГҢГҡ_139)"/><path d="M355.11 81.23s.73-7.79-12.55-15.66-2.11-19.13-70.56-49.9c-63.6-28.58-164.07-10.61-194 13C49.48 51.19 32.94 68.65 6.38 80c7.42 0 20.33-2.84 32.06-5.11 81.26-6.27 255.56-5.17 316.67 6.34z" fill="url(#Г…ГӮГҒ_ГҸ_ГҢГҢ_ГҲ_ГӢГӮГҢГҡ_87-2)"/><path class="cls-1" d="M349.79 75.14s-10.7.6-39.49-14.39-95.4-44.83-172.11-26.13S83 69.37 10.06 80C22 79.31 37 74.93 37 74.93s47.71 28 113.53 35.35 126-4.93 159.31-24.3c13.36-5.08 18.39-5.6 37.79-3.67 7.42 2.28 9.56-4.99 2.16-7.17z"/><g clip-path="url(#clip-path)"><ellipse cx="184.21" cy="74.93" rx="147.23" ry="48.13" fill="url(#Г…ГӮГҒ_ГҸ_ГҢГҢ_ГҲ_ГӢГӮГҢГҡ_87-4)"/><ellipse cx="192.55" cy="93.5" rx="165.38" ry="62.96" style="mix-blend-mode:multiply" fill="url(#Г…ГӮГҒ_ГҸ_ГҢГҢ_ГҲ_ГӢГӮГҢГҡ_87-5)"/></g><path d="M131.54 108.7h118V33.16c-79.67-13.67-118 0-118 0z" fill="none"/><path d="M35.18 76.06c4.51 2.74 9.23 5.25 14.13 7.66 2.46 1.2 4.92 2.4 7.45 3.53s5.07 2.28 7.66 3.39c5.15 2.21 10.49 4.27 16 6.21 2.69 1 5.48 1.92 8.27 2.84l4.18 1.37 4.27 1.28c5.65 1.75 11.53 3.24 17.4 4.73l9 2c3 .67 6.11 1.13 9.16 1.71l4.61.81 4.68.65 4.69.65 2.35.32.58.08.72.07 1.16.12 9.24.91c3.11.29 6.41.44 9.6.66 1.61.1 3.23.23 4.83.29l4.8.14c3.2.07 6.39.25 9.6.18s6.41 0 9.61-.1l9.59-.43c3.2-.13 6.36-.46 9.55-.68s6.34-.59 9.48-1l4.72-.56c1.57-.2 3.12-.47 4.67-.7 3.1-.5 6.25-.89 9.29-1.53s6.14-1.12 9.14-1.8 6-1.4 8.95-2.14l8.74-2.44 8.49-2.74c2.78-1 5.46-2 8.19-3s5.23-2.25 7.84-3.37 5-2.45 7.46-3.67 4.67-2.66 7-4l-.55.27c1.33-.55 2.66-1.1 4-1.61s2.69-1 4-1.43 2.71-.84 4.11-1.15 2.84-.56 4.34-.75 3.06-.28 4.64-.37 3.21-.11 4.85-.12h9.95c-3.16-.67-6.38-1.21-9.67-1.66-1.65-.21-3.33-.38-5-.52-.86 0-1.72-.1-2.6-.12s-1.76-.05-2.65 0a41.78 41.78 0 00-5.36.42c-1.77.24-3.48.59-5.13 1-3.28.81-6.27 1.82-9.2 2.82h-.1l-.46.23c-2.33 1.18-4.61 2.38-7 3.52s-4.87 2.19-7.37 3.22-5.09 2-7.7 2.91l-8 2.64-8.19 2.39-8.42 2.1c-2.84.63-5.73 1.2-8.58 1.82s-5.81 1.07-8.71 1.61-5.88.9-8.82 1.35c-1.48.2-2.95.44-4.44.61l-4.48.49c-3 .32-6 .7-9 .89s-6 .53-9 .65l-9.1.4-9.12.11c-3 .1-6.08 0-9.12-.09l-4.6-.13c-1.51 0-3-.15-4.5-.22-3-.18-6-.27-9-.53l-9.27-.83-1.16-.1h-.43l-.56-.07-2.23-.29-4.45-.57-4.47-.57-4.39-.74c-2.92-.52-5.9-.93-8.78-1.54l-8.67-1.77c-5.7-1.32-11.43-2.62-17-4.2L96.7 96.4l-4.11-1.25c-2.75-.82-5.5-1.64-8.16-2.57-5.43-1.76-10.67-3.68-15.89-5.64-2.61-1-5.21-2-7.74-3s-5.07-2.11-7.56-3.2c-4.94-2.21-9.88-4.48-14.46-6.89z" fill="#fee1d0"/><path d="M354.16 75.38a31.7 31.7 0 01-4.27-.5A83 83 0 01338.68 72 140 140 0 01323 65.58c-5.83-2.69-11.7-6.14-18.72-9.77s-14.8-7.34-23.59-10.88a256.24 256.24 0 00-29-9.89c-5.27-1.47-10.75-2.81-16.43-4s-11.53-2.19-17.54-2.95-12.16-1.31-18.37-1.66-12.49-.35-18.76-.18A223.69 223.69 0 00144 30.71c-2.89.68-5.7 1.26-8.63 2l-8.06 2.18-4 1.08-4 1.24c-2.63.82-5.27 1.62-7.83 2.46a178.32 178.32 0 00-27.27 11.7c-8 4.25-14.54 8.72-21.18 12.31-1.61.94-3.31 1.75-5 2.55l-2.47 1.19-2.53 1.06c-1.7.67-3.25 1.42-4.95 2l-4.9 1.68C40 73.22 36.82 74 34 74.84s-5.67 1.35-8.12 2l-3.51.82-3.15.62-5 1-4.16.72 4.27-.56 5.14-.67 3.27-.43 3.64-.63c2.55-.48 5.44-.91 8.49-1.55l4.72-1.08c1.63-.39 3.37-.72 5-1.25a117.64 117.64 0 0021.54-8c7.27-3.5 14.22-7.75 22.13-11.65A199.77 199.77 0 01115 43.58c2.48-.76 5-1.47 7.54-2.22l3.8-1.12 4-1 8.15-2.06c2.53-.64 5.37-1.21 8.06-1.83a210.26 210.26 0 0134.39-4 218.33 218.33 0 0135 1.56 251.93 251.93 0 0132.65 6.21 298.81 298.81 0 0128.62 9c8.75 3.27 16.77 6.65 23.94 10 3.62 1.64 6.88 3.31 10.24 4.86s6.53 3 9.63 4.23A139.12 139.12 0 00338 72.85a80 80 0 0011.84 2.29 33.78 33.78 0 004.32.24z" fill="#f59464"/><path d="M272 15.67l-2.92-1.31c-1-.42-2.1-1-3.52-1.55l-5-1.92c-1.9-.7-4.09-1.38-6.42-2.17s-5-1.47-7.84-2.24a194.84 194.84 0 00-19.77-4 260.18 260.18 0 00-52-2 287 287 0 00-57.75 9.34 171.53 171.53 0 00-26.08 9.6 90.85 90.85 0 00-11 6.23c-3.3 2.33-6 4.67-8.89 7C59.52 41.81 49.77 50.68 40.69 58c-4.55 3.63-8.84 6.9-12.83 9.71s-7.73 5.11-10.95 6.93-5.82 3.2-7.7 4.07L6.38 80l3-1.27c2-.8 4.73-2.07 8.11-3.81S24.76 71 29 68.3s8.83-5.88 13.54-9.47C52 51.64 62.39 43 73.72 33.92c2.86-2.26 5.73-4.64 8.8-6.76a89.36 89.36 0 0110.61-5.89 168.88 168.88 0 0125.44-9.16 278.3 278.3 0 0156.34-9.45c9.33-.59 18.42-.81 27-.57S218.62 3 226 3.89s13.95 2.18 19.7 3.46c2.85.68 5.5 1.34 7.92 2s4.59 1.33 6.52 2l5.11 1.75c1.48.52 2.68 1 3.68 1.41z" fill="#f5a47d"/><path d="M319 74.86s-21.78 4.86-18.06 20.62C296 92.9 294.13 80.45 319 74.86z" fill="url(#Г…ГӮГҒ_ГҸ_ГҢГҢ_ГҲ_ГӢГӮГҢГҡ_207)"/><path d="M307.52 78.75s-23.23 13.69-22.12 24.54c-4.22-10.54 4.97-18.17 22.12-24.54z" fill="url(#Г…ГӮГҒ_ГҸ_ГҢГҢ_ГҲ_ГӢГӮГҢГҡ_207-2)"/><path d="M330.24 69.76S317.8 73.51 319.08 83c-3.34-1.54-5.08-9.39 11.16-13.24z" fill="url(#Г…ГӮГҒ_ГҸ_ГҢГҢ_ГҲ_ГӢГӮГҢГҡ_207-3)"/><path d="M323.19 72.13S308.47 81 309.65 87.84c-3.22-6.57 2.51-11.49 13.54-15.71z" fill="url(#Г…ГӮГҒ_ГҸ_ГҢГҢ_ГҲ_ГӢГӮГҢГҡ_207-4)"/><path d="M301.52 81.91s-21.92 6.58-26.65 24.83c-4.08-3.16-1.32-18.25 26.65-24.83z" fill="url(#Г…ГӮГҒ_ГҸ_ГҢГҢ_ГҲ_ГӢГӮГҢГҡ_207-5)"/><path d="M288.92 86.11s-27.58 14.83-30.25 26.66c-.5-11.51 11.17-19.77 30.25-26.66z" fill="url(#Г…ГӮГҒ_ГҸ_ГҢГҢ_ГҲ_ГӢГӮГҢГҡ_207-6)"/><path d="M289.35 86.24s-25.25 6.65-40.82 27.67c-2.06-3.86 9.69-21.29 40.82-27.67z" fill="url(#Г…ГӮГҒ_ГҸ_ГҢГҢ_ГҲ_ГӢГӮГҢГҡ_207-7)"/><path d="M276.6 89.57s-1.3.61-3.51 1.74c-1.1.56-2.46 1.26-4 2.09s-3.33 1.79-5.23 2.86-3.92 2.23-6 3.46-4.08 2.52-6 3.82-3.8 2.62-5.55 3.94-3.39 2.67-4.91 4a33 33 0 00-7 8.19 25.74 25.74 0 012-4.75 29.39 29.39 0 013-4.39 36.7 36.7 0 013.88-4 46.63 46.63 0 014.87-3.82 69.33 69.33 0 016-3.7 117.07 117.07 0 0114.61-6.71c2.61-.99 5.24-1.9 7.84-2.73z" fill="url(#Г…ГӮГҒ_ГҸ_ГҢГҢ_ГҲ_ГӢГӮГҢГҡ_207-8)"/><path d="M275.72 90.11a105.24 105.24 0 00-10.49 3.72c-2.11.85-4.45 1.86-7 3s-5.17 2.51-7.92 4-5.6 3.21-8.45 5.09q-2.15 1.42-4.29 3c-1.42 1-2.84 2.12-4.24 3.25s-2.79 2.31-4.15 3.54-2.69 2.51-4 3.84a60.58 60.58 0 013.54-4.94 59.19 59.19 0 0114.81-13.24 66.56 66.56 0 016.55-3.6 76.3 76.3 0 017.49-3.11c2.66-1 5.49-1.83 8.51-2.6s6.25-1.39 9.64-1.95z" fill="url(#Г…ГӮГҒ_ГҸ_ГҢГҢ_ГҲ_ГӢГӮГҢГҡ_207-9)"/><path d="M265.22 93s-2.46 1-6.26 2.62c-1.9.83-4.14 1.83-6.57 3s-5.06 2.41-7.75 3.8-5.43 2.89-8.1 4.47-5.27 3.24-7.64 4.94a54.56 54.56 0 00-6.31 5.16 22.73 22.73 0 00-4.15 5.2 20.92 20.92 0 011.93-4.89 24.49 24.49 0 013.18-4.48 35.48 35.48 0 014.37-4.14 48.9 48.9 0 015.49-3.78 69.83 69.83 0 016.53-3.42q3.52-1.61 7.51-3.06c2.66-1 5.47-1.89 8.44-2.78s6.11-1.82 9.33-2.64z" fill="url(#Г…ГӮГҒ_ГҸ_ГҢГҢ_ГҲ_ГӢГӮГҢГҡ_207-10)"/><path d="M265.71 93.18s-2.1.37-5.66 1.29c-1.78.46-3.93 1.06-6.36 1.8s-5.14 1.65-8.06 2.73-6 2.36-9.31 3.86q-2.46 1.13-5 2.41c-1.69.87-3.41 1.79-5.14 2.78s-3.47 2-5.22 3.13-3.49 2.26-5.23 3.47-3.46 2.49-5.17 3.83-3.4 2.75-5 4.23c-.34-1.18.72-3.3 3.13-5.88a42.81 42.81 0 014.62-4.21 69.82 69.82 0 016.64-4.65 86 86 0 018.6-4.65A100 100 0 01239 99.11q2.85-1 5.95-1.82c2.06-.58 4.2-1.11 6.42-1.61s4.52-1 6.91-1.38 4.88-.8 7.43-1.12z" fill="url(#Г…ГӮГҒ_ГҸ_ГҢГҢ_ГҲ_ГӢГӮГҢГҡ_207-11)"/><path d="M250.78 95.49s-2.68.8-7.39 2.41c-1.18.41-2.55.88-4 1.42s-3.15 1.14-4.9 1.8-3.57 1.4-5.41 2.17-3.66 1.59-5.42 2.43-3.46 1.69-5.11 2.54-3.27 1.69-4.84 2.52-3.11 1.66-4.61 2.5-3 1.69-4.38 2.55a69.81 69.81 0 00-7.72 5.27 25.87 25.87 0 00-5.23 5.44 21.4 21.4 0 012.05-3.94 26.37 26.37 0 012.9-3.63 38.83 38.83 0 013.61-3.36c1.3-1.08 2.71-2.12 4.21-3.14 1-.68 2.05-1.34 3.14-2s2.24-1.31 3.44-2 2.48-1.32 3.82-2 2.76-1.34 4.27-2 3.15-1.33 4.87-2 3.54-1.27 5.41-1.87 3.75-1.16 5.64-1.69 3.73-1 5.53-1.43 3.54-.81 5.22-1.15 3.31-.57 4.9-.84z" fill="url(#Г…ГӮГҒ_ГҸ_ГҢГҢ_ГҲ_ГӢГӮГҢГҡ_207-12)"/><path d="M140 98.5s-1.74-.24-5-.49c-1.64-.13-3.7-.26-6.18-.34-1.24 0-2.59-.08-4-.09s-3 0-4.62 0c-2.61 0-5.44.09-8.42.19s-6.06.23-9.25.4c-1.57.08-3.17.18-4.78.28s-3.23.23-4.87.37-3.31.29-5 .46q-4.42.45-9 1.12c-2.29.33-4.61.72-7 1.15s-4.71.93-7.09 1.46-4.77 1.13-7.17 1.77-4.81 1.35-7.22 2.1a66.73 66.73 0 0110.07-4.82c2-.78 4.18-1.53 6.53-2.23s4.9-1.35 7.62-1.94c2.18-.46 4.48-.89 6.93-1.26s5.09-.7 7.89-1 5.81-.54 9-.74l4.89-.26 5.13-.2c1.75-.06 3.54-.1 5.37-.13s3.7 0 5.61 0 3.87 0 5.83.09 3.88.16 5.8.29 3.74.3 5.6.48 3.74.39 5.62.62c1.19.29 2.45.56 3.75.81s2.65.49 4 .7 2.84.42 4.32.61 3 .35 4.56.51 3.15.31 4.78.45 3.28.28 5 .41 3.42.26 5.19.37 3.57.23 5.41.33c3.67.21 7.47.4 11.3.57s7.64.34 11.43.48 7.53.23 11.22.25 7.32 0 10.88-.17 7-.33 10.33-.6q3.75-.3 7.25-.7c2.33-.26 4.57-.57 6.71-.91a93.1 93.1 0 0011.44-2.53c.07.33-1.47 1.13-4.72 2.09-1.63.48-3.68 1-6.17 1.49s-5.43 1-8.81 1.45c-2.71.36-5.7.68-9 1s-6.88.51-10.78.66-8.08.22-12.58.17c-2.25 0-4.58-.08-7-.15s-4.91-.17-7.49-.28l-8-.36c-2.76-.14-5.59-.28-8.47-.45q-5.73-.33-11.71-.78l-6-.51-6.15-.58q-3.12-.32-6.35-.69c-2.22-.33-4.41-.62-6.63-.92z" fill="url(#Г…ГӮГҒ_ГҸ_ГҢГҢ_ГҲ_ГӢГӮГҢГҡ_207-13)"/><path d="M132.8 96a6.6 6.6 0 00-1.89-.52c-1.22-.24-3.1-.53-5.76-.79-1.33-.13-2.86-.24-4.58-.34s-3.61-.19-5.68-.27-4.34-.13-6.8-.17-5.14-.05-8 0-6 0-9.23.12c-1.64 0-3.33.09-5.07.16l-5.32.24c-1.78.08-3.57.16-5.38.26s-3.63.21-5.5.34-3.8.3-5.77.48c-2.47.23-5 .49-7.69.8s-5.43.64-8.29 1-5.65 1-8.5 1.57-5.74 1.27-8.7 2c1.24-.62 2.84-1.31 4.77-2s4.21-1.5 6.82-2.21a90.24 90.24 0 018.91-1.9q2.46-.41 5.07-.78t5.36-.68c2.43-.27 5-.52 7.57-.72s5.4-.36 8.37-.5c1.5-.07 3.06-.16 4.68-.25l5-.26c1.69-.08 3.39-.15 5.11-.21s3.44-.09 5.16-.11 3.44 0 5.15 0 3.41 0 5.1.11 3.36.16 5 .27 3.31.25 5 .4 3.3.33 5 .53 3.3.44 4.94.69 3.28.53 4.86.82 3.13.59 4.66.9c1.93.41 3.62.74 5.11 1l3.85.71 4.59.83 1.93.34-3.06-.26-6.71-.58c-2.48-.22-5-.45-6.84-.64z" fill="url(#Г…ГӮГҒ_ГҸ_ГҢГҢ_ГҲ_ГӢГӮГҢГҡ_207-14)"/><path d="M121.21 93.79a22.35 22.35 0 00-3.26-.56c-1-.14-2.27-.29-3.74-.45s-3.16-.33-5-.49-4-.33-6.31-.5-4.85-.32-7.62-.46-5.67-.28-8.77-.38c-1.55-.06-3.14-.1-4.75-.14l-4.89-.1-4.91-.08h-9.89q-3.77.06-7.67.21c-2.6.1-5.25.23-7.93.4s-5.4.37-8.14.62-5.52.52-8.32.84-5.62.68-8.45 1.08-5.68.86-8.54 1.35c3.26-.74 7.07-1.57 11.37-2.4 2.16-.41 4.43-.83 6.83-1.24s4.9-.79 7.53-1.16 5.36-.71 8.2-1 5.8-.57 8.85-.78q3.93-.28 8.09-.43c2.78-.1 5.71-.16 8.83-.18h10.15c1.78 0 3.59.06 5.42.11s3.69.1 5.54.18 3.7.17 5.52.27 3.62.23 5.4.36 3.52.29 5.24.46 3.42.36 5.1.58 3.35.44 5 .7 3.33.56 5 .88l5.45 1.07 4 .83 6.56 1.42-2.92-.17-6.64-.39c-2.47-.14-5.05-.27-7-.34z" fill="url(#Г…ГӮГҒ_ГҸ_ГҢГҢ_ГҲ_ГӢГӮГҢГҡ_207-15)"/><path d="M130.69 93.67l-2.17-.55c-1.32-.35-3.12-.82-5-1.34s-3.84-1.09-5.51-1.66a21.11 21.11 0 01-3.87-1.62 17 17 0 00-3.44-1.34c-.93-.29-2.08-.59-3.46-.9s-3-.62-4.89-.92-4.06-.6-6.52-.87c-1.22-.13-2.52-.26-3.88-.38s-2.78-.24-4.26-.34l-4.5-.29c-1.53-.09-3.1-.17-4.7-.23s-3.21-.11-4.81-.15l-4.8-.08c-1.58 0-3.13-.06-4.7-.08s-3.13 0-4.73 0-3.24.07-4.9.14q-2.8.12-5.75.32c-1.95.13-3.95.3-6 .49s-4.13.42-6.25.69c-2.65.33-5.37.71-8.14 1.16s-5.62 1-8.51 1.52-5.86 1.2-8.87 1.91S5 90.59 1.82 91.44c3.26-.75 7.37-1.49 12.12-2.16 2.38-.34 4.93-.66 7.61-1s5.51-.57 8.45-.8 6-.44 9.15-.6 6.41-.28 9.73-.35c2.84-.06 5.74-.07 8.68 0 1.47 0 2.95 0 4.44.07l4.54.15c1.53.06 3.11.12 4.73.2l5 .23c1.72.08 3.48.18 5.25.29s3.55.24 5.31.38 3.53.29 5.27.45 3.44.35 5.1.55 3.26.42 4.83.65 3.08.48 4.55.75 2.9.56 4.29.86 2.76.64 4.1 1 2.46.62 3.68.91 2.45.56 3.67.82l3.65.74 3.45.69c2.24.43 4.36.81 6.39 1.13s4 .58 5.88.78 3.72.34 5.54.41 3.6.09 5.36.06" fill="url(#Г…ГӮГҒ_ГҸ_ГҢГҢ_ГҲ_ГӢГӮГҢГҡ_207-16)"/><path d="M108 87.15a4.31 4.31 0 00-1-.83 18.3 18.3 0 00-4.36-1.89c-1.12-.36-2.5-.72-4.18-1.08s-3.66-.71-6-1c-1.14-.16-2.35-.32-3.62-.46s-2.61-.28-4-.4-2.82-.25-4.3-.36-3-.22-4.61-.32l-4.78-.29-4.85-.29c-1.62-.09-3.27-.17-5-.23s-3.44-.09-5.24-.09-3.66 0-5.57.07c-1.66 0-3.38.12-5.15.2l-4.76.26-5 .33c-1.72.12-3.48.26-5.29.41q-3.37.28-7 .66c-2.38.24-4.84.51-7.36.82s-5.12.63-7.79 1-5.4.76-8.21 1.18l7.84-.59 7.8-.59c2.59-.19 5.17-.37 7.76-.53s5.17-.32 7.76-.45q3.09-.15 6.21-.27t6.22-.17c2.08 0 4.17-.07 6.25-.07 2.39 0 4.78 0 7.2.09s4.85.18 7.34.33l3.84.23 4.06.25c1.4.08 2.84.18 4.31.28s3 .2 4.49.32 3.08.26 4.63.4 3.12.3 4.7.47 3.15.34 4.68.53 3 .4 4.5.62 2.91.46 4.31.71 2.83.47 4.17.75z" fill="url(#Г…ГӮГҒ_ГҸ_ГҢГҢ_ГҲ_ГӢГӮГҢГҡ_207-17)"/><path d="M103.07 85.11a19.2 19.2 0 00-2.2-1c-.77-.31-1.78-.66-3.06-1s-2.84-.81-4.68-1.25-3.93-.86-6.26-1.31l-3.64-.63c-1.25-.22-2.56-.43-3.91-.65l-4.15-.69-4.29-.72-4.37-.73c-1.48-.23-3-.46-4.5-.66s-3.09-.38-4.71-.53c-1.4-.12-2.83-.23-4.28-.32s-2.91-.15-4.4-.19-3-.06-4.5-.07-3.08 0-4.67 0-3.22 0-4.9.1l-3.86.14-4 .18-4.16.27c-1.41.11-2.84.22-4.29.36l4.72.11q2.36.06 4.71.15l4.67.19 4.62.21c2 .09 4.05.18 6.05.29s4 .23 6 .37 4 .29 6 .48c2.37.23 4.73.5 7 .79s4.64.62 7 .94 4.85.6 7.35.89l3.75.42 3.71.43c2.47.3 4.89.62 7.23 1s4.54.73 6.54 1.14 3.83.84 5.48 1.29z" fill="url(#Г…ГӮГҒ_ГҸ_ГҢГҢ_ГҲ_ГӢГӮГҢГҡ_207-18)"/><path d="M91.8 81.52a19.94 19.94 0 00-2.66-1.14c-.93-.33-2.11-.72-3.58-1.15s-3.19-.92-5.19-1.43l-3.18-.8-3.54-.87c-1.23-.3-2.5-.61-3.82-.91s-2.69-.61-4.11-.9-2.9-.55-4.45-.79q-2-.32-4.2-.57a127.013 127.013 0 00-9.04-.71c-1.61-.07-3.16-.12-4.79-.15l-5.05-.1h-5.44l-5.94.06c-2.07 0-4.21.1-6.43.2 1.31.07 2.61.14 3.9.23s2.58.17 3.86.27l3.79.28 3.69.28 4.82.4 4.74.39c1.58.13 3.15.28 4.72.44s3.15.34 4.71.54 3.12.4 4.65.63c2.45.38 4.82.79 7.14 1.23s4.64.87 7 1.28 4.6.77 6.77 1.15 4.28.71 6.23 1.05 3.77.71 5.4 1.09z" fill="url(#Г…ГӮГҒ_ГҸ_ГҢГҢ_ГҲ_ГӢГӮГҢГҡ_207-19)"/><path d="M255.44 95.78s-1.29 0-3.66.33-5.81.78-10.11 1.69c-1.43.31-3 .66-4.58 1.06s-3.35.86-5.15 1.37-3.71 1.08-5.69 1.72-4 1.37-6.16 2.19a173 173 0 00-29.51 14.94c-1.85 1.2-3.67 2.45-5.38 3.76s-3.34 2.65-4.93 4c.76-.82 1.47-1.64 2.16-2.46s1.38-1.65 2.07-2.46 1.42-1.62 2.19-2.41c6.25-6.43 15.79-12.52 27.28-16.86a70.15 70.15 0 017.07-2.24c2.44-.64 5-1.18 7.6-1.65s5.37-.9 8.2-1.27 5.79-.7 8.88-1 6.33-.49 9.72-.71z" fill="url(#Г…ГӮГҒ_ГҸ_ГҢГҢ_ГҲ_ГӢГӮГҢГҡ_207-20)"/><path d="M239.74 96.92s-2.05.09-5.7.64c-1.82.28-4 .68-6.63 1.24s-5.5 1.3-8.72 2.28-6.75 2.22-10.53 3.75q-2.83 1.15-5.84 2.53c-2 .91-4 1.89-6.13 2.94q-4.19 2.06-8.55 4.49-2.17 1.23-4.39 2.55c-2.22 1.34-4.47 2.76-6.71 4.27s-4.46 3.14-6.69 4.86c1.15-1.47 2.33-2.87 3.56-4.19s2.5-2.57 3.8-3.76 2.64-2.31 4-3.38 2.75-2.07 4.18-3c1.91-1.28 3.89-2.49 6-3.65s4.24-2.25 6.51-3.25a73 73 0 017-2.71q3.68-1.2 7.63-2.09c2.64-.6 5.39-1.1 8.26-1.54s5.87-.8 9-1.12 6.49-.62 9.95-.86z" fill="url(#Г…ГӮГҒ_ГҸ_ГҢГҢ_ГҲ_ГӢГӮГҢГҡ_207-21)"/><path d="M233 98.2s-2 0-5.75.37c-1.85.19-4.12.48-6.76.93s-5.67 1.08-9.05 2-7.11 2-11.14 3.44q-3 1.08-6.25 2.35t-6.56 2.71c-3 1.26-6 2.62-9.19 4.13s-6.38 3.15-9.69 5q-2.48 1.35-5 2.84t-5.06 3.1q3.24-3.18 6.56-5.87a97.01 97.01 0 016.75-5q2.28-1.51 4.64-2.85c2.1-1.2 4.25-2.31 6.49-3.38s4.57-2.09 7-3 4.92-1.8 7.5-2.54 5.24-1.38 8-1.89 5.57-.92 8.5-1.23 6-.53 9.13-.7 6.42-.34 9.88-.41z" fill="url(#Г…ГӮГҒ_ГҸ_ГҢГҢ_ГҲ_ГӢГӮГҢГҡ_207-22)"/><path d="M190.19 100.72s-3 .44-7.77 1.42c-2.38.49-5.19 1.1-8.28 1.83s-6.44 1.52-9.91 2.42-7 1.81-10.6 2.85c-2.67.78-5.32 1.62-7.89 2.54-1.93.68-3.81 1.41-5.64 2.17a82.17 82.17 0 00-7.76 3.68 46.63 46.63 0 00-6.57 4.16 54.32 54.32 0 0113.28-10.66 57.34 57.34 0 015.2-2.61 71.15 71.15 0 017.76-2.84c2.74-.84 5.61-1.57 8.59-2.21s6-1.2 9.22-1.65 6.44-.77 9.83-1 6.9-.19 10.54-.1z" fill="url(#Г…ГӮГҒ_ГҸ_ГҢГҢ_ГҲ_ГӢГӮГҢГҡ_207-23)"/><path d="M184.5 101.25a49.72 49.72 0 00-5.69 0c-1.83.08-4.07.25-6.68.56s-5.61.77-8.94 1.39-7 1.38-11 2.32q-3 .67-6.16 1.49c-3.52.9-7.21 1.92-11 3.13q-2.87.9-5.87 1.93c-3 1-6.21 2.15-9.55 3.37s-7 2.5-10.76 3.9a13 13 0 013.59-2.78 73.57 73.57 0 016.88-3.53c1.78-.84 3.75-1.71 5.88-2.57 2.8-1.16 5.91-2.31 9.33-3.4s7.22-2.13 11.22-3.06c2-.48 4-.94 6.08-1.35s4.16-.8 6.27-1.13 4.23-.61 6.36-.82 4.3-.34 6.49-.4 4.41 0 6.66.16 4.56.41 6.89.79z" fill="url(#Г…ГӮГҒ_ГҸ_ГҢГҢ_ГҲ_ГӢГӮГҢГҡ_207-24)"/><path d="M214.43 100.91s-2 0-5.54.4c-1.76.19-3.9.47-6.38.9s-5.27 1-8.33 1.78q-2.3.58-4.76 1.3c-1.65.47-3.35 1-5.09 1.56s-3.52 1.15-5.33 1.85-3.71 1.4-5.62 2.18-3.86 1.64-5.82 2.55q-2.22 1-4.46 2.17c-1.49.75-3 1.54-4.48 2.35s-3 1.65-4.43 2.5-2.9 1.72-4.33 2.62c.93-.84 1.89-1.67 2.89-2.5s2-1.65 3.08-2.47 2.15-1.64 3.27-2.43 2.26-1.58 3.42-2.34 2.36-1.49 3.57-2.2 2.45-1.38 3.7-2 2.52-1.29 3.82-1.9 2.62-1.18 4-1.74 2.72-1.07 4.11-1.55 2.83-.94 4.28-1.35a63.14 63.14 0 019-1.88 64.1 64.1 0 019.47-.55 85.67 85.67 0 019.96.75z" fill="url(#Г…ГӮГҒ_ГҸ_ГҢГҢ_ГҲ_ГӢГӮГҢГҡ_207-25)"/><path d="M206.56 100.39a54.14 54.14 0 00-5.68.26c-1.82.16-4 .44-6.63.88s-5.52 1.07-8.74 1.9-6.72 1.85-10.41 3c-1.85.6-3.73 1.23-5.67 1.91s-3.91 1.38-5.93 2.16-4.09 1.61-6.19 2.52a156.24 156.24 0 00-9.63 4.57q-2.44 1.27-4.94 2.67t-5 3c.25-1.07 1.46-2.59 3.5-4.34a51.27 51.27 0 018.55-5.73 88.11 88.11 0 018.16-3.94c3-1.29 6.35-2.55 9.93-3.73s7.5-2.37 11.65-3.33c2.07-.48 4.2-.9 6.37-1.25s4.41-.61 6.68-.78 4.56-.23 6.9-.2 4.69.18 7.08.43z" fill="url(#Г…ГӮГҒ_ГҸ_ГҢГҢ_ГҲ_ГӢГӮГҢГҡ_207-26)"/><path d="M166.42 100.59s-3.06.42-8 1.25c-2.48.41-5.47.91-8.8 1.49s-7.05 1.19-11 1.9c-2.61.47-5.29 1-8 1.53-2.22.45-4.47.93-6.72 1.43s-4.51 1-6.78 1.57-4.55 1.13-6.84 1.72c-3.44.89-6.84 1.84-10.09 2.87a93.59 93.59 0 00-9.06 3.31c3-1.63 6-3.1 9.11-4.45s6.15-2.57 9.19-3.67c2-.74 4-1.43 6-2.07s4-1.23 6.15-1.78 4.27-1.06 6.49-1.52q4.05-.86 8.23-1.48c1.66-.25 3.32-.47 5-.68s3.33-.38 5-.54 3.3-.3 5-.42 3.32-.21 5-.29 3.34-.13 5-.16 3.41-.03 5.12-.01z" fill="url(#Г…ГӮГҒ_ГҸ_ГҢГҢ_ГҲ_ГӢГӮГҢГҡ_207-27)"/><path d="M170.19 100.43s-2.22 0-6.36.14c-2.06.1-4.61.24-7.62.47l-4.88.38-5.57.5q-3 .27-6.35.62a532.181 532.181 0 00-14.78 1.7q-3.33.42-6.79.89l-7 1c-2.41.34-4.9.71-7.47 1.09-3.86.58-7.9 1.22-12.08 1.92s-8.44 1.49-12.77 2.37a52.09 52.09 0 017-2.31c3-.81 6.52-1.64 10.46-2.46 2.62-.55 5.4-1.09 8.27-1.62s5.88-1.06 9-1.58 6.44-1 9.81-1.52c2-.3 4.1-.59 6.16-.85s4.09-.51 6.11-.73c2.4-.26 4.74-.5 7-.69s4.44-.35 6.56-.47S153 99 155 99h5.66c1.79 0 3.5.23 5.1.46a35.38 35.38 0 014.43.97z" fill="url(#Г…ГӮГҒ_ГҸ_ГҢГҢ_ГҲ_ГӢГӮГҢГҡ_207-28)"/><path d="M143.44 97.8s-.74 0-2.14-.08-3.43-.09-6-.1c-1.95 0-4.26 0-6.9.07-1.32 0-2.72.09-4.19.16s-3 .15-4.59.26c-3.18.23-6.52.52-9.93.88-1.7.18-3.41.38-5.12.6s-3.42.45-5.12.7-3.39.51-5.09.8-3.39.58-5.08.9c-2.54.47-5.08 1-7.59 1.53-1.89.42-3.77.86-5.62 1.33s-3.69 1-5.5 1.55-3.58 1.15-5.33 1.79-3.45 1.3-5.12 2c1-.27 2.27-.6 3.86-1s3.49-.81 5.66-1.27 4.64-.95 7.38-1.43 5.77-1 9-1.44l5.1-.74q2.64-.37 5.45-.74c1.88-.25 3.8-.5 5.79-.73s4-.47 6.15-.68c2.35-.25 4.77-.47 7.26-.68q3.21-.27 6.56-.48c2.22-.14 4.49-.25 6.77-.34s4.57-.16 6.86-.2 4.56-.07 6.83-.08h13.55a17.51 17.51 0 00-4.57-1.89 23.5 23.5 0 00-4.15-.7 21.83 21.83 0 00-4.18.01z" fill="url(#Г…ГӮГҒ_ГҸ_ГҢГҢ_ГҲ_ГӢГӮГҢГҡ_207-29)"/></g></g></g></svg>