<svg width="380" height="233" fill="none" xmlns="http://www.w3.org/2000/svg"><path d="M.97 134.289c.73 2.68 3 4.38 6.53 2.6 19.4-3.2 24.43-2.34 37.79 6.12 33.28 32.21 93.481 52.69 159.311 40.41 65.83-12.28 113.53-58.8 113.53-58.8a120.134 120.134 0 0014.66 5.76c-.4 4.62-5.66 22.13-55.35 62-93.65 67.1-186.61 35.7-220.86 4.94-18.38-16.51-20.5-39.14-40.77-43.33C0 148.919 0 135.139 0 135.139l.97-.85z" fill="url(#paint0_linear)"/><path d="M319.93 126.499a182.388 182.388 0 01-14.13 12.74c-2.46 2-4.92 4-7.45 5.88-2.53 1.88-5.07 3.79-7.66 5.62-5.15 3.69-10.49 7.11-16 10.34-2.69 1.68-5.48 3.19-8.27 4.71l-4.18 2.29-4.27 2.13c-5.65 2.91-11.53 5.38-17.4 7.87l-9 3.29c-3 1.11-6.11 1.88-9.16 2.84l-4.61 1.36-4.68 1.07-4.69 1.08-2.35.53-.58.14-.72.12-1.16.19-9.24 1.52c-3.11.49-6.41.73-9.6 1.1-1.61.16-3.23.37-4.83.48l-4.8.23c-3.2.11-6.39.41-9.6.3-3.21-.11-6.41-.08-9.61-.17l-9.59-.71c-3.2-.22-6.36-.77-9.55-1.14-3.19-.37-6.34-1-9.48-1.59l-4.72-.93c-1.57-.33-3.12-.78-4.67-1.16-3.1-.84-6.25-1.49-9.29-2.55-3.04-1.06-6.14-1.86-9.14-3-3-1.14-6-2.32-8.95-3.56l-8.74-4.05-8.49-4.55c-2.78-1.61-5.46-3.4-8.19-5.09-2.73-1.69-5.23-3.74-7.84-5.6-2.61-1.86-5-4.08-7.46-6.11-2.46-2.03-4.67-4.42-7-6.62l.55.44c-1.33-.91-2.66-1.82-4-2.67-1.34-.85-2.69-1.63-4-2.39a31.564 31.564 0 00-4.11-1.9 29.887 29.887 0 00-4.34-1.25 42.88 42.88 0 00-4.64-.62c-1.59-.13-3.21-.18-4.85-.2H7.49a88.171 88.171 0 019.67-2.76c1.65-.35 3.33-.63 5-.86.86-.09 1.72-.17 2.6-.21.88-.04 1.76-.07 2.65 0a25.69 25.69 0 015.36.7c1.748.412 3.462.954 5.13 1.62a83.3 83.3 0 019.2 4.7l.1.06.46.38c2.33 2 4.61 4 7 5.85 2.39 1.85 4.86 3.64 7.37 5.35 2.51 1.71 5.09 3.31 7.7 4.85l8 4.39 8.19 4 8.42 3.49c2.84 1.06 5.73 2 8.58 3 2.85 1 5.81 1.77 8.71 2.68 2.9.91 5.88 1.5 8.82 2.24 1.48.34 2.95.73 4.44 1l4.48.8c3 .55 6 1.17 9 1.48 3 .31 6 .89 9 1.09l9.1.67 9.12.18c3 .16 6.08-.09 9.12-.14l4.57-.15c1.51-.07 3-.25 4.5-.38 3-.3 6-.45 9-.87l9.27-1.38 1.16-.18h.43l.56-.12 2.23-.47 4.45-.95 4.47-1 4.39-1.23c2.92-.87 5.9-1.54 8.78-2.57l8.67-3c5.7-2.19 11.43-4.35 17-7l4.19-1.9 4.11-2.01c2.74-1.38 5.5-2.74 8.16-4.28 5.41-2.93 10.67-6.12 15.89-9.39 2.61-1.65 5.21-3.3 7.74-5.07 2.53-1.77 5.07-3.51 7.56-5.33 4.94-3.67 9.88-7.44 14.46-11.45l3.63 3.76z" fill="#FEE1D0"/><path d="M58.39 156.509a6.668 6.668 0 01-.21-1.12 5.003 5.003 0 010-1.09c.06-.406.202-.794.42-1.14a4.457 4.457 0 011-1 5.259 5.259 0 011.13-.68 9.24 9.24 0 011.53-.55 13.844 13.844 0 012-.36 17.995 17.995 0 012.39-.09 4.173 4.173 0 00-1.48-.65 9.485 9.485 0 00-4.57.06 4.991 4.991 0 00-2.05 1.09 3.362 3.362 0 00-.54.65 3.445 3.445 0 00-.36.83 3.23 3.23 0 00-.09 1.06 6.6 6.6 0 00.27 1.37c.13.47.33 1.02.56 1.62zm6.93 10.33a12.14 12.14 0 010-1.48c.02-.513.074-1.024.16-1.53.104-.603.3-1.187.58-1.73a8.654 8.654 0 011.26-1.72c.43-.444.905-.84 1.42-1.18a8.054 8.054 0 011.91-.91 8.687 8.687 0 012.5-.45 13.13 13.13 0 013.23.3 5.991 5.991 0 00-1.95-1.44 7.925 7.925 0 00-2.79-.75 6.776 6.776 0 00-3 .43 5.603 5.603 0 00-2.56 1.94 5.646 5.646 0 00-.67 1.16 7.64 7.64 0 00-.47 1.4 8.142 8.142 0 00-.16 1.71c.016.669.073 1.337.17 2 .1.73.23 1.47.37 2.25zm19.77 15.05c-.24-.47-.45-.954-.63-1.45a10.01 10.01 0 01-.45-1.55 5.78 5.78 0 01-.08-1.87 8.28 8.28 0 01.56-2.02 8.09 8.09 0 011-1.65 9.749 9.749 0 011.68-1.65 13.625 13.625 0 012.51-1.55 20.854 20.854 0 013.37-1.25 6.637 6.637 0 00-2.53-.37 11.28 11.28 0 00-3.22.58 8.15 8.15 0 00-2.95 1.61 5.788 5.788 0 00-1.77 2.82c-.12.437-.194.887-.22 1.34-.02.497.003.996.07 1.49a7.33 7.33 0 00.46 1.66c.258.643.566 1.265.92 1.86.4.6.82 1.28 1.28 2z" fill="#080808"/><path d="M78.18 177.869a10 10 0 01-.35-1.49 9.455 9.455 0 01-.12-1.59 6.444 6.444 0 01.28-1.85 8.236 8.236 0 011-1.91c.357-.508.78-.966 1.26-1.36a8.407 8.407 0 011.9-1.17c.87-.381 1.779-.67 2.71-.86a27.89 27.89 0 013.68-.57 8.4 8.4 0 00-2.51-.86 12.64 12.64 0 00-3.23-.23 7.183 7.183 0 00-3.09.84 5.286 5.286 0 00-2.21 2.36 7.333 7.333 0 00-.46 1.27 9.355 9.355 0 00-.23 1.48 8.727 8.727 0 00.09 1.73c.112.677.273 1.345.48 2 .228.75.495 1.488.8 2.21zm-5.28-5.94a10.701 10.701 0 01-.26-1.35 10.133 10.133 0 01-.09-1.43 6.587 6.587 0 01.21-1.67 8.418 8.418 0 01.73-1.76 6.54 6.54 0 01.93-1.31 6.21 6.21 0 011.42-1.18 6.733 6.733 0 012-.83c.92-.198 1.86-.295 2.8-.29a5.142 5.142 0 00-1.89-1 6.293 6.293 0 00-2.46-.22 4.694 4.694 0 00-2.36 1 5.362 5.362 0 00-1.66 2.31 7.723 7.723 0 00-.34 1.15 10.38 10.38 0 00-.16 1.32 9.088 9.088 0 00.09 1.52c.092.593.219 1.181.38 1.76.25.63.42 1.29.66 1.98zm18.59 16.93a16.213 16.213 0 01-.24-2c-.05-.666-.05-1.335 0-2a7.397 7.397 0 01.6-2.3 12.46 12.46 0 011.62-2.54 14.957 14.957 0 011.94-2 16.77 16.77 0 012.73-1.9 18.24 18.24 0 013.63-1.52c.7-.214 1.45-.404 2.25-.57.8-.18 1.65-.33 2.54-.47a9.048 9.048 0 00-3.22-.83 15.59 15.59 0 00-4.27.18 12.181 12.181 0 00-4.34 1.68 10.514 10.514 0 00-3.38 3.45 9.426 9.426 0 00-1.2 3.48 8.463 8.463 0 000 2.07c.116.809.283 1.611.5 2.4.29.93.56 1.86.84 2.87zm30.23 12.14a14.094 14.094 0 01-.92-1.92 12.07 12.07 0 01-.62-2.18 8.495 8.495 0 010-2.81 14.911 14.911 0 011.05-3.32c.41-.916.923-1.782 1.53-2.58a14.416 14.416 0 012.32-2.39c.982-.8 2.037-1.507 3.15-2.11a29.532 29.532 0 014.09-1.81 10.947 10.947 0 00-3.33-.16 16.063 16.063 0 00-4.09.94 11.993 11.993 0 00-3.94 2.39 9.863 9.863 0 00-3.11 6.31 10.882 10.882 0 000 2.21c.1.835.315 1.653.64 2.43.381.868.836 1.701 1.36 2.49.55.79 1.18 1.65 1.87 2.51zm11.92 3.62a12.203 12.203 0 01-.62-1.83 12.462 12.462 0 01-.36-2 8.738 8.738 0 01.19-2.59 17.344 17.344 0 011.11-3.18c.42-.946.921-1.853 1.5-2.71a17.214 17.214 0 012.2-2.69 22.174 22.174 0 013.08-2.55 46.85 46.85 0 014.17-2.56 9.308 9.308 0 00-3.29.26 17.608 17.608 0 00-4 1.43 12.242 12.242 0 00-3.67 2.7 11.72 11.72 0 00-2.55 4.41 12.1 12.1 0 00-.44 2 11.687 11.687 0 00-.1 2.14 9.66 9.66 0 00.4 2.23c.268.829.602 1.635 1 2.41.4.81.86 1.66 1.38 2.53zm12.1 3.11a8.816 8.816 0 01-.2-1.36c0-.43-.09-1-.1-1.59-.019-.746.021-1.491.12-2.23.121-1.01.302-2.012.54-3 .231-.933.535-1.846.91-2.73a19.382 19.382 0 011.69-3.1 24.727 24.727 0 012.85-3.49 24.093 24.093 0 011.88-1.75c.67-.57 1.39-1.12 2.14-1.64a6.17 6.17 0 00-3 .51 14.914 14.914 0 00-3.85 2.28 13.002 13.002 0 00-3.27 3.66 11.91 11.91 0 00-1.52 4.88 14.202 14.202 0 000 2c0 .666.06 1.333.18 2 .079.646.21 1.284.39 1.91.17.63.38 1.25.61 1.86.23.61.38 1.18.63 1.79zm8.82.51a10.982 10.982 0 01-.46-1.24c-.11-.38-.25-.84-.35-1.37a8.461 8.461 0 01-.18-1.85c.003-.864.066-1.726.19-2.58.118-.903.316-1.793.59-2.66.356-1.16.832-2.28 1.42-3.34a21.295 21.295 0 012.57-3.63 20.033 20.033 0 011.72-1.74c.63-.56 1.31-1.11 2-1.64a5.313 5.313 0 00-2.7.58 11.878 11.878 0 00-3.31 2.39 14.533 14.533 0 00-2.88 4.13c-.37.781-.668 1.594-.89 2.43a12.39 12.39 0 00-.38 2.49 9.766 9.766 0 000 1.71c.05.538.137 1.073.26 1.6.13.521.308 1.03.53 1.52.237.528.504 1.042.8 1.54.38.53.71 1.08 1.07 1.66zm7.81 1.2a13.716 13.716 0 01-.51-1.58c-.14-.49-.28-1.07-.4-1.72a12.667 12.667 0 01-.22-2.18c-.012-.892.031-1.784.13-2.67.099-.808.26-1.607.48-2.39.27-.942.604-1.865 1-2.76a30.534 30.534 0 011.61-3.26c.32-.59.67-1.2 1.06-1.83.39-.63.83-1.27 1.3-1.92a4.068 4.068 0 00-2.2 1 12.172 12.172 0 00-2.33 2.68 16.308 16.308 0 00-1.85 3.74c-.26.672-.467 1.364-.62 2.07-.153.73-.24 1.473-.26 2.22-.013.538.014 1.076.08 1.61.06.546.157 1.087.29 1.62.136.56.317 1.108.54 1.64.24.56.52 1.14.84 1.74.32.62.67 1.28 1.06 1.99zm6.38 1.23s-.15-.56-.3-1.5c-.08-.48-.17-1-.26-1.67-.09-.67-.17-1.36-.21-2.17-.04-.81-.13-1.74-.16-2.76 0-.76-.05-1.6 0-2.52.008-1.003.068-2.004.18-3 .094-1.181.268-2.353.52-3.51.13-.64.29-1.31.49-2 .226-.718.493-1.423.8-2.11a2.838 2.838 0 00-1.77 1.17 8.913 8.913 0 00-1.37 2.92 15.592 15.592 0 00-.58 4c-.04.736-.04 1.474 0 2.21 0 .76.1 1.55.21 2.34.07.57.16 1.12.27 1.67.11.55.23 1.1.36 1.65.13.55.3 1.1.49 1.64.19.54.41 1.11.65 1.69.24.58.42 1.28.68 1.95zm3.5.82c.31-1.59 1.54-2.85 1.88-4.44.606-3.001.754-6.076.44-9.12a40.747 40.747 0 00-.67-4.68c-.2-1.05-.18-3.25-1.33-3.8-1.65-.78-1.31 3.61-1.24 4.37.46 5.31 1.88 10.4 1.24 15.77-.08.64-.19 1.27-.32 1.9zm15.61-.26a15.27 15.27 0 00.67-1.74c.17-.55.37-1.21.54-2 .191-.868.302-1.752.33-2.64a19.63 19.63 0 00-.17-3.26 17.334 17.334 0 00-.63-2.84 18.424 18.424 0 00-1.34-3.2 21.388 21.388 0 00-2.35-3.54 29.725 29.725 0 00-3.46-3.6 5.988 5.988 0 012.86.77 13.367 13.367 0 013.34 2.54 13.195 13.195 0 013.73 9c.018.668-.016 1.337-.1 2-.09.689-.217 1.374-.38 2.05-.176.714-.41 1.413-.7 2.09-.296.736-.63 1.457-1 2.16-.44.68-.87 1.44-1.34 2.21zm-9.83.09c.305-.467.576-.955.81-1.46a15.7 15.7 0 00.72-1.71c.271-.763.465-1.55.58-2.35.148-.994.225-1.996.23-3a18.077 18.077 0 00-.21-2.73 19.318 19.318 0 00-.75-3.22 22.03 22.03 0 00-1.62-3.75 25.747 25.747 0 00-2.65-4c.922.13 1.79.511 2.51 1.1a11.766 11.766 0 012.65 2.93 13.29 13.29 0 011.8 4.27 14.05 14.05 0 01.3 4.87 14.385 14.385 0 01-.32 1.83c-.154.619-.341 1.23-.56 1.83a12.38 12.38 0 01-.85 1.81c-.357.61-.751 1.198-1.18 1.76-.45.6-.94 1.2-1.46 1.82z" fill="#080808"/><path d="M110.49 198.349a10.167 10.167 0 01-.57-2 9.563 9.563 0 01-.16-2.24 8.784 8.784 0 01.63-2.81 18.37 18.37 0 013.91-5.8 15.585 15.585 0 013-2.28 20.45 20.45 0 013.91-1.75 35.217 35.217 0 014.81-1.11 12.19 12.19 0 00-3.55-.64 16.556 16.556 0 00-4.63.47c-.82.199-1.62.474-2.39.82a11.24 11.24 0 00-2.21 1.31 12.612 12.612 0 00-2 1.85 13.028 13.028 0 00-1.6 2.38 12.27 12.27 0 00-.85 2 13.04 13.04 0 00-.52 2.19 8.48 8.48 0 000 2.36c.15.877.405 1.733.76 2.55.428.93.916 1.832 1.46 2.7zm-8.9-4.81c-.148-.595-.252-1.2-.31-1.81-.05-.666-.05-1.335 0-2a10.93 10.93 0 01.52-2.55c.367-.997.818-1.961 1.35-2.88.453-.784.968-1.53 1.54-2.23a16.307 16.307 0 015.19-4.15 17.511 17.511 0 014-1.4 8.08 8.08 0 00-2.93-.43 10.996 10.996 0 00-9.58 6.8 13.541 13.541 0 00-1 3.68c-.07.715-.07 1.435 0 2.15.075.797.219 1.587.43 2.36.216.834.48 1.656.79 2.46zm139.47 6.65c.189-.655.326-1.324.41-2 .096-.723.136-1.452.12-2.18a10.666 10.666 0 00-.46-2.7 16.749 16.749 0 00-1.37-3 15.735 15.735 0 00-1.65-2.32 18.348 18.348 0 00-2.3-2.28 22.84 22.84 0 00-3.07-2.14 34.699 34.699 0 00-3.87-2 6.805 6.805 0 012.69 0 14.33 14.33 0 013.58 1.13 13.902 13.902 0 013.67 2.41 12.27 12.27 0 012.85 3.87c.277.577.498 1.18.66 1.8.18.655.307 1.324.38 2a9.991 9.991 0 01-.06 2.24c-.12.832-.314 1.652-.58 2.45-.27.92-.57 1.8-1 2.72z" fill="#080808"/><path d="M248.57 196.899c.077-.664.103-1.333.08-2a12.257 12.257 0 00-.23-2.17 10.88 10.88 0 00-.85-2.62 19.09 19.09 0 00-1.73-2.84 17.871 17.871 0 00-1.86-2.15 19.604 19.604 0 00-2.46-2.05 22.277 22.277 0 00-3.15-1.84 29.268 29.268 0 00-3.9-1.51 5.598 5.598 0 012.56-.38c1.206.058 2.396.297 3.53.71a13.328 13.328 0 013.74 2 13.047 13.047 0 013.2 3.6c.339.552.633 1.131.88 1.73.261.651.478 1.319.65 2 .176.734.273 1.485.29 2.24.008.84-.055 1.68-.19 2.51-.13.87-.32 1.8-.56 2.77zm-14.98 10.87c.138-.89.205-1.79.2-2.69a17.617 17.617 0 00-.21-2.92 14.614 14.614 0 00-1-3.54 24.398 24.398 0 00-2.19-3.88 23.977 23.977 0 00-2.4-3 25.61 25.61 0 00-3.2-2.85 28.643 28.643 0 00-4.14-2.59 38.491 38.491 0 00-5.16-2.2 7.869 7.869 0 013.46-.4c1.609.138 3.188.508 4.69 1.1a18.234 18.234 0 014.92 2.89 17.633 17.633 0 014.13 4.95 18.303 18.303 0 011.88 5c.205.986.303 1.992.29 3a19.248 19.248 0 01-.35 3.36c-.26 1.25-.55 2.48-.92 3.77zm34.32-16.99c.084-.664.114-1.332.09-2a13.394 13.394 0 00-.24-2.17 10.832 10.832 0 00-.86-2.62 18.33 18.33 0 00-3.6-4.99 19.836 19.836 0 00-2.46-2.05 21.634 21.634 0 00-3.15-1.82 28.244 28.244 0 00-3.9-1.51 5.742 5.742 0 012.57-.39c1.202.063 2.388.302 3.52.71a13.242 13.242 0 013.75 2 12.979 12.979 0 013.2 3.59c.339.552.633 1.13.88 1.73.271.649.491 1.317.66 2 .172.734.266 1.485.28 2.24.018.836-.036 1.672-.16 2.5-.15.88-.34 1.81-.58 2.78z" fill="#080808"/><path d="M274.79 186.319a12.685 12.685 0 00-.24-2 13.15 13.15 0 00-.57-2.11 11.46 11.46 0 00-1.27-2.45 18.67 18.67 0 00-2.17-2.52 17.395 17.395 0 00-2.18-1.82 18.14 18.14 0 00-2.76-1.63 20.774 20.774 0 00-3.4-1.3 28.666 28.666 0 00-4.09-.87 5.785 5.785 0 012.47-.79 12.278 12.278 0 013.59.13c1.399.256 2.749.732 4 1.41a12.98 12.98 0 013.74 3c.421.492.802 1.017 1.14 1.57.379.587.714 1.202 1 1.84.288.696.502 1.419.64 2.16.143.829.216 1.668.22 2.51.01.958-.03 1.916-.12 2.87z" fill="#080808"/><path d="M283.18 185.159a14.42 14.42 0 00-.27-2.26 15.294 15.294 0 00-.65-2.39 12.465 12.465 0 00-1.44-2.77 21.344 21.344 0 00-2.45-2.86 19.856 19.856 0 00-2.47-2.07 22.058 22.058 0 00-3.12-1.84 24.423 24.423 0 00-3.86-1.47 30.9 30.9 0 00-4.64-1 6.412 6.412 0 012.8-.9 13.587 13.587 0 014.08.15c1.592.281 3.129.818 4.55 1.59a14.676 14.676 0 014.23 3.44c.479.554.914 1.146 1.3 1.77.411.67.775 1.369 1.09 2.09.329.788.574 1.609.73 2.45.163.937.247 1.888.25 2.84.01 1.07-.03 2.07-.13 3.23zm-25.6 12.32c.075-.825.099-1.653.07-2.48a20.876 20.876 0 00-.2-2.56 14.945 14.945 0 00-.73-3 20.305 20.305 0 00-1.48-3.17 19.156 19.156 0 00-1.64-2.43 18.872 18.872 0 00-2.35-2.43 21.907 21.907 0 00-3.38-2.39 30.818 30.818 0 00-4.81-2.25 7.39 7.39 0 013.35-.36 13.38 13.38 0 014.19 1.13 12.785 12.785 0 016.61 6.82c.267.651.491 1.319.67 2 .201.732.354 1.477.46 2.23.121.844.164 1.697.13 2.55a25.374 25.374 0 01-.29 2.95c-.16 1.04-.36 2.17-.6 3.39zm-61.28 16.26c.419-.696.786-1.421 1.1-2.17a17.07 17.07 0 00.84-2.48c.264-1.07.392-2.169.38-3.27a23.345 23.345 0 00-1.32-7.29 25.326 25.326 0 00-1.61-3.6 26.805 26.805 0 00-2.55-3.83 32.07 32.07 0 00-3.67-3.89 7 7 0 013.21.87 14.624 14.624 0 013.65 2.72 16.715 16.715 0 013.11 4.39 16.356 16.356 0 011.59 5.75c.055.789.055 1.581 0 2.37-.044.837-.154 1.67-.33 2.49a12.24 12.24 0 01-.86 2.56 19.365 19.365 0 01-1.51 2.62c-.59.89-1.27 1.81-2.03 2.76zm12.45-1.74c.346-.768.634-1.56.86-2.37.245-.862.422-1.741.53-2.63a12.98 12.98 0 00-.07-3.33 21.98 21.98 0 00-1-3.87 20.645 20.645 0 00-1.48-3.15 23.795 23.795 0 00-2.26-3.29 28.207 28.207 0 00-3.27-3.36 34.41 34.41 0 00-4.48-3.3 7.412 7.412 0 013.35.4 15.205 15.205 0 014.14 2.15 17.41 17.41 0 013.9 3.83 16.366 16.366 0 012.63 5.4c.213.759.364 1.535.45 2.32.091.836.121 1.679.09 2.52a12.048 12.048 0 01-.47 2.69c-.3.988-.685 1.948-1.15 2.87-.53 1.04-1.11 2.12-1.77 3.12zm10-2.93a15.76 15.76 0 00.66-2.22c.187-.816.307-1.645.36-2.48a13.163 13.163 0 00-.22-3.17 20.94 20.94 0 00-2.59-6.58 22.277 22.277 0 00-2.16-3 25.246 25.246 0 00-3-2.94 32.953 32.953 0 00-3.93-2.79 6.814 6.814 0 013 .3c1.321.42 2.574 1.03 3.72 1.81a15.34 15.34 0 013.59 3.33 15.113 15.113 0 013 7.09c.114.791.171 1.59.17 2.39a12.36 12.36 0 01-.31 2.57 17.077 17.077 0 01-.92 2.75 27.28 27.28 0 01-1.37 2.94zm-156.11-48.56a8.582 8.582 0 010-1.24c.017-.412.074-.82.17-1.22.113-.465.31-.906.58-1.3.34-.438.737-.828 1.18-1.16a6.52 6.52 0 011.29-.72 7.98 7.98 0 011.67-.5 10.285 10.285 0 012.08-.16c.837.025 1.67.122 2.49.29a4.483 4.483 0 00-1.45-1.06 7.66 7.66 0 00-2.22-.62 6.97 6.97 0 00-2.53.11 5.195 5.195 0 00-2.3 1.17 3.82 3.82 0 00-.64.74 5.05 5.05 0 00-.49 1 4.524 4.524 0 00-.21 1.25 8.915 8.915 0 00.09 1.58c.05.54.14 1.17.29 1.84zm-6.75-10.08a4.316 4.316 0 01-.21-.61 2.442 2.442 0 01-.1-.63 1.822 1.822 0 01.12-.72c.124-.262.286-.505.48-.72.176-.193.374-.364.59-.51.264-.182.545-.336.84-.46.365-.156.743-.28 1.13-.37.474-.119.955-.209 1.44-.27a2.904 2.904 0 00-1-.24 5.827 5.827 0 00-1.32 0c-.47.054-.93.182-1.36.38a2.591 2.591 0 00-1.06.85 2.417 2.417 0 00-.24.45 2.158 2.158 0 00-.12.53c-.017.218 0 .437.05.65.069.261.163.516.28.76.141.313.302.616.48.91zm224.12 9.57s24.31.29 36.47 14.69c-10.66-16.32-22.85-19.22-36.47-14.69z" fill="#080808"/><path d="M274.39 162.319a57.503 57.503 0 0111.66 2.27 40.35 40.35 0 016.63 2.61 19.616 19.616 0 015.9 4.57 22.974 22.974 0 012.36 3.23 27.421 27.421 0 011.94 3.7c-.46-1.45-.93-2.81-1.43-4.08a31.59 31.59 0 00-1.61-3.51 19.53 19.53 0 00-4-5.21 17.069 17.069 0 00-4.84-3 21.366 21.366 0 00-5.27-1.45 28.351 28.351 0 00-11.34.87z" fill="#080808"/><path d="M268.49 164.509a46.775 46.775 0 019.25 2.81 32.766 32.766 0 015.12 2.68c.847.545 1.64 1.167 2.37 1.86a16.756 16.756 0 012 2.33 18.735 18.735 0 011.64 2.77 21.897 21.897 0 011.26 3.15 48.97 48.97 0 00-.82-3.41 23.983 23.983 0 00-1-3 15.982 15.982 0 00-2.77-4.55 14.203 14.203 0 00-3.67-2.87 17.425 17.425 0 00-4.14-1.61 23.04 23.04 0 00-9.24-.16zm11.48-4.06s15.73-9.31 41.39 8.34c-2.87-6.85-23.71-22.33-41.39-8.34z" fill="#080808"/><path d="M290.15 154.719s1.07-.11 3-.2c.94 0 2.11-.08 3.48-.09 1.37-.01 2.94 0 4.66.07 1.72.07 3.58.17 5.5.36 1.92.19 3.9.44 5.87.79 1.97.35 3.9.79 5.81 1.32a53.699 53.699 0 015.66 1.91 38.466 38.466 0 0110.36 6.12 59.784 59.784 0 00-5.29-5 44.684 44.684 0 00-5.28-3.82 35.697 35.697 0 00-5.3-2.7 30.388 30.388 0 00-5.44-1.65 32.023 32.023 0 00-5.76-.62 38.464 38.464 0 00-6 .35 42.152 42.152 0 00-11.32 3.23l.05-.07z" fill="#080808"/><path d="M293.68 153.559a30.575 30.575 0 017.41-2.63 45.18 45.18 0 015.46-1 51.04 51.04 0 016.77-.31 54.73 54.73 0 018 .76c1.42.24 2.9.55 4.41.92 1.51.37 3.07.82 4.67 1.34 1.6.52 3.23 1.11 4.91 1.8 1.68.69 3.39 1.45 5.14 2.32-2-1.51-4-2.91-6-4.17a62.916 62.916 0 00-6.06-3.39 45.785 45.785 0 00-6.06-2.48 33.717 33.717 0 00-6-1.38c-1.939-.26-3.901-.3-5.85-.12a25.098 25.098 0 00-5.73 1.25 26.387 26.387 0 00-5.6 2.71 32.908 32.908 0 00-5.47 4.38z" fill="#080808"/><path d="M301.69 147.429s1.62-.53 4.25-1.17c1.31-.31 2.87-.64 4.59-.93a48.82 48.82 0 015.58-.6c2-.096 4.005-.062 6 .1 2.054.156 4.093.467 6.1.93a28.957 28.957 0 015.84 2 23.421 23.421 0 015.31 3.4 44.768 44.768 0 00-4.41-4.42 29.531 29.531 0 00-4.39-3.17 23.104 23.104 0 00-4.48-2 19.78 19.78 0 00-4.58-.94 21.021 21.021 0 00-4.69.12 23.39 23.39 0 00-4.83 1.21 38.223 38.223 0 00-5 2.3c-1.74.9-3.49 1.97-5.29 3.17z" fill="#080808"/><path d="M307.15 144.209s1.17-.51 3.11-1.15c1-.32 2.14-.68 3.44-1 1.3-.32 2.74-.69 4.28-1a43.031 43.031 0 014.88-.6c1.714-.13 3.436-.13 5.15 0 1.724.13 3.43.438 5.09.92a19.073 19.073 0 014.75 2.09 32.644 32.644 0 00-4.12-3 25.104 25.104 0 00-4-2 20.476 20.476 0 00-4-1.101 16.976 16.976 0 00-3.88-.209 17.31 17.31 0 00-3.78.64c-1.27.361-2.502.843-3.68 1.44a30.54 30.54 0 00-3.62 2.159 44.284 44.284 0 00-3.62 2.811z" fill="#080808"/><path d="M314.49 138.729s.94-.4 2.5-.92c.78-.26 1.72-.55 2.76-.83 1.04-.28 2.21-.55 3.45-.78a35.702 35.702 0 013.91-.48 27.245 27.245 0 014.14 0c1.389.105 2.763.353 4.1.74 1.343.387 2.628.952 3.82 1.68a27.806 27.806 0 00-3.31-2.42 19.487 19.487 0 00-3.24-1.62 15.964 15.964 0 00-3.19-.88 13.682 13.682 0 00-6.16.34 16.243 16.243 0 00-2.95 1.16 22.877 22.877 0 00-2.92 1.74 33.36 33.36 0 00-2.91 2.27zm7.44-5.79s.65-.34 1.74-.8c.55-.23 1.2-.49 1.93-.75s1.56-.52 2.43-.75c.919-.242 1.85-.433 2.79-.57a19.306 19.306 0 013-.21 14.19 14.19 0 013 .3c.983.208 1.935.544 2.83 1a19.786 19.786 0 00-2.51-1.55 14.456 14.456 0 00-2.41-1 10.9 10.9 0 00-2.34-.45 9.991 9.991 0 00-4.4.59c-.717.265-1.407.6-2.06 1-.698.427-1.366.901-2 1.42a24.138 24.138 0 00-2 1.77z" fill="#080808"/><path opacity=".44" d="M35.13 89.999c-3.75 8.16-5.27 14-10.34 19-13.28 13.1-12.55 26.06-12.55 26.06a234.647 234.647 0 0132.06-7.06 78.112 78.112 0 01-9.17-38z" fill="#FF7F4D"/><path d="M27.85 105.349l-.26.39.26-.39z" fill="url(#paint1_linear)"/><path d="M28.74 103.999l-.3.5.3-.5z" fill="url(#paint2_linear)"/><path d="M27.4 105.999l-.27.37.27-.37z" fill="url(#paint3_linear)"/><path d="M25.36 108.458l-.52.54.52-.54z" fill="url(#paint5_linear)"/><path d="M26.93 106.629l-.29.36.29-.36z" fill="url(#paint6_linear)"/><path d="M25.91 107.859c-.11.13-.23.26-.35.38.12-.12.24-.24.35-.38z" fill="url(#paint7_linear)"/><path d="M26.43 107.249l-.31.36.31-.36z" fill="url(#paint8_linear)"/><path d="M287.9 45.849c-.34-.42-.71-.83-1.07-1.25.36.4.73.83 1.07 1.25z" fill="url(#paint9_linear)"/><path d="M286.39 44.089c-.51-.58-1-1.15-1.57-1.72.54.57 1.06 1.14 1.57 1.72z" fill="url(#paint10_linear)"/><path d="M30.36 100.918l-.36.73.36-.73z" fill="url(#paint11_linear)"/><path d="M349.17 123.499c-1.13-1-2.24-2.1-3.34-3.18 1.1 1.08 2.21 2.15 3.34 3.18z" fill="url(#paint12_linear)"/><path d="M296.4 57.089c-1.45-2-2.92-3.94-4.43-6 1.52 2.06 2.98 4.04 4.43 6z" fill="url(#paint13_linear)"/><path d="M275.49 33.879c5.58 13.75 7.47 28.89 4.14 42.12a36.722 36.722 0 01-3 8.07c-10.51-8.35-24.64-17.21-47.45-26.46-65.12-26.4-123 5.38-156.56 30.84-6.72-14.78-3.79-31.88 5-48.11l.24-.42c-38.82 32.39-41.87 49.43-47.44 61 6.31-13.12 9.38-33.28 65-74.84 60.7-45.36 155-20.21 189.42 16.29a86.65 86.65 0 00-9.35-8.49z" fill="url(#paint15_linear)"/><path opacity=".44" d="M28.84 103.789c0 .06-.07.11-.1.16s.07-.1.1-.16zm-15.57 24.09zm12.29-19.64l-.2.22.2-.22zm-13.27 25.14c0 .32 0 .59-.05.83.01-.21.02-.51.05-.83zm2.69-10.33c-.45 1-.83 2.06-1.15 3 .32-.94.66-1.95 1.15-3zm11.14-15.44l-.21.25.21-.25zm.52-.61l-.21.26.21-.26zm1.38-1.9l-.17.25.17-.25zm.42-.651l-.15.23.15-.23zm-.85 1.291l-.19.26.19-.26zm-.46.63c-.07.09-.14.17-.2.26.06-.09.13-.17.2-.26zm-13.77 28.4c-.37.11-.76.22-1.12.34.36-.11.75-.23 1.12-.34zm2.13-12.77z" fill="#FF976E"/><path d="M77.81 39.889l-.24.42c-8.76 16.23-11.69 33.33-5 48.11-6 4.53-11.2 8.86-15.55 12.62-28.76 24.96-39.46 23.96-39.46 23.96a8.159 8.159 0 00-4.2 9.79c-.37.11-.76.22-1.12.34v-.9c0-.24 0-.51.05-.83a28.26 28.26 0 01.57-3.83c.12-.53.25-1.08.41-1.67.16-.59.35-1.19.56-1.82.32-1 .7-2 1.15-3 .15-.35.31-.7.48-1.06a44.99 44.99 0 019.33-12.94.106.106 0 01.05 0l.52-.54.2-.22c.12-.12.24-.25.35-.38l.21-.25.31-.36.21-.26.29-.36c.06-.09.13-.17.2-.26l.27-.37.19-.26.26-.39.17-.25a5.11 5.11 0 00.27-.42l.15-.23.3-.5s.07-.1.1-.16c.4-.69.79-1.4 1.15-2.13l.36-.73c5.59-11.69 8.64-28.73 47.46-61.12z" fill="url(#paint16_linear)"/><path opacity=".44" d="M77.81 39.889l-.24.42c-8.76 16.23-11.69 33.33-5 48.11-6 4.53-11.2 8.86-15.55 12.62-28.76 24.96-39.46 23.96-39.46 23.96a8.159 8.159 0 00-4.2 9.79c-.37.11-.76.22-1.12.34v-.9c0-.24 0-.51.05-.83a28.26 28.26 0 01.57-3.83c.12-.53.25-1.08.41-1.67.16-.59.35-1.19.56-1.82.32-1 .7-2 1.15-3 .15-.35.31-.7.48-1.06a44.99 44.99 0 019.33-12.94.106.106 0 01.05 0l.52-.54.2-.22c.12-.12.24-.25.35-.38l.21-.25.31-.36.21-.26.29-.36c.06-.09.13-.17.2-.26l.27-.37.19-.26.26-.39.17-.25a5.11 5.11 0 00.27-.42l.15-.23.3-.5s.07-.1.1-.16c.4-.69.79-1.4 1.15-2.13l.36-.73c5.59-11.69 8.64-28.73 47.46-61.12zm211.51 7.76zm-2.49-3.05l-.44-.51.44.51zm9.57 12.49c19 25.63 32.8 46.9 49.43 63.23-16.63-16.32-30.48-37.6-49.43-63.23z" fill="#FF976E"/><path d="M279.63 75.999c3.33-13.2 1.44-28.34-4.15-42.09a86.631 86.631 0 019.32 8.47c.54.57 1.06 1.14 1.57 1.72l.44.51c.36.42.73.83 1.07 1.25.49.6 1 1.2 1.42 1.8.9 1.173 1.784 2.336 2.65 3.49 1.51 2 3 4 4.43 6 19 25.63 32.8 46.9 49.43 63.23 1.1 1.08 2.21 2.15 3.34 3.18a121.208 121.208 0 0011.8 9.61 41.482 41.482 0 01-9.38-1.46c-45.9-12.37-51.08-28.71-74.96-47.71a36.787 36.787 0 003.02-8z" fill="url(#paint17_linear)"/><path opacity=".44" d="M279.63 75.999c3.33-13.2 1.44-28.34-4.15-42.09a86.631 86.631 0 019.32 8.47c.54.57 1.06 1.14 1.57 1.72l.44.51c.36.42.73.83 1.07 1.25.49.6 1 1.2 1.42 1.8.9 1.173 1.784 2.336 2.65 3.49 1.51 2 3 4 4.43 6 19 25.63 32.8 46.9 49.43 63.23 1.1 1.08 2.21 2.15 3.34 3.18a121.208 121.208 0 0011.8 9.61 41.482 41.482 0 01-9.38-1.46c-45.9-12.37-51.08-28.71-74.96-47.71a36.787 36.787 0 003.02-8z" fill="#FF976E"/><path d="M13.19 125.369a19.623 19.623 0 004.26-.83 58.276 58.276 0 0011.22-4.87 118.954 118.954 0 0015.73-10.59c5.83-4.49 11.69-10.22 18.72-16.26a243.807 243.807 0 0123.58-18.1 201.212 201.212 0 0129-16.45 169.768 169.768 0 0116.44-6.61 140.095 140.095 0 0117.54-4.92 146.903 146.903 0 0118.37-2.74 143.06 143.06 0 0118.76-.29 139.615 139.615 0 0136.54 7.38c2.9 1.13 5.71 2.09 8.63 3.35l8.07 3.63 4 1.8 4 2c2.63 1.38 5.26 2.7 7.82 4.09a154.722 154.722 0 0127.26 19.48c8 7.06 14.55 14.49 21.18 20.47 1.62 1.56 3.32 2.92 5 4.24l2.47 2 2.53 1.76c1.7 1.12 3.25 2.37 4.95 3.3l4.88 2.79c3.18 1.8 6.39 3 9.22 4.49 2.83 1.49 5.68 2.25 8.13 3.25l3.51 1.35 3.15 1 5 1.64 4.16 1.36-4.28-.92-5.14-1.12-3.26-.71-3.64-1.06c-2.55-.78-5.44-1.5-8.49-2.57l-4.73-1.79a51.34 51.34 0 01-5-2.08 95.515 95.515 0 01-21.58-13.27c-7.27-5.83-14.23-12.88-22.13-19.38a166.183 166.183 0 00-26.76-17.7c-2.47-1.27-5-2.46-7.53-3.71l-3.81-1.86-4-1.7-8.15-3.43c-2.52-1.07-5.37-2-8.05-3a132.43 132.43 0 00-69.37-4.08 166.753 166.753 0 00-32.68 10.29 223.207 223.207 0 00-28.62 15c-8.76 5.44-16.77 11.07-24 16.58-3.61 2.73-6.87 5.5-10.24 8.09s-6.53 4.93-9.63 7a105.714 105.714 0 01-16.87 9.5 53.768 53.768 0 01-11.79 3.83 19.9 19.9 0 01-4.37.37z" fill="#F59464"/><path d="M14.3 126.159l.71-.79a16.395 16.395 0 015.18-4.08c2.72-1.24 6.88-2.75 9.55-.76 1.05-3 5.17-4 7.76-4a13.692 13.692 0 0111.77 6.84c2.8 4.62 3.27 14.86-4.13 13.67a63.74 63.74 0 00-25.13.53c-2.84.6-6.83.65-8.27-2.74-1.52-3.61.41-6.23 2.56-8.67z" fill="url(#paint18_linear)"/><path d="M49.27 123.329c-.22-.36-.46-.68-.7-1a11.337 11.337 0 01-7.85 7.63c-3.517 1.039-7.3.68-10.56-1a10.712 10.712 0 01-2.79-2.08c-3.25 4.92-8.79 8-14.91 9.12 1.79 2.17 5.09 2.07 7.55 1.55a63.74 63.74 0 0125.13-.53c7.35 1.17 6.93-9.02 4.13-13.69z" fill="#FF9368"/><path d="M95.38 26.059l2.91-2.17c1-.7 2.1-1.62 3.53-2.58l5-3.2c1.89-1.17 4.08-2.29 6.42-3.61 2.34-1.32 5-2.44 7.84-3.72a130.819 130.819 0 0119.76-6.61 157.89 157.89 0 0152-3.36 183.996 183.996 0 0157.74 15.53 137.338 137.338 0 0126.09 16 95.688 95.688 0 0111 10.36c3.29 3.87 6 7.76 8.89 11.56 11.27 15.27 21.01 30.04 30.1 42.14 4.55 6 8.84 11.48 12.82 16.15a156.394 156.394 0 0011 11.52c3.23 3 5.82 5.32 7.69 6.76l2.84 2.28-3-2.09a102.96 102.96 0 01-8.11-6.34 160.087 160.087 0 01-11.57-11.08c-4.25-4.51-8.84-9.78-13.54-15.76-9.41-12-19.83-26.3-31.16-41.43-2.87-3.76-5.74-7.72-8.8-11.24a91.812 91.812 0 00-10.62-9.8 134.588 134.588 0 00-25.43-15.24 181.25 181.25 0 00-83.37-16.66 152.508 152.508 0 00-24 3 154.777 154.777 0 00-19.71 5.76c-2.84 1.13-5.49 2.23-7.91 3.32-2.42 1.09-4.6 2.21-6.52 3.27l-5.12 2.91c-1.48.87-2.68 1.72-3.68 2.35l-3.09 1.98z" fill="#F5A47D"/><path d="M144.81 56.909l.15-.09h-.18l-.19.12a170.351 170.351 0 00-27.92 9.8c8-7.58 17.7-19.67 25.5-38.25 1 4.23-2.46 16.11-10.89 27.46l1-1c2-2.18 4.09-4.46 6.05-6.79s3.83-4.69 5.6-7.07c1.77-2.38 3.44-4.83 5-7.31a67.256 67.256 0 007.25-15.11 77.6 77.6 0 01-2.25 9 70.656 70.656 0 01-3.14 8.16 65.98 65.98 0 01-8.94 14.33 76.717 76.717 0 01-6.06 6.56l-1.4 1.32.36-.18c1.57-1.37 3.19-2.84 4.84-4.45 2.75-2.66 5.6-5.66 8.47-9a143.54 143.54 0 004.32-5.32c1.44-1.87 2.88-3.82 4.3-5.87 1.42-2.05 2.81-4.22 4.19-6.48 1.38-2.26 2.76-4.58 4.1-7a138.154 138.154 0 01-3.73 9.19 115.747 115.747 0 01-4.34 8.69c-.94 1.586-1.886 3.17-2.84 4.75 2.39-2.54 4.71-5.2 6.86-7.93a80.187 80.187 0 006.41-9.36 47.882 47.882 0 004.34-9.62 63.666 63.666 0 01-2.18 9.22 57.673 57.673 0 01-3.35 8.32 57.168 57.168 0 01-4.48 7.56 57.013 57.013 0 01-5.54 6.78 62.674 62.674 0 01-6.51 6l-.19.15h.07l.42-.07c1.08-.79 2.16-1.61 3.28-2.5 1.62-1.28 3.28-2.68 5-4.19 1.72-1.51 3.4-3.12 5.13-4.86 1.73-1.74 3.47-3.58 5.23-5.55 1.76-1.97 3.51-4 5.26-6.2s3.5-4.48 5.23-6.9c1.73-2.42 3.45-5 5.11-7.67.25 2.3-.91 6.27-3.4 11a67.905 67.905 0 01-4.73 7.67 84.212 84.212 0 01-12.05 13.69c.56-.45 1.13-.89 1.68-1.35 1.75-1.45 3.44-2.93 5.09-4.42 1.65-1.49 3.25-3 4.82-4.41 1.57-1.41 3.1-2.91 4.6-4.39 1.5-1.48 3-3 4.39-4.5a86.308 86.308 0 007.71-9.44 47.686 47.686 0 005.39-10 63.215 63.215 0 01-2.24 7.4 53.782 53.782 0 01-3 6.72 64.54 64.54 0 01-3.69 6.12c-1.32 2-2.75 3.84-4.26 5.66-1 1.22-2.06 2.4-3.16 3.56-1.1 1.16-2.23 2.31-3.44 3.46s-2.47 2.32-3.8 3.48a77.588 77.588 0 01-4.25 3.47c-.35.27-.72.53-1.08.79l.23-.14c11.29-7.4 20.29-16.21 29.4-26.07 1.85-2.13 3.68-4.37 5.41-6.73 1.73-2.36 3.4-4.79 5-7.26-.79 1.5-1.52 3-2.25 4.54s-1.43 3-2.15 4.54-1.47 3-2.26 4.43a83.997 83.997 0 01-26.15 29.12h.17c1.41-.87 2.85-1.8 4.34-2.85a110.44 110.44 0 005.79-4.32c2-1.57 4-3.27 6.1-5.1a184.01 184.01 0 008.51-7.87c1.46-1.43 2.92-2.93 4.41-4.5 2.22-2.36 4.48-4.89 6.73-7.61 2.25-2.72 4.51-5.62 6.76-8.72-1.2 2.72-2.43 5.29-3.7 7.73a93.543 93.543 0 01-3.95 6.91c-1.37 2.16-2.69 4.2-4.07 6.13a80.761 80.761 0 01-4.22 5.42 84.41 84.41 0 01-6 6.48l-.93.89c1.56-1.08 3.13-2.2 4.74-3.38 3-2.16 6-4.49 9.13-7.1 3.13-2.61 6.35-5.49 9.65-8.67 1.65-1.6 3.31-3.26 5-5 1.69-1.74 3.37-3.58 5.08-5.5-2.21 3.88-4.44 7.43-6.69 10.69a110.88 110.88 0 01-6.83 8.93 85.43 85.43 0 01-4.66 5.06c-2.1 2.1-4.24 4-6.47 5.9a83.923 83.923 0 01-5 3.84c1.19-.59 2.4-1.21 3.64-1.89 1.707-.927 3.467-1.95 5.28-3.07 1.8-1.12 3.66-2.35 5.55-3.68 1.89-1.33 3.82-2.79 5.77-4.37a188.07 188.07 0 004.4-3.78 150.627 150.627 0 004.46-4.12c1.494-1.42 2.97-2.887 4.43-4.4 1.46-1.51 2.91-3.05 4.34-4.64-.946 1.52-1.926 3.03-2.94 4.53-1 1.51-2.06 3-3.13 4.49-1.07 1.49-2.18 2.94-3.31 4.37-1.13 1.43-2.28 2.83-3.45 4.18a96.562 96.562 0 01-3.58 3.91 77.057 77.057 0 01-3.69 3.57c-1.25 1.13-2.51 2.25-3.81 3.3-.59.48-1.18 1-1.78 1.4l.29-.15c1.81-1 3.67-2 5.57-3.15 1.9-1.15 3.86-2.31 5.86-3.62 2-1.31 4-2.73 6.12-4.28 3.11-2.34 6.31-5 9.57-7.92 1.63-1.48 3.28-3 4.93-4.69 1.65-1.69 3.33-3.38 5-5.21a22.397 22.397 0 01-3.66 8 61.18 61.18 0 01-8.6 10.25 77.076 77.076 0 01-8.12 6.84 91.788 91.788 0 01-9.8 6.25l-.63.35c1.37-.54 2.76-1.09 4.19-1.68 3.39-1.34 6.9-2.84 10.4-4.52 2.61-1.26 5.22-2.64 7.75-4.17a74.637 74.637 0 005.57-3.65 71.87 71.87 0 007.79-6.3 52.03 52.03 0 006.6-7.41 86.79 86.79 0 01-6.37 10.68 64.593 64.593 0 01-7.09 8.57 49.813 49.813 0 01-5.17 4.55 49.4 49.4 0 01-7.74 4.75c-.62.32-1.26.62-1.89.91l1.66-.6a92.033 92.033 0 006-2.31c3.45-1.4 7.07-3 10.82-5 1.88-1 3.8-2 5.78-3.18 3-1.7 6.11-3.58 9.41-5.61 3.3-2.03 6.91-4.18 10.61-6.53a17.844 17.844 0 01-3.64 5 66.708 66.708 0 01-6.75 6.18c-1.77 1.46-3.72 3-5.83 4.42a83.316 83.316 0 01-9.21 5.67 88.79 88.79 0 01-11 4.88l-.26.09c2.3-.56 4.72-1.17 7.23-1.83 2.51-.66 5.15-1.4 7.78-2.22a225.489 225.489 0 006.56-2.13c2.207-.754 4.417-1.56 6.63-2.42 2.22-.85 4.46-1.74 6.7-2.68 3.37-1.4 6.71-2.92 9.9-4.59a66.037 66.037 0 008.94-5.54 102.232 102.232 0 01-9.07 7.73c-3 2.31-6.08 4.37-9.08 6.22-2 1.23-4 2.38-6 3.42s-4 2-6 2.87c-2 .87-4.19 1.65-6.36 2.33-1.62.53-3.26 1-4.91 1.39l.82-.1c2.4-.32 4.91-.68 7.48-1.1a515.583 515.583 0 0013.45-2.34c2.34-.44 4.76-.91 7.26-1.42 3.75-.76 7.68-1.62 11.75-2.59 4.07-.97 8.22-2.06 12.44-3.39a35.127 35.127 0 01-6.86 3.81 104.573 104.573 0 01-10.23 3.77c-2.56.81-5.27 1.61-8.07 2.37-2.8.76-5.73 1.5-8.79 2.21-3.06.71-6.28 1.4-9.55 2-2 .4-4 .76-6 1.08-1.66.27-3.31.5-5 .71 1.66.07 3.31.13 5 .16h6.54c2.154 0 4.27-.11 6.35-.33 2.407-.167 4.74-.38 7-.64 2-.22 4-.47 6-.74s3.81-.57 5.63-.88c1.82-.31 3.58-.62 5.29-.94l5-1c3.19-.62 6.13-1.27 8.8-1.95 2.67-.68 5.08-1.38 7.2-2.07s4-1.34 5.53-1.93c1.53-.59 2.83-1.11 3.78-1.53a73.134 73.134 0 01-5.06 3.42 71.478 71.478 0 01-5.25 2.94 79.64 79.64 0 01-5.39 2.48c-1.82.75-3.66 1.43-5.5 2.05-2.46.84-4.94 1.59-7.41 2.25a118.9 118.9 0 01-5 1.28 128.466 128.466 0 01-9.94 1.95c-1.68.26-3.32.49-5 .68-3.3.39-6.54.65-9.61.79-1.54.07-3 .09-4.44.09-1.44 0-2.77 0-4-.07h-.57.19c1.19.2 2.49.38 3.88.54 1.39.16 2.88.31 4.45.43 2.52.19 5.24.33 8.12.41 2.88.08 5.85.11 8.93.07 1.52 0 3.06-.05 4.62-.11s3.12-.14 4.71-.26c1.59-.12 3.21-.26 4.84-.43 2.89-.28 5.81-.7 8.79-1.28 2.234-.447 4.5-.98 6.8-1.6 2.3-.62 4.6-1.34 6.9-2.16 2.32-.82 4.67-1.73 7-2.75s4.74-2.14 7.1-3.37a58.005 58.005 0 01-16.45 12 60.136 60.136 0 01-7.46 3 60.458 60.458 0 01-6.75 1.88c-2.38.49-4.94.89-7.66 1.19-2.72.3-5.62.51-8.68.6-1.53 0-3.11.06-4.72.06-1.61 0-3.27 0-5-.09s-3.41-.12-5.18-.23c-1.77-.11-3.56-.25-5.4-.43h-.39c1.44.3 3 .59 4.67.87 2 .33 4.16.65 6.53.94 2.37.29 5 .57 7.74.81 2.74.24 5.72.46 8.89.61 1.58.07 3.21.11 4.89.14 1.68.03 3.4 0 5.13 0h5.2c1.74 0 3.51-.07 5.32-.16 1.81-.09 3.67-.22 5.58-.39 2.39-.22 4.87-.49 7.46-.84s5.28-.79 8.09-1.28a79.594 79.594 0 008.28-2.23c2.78-.92 5.61-1.93 8.5-3a43.63 43.63 0 01-4.72 3.49 49.839 49.839 0 01-6.71 3.63 50.734 50.734 0 01-8.7 2.85c-1.6.36-3.25.71-4.94 1-1.69.29-3.42.59-5.19.82-2.37.31-4.81.55-7.34.7-2.53.15-5.22.21-8.09.2h-9.33c-1.63 0-3.28 0-4.93-.06-.39 0-.77 0-1.15-.06 2.12.406 4.35.803 6.69 1.19 1.49.24 3 .48 4.56.7l4.7.64 4.72.59c1.57.18 3.14.35 4.71.5 1.57.15 3.17.28 4.78.38 2.42.146 4.887.246 7.4.3h7.66c2.59 0 5.22-.23 7.88-.44s5.35-.51 8.06-.87c2.71-.36 5.45-.8 8.21-1.31 2.76-.51 5.52-1.12 8.31-1.82-3.19 1.13-6.91 2.38-11.11 3.58a160.16 160.16 0 01-6.65 1.76c-2.333.566-4.773 1.12-7.32 1.66-2.55.47-5.21.88-8 1.2-2.79.32-5.62.57-8.57.7-2.526.12-5.133.15-7.82.09-2.68-.06-5.5-.22-8.51-.46-1.51-.12-3.09-.24-4.73-.39-1.64-.15-3.32-.33-5-.54-1.68-.21-3.46-.44-5.22-.7l-1.44-.23c.92.25 1.83.51 2.76.74 1.7.426 3.397.83 5.09 1.21 1.7.37 3.39.72 5 1 1.61.28 3.27.61 4.83.9 1.56.29 3.08.57 4.55.82 1.47.25 2.92.48 4.36.69 1.44.21 2.85.39 4.27.54 2.82.32 5.62.55 8.36.7 3.2.173 6.327.246 9.38.22a156.23 156.23 0 008.85-.32c2.85-.19 5.59-.45 8.19-.78 2.6-.33 5.07-.7 7.38-1.13a78.341 78.341 0 0011.87-3.05c-3.07 1.35-6.08 2.55-9 3.63s-5.84 2-8.66 2.86c-2.82.86-5.59 1.55-8.3 2.15-2.71.6-5.34 1.1-7.91 1.49-2.06.313-4.08.563-6.06.75-1.98.186-3.913.32-5.8.4-1.9.08-3.75.11-5.55.09-1.61 0-3.19-.08-4.73-.18-1.54-.1-3.06-.24-4.56-.41-1.5-.17-3-.37-4.52-.58l-3.95-.57.69.16 3.89.84 3.68.8c2.39.51 4.73.94 7 1.29 2.27.35 4.62.63 6.91.84 2 .18 4 .323 6 .43 2 .106 4 .183 6 .23 2 0 4 .06 6 0 2.487 0 4.984-.05 7.49-.15 2.507-.1 5.027-.194 7.56-.28l7.54-.42 7.59-.42a269.557 269.557 0 01-15.56 2.73c-2.446.346-4.83.65-7.15.91-2.32.26-4.566.466-6.74.62-1.75.13-3.45.23-5.11.31a246.395 246.395 0 01-9.47.24c-1.71 0-3.36 0-5-.08-1.85-.07-3.63-.2-5.36-.37-1.73-.17-3.42-.4-5-.66s-3.21-.56-4.76-.89c-1.55-.33-3.11-.66-4.65-1l-4-.87c2 .67 4.07 1.35 6 2.05 2.27.84 4.49 1.66 6.7 2.45 2.21.79 4.46 1.5 6.74 2.15 1.894.546 3.794 1.04 5.7 1.48 1.9.45 3.81.86 5.73 1.25 1.92.39 3.86.76 5.81 1.12l4.43.81c1.48.27 3 .54 4.48.79 1.48.25 3 .5 4.52.72 1.52.22 3 .45 4.55.65-1.41.13-2.79.22-4.16.29-1.37.07-2.7.12-4 .14-1.3.02-2.61 0-3.88 0s-2.51-.06-3.73-.09c-1.62-.06-3.19-.14-4.72-.24-1.53-.1-3-.23-4.5-.38a91.4 91.4 0 01-4.33-.54c-1.42-.21-2.83-.48-4.22-.77-1.39-.29-2.76-.64-4.1-1-1.54-.43-3-.92-4.5-1.44-1.5-.52-2.88-1.1-4.29-1.68-1.41-.58-2.78-1.19-4.15-1.8l-4.09-1.78c-1.34-.59-2.66-1.15-3.94-1.7-1.28-.55-2.54-1.08-3.73-1.6l-1-.43c-14.52-13.55-27.2-29.17-68.85-46.05-30.26-12.27-58.93-11.97-84.35-5.59z" fill="url(#paint19_linear)"/><path d="M72.22 81.499c1.54 1.64 2.6 6.18 1.38 11.08-1.333 1-2.633 2-3.9 3a31.462 31.462 0 002.52-14.08z" fill="url(#paint20_linear)"/><path d="M81.62 73.099a24.91 24.91 0 01-.9 14.31 243.335 243.335 0 00-4.86 3.49c3.21-5.33 6.07-11.83 5.76-17.8z" fill="url(#paint21_linear)"/><path d="M90.55 59.189c2.62 3.15 4 12.63 0 21.69-1.433.9-2.833 1.803-4.2 2.71 3.04-5.72 5.09-13.59 4.2-24.4z" fill="url(#paint22_linear)"/><path d="M116.34 39.919c2.43 4.21 1.71 18-6.71 29.8 8.4-9.52 20.55-25.44 22.7-39.93-.19 15.47-6 27.38-15.86 37.07-5.17 2.33-10.14 4.85-14.88 7.48 5.82-7.07 12.04-18.06 14.75-34.42z" fill="url(#paint23_linear)"/><path d="M105.98 45.599c1.94 11.87-.35 21.48-5.84 29.55-2.84 1.6-5.6 3.24-8.27 4.89 6.54-8.98 14.31-22.26 14.11-34.44z" fill="url(#paint24_linear)"/><path d="M301.96 110.269c2.09.91 4.27 1.85 6.48 2.85 2.21 1 4.41 2 6.61 3.1s4.47 2.06 6.8 3a154.87 154.87 0 004.43 1.64c1.49.52 3 1 4.5 1.46 1.5.46 3 .88 4.51 1.28l4.54 1.19c1.52.4 3.06.8 4.61 1.19l3.54.88 3.63.89c1.22.3 2.46.59 3.7.87 1.24.28 2.48.55 3.74.8-2.14 0-4.21-.09-6.21-.21s-3.9-.26-5.72-.42c-1.82-.16-3.56-.33-5.23-.52-1.67-.19-3.29-.4-4.86-.61-1.57-.21-3.1-.44-4.6-.72-1.5-.28-3-.6-4.42-1s-2.86-.77-4.24-1.22c-1.38-.45-2.71-.94-4-1.47a66.39 66.39 0 01-4.23-1.93c-1.35-.67-2.65-1.39-3.9-2.1l-2.38-1.37a120.942 120.942 0 01-11.06-9.24c1.22.57 2.46 1.11 3.76 1.66z" fill="url(#paint25_linear)"/><defs><linearGradient id="paint0_linear" x1="166.401" y1="229.619" x2="166.401" y2="188.679" gradientUnits="userSpaceOnUse"><stop stop-color="#FFA77D"/><stop offset=".29" stop-color="#FFAF88"/><stop offset=".81" stop-color="#FFC3A6"/><stop offset="1" stop-color="#FFCCB3"/></linearGradient><linearGradient id="paint1_linear" x1="27.72" y1="-10.951" x2="27.72" y2="58.219" gradientUnits="userSpaceOnUse"><stop stop-color="#FFCCB3"/><stop offset=".58" stop-color="#FFBD9C"/><stop offset="1" stop-color="#FFB591"/></linearGradient><linearGradient id="paint2_linear" x1="1119.6" y1="98.523" x2="1119.6" y2="133.109" gradientUnits="userSpaceOnUse"><stop stop-color="#FFCCB3"/><stop offset=".58" stop-color="#FFBD9C"/><stop offset="1" stop-color="#FFB591"/></linearGradient><linearGradient id="paint3_linear" x1="1009.53" y1="101.947" x2="1009.53" y2="127.54" gradientUnits="userSpaceOnUse"><stop stop-color="#FFCCB3"/><stop offset=".58" stop-color="#FFBD9C"/><stop offset="1" stop-color="#FFB591"/></linearGradient><linearGradient id="paint4_linear" x1="1010.18" y1="100.079" x2="1010.18" y2="129.131" gradientUnits="userSpaceOnUse"><stop stop-color="#FFCCB3"/><stop offset=".58" stop-color="#FFBD9C"/><stop offset="1" stop-color="#FFB591"/></linearGradient><linearGradient id="paint5_linear" x1="1918.04" y1="102.545" x2="1918.04" y2="139.897" gradientUnits="userSpaceOnUse"><stop stop-color="#FFCCB3"/><stop offset=".58" stop-color="#FFBD9C"/><stop offset="1" stop-color="#FFB591"/></linearGradient><linearGradient id="paint6_linear" x1="1082.02" y1="102.687" x2="1082.02" y2="127.588" gradientUnits="userSpaceOnUse"><stop stop-color="#FFCCB3"/><stop offset=".58" stop-color="#FFBD9C"/><stop offset="1" stop-color="#FFB591"/></linearGradient><linearGradient id="paint7_linear" x1="1299.65" y1="103.698" x2="1299.65" y2="129.982" gradientUnits="userSpaceOnUse"><stop stop-color="#FFCCB3"/><stop offset=".58" stop-color="#FFBD9C"/><stop offset="1" stop-color="#FFB591"/></linearGradient><linearGradient id="paint8_linear" x1="1154.41" y1="103.307" x2="1154.41" y2="128.208" gradientUnits="userSpaceOnUse"><stop stop-color="#FFCCB3"/><stop offset=".58" stop-color="#FFBD9C"/><stop offset="1" stop-color="#FFB591"/></linearGradient><linearGradient id="paint9_linear" x1="3901.92" y1="30.911" x2="3901.92" y2="117.374" gradientUnits="userSpaceOnUse"><stop stop-color="#FFCCB3"/><stop offset=".58" stop-color="#FFBD9C"/><stop offset="1" stop-color="#FFB591"/></linearGradient><linearGradient id="paint10_linear" x1="5591.94" y1="23.535" x2="5591.94" y2="142.507" gradientUnits="userSpaceOnUse"><stop stop-color="#FFCCB3"/><stop offset=".58" stop-color="#FFBD9C"/><stop offset="1" stop-color="#FFB591"/></linearGradient><linearGradient id="paint11_linear" x1="1338.82" y1="92.925" x2="1338.82" y2="143.419" gradientUnits="userSpaceOnUse"><stop stop-color="#FFCCB3"/><stop offset=".58" stop-color="#FFBD9C"/><stop offset="1" stop-color="#FFB591"/></linearGradient><linearGradient id="paint12_linear" x1="11429.4" y1="85.498" x2="11429.4" y2="305.458" gradientUnits="userSpaceOnUse"><stop stop-color="#FFCCB3"/><stop offset=".58" stop-color="#FFBD9C"/><stop offset="1" stop-color="#FFB591"/></linearGradient><linearGradient id="paint13_linear" x1="15228.8" y1="-14.611" x2="15228.8" y2="400.409" gradientUnits="userSpaceOnUse"><stop stop-color="#FFCCB3"/><stop offset=".58" stop-color="#FFBD9C"/><stop offset="1" stop-color="#FFB591"/></linearGradient><linearGradient id="paint14_linear" x1="4210.82" y1="78.335" x2="4210.82" y2="225.667" gradientUnits="userSpaceOnUse"><stop stop-color="#FFCCB3"/><stop offset=".58" stop-color="#FFBD9C"/><stop offset="1" stop-color="#FFB591"/></linearGradient><linearGradient id="paint15_linear" x1="892625" y1="-1085.16" x2="892625" y2="5780.19" gradientUnits="userSpaceOnUse"><stop stop-color="#FFCCB3"/><stop offset=".58" stop-color="#FFBD9C"/><stop offset="1" stop-color="#FFB591"/></linearGradient><linearGradient id="paint16_linear" x1="237436" y1="-1002.99" x2="237436" y2="5584.76" gradientUnits="userSpaceOnUse"><stop stop-color="#FFCCB3"/><stop offset=".58" stop-color="#FFBD9C"/><stop offset="1" stop-color="#FFB591"/></linearGradient><linearGradient id="paint17_linear" x1="286404" y1="-1052.99" x2="286404" y2="5812.83" gradientUnits="userSpaceOnUse"><stop stop-color="#FFCCB3"/><stop offset=".58" stop-color="#FFBD9C"/><stop offset="1" stop-color="#FFB591"/></linearGradient><linearGradient id="paint18_linear" x1="29.052" y1="124.45" x2="29.817" y2="149.92" gradientUnits="userSpaceOnUse"><stop stop-color="#FFBDA3"/><stop offset="1" stop-color="#FF9368"/></linearGradient><linearGradient id="paint19_linear" x1="242.96" y1="99.779" x2="266.96" y2="39.779" gradientUnits="userSpaceOnUse"><stop offset=".57"/><stop offset=".67" stop-color="#202020"/><stop offset=".89" stop-color="#5D5D5D"/><stop offset="1" stop-color="#757575"/></linearGradient><linearGradient id="paint20_linear" x1="-1199.89" y1="635.969" x2="-723.67" y2="261.291" gradientUnits="userSpaceOnUse"><stop offset=".57"/><stop offset=".67" stop-color="#202020"/><stop offset=".89" stop-color="#5D5D5D"/><stop offset="1" stop-color="#757575"/></linearGradient><linearGradient id="paint21_linear" x1="-1730.37" y1="808.239" x2="-1114.33" y2="253.536" gradientUnits="userSpaceOnUse"><stop offset=".57"/><stop offset=".67" stop-color="#202020"/><stop offset=".89" stop-color="#5D5D5D"/><stop offset="1" stop-color="#757575"/></linearGradient><linearGradient id="paint22_linear" x1="-1773.16" y1="1111.32" x2="-980.395" y2="566.377" gradientUnits="userSpaceOnUse"><stop offset=".57"/><stop offset=".67" stop-color="#202020"/><stop offset=".89" stop-color="#5D5D5D"/><stop offset="1" stop-color="#757575"/></linearGradient><linearGradient id="paint23_linear" x1="-7856.07" y1="2276.89" x2="-6510.72" y2="-43.886" gradientUnits="userSpaceOnUse"><stop offset=".57"/><stop offset=".67" stop-color="#202020"/><stop offset=".89" stop-color="#5D5D5D"/><stop offset="1" stop-color="#757575"/></linearGradient><linearGradient id="paint24_linear" x1="-3893.22" y1="1637.07" x2="-2697.72" y2="353.559" gradientUnits="userSpaceOnUse"><stop offset=".57"/><stop offset=".67" stop-color="#202020"/><stop offset=".89" stop-color="#5D5D5D"/><stop offset="1" stop-color="#757575"/></linearGradient><linearGradient id="paint25_linear" x1="-3050.98" y1="2854.9" x2="-2856.49" y2="1433.13" gradientUnits="userSpaceOnUse"><stop offset=".57"/><stop offset=".67" stop-color="#202020"/><stop offset=".89" stop-color="#5D5D5D"/><stop offset="1" stop-color="#757575"/></linearGradient></defs></svg>