<svg xmlns="http://www.w3.org/2000/svg" width="97.44" height="94.45"><defs><style>.cls-4{mix-blend-mode:multiply}.cls-3{fill:#1d1d1b}.cls-4{opacity:.1}</style></defs><g style="isolation:isolate"><g id="Layer_2" data-name="Layer 2"><g id="_07" data-name="7"><g style="mix-blend-mode:multiply" opacity=".55"><path class="cls-3" d="M93.93 84.85a6.21 6.21 0 01-6.31 6.09H9.82a6.2 6.2 0 01-6.31-6.09V9.72a6.2 6.2 0 016.31-6.09h77.8a6.2 6.2 0 016.31 6.09z"/><g class="cls-4"><path class="cls-3" d="M87.62 3.63a6.2 6.2 0 016.31 6.09v75.13a6.21 6.21 0 01-6.31 6.09H9.82a6.2 6.2 0 01-6.31-6.09V9.72a6.2 6.2 0 016.31-6.09h77.8m0-.08H9.82a6.29 6.29 0 00-6.39 6.17v75.13A6.29 6.29 0 009.82 91h77.8A6.28 6.28 0 0094 84.85V9.72a6.28 6.28 0 00-6.38-6.17z"/></g><g class="cls-4"><path class="cls-3" d="M87.62 3.63a6.2 6.2 0 016.31 6.09v75.13a6.21 6.21 0 01-6.31 6.09H9.82a6.2 6.2 0 01-6.31-6.09V9.72a6.2 6.2 0 016.31-6.09h77.8m0-.39H9.82a6.6 6.6 0 00-6.7 6.48v75.13a6.61 6.61 0 006.7 6.48h77.8a6.61 6.61 0 006.7-6.48V9.72a6.6 6.6 0 00-6.7-6.48z"/></g><g class="cls-4"><path class="cls-3" d="M87.62 3.63a6.2 6.2 0 016.31 6.09v75.13a6.21 6.21 0 01-6.31 6.09H9.82a6.2 6.2 0 01-6.31-6.09V9.72a6.2 6.2 0 016.31-6.09h77.8m0-.78H9.82a7 7 0 00-7.09 6.87v75.13a7 7 0 007.09 6.87h77.8a7 7 0 007.09-6.87V9.72a7 7 0 00-7.09-6.87z"/></g><g class="cls-4"><path class="cls-3" d="M87.62 3.63a6.2 6.2 0 016.31 6.09v75.13a6.21 6.21 0 01-6.31 6.09H9.82a6.2 6.2 0 01-6.31-6.09V9.72a6.2 6.2 0 016.31-6.09h77.8m0-1.17H9.82a7.38 7.38 0 00-7.48 7.26v75.13a7.39 7.39 0 007.48 7.26h77.8a7.39 7.39 0 007.48-7.26V9.72a7.38 7.38 0 00-7.48-7.26z"/></g><g class="cls-4"><path class="cls-3" d="M87.62 3.63a6.2 6.2 0 016.31 6.09v75.13a6.21 6.21 0 01-6.31 6.09H9.82a6.2 6.2 0 01-6.31-6.09V9.72a6.2 6.2 0 016.31-6.09h77.8m0-1.56H9.82A7.77 7.77 0 002 9.72v75.13a7.77 7.77 0 007.82 7.65h77.8a7.77 7.77 0 007.87-7.65V9.72a7.77 7.77 0 00-7.87-7.65z"/></g><g class="cls-4"><path class="cls-3" d="M87.62 3.63a6.2 6.2 0 016.31 6.09v75.13a6.21 6.21 0 01-6.31 6.09H9.82a6.2 6.2 0 01-6.31-6.09V9.72a6.2 6.2 0 016.31-6.09h77.8m0-1.95H9.82A8.31 8.31 0 004 4a7.9 7.9 0 00-2.44 5.72v75.13A7.9 7.9 0 004 90.56a8.36 8.36 0 005.82 2.33h77.8a8.32 8.32 0 005.81-2.33 7.87 7.87 0 002.45-5.71V9.72A7.87 7.87 0 0093.43 4a8.27 8.27 0 00-5.81-2.33z"/></g><g class="cls-4"><path class="cls-3" d="M87.62 3.63a6.2 6.2 0 016.31 6.09v75.13a6.21 6.21 0 01-6.31 6.09H9.82a6.2 6.2 0 01-6.31-6.09V9.72a6.2 6.2 0 016.31-6.09h77.8m0-2.34H9.82a8.68 8.68 0 00-6.09 2.44 8.26 8.26 0 00-2.56 6v75.12a8.28 8.28 0 002.56 6 8.73 8.73 0 006.09 2.44h77.8a8.72 8.72 0 006.08-2.44 8.25 8.25 0 002.57-6V9.72a8.23 8.23 0 00-2.57-6 8.68 8.68 0 00-6.08-2.44z"/></g><g class="cls-4"><path class="cls-3" d="M87.62 3.63a6.2 6.2 0 016.31 6.09v75.13a6.21 6.21 0 01-6.31 6.09H9.82a6.2 6.2 0 01-6.31-6.09V9.72a6.2 6.2 0 016.31-6.09h77.8m0-2.73H9.82a9.07 9.07 0 00-6.36 2.55A8.64 8.64 0 00.78 9.72v75.13a8.66 8.66 0 002.68 6.27 9.11 9.11 0 006.36 2.55h77.8A9.11 9.11 0 0094 91.12a8.67 8.67 0 002.69-6.27V9.72A8.65 8.65 0 0094 3.45 9.06 9.06 0 0087.62.9z"/></g><g class="cls-4"><path class="cls-3" d="M87.62 3.63a6.2 6.2 0 016.31 6.09v75.13a6.21 6.21 0 01-6.31 6.09H9.82a6.2 6.2 0 01-6.31-6.09V9.72a6.2 6.2 0 016.31-6.09h77.8m0-3.12H9.82a9.47 9.47 0 00-6.63 2.66 9.15 9.15 0 00-2 2.93 9 9 0 00-.8 3.62v75.13a9 9 0 00.76 3.62 9.15 9.15 0 002 2.93 9.47 9.47 0 006.63 2.66h77.8a9.47 9.47 0 006.63-2.66 9.15 9.15 0 002-2.93 9 9 0 00.76-3.62V9.72a9 9 0 00-.76-3.62 9.15 9.15 0 00-2-2.93A9.47 9.47 0 0087.62.51z"/></g><g class="cls-4"><path class="cls-3" d="M87.62 3.63a6.2 6.2 0 016.31 6.09v75.13a6.21 6.21 0 01-6.31 6.09H9.82a6.2 6.2 0 01-6.31-6.09V9.72a6.2 6.2 0 016.31-6.09h77.8m0-3.51H9.82a9.86 9.86 0 00-6.9 2.77A9.46 9.46 0 000 9.72v75.13a9.45 9.45 0 00.79 3.78 9.6 9.6 0 002.13 3.05 9.86 9.86 0 006.9 2.77h77.8a9.81 9.81 0 009-5.82 9.45 9.45 0 00.79-3.78V9.72a9.46 9.46 0 00-2.92-6.83A9.86 9.86 0 0087.62.12z"/></g></g><rect x="3.43" width="90.94" height="90.94" rx="6.34" fill="#e77e23"/><path d="M25.16 28.43L3.43 48v36.67S3.24 90.5 9.78 91h38.86l19.91-21L57.3 40.77z" fill="#d35300" opacity=".6"/><path d="M33.35 63l8.17 10.23a1.12 1.12 0 001.71 0l3.33-3.45a1.62 1.62 0 00.6-1.93L45 60.49l10-10.43L66.62 70a1.15 1.15 0 001.93.1l4.78-5c.47-.5.22-1.89.22-1.89l-6.72-25.67s7.2-7 8.43-9.15S78.64 22 77 19.2l-.32-.56-.56-.3c-2.88-1.54-7 .7-9.15 2s-9 8.64-9 8.64l-25.73-6.15s-1.39-.22-1.88.26L25.5 28a1.16 1.16 0 00.14 1.93l20.17 11.16-10.2 10.24-7.38-2a1.62 1.62 0 00-1.92.64l-3.37 3.41a1.12 1.12 0 000 1.71z" fill="#ecf0f1"/></g></g></g></svg>