<svg xmlns="http://www.w3.org/2000/svg" width="327.87" height="236.89"><defs><radialGradient id="radial-gradient" cx="246.32" cy="129.51" r="158.84" gradientUnits="userSpaceOnUse"><stop offset=".64" stop-color="#fff"/><stop offset=".68" stop-color="#fafafa"/><stop offset=".72" stop-color="#ececec"/><stop offset=".77" stop-color="#d4d4d4"/><stop offset=".82" stop-color="#b3b3b3"/><stop offset=".87" stop-color="#898989"/><stop offset=".93" stop-color="#555"/><stop offset=".98" stop-color="#191919"/><stop offset="1"/></radialGradient><radialGradient id="radial-gradient-2" cx="-170.55" cy="-3784.9" r="51.84" gradientTransform="matrix(-1 -.01 -.02 1.42 64.07 5525.73)" gradientUnits="userSpaceOnUse"><stop offset="0" stop-color="#85d1f5"/><stop offset=".63" stop-color="#0ca4ec"/><stop offset="1" stop-color="#03346b"/></radialGradient><radialGradient id="radial-gradient-3" cx="-163.38" cy="-420.04" r="57.04" gradientTransform="matrix(-1 -.01 -.01 1 126.97 560)" gradientUnits="userSpaceOnUse"><stop offset="0" stop-color="#23361d"/><stop offset="1" stop-color="#12110c"/></radialGradient><radialGradient id="radial-gradient-4" cx="78.67" cy="-164.81" r="90.71" gradientTransform="matrix(-1 .03 .03 1 286.44 317.63)" gradientUnits="userSpaceOnUse"><stop offset="0" stop-color="#d5ac95"/><stop offset=".53" stop-color="#f4e3d6"/><stop offset="1" stop-color="#d5ac95"/></radialGradient><linearGradient id="ÅÂÁ_Ï_ÌÌ_È_ËÂÌÚ_87" data-name="ÅÂÁ˚ÏﬂÌÌ˚È „‡‰ËÂÌÚ 87" x1="194.82" y1="108.32" x2="497.85" y2="108.32" gradientTransform="matrix(-1 .09 .09 1 487.02 -30.99)" gradientUnits="userSpaceOnUse"><stop offset="0" stop-color="#ffccb3"/><stop offset=".58" stop-color="#ffbd9c"/><stop offset="1" stop-color="#ffb591"/></linearGradient><linearGradient id="ÅÂÁ_Ï_ÌÌ_È_ËÂÌÚ_139" data-name="ÅÂÁ˚ÏﬂÌÌ˚È „‡‰ËÂÌÚ 139" x1="-29.95" y1="-266.35" x2="207.63" y2="-266.35" gradientTransform="matrix(-1 .03 .03 1 286.44 317.63)" gradientUnits="userSpaceOnUse"><stop offset="0" stop-color="#ffa77d"/><stop offset=".29" stop-color="#ffaf88"/><stop offset=".81" stop-color="#ffc3a6"/><stop offset="1" stop-color="#ffccb3"/></linearGradient><linearGradient id="linear-gradient" x1="-145.4" y1="-515.46" x2="-144.86" y2="-360.12" gradientTransform="matrix(-1 -.01 -.01 1 126.97 560)" gradientUnits="userSpaceOnUse"><stop offset="0" stop-color="#23361d"/><stop offset="1" stop-color="#063"/></linearGradient><linearGradient id="linear-gradient-2" x1="-170.11" y1="-412.91" x2="-131.82" y2="-412.91" gradientTransform="matrix(-1 -.01 -.01 1 126.97 560)" gradientUnits="userSpaceOnUse"><stop offset="0" stop-color="#0ca4ec"/><stop offset=".51" stop-color="#b6e4f9"/><stop offset="1" stop-color="#264998"/></linearGradient><style>.cls-2{fill:#ff7f4d;opacity:.44}.cls-13{fill:#1d1d1b}</style></defs><g id="Layer_2" data-name="Layer 2"><g id="_07" data-name="7"><path d="M294.47 2.14S249.28-8 182 15.94c-76.61 27.3-107.06 95-180.9 90.22-16.92-1.09 159.08 100.31 213.56 97C235.43 202 296.78 83.88 294.47 2.14z" fill="url(#ÅÂÁ_Ï_ÌÌ_È_ËÂÌÚ_87)"/><path class="cls-2" d="M307.36 206.16C172.53 245.09 75 110.93 75 110.93s103 80.8 217 86.66c12.64.65 15.36 8.57 15.36 8.57z"/><path class="cls-2" d="M308.11 209.46c-87 17.18-171.2-16.52-234.24-90.56 59.97 79.92 147.18 114.56 234.24 90.56z"/><path d="M293.08 61.75C278.21 77.53 71.8 105.64 71.8 105.64S222.93-11.14 296.89 5.44c0 0 25.26 25.45-3.81 56.31z" fill="url(#ÅÂÁ_Ï_ÌÌ_È_ËÂÌÚ_139)"/><path class="cls-2" d="M71.8 105.64C137.41 65 218.8.89 296.89 5.44c-76.74-18.67-168.2 48.87-225.09 100.2z"/><path d="M291.63 58.37c-89.47-35.89-210.71 54.15-210.71 54.15s107.51 119.22 209.48 89c11.23-3.33 1.23-143.15 1.23-143.15z" fill="url(#radial-gradient)"/><path d="M251.33 126.27c.45 52.06 16.54 76.16 30.48 76.34 12.08.15 21.55-33.06 22.07-74.17s-9.36-74.74-20.18-74.7c-13.94.05-32.7 29.68-32.37 72.53z" fill="url(#linear-gradient)"/><path d="M254.21 127.81c-.52 41.11 13.66 74.62 27.6 74.8 12.08.15 21.55-33.06 22.07-74.17s-9.36-74.74-20.18-74.7c-13.94.05-28.97 32.96-29.49 74.07z" fill="url(#radial-gradient-2)"/><path d="M265.8 108.58c3.41 42.73 6.45 65.27 19.65 65.85 10.38.45 13.47-15.8 17.06-41.22-1.15 38.93-8.07 56.15-19.69 56-15.12-.21-22.01-36.01-17.02-80.63z" fill="url(#linear-gradient-2)"/><path d="M269.69 121.84c-.33 25.6 8.5 46.47 17.18 46.58 7.52.09 13.42-20.59 13.74-46.19s-5.83-46.54-12.56-46.51c-8.68.03-18.05 20.52-18.36 46.12z" fill="url(#radial-gradient-3)"/><path d="M266.74 86c2.43 4.6 9.24 5.78 15.2 2.63s8.82-9.43 6.38-14-9.24-5.79-15.2-2.64-8.82 9.39-6.38 14.01z" fill="#ceedfb"/><ellipse cx="291.08" cy="156.62" rx="8.41" ry="6.5" transform="rotate(-34.54 291.074 156.614)" fill="#7de8ff"/><path d="M277.55 79.5a6.83 6.83 0 106.61-7 6.82 6.82 0 00-6.61 7z" fill="#fff"/><path d="M322.35 190.45c-89.69 43.12-211.64-47.4-240.12-79.75l-4.86 2.08c31.86 33.86 140.08 123.51 231.25 84.72z" fill="#e2bb93"/><path class="cls-13" d="M77.37 112.78c59.06 65.63 150 117.87 231.25 84.72-81.25 26.29-169.5-24.42-231.25-84.72z"/><path d="M82.23 110.7c59.24 65.68 160.51 114.58 240.12 79.75C242.27 222.11 143 174 82.23 110.7z" fill="url(#radial-gradient-4)"/><path class="cls-13" d="M268.1 206.66c2.27-3 6.24-.68 8.38 1.48a14.48 14.48 0 013.64 6.49 24.83 24.83 0 01.85 8.14c-1.08 6.79-2.43 9.41-3.65 14.12a33.39 33.39 0 005.29-23 19 19 0 00-3.64-8.6 13.62 13.62 0 00-6.31-4.88 8.2 8.2 0 00-3.33-.52 5.75 5.75 0 00-3.14 1c-2.7 1.92-.29 4.23 1.91 5.77zm15.74-.27c.23-5.54 7.85-4.76 10.56-2.73 3.24 2.12 5.44 6.2 6.55 9.34a43.53 43.53 0 011.69 5.42 43.82 43.82 0 00-1.1-5.67c-.81-3.34-2.53-7.95-6-11a10.69 10.69 0 00-5.92-2.86 9.3 9.3 0 00-5.8 1 7.31 7.31 0 00-3.51 4.07c-.83 2.65 1.57 2.71 3.53 2.43z"/><path class="cls-13" d="M296.64 202.41a2.18 2.18 0 011.41-2 5.74 5.74 0 016.47 1.38c2.15 1.94 3.35 5.16 3.85 7.57a31 31 0 01.71 4.12 33.22 33.22 0 00-.26-4.23 16.3 16.3 0 00-3.32-8.71 7.7 7.7 0 00-8.29-2.84 5 5 0 00-2.92 2.48c-1.07 1.73-.29 2.47 2.35 2.23zm-38.83 4.33a2.19 2.19 0 011.42-2 5.74 5.74 0 016.47 1.38c2.14 1.94 3.34 5.16 3.85 7.57a33.21 33.21 0 01.71 4.12 33.22 33.22 0 00-.26-4.23 16.47 16.47 0 00-3.32-8.71 7.71 7.71 0 00-8.3-2.84 5 5 0 00-2.91 2.48q-1.6 2.6 2.34 2.23z"/><path class="cls-13" d="M248.71 207.9a2.86 2.86 0 012.14-2.36c2.09-.84 5.82-.25 8.14 2.78 2.47 2.83 3.52 7.18 3.81 10.36a43 43 0 01.28 5.43 43.17 43.17 0 00.31-5.5c0-3.28-.46-8-2.94-11.75-2.33-4-6.89-5.73-10.28-5a6.51 6.51 0 00-4.15 2.76q-2.46 3.14 2.69 3.28z"/><path class="cls-13" d="M232.6 205.51a2.85 2.85 0 012.13-2.36c2.1-.84 5.82-.25 8.14 2.78 2.47 2.83 3.53 7.18 3.81 10.36a40.8 40.8 0 01.28 5.43 40.81 40.81 0 00.31-5.5c0-3.28-.45-8-2.94-11.75-2.33-3.95-6.88-5.73-10.27-4.95a6.48 6.48 0 00-4.15 2.76c-1.64 2.07-.75 3.14 2.69 3.23z"/><path class="cls-13" d="M226.48 203.48a2.84 2.84 0 00-2.28-2.22c-2.15-.7-5.83.13-7.94 3.3-2.29 3-3.06 7.39-3.13 10.59a41.36 41.36 0 00.07 5.44 41.32 41.32 0 01-.67-5.47c-.26-3.27-.06-8 2.17-11.92 2.07-4.09 6.5-6.16 9.94-5.6a6.44 6.44 0 014.31 2.48c1.78 1.92.95 3.09-2.47 3.4z"/><path class="cls-13" d="M213.53 200.85a2.34 2.34 0 00-1.87-1.82 6.1 6.1 0 00-6.49 2.7c-1.87 2.45-2.5 6.05-2.56 8.66a35.43 35.43 0 000 4.45 34.5 34.5 0 01-.54-4.48 17.44 17.44 0 011.78-9.75c1.69-3.34 5.31-5 8.12-4.57a5.25 5.25 0 013.53 2q2.23 2.42-1.97 2.81zM203 197.68a2.3 2.3 0 00-1.86-1.81 6.09 6.09 0 00-6.5 2.69c-1.87 2.45-2.5 6.05-2.56 8.66a34.09 34.09 0 00.06 4.45 35.38 35.38 0 01-.55-4.47 17.44 17.44 0 011.78-9.75 8.19 8.19 0 018.12-4.58 5.3 5.3 0 013.54 2c1.49 1.63.81 2.55-2.03 2.81z"/><path class="cls-13" d="M193.56 193.78a2.15 2.15 0 00-1.71-1.67 5.6 5.6 0 00-5.95 2.48c-1.71 2.24-2.29 5.54-2.34 7.93a31.93 31.93 0 00.05 4.08 31.76 31.76 0 01-.5-4.1 15.92 15.92 0 011.63-8.94 7.51 7.51 0 017.44-4.19 4.87 4.87 0 013.24 1.86q2 2.19-1.86 2.55z"/><path class="cls-13" d="M183.23 191.18a2.26 2.26 0 00-1.82-1.77 6 6 0 00-6.34 2.63c-1.82 2.38-2.44 5.89-2.5 8.44a34.6 34.6 0 00.06 4.34 34.23 34.23 0 01-.53-4.36 17 17 0 011.73-9.51 8 8 0 017.92-4.47 5.19 5.19 0 013.45 2q2.12 2.32-1.97 2.7zm-8.46-5.57a2.29 2.29 0 00-1.82-1.77 6 6 0 00-6.34 2.63c-1.82 2.38-2.44 5.9-2.5 8.44a34.6 34.6 0 00.06 4.34 33.89 33.89 0 01-.53-4.36 17 17 0 011.73-9.51 8 8 0 017.93-4.47 5.2 5.2 0 013.44 2c1.41 1.54.76 2.45-1.97 2.7z"/><path class="cls-13" d="M167.16 181.66a1.74 1.74 0 00-1.4-1.36 4.59 4.59 0 00-4.9 2 11.71 11.71 0 00-1.93 6.53 26.52 26.52 0 000 3.36 26.12 26.12 0 01-.41-3.37 13.15 13.15 0 011.34-7.36A6.18 6.18 0 01166 178a3.93 3.93 0 012.66 1.53c1.12 1.24.62 1.94-1.5 2.13z"/><path class="cls-13" d="M161.37 177.92a1.74 1.74 0 00-1.41-1.36 4.6 4.6 0 00-4.9 2 11.87 11.87 0 00-1.93 6.53 25.21 25.21 0 00.05 3.36 27 27 0 01-.42-3.37 13.25 13.25 0 011.35-7.36 6.17 6.17 0 016.12-3.45 4 4 0 012.67 1.53q1.64 1.83-1.53 2.12z"/><path class="cls-13" d="M155.63 175a1.77 1.77 0 00-1.41-1.37 4.61 4.61 0 00-4.9 2 11.69 11.69 0 00-1.93 6.53 26.62 26.62 0 000 3.36 26.14 26.14 0 01-.41-3.38 13.15 13.15 0 011.34-7.36 6.18 6.18 0 016.13-3.45 4 4 0 012.66 1.53q1.69 1.88-1.48 2.14z"/><path class="cls-13" d="M148.82 171.31a1.75 1.75 0 00-1.4-1.37 4.61 4.61 0 00-4.91 2 11.85 11.85 0 00-1.93 6.53 25.21 25.21 0 000 3.36 26.14 26.14 0 01-.41-3.38 13.13 13.13 0 011.34-7.35 6.18 6.18 0 016.13-3.46 4 4 0 012.66 1.54q1.7 1.82-1.48 2.13z"/><path class="cls-13" d="M143.24 168.4a1.79 1.79 0 00-1.41-1.37 4.62 4.62 0 00-4.9 2 11.79 11.79 0 00-1.93 6.57 26.52 26.52 0 000 3.36 26.14 26.14 0 01-.41-3.38 13.13 13.13 0 011.34-7.35 6.19 6.19 0 016.13-3.46 4 4 0 012.67 1.54q1.68 1.8-1.49 2.09zM132 161.75a1.74 1.74 0 00-1.4-1.37 4.61 4.61 0 00-4.91 2 11.85 11.85 0 00-1.89 6.62 25.1 25.1 0 000 3.35 25.79 25.79 0 01-.41-3.37 13.15 13.15 0 011.34-7.36 6.18 6.18 0 016.13-3.45 4 4 0 012.66 1.53q1.68 1.77-1.52 2.05zm-10.37-9.65a1.11 1.11 0 00-.89-.87 2.91 2.91 0 00-3.09 1.29 7.42 7.42 0 00-1.22 4.12 15.46 15.46 0 000 2.12 15.92 15.92 0 01-.26-2.13A8.3 8.3 0 01117 152a3.91 3.91 0 013.87-2.19 2.58 2.58 0 011.69 1c.73.72.44 1.19-.93 1.29zm-8.82-6.43a1.08 1.08 0 00-.89-.86 2.9 2.9 0 00-3.09 1.28 7.44 7.44 0 00-1.22 4.12 15.46 15.46 0 000 2.12 15.62 15.62 0 01-.26-2.13 8.3 8.3 0 01.84-4.64 3.92 3.92 0 013.87-2.18 2.5 2.5 0 011.69 1c.72.73.4 1.17-.94 1.29zm121.95 58.46a2.31 2.31 0 00-2.38-1 6.1 6.1 0 00-5.15 4.79c-.89 2.95-.23 6.54.62 9a33.93 33.93 0 001.61 4.15 35 35 0 01-2.07-4 17.44 17.44 0 01-1.74-9.76c.42-3.72 3.23-6.58 6-7.12a5.29 5.29 0 014 .67c1.95.95 1.65 2.05-.89 3.27zm41.17 1.97a1.51 1.51 0 011.69-1.81c2.25-.61 6.13.72 8.56 4 2.59 3.16 3.67 7.8 3.87 11.19a40.72 40.72 0 01.12 5.77 40.87 40.87 0 00.51-5.79c.15-3.47-.36-8.5-2.94-12.62s-6.85-6.76-10.53-6.45a6.15 6.15 0 00-2.61.7 4.6 4.6 0 00-2 2.2c-1.23 2.81 1.28 3 3.33 2.81z"/><path class="cls-13" d="M269 207.35a16.29 16.29 0 013.55 2.26 13.21 13.21 0 015 8.2c.6 3.74-.94 7.72-2.39 10.22a42 42 0 01-2.66 4.13 40.63 40.63 0 003.17-3.7 17.5 17.5 0 003.88-10.83c-.07-4.77-2.71-8.79-4.82-11a21.35 21.35 0 00-4-3.43zm56.8-132.07c-75.53-63.6-202.06-4.62-272.37 52.32C131 82 232.36 31.92 325.8 75.28z"/><path class="cls-13" d="M310.6 75C222.7 31.76 97.48 94.19 67.37 129.21 72.25 123.53 221.89 38.36 310.6 75z"/><path class="cls-13" d="M319.83 76.9c-75.08-55.63-240.47 22-263 54.36 5.81-8.35 180.01-107.13 263-54.36z"/><path class="cls-13" d="M201.56 65.32C232.33 60 308.53 54 327.87 83.39c-17.61-32.09-89.32-29.51-118-27.26z"/><path class="cls-13" d="M289.29 61.49a16.42 16.42 0 008.67 1c14.73-3.13 19.86-20.79 19.32-36.45-.68 8.07-3.13 17.47-7.79 23.64a15.47 15.47 0 01-12.15 6.59c-2.14-.02-8.05 5.22-8.05 5.22z"/><path class="cls-13" d="M283 59.89c3.23 4.07 17.13-.4 19.76-3.26a19.33 19.33 0 003.24-5.32c3.52-11.67.8-25.21-3.4-36.33 2.37 10.7 3.32 23.43-1 33.46a12 12 0 01-2.61 3 10.56 10.56 0 01-6.14 2c-2.37-.03-9.85 6.45-9.85 6.45z"/><path class="cls-13" d="M272.92 57.94c5 1.05 11.65 2.16 16.25-.57a15.47 15.47 0 004.83-4.55 18.11 18.11 0 002.79-6.52c3.59-12.63-1.91-29.17-6.15-40.66 2.6 11.28 7.47 32.89-1 42.63a9 9 0 01-6.49 2.81c-2.76-.08-10.23 6.86-10.23 6.86z"/><path class="cls-13" d="M254.84 56.7c8 1.64 17.52.19 24-5.74a18.64 18.64 0 003.68-5.52c4.69-9.5 1.47-23.42-2-32.81 2.24 8.47 3.6 22.83-1.66 30.2-3.5 5.82-10.2 6.33-14.79 5.82-2.65-.34-9.23 8.05-9.23 8.05z"/><path class="cls-13" d="M230.16 55.05c11.7 2.3 24.8 1.39 34.65-6.73 1.64-2 3.42-3.8 4.35-6.28 4.91-8.48 2.53-23.37-.74-32 2.1 8.08 3.23 23-2.19 29.87-.93 1.91-2.58 3.11-4 4.47-9.41 5.55-20.17 9.52-30.11 6z"/><path class="cls-13" d="M216.32 58.8c8.11 2.16 18.44 4 25.62-1.57 1.72-1.5 6.54-10.28 7.29-12.63a74 74 0 00-3.6-30.76 73.23 73.23 0 01.12 29.27c-.87 1.72-1.41 3.71-2.65 4.94-.96 1.52-26.78 10.75-26.78 10.75z"/><path class="cls-13" d="M199.3 58.3c6.73 1.89 15.24 1.87 21.19-2.92 1.43-1.31 5.41-8.93 6-11a67.16 67.16 0 00-3-26.74 66.4 66.4 0 01.14 25.44c-.71 1.5-4.18 6.35-5.26 7.08-5.32 2.9-19.07 8.14-19.07 8.14z"/><path class="cls-13" d="M178.42 66.52c6.84 1.22 15.32.35 20.89-5 1.32-1.45 4.95-9.39 5.2-11.54 1-9-1.56-18.18-5-26.37 2.33 8.24 4.64 19.82 2 25.36-3.32 7.03-23.09 17.55-23.09 17.55z"/><path class="cls-13" d="M165 72.61c6.89-.43 16-1.39 20.48-8a20.72 20.72 0 003-12.55c-.57-9.1-4.7-17.47-9.47-24.69 3.72 7.53 6.39 15.86 6.4 24.4.02 12.87-20.41 20.84-20.41 20.84zm-80.63 30.2c-18.7 4.55-37.45 2.19-52.9-15.52 19.47 22.32 36.77 26.37 54.6 22.35 18.78-4.24 14.72-10.83-1.7-6.83z"/><path class="cls-13" d="M105.82 93.15C78 102 46.39 103.68 30.4 76.81c14.18 30 42.7 32.5 71.86 25.14 26.11-6.58 28.41-16.71 3.56-8.8z"/><path class="cls-13" d="M113 90.46c-24.78 4.33-48.9.01-62.14-22.46 13.24 29.26 35.39 36 58.31 32.42 18.72-2.9 30.38-14.63 3.83-9.96z"/><path class="cls-13" d="M132.86 83.05c-24 5.49-50 2.94-65.7-23.26 16 33.35 41.55 36.67 67.66 29.74 18.46-4.89 20.98-11.73-1.96-6.48z"/><path class="cls-13" d="M141.1 78.83C128.17 80.3 101.71 80.21 84.73 55c21.67 32.13 30.35 36.44 48.17 31.29 9.71-2.78 26.22-9.5 8.2-7.46z"/><path class="cls-13" d="M144.86 71.69c-15.18 1-31.3-4.84-44.13-15.68C113.35 71.08 126 79 141.65 78.12s17.63-7.4 3.21-6.43zm22.68-4.89c-15.08-2.54-29.9-12-40.63-25.6 9.79 17.67 20.83 28.33 36.37 31.14s18.58-3.13 4.26-5.54zm13.67-5.03c-11.13-4.89-17.66-14.56-23.87-27 4.9 15.34 5.89 25.36 17.33 30.54s17.12 1.1 6.54-3.54z"/></g></g></svg>