<svg xmlns="http://www.w3.org/2000/svg" width="97.44" height="94.39"><defs><style>.cls-4{mix-blend-mode:multiply}.cls-3{fill:#1d1d1b}.cls-4{opacity:.1}.cls-8{fill:#fff}</style></defs><g style="isolation:isolate"><g id="Layer_2" data-name="Layer 2"><g id="_07" data-name="7"><g style="mix-blend-mode:multiply" opacity=".55"><path class="cls-3" d="M93.93 84.79a6.2 6.2 0 01-6.31 6.09H9.82a6.2 6.2 0 01-6.31-6.09V9.66a6.2 6.2 0 016.31-6.09h77.8a6.21 6.21 0 016.31 6.09z"/><g class="cls-4"><path class="cls-3" d="M87.62 3.57a6.21 6.21 0 016.31 6.09v75.13a6.2 6.2 0 01-6.31 6.09H9.82a6.2 6.2 0 01-6.31-6.09V9.66a6.2 6.2 0 016.31-6.09h77.8m0-.08H9.82a6.29 6.29 0 00-6.39 6.17v75.13A6.29 6.29 0 009.82 91h77.8A6.28 6.28 0 0094 84.79V9.66a6.28 6.28 0 00-6.38-6.17z"/></g><g class="cls-4"><path class="cls-3" d="M87.62 3.57a6.21 6.21 0 016.31 6.09v75.13a6.2 6.2 0 01-6.31 6.09H9.82a6.2 6.2 0 01-6.31-6.09V9.66a6.2 6.2 0 016.31-6.09h77.8m0-.39H9.82a6.61 6.61 0 00-6.7 6.48v75.13a6.6 6.6 0 006.7 6.48h77.8a6.6 6.6 0 006.7-6.48V9.66a6.61 6.61 0 00-6.7-6.48z"/></g><g class="cls-4"><path class="cls-3" d="M87.62 3.57a6.21 6.21 0 016.31 6.09v75.13a6.2 6.2 0 01-6.31 6.09H9.82a6.2 6.2 0 01-6.31-6.09V9.66a6.2 6.2 0 016.31-6.09h77.8m0-.78H9.82a7 7 0 00-7.09 6.87v75.13a7 7 0 007.09 6.87h77.8a7 7 0 007.09-6.87V9.66a7 7 0 00-7.09-6.87z"/></g><g class="cls-4"><path class="cls-3" d="M87.62 3.57a6.21 6.21 0 016.31 6.09v75.13a6.2 6.2 0 01-6.31 6.09H9.82a6.2 6.2 0 01-6.31-6.09V9.66a6.2 6.2 0 016.31-6.09h77.8m0-1.17H9.82a7.39 7.39 0 00-7.48 7.26v75.13a7.38 7.38 0 007.48 7.26h77.8a7.38 7.38 0 007.48-7.26V9.66a7.39 7.39 0 00-7.48-7.26z"/></g><g class="cls-4"><path class="cls-3" d="M87.62 3.57a6.21 6.21 0 016.31 6.09v75.13a6.2 6.2 0 01-6.31 6.09H9.82a6.2 6.2 0 01-6.31-6.09V9.66a6.2 6.2 0 016.31-6.09h77.8m0-1.56H9.82A7.77 7.77 0 002 9.66v75.13a7.77 7.77 0 007.87 7.65h77.8a7.77 7.77 0 007.87-7.65V9.66A7.77 7.77 0 0087.62 2z"/></g><g class="cls-4"><path class="cls-3" d="M87.62 3.57a6.21 6.21 0 016.31 6.09v75.13a6.2 6.2 0 01-6.31 6.09H9.82a6.2 6.2 0 01-6.31-6.09V9.66a6.2 6.2 0 016.31-6.09h77.8m0-1.95H9.82A8.36 8.36 0 004 4a7.9 7.9 0 00-2.44 5.66v75.13A7.9 7.9 0 004 90.5a8.31 8.31 0 005.82 2.33h77.8a8.27 8.27 0 005.81-2.33 7.87 7.87 0 002.45-5.71V9.66A7.87 7.87 0 0093.43 4a8.32 8.32 0 00-5.81-2.33z"/></g><g class="cls-4"><path class="cls-3" d="M87.62 3.57a6.21 6.21 0 016.31 6.09v75.13a6.2 6.2 0 01-6.31 6.09H9.82a6.2 6.2 0 01-6.31-6.09V9.66a6.2 6.2 0 016.31-6.09h77.8m0-2.34H9.82a8.73 8.73 0 00-6.09 2.44 8.28 8.28 0 00-2.56 6v75.12a8.26 8.26 0 002.56 6 8.68 8.68 0 006.09 2.44h77.8a8.68 8.68 0 006.08-2.44 8.23 8.23 0 002.57-6V9.66a8.25 8.25 0 00-2.57-6 8.72 8.72 0 00-6.08-2.44z"/></g><g class="cls-4"><path class="cls-3" d="M87.62 3.57a6.21 6.21 0 016.31 6.09v75.13a6.2 6.2 0 01-6.31 6.09H9.82a6.2 6.2 0 01-6.31-6.09V9.66a6.2 6.2 0 016.31-6.09h77.8m0-2.73H9.82a9.11 9.11 0 00-6.36 2.55A8.66 8.66 0 00.78 9.66v75.13a8.64 8.64 0 002.68 6.27 9.07 9.07 0 006.36 2.55h77.8A9.06 9.06 0 0094 91.06a8.65 8.65 0 002.69-6.27V9.66A8.67 8.67 0 0094 3.39 9.11 9.11 0 0087.62.84z"/></g><g class="cls-4"><path class="cls-3" d="M87.62 3.57a6.21 6.21 0 016.31 6.09v75.13a6.2 6.2 0 01-6.31 6.09H9.82a6.2 6.2 0 01-6.31-6.09V9.66a6.2 6.2 0 016.31-6.09h77.8m0-3.12H9.82a9.47 9.47 0 00-6.63 2.66A9.15 9.15 0 001.15 6a9 9 0 00-.76 3.66v75.13a9 9 0 00.76 3.62 9.15 9.15 0 002 2.93A9.47 9.47 0 009.82 94h77.8a9.47 9.47 0 006.63-2.66 9.15 9.15 0 002-2.93 9 9 0 00.76-3.62V9.66A9 9 0 0096.29 6a9.15 9.15 0 00-2-2.93A9.47 9.47 0 0087.62.45z"/></g><g class="cls-4"><path class="cls-3" d="M87.62 3.57a6.21 6.21 0 016.31 6.09v75.13a6.2 6.2 0 01-6.31 6.09H9.82a6.2 6.2 0 01-6.31-6.09V9.66a6.2 6.2 0 016.31-6.09h77.8m0-3.51H9.82a9.86 9.86 0 00-6.9 2.77A9.6 9.6 0 00.79 5.88 9.45 9.45 0 000 9.66v75.13a9.46 9.46 0 002.92 6.83 9.86 9.86 0 006.9 2.77h77.8a9.86 9.86 0 006.9-2.77 9.65 9.65 0 002.13-3.05 9.45 9.45 0 00.79-3.78V9.66a9.45 9.45 0 00-.79-3.78 9.81 9.81 0 00-9-5.82z"/></g></g><rect x="2.95" width="90.94" height="90.94" rx="6.34" fill="#0ca4ec"/><path d="M37.2 17.7L3 48.22v36.37s.15 6.08 6.35 6.35h34.23l18.86-17.61-20.11-39.61-2.5-11.86z" fill="#264998" opacity=".7"/><circle cx="49.95" cy="44.93" r="19.95" transform="rotate(-22.5 49.938 44.923)" fill="#03346b"/><path class="cls-8" d="M48.76 42.43V28.91a1.19 1.19 0 012.37 0v13.52a2.7 2.7 0 011.51 2.42 2.63 2.63 0 01-.19 1l6.06 6.66a1.18 1.18 0 01-.88 2 1.18 1.18 0 01-.88-.38l-6.06-6.66a2.6 2.6 0 01-.74.11 2.69 2.69 0 01-1.19-5.11z"/><path class="cls-8" d="M71.22 44.85a21.25 21.25 0 00-11.75-19l.65-1.5 4.64 2a5.71 5.71 0 00-2.47-7l.41-.95c.18-.39-.11-.89-.63-1.12a.93.93 0 00-1.26.3l-.41.94a5.72 5.72 0 00-6.83 3l4.66 2-.65 1.48a21.23 21.23 0 00-15.37 0l-.56-1.29 4.58-2a5.71 5.71 0 00-6.74-3L39 17.59a1.07 1.07 0 00-1.89.82l.51 1.17a5.71 5.71 0 00-2.51 7l4.68-2 .57 1.3a21.27 21.27 0 00.76 38.32l-3.64 8.33a1.07 1.07 0 001.89.83L43 65a21.25 21.25 0 0014 0l3.69 8.45a1.07 1.07 0 001.89-.83L59 64.11a21.25 21.25 0 0012.22-19.26zM50 63.75a18.91 18.91 0 1118.9-18.9A18.92 18.92 0 0150 63.75z"/></g></g></g></svg>