<svg xmlns="http://www.w3.org/2000/svg" width="27.56" height="27.56"><defs><style>.cls-4{opacity:.6;mix-blend-mode:multiply}.cls-5{fill:#3770a7}</style></defs><g style="isolation:isolate"><g id="Layer_2" data-name="Layer 2"><g id="grid"><path d="M13.78 0a13.78 13.78 0 1013.78 13.78A13.78 13.78 0 0013.78 0z" fill="#f07e20" id="Shape_163" data-name="Shape 163"/><path d="M13.39 17.36l-.24-6 .42-5.32-12.43 12.2-.26.4A13.84 13.84 0 009.8 27l5.13-5z" style="mix-blend-mode:multiply" opacity=".6" fill="#f08c06"/><g id="Shape_10" data-name="Shape 10" class="cls-4"><path class="cls-5" d="M17.54 7.68l-2.65-.17-2.01 2.01 1.92 1.94 3.29-2.68-.55-1.1z"/></g><g id="Shape_10_copy" data-name="Shape 10 copy" class="cls-4"><path class="cls-5" d="M17.47 13.34l-2.65-.17-2 2.01 1.91 1.93 3.3-2.67-.56-1.1z"/></g><path d="M15.57 8.7h2.53V5.57h-2.53a4 4 0 00-3.79 4.11v1.58H9.26v3.13h2.52V22h3.16v-7.6h3.16v-3.14h-3.16V9.65c0-.54.34-.95.63-.95z" fill="#f4f4f4" id="Shape_8" data-name="Shape 8"/></g></g></g></svg>