<svg xmlns="http://www.w3.org/2000/svg" width="27.56" height="25"><path d="M4.27 11.07L.52 8.59 12.15.48a3 3 0 013.25 0l10.3 7.18 1.3.93-3.77 2.49V8.94a1.61 1.61 0 00-1.6-1.61H5.87a1.61 1.61 0 00-1.6 1.61zm23.29-.84v12.39A2.39 2.39 0 0125.18 25H2.38A2.39 2.39 0 010 22.62V10.23a2.08 2.08 0 01.11-.66l11.46 7.57a4 4 0 004.44 0l11.44-7.57a2.08 2.08 0 01.11.66zM9.42 17.6a.5.5 0 00-.72-.1l-6.83 5.11a.52.52 0 00.31.94.51.51 0 00.31-.11l6.83-5.11a.51.51 0 00.1-.73zm16.4 5l-7-5.24a.52.52 0 00-.73.12.53.53 0 00.11.73l7 5.22a.5.5 0 00.31.1.55.55 0 00.42-.2.52.52 0 00-.11-.73zM8.73 10.69a.49.49 0 01.45-.52h9.1a.53.53 0 010 1h-9.1a.49.49 0 01-.45-.48zm0 2.53a.49.49 0 01.45-.52h9.1a.53.53 0 010 1h-9.1a.49.49 0 01-.45-.48z" fill="#f07e20" data-name="Layer 2"/></svg>