<svg width="149" height="68" fill="none" xmlns="http://www.w3.org/2000/svg"><path d="M72 51.14a15.54 15.54 0 01-15.48-15.56c0-4.41 1.57-7.13 4.18-11.66A144.665 144.665 0 0070.93 2.78L72 .08l1.07 2.7a144.177 144.177 0 0010.18 21c2.64 4.59 4.24 7.36 4.24 11.77A15.54 15.54 0 0172 51.14" fill="url(#paint0_radial)"/><path d="M78.28 47.23C77.56 31.65 71 28.5 61.75 26.16 51.28 40.45 68.53 53.9 78.28 47.23" fill="url(#paint1_radial)"/><path d="M71.92 6.94c8.3 41.91 13.71 27 11.48 23.11-7.53-13.15-7.53-13.1-11.48-23.11z" fill="url(#paint2_radial)"/><path d="M4.35 36.27c-.28-.9-.71-1.52-1.66-1.52a1 1 0 00-1 1c0 .68.51 1 1.35 1.38 1.27.56 2 1.06 2 2.13a2.31 2.31 0 01-2.53 2.15 4 4 0 01-1.85-.45c-.08-.45-.21-1.33-.28-1.84l.45-.08c.28 1 .83 1.84 1.91 1.84a1.06 1.06 0 001.12-1c0-.7-.42-1.07-1.27-1.44-1-.47-2-1-2-2.16a2.19 2.19 0 012.46-2c.508.023 1.013.09 1.51.2 0 .37.16 1.35.24 1.72l-.45.07zm1.55 4.97v-.44c1-.09 1.12-.17 1.12-1.19v-7.43c0-1-.08-1-1.07-1.16v-.41c.78-.092 1.548-.27 2.29-.53v9.53c0 1 .09 1.1 1.1 1.19v.44H5.9zm11.17-6.39c-.81.12-1 .24-1.37 1.13-.37.89-.81 1.92-1.88 4.62a44.124 44.124 0 00-1.53 4.25c-.09.32-.26.4-.47.4a.89.89 0 01-.94-.74c0-.2.11-.34.34-.54a3.492 3.492 0 001-1.15c.32-.65.56-1.2.63-1.4a.821.821 0 000-.63c-.6-1.77-1.44-3.68-1.9-4.8-.35-.85-.49-1-1.34-1.14v-.42h3.13v.42c-.71.1-.79.26-.58.83l1.51 3.82c.43-1.07 1-2.79 1.38-3.77.19-.59.08-.76-.82-.88v-.42h2.84v.42zm3.81-.61a3.33 3.33 0 013.38 3.48 3.468 3.468 0 01-3.38 3.7 3.4 3.4 0 01-3.44-3.46 3.56 3.56 0 013.44-3.72zm-.18.53c-1 0-1.8.91-1.8 2.71 0 2 .86 3.4 2.14 3.4 1 0 1.76-.7 1.76-2.82 0-1.82-.74-3.29-2.1-3.29zm10.53 4.48c-.2.61-.52 1.49-.67 2h-5.21l-.09-.25c1.35-2 2.66-4 3.93-6h-1.5c-1.1 0-1.29.17-1.89 1.5l-.44-.14c.207-.733.37-1.477.49-2.23h.34c.09.23.29.33.86.33h3.66l.1.23c-1.23 1.86-2.59 4-3.88 6h1.66c1.18 0 1.54-.31 2.23-1.61l.41.17zM37 41.42a1.15 1.15 0 01-.73-.29 1.48 1.48 0 01-.37-.7 4.85 4.85 0 01-1.86 1 1.9 1.9 0 01-1.85-1.93 1.58 1.58 0 011.27-1.55c.85-.245 1.671-.58 2.45-1v-.32c0-1.1-.56-1.73-1.36-1.73a.9.9 0 00-.73.35 3.4 3.4 0 00-.42 1 .44.44 0 01-.45.36.74.74 0 01-.68-.68c0-.22.2-.41.51-.62A6.52 6.52 0 0135 34.24a2.11 2.11 0 011.3.42 2.14 2.14 0 01.8 1.8v3c0 .72.26.93.54.93a1.18 1.18 0 00.56-.17l.15.44-1.35.76zm-1.09-3.92c-.34.17-1.08.49-1.44.65-.59.26-1 .56-1 1.13a1.13 1.13 0 001.17 1.22 2.07 2.07 0 001.27-.56V37.5zm73.75 2.34a3.683 3.683 0 01-2.66 1.58 3.135 3.135 0 01-2.261-.962 3.129 3.129 0 01-.869-2.298 3.693 3.693 0 011.56-3 4.131 4.131 0 012.36-.89 2.29 2.29 0 011.44.42.491.491 0 01.25.45.794.794 0 01-.56.7c-.07 0-.14 0-.29-.16a2.331 2.331 0 00-1.57-.65c-1 0-1.92.87-1.92 2.48a2.522 2.522 0 00.552 1.951 2.535 2.535 0 001.808.92 2.476 2.476 0 001.9-.88l.26.34zm4.34-5.6a3.329 3.329 0 013.38 3.48 3.473 3.473 0 01-3.38 3.7 3.4 3.4 0 01-3.44-3.46 3.564 3.564 0 01.942-2.579 3.558 3.558 0 012.498-1.14zm-.19.53c-.94 0-1.8.91-1.8 2.71 0 2 .87 3.4 2.14 3.4 1 0 1.77-.7 1.77-2.82-.04-1.82-.78-3.29-2.15-3.29h.04zm13.1 6.47v-.44c.92-.09 1-.15 1-1.24v-2.59c0-1.1-.37-1.8-1.33-1.8a2.84 2.84 0 00-1.72.81v3.66c0 1 .14 1.06 1 1.15v.44h-3.26v-.43c1-.09 1.1-.15 1.1-1.18v-2.66c0-1.15-.36-1.79-1.3-1.79a3 3 0 00-1.71.81v3.64c0 1 .11 1.09 1 1.18v.44h-3.33v-.44c1-.09 1.12-.15 1.12-1.18v-3.21c0-1-.07-1-.93-1.21v-.39a8.098 8.098 0 002.15-.62v1.31c.366-.293.75-.564 1.15-.81a2.169 2.169 0 011.22-.4 1.81 1.81 0 011.68 1.21c.44-.34.84-.6 1.23-.87.362-.242.784-.38 1.22-.4 1.21 0 2 .87 2 2.39v3c0 1 .09 1.09 1 1.18v.44h-3.29zm5.48.26a.922.922 0 01-.95-1 .947.947 0 01.257-.707.93.93 0 01.693-.293.999.999 0 110 2zm9.38-.62a18.24 18.24 0 00-2.37.54v-1.19a3.808 3.808 0 01-2.4 1.19c-1 0-1.94-.63-1.94-2.32v-3c0-.84-.12-.93-.51-1l-.43-.08v-.4a21.654 21.654 0 002.22-.28c-.05.49-.05 1.24-.05 2.26v2.11c0 1.37.71 1.75 1.41 1.75a2.431 2.431 0 001.68-.74v-3.63c0-.84-.19-1-.72-1l-.49-.06v-.4a23.428 23.428 0 002.43-.28v5.15c0 .78.13.89.71.92h.44l.02.46zm5.75.54a1.148 1.148 0 01-.73-.29 1.473 1.473 0 01-.37-.7 4.85 4.85 0 01-1.86 1 1.897 1.897 0 01-1.755-1.196 1.901 1.901 0 01-.135-.734 1.578 1.578 0 011.27-1.55c.85-.244 1.671-.58 2.45-1v-.32c0-1.1-.56-1.73-1.36-1.73a.901.901 0 00-.73.35 3.374 3.374 0 00-.42 1 .442.442 0 01-.45.36.742.742 0 01-.68-.68c0-.22.2-.41.51-.62a6.508 6.508 0 012.23-1.09 2.11 2.11 0 011.3.42 2.144 2.144 0 01.8 1.8v3c0 .72.26.93.54.93.198-.008.39-.067.56-.17l.15.44-1.32.78zm-1.13-3.92c-.34.17-1.08.49-1.44.65-.59.26-.95.56-.95 1.13a1.12 1.12 0 00.301.841 1.132 1.132 0 00.819.36 2.073 2.073 0 001.27-.56V37.5z" fill="#fff"/><path opacity=".8" d="M84.23 60.79a27.891 27.891 0 0011.21-40.08c30-2.7 47.21 10.65 47.21 10.65s-26.13-27-65.12-29.5a160.652 160.652 0 008.76 18.26c2.95 5.39 4.9 8.95 4.9 14.63 0 11.21-8.68 20.32-19.36 20.32s-19.35-9.11-19.35-20.32c0-5.68 1.93-9.19 4.84-14.51v-.06A161.485 161.485 0 0066.1 1.83C46.4 3.09 24.05 11.05.51 31.33c22.41-11.06 42.4-18.83 60.72-21.32a27.908 27.908 0 00-12.15 41.67C26.77 54.92.56 43.41.56 43.41s64.54 55.24 142.09 0c-21.45 8.8-40.72 15.09-58.42 17.38z" fill="#fff"/><defs><radialGradient id="paint0_radial" cx="0" cy="0" r="1" gradientUnits="userSpaceOnUse" gradientTransform="matrix(21.9264 0 0 20.7844 73.324 37.059)"><stop stop-color="#fff"/><stop offset="1" stop-color="#0E75BC"/></radialGradient><radialGradient id="paint1_radial" cx="0" cy="0" r="1" gradientUnits="userSpaceOnUse" gradientTransform="matrix(20.2176 0 0 19.1646 74.783 46.277)"><stop stop-color="#fff"/><stop offset=".47" stop-color="#fff" stop-opacity=".51"/><stop offset=".83" stop-color="#fff" stop-opacity=".14"/><stop offset="1" stop-color="#fff" stop-opacity="0"/></radialGradient><radialGradient id="paint2_radial" cx="0" cy="0" r="1" gradientUnits="userSpaceOnUse" gradientTransform="matrix(321.172 0 0 773.834 1650.58 641.889)"><stop stop-color="#fff"/><stop offset=".47" stop-color="#fff" stop-opacity=".51"/><stop offset=".83" stop-color="#fff" stop-opacity=".14"/><stop offset="1" stop-color="#fff" stop-opacity="0"/></radialGradient></defs></svg>