<svg xmlns="http://www.w3.org/2000/svg" width="25" height="25"><path d="M20.92 4.42a10.45 10.45 0 00-7.18-3.07 1 1 0 00-1 1 1.07 1.07 0 001 1 8.37 8.37 0 018.16 8.16 1.07 1.07 0 001 1 1 1 0 001-1 10.43 10.43 0 00-2.98-7.09zM16.5 8.83a4 4 0 011.19 2.77 1.07 1.07 0 001 1 1 1 0 001-1 6.19 6.19 0 00-6-6 1 1 0 00-1 1 1.07 1.07 0 001 1 4 4 0 012.81 1.23zM8.22 7.59l1.07-1.07a1.11 1.11 0 000-1.58L4.68.33a1.1 1.1 0 00-1.57 0L2 1.4zm9.19 9.18L23.6 23l1.07-1.08a1.1 1.1 0 000-1.57l-4.61-4.61a1.11 1.11 0 00-1.58 0zm-6.93-2.25c-4.22-4.2-3.8-5.38-3.35-5.83l.12-.13-6.18-6.19-.17.16C.1 3.34-2.37 8.71 7 18s14.7 6.86 15.51 6.06l.16-.16-6.19-6.19-.13.12c-.49.49-1.64.89-5.87-3.31z" fill="#f07e20" data-name="Layer 2"/></svg>